M48
;GenerationSoftware,Autodesk,EAGLE,9.3.0*%
;CreationDate,2019-02-15T10:44:41Z*%
FMAT,2
ICI,OFF
METRIC,TZ,000.000
T4C0.813
T3C1.016
T2C1.118
T1C1.200
%
G90
M71
T1
X26670Y12780
X26670Y17780
X26670Y22780
T2
X2540Y3810
X6350Y3810
T3
X20193Y3810
X22987Y3810
T4
X12700Y24130
X17780Y24130
X3810Y11430
X6350Y11430
X19050Y11430
X19050Y19050
X8890Y11430
X11430Y11430
X16510Y11430
X13970Y11430
X16510Y19050
X13970Y19050
X11430Y19050
X8890Y19050
X6350Y19050
X3810Y19050
X11430Y2540
X11430Y7620
X13970Y2540
X13970Y7620
X8890Y26670
X8890Y21590
X6350Y21590
X6350Y26670
M30