G04 EAGLE Gerber RS-274X export*
G75*
%MOMM*%
%FSLAX34Y34*%
%LPD*%
%INBottom Copper*%
%IPPOS*%
%AMOC8*
5,1,8,0,0,1.08239X$1,22.5*%
G01*
%ADD10C,1.574800*%
%ADD11P,1.704548X8X112.500000*%
%ADD12P,1.704548X8X292.500000*%
%ADD13P,1.594577X8X22.500000*%
%ADD14C,1.930400*%
%ADD15P,3.409096X8X292.500000*%
%ADD16C,1.473200*%
%ADD17C,1.676400*%
%ADD18P,1.594577X8X112.500000*%
%ADD19P,1.594577X8X292.500000*%
%ADD20P,1.594577X8X202.500000*%
%ADD21C,6.350000*%


D10*
X215900Y25400D03*
D11*
X215900Y127000D03*
D10*
X101600Y127000D03*
D12*
X101600Y25400D03*
D13*
X50800Y444500D03*
X101600Y444500D03*
X127000Y444500D03*
X177800Y444500D03*
X203200Y444500D03*
X254000Y444500D03*
X279400Y431800D03*
X330200Y431800D03*
D10*
X254000Y152400D03*
D11*
X254000Y254000D03*
D14*
X165100Y127000D03*
X165100Y25400D03*
D15*
X25400Y215900D03*
X76200Y215900D03*
D16*
X114300Y165100D03*
X139700Y165100D03*
X139700Y241300D03*
X114300Y241300D03*
X165100Y165100D03*
X190500Y165100D03*
X165100Y241300D03*
X190500Y241300D03*
D17*
X49530Y474218D02*
X49530Y490982D01*
X77470Y490982D02*
X77470Y474218D01*
X125730Y474218D02*
X125730Y490982D01*
X153670Y490982D02*
X153670Y474218D01*
X201930Y474218D02*
X201930Y490982D01*
X229870Y490982D02*
X229870Y474218D01*
X278130Y474218D02*
X278130Y490982D01*
X306070Y490982D02*
X306070Y474218D01*
X290830Y59182D02*
X290830Y42418D01*
X318770Y42418D02*
X318770Y59182D01*
D18*
X317500Y152400D03*
X317500Y254000D03*
X355600Y152400D03*
X355600Y254000D03*
D19*
X50800Y406400D03*
X50800Y304800D03*
X88900Y406400D03*
X88900Y304800D03*
X127000Y406400D03*
X127000Y304800D03*
X165100Y406400D03*
X165100Y304800D03*
D13*
X254000Y114300D03*
X355600Y114300D03*
X203200Y342900D03*
X304800Y342900D03*
D20*
X304800Y304800D03*
X203200Y304800D03*
X215900Y279400D03*
X114300Y279400D03*
D21*
X50800Y63500D03*
X355600Y482600D03*
M02*
