G04 EAGLE Gerber RS-274X export*
G75*
%MOMM*%
%FSLAX34Y34*%
%LPD*%
%INSilkscreen Top*%
%IPPOS*%
%AMOC8*
5,1,8,0,0,1.08239X$1,22.5*%
G01*
%ADD10C,0.152400*%
%ADD11R,2.540000X0.508000*%
%ADD12C,0.127000*%
%ADD13C,0.304800*%
%ADD14R,0.762000X1.905000*%
%ADD15C,0.254000*%
%ADD16C,0.203200*%


D10*
X179070Y134620D02*
X179070Y21590D01*
X182880Y138430D02*
X248920Y138430D01*
X252730Y134620D02*
X252730Y21590D01*
X186690Y13970D02*
X179070Y21590D01*
X199136Y33020D02*
X205486Y33020D01*
X202184Y36322D02*
X202184Y29718D01*
X215900Y39370D02*
X215900Y68580D01*
X228092Y68580D01*
X228092Y73660D01*
X203708Y73660D01*
X203708Y68580D01*
X215900Y68580D01*
X215900Y82550D02*
X215900Y111760D01*
X252730Y21590D02*
X245110Y13970D01*
X186690Y13970D01*
X179070Y134620D02*
X179072Y134742D01*
X179078Y134864D01*
X179088Y134986D01*
X179101Y135107D01*
X179119Y135228D01*
X179140Y135348D01*
X179166Y135468D01*
X179195Y135586D01*
X179227Y135704D01*
X179264Y135821D01*
X179304Y135936D01*
X179348Y136050D01*
X179396Y136162D01*
X179447Y136273D01*
X179502Y136382D01*
X179560Y136490D01*
X179622Y136595D01*
X179687Y136698D01*
X179755Y136800D01*
X179827Y136899D01*
X179901Y136995D01*
X179979Y137090D01*
X180060Y137181D01*
X180143Y137271D01*
X180229Y137357D01*
X180319Y137440D01*
X180410Y137521D01*
X180505Y137599D01*
X180601Y137673D01*
X180700Y137745D01*
X180802Y137813D01*
X180905Y137878D01*
X181010Y137940D01*
X181118Y137998D01*
X181227Y138053D01*
X181338Y138104D01*
X181450Y138152D01*
X181564Y138196D01*
X181679Y138236D01*
X181796Y138273D01*
X181914Y138305D01*
X182032Y138334D01*
X182152Y138360D01*
X182272Y138381D01*
X182393Y138399D01*
X182514Y138412D01*
X182636Y138422D01*
X182758Y138428D01*
X182880Y138430D01*
X248920Y138430D02*
X249042Y138428D01*
X249164Y138422D01*
X249286Y138412D01*
X249407Y138399D01*
X249528Y138381D01*
X249648Y138360D01*
X249768Y138334D01*
X249886Y138305D01*
X250004Y138273D01*
X250121Y138236D01*
X250236Y138196D01*
X250350Y138152D01*
X250462Y138104D01*
X250573Y138053D01*
X250682Y137998D01*
X250790Y137940D01*
X250895Y137878D01*
X250998Y137813D01*
X251100Y137745D01*
X251199Y137673D01*
X251295Y137599D01*
X251390Y137521D01*
X251481Y137440D01*
X251571Y137357D01*
X251657Y137271D01*
X251740Y137181D01*
X251821Y137090D01*
X251899Y136995D01*
X251973Y136899D01*
X252045Y136800D01*
X252113Y136698D01*
X252178Y136595D01*
X252240Y136490D01*
X252298Y136382D01*
X252353Y136273D01*
X252404Y136162D01*
X252452Y136050D01*
X252496Y135936D01*
X252536Y135821D01*
X252573Y135704D01*
X252605Y135586D01*
X252634Y135468D01*
X252660Y135348D01*
X252681Y135228D01*
X252699Y135107D01*
X252712Y134986D01*
X252722Y134864D01*
X252728Y134742D01*
X252730Y134620D01*
D11*
X215900Y81280D03*
D12*
X174625Y28575D02*
X174625Y26035D01*
X174623Y25935D01*
X174617Y25836D01*
X174607Y25736D01*
X174594Y25638D01*
X174576Y25539D01*
X174555Y25442D01*
X174530Y25346D01*
X174501Y25250D01*
X174468Y25156D01*
X174432Y25063D01*
X174392Y24972D01*
X174348Y24882D01*
X174301Y24794D01*
X174251Y24708D01*
X174197Y24624D01*
X174140Y24542D01*
X174080Y24463D01*
X174016Y24385D01*
X173950Y24311D01*
X173881Y24239D01*
X173809Y24170D01*
X173735Y24104D01*
X173657Y24040D01*
X173578Y23980D01*
X173496Y23923D01*
X173412Y23869D01*
X173326Y23819D01*
X173238Y23772D01*
X173148Y23728D01*
X173057Y23688D01*
X172964Y23652D01*
X172870Y23619D01*
X172774Y23590D01*
X172678Y23565D01*
X172581Y23544D01*
X172482Y23526D01*
X172384Y23513D01*
X172284Y23503D01*
X172185Y23497D01*
X172085Y23495D01*
X165735Y23495D01*
X165635Y23497D01*
X165536Y23503D01*
X165436Y23513D01*
X165338Y23526D01*
X165239Y23544D01*
X165142Y23565D01*
X165046Y23590D01*
X164950Y23619D01*
X164856Y23652D01*
X164763Y23688D01*
X164672Y23728D01*
X164582Y23772D01*
X164494Y23819D01*
X164408Y23869D01*
X164324Y23923D01*
X164242Y23980D01*
X164163Y24040D01*
X164085Y24104D01*
X164011Y24170D01*
X163939Y24239D01*
X163870Y24311D01*
X163804Y24385D01*
X163740Y24463D01*
X163680Y24542D01*
X163623Y24624D01*
X163569Y24708D01*
X163519Y24794D01*
X163472Y24882D01*
X163428Y24972D01*
X163388Y25063D01*
X163352Y25156D01*
X163319Y25250D01*
X163290Y25346D01*
X163265Y25442D01*
X163244Y25539D01*
X163226Y25638D01*
X163213Y25736D01*
X163203Y25836D01*
X163197Y25935D01*
X163195Y26035D01*
X163195Y28575D01*
X165735Y33057D02*
X163195Y36232D01*
X174625Y36232D01*
X174625Y33057D02*
X174625Y39407D01*
D10*
X138430Y17780D02*
X138430Y130810D01*
X134620Y13970D02*
X68580Y13970D01*
X64770Y17780D02*
X64770Y130810D01*
X130810Y138430D02*
X138430Y130810D01*
X118364Y119380D02*
X112014Y119380D01*
X115316Y116078D02*
X115316Y122682D01*
X101600Y113030D02*
X101600Y83820D01*
X89408Y83820D01*
X89408Y78740D01*
X113792Y78740D01*
X113792Y83820D01*
X101600Y83820D01*
X101600Y69850D02*
X101600Y40640D01*
X64770Y130810D02*
X72390Y138430D01*
X130810Y138430D01*
X138430Y17780D02*
X138428Y17658D01*
X138422Y17536D01*
X138412Y17414D01*
X138399Y17293D01*
X138381Y17172D01*
X138360Y17052D01*
X138334Y16932D01*
X138305Y16814D01*
X138273Y16696D01*
X138236Y16579D01*
X138196Y16464D01*
X138152Y16350D01*
X138104Y16238D01*
X138053Y16127D01*
X137998Y16018D01*
X137940Y15910D01*
X137878Y15805D01*
X137813Y15702D01*
X137745Y15600D01*
X137673Y15501D01*
X137599Y15405D01*
X137521Y15310D01*
X137440Y15219D01*
X137357Y15129D01*
X137271Y15043D01*
X137181Y14960D01*
X137090Y14879D01*
X136995Y14801D01*
X136899Y14727D01*
X136800Y14655D01*
X136698Y14587D01*
X136595Y14522D01*
X136490Y14460D01*
X136382Y14402D01*
X136273Y14347D01*
X136162Y14296D01*
X136050Y14248D01*
X135936Y14204D01*
X135821Y14164D01*
X135704Y14127D01*
X135586Y14095D01*
X135468Y14066D01*
X135348Y14040D01*
X135228Y14019D01*
X135107Y14001D01*
X134986Y13988D01*
X134864Y13978D01*
X134742Y13972D01*
X134620Y13970D01*
X68580Y13970D02*
X68458Y13972D01*
X68336Y13978D01*
X68214Y13988D01*
X68093Y14001D01*
X67972Y14019D01*
X67852Y14040D01*
X67732Y14066D01*
X67614Y14095D01*
X67496Y14127D01*
X67379Y14164D01*
X67264Y14204D01*
X67150Y14248D01*
X67038Y14296D01*
X66927Y14347D01*
X66818Y14402D01*
X66710Y14460D01*
X66605Y14522D01*
X66502Y14587D01*
X66400Y14655D01*
X66301Y14727D01*
X66205Y14801D01*
X66110Y14879D01*
X66019Y14960D01*
X65929Y15043D01*
X65843Y15129D01*
X65760Y15219D01*
X65679Y15310D01*
X65601Y15405D01*
X65527Y15501D01*
X65455Y15600D01*
X65387Y15702D01*
X65322Y15805D01*
X65260Y15910D01*
X65202Y16018D01*
X65147Y16127D01*
X65096Y16238D01*
X65048Y16350D01*
X65004Y16464D01*
X64964Y16579D01*
X64927Y16696D01*
X64895Y16814D01*
X64866Y16932D01*
X64840Y17052D01*
X64819Y17172D01*
X64801Y17293D01*
X64788Y17414D01*
X64778Y17536D01*
X64772Y17658D01*
X64770Y17780D01*
D11*
X101600Y71120D03*
D12*
X154305Y115533D02*
X154305Y118073D01*
X154305Y115533D02*
X154303Y115433D01*
X154297Y115334D01*
X154287Y115234D01*
X154274Y115136D01*
X154256Y115037D01*
X154235Y114940D01*
X154210Y114844D01*
X154181Y114748D01*
X154148Y114654D01*
X154112Y114561D01*
X154072Y114470D01*
X154028Y114380D01*
X153981Y114292D01*
X153931Y114206D01*
X153877Y114122D01*
X153820Y114040D01*
X153760Y113961D01*
X153696Y113883D01*
X153630Y113809D01*
X153561Y113737D01*
X153489Y113668D01*
X153415Y113602D01*
X153337Y113538D01*
X153258Y113478D01*
X153176Y113421D01*
X153092Y113367D01*
X153006Y113317D01*
X152918Y113270D01*
X152828Y113226D01*
X152737Y113186D01*
X152644Y113150D01*
X152550Y113117D01*
X152454Y113088D01*
X152358Y113063D01*
X152261Y113042D01*
X152162Y113024D01*
X152064Y113011D01*
X151964Y113001D01*
X151865Y112995D01*
X151765Y112993D01*
X145415Y112993D01*
X145315Y112995D01*
X145216Y113001D01*
X145116Y113011D01*
X145018Y113024D01*
X144919Y113042D01*
X144822Y113063D01*
X144726Y113088D01*
X144630Y113117D01*
X144536Y113150D01*
X144443Y113186D01*
X144352Y113226D01*
X144262Y113270D01*
X144174Y113317D01*
X144088Y113367D01*
X144004Y113421D01*
X143922Y113478D01*
X143843Y113538D01*
X143765Y113602D01*
X143691Y113668D01*
X143619Y113737D01*
X143550Y113809D01*
X143484Y113883D01*
X143420Y113961D01*
X143360Y114040D01*
X143303Y114122D01*
X143249Y114206D01*
X143199Y114292D01*
X143152Y114380D01*
X143108Y114470D01*
X143068Y114561D01*
X143032Y114654D01*
X142999Y114748D01*
X142970Y114844D01*
X142945Y114940D01*
X142924Y115037D01*
X142906Y115136D01*
X142893Y115234D01*
X142883Y115334D01*
X142877Y115433D01*
X142875Y115533D01*
X142875Y118073D01*
X142875Y126048D02*
X142877Y126152D01*
X142883Y126257D01*
X142892Y126361D01*
X142905Y126464D01*
X142923Y126567D01*
X142943Y126669D01*
X142968Y126771D01*
X142996Y126871D01*
X143028Y126971D01*
X143064Y127069D01*
X143103Y127166D01*
X143145Y127261D01*
X143191Y127355D01*
X143241Y127447D01*
X143293Y127537D01*
X143349Y127625D01*
X143409Y127711D01*
X143471Y127795D01*
X143536Y127876D01*
X143604Y127955D01*
X143676Y128032D01*
X143749Y128105D01*
X143826Y128177D01*
X143905Y128245D01*
X143986Y128310D01*
X144070Y128372D01*
X144156Y128432D01*
X144244Y128488D01*
X144334Y128540D01*
X144426Y128590D01*
X144520Y128636D01*
X144615Y128678D01*
X144712Y128717D01*
X144810Y128753D01*
X144910Y128785D01*
X145010Y128813D01*
X145112Y128838D01*
X145214Y128858D01*
X145317Y128876D01*
X145420Y128889D01*
X145524Y128898D01*
X145629Y128904D01*
X145733Y128906D01*
X142875Y126048D02*
X142877Y125930D01*
X142883Y125811D01*
X142892Y125693D01*
X142905Y125576D01*
X142923Y125459D01*
X142943Y125342D01*
X142968Y125226D01*
X142996Y125111D01*
X143029Y124998D01*
X143064Y124885D01*
X143104Y124773D01*
X143146Y124663D01*
X143193Y124554D01*
X143243Y124446D01*
X143296Y124341D01*
X143353Y124237D01*
X143413Y124135D01*
X143476Y124035D01*
X143543Y123937D01*
X143612Y123841D01*
X143685Y123748D01*
X143761Y123657D01*
X143839Y123568D01*
X143921Y123482D01*
X144005Y123399D01*
X144091Y123318D01*
X144181Y123241D01*
X144272Y123166D01*
X144366Y123094D01*
X144463Y123025D01*
X144561Y122960D01*
X144662Y122897D01*
X144765Y122838D01*
X144869Y122782D01*
X144975Y122730D01*
X145083Y122681D01*
X145192Y122636D01*
X145303Y122594D01*
X145415Y122556D01*
X147955Y127953D02*
X147880Y128029D01*
X147801Y128104D01*
X147720Y128175D01*
X147636Y128244D01*
X147550Y128309D01*
X147462Y128371D01*
X147372Y128431D01*
X147280Y128487D01*
X147185Y128540D01*
X147089Y128589D01*
X146991Y128635D01*
X146892Y128678D01*
X146791Y128717D01*
X146689Y128752D01*
X146586Y128784D01*
X146482Y128812D01*
X146377Y128837D01*
X146270Y128858D01*
X146164Y128875D01*
X146057Y128888D01*
X145949Y128897D01*
X145841Y128903D01*
X145733Y128905D01*
X147955Y127953D02*
X154305Y122555D01*
X154305Y128905D01*
D13*
X73152Y444500D02*
X73152Y450850D01*
X73152Y444500D02*
X73152Y438150D01*
D10*
X73152Y444500D02*
X60960Y444500D01*
D13*
X79502Y444500D02*
X79502Y450850D01*
X79502Y444500D02*
X79502Y438150D01*
D10*
X79502Y444500D02*
X91440Y444500D01*
X39370Y459740D02*
X39370Y429260D01*
X41910Y426720D02*
X110490Y426720D01*
X113030Y429260D02*
X113030Y459740D01*
X110490Y462280D02*
X41910Y462280D01*
X110490Y462280D02*
X110590Y462278D01*
X110689Y462272D01*
X110789Y462262D01*
X110887Y462249D01*
X110986Y462231D01*
X111083Y462210D01*
X111179Y462185D01*
X111275Y462156D01*
X111369Y462123D01*
X111462Y462087D01*
X111553Y462047D01*
X111643Y462003D01*
X111731Y461956D01*
X111817Y461906D01*
X111901Y461852D01*
X111983Y461795D01*
X112062Y461735D01*
X112140Y461671D01*
X112214Y461605D01*
X112286Y461536D01*
X112355Y461464D01*
X112421Y461390D01*
X112485Y461312D01*
X112545Y461233D01*
X112602Y461151D01*
X112656Y461067D01*
X112706Y460981D01*
X112753Y460893D01*
X112797Y460803D01*
X112837Y460712D01*
X112873Y460619D01*
X112906Y460525D01*
X112935Y460429D01*
X112960Y460333D01*
X112981Y460236D01*
X112999Y460137D01*
X113012Y460039D01*
X113022Y459939D01*
X113028Y459840D01*
X113030Y459740D01*
X113030Y429260D02*
X113028Y429160D01*
X113022Y429061D01*
X113012Y428961D01*
X112999Y428863D01*
X112981Y428764D01*
X112960Y428667D01*
X112935Y428571D01*
X112906Y428475D01*
X112873Y428381D01*
X112837Y428288D01*
X112797Y428197D01*
X112753Y428107D01*
X112706Y428019D01*
X112656Y427933D01*
X112602Y427849D01*
X112545Y427767D01*
X112485Y427688D01*
X112421Y427610D01*
X112355Y427536D01*
X112286Y427464D01*
X112214Y427395D01*
X112140Y427329D01*
X112062Y427265D01*
X111983Y427205D01*
X111901Y427148D01*
X111817Y427094D01*
X111731Y427044D01*
X111643Y426997D01*
X111553Y426953D01*
X111462Y426913D01*
X111369Y426877D01*
X111275Y426844D01*
X111179Y426815D01*
X111083Y426790D01*
X110986Y426769D01*
X110887Y426751D01*
X110789Y426738D01*
X110689Y426728D01*
X110590Y426722D01*
X110490Y426720D01*
X41910Y426720D02*
X41810Y426722D01*
X41711Y426728D01*
X41611Y426738D01*
X41513Y426751D01*
X41414Y426769D01*
X41317Y426790D01*
X41221Y426815D01*
X41125Y426844D01*
X41031Y426877D01*
X40938Y426913D01*
X40847Y426953D01*
X40757Y426997D01*
X40669Y427044D01*
X40583Y427094D01*
X40499Y427148D01*
X40417Y427205D01*
X40338Y427265D01*
X40260Y427329D01*
X40186Y427395D01*
X40114Y427464D01*
X40045Y427536D01*
X39979Y427610D01*
X39915Y427688D01*
X39855Y427767D01*
X39798Y427849D01*
X39744Y427933D01*
X39694Y428019D01*
X39647Y428107D01*
X39603Y428197D01*
X39563Y428288D01*
X39527Y428381D01*
X39494Y428475D01*
X39465Y428571D01*
X39440Y428667D01*
X39419Y428764D01*
X39401Y428863D01*
X39388Y428961D01*
X39378Y429061D01*
X39372Y429160D01*
X39370Y429260D01*
X39370Y459740D02*
X39372Y459840D01*
X39378Y459939D01*
X39388Y460039D01*
X39401Y460137D01*
X39419Y460236D01*
X39440Y460333D01*
X39465Y460429D01*
X39494Y460525D01*
X39527Y460619D01*
X39563Y460712D01*
X39603Y460803D01*
X39647Y460893D01*
X39694Y460981D01*
X39744Y461067D01*
X39798Y461151D01*
X39855Y461233D01*
X39915Y461312D01*
X39979Y461390D01*
X40045Y461464D01*
X40114Y461536D01*
X40186Y461605D01*
X40260Y461671D01*
X40338Y461735D01*
X40417Y461795D01*
X40499Y461852D01*
X40583Y461906D01*
X40669Y461956D01*
X40757Y462003D01*
X40847Y462047D01*
X40938Y462087D01*
X41031Y462123D01*
X41125Y462156D01*
X41221Y462185D01*
X41317Y462210D01*
X41414Y462231D01*
X41513Y462249D01*
X41611Y462262D01*
X41711Y462272D01*
X41810Y462278D01*
X41910Y462280D01*
D12*
X43815Y466725D02*
X46355Y466725D01*
X43815Y466725D02*
X43715Y466727D01*
X43616Y466733D01*
X43516Y466743D01*
X43418Y466756D01*
X43319Y466774D01*
X43222Y466795D01*
X43126Y466820D01*
X43030Y466849D01*
X42936Y466882D01*
X42843Y466918D01*
X42752Y466958D01*
X42662Y467002D01*
X42574Y467049D01*
X42488Y467099D01*
X42404Y467153D01*
X42322Y467210D01*
X42243Y467270D01*
X42165Y467334D01*
X42091Y467400D01*
X42019Y467469D01*
X41950Y467541D01*
X41884Y467615D01*
X41820Y467693D01*
X41760Y467772D01*
X41703Y467854D01*
X41649Y467938D01*
X41599Y468024D01*
X41552Y468112D01*
X41508Y468202D01*
X41468Y468293D01*
X41432Y468386D01*
X41399Y468480D01*
X41370Y468576D01*
X41345Y468672D01*
X41324Y468769D01*
X41306Y468868D01*
X41293Y468966D01*
X41283Y469066D01*
X41277Y469165D01*
X41275Y469265D01*
X41275Y475615D01*
X41277Y475715D01*
X41283Y475814D01*
X41293Y475914D01*
X41306Y476012D01*
X41324Y476111D01*
X41345Y476208D01*
X41370Y476304D01*
X41399Y476400D01*
X41432Y476494D01*
X41468Y476587D01*
X41508Y476678D01*
X41552Y476768D01*
X41599Y476856D01*
X41649Y476942D01*
X41703Y477026D01*
X41760Y477108D01*
X41820Y477187D01*
X41884Y477265D01*
X41950Y477339D01*
X42019Y477411D01*
X42091Y477480D01*
X42165Y477546D01*
X42243Y477610D01*
X42322Y477670D01*
X42404Y477727D01*
X42488Y477781D01*
X42574Y477831D01*
X42662Y477878D01*
X42752Y477922D01*
X42843Y477962D01*
X42936Y477998D01*
X43030Y478031D01*
X43126Y478060D01*
X43222Y478085D01*
X43319Y478106D01*
X43418Y478124D01*
X43516Y478137D01*
X43616Y478147D01*
X43715Y478153D01*
X43815Y478155D01*
X46355Y478155D01*
X50837Y466725D02*
X54012Y466725D01*
X54123Y466727D01*
X54233Y466733D01*
X54344Y466742D01*
X54454Y466756D01*
X54563Y466773D01*
X54672Y466794D01*
X54780Y466819D01*
X54887Y466848D01*
X54993Y466880D01*
X55098Y466916D01*
X55201Y466956D01*
X55303Y466999D01*
X55404Y467046D01*
X55503Y467097D01*
X55599Y467150D01*
X55694Y467207D01*
X55787Y467268D01*
X55878Y467331D01*
X55967Y467398D01*
X56053Y467468D01*
X56136Y467541D01*
X56218Y467616D01*
X56296Y467694D01*
X56371Y467776D01*
X56444Y467859D01*
X56514Y467945D01*
X56581Y468034D01*
X56644Y468125D01*
X56705Y468218D01*
X56762Y468312D01*
X56815Y468409D01*
X56866Y468508D01*
X56913Y468609D01*
X56956Y468711D01*
X56996Y468814D01*
X57032Y468919D01*
X57064Y469025D01*
X57093Y469132D01*
X57118Y469240D01*
X57139Y469349D01*
X57156Y469458D01*
X57170Y469568D01*
X57179Y469679D01*
X57185Y469789D01*
X57187Y469900D01*
X57185Y470011D01*
X57179Y470121D01*
X57170Y470232D01*
X57156Y470342D01*
X57139Y470451D01*
X57118Y470560D01*
X57093Y470668D01*
X57064Y470775D01*
X57032Y470881D01*
X56996Y470986D01*
X56956Y471089D01*
X56913Y471191D01*
X56866Y471292D01*
X56815Y471391D01*
X56762Y471487D01*
X56705Y471582D01*
X56644Y471675D01*
X56581Y471766D01*
X56514Y471855D01*
X56444Y471941D01*
X56371Y472024D01*
X56296Y472106D01*
X56218Y472184D01*
X56136Y472259D01*
X56053Y472332D01*
X55967Y472402D01*
X55878Y472469D01*
X55787Y472532D01*
X55694Y472593D01*
X55600Y472650D01*
X55503Y472703D01*
X55404Y472754D01*
X55303Y472801D01*
X55201Y472844D01*
X55098Y472884D01*
X54993Y472920D01*
X54887Y472952D01*
X54780Y472981D01*
X54672Y473006D01*
X54563Y473027D01*
X54454Y473044D01*
X54344Y473058D01*
X54233Y473067D01*
X54123Y473073D01*
X54012Y473075D01*
X54647Y478155D02*
X50837Y478155D01*
X54647Y478155D02*
X54747Y478153D01*
X54846Y478147D01*
X54946Y478137D01*
X55044Y478124D01*
X55143Y478106D01*
X55240Y478085D01*
X55336Y478060D01*
X55432Y478031D01*
X55526Y477998D01*
X55619Y477962D01*
X55710Y477922D01*
X55800Y477878D01*
X55888Y477831D01*
X55974Y477781D01*
X56058Y477727D01*
X56140Y477670D01*
X56219Y477610D01*
X56297Y477546D01*
X56371Y477480D01*
X56443Y477411D01*
X56512Y477339D01*
X56578Y477265D01*
X56642Y477187D01*
X56702Y477108D01*
X56759Y477026D01*
X56813Y476942D01*
X56863Y476856D01*
X56910Y476768D01*
X56954Y476678D01*
X56994Y476587D01*
X57030Y476494D01*
X57063Y476400D01*
X57092Y476304D01*
X57117Y476208D01*
X57138Y476111D01*
X57156Y476012D01*
X57169Y475914D01*
X57179Y475814D01*
X57185Y475715D01*
X57187Y475615D01*
X57185Y475515D01*
X57179Y475416D01*
X57169Y475316D01*
X57156Y475218D01*
X57138Y475119D01*
X57117Y475022D01*
X57092Y474926D01*
X57063Y474830D01*
X57030Y474736D01*
X56994Y474643D01*
X56954Y474552D01*
X56910Y474462D01*
X56863Y474374D01*
X56813Y474288D01*
X56759Y474204D01*
X56702Y474122D01*
X56642Y474043D01*
X56578Y473965D01*
X56512Y473891D01*
X56443Y473819D01*
X56371Y473750D01*
X56297Y473684D01*
X56219Y473620D01*
X56140Y473560D01*
X56058Y473503D01*
X55974Y473449D01*
X55888Y473399D01*
X55800Y473352D01*
X55710Y473308D01*
X55619Y473268D01*
X55526Y473232D01*
X55432Y473199D01*
X55336Y473170D01*
X55240Y473145D01*
X55143Y473124D01*
X55044Y473106D01*
X54946Y473093D01*
X54846Y473083D01*
X54747Y473077D01*
X54647Y473075D01*
X52107Y473075D01*
D13*
X149352Y450850D02*
X149352Y444500D01*
X149352Y438150D01*
D10*
X149352Y444500D02*
X137160Y444500D01*
D13*
X155702Y444500D02*
X155702Y450850D01*
X155702Y444500D02*
X155702Y438150D01*
D10*
X155702Y444500D02*
X167640Y444500D01*
X115570Y459740D02*
X115570Y429260D01*
X118110Y426720D02*
X186690Y426720D01*
X189230Y429260D02*
X189230Y459740D01*
X186690Y462280D02*
X118110Y462280D01*
X186690Y462280D02*
X186790Y462278D01*
X186889Y462272D01*
X186989Y462262D01*
X187087Y462249D01*
X187186Y462231D01*
X187283Y462210D01*
X187379Y462185D01*
X187475Y462156D01*
X187569Y462123D01*
X187662Y462087D01*
X187753Y462047D01*
X187843Y462003D01*
X187931Y461956D01*
X188017Y461906D01*
X188101Y461852D01*
X188183Y461795D01*
X188262Y461735D01*
X188340Y461671D01*
X188414Y461605D01*
X188486Y461536D01*
X188555Y461464D01*
X188621Y461390D01*
X188685Y461312D01*
X188745Y461233D01*
X188802Y461151D01*
X188856Y461067D01*
X188906Y460981D01*
X188953Y460893D01*
X188997Y460803D01*
X189037Y460712D01*
X189073Y460619D01*
X189106Y460525D01*
X189135Y460429D01*
X189160Y460333D01*
X189181Y460236D01*
X189199Y460137D01*
X189212Y460039D01*
X189222Y459939D01*
X189228Y459840D01*
X189230Y459740D01*
X189230Y429260D02*
X189228Y429160D01*
X189222Y429061D01*
X189212Y428961D01*
X189199Y428863D01*
X189181Y428764D01*
X189160Y428667D01*
X189135Y428571D01*
X189106Y428475D01*
X189073Y428381D01*
X189037Y428288D01*
X188997Y428197D01*
X188953Y428107D01*
X188906Y428019D01*
X188856Y427933D01*
X188802Y427849D01*
X188745Y427767D01*
X188685Y427688D01*
X188621Y427610D01*
X188555Y427536D01*
X188486Y427464D01*
X188414Y427395D01*
X188340Y427329D01*
X188262Y427265D01*
X188183Y427205D01*
X188101Y427148D01*
X188017Y427094D01*
X187931Y427044D01*
X187843Y426997D01*
X187753Y426953D01*
X187662Y426913D01*
X187569Y426877D01*
X187475Y426844D01*
X187379Y426815D01*
X187283Y426790D01*
X187186Y426769D01*
X187087Y426751D01*
X186989Y426738D01*
X186889Y426728D01*
X186790Y426722D01*
X186690Y426720D01*
X118110Y426720D02*
X118010Y426722D01*
X117911Y426728D01*
X117811Y426738D01*
X117713Y426751D01*
X117614Y426769D01*
X117517Y426790D01*
X117421Y426815D01*
X117325Y426844D01*
X117231Y426877D01*
X117138Y426913D01*
X117047Y426953D01*
X116957Y426997D01*
X116869Y427044D01*
X116783Y427094D01*
X116699Y427148D01*
X116617Y427205D01*
X116538Y427265D01*
X116460Y427329D01*
X116386Y427395D01*
X116314Y427464D01*
X116245Y427536D01*
X116179Y427610D01*
X116115Y427688D01*
X116055Y427767D01*
X115998Y427849D01*
X115944Y427933D01*
X115894Y428019D01*
X115847Y428107D01*
X115803Y428197D01*
X115763Y428288D01*
X115727Y428381D01*
X115694Y428475D01*
X115665Y428571D01*
X115640Y428667D01*
X115619Y428764D01*
X115601Y428863D01*
X115588Y428961D01*
X115578Y429061D01*
X115572Y429160D01*
X115570Y429260D01*
X115570Y459740D02*
X115572Y459840D01*
X115578Y459939D01*
X115588Y460039D01*
X115601Y460137D01*
X115619Y460236D01*
X115640Y460333D01*
X115665Y460429D01*
X115694Y460525D01*
X115727Y460619D01*
X115763Y460712D01*
X115803Y460803D01*
X115847Y460893D01*
X115894Y460981D01*
X115944Y461067D01*
X115998Y461151D01*
X116055Y461233D01*
X116115Y461312D01*
X116179Y461390D01*
X116245Y461464D01*
X116314Y461536D01*
X116386Y461605D01*
X116460Y461671D01*
X116538Y461735D01*
X116617Y461795D01*
X116699Y461852D01*
X116783Y461906D01*
X116869Y461956D01*
X116957Y462003D01*
X117047Y462047D01*
X117138Y462087D01*
X117231Y462123D01*
X117325Y462156D01*
X117421Y462185D01*
X117517Y462210D01*
X117614Y462231D01*
X117713Y462249D01*
X117811Y462262D01*
X117911Y462272D01*
X118010Y462278D01*
X118110Y462280D01*
D12*
X120015Y466725D02*
X122555Y466725D01*
X120015Y466725D02*
X119915Y466727D01*
X119816Y466733D01*
X119716Y466743D01*
X119618Y466756D01*
X119519Y466774D01*
X119422Y466795D01*
X119326Y466820D01*
X119230Y466849D01*
X119136Y466882D01*
X119043Y466918D01*
X118952Y466958D01*
X118862Y467002D01*
X118774Y467049D01*
X118688Y467099D01*
X118604Y467153D01*
X118522Y467210D01*
X118443Y467270D01*
X118365Y467334D01*
X118291Y467400D01*
X118219Y467469D01*
X118150Y467541D01*
X118084Y467615D01*
X118020Y467693D01*
X117960Y467772D01*
X117903Y467854D01*
X117849Y467938D01*
X117799Y468024D01*
X117752Y468112D01*
X117708Y468202D01*
X117668Y468293D01*
X117632Y468386D01*
X117599Y468480D01*
X117570Y468576D01*
X117545Y468672D01*
X117524Y468769D01*
X117506Y468868D01*
X117493Y468966D01*
X117483Y469066D01*
X117477Y469165D01*
X117475Y469265D01*
X117475Y475615D01*
X117477Y475715D01*
X117483Y475814D01*
X117493Y475914D01*
X117506Y476012D01*
X117524Y476111D01*
X117545Y476208D01*
X117570Y476304D01*
X117599Y476400D01*
X117632Y476494D01*
X117668Y476587D01*
X117708Y476678D01*
X117752Y476768D01*
X117799Y476856D01*
X117849Y476942D01*
X117903Y477026D01*
X117960Y477108D01*
X118020Y477187D01*
X118084Y477265D01*
X118150Y477339D01*
X118219Y477411D01*
X118291Y477480D01*
X118365Y477546D01*
X118443Y477610D01*
X118522Y477670D01*
X118604Y477727D01*
X118688Y477781D01*
X118774Y477831D01*
X118862Y477878D01*
X118952Y477922D01*
X119043Y477962D01*
X119136Y477998D01*
X119230Y478031D01*
X119326Y478060D01*
X119422Y478085D01*
X119519Y478106D01*
X119618Y478124D01*
X119716Y478137D01*
X119816Y478147D01*
X119915Y478153D01*
X120015Y478155D01*
X122555Y478155D01*
X129577Y478155D02*
X127037Y469265D01*
X133387Y469265D01*
X131482Y471805D02*
X131482Y466725D01*
D13*
X225552Y450850D02*
X225552Y444500D01*
X225552Y438150D01*
D10*
X225552Y444500D02*
X213360Y444500D01*
D13*
X231902Y444500D02*
X231902Y450850D01*
X231902Y444500D02*
X231902Y438150D01*
D10*
X231902Y444500D02*
X243840Y444500D01*
X191770Y459740D02*
X191770Y429260D01*
X194310Y426720D02*
X262890Y426720D01*
X265430Y429260D02*
X265430Y459740D01*
X262890Y462280D02*
X194310Y462280D01*
X262890Y462280D02*
X262990Y462278D01*
X263089Y462272D01*
X263189Y462262D01*
X263287Y462249D01*
X263386Y462231D01*
X263483Y462210D01*
X263579Y462185D01*
X263675Y462156D01*
X263769Y462123D01*
X263862Y462087D01*
X263953Y462047D01*
X264043Y462003D01*
X264131Y461956D01*
X264217Y461906D01*
X264301Y461852D01*
X264383Y461795D01*
X264462Y461735D01*
X264540Y461671D01*
X264614Y461605D01*
X264686Y461536D01*
X264755Y461464D01*
X264821Y461390D01*
X264885Y461312D01*
X264945Y461233D01*
X265002Y461151D01*
X265056Y461067D01*
X265106Y460981D01*
X265153Y460893D01*
X265197Y460803D01*
X265237Y460712D01*
X265273Y460619D01*
X265306Y460525D01*
X265335Y460429D01*
X265360Y460333D01*
X265381Y460236D01*
X265399Y460137D01*
X265412Y460039D01*
X265422Y459939D01*
X265428Y459840D01*
X265430Y459740D01*
X265430Y429260D02*
X265428Y429160D01*
X265422Y429061D01*
X265412Y428961D01*
X265399Y428863D01*
X265381Y428764D01*
X265360Y428667D01*
X265335Y428571D01*
X265306Y428475D01*
X265273Y428381D01*
X265237Y428288D01*
X265197Y428197D01*
X265153Y428107D01*
X265106Y428019D01*
X265056Y427933D01*
X265002Y427849D01*
X264945Y427767D01*
X264885Y427688D01*
X264821Y427610D01*
X264755Y427536D01*
X264686Y427464D01*
X264614Y427395D01*
X264540Y427329D01*
X264462Y427265D01*
X264383Y427205D01*
X264301Y427148D01*
X264217Y427094D01*
X264131Y427044D01*
X264043Y426997D01*
X263953Y426953D01*
X263862Y426913D01*
X263769Y426877D01*
X263675Y426844D01*
X263579Y426815D01*
X263483Y426790D01*
X263386Y426769D01*
X263287Y426751D01*
X263189Y426738D01*
X263089Y426728D01*
X262990Y426722D01*
X262890Y426720D01*
X194310Y426720D02*
X194210Y426722D01*
X194111Y426728D01*
X194011Y426738D01*
X193913Y426751D01*
X193814Y426769D01*
X193717Y426790D01*
X193621Y426815D01*
X193525Y426844D01*
X193431Y426877D01*
X193338Y426913D01*
X193247Y426953D01*
X193157Y426997D01*
X193069Y427044D01*
X192983Y427094D01*
X192899Y427148D01*
X192817Y427205D01*
X192738Y427265D01*
X192660Y427329D01*
X192586Y427395D01*
X192514Y427464D01*
X192445Y427536D01*
X192379Y427610D01*
X192315Y427688D01*
X192255Y427767D01*
X192198Y427849D01*
X192144Y427933D01*
X192094Y428019D01*
X192047Y428107D01*
X192003Y428197D01*
X191963Y428288D01*
X191927Y428381D01*
X191894Y428475D01*
X191865Y428571D01*
X191840Y428667D01*
X191819Y428764D01*
X191801Y428863D01*
X191788Y428961D01*
X191778Y429061D01*
X191772Y429160D01*
X191770Y429260D01*
X191770Y459740D02*
X191772Y459840D01*
X191778Y459939D01*
X191788Y460039D01*
X191801Y460137D01*
X191819Y460236D01*
X191840Y460333D01*
X191865Y460429D01*
X191894Y460525D01*
X191927Y460619D01*
X191963Y460712D01*
X192003Y460803D01*
X192047Y460893D01*
X192094Y460981D01*
X192144Y461067D01*
X192198Y461151D01*
X192255Y461233D01*
X192315Y461312D01*
X192379Y461390D01*
X192445Y461464D01*
X192514Y461536D01*
X192586Y461605D01*
X192660Y461671D01*
X192738Y461735D01*
X192817Y461795D01*
X192899Y461852D01*
X192983Y461906D01*
X193069Y461956D01*
X193157Y462003D01*
X193247Y462047D01*
X193338Y462087D01*
X193431Y462123D01*
X193525Y462156D01*
X193621Y462185D01*
X193717Y462210D01*
X193814Y462231D01*
X193913Y462249D01*
X194011Y462262D01*
X194111Y462272D01*
X194210Y462278D01*
X194310Y462280D01*
D12*
X196215Y466725D02*
X198755Y466725D01*
X196215Y466725D02*
X196115Y466727D01*
X196016Y466733D01*
X195916Y466743D01*
X195818Y466756D01*
X195719Y466774D01*
X195622Y466795D01*
X195526Y466820D01*
X195430Y466849D01*
X195336Y466882D01*
X195243Y466918D01*
X195152Y466958D01*
X195062Y467002D01*
X194974Y467049D01*
X194888Y467099D01*
X194804Y467153D01*
X194722Y467210D01*
X194643Y467270D01*
X194565Y467334D01*
X194491Y467400D01*
X194419Y467469D01*
X194350Y467541D01*
X194284Y467615D01*
X194220Y467693D01*
X194160Y467772D01*
X194103Y467854D01*
X194049Y467938D01*
X193999Y468024D01*
X193952Y468112D01*
X193908Y468202D01*
X193868Y468293D01*
X193832Y468386D01*
X193799Y468480D01*
X193770Y468576D01*
X193745Y468672D01*
X193724Y468769D01*
X193706Y468868D01*
X193693Y468966D01*
X193683Y469066D01*
X193677Y469165D01*
X193675Y469265D01*
X193675Y475615D01*
X193677Y475715D01*
X193683Y475814D01*
X193693Y475914D01*
X193706Y476012D01*
X193724Y476111D01*
X193745Y476208D01*
X193770Y476304D01*
X193799Y476400D01*
X193832Y476494D01*
X193868Y476587D01*
X193908Y476678D01*
X193952Y476768D01*
X193999Y476856D01*
X194049Y476942D01*
X194103Y477026D01*
X194160Y477108D01*
X194220Y477187D01*
X194284Y477265D01*
X194350Y477339D01*
X194419Y477411D01*
X194491Y477480D01*
X194565Y477546D01*
X194643Y477610D01*
X194722Y477670D01*
X194804Y477727D01*
X194888Y477781D01*
X194974Y477831D01*
X195062Y477878D01*
X195152Y477922D01*
X195243Y477962D01*
X195336Y477998D01*
X195430Y478031D01*
X195526Y478060D01*
X195622Y478085D01*
X195719Y478106D01*
X195818Y478124D01*
X195916Y478137D01*
X196016Y478147D01*
X196115Y478153D01*
X196215Y478155D01*
X198755Y478155D01*
X203237Y466725D02*
X207047Y466725D01*
X207147Y466727D01*
X207246Y466733D01*
X207346Y466743D01*
X207444Y466756D01*
X207543Y466774D01*
X207640Y466795D01*
X207736Y466820D01*
X207832Y466849D01*
X207926Y466882D01*
X208019Y466918D01*
X208110Y466958D01*
X208200Y467002D01*
X208288Y467049D01*
X208374Y467099D01*
X208458Y467153D01*
X208540Y467210D01*
X208619Y467270D01*
X208697Y467334D01*
X208771Y467400D01*
X208843Y467469D01*
X208912Y467541D01*
X208978Y467615D01*
X209042Y467693D01*
X209102Y467772D01*
X209159Y467854D01*
X209213Y467938D01*
X209263Y468024D01*
X209310Y468112D01*
X209354Y468202D01*
X209394Y468293D01*
X209430Y468386D01*
X209463Y468480D01*
X209492Y468576D01*
X209517Y468672D01*
X209538Y468769D01*
X209556Y468868D01*
X209569Y468966D01*
X209579Y469066D01*
X209585Y469165D01*
X209587Y469265D01*
X209587Y470535D01*
X209585Y470635D01*
X209579Y470734D01*
X209569Y470834D01*
X209556Y470932D01*
X209538Y471031D01*
X209517Y471128D01*
X209492Y471224D01*
X209463Y471320D01*
X209430Y471414D01*
X209394Y471507D01*
X209354Y471598D01*
X209310Y471688D01*
X209263Y471776D01*
X209213Y471862D01*
X209159Y471946D01*
X209102Y472028D01*
X209042Y472107D01*
X208978Y472185D01*
X208912Y472259D01*
X208843Y472331D01*
X208771Y472400D01*
X208697Y472466D01*
X208619Y472530D01*
X208540Y472590D01*
X208458Y472647D01*
X208374Y472701D01*
X208288Y472751D01*
X208200Y472798D01*
X208110Y472842D01*
X208019Y472882D01*
X207926Y472918D01*
X207832Y472951D01*
X207736Y472980D01*
X207640Y473005D01*
X207543Y473026D01*
X207444Y473044D01*
X207346Y473057D01*
X207246Y473067D01*
X207147Y473073D01*
X207047Y473075D01*
X203237Y473075D01*
X203237Y478155D01*
X209587Y478155D01*
D13*
X301752Y438150D02*
X301752Y431800D01*
X301752Y425450D01*
D10*
X301752Y431800D02*
X289560Y431800D01*
D13*
X308102Y431800D02*
X308102Y438150D01*
X308102Y431800D02*
X308102Y425450D01*
D10*
X308102Y431800D02*
X320040Y431800D01*
X267970Y447040D02*
X267970Y416560D01*
X270510Y414020D02*
X339090Y414020D01*
X341630Y416560D02*
X341630Y447040D01*
X339090Y449580D02*
X270510Y449580D01*
X339090Y449580D02*
X339190Y449578D01*
X339289Y449572D01*
X339389Y449562D01*
X339487Y449549D01*
X339586Y449531D01*
X339683Y449510D01*
X339779Y449485D01*
X339875Y449456D01*
X339969Y449423D01*
X340062Y449387D01*
X340153Y449347D01*
X340243Y449303D01*
X340331Y449256D01*
X340417Y449206D01*
X340501Y449152D01*
X340583Y449095D01*
X340662Y449035D01*
X340740Y448971D01*
X340814Y448905D01*
X340886Y448836D01*
X340955Y448764D01*
X341021Y448690D01*
X341085Y448612D01*
X341145Y448533D01*
X341202Y448451D01*
X341256Y448367D01*
X341306Y448281D01*
X341353Y448193D01*
X341397Y448103D01*
X341437Y448012D01*
X341473Y447919D01*
X341506Y447825D01*
X341535Y447729D01*
X341560Y447633D01*
X341581Y447536D01*
X341599Y447437D01*
X341612Y447339D01*
X341622Y447239D01*
X341628Y447140D01*
X341630Y447040D01*
X341630Y416560D02*
X341628Y416460D01*
X341622Y416361D01*
X341612Y416261D01*
X341599Y416163D01*
X341581Y416064D01*
X341560Y415967D01*
X341535Y415871D01*
X341506Y415775D01*
X341473Y415681D01*
X341437Y415588D01*
X341397Y415497D01*
X341353Y415407D01*
X341306Y415319D01*
X341256Y415233D01*
X341202Y415149D01*
X341145Y415067D01*
X341085Y414988D01*
X341021Y414910D01*
X340955Y414836D01*
X340886Y414764D01*
X340814Y414695D01*
X340740Y414629D01*
X340662Y414565D01*
X340583Y414505D01*
X340501Y414448D01*
X340417Y414394D01*
X340331Y414344D01*
X340243Y414297D01*
X340153Y414253D01*
X340062Y414213D01*
X339969Y414177D01*
X339875Y414144D01*
X339779Y414115D01*
X339683Y414090D01*
X339586Y414069D01*
X339487Y414051D01*
X339389Y414038D01*
X339289Y414028D01*
X339190Y414022D01*
X339090Y414020D01*
X270510Y414020D02*
X270410Y414022D01*
X270311Y414028D01*
X270211Y414038D01*
X270113Y414051D01*
X270014Y414069D01*
X269917Y414090D01*
X269821Y414115D01*
X269725Y414144D01*
X269631Y414177D01*
X269538Y414213D01*
X269447Y414253D01*
X269357Y414297D01*
X269269Y414344D01*
X269183Y414394D01*
X269099Y414448D01*
X269017Y414505D01*
X268938Y414565D01*
X268860Y414629D01*
X268786Y414695D01*
X268714Y414764D01*
X268645Y414836D01*
X268579Y414910D01*
X268515Y414988D01*
X268455Y415067D01*
X268398Y415149D01*
X268344Y415233D01*
X268294Y415319D01*
X268247Y415407D01*
X268203Y415497D01*
X268163Y415588D01*
X268127Y415681D01*
X268094Y415775D01*
X268065Y415871D01*
X268040Y415967D01*
X268019Y416064D01*
X268001Y416163D01*
X267988Y416261D01*
X267978Y416361D01*
X267972Y416460D01*
X267970Y416560D01*
X267970Y447040D02*
X267972Y447140D01*
X267978Y447239D01*
X267988Y447339D01*
X268001Y447437D01*
X268019Y447536D01*
X268040Y447633D01*
X268065Y447729D01*
X268094Y447825D01*
X268127Y447919D01*
X268163Y448012D01*
X268203Y448103D01*
X268247Y448193D01*
X268294Y448281D01*
X268344Y448367D01*
X268398Y448451D01*
X268455Y448533D01*
X268515Y448612D01*
X268579Y448690D01*
X268645Y448764D01*
X268714Y448836D01*
X268786Y448905D01*
X268860Y448971D01*
X268938Y449035D01*
X269017Y449095D01*
X269099Y449152D01*
X269183Y449206D01*
X269269Y449256D01*
X269357Y449303D01*
X269447Y449347D01*
X269538Y449387D01*
X269631Y449423D01*
X269725Y449456D01*
X269821Y449485D01*
X269917Y449510D01*
X270014Y449531D01*
X270113Y449549D01*
X270211Y449562D01*
X270311Y449572D01*
X270410Y449578D01*
X270510Y449580D01*
D12*
X272415Y454025D02*
X274955Y454025D01*
X272415Y454025D02*
X272315Y454027D01*
X272216Y454033D01*
X272116Y454043D01*
X272018Y454056D01*
X271919Y454074D01*
X271822Y454095D01*
X271726Y454120D01*
X271630Y454149D01*
X271536Y454182D01*
X271443Y454218D01*
X271352Y454258D01*
X271262Y454302D01*
X271174Y454349D01*
X271088Y454399D01*
X271004Y454453D01*
X270922Y454510D01*
X270843Y454570D01*
X270765Y454634D01*
X270691Y454700D01*
X270619Y454769D01*
X270550Y454841D01*
X270484Y454915D01*
X270420Y454993D01*
X270360Y455072D01*
X270303Y455154D01*
X270249Y455238D01*
X270199Y455324D01*
X270152Y455412D01*
X270108Y455502D01*
X270068Y455593D01*
X270032Y455686D01*
X269999Y455780D01*
X269970Y455876D01*
X269945Y455972D01*
X269924Y456069D01*
X269906Y456168D01*
X269893Y456266D01*
X269883Y456366D01*
X269877Y456465D01*
X269875Y456565D01*
X269875Y462915D01*
X269877Y463015D01*
X269883Y463114D01*
X269893Y463214D01*
X269906Y463312D01*
X269924Y463411D01*
X269945Y463508D01*
X269970Y463604D01*
X269999Y463700D01*
X270032Y463794D01*
X270068Y463887D01*
X270108Y463978D01*
X270152Y464068D01*
X270199Y464156D01*
X270249Y464242D01*
X270303Y464326D01*
X270360Y464408D01*
X270420Y464487D01*
X270484Y464565D01*
X270550Y464639D01*
X270619Y464711D01*
X270691Y464780D01*
X270765Y464846D01*
X270843Y464910D01*
X270922Y464970D01*
X271004Y465027D01*
X271088Y465081D01*
X271174Y465131D01*
X271262Y465178D01*
X271352Y465222D01*
X271443Y465262D01*
X271536Y465298D01*
X271630Y465331D01*
X271726Y465360D01*
X271822Y465385D01*
X271919Y465406D01*
X272018Y465424D01*
X272116Y465437D01*
X272216Y465447D01*
X272315Y465453D01*
X272415Y465455D01*
X274955Y465455D01*
X279437Y460375D02*
X283247Y460375D01*
X283347Y460373D01*
X283446Y460367D01*
X283546Y460357D01*
X283644Y460344D01*
X283743Y460326D01*
X283840Y460305D01*
X283936Y460280D01*
X284032Y460251D01*
X284126Y460218D01*
X284219Y460182D01*
X284310Y460142D01*
X284400Y460098D01*
X284488Y460051D01*
X284574Y460001D01*
X284658Y459947D01*
X284740Y459890D01*
X284819Y459830D01*
X284897Y459766D01*
X284971Y459700D01*
X285043Y459631D01*
X285112Y459559D01*
X285178Y459485D01*
X285242Y459407D01*
X285302Y459328D01*
X285359Y459246D01*
X285413Y459162D01*
X285463Y459076D01*
X285510Y458988D01*
X285554Y458898D01*
X285594Y458807D01*
X285630Y458714D01*
X285663Y458620D01*
X285692Y458524D01*
X285717Y458428D01*
X285738Y458331D01*
X285756Y458232D01*
X285769Y458134D01*
X285779Y458034D01*
X285785Y457935D01*
X285787Y457835D01*
X285787Y457200D01*
X285785Y457089D01*
X285779Y456979D01*
X285770Y456868D01*
X285756Y456758D01*
X285739Y456649D01*
X285718Y456540D01*
X285693Y456432D01*
X285664Y456325D01*
X285632Y456219D01*
X285596Y456114D01*
X285556Y456011D01*
X285513Y455909D01*
X285466Y455808D01*
X285415Y455709D01*
X285362Y455612D01*
X285305Y455518D01*
X285244Y455425D01*
X285181Y455334D01*
X285114Y455245D01*
X285044Y455159D01*
X284971Y455076D01*
X284896Y454994D01*
X284818Y454916D01*
X284736Y454841D01*
X284653Y454768D01*
X284567Y454698D01*
X284478Y454631D01*
X284387Y454568D01*
X284294Y454507D01*
X284199Y454450D01*
X284103Y454397D01*
X284004Y454346D01*
X283903Y454299D01*
X283801Y454256D01*
X283698Y454216D01*
X283593Y454180D01*
X283487Y454148D01*
X283380Y454119D01*
X283272Y454094D01*
X283163Y454073D01*
X283054Y454056D01*
X282944Y454042D01*
X282833Y454033D01*
X282723Y454027D01*
X282612Y454025D01*
X282501Y454027D01*
X282391Y454033D01*
X282280Y454042D01*
X282170Y454056D01*
X282061Y454073D01*
X281952Y454094D01*
X281844Y454119D01*
X281737Y454148D01*
X281631Y454180D01*
X281526Y454216D01*
X281423Y454256D01*
X281321Y454299D01*
X281220Y454346D01*
X281121Y454397D01*
X281025Y454450D01*
X280930Y454507D01*
X280837Y454568D01*
X280746Y454631D01*
X280657Y454698D01*
X280571Y454768D01*
X280488Y454841D01*
X280406Y454916D01*
X280328Y454994D01*
X280253Y455076D01*
X280180Y455159D01*
X280110Y455245D01*
X280043Y455334D01*
X279980Y455425D01*
X279919Y455518D01*
X279862Y455613D01*
X279809Y455709D01*
X279758Y455808D01*
X279711Y455909D01*
X279668Y456011D01*
X279628Y456114D01*
X279592Y456219D01*
X279560Y456325D01*
X279531Y456432D01*
X279506Y456540D01*
X279485Y456649D01*
X279468Y456758D01*
X279454Y456868D01*
X279445Y456979D01*
X279439Y457089D01*
X279437Y457200D01*
X279437Y460375D01*
X279439Y460515D01*
X279445Y460655D01*
X279454Y460795D01*
X279468Y460934D01*
X279485Y461073D01*
X279506Y461211D01*
X279531Y461349D01*
X279560Y461486D01*
X279592Y461622D01*
X279629Y461757D01*
X279669Y461891D01*
X279712Y462024D01*
X279760Y462156D01*
X279810Y462287D01*
X279865Y462416D01*
X279923Y462543D01*
X279984Y462669D01*
X280049Y462793D01*
X280118Y462915D01*
X280189Y463035D01*
X280264Y463153D01*
X280342Y463270D01*
X280424Y463384D01*
X280508Y463495D01*
X280596Y463604D01*
X280686Y463711D01*
X280780Y463816D01*
X280876Y463917D01*
X280975Y464016D01*
X281076Y464112D01*
X281181Y464206D01*
X281288Y464296D01*
X281397Y464384D01*
X281508Y464468D01*
X281622Y464550D01*
X281739Y464628D01*
X281857Y464703D01*
X281977Y464774D01*
X282099Y464843D01*
X282223Y464908D01*
X282349Y464969D01*
X282476Y465027D01*
X282605Y465082D01*
X282736Y465132D01*
X282868Y465180D01*
X283001Y465223D01*
X283135Y465263D01*
X283270Y465300D01*
X283406Y465332D01*
X283543Y465361D01*
X283681Y465386D01*
X283819Y465407D01*
X283958Y465424D01*
X284097Y465438D01*
X284237Y465447D01*
X284377Y465453D01*
X284517Y465455D01*
D10*
X217170Y261620D02*
X217170Y148590D01*
X220980Y265430D02*
X287020Y265430D01*
X290830Y261620D02*
X290830Y148590D01*
X224790Y140970D02*
X217170Y148590D01*
X237236Y160020D02*
X243586Y160020D01*
X240284Y163322D02*
X240284Y156718D01*
X254000Y166370D02*
X254000Y195580D01*
X266192Y195580D01*
X266192Y200660D01*
X241808Y200660D01*
X241808Y195580D01*
X254000Y195580D01*
X254000Y209550D02*
X254000Y238760D01*
X290830Y148590D02*
X283210Y140970D01*
X224790Y140970D01*
X217170Y261620D02*
X217172Y261742D01*
X217178Y261864D01*
X217188Y261986D01*
X217201Y262107D01*
X217219Y262228D01*
X217240Y262348D01*
X217266Y262468D01*
X217295Y262586D01*
X217327Y262704D01*
X217364Y262821D01*
X217404Y262936D01*
X217448Y263050D01*
X217496Y263162D01*
X217547Y263273D01*
X217602Y263382D01*
X217660Y263490D01*
X217722Y263595D01*
X217787Y263698D01*
X217855Y263800D01*
X217927Y263899D01*
X218001Y263995D01*
X218079Y264090D01*
X218160Y264181D01*
X218243Y264271D01*
X218329Y264357D01*
X218419Y264440D01*
X218510Y264521D01*
X218605Y264599D01*
X218701Y264673D01*
X218800Y264745D01*
X218902Y264813D01*
X219005Y264878D01*
X219110Y264940D01*
X219218Y264998D01*
X219327Y265053D01*
X219438Y265104D01*
X219550Y265152D01*
X219664Y265196D01*
X219779Y265236D01*
X219896Y265273D01*
X220014Y265305D01*
X220132Y265334D01*
X220252Y265360D01*
X220372Y265381D01*
X220493Y265399D01*
X220614Y265412D01*
X220736Y265422D01*
X220858Y265428D01*
X220980Y265430D01*
X287020Y265430D02*
X287142Y265428D01*
X287264Y265422D01*
X287386Y265412D01*
X287507Y265399D01*
X287628Y265381D01*
X287748Y265360D01*
X287868Y265334D01*
X287986Y265305D01*
X288104Y265273D01*
X288221Y265236D01*
X288336Y265196D01*
X288450Y265152D01*
X288562Y265104D01*
X288673Y265053D01*
X288782Y264998D01*
X288890Y264940D01*
X288995Y264878D01*
X289098Y264813D01*
X289200Y264745D01*
X289299Y264673D01*
X289395Y264599D01*
X289490Y264521D01*
X289581Y264440D01*
X289671Y264357D01*
X289757Y264271D01*
X289840Y264181D01*
X289921Y264090D01*
X289999Y263995D01*
X290073Y263899D01*
X290145Y263800D01*
X290213Y263698D01*
X290278Y263595D01*
X290340Y263490D01*
X290398Y263382D01*
X290453Y263273D01*
X290504Y263162D01*
X290552Y263050D01*
X290596Y262936D01*
X290636Y262821D01*
X290673Y262704D01*
X290705Y262586D01*
X290734Y262468D01*
X290760Y262348D01*
X290781Y262228D01*
X290799Y262107D01*
X290812Y261986D01*
X290822Y261864D01*
X290828Y261742D01*
X290830Y261620D01*
D11*
X254000Y208280D03*
D12*
X212725Y155575D02*
X212725Y153035D01*
X212723Y152935D01*
X212717Y152836D01*
X212707Y152736D01*
X212694Y152638D01*
X212676Y152539D01*
X212655Y152442D01*
X212630Y152346D01*
X212601Y152250D01*
X212568Y152156D01*
X212532Y152063D01*
X212492Y151972D01*
X212448Y151882D01*
X212401Y151794D01*
X212351Y151708D01*
X212297Y151624D01*
X212240Y151542D01*
X212180Y151463D01*
X212116Y151385D01*
X212050Y151311D01*
X211981Y151239D01*
X211909Y151170D01*
X211835Y151104D01*
X211757Y151040D01*
X211678Y150980D01*
X211596Y150923D01*
X211512Y150869D01*
X211426Y150819D01*
X211338Y150772D01*
X211248Y150728D01*
X211157Y150688D01*
X211064Y150652D01*
X210970Y150619D01*
X210874Y150590D01*
X210778Y150565D01*
X210681Y150544D01*
X210582Y150526D01*
X210484Y150513D01*
X210384Y150503D01*
X210285Y150497D01*
X210185Y150495D01*
X203835Y150495D01*
X203735Y150497D01*
X203636Y150503D01*
X203536Y150513D01*
X203438Y150526D01*
X203339Y150544D01*
X203242Y150565D01*
X203146Y150590D01*
X203050Y150619D01*
X202956Y150652D01*
X202863Y150688D01*
X202772Y150728D01*
X202682Y150772D01*
X202594Y150819D01*
X202508Y150869D01*
X202424Y150923D01*
X202342Y150980D01*
X202263Y151040D01*
X202185Y151104D01*
X202111Y151170D01*
X202039Y151239D01*
X201970Y151311D01*
X201904Y151385D01*
X201840Y151463D01*
X201780Y151542D01*
X201723Y151624D01*
X201669Y151708D01*
X201619Y151794D01*
X201572Y151882D01*
X201528Y151972D01*
X201488Y152063D01*
X201452Y152156D01*
X201419Y152250D01*
X201390Y152346D01*
X201365Y152442D01*
X201344Y152539D01*
X201326Y152638D01*
X201313Y152736D01*
X201303Y152836D01*
X201297Y152935D01*
X201295Y153035D01*
X201295Y155575D01*
X201295Y160057D02*
X202565Y160057D01*
X201295Y160057D02*
X201295Y166407D01*
X212725Y163232D01*
D10*
X177800Y96520D02*
X177800Y55880D01*
X177800Y96520D02*
X152400Y96520D01*
X152400Y55880D01*
X177800Y55880D01*
X165100Y69850D02*
X165100Y76200D01*
X158750Y86360D02*
X171450Y86360D01*
X165100Y76200D01*
X165100Y91440D01*
X158750Y86360D02*
X165100Y76200D01*
X158750Y76200D01*
X165100Y76200D02*
X171450Y76200D01*
D11*
X165100Y62230D03*
D14*
X165100Y106045D03*
X165100Y46355D03*
D12*
X147955Y56515D02*
X136525Y56515D01*
X136525Y59690D01*
X136527Y59801D01*
X136533Y59911D01*
X136542Y60022D01*
X136556Y60132D01*
X136573Y60241D01*
X136594Y60350D01*
X136619Y60458D01*
X136648Y60565D01*
X136680Y60671D01*
X136716Y60776D01*
X136756Y60879D01*
X136799Y60981D01*
X136846Y61082D01*
X136897Y61181D01*
X136950Y61277D01*
X137007Y61372D01*
X137068Y61465D01*
X137131Y61556D01*
X137198Y61645D01*
X137268Y61731D01*
X137341Y61814D01*
X137416Y61896D01*
X137494Y61974D01*
X137576Y62049D01*
X137659Y62122D01*
X137745Y62192D01*
X137834Y62259D01*
X137925Y62322D01*
X138018Y62383D01*
X138113Y62440D01*
X138209Y62493D01*
X138308Y62544D01*
X138409Y62591D01*
X138511Y62634D01*
X138614Y62674D01*
X138719Y62710D01*
X138825Y62742D01*
X138932Y62771D01*
X139040Y62796D01*
X139149Y62817D01*
X139258Y62834D01*
X139368Y62848D01*
X139479Y62857D01*
X139589Y62863D01*
X139700Y62865D01*
X144780Y62865D01*
X144891Y62863D01*
X145001Y62857D01*
X145112Y62848D01*
X145222Y62834D01*
X145331Y62817D01*
X145440Y62796D01*
X145548Y62771D01*
X145655Y62742D01*
X145761Y62710D01*
X145866Y62674D01*
X145969Y62634D01*
X146071Y62591D01*
X146172Y62544D01*
X146271Y62493D01*
X146368Y62440D01*
X146462Y62383D01*
X146555Y62322D01*
X146646Y62259D01*
X146735Y62192D01*
X146821Y62122D01*
X146904Y62049D01*
X146986Y61974D01*
X147064Y61896D01*
X147139Y61814D01*
X147212Y61731D01*
X147282Y61645D01*
X147349Y61556D01*
X147412Y61465D01*
X147473Y61372D01*
X147530Y61278D01*
X147583Y61181D01*
X147634Y61082D01*
X147681Y60981D01*
X147724Y60879D01*
X147764Y60776D01*
X147800Y60671D01*
X147832Y60565D01*
X147861Y60458D01*
X147886Y60350D01*
X147907Y60241D01*
X147924Y60132D01*
X147938Y60022D01*
X147947Y59911D01*
X147953Y59801D01*
X147955Y59690D01*
X147955Y56515D01*
X139065Y68326D02*
X136525Y71501D01*
X147955Y71501D01*
X147955Y68326D02*
X147955Y74676D01*
D15*
X31750Y241300D02*
X19050Y241300D01*
X69850Y241300D02*
X82550Y241300D01*
X76200Y234950D02*
X76200Y247650D01*
D10*
X93980Y241300D02*
X101600Y233680D01*
X101600Y198120D01*
X93980Y190500D01*
X7620Y190500D01*
X0Y198120D01*
X0Y233680D01*
X7620Y241300D01*
D16*
X42757Y240707D02*
X46313Y240707D01*
X42757Y240707D02*
X42662Y240709D01*
X42566Y240715D01*
X42471Y240724D01*
X42377Y240738D01*
X42283Y240755D01*
X42190Y240776D01*
X42097Y240801D01*
X42006Y240829D01*
X41916Y240861D01*
X41828Y240897D01*
X41741Y240936D01*
X41655Y240979D01*
X41571Y241025D01*
X41490Y241074D01*
X41410Y241127D01*
X41333Y241183D01*
X41257Y241241D01*
X41185Y241303D01*
X41115Y241368D01*
X41047Y241436D01*
X40982Y241506D01*
X40920Y241578D01*
X40862Y241654D01*
X40806Y241731D01*
X40753Y241811D01*
X40704Y241893D01*
X40658Y241976D01*
X40615Y242062D01*
X40576Y242149D01*
X40540Y242237D01*
X40508Y242327D01*
X40480Y242418D01*
X40455Y242511D01*
X40434Y242604D01*
X40417Y242698D01*
X40403Y242792D01*
X40394Y242887D01*
X40388Y242983D01*
X40386Y243078D01*
X40386Y243671D01*
X40388Y243778D01*
X40394Y243885D01*
X40403Y243991D01*
X40417Y244097D01*
X40434Y244203D01*
X40455Y244308D01*
X40480Y244412D01*
X40509Y244515D01*
X40541Y244617D01*
X40577Y244718D01*
X40617Y244817D01*
X40660Y244915D01*
X40707Y245011D01*
X40757Y245106D01*
X40810Y245199D01*
X40867Y245289D01*
X40927Y245378D01*
X40990Y245464D01*
X41056Y245548D01*
X41126Y245630D01*
X41198Y245709D01*
X41273Y245785D01*
X41351Y245859D01*
X41431Y245929D01*
X41514Y245997D01*
X41599Y246062D01*
X41686Y246123D01*
X41776Y246182D01*
X41867Y246237D01*
X41961Y246289D01*
X42057Y246337D01*
X42154Y246382D01*
X42252Y246424D01*
X42352Y246461D01*
X42454Y246496D01*
X42556Y246526D01*
X42660Y246553D01*
X42764Y246576D01*
X42870Y246595D01*
X42976Y246610D01*
X43082Y246622D01*
X43189Y246630D01*
X43296Y246634D01*
X43402Y246634D01*
X43509Y246630D01*
X43616Y246622D01*
X43722Y246610D01*
X43828Y246595D01*
X43934Y246576D01*
X44038Y246553D01*
X44142Y246526D01*
X44244Y246496D01*
X44346Y246461D01*
X44446Y246424D01*
X44544Y246382D01*
X44641Y246337D01*
X44737Y246289D01*
X44831Y246237D01*
X44922Y246182D01*
X45012Y246123D01*
X45099Y246062D01*
X45184Y245997D01*
X45267Y245929D01*
X45347Y245859D01*
X45425Y245785D01*
X45500Y245709D01*
X45572Y245630D01*
X45642Y245548D01*
X45708Y245464D01*
X45771Y245378D01*
X45831Y245289D01*
X45888Y245199D01*
X45941Y245106D01*
X45991Y245011D01*
X46038Y244915D01*
X46081Y244817D01*
X46121Y244718D01*
X46157Y244617D01*
X46189Y244515D01*
X46218Y244412D01*
X46243Y244308D01*
X46264Y244203D01*
X46281Y244097D01*
X46295Y243991D01*
X46304Y243885D01*
X46310Y243778D01*
X46312Y243671D01*
X46313Y243671D02*
X46313Y240707D01*
X46312Y240707D02*
X46310Y240572D01*
X46304Y240436D01*
X46295Y240301D01*
X46281Y240167D01*
X46264Y240032D01*
X46243Y239899D01*
X46218Y239765D01*
X46189Y239633D01*
X46156Y239502D01*
X46120Y239371D01*
X46080Y239242D01*
X46036Y239114D01*
X45989Y238987D01*
X45938Y238861D01*
X45884Y238738D01*
X45826Y238615D01*
X45764Y238495D01*
X45699Y238376D01*
X45631Y238259D01*
X45559Y238144D01*
X45485Y238031D01*
X45407Y237920D01*
X45325Y237812D01*
X45241Y237706D01*
X45154Y237602D01*
X45064Y237501D01*
X44971Y237403D01*
X44875Y237307D01*
X44777Y237214D01*
X44676Y237124D01*
X44572Y237037D01*
X44466Y236953D01*
X44358Y236871D01*
X44247Y236793D01*
X44134Y236719D01*
X44019Y236647D01*
X43902Y236579D01*
X43783Y236514D01*
X43663Y236452D01*
X43540Y236394D01*
X43417Y236340D01*
X43291Y236289D01*
X43164Y236242D01*
X43036Y236198D01*
X42907Y236158D01*
X42776Y236122D01*
X42645Y236089D01*
X42513Y236060D01*
X42379Y236035D01*
X42246Y236014D01*
X42111Y235997D01*
X41977Y235983D01*
X41842Y235974D01*
X41706Y235968D01*
X41571Y235966D01*
X54779Y235966D02*
X51223Y246634D01*
X58335Y246634D02*
X54779Y235966D01*
D12*
X26035Y254635D02*
X26035Y266065D01*
X29210Y266065D01*
X29321Y266063D01*
X29431Y266057D01*
X29542Y266048D01*
X29652Y266034D01*
X29761Y266017D01*
X29870Y265996D01*
X29978Y265971D01*
X30085Y265942D01*
X30191Y265910D01*
X30296Y265874D01*
X30399Y265834D01*
X30501Y265791D01*
X30602Y265744D01*
X30701Y265693D01*
X30798Y265640D01*
X30892Y265583D01*
X30985Y265522D01*
X31076Y265459D01*
X31165Y265392D01*
X31251Y265322D01*
X31334Y265249D01*
X31416Y265174D01*
X31494Y265096D01*
X31569Y265014D01*
X31642Y264931D01*
X31712Y264845D01*
X31779Y264756D01*
X31842Y264665D01*
X31903Y264572D01*
X31960Y264477D01*
X32013Y264381D01*
X32064Y264282D01*
X32111Y264181D01*
X32154Y264079D01*
X32194Y263976D01*
X32230Y263871D01*
X32262Y263765D01*
X32291Y263658D01*
X32316Y263550D01*
X32337Y263441D01*
X32354Y263332D01*
X32368Y263222D01*
X32377Y263111D01*
X32383Y263001D01*
X32385Y262890D01*
X32383Y262779D01*
X32377Y262669D01*
X32368Y262558D01*
X32354Y262448D01*
X32337Y262339D01*
X32316Y262230D01*
X32291Y262122D01*
X32262Y262015D01*
X32230Y261909D01*
X32194Y261804D01*
X32154Y261701D01*
X32111Y261599D01*
X32064Y261498D01*
X32013Y261399D01*
X31960Y261302D01*
X31903Y261208D01*
X31842Y261115D01*
X31779Y261024D01*
X31712Y260935D01*
X31642Y260849D01*
X31569Y260766D01*
X31494Y260684D01*
X31416Y260606D01*
X31334Y260531D01*
X31251Y260458D01*
X31165Y260388D01*
X31076Y260321D01*
X30985Y260258D01*
X30892Y260197D01*
X30797Y260140D01*
X30701Y260087D01*
X30602Y260036D01*
X30501Y259989D01*
X30399Y259946D01*
X30296Y259906D01*
X30191Y259870D01*
X30085Y259838D01*
X29978Y259809D01*
X29870Y259784D01*
X29761Y259763D01*
X29652Y259746D01*
X29542Y259732D01*
X29431Y259723D01*
X29321Y259717D01*
X29210Y259715D01*
X26035Y259715D01*
X36894Y257810D02*
X36894Y262890D01*
X36896Y263001D01*
X36902Y263111D01*
X36911Y263222D01*
X36925Y263332D01*
X36942Y263441D01*
X36963Y263550D01*
X36988Y263658D01*
X37017Y263765D01*
X37049Y263871D01*
X37085Y263976D01*
X37125Y264079D01*
X37168Y264181D01*
X37215Y264282D01*
X37266Y264381D01*
X37319Y264478D01*
X37376Y264572D01*
X37437Y264665D01*
X37500Y264756D01*
X37567Y264845D01*
X37637Y264931D01*
X37710Y265014D01*
X37785Y265096D01*
X37863Y265174D01*
X37945Y265249D01*
X38028Y265322D01*
X38114Y265392D01*
X38203Y265459D01*
X38294Y265522D01*
X38387Y265583D01*
X38481Y265640D01*
X38578Y265693D01*
X38677Y265744D01*
X38778Y265791D01*
X38880Y265834D01*
X38983Y265874D01*
X39088Y265910D01*
X39194Y265942D01*
X39301Y265971D01*
X39409Y265996D01*
X39518Y266017D01*
X39627Y266034D01*
X39737Y266048D01*
X39848Y266057D01*
X39958Y266063D01*
X40069Y266065D01*
X40180Y266063D01*
X40290Y266057D01*
X40401Y266048D01*
X40511Y266034D01*
X40620Y266017D01*
X40729Y265996D01*
X40837Y265971D01*
X40944Y265942D01*
X41050Y265910D01*
X41155Y265874D01*
X41258Y265834D01*
X41360Y265791D01*
X41461Y265744D01*
X41560Y265693D01*
X41657Y265640D01*
X41751Y265583D01*
X41844Y265522D01*
X41935Y265459D01*
X42024Y265392D01*
X42110Y265322D01*
X42193Y265249D01*
X42275Y265174D01*
X42353Y265096D01*
X42428Y265014D01*
X42501Y264931D01*
X42571Y264845D01*
X42638Y264756D01*
X42701Y264665D01*
X42762Y264572D01*
X42819Y264478D01*
X42872Y264381D01*
X42923Y264282D01*
X42970Y264181D01*
X43013Y264079D01*
X43053Y263976D01*
X43089Y263871D01*
X43121Y263765D01*
X43150Y263658D01*
X43175Y263550D01*
X43196Y263441D01*
X43213Y263332D01*
X43227Y263222D01*
X43236Y263111D01*
X43242Y263001D01*
X43244Y262890D01*
X43244Y257810D01*
X43242Y257699D01*
X43236Y257589D01*
X43227Y257478D01*
X43213Y257368D01*
X43196Y257259D01*
X43175Y257150D01*
X43150Y257042D01*
X43121Y256935D01*
X43089Y256829D01*
X43053Y256724D01*
X43013Y256621D01*
X42970Y256519D01*
X42923Y256418D01*
X42872Y256319D01*
X42819Y256222D01*
X42762Y256128D01*
X42701Y256035D01*
X42638Y255944D01*
X42571Y255855D01*
X42501Y255769D01*
X42428Y255686D01*
X42353Y255604D01*
X42275Y255526D01*
X42193Y255451D01*
X42110Y255378D01*
X42024Y255308D01*
X41935Y255241D01*
X41844Y255178D01*
X41751Y255117D01*
X41656Y255060D01*
X41560Y255007D01*
X41461Y254956D01*
X41360Y254909D01*
X41258Y254866D01*
X41155Y254826D01*
X41050Y254790D01*
X40944Y254758D01*
X40837Y254729D01*
X40729Y254704D01*
X40620Y254683D01*
X40511Y254666D01*
X40401Y254652D01*
X40290Y254643D01*
X40180Y254637D01*
X40069Y254635D01*
X39958Y254637D01*
X39848Y254643D01*
X39737Y254652D01*
X39627Y254666D01*
X39518Y254683D01*
X39409Y254704D01*
X39301Y254729D01*
X39194Y254758D01*
X39088Y254790D01*
X38983Y254826D01*
X38880Y254866D01*
X38778Y254909D01*
X38677Y254956D01*
X38578Y255007D01*
X38481Y255060D01*
X38387Y255117D01*
X38294Y255178D01*
X38203Y255241D01*
X38114Y255308D01*
X38028Y255378D01*
X37945Y255451D01*
X37863Y255526D01*
X37785Y255604D01*
X37710Y255686D01*
X37637Y255769D01*
X37567Y255855D01*
X37500Y255944D01*
X37437Y256035D01*
X37376Y256128D01*
X37319Y256223D01*
X37266Y256319D01*
X37215Y256418D01*
X37168Y256519D01*
X37125Y256621D01*
X37085Y256724D01*
X37049Y256829D01*
X37017Y256935D01*
X36988Y257042D01*
X36963Y257150D01*
X36942Y257259D01*
X36925Y257368D01*
X36911Y257478D01*
X36902Y257589D01*
X36896Y257699D01*
X36894Y257810D01*
X47943Y266065D02*
X50483Y254635D01*
X53023Y262255D01*
X55563Y254635D01*
X58103Y266065D01*
X63208Y254635D02*
X68288Y254635D01*
X63208Y254635D02*
X63208Y266065D01*
X68288Y266065D01*
X67018Y260985D02*
X63208Y260985D01*
X73171Y266065D02*
X73171Y254635D01*
X73171Y266065D02*
X76346Y266065D01*
X76457Y266063D01*
X76567Y266057D01*
X76678Y266048D01*
X76788Y266034D01*
X76897Y266017D01*
X77006Y265996D01*
X77114Y265971D01*
X77221Y265942D01*
X77327Y265910D01*
X77432Y265874D01*
X77535Y265834D01*
X77637Y265791D01*
X77738Y265744D01*
X77837Y265693D01*
X77934Y265640D01*
X78028Y265583D01*
X78121Y265522D01*
X78212Y265459D01*
X78301Y265392D01*
X78387Y265322D01*
X78470Y265249D01*
X78552Y265174D01*
X78630Y265096D01*
X78705Y265014D01*
X78778Y264931D01*
X78848Y264845D01*
X78915Y264756D01*
X78978Y264665D01*
X79039Y264572D01*
X79096Y264477D01*
X79149Y264381D01*
X79200Y264282D01*
X79247Y264181D01*
X79290Y264079D01*
X79330Y263976D01*
X79366Y263871D01*
X79398Y263765D01*
X79427Y263658D01*
X79452Y263550D01*
X79473Y263441D01*
X79490Y263332D01*
X79504Y263222D01*
X79513Y263111D01*
X79519Y263001D01*
X79521Y262890D01*
X79519Y262779D01*
X79513Y262669D01*
X79504Y262558D01*
X79490Y262448D01*
X79473Y262339D01*
X79452Y262230D01*
X79427Y262122D01*
X79398Y262015D01*
X79366Y261909D01*
X79330Y261804D01*
X79290Y261701D01*
X79247Y261599D01*
X79200Y261498D01*
X79149Y261399D01*
X79096Y261302D01*
X79039Y261208D01*
X78978Y261115D01*
X78915Y261024D01*
X78848Y260935D01*
X78778Y260849D01*
X78705Y260766D01*
X78630Y260684D01*
X78552Y260606D01*
X78470Y260531D01*
X78387Y260458D01*
X78301Y260388D01*
X78212Y260321D01*
X78121Y260258D01*
X78028Y260197D01*
X77933Y260140D01*
X77837Y260087D01*
X77738Y260036D01*
X77637Y259989D01*
X77535Y259946D01*
X77432Y259906D01*
X77327Y259870D01*
X77221Y259838D01*
X77114Y259809D01*
X77006Y259784D01*
X76897Y259763D01*
X76788Y259746D01*
X76678Y259732D01*
X76567Y259723D01*
X76457Y259717D01*
X76346Y259715D01*
X73171Y259715D01*
X76981Y259715D02*
X79521Y254635D01*
D10*
X101600Y232410D02*
X203200Y232410D01*
X203200Y173990D02*
X101600Y173990D01*
X203200Y173990D02*
X203200Y232410D01*
X101600Y232410D02*
X101600Y213360D01*
X101600Y193040D02*
X101600Y173990D01*
X101600Y193040D02*
X101847Y193043D01*
X102095Y193052D01*
X102342Y193067D01*
X102588Y193088D01*
X102834Y193115D01*
X103079Y193148D01*
X103324Y193187D01*
X103567Y193232D01*
X103809Y193283D01*
X104050Y193340D01*
X104289Y193402D01*
X104527Y193471D01*
X104763Y193545D01*
X104997Y193625D01*
X105229Y193710D01*
X105459Y193802D01*
X105687Y193898D01*
X105912Y194001D01*
X106135Y194108D01*
X106355Y194222D01*
X106572Y194340D01*
X106787Y194464D01*
X106998Y194593D01*
X107206Y194727D01*
X107411Y194866D01*
X107612Y195010D01*
X107810Y195158D01*
X108004Y195312D01*
X108194Y195470D01*
X108380Y195633D01*
X108562Y195800D01*
X108740Y195972D01*
X108914Y196148D01*
X109084Y196328D01*
X109249Y196513D01*
X109409Y196701D01*
X109565Y196893D01*
X109717Y197089D01*
X109863Y197288D01*
X110005Y197491D01*
X110141Y197698D01*
X110273Y197907D01*
X110399Y198120D01*
X110520Y198336D01*
X110636Y198554D01*
X110746Y198776D01*
X110851Y199000D01*
X110951Y199226D01*
X111045Y199455D01*
X111133Y199686D01*
X111216Y199920D01*
X111293Y200155D01*
X111364Y200392D01*
X111430Y200630D01*
X111489Y200870D01*
X111543Y201112D01*
X111591Y201355D01*
X111633Y201598D01*
X111669Y201843D01*
X111699Y202089D01*
X111723Y202335D01*
X111741Y202582D01*
X111753Y202829D01*
X111759Y203076D01*
X111759Y203324D01*
X111753Y203571D01*
X111741Y203818D01*
X111723Y204065D01*
X111699Y204311D01*
X111669Y204557D01*
X111633Y204802D01*
X111591Y205045D01*
X111543Y205288D01*
X111489Y205530D01*
X111430Y205770D01*
X111364Y206008D01*
X111293Y206245D01*
X111216Y206480D01*
X111133Y206714D01*
X111045Y206945D01*
X110951Y207174D01*
X110851Y207400D01*
X110746Y207624D01*
X110636Y207846D01*
X110520Y208064D01*
X110399Y208280D01*
X110273Y208493D01*
X110141Y208702D01*
X110005Y208909D01*
X109863Y209112D01*
X109717Y209311D01*
X109565Y209507D01*
X109409Y209699D01*
X109249Y209887D01*
X109084Y210072D01*
X108914Y210252D01*
X108740Y210428D01*
X108562Y210600D01*
X108380Y210767D01*
X108194Y210930D01*
X108004Y211088D01*
X107810Y211242D01*
X107612Y211390D01*
X107411Y211534D01*
X107206Y211673D01*
X106998Y211807D01*
X106787Y211936D01*
X106572Y212060D01*
X106355Y212178D01*
X106135Y212292D01*
X105912Y212399D01*
X105687Y212502D01*
X105459Y212598D01*
X105229Y212690D01*
X104997Y212775D01*
X104763Y212855D01*
X104527Y212929D01*
X104289Y212998D01*
X104050Y213060D01*
X103809Y213117D01*
X103567Y213168D01*
X103324Y213213D01*
X103079Y213252D01*
X102834Y213285D01*
X102588Y213312D01*
X102342Y213333D01*
X102095Y213348D01*
X101847Y213357D01*
X101600Y213360D01*
D12*
X98425Y175895D02*
X86995Y175895D01*
X98425Y174625D02*
X98425Y177165D01*
X86995Y177165D02*
X86995Y174625D01*
X98425Y184367D02*
X98425Y186907D01*
X98425Y184367D02*
X98423Y184267D01*
X98417Y184168D01*
X98407Y184068D01*
X98394Y183970D01*
X98376Y183871D01*
X98355Y183774D01*
X98330Y183678D01*
X98301Y183582D01*
X98268Y183488D01*
X98232Y183395D01*
X98192Y183304D01*
X98148Y183214D01*
X98101Y183126D01*
X98051Y183040D01*
X97997Y182956D01*
X97940Y182874D01*
X97880Y182795D01*
X97816Y182717D01*
X97750Y182643D01*
X97681Y182571D01*
X97609Y182502D01*
X97535Y182436D01*
X97457Y182372D01*
X97378Y182312D01*
X97296Y182255D01*
X97212Y182201D01*
X97126Y182151D01*
X97038Y182104D01*
X96948Y182060D01*
X96857Y182020D01*
X96764Y181984D01*
X96670Y181951D01*
X96574Y181922D01*
X96478Y181897D01*
X96381Y181876D01*
X96282Y181858D01*
X96184Y181845D01*
X96084Y181835D01*
X95985Y181829D01*
X95885Y181827D01*
X89535Y181827D01*
X89435Y181829D01*
X89336Y181835D01*
X89236Y181845D01*
X89138Y181858D01*
X89039Y181876D01*
X88942Y181897D01*
X88846Y181922D01*
X88750Y181951D01*
X88656Y181984D01*
X88563Y182020D01*
X88472Y182060D01*
X88382Y182104D01*
X88294Y182151D01*
X88208Y182201D01*
X88124Y182255D01*
X88042Y182312D01*
X87963Y182372D01*
X87885Y182436D01*
X87811Y182502D01*
X87739Y182571D01*
X87670Y182643D01*
X87604Y182717D01*
X87540Y182795D01*
X87480Y182874D01*
X87423Y182956D01*
X87369Y183040D01*
X87319Y183126D01*
X87272Y183214D01*
X87228Y183304D01*
X87188Y183395D01*
X87152Y183488D01*
X87119Y183582D01*
X87090Y183678D01*
X87065Y183774D01*
X87044Y183871D01*
X87026Y183970D01*
X87013Y184068D01*
X87003Y184168D01*
X86997Y184267D01*
X86995Y184367D01*
X86995Y186907D01*
X89535Y191389D02*
X86995Y194564D01*
X98425Y194564D01*
X98425Y191389D02*
X98425Y197739D01*
D16*
X67310Y482600D02*
X59690Y482600D01*
X40640Y482600D02*
X38100Y482600D01*
X38100Y492506D01*
X40894Y495300D01*
X38100Y482600D02*
X38100Y472694D01*
X40894Y469900D01*
X86360Y482600D02*
X88900Y482600D01*
X88900Y472694D01*
X86106Y469900D01*
X88900Y482600D02*
X88900Y492506D01*
X86106Y495300D01*
D12*
X39271Y499745D02*
X39271Y504571D01*
X38735Y499745D02*
X39807Y499745D01*
X39807Y504571D02*
X38735Y504571D01*
X42503Y504571D02*
X42503Y499745D01*
X45184Y499745D02*
X42503Y504571D01*
X45184Y504571D02*
X45184Y499745D01*
X47891Y499209D02*
X50036Y499209D01*
X52561Y503499D02*
X53902Y504571D01*
X53902Y499745D01*
X55242Y499745D02*
X52561Y499745D01*
D16*
X135890Y482600D02*
X143510Y482600D01*
X116840Y482600D02*
X114300Y482600D01*
X114300Y492506D01*
X117094Y495300D01*
X114300Y482600D02*
X114300Y472694D01*
X117094Y469900D01*
X162560Y482600D02*
X165100Y482600D01*
X165100Y472694D01*
X162306Y469900D01*
X165100Y482600D02*
X165100Y492506D01*
X162306Y495300D01*
D12*
X115471Y499745D02*
X115471Y504571D01*
X114935Y499745D02*
X116007Y499745D01*
X116007Y504571D02*
X114935Y504571D01*
X118703Y504571D02*
X118703Y499745D01*
X121384Y499745D02*
X118703Y504571D01*
X121384Y504571D02*
X121384Y499745D01*
X124091Y499209D02*
X126236Y499209D01*
X131443Y503364D02*
X131441Y503432D01*
X131435Y503499D01*
X131426Y503566D01*
X131413Y503633D01*
X131396Y503698D01*
X131375Y503763D01*
X131351Y503826D01*
X131323Y503888D01*
X131292Y503948D01*
X131258Y504006D01*
X131220Y504062D01*
X131180Y504117D01*
X131136Y504168D01*
X131089Y504217D01*
X131040Y504264D01*
X130989Y504308D01*
X130934Y504348D01*
X130878Y504386D01*
X130820Y504420D01*
X130760Y504451D01*
X130698Y504479D01*
X130635Y504503D01*
X130570Y504524D01*
X130505Y504541D01*
X130438Y504554D01*
X130371Y504563D01*
X130304Y504569D01*
X130236Y504571D01*
X130158Y504569D01*
X130080Y504563D01*
X130003Y504553D01*
X129926Y504540D01*
X129850Y504522D01*
X129775Y504501D01*
X129701Y504476D01*
X129629Y504447D01*
X129558Y504415D01*
X129489Y504379D01*
X129421Y504340D01*
X129356Y504297D01*
X129293Y504251D01*
X129232Y504202D01*
X129174Y504150D01*
X129119Y504095D01*
X129066Y504038D01*
X129017Y503978D01*
X128970Y503915D01*
X128927Y503851D01*
X128887Y503784D01*
X128850Y503715D01*
X128817Y503644D01*
X128787Y503572D01*
X128761Y503499D01*
X131040Y502426D02*
X131089Y502475D01*
X131136Y502527D01*
X131179Y502582D01*
X131220Y502639D01*
X131258Y502698D01*
X131292Y502759D01*
X131323Y502822D01*
X131351Y502886D01*
X131375Y502952D01*
X131395Y503018D01*
X131412Y503086D01*
X131425Y503155D01*
X131434Y503224D01*
X131440Y503294D01*
X131442Y503364D01*
X131040Y502426D02*
X128761Y499745D01*
X131442Y499745D01*
D16*
X212090Y482600D02*
X219710Y482600D01*
X193040Y482600D02*
X190500Y482600D01*
X190500Y492506D01*
X193294Y495300D01*
X190500Y482600D02*
X190500Y472694D01*
X193294Y469900D01*
X238760Y482600D02*
X241300Y482600D01*
X241300Y472694D01*
X238506Y469900D01*
X241300Y482600D02*
X241300Y492506D01*
X238506Y495300D01*
D12*
X191671Y499745D02*
X191671Y504571D01*
X191135Y499745D02*
X192207Y499745D01*
X192207Y504571D02*
X191135Y504571D01*
X194903Y504571D02*
X194903Y499745D01*
X197584Y499745D02*
X194903Y504571D01*
X197584Y504571D02*
X197584Y499745D01*
X200291Y499209D02*
X202436Y499209D01*
X204961Y499745D02*
X206302Y499745D01*
X206373Y499747D01*
X206445Y499753D01*
X206515Y499762D01*
X206585Y499775D01*
X206655Y499792D01*
X206723Y499813D01*
X206790Y499837D01*
X206856Y499865D01*
X206920Y499896D01*
X206983Y499931D01*
X207043Y499969D01*
X207102Y500010D01*
X207158Y500054D01*
X207212Y500101D01*
X207263Y500150D01*
X207311Y500203D01*
X207357Y500258D01*
X207399Y500315D01*
X207439Y500375D01*
X207475Y500436D01*
X207508Y500500D01*
X207537Y500565D01*
X207563Y500631D01*
X207586Y500699D01*
X207605Y500768D01*
X207620Y500838D01*
X207631Y500908D01*
X207639Y500979D01*
X207643Y501050D01*
X207643Y501122D01*
X207639Y501193D01*
X207631Y501264D01*
X207620Y501334D01*
X207605Y501404D01*
X207586Y501473D01*
X207563Y501541D01*
X207537Y501607D01*
X207508Y501672D01*
X207475Y501736D01*
X207439Y501797D01*
X207399Y501857D01*
X207357Y501914D01*
X207311Y501969D01*
X207263Y502022D01*
X207212Y502071D01*
X207158Y502118D01*
X207102Y502162D01*
X207043Y502203D01*
X206983Y502241D01*
X206920Y502276D01*
X206856Y502307D01*
X206790Y502335D01*
X206723Y502359D01*
X206655Y502380D01*
X206585Y502397D01*
X206515Y502410D01*
X206445Y502419D01*
X206373Y502425D01*
X206302Y502427D01*
X206570Y504571D02*
X204961Y504571D01*
X206570Y504571D02*
X206635Y504569D01*
X206699Y504563D01*
X206763Y504553D01*
X206827Y504540D01*
X206889Y504522D01*
X206950Y504501D01*
X207010Y504477D01*
X207068Y504448D01*
X207125Y504416D01*
X207179Y504381D01*
X207231Y504343D01*
X207281Y504301D01*
X207328Y504257D01*
X207372Y504210D01*
X207414Y504160D01*
X207452Y504108D01*
X207487Y504054D01*
X207519Y503997D01*
X207548Y503939D01*
X207572Y503879D01*
X207593Y503818D01*
X207611Y503756D01*
X207624Y503692D01*
X207634Y503628D01*
X207640Y503564D01*
X207642Y503499D01*
X207640Y503434D01*
X207634Y503370D01*
X207624Y503306D01*
X207611Y503242D01*
X207593Y503180D01*
X207572Y503119D01*
X207548Y503059D01*
X207519Y503001D01*
X207487Y502944D01*
X207452Y502890D01*
X207414Y502838D01*
X207372Y502788D01*
X207328Y502741D01*
X207281Y502697D01*
X207231Y502655D01*
X207179Y502617D01*
X207125Y502582D01*
X207068Y502550D01*
X207010Y502521D01*
X206950Y502497D01*
X206889Y502476D01*
X206827Y502458D01*
X206763Y502445D01*
X206699Y502435D01*
X206635Y502429D01*
X206570Y502427D01*
X206570Y502426D02*
X205497Y502426D01*
D16*
X288290Y482600D02*
X295910Y482600D01*
X269240Y482600D02*
X266700Y482600D01*
X266700Y492506D01*
X269494Y495300D01*
X266700Y482600D02*
X266700Y472694D01*
X269494Y469900D01*
X314960Y482600D02*
X317500Y482600D01*
X317500Y472694D01*
X314706Y469900D01*
X317500Y482600D02*
X317500Y492506D01*
X314706Y495300D01*
D12*
X267871Y499745D02*
X267871Y504571D01*
X267335Y499745D02*
X268407Y499745D01*
X268407Y504571D02*
X267335Y504571D01*
X271103Y504571D02*
X271103Y499745D01*
X273784Y499745D02*
X271103Y504571D01*
X273784Y504571D02*
X273784Y499745D01*
X276491Y499209D02*
X278636Y499209D01*
X281161Y500817D02*
X282233Y504571D01*
X281161Y500817D02*
X283842Y500817D01*
X283038Y501890D02*
X283038Y499745D01*
D16*
X300990Y50800D02*
X308610Y50800D01*
X281940Y50800D02*
X279400Y50800D01*
X279400Y60706D01*
X282194Y63500D01*
X279400Y50800D02*
X279400Y40894D01*
X282194Y38100D01*
X327660Y50800D02*
X330200Y50800D01*
X330200Y40894D01*
X327406Y38100D01*
X330200Y50800D02*
X330200Y60706D01*
X327406Y63500D01*
D12*
X280035Y69286D02*
X280035Y71430D01*
X280037Y71501D01*
X280043Y71573D01*
X280052Y71643D01*
X280065Y71713D01*
X280082Y71783D01*
X280103Y71851D01*
X280127Y71918D01*
X280155Y71984D01*
X280186Y72048D01*
X280221Y72111D01*
X280259Y72171D01*
X280300Y72230D01*
X280344Y72286D01*
X280391Y72340D01*
X280440Y72391D01*
X280493Y72439D01*
X280548Y72485D01*
X280605Y72527D01*
X280665Y72567D01*
X280726Y72603D01*
X280790Y72636D01*
X280855Y72665D01*
X280921Y72691D01*
X280989Y72714D01*
X281058Y72733D01*
X281128Y72748D01*
X281198Y72759D01*
X281269Y72767D01*
X281340Y72771D01*
X281412Y72771D01*
X281483Y72767D01*
X281554Y72759D01*
X281624Y72748D01*
X281694Y72733D01*
X281763Y72714D01*
X281831Y72691D01*
X281897Y72665D01*
X281962Y72636D01*
X282026Y72603D01*
X282087Y72567D01*
X282147Y72527D01*
X282204Y72485D01*
X282259Y72439D01*
X282312Y72391D01*
X282361Y72340D01*
X282408Y72286D01*
X282452Y72230D01*
X282493Y72171D01*
X282531Y72111D01*
X282566Y72048D01*
X282597Y71984D01*
X282625Y71918D01*
X282649Y71851D01*
X282670Y71783D01*
X282687Y71713D01*
X282700Y71643D01*
X282709Y71573D01*
X282715Y71501D01*
X282717Y71430D01*
X282716Y71430D02*
X282716Y69286D01*
X282717Y69286D02*
X282715Y69215D01*
X282709Y69143D01*
X282700Y69073D01*
X282687Y69003D01*
X282670Y68933D01*
X282649Y68865D01*
X282625Y68798D01*
X282597Y68732D01*
X282566Y68668D01*
X282531Y68605D01*
X282493Y68545D01*
X282452Y68486D01*
X282408Y68430D01*
X282361Y68376D01*
X282312Y68325D01*
X282259Y68277D01*
X282204Y68231D01*
X282147Y68189D01*
X282087Y68149D01*
X282026Y68113D01*
X281962Y68080D01*
X281897Y68051D01*
X281831Y68025D01*
X281763Y68002D01*
X281694Y67983D01*
X281624Y67968D01*
X281554Y67957D01*
X281483Y67949D01*
X281412Y67945D01*
X281340Y67945D01*
X281269Y67949D01*
X281198Y67957D01*
X281128Y67968D01*
X281058Y67983D01*
X280989Y68002D01*
X280921Y68025D01*
X280855Y68051D01*
X280790Y68080D01*
X280726Y68113D01*
X280665Y68149D01*
X280605Y68189D01*
X280548Y68231D01*
X280493Y68277D01*
X280440Y68325D01*
X280391Y68376D01*
X280344Y68430D01*
X280300Y68486D01*
X280259Y68545D01*
X280221Y68605D01*
X280186Y68668D01*
X280155Y68732D01*
X280127Y68798D01*
X280103Y68865D01*
X280082Y68933D01*
X280065Y69003D01*
X280052Y69073D01*
X280043Y69143D01*
X280037Y69215D01*
X280035Y69286D01*
X285704Y69286D02*
X285704Y72771D01*
X285704Y69286D02*
X285706Y69215D01*
X285712Y69143D01*
X285721Y69073D01*
X285734Y69003D01*
X285751Y68933D01*
X285772Y68865D01*
X285796Y68798D01*
X285824Y68732D01*
X285855Y68668D01*
X285890Y68605D01*
X285928Y68545D01*
X285969Y68486D01*
X286013Y68430D01*
X286060Y68376D01*
X286109Y68325D01*
X286162Y68277D01*
X286217Y68231D01*
X286274Y68189D01*
X286334Y68149D01*
X286395Y68113D01*
X286459Y68080D01*
X286524Y68051D01*
X286590Y68025D01*
X286658Y68002D01*
X286727Y67983D01*
X286797Y67968D01*
X286867Y67957D01*
X286938Y67949D01*
X287009Y67945D01*
X287081Y67945D01*
X287152Y67949D01*
X287223Y67957D01*
X287293Y67968D01*
X287363Y67983D01*
X287432Y68002D01*
X287500Y68025D01*
X287566Y68051D01*
X287631Y68080D01*
X287695Y68113D01*
X287756Y68149D01*
X287816Y68189D01*
X287873Y68231D01*
X287928Y68277D01*
X287981Y68325D01*
X288030Y68376D01*
X288077Y68430D01*
X288121Y68486D01*
X288162Y68545D01*
X288200Y68605D01*
X288235Y68668D01*
X288266Y68732D01*
X288294Y68798D01*
X288318Y68865D01*
X288339Y68933D01*
X288356Y69003D01*
X288369Y69073D01*
X288378Y69143D01*
X288384Y69215D01*
X288386Y69286D01*
X288385Y69286D02*
X288385Y72771D01*
X292348Y72771D02*
X292348Y67945D01*
X291008Y72771D02*
X293689Y72771D01*
D10*
X304800Y160020D02*
X304700Y160022D01*
X304601Y160028D01*
X304501Y160038D01*
X304403Y160051D01*
X304304Y160069D01*
X304207Y160090D01*
X304111Y160115D01*
X304015Y160144D01*
X303921Y160177D01*
X303828Y160213D01*
X303737Y160253D01*
X303647Y160297D01*
X303559Y160344D01*
X303473Y160394D01*
X303389Y160448D01*
X303307Y160505D01*
X303228Y160565D01*
X303150Y160629D01*
X303076Y160695D01*
X303004Y160764D01*
X302935Y160836D01*
X302869Y160910D01*
X302805Y160988D01*
X302745Y161067D01*
X302688Y161149D01*
X302634Y161233D01*
X302584Y161319D01*
X302537Y161407D01*
X302493Y161497D01*
X302453Y161588D01*
X302417Y161681D01*
X302384Y161775D01*
X302355Y161871D01*
X302330Y161967D01*
X302309Y162064D01*
X302291Y162163D01*
X302278Y162261D01*
X302268Y162361D01*
X302262Y162460D01*
X302260Y162560D01*
X330200Y160020D02*
X330300Y160022D01*
X330399Y160028D01*
X330499Y160038D01*
X330597Y160051D01*
X330696Y160069D01*
X330793Y160090D01*
X330889Y160115D01*
X330985Y160144D01*
X331079Y160177D01*
X331172Y160213D01*
X331263Y160253D01*
X331353Y160297D01*
X331441Y160344D01*
X331527Y160394D01*
X331611Y160448D01*
X331693Y160505D01*
X331772Y160565D01*
X331850Y160629D01*
X331924Y160695D01*
X331996Y160764D01*
X332065Y160836D01*
X332131Y160910D01*
X332195Y160988D01*
X332255Y161067D01*
X332312Y161149D01*
X332366Y161233D01*
X332416Y161319D01*
X332463Y161407D01*
X332507Y161497D01*
X332547Y161588D01*
X332583Y161681D01*
X332616Y161775D01*
X332645Y161871D01*
X332670Y161967D01*
X332691Y162064D01*
X332709Y162163D01*
X332722Y162261D01*
X332732Y162361D01*
X332738Y162460D01*
X332740Y162560D01*
X332740Y243840D02*
X332738Y243940D01*
X332732Y244039D01*
X332722Y244139D01*
X332709Y244237D01*
X332691Y244336D01*
X332670Y244433D01*
X332645Y244529D01*
X332616Y244625D01*
X332583Y244719D01*
X332547Y244812D01*
X332507Y244903D01*
X332463Y244993D01*
X332416Y245081D01*
X332366Y245167D01*
X332312Y245251D01*
X332255Y245333D01*
X332195Y245412D01*
X332131Y245490D01*
X332065Y245564D01*
X331996Y245636D01*
X331924Y245705D01*
X331850Y245771D01*
X331772Y245835D01*
X331693Y245895D01*
X331611Y245952D01*
X331527Y246006D01*
X331441Y246056D01*
X331353Y246103D01*
X331263Y246147D01*
X331172Y246187D01*
X331079Y246223D01*
X330985Y246256D01*
X330889Y246285D01*
X330793Y246310D01*
X330696Y246331D01*
X330597Y246349D01*
X330499Y246362D01*
X330399Y246372D01*
X330300Y246378D01*
X330200Y246380D01*
X304800Y246380D02*
X304700Y246378D01*
X304601Y246372D01*
X304501Y246362D01*
X304403Y246349D01*
X304304Y246331D01*
X304207Y246310D01*
X304111Y246285D01*
X304015Y246256D01*
X303921Y246223D01*
X303828Y246187D01*
X303737Y246147D01*
X303647Y246103D01*
X303559Y246056D01*
X303473Y246006D01*
X303389Y245952D01*
X303307Y245895D01*
X303228Y245835D01*
X303150Y245771D01*
X303076Y245705D01*
X303004Y245636D01*
X302935Y245564D01*
X302869Y245490D01*
X302805Y245412D01*
X302745Y245333D01*
X302688Y245251D01*
X302634Y245167D01*
X302584Y245081D01*
X302537Y244993D01*
X302493Y244903D01*
X302453Y244812D01*
X302417Y244719D01*
X302384Y244625D01*
X302355Y244529D01*
X302330Y244433D01*
X302309Y244336D01*
X302291Y244237D01*
X302278Y244139D01*
X302268Y244039D01*
X302262Y243940D01*
X302260Y243840D01*
X302260Y168910D02*
X302260Y162560D01*
X302260Y168910D02*
X303530Y170180D01*
X332740Y168910D02*
X332740Y162560D01*
X332740Y168910D02*
X331470Y170180D01*
X303530Y236220D02*
X302260Y237490D01*
X303530Y236220D02*
X303530Y170180D01*
X331470Y236220D02*
X332740Y237490D01*
X331470Y236220D02*
X331470Y170180D01*
X302260Y237490D02*
X302260Y243840D01*
X332740Y243840D02*
X332740Y237490D01*
D12*
X297815Y161925D02*
X286385Y161925D01*
X286385Y165100D01*
X286387Y165211D01*
X286393Y165321D01*
X286402Y165432D01*
X286416Y165542D01*
X286433Y165651D01*
X286454Y165760D01*
X286479Y165868D01*
X286508Y165975D01*
X286540Y166081D01*
X286576Y166186D01*
X286616Y166289D01*
X286659Y166391D01*
X286706Y166492D01*
X286757Y166591D01*
X286810Y166688D01*
X286867Y166782D01*
X286928Y166875D01*
X286991Y166966D01*
X287058Y167055D01*
X287128Y167141D01*
X287201Y167224D01*
X287276Y167306D01*
X287354Y167384D01*
X287436Y167459D01*
X287519Y167532D01*
X287605Y167602D01*
X287694Y167669D01*
X287785Y167732D01*
X287878Y167793D01*
X287973Y167850D01*
X288069Y167903D01*
X288168Y167954D01*
X288269Y168001D01*
X288371Y168044D01*
X288474Y168084D01*
X288579Y168120D01*
X288685Y168152D01*
X288792Y168181D01*
X288900Y168206D01*
X289009Y168227D01*
X289118Y168244D01*
X289228Y168258D01*
X289339Y168267D01*
X289449Y168273D01*
X289560Y168275D01*
X289671Y168273D01*
X289781Y168267D01*
X289892Y168258D01*
X290002Y168244D01*
X290111Y168227D01*
X290220Y168206D01*
X290328Y168181D01*
X290435Y168152D01*
X290541Y168120D01*
X290646Y168084D01*
X290749Y168044D01*
X290851Y168001D01*
X290952Y167954D01*
X291051Y167903D01*
X291148Y167850D01*
X291242Y167793D01*
X291335Y167732D01*
X291426Y167669D01*
X291515Y167602D01*
X291601Y167532D01*
X291684Y167459D01*
X291766Y167384D01*
X291844Y167306D01*
X291919Y167224D01*
X291992Y167141D01*
X292062Y167055D01*
X292129Y166966D01*
X292192Y166875D01*
X292253Y166782D01*
X292310Y166688D01*
X292363Y166591D01*
X292414Y166492D01*
X292461Y166391D01*
X292504Y166289D01*
X292544Y166186D01*
X292580Y166081D01*
X292612Y165975D01*
X292641Y165868D01*
X292666Y165760D01*
X292687Y165651D01*
X292704Y165542D01*
X292718Y165432D01*
X292727Y165321D01*
X292733Y165211D01*
X292735Y165100D01*
X292735Y161925D01*
X292735Y165735D02*
X297815Y168275D01*
X288925Y173272D02*
X286385Y176447D01*
X297815Y176447D01*
X297815Y173272D02*
X297815Y179622D01*
D10*
X340360Y162560D02*
X340362Y162460D01*
X340368Y162361D01*
X340378Y162261D01*
X340391Y162163D01*
X340409Y162064D01*
X340430Y161967D01*
X340455Y161871D01*
X340484Y161775D01*
X340517Y161681D01*
X340553Y161588D01*
X340593Y161497D01*
X340637Y161407D01*
X340684Y161319D01*
X340734Y161233D01*
X340788Y161149D01*
X340845Y161067D01*
X340905Y160988D01*
X340969Y160910D01*
X341035Y160836D01*
X341104Y160764D01*
X341176Y160695D01*
X341250Y160629D01*
X341328Y160565D01*
X341407Y160505D01*
X341489Y160448D01*
X341573Y160394D01*
X341659Y160344D01*
X341747Y160297D01*
X341837Y160253D01*
X341928Y160213D01*
X342021Y160177D01*
X342115Y160144D01*
X342211Y160115D01*
X342307Y160090D01*
X342404Y160069D01*
X342503Y160051D01*
X342601Y160038D01*
X342701Y160028D01*
X342800Y160022D01*
X342900Y160020D01*
X368300Y160020D02*
X368400Y160022D01*
X368499Y160028D01*
X368599Y160038D01*
X368697Y160051D01*
X368796Y160069D01*
X368893Y160090D01*
X368989Y160115D01*
X369085Y160144D01*
X369179Y160177D01*
X369272Y160213D01*
X369363Y160253D01*
X369453Y160297D01*
X369541Y160344D01*
X369627Y160394D01*
X369711Y160448D01*
X369793Y160505D01*
X369872Y160565D01*
X369950Y160629D01*
X370024Y160695D01*
X370096Y160764D01*
X370165Y160836D01*
X370231Y160910D01*
X370295Y160988D01*
X370355Y161067D01*
X370412Y161149D01*
X370466Y161233D01*
X370516Y161319D01*
X370563Y161407D01*
X370607Y161497D01*
X370647Y161588D01*
X370683Y161681D01*
X370716Y161775D01*
X370745Y161871D01*
X370770Y161967D01*
X370791Y162064D01*
X370809Y162163D01*
X370822Y162261D01*
X370832Y162361D01*
X370838Y162460D01*
X370840Y162560D01*
X370840Y243840D02*
X370838Y243940D01*
X370832Y244039D01*
X370822Y244139D01*
X370809Y244237D01*
X370791Y244336D01*
X370770Y244433D01*
X370745Y244529D01*
X370716Y244625D01*
X370683Y244719D01*
X370647Y244812D01*
X370607Y244903D01*
X370563Y244993D01*
X370516Y245081D01*
X370466Y245167D01*
X370412Y245251D01*
X370355Y245333D01*
X370295Y245412D01*
X370231Y245490D01*
X370165Y245564D01*
X370096Y245636D01*
X370024Y245705D01*
X369950Y245771D01*
X369872Y245835D01*
X369793Y245895D01*
X369711Y245952D01*
X369627Y246006D01*
X369541Y246056D01*
X369453Y246103D01*
X369363Y246147D01*
X369272Y246187D01*
X369179Y246223D01*
X369085Y246256D01*
X368989Y246285D01*
X368893Y246310D01*
X368796Y246331D01*
X368697Y246349D01*
X368599Y246362D01*
X368499Y246372D01*
X368400Y246378D01*
X368300Y246380D01*
X342900Y246380D02*
X342800Y246378D01*
X342701Y246372D01*
X342601Y246362D01*
X342503Y246349D01*
X342404Y246331D01*
X342307Y246310D01*
X342211Y246285D01*
X342115Y246256D01*
X342021Y246223D01*
X341928Y246187D01*
X341837Y246147D01*
X341747Y246103D01*
X341659Y246056D01*
X341573Y246006D01*
X341489Y245952D01*
X341407Y245895D01*
X341328Y245835D01*
X341250Y245771D01*
X341176Y245705D01*
X341104Y245636D01*
X341035Y245564D01*
X340969Y245490D01*
X340905Y245412D01*
X340845Y245333D01*
X340788Y245251D01*
X340734Y245167D01*
X340684Y245081D01*
X340637Y244993D01*
X340593Y244903D01*
X340553Y244812D01*
X340517Y244719D01*
X340484Y244625D01*
X340455Y244529D01*
X340430Y244433D01*
X340409Y244336D01*
X340391Y244237D01*
X340378Y244139D01*
X340368Y244039D01*
X340362Y243940D01*
X340360Y243840D01*
X340360Y168910D02*
X340360Y162560D01*
X340360Y168910D02*
X341630Y170180D01*
X370840Y168910D02*
X370840Y162560D01*
X370840Y168910D02*
X369570Y170180D01*
X341630Y236220D02*
X340360Y237490D01*
X341630Y236220D02*
X341630Y170180D01*
X369570Y236220D02*
X370840Y237490D01*
X369570Y236220D02*
X369570Y170180D01*
X340360Y237490D02*
X340360Y243840D01*
X370840Y243840D02*
X370840Y237490D01*
D12*
X335915Y161925D02*
X324485Y161925D01*
X324485Y165100D01*
X324487Y165211D01*
X324493Y165321D01*
X324502Y165432D01*
X324516Y165542D01*
X324533Y165651D01*
X324554Y165760D01*
X324579Y165868D01*
X324608Y165975D01*
X324640Y166081D01*
X324676Y166186D01*
X324716Y166289D01*
X324759Y166391D01*
X324806Y166492D01*
X324857Y166591D01*
X324910Y166688D01*
X324967Y166782D01*
X325028Y166875D01*
X325091Y166966D01*
X325158Y167055D01*
X325228Y167141D01*
X325301Y167224D01*
X325376Y167306D01*
X325454Y167384D01*
X325536Y167459D01*
X325619Y167532D01*
X325705Y167602D01*
X325794Y167669D01*
X325885Y167732D01*
X325978Y167793D01*
X326073Y167850D01*
X326169Y167903D01*
X326268Y167954D01*
X326369Y168001D01*
X326471Y168044D01*
X326574Y168084D01*
X326679Y168120D01*
X326785Y168152D01*
X326892Y168181D01*
X327000Y168206D01*
X327109Y168227D01*
X327218Y168244D01*
X327328Y168258D01*
X327439Y168267D01*
X327549Y168273D01*
X327660Y168275D01*
X327771Y168273D01*
X327881Y168267D01*
X327992Y168258D01*
X328102Y168244D01*
X328211Y168227D01*
X328320Y168206D01*
X328428Y168181D01*
X328535Y168152D01*
X328641Y168120D01*
X328746Y168084D01*
X328849Y168044D01*
X328951Y168001D01*
X329052Y167954D01*
X329151Y167903D01*
X329248Y167850D01*
X329342Y167793D01*
X329435Y167732D01*
X329526Y167669D01*
X329615Y167602D01*
X329701Y167532D01*
X329784Y167459D01*
X329866Y167384D01*
X329944Y167306D01*
X330019Y167224D01*
X330092Y167141D01*
X330162Y167055D01*
X330229Y166966D01*
X330292Y166875D01*
X330353Y166782D01*
X330410Y166688D01*
X330463Y166591D01*
X330514Y166492D01*
X330561Y166391D01*
X330604Y166289D01*
X330644Y166186D01*
X330680Y166081D01*
X330712Y165975D01*
X330741Y165868D01*
X330766Y165760D01*
X330787Y165651D01*
X330804Y165542D01*
X330818Y165432D01*
X330827Y165321D01*
X330833Y165211D01*
X330835Y165100D01*
X330835Y161925D01*
X330835Y165735D02*
X335915Y168275D01*
X327025Y173272D02*
X324485Y176447D01*
X335915Y176447D01*
X335915Y173272D02*
X335915Y179622D01*
X330200Y184702D02*
X329975Y184705D01*
X329750Y184713D01*
X329526Y184726D01*
X329302Y184745D01*
X329078Y184769D01*
X328855Y184798D01*
X328633Y184833D01*
X328412Y184873D01*
X328192Y184919D01*
X327973Y184969D01*
X327755Y185025D01*
X327538Y185086D01*
X327323Y185152D01*
X327110Y185223D01*
X326899Y185300D01*
X326689Y185381D01*
X326481Y185467D01*
X326276Y185558D01*
X326073Y185654D01*
X325985Y185686D01*
X325898Y185722D01*
X325812Y185761D01*
X325728Y185804D01*
X325646Y185850D01*
X325566Y185899D01*
X325488Y185951D01*
X325412Y186007D01*
X325338Y186065D01*
X325267Y186127D01*
X325198Y186191D01*
X325132Y186258D01*
X325069Y186327D01*
X325008Y186399D01*
X324950Y186473D01*
X324896Y186550D01*
X324844Y186628D01*
X324796Y186709D01*
X324751Y186791D01*
X324709Y186876D01*
X324671Y186962D01*
X324636Y187049D01*
X324604Y187137D01*
X324577Y187227D01*
X324552Y187318D01*
X324532Y187410D01*
X324515Y187502D01*
X324502Y187596D01*
X324493Y187689D01*
X324487Y187783D01*
X324485Y187877D01*
X324487Y187971D01*
X324493Y188065D01*
X324502Y188158D01*
X324515Y188252D01*
X324532Y188344D01*
X324552Y188436D01*
X324577Y188527D01*
X324604Y188617D01*
X324636Y188705D01*
X324671Y188792D01*
X324709Y188878D01*
X324751Y188963D01*
X324796Y189045D01*
X324844Y189126D01*
X324896Y189204D01*
X324950Y189281D01*
X325008Y189355D01*
X325069Y189427D01*
X325132Y189496D01*
X325198Y189563D01*
X325267Y189627D01*
X325338Y189689D01*
X325412Y189747D01*
X325488Y189803D01*
X325566Y189855D01*
X325646Y189904D01*
X325728Y189950D01*
X325812Y189993D01*
X325898Y190032D01*
X325985Y190068D01*
X326073Y190100D01*
X326276Y190196D01*
X326481Y190287D01*
X326689Y190373D01*
X326899Y190454D01*
X327110Y190531D01*
X327323Y190602D01*
X327538Y190668D01*
X327755Y190729D01*
X327973Y190785D01*
X328192Y190835D01*
X328412Y190881D01*
X328633Y190921D01*
X328855Y190956D01*
X329078Y190985D01*
X329302Y191009D01*
X329526Y191028D01*
X329750Y191041D01*
X329975Y191049D01*
X330200Y191052D01*
X330200Y184702D02*
X330425Y184705D01*
X330650Y184713D01*
X330874Y184726D01*
X331098Y184745D01*
X331322Y184769D01*
X331545Y184798D01*
X331767Y184833D01*
X331988Y184873D01*
X332208Y184919D01*
X332427Y184969D01*
X332645Y185025D01*
X332862Y185086D01*
X333077Y185152D01*
X333290Y185223D01*
X333501Y185300D01*
X333711Y185381D01*
X333919Y185467D01*
X334124Y185558D01*
X334327Y185654D01*
X334328Y185654D02*
X334416Y185686D01*
X334503Y185722D01*
X334589Y185761D01*
X334673Y185804D01*
X334755Y185850D01*
X334835Y185899D01*
X334913Y185951D01*
X334989Y186007D01*
X335063Y186065D01*
X335134Y186127D01*
X335203Y186191D01*
X335269Y186258D01*
X335332Y186327D01*
X335393Y186399D01*
X335451Y186473D01*
X335505Y186550D01*
X335557Y186628D01*
X335605Y186709D01*
X335650Y186791D01*
X335692Y186876D01*
X335730Y186962D01*
X335765Y187049D01*
X335797Y187137D01*
X335824Y187227D01*
X335849Y187318D01*
X335869Y187410D01*
X335886Y187502D01*
X335899Y187596D01*
X335908Y187689D01*
X335914Y187783D01*
X335916Y187877D01*
X334327Y190100D02*
X334124Y190196D01*
X333919Y190287D01*
X333711Y190373D01*
X333501Y190454D01*
X333290Y190531D01*
X333077Y190602D01*
X332862Y190668D01*
X332645Y190729D01*
X332427Y190785D01*
X332208Y190835D01*
X331988Y190881D01*
X331767Y190921D01*
X331545Y190956D01*
X331322Y190985D01*
X331098Y191009D01*
X330874Y191028D01*
X330650Y191041D01*
X330425Y191049D01*
X330200Y191052D01*
X334328Y190100D02*
X334416Y190068D01*
X334503Y190032D01*
X334589Y189993D01*
X334673Y189950D01*
X334755Y189904D01*
X334835Y189855D01*
X334913Y189803D01*
X334989Y189747D01*
X335063Y189689D01*
X335134Y189627D01*
X335203Y189563D01*
X335269Y189496D01*
X335332Y189427D01*
X335393Y189355D01*
X335451Y189281D01*
X335505Y189204D01*
X335557Y189126D01*
X335605Y189045D01*
X335650Y188963D01*
X335692Y188878D01*
X335730Y188792D01*
X335765Y188705D01*
X335797Y188617D01*
X335824Y188527D01*
X335849Y188436D01*
X335869Y188344D01*
X335886Y188252D01*
X335899Y188158D01*
X335908Y188065D01*
X335914Y187971D01*
X335916Y187877D01*
X333375Y185337D02*
X327025Y190417D01*
D10*
X66040Y396240D02*
X66038Y396340D01*
X66032Y396439D01*
X66022Y396539D01*
X66009Y396637D01*
X65991Y396736D01*
X65970Y396833D01*
X65945Y396929D01*
X65916Y397025D01*
X65883Y397119D01*
X65847Y397212D01*
X65807Y397303D01*
X65763Y397393D01*
X65716Y397481D01*
X65666Y397567D01*
X65612Y397651D01*
X65555Y397733D01*
X65495Y397812D01*
X65431Y397890D01*
X65365Y397964D01*
X65296Y398036D01*
X65224Y398105D01*
X65150Y398171D01*
X65072Y398235D01*
X64993Y398295D01*
X64911Y398352D01*
X64827Y398406D01*
X64741Y398456D01*
X64653Y398503D01*
X64563Y398547D01*
X64472Y398587D01*
X64379Y398623D01*
X64285Y398656D01*
X64189Y398685D01*
X64093Y398710D01*
X63996Y398731D01*
X63897Y398749D01*
X63799Y398762D01*
X63699Y398772D01*
X63600Y398778D01*
X63500Y398780D01*
X38100Y398780D02*
X38000Y398778D01*
X37901Y398772D01*
X37801Y398762D01*
X37703Y398749D01*
X37604Y398731D01*
X37507Y398710D01*
X37411Y398685D01*
X37315Y398656D01*
X37221Y398623D01*
X37128Y398587D01*
X37037Y398547D01*
X36947Y398503D01*
X36859Y398456D01*
X36773Y398406D01*
X36689Y398352D01*
X36607Y398295D01*
X36528Y398235D01*
X36450Y398171D01*
X36376Y398105D01*
X36304Y398036D01*
X36235Y397964D01*
X36169Y397890D01*
X36105Y397812D01*
X36045Y397733D01*
X35988Y397651D01*
X35934Y397567D01*
X35884Y397481D01*
X35837Y397393D01*
X35793Y397303D01*
X35753Y397212D01*
X35717Y397119D01*
X35684Y397025D01*
X35655Y396929D01*
X35630Y396833D01*
X35609Y396736D01*
X35591Y396637D01*
X35578Y396539D01*
X35568Y396439D01*
X35562Y396340D01*
X35560Y396240D01*
X35560Y314960D02*
X35562Y314860D01*
X35568Y314761D01*
X35578Y314661D01*
X35591Y314563D01*
X35609Y314464D01*
X35630Y314367D01*
X35655Y314271D01*
X35684Y314175D01*
X35717Y314081D01*
X35753Y313988D01*
X35793Y313897D01*
X35837Y313807D01*
X35884Y313719D01*
X35934Y313633D01*
X35988Y313549D01*
X36045Y313467D01*
X36105Y313388D01*
X36169Y313310D01*
X36235Y313236D01*
X36304Y313164D01*
X36376Y313095D01*
X36450Y313029D01*
X36528Y312965D01*
X36607Y312905D01*
X36689Y312848D01*
X36773Y312794D01*
X36859Y312744D01*
X36947Y312697D01*
X37037Y312653D01*
X37128Y312613D01*
X37221Y312577D01*
X37315Y312544D01*
X37411Y312515D01*
X37507Y312490D01*
X37604Y312469D01*
X37703Y312451D01*
X37801Y312438D01*
X37901Y312428D01*
X38000Y312422D01*
X38100Y312420D01*
X63500Y312420D02*
X63600Y312422D01*
X63699Y312428D01*
X63799Y312438D01*
X63897Y312451D01*
X63996Y312469D01*
X64093Y312490D01*
X64189Y312515D01*
X64285Y312544D01*
X64379Y312577D01*
X64472Y312613D01*
X64563Y312653D01*
X64653Y312697D01*
X64741Y312744D01*
X64827Y312794D01*
X64911Y312848D01*
X64993Y312905D01*
X65072Y312965D01*
X65150Y313029D01*
X65224Y313095D01*
X65296Y313164D01*
X65365Y313236D01*
X65431Y313310D01*
X65495Y313388D01*
X65555Y313467D01*
X65612Y313549D01*
X65666Y313633D01*
X65716Y313719D01*
X65763Y313807D01*
X65807Y313897D01*
X65847Y313988D01*
X65883Y314081D01*
X65916Y314175D01*
X65945Y314271D01*
X65970Y314367D01*
X65991Y314464D01*
X66009Y314563D01*
X66022Y314661D01*
X66032Y314761D01*
X66038Y314860D01*
X66040Y314960D01*
X66040Y389890D02*
X66040Y396240D01*
X66040Y389890D02*
X64770Y388620D01*
X35560Y389890D02*
X35560Y396240D01*
X35560Y389890D02*
X36830Y388620D01*
X64770Y322580D02*
X66040Y321310D01*
X64770Y322580D02*
X64770Y388620D01*
X36830Y322580D02*
X35560Y321310D01*
X36830Y322580D02*
X36830Y388620D01*
X66040Y321310D02*
X66040Y314960D01*
X35560Y314960D02*
X35560Y321310D01*
D12*
X70485Y379178D02*
X81915Y379178D01*
X70485Y379178D02*
X70485Y382353D01*
X70487Y382464D01*
X70493Y382574D01*
X70502Y382685D01*
X70516Y382795D01*
X70533Y382904D01*
X70554Y383013D01*
X70579Y383121D01*
X70608Y383228D01*
X70640Y383334D01*
X70676Y383439D01*
X70716Y383542D01*
X70759Y383644D01*
X70806Y383745D01*
X70857Y383844D01*
X70910Y383941D01*
X70967Y384035D01*
X71028Y384128D01*
X71091Y384219D01*
X71158Y384308D01*
X71228Y384394D01*
X71301Y384477D01*
X71376Y384559D01*
X71454Y384637D01*
X71536Y384712D01*
X71619Y384785D01*
X71705Y384855D01*
X71794Y384922D01*
X71885Y384985D01*
X71978Y385046D01*
X72073Y385103D01*
X72169Y385156D01*
X72268Y385207D01*
X72369Y385254D01*
X72471Y385297D01*
X72574Y385337D01*
X72679Y385373D01*
X72785Y385405D01*
X72892Y385434D01*
X73000Y385459D01*
X73109Y385480D01*
X73218Y385497D01*
X73328Y385511D01*
X73439Y385520D01*
X73549Y385526D01*
X73660Y385528D01*
X73771Y385526D01*
X73881Y385520D01*
X73992Y385511D01*
X74102Y385497D01*
X74211Y385480D01*
X74320Y385459D01*
X74428Y385434D01*
X74535Y385405D01*
X74641Y385373D01*
X74746Y385337D01*
X74849Y385297D01*
X74951Y385254D01*
X75052Y385207D01*
X75151Y385156D01*
X75248Y385103D01*
X75342Y385046D01*
X75435Y384985D01*
X75526Y384922D01*
X75615Y384855D01*
X75701Y384785D01*
X75784Y384712D01*
X75866Y384637D01*
X75944Y384559D01*
X76019Y384477D01*
X76092Y384394D01*
X76162Y384308D01*
X76229Y384219D01*
X76292Y384128D01*
X76353Y384035D01*
X76410Y383941D01*
X76463Y383844D01*
X76514Y383745D01*
X76561Y383644D01*
X76604Y383542D01*
X76644Y383439D01*
X76680Y383334D01*
X76712Y383228D01*
X76741Y383121D01*
X76766Y383013D01*
X76787Y382904D01*
X76804Y382795D01*
X76818Y382685D01*
X76827Y382574D01*
X76833Y382464D01*
X76835Y382353D01*
X76835Y379178D01*
X76835Y382988D02*
X81915Y385528D01*
X73343Y396876D02*
X73239Y396874D01*
X73134Y396868D01*
X73030Y396859D01*
X72927Y396846D01*
X72824Y396828D01*
X72722Y396808D01*
X72620Y396783D01*
X72520Y396755D01*
X72420Y396723D01*
X72322Y396687D01*
X72225Y396648D01*
X72130Y396606D01*
X72036Y396560D01*
X71944Y396510D01*
X71854Y396458D01*
X71766Y396402D01*
X71680Y396342D01*
X71596Y396280D01*
X71515Y396215D01*
X71436Y396147D01*
X71359Y396075D01*
X71286Y396002D01*
X71214Y395925D01*
X71146Y395846D01*
X71081Y395765D01*
X71019Y395681D01*
X70959Y395595D01*
X70903Y395507D01*
X70851Y395417D01*
X70801Y395325D01*
X70755Y395231D01*
X70713Y395136D01*
X70674Y395039D01*
X70638Y394941D01*
X70606Y394841D01*
X70578Y394741D01*
X70553Y394639D01*
X70533Y394537D01*
X70515Y394434D01*
X70502Y394331D01*
X70493Y394227D01*
X70487Y394122D01*
X70485Y394018D01*
X70487Y393900D01*
X70493Y393781D01*
X70502Y393663D01*
X70515Y393546D01*
X70533Y393429D01*
X70553Y393312D01*
X70578Y393196D01*
X70606Y393081D01*
X70639Y392968D01*
X70674Y392855D01*
X70714Y392743D01*
X70756Y392633D01*
X70803Y392524D01*
X70853Y392416D01*
X70906Y392311D01*
X70963Y392207D01*
X71023Y392105D01*
X71086Y392005D01*
X71153Y391907D01*
X71222Y391811D01*
X71295Y391718D01*
X71371Y391627D01*
X71449Y391538D01*
X71531Y391452D01*
X71615Y391369D01*
X71701Y391288D01*
X71791Y391211D01*
X71882Y391136D01*
X71976Y391064D01*
X72073Y390995D01*
X72171Y390930D01*
X72272Y390867D01*
X72375Y390808D01*
X72479Y390752D01*
X72585Y390700D01*
X72693Y390651D01*
X72802Y390606D01*
X72913Y390564D01*
X73025Y390526D01*
X75565Y395923D02*
X75490Y395999D01*
X75411Y396074D01*
X75330Y396145D01*
X75246Y396214D01*
X75160Y396279D01*
X75072Y396341D01*
X74982Y396401D01*
X74890Y396457D01*
X74795Y396510D01*
X74699Y396559D01*
X74601Y396605D01*
X74502Y396648D01*
X74401Y396687D01*
X74299Y396722D01*
X74196Y396754D01*
X74092Y396782D01*
X73987Y396807D01*
X73880Y396828D01*
X73774Y396845D01*
X73667Y396858D01*
X73559Y396867D01*
X73451Y396873D01*
X73343Y396875D01*
X75565Y395923D02*
X81915Y390525D01*
X81915Y396875D01*
D10*
X101600Y398780D02*
X101700Y398778D01*
X101799Y398772D01*
X101899Y398762D01*
X101997Y398749D01*
X102096Y398731D01*
X102193Y398710D01*
X102289Y398685D01*
X102385Y398656D01*
X102479Y398623D01*
X102572Y398587D01*
X102663Y398547D01*
X102753Y398503D01*
X102841Y398456D01*
X102927Y398406D01*
X103011Y398352D01*
X103093Y398295D01*
X103172Y398235D01*
X103250Y398171D01*
X103324Y398105D01*
X103396Y398036D01*
X103465Y397964D01*
X103531Y397890D01*
X103595Y397812D01*
X103655Y397733D01*
X103712Y397651D01*
X103766Y397567D01*
X103816Y397481D01*
X103863Y397393D01*
X103907Y397303D01*
X103947Y397212D01*
X103983Y397119D01*
X104016Y397025D01*
X104045Y396929D01*
X104070Y396833D01*
X104091Y396736D01*
X104109Y396637D01*
X104122Y396539D01*
X104132Y396439D01*
X104138Y396340D01*
X104140Y396240D01*
X76200Y398780D02*
X76100Y398778D01*
X76001Y398772D01*
X75901Y398762D01*
X75803Y398749D01*
X75704Y398731D01*
X75607Y398710D01*
X75511Y398685D01*
X75415Y398656D01*
X75321Y398623D01*
X75228Y398587D01*
X75137Y398547D01*
X75047Y398503D01*
X74959Y398456D01*
X74873Y398406D01*
X74789Y398352D01*
X74707Y398295D01*
X74628Y398235D01*
X74550Y398171D01*
X74476Y398105D01*
X74404Y398036D01*
X74335Y397964D01*
X74269Y397890D01*
X74205Y397812D01*
X74145Y397733D01*
X74088Y397651D01*
X74034Y397567D01*
X73984Y397481D01*
X73937Y397393D01*
X73893Y397303D01*
X73853Y397212D01*
X73817Y397119D01*
X73784Y397025D01*
X73755Y396929D01*
X73730Y396833D01*
X73709Y396736D01*
X73691Y396637D01*
X73678Y396539D01*
X73668Y396439D01*
X73662Y396340D01*
X73660Y396240D01*
X73660Y314960D02*
X73662Y314860D01*
X73668Y314761D01*
X73678Y314661D01*
X73691Y314563D01*
X73709Y314464D01*
X73730Y314367D01*
X73755Y314271D01*
X73784Y314175D01*
X73817Y314081D01*
X73853Y313988D01*
X73893Y313897D01*
X73937Y313807D01*
X73984Y313719D01*
X74034Y313633D01*
X74088Y313549D01*
X74145Y313467D01*
X74205Y313388D01*
X74269Y313310D01*
X74335Y313236D01*
X74404Y313164D01*
X74476Y313095D01*
X74550Y313029D01*
X74628Y312965D01*
X74707Y312905D01*
X74789Y312848D01*
X74873Y312794D01*
X74959Y312744D01*
X75047Y312697D01*
X75137Y312653D01*
X75228Y312613D01*
X75321Y312577D01*
X75415Y312544D01*
X75511Y312515D01*
X75607Y312490D01*
X75704Y312469D01*
X75803Y312451D01*
X75901Y312438D01*
X76001Y312428D01*
X76100Y312422D01*
X76200Y312420D01*
X101600Y312420D02*
X101700Y312422D01*
X101799Y312428D01*
X101899Y312438D01*
X101997Y312451D01*
X102096Y312469D01*
X102193Y312490D01*
X102289Y312515D01*
X102385Y312544D01*
X102479Y312577D01*
X102572Y312613D01*
X102663Y312653D01*
X102753Y312697D01*
X102841Y312744D01*
X102927Y312794D01*
X103011Y312848D01*
X103093Y312905D01*
X103172Y312965D01*
X103250Y313029D01*
X103324Y313095D01*
X103396Y313164D01*
X103465Y313236D01*
X103531Y313310D01*
X103595Y313388D01*
X103655Y313467D01*
X103712Y313549D01*
X103766Y313633D01*
X103816Y313719D01*
X103863Y313807D01*
X103907Y313897D01*
X103947Y313988D01*
X103983Y314081D01*
X104016Y314175D01*
X104045Y314271D01*
X104070Y314367D01*
X104091Y314464D01*
X104109Y314563D01*
X104122Y314661D01*
X104132Y314761D01*
X104138Y314860D01*
X104140Y314960D01*
X104140Y389890D02*
X104140Y396240D01*
X104140Y389890D02*
X102870Y388620D01*
X73660Y389890D02*
X73660Y396240D01*
X73660Y389890D02*
X74930Y388620D01*
X102870Y322580D02*
X104140Y321310D01*
X102870Y322580D02*
X102870Y388620D01*
X74930Y322580D02*
X73660Y321310D01*
X74930Y322580D02*
X74930Y388620D01*
X104140Y321310D02*
X104140Y314960D01*
X73660Y314960D02*
X73660Y321310D01*
D12*
X108585Y379178D02*
X120015Y379178D01*
X108585Y379178D02*
X108585Y382353D01*
X108587Y382464D01*
X108593Y382574D01*
X108602Y382685D01*
X108616Y382795D01*
X108633Y382904D01*
X108654Y383013D01*
X108679Y383121D01*
X108708Y383228D01*
X108740Y383334D01*
X108776Y383439D01*
X108816Y383542D01*
X108859Y383644D01*
X108906Y383745D01*
X108957Y383844D01*
X109010Y383941D01*
X109067Y384035D01*
X109128Y384128D01*
X109191Y384219D01*
X109258Y384308D01*
X109328Y384394D01*
X109401Y384477D01*
X109476Y384559D01*
X109554Y384637D01*
X109636Y384712D01*
X109719Y384785D01*
X109805Y384855D01*
X109894Y384922D01*
X109985Y384985D01*
X110078Y385046D01*
X110173Y385103D01*
X110269Y385156D01*
X110368Y385207D01*
X110469Y385254D01*
X110571Y385297D01*
X110674Y385337D01*
X110779Y385373D01*
X110885Y385405D01*
X110992Y385434D01*
X111100Y385459D01*
X111209Y385480D01*
X111318Y385497D01*
X111428Y385511D01*
X111539Y385520D01*
X111649Y385526D01*
X111760Y385528D01*
X111871Y385526D01*
X111981Y385520D01*
X112092Y385511D01*
X112202Y385497D01*
X112311Y385480D01*
X112420Y385459D01*
X112528Y385434D01*
X112635Y385405D01*
X112741Y385373D01*
X112846Y385337D01*
X112949Y385297D01*
X113051Y385254D01*
X113152Y385207D01*
X113251Y385156D01*
X113348Y385103D01*
X113442Y385046D01*
X113535Y384985D01*
X113626Y384922D01*
X113715Y384855D01*
X113801Y384785D01*
X113884Y384712D01*
X113966Y384637D01*
X114044Y384559D01*
X114119Y384477D01*
X114192Y384394D01*
X114262Y384308D01*
X114329Y384219D01*
X114392Y384128D01*
X114453Y384035D01*
X114510Y383941D01*
X114563Y383844D01*
X114614Y383745D01*
X114661Y383644D01*
X114704Y383542D01*
X114744Y383439D01*
X114780Y383334D01*
X114812Y383228D01*
X114841Y383121D01*
X114866Y383013D01*
X114887Y382904D01*
X114904Y382795D01*
X114918Y382685D01*
X114927Y382574D01*
X114933Y382464D01*
X114935Y382353D01*
X114935Y379178D01*
X114935Y382988D02*
X120015Y385528D01*
X120015Y390525D02*
X120015Y393700D01*
X120013Y393811D01*
X120007Y393921D01*
X119998Y394032D01*
X119984Y394142D01*
X119967Y394251D01*
X119946Y394360D01*
X119921Y394468D01*
X119892Y394575D01*
X119860Y394681D01*
X119824Y394786D01*
X119784Y394889D01*
X119741Y394991D01*
X119694Y395092D01*
X119643Y395191D01*
X119590Y395288D01*
X119533Y395382D01*
X119472Y395475D01*
X119409Y395566D01*
X119342Y395655D01*
X119272Y395741D01*
X119199Y395824D01*
X119124Y395906D01*
X119046Y395984D01*
X118964Y396059D01*
X118881Y396132D01*
X118795Y396202D01*
X118706Y396269D01*
X118615Y396332D01*
X118522Y396393D01*
X118428Y396450D01*
X118331Y396503D01*
X118232Y396554D01*
X118131Y396601D01*
X118029Y396644D01*
X117926Y396684D01*
X117821Y396720D01*
X117715Y396752D01*
X117608Y396781D01*
X117500Y396806D01*
X117391Y396827D01*
X117282Y396844D01*
X117172Y396858D01*
X117061Y396867D01*
X116951Y396873D01*
X116840Y396875D01*
X116729Y396873D01*
X116619Y396867D01*
X116508Y396858D01*
X116398Y396844D01*
X116289Y396827D01*
X116180Y396806D01*
X116072Y396781D01*
X115965Y396752D01*
X115859Y396720D01*
X115754Y396684D01*
X115651Y396644D01*
X115549Y396601D01*
X115448Y396554D01*
X115349Y396503D01*
X115253Y396450D01*
X115158Y396393D01*
X115065Y396332D01*
X114974Y396269D01*
X114885Y396202D01*
X114799Y396132D01*
X114716Y396059D01*
X114634Y395984D01*
X114556Y395906D01*
X114481Y395824D01*
X114408Y395741D01*
X114338Y395655D01*
X114271Y395566D01*
X114208Y395475D01*
X114147Y395382D01*
X114090Y395288D01*
X114037Y395191D01*
X113986Y395092D01*
X113939Y394991D01*
X113896Y394889D01*
X113856Y394786D01*
X113820Y394681D01*
X113788Y394575D01*
X113759Y394468D01*
X113734Y394360D01*
X113713Y394251D01*
X113696Y394142D01*
X113682Y394032D01*
X113673Y393921D01*
X113667Y393811D01*
X113665Y393700D01*
X108585Y394335D02*
X108585Y390525D01*
X108585Y394335D02*
X108587Y394435D01*
X108593Y394534D01*
X108603Y394634D01*
X108616Y394732D01*
X108634Y394831D01*
X108655Y394928D01*
X108680Y395024D01*
X108709Y395120D01*
X108742Y395214D01*
X108778Y395307D01*
X108818Y395398D01*
X108862Y395488D01*
X108909Y395576D01*
X108959Y395662D01*
X109013Y395746D01*
X109070Y395828D01*
X109130Y395907D01*
X109194Y395985D01*
X109260Y396059D01*
X109329Y396131D01*
X109401Y396200D01*
X109475Y396266D01*
X109553Y396330D01*
X109632Y396390D01*
X109714Y396447D01*
X109798Y396501D01*
X109884Y396551D01*
X109972Y396598D01*
X110062Y396642D01*
X110153Y396682D01*
X110246Y396718D01*
X110340Y396751D01*
X110436Y396780D01*
X110532Y396805D01*
X110629Y396826D01*
X110728Y396844D01*
X110826Y396857D01*
X110926Y396867D01*
X111025Y396873D01*
X111125Y396875D01*
X111225Y396873D01*
X111324Y396867D01*
X111424Y396857D01*
X111522Y396844D01*
X111621Y396826D01*
X111718Y396805D01*
X111814Y396780D01*
X111910Y396751D01*
X112004Y396718D01*
X112097Y396682D01*
X112188Y396642D01*
X112278Y396598D01*
X112366Y396551D01*
X112452Y396501D01*
X112536Y396447D01*
X112618Y396390D01*
X112697Y396330D01*
X112775Y396266D01*
X112849Y396200D01*
X112921Y396131D01*
X112990Y396059D01*
X113056Y395985D01*
X113120Y395907D01*
X113180Y395828D01*
X113237Y395746D01*
X113291Y395662D01*
X113341Y395576D01*
X113388Y395488D01*
X113432Y395398D01*
X113472Y395307D01*
X113508Y395214D01*
X113541Y395120D01*
X113570Y395024D01*
X113595Y394928D01*
X113616Y394831D01*
X113634Y394732D01*
X113647Y394634D01*
X113657Y394534D01*
X113663Y394435D01*
X113665Y394335D01*
X113665Y391795D01*
D10*
X139700Y398780D02*
X139800Y398778D01*
X139899Y398772D01*
X139999Y398762D01*
X140097Y398749D01*
X140196Y398731D01*
X140293Y398710D01*
X140389Y398685D01*
X140485Y398656D01*
X140579Y398623D01*
X140672Y398587D01*
X140763Y398547D01*
X140853Y398503D01*
X140941Y398456D01*
X141027Y398406D01*
X141111Y398352D01*
X141193Y398295D01*
X141272Y398235D01*
X141350Y398171D01*
X141424Y398105D01*
X141496Y398036D01*
X141565Y397964D01*
X141631Y397890D01*
X141695Y397812D01*
X141755Y397733D01*
X141812Y397651D01*
X141866Y397567D01*
X141916Y397481D01*
X141963Y397393D01*
X142007Y397303D01*
X142047Y397212D01*
X142083Y397119D01*
X142116Y397025D01*
X142145Y396929D01*
X142170Y396833D01*
X142191Y396736D01*
X142209Y396637D01*
X142222Y396539D01*
X142232Y396439D01*
X142238Y396340D01*
X142240Y396240D01*
X114300Y398780D02*
X114200Y398778D01*
X114101Y398772D01*
X114001Y398762D01*
X113903Y398749D01*
X113804Y398731D01*
X113707Y398710D01*
X113611Y398685D01*
X113515Y398656D01*
X113421Y398623D01*
X113328Y398587D01*
X113237Y398547D01*
X113147Y398503D01*
X113059Y398456D01*
X112973Y398406D01*
X112889Y398352D01*
X112807Y398295D01*
X112728Y398235D01*
X112650Y398171D01*
X112576Y398105D01*
X112504Y398036D01*
X112435Y397964D01*
X112369Y397890D01*
X112305Y397812D01*
X112245Y397733D01*
X112188Y397651D01*
X112134Y397567D01*
X112084Y397481D01*
X112037Y397393D01*
X111993Y397303D01*
X111953Y397212D01*
X111917Y397119D01*
X111884Y397025D01*
X111855Y396929D01*
X111830Y396833D01*
X111809Y396736D01*
X111791Y396637D01*
X111778Y396539D01*
X111768Y396439D01*
X111762Y396340D01*
X111760Y396240D01*
X111760Y314960D02*
X111762Y314860D01*
X111768Y314761D01*
X111778Y314661D01*
X111791Y314563D01*
X111809Y314464D01*
X111830Y314367D01*
X111855Y314271D01*
X111884Y314175D01*
X111917Y314081D01*
X111953Y313988D01*
X111993Y313897D01*
X112037Y313807D01*
X112084Y313719D01*
X112134Y313633D01*
X112188Y313549D01*
X112245Y313467D01*
X112305Y313388D01*
X112369Y313310D01*
X112435Y313236D01*
X112504Y313164D01*
X112576Y313095D01*
X112650Y313029D01*
X112728Y312965D01*
X112807Y312905D01*
X112889Y312848D01*
X112973Y312794D01*
X113059Y312744D01*
X113147Y312697D01*
X113237Y312653D01*
X113328Y312613D01*
X113421Y312577D01*
X113515Y312544D01*
X113611Y312515D01*
X113707Y312490D01*
X113804Y312469D01*
X113903Y312451D01*
X114001Y312438D01*
X114101Y312428D01*
X114200Y312422D01*
X114300Y312420D01*
X139700Y312420D02*
X139800Y312422D01*
X139899Y312428D01*
X139999Y312438D01*
X140097Y312451D01*
X140196Y312469D01*
X140293Y312490D01*
X140389Y312515D01*
X140485Y312544D01*
X140579Y312577D01*
X140672Y312613D01*
X140763Y312653D01*
X140853Y312697D01*
X140941Y312744D01*
X141027Y312794D01*
X141111Y312848D01*
X141193Y312905D01*
X141272Y312965D01*
X141350Y313029D01*
X141424Y313095D01*
X141496Y313164D01*
X141565Y313236D01*
X141631Y313310D01*
X141695Y313388D01*
X141755Y313467D01*
X141812Y313549D01*
X141866Y313633D01*
X141916Y313719D01*
X141963Y313807D01*
X142007Y313897D01*
X142047Y313988D01*
X142083Y314081D01*
X142116Y314175D01*
X142145Y314271D01*
X142170Y314367D01*
X142191Y314464D01*
X142209Y314563D01*
X142222Y314661D01*
X142232Y314761D01*
X142238Y314860D01*
X142240Y314960D01*
X142240Y389890D02*
X142240Y396240D01*
X142240Y389890D02*
X140970Y388620D01*
X111760Y389890D02*
X111760Y396240D01*
X111760Y389890D02*
X113030Y388620D01*
X140970Y322580D02*
X142240Y321310D01*
X140970Y322580D02*
X140970Y388620D01*
X113030Y322580D02*
X111760Y321310D01*
X113030Y322580D02*
X113030Y388620D01*
X142240Y321310D02*
X142240Y314960D01*
X111760Y314960D02*
X111760Y321310D01*
D12*
X146685Y379178D02*
X158115Y379178D01*
X146685Y379178D02*
X146685Y382353D01*
X146687Y382464D01*
X146693Y382574D01*
X146702Y382685D01*
X146716Y382795D01*
X146733Y382904D01*
X146754Y383013D01*
X146779Y383121D01*
X146808Y383228D01*
X146840Y383334D01*
X146876Y383439D01*
X146916Y383542D01*
X146959Y383644D01*
X147006Y383745D01*
X147057Y383844D01*
X147110Y383941D01*
X147167Y384035D01*
X147228Y384128D01*
X147291Y384219D01*
X147358Y384308D01*
X147428Y384394D01*
X147501Y384477D01*
X147576Y384559D01*
X147654Y384637D01*
X147736Y384712D01*
X147819Y384785D01*
X147905Y384855D01*
X147994Y384922D01*
X148085Y384985D01*
X148178Y385046D01*
X148273Y385103D01*
X148369Y385156D01*
X148468Y385207D01*
X148569Y385254D01*
X148671Y385297D01*
X148774Y385337D01*
X148879Y385373D01*
X148985Y385405D01*
X149092Y385434D01*
X149200Y385459D01*
X149309Y385480D01*
X149418Y385497D01*
X149528Y385511D01*
X149639Y385520D01*
X149749Y385526D01*
X149860Y385528D01*
X149971Y385526D01*
X150081Y385520D01*
X150192Y385511D01*
X150302Y385497D01*
X150411Y385480D01*
X150520Y385459D01*
X150628Y385434D01*
X150735Y385405D01*
X150841Y385373D01*
X150946Y385337D01*
X151049Y385297D01*
X151151Y385254D01*
X151252Y385207D01*
X151351Y385156D01*
X151448Y385103D01*
X151542Y385046D01*
X151635Y384985D01*
X151726Y384922D01*
X151815Y384855D01*
X151901Y384785D01*
X151984Y384712D01*
X152066Y384637D01*
X152144Y384559D01*
X152219Y384477D01*
X152292Y384394D01*
X152362Y384308D01*
X152429Y384219D01*
X152492Y384128D01*
X152553Y384035D01*
X152610Y383941D01*
X152663Y383844D01*
X152714Y383745D01*
X152761Y383644D01*
X152804Y383542D01*
X152844Y383439D01*
X152880Y383334D01*
X152912Y383228D01*
X152941Y383121D01*
X152966Y383013D01*
X152987Y382904D01*
X153004Y382795D01*
X153018Y382685D01*
X153027Y382574D01*
X153033Y382464D01*
X153035Y382353D01*
X153035Y379178D01*
X153035Y382988D02*
X158115Y385528D01*
X155575Y390525D02*
X146685Y393065D01*
X155575Y390525D02*
X155575Y396875D01*
X153035Y394970D02*
X158115Y394970D01*
D10*
X177800Y398780D02*
X177900Y398778D01*
X177999Y398772D01*
X178099Y398762D01*
X178197Y398749D01*
X178296Y398731D01*
X178393Y398710D01*
X178489Y398685D01*
X178585Y398656D01*
X178679Y398623D01*
X178772Y398587D01*
X178863Y398547D01*
X178953Y398503D01*
X179041Y398456D01*
X179127Y398406D01*
X179211Y398352D01*
X179293Y398295D01*
X179372Y398235D01*
X179450Y398171D01*
X179524Y398105D01*
X179596Y398036D01*
X179665Y397964D01*
X179731Y397890D01*
X179795Y397812D01*
X179855Y397733D01*
X179912Y397651D01*
X179966Y397567D01*
X180016Y397481D01*
X180063Y397393D01*
X180107Y397303D01*
X180147Y397212D01*
X180183Y397119D01*
X180216Y397025D01*
X180245Y396929D01*
X180270Y396833D01*
X180291Y396736D01*
X180309Y396637D01*
X180322Y396539D01*
X180332Y396439D01*
X180338Y396340D01*
X180340Y396240D01*
X152400Y398780D02*
X152300Y398778D01*
X152201Y398772D01*
X152101Y398762D01*
X152003Y398749D01*
X151904Y398731D01*
X151807Y398710D01*
X151711Y398685D01*
X151615Y398656D01*
X151521Y398623D01*
X151428Y398587D01*
X151337Y398547D01*
X151247Y398503D01*
X151159Y398456D01*
X151073Y398406D01*
X150989Y398352D01*
X150907Y398295D01*
X150828Y398235D01*
X150750Y398171D01*
X150676Y398105D01*
X150604Y398036D01*
X150535Y397964D01*
X150469Y397890D01*
X150405Y397812D01*
X150345Y397733D01*
X150288Y397651D01*
X150234Y397567D01*
X150184Y397481D01*
X150137Y397393D01*
X150093Y397303D01*
X150053Y397212D01*
X150017Y397119D01*
X149984Y397025D01*
X149955Y396929D01*
X149930Y396833D01*
X149909Y396736D01*
X149891Y396637D01*
X149878Y396539D01*
X149868Y396439D01*
X149862Y396340D01*
X149860Y396240D01*
X149860Y314960D02*
X149862Y314860D01*
X149868Y314761D01*
X149878Y314661D01*
X149891Y314563D01*
X149909Y314464D01*
X149930Y314367D01*
X149955Y314271D01*
X149984Y314175D01*
X150017Y314081D01*
X150053Y313988D01*
X150093Y313897D01*
X150137Y313807D01*
X150184Y313719D01*
X150234Y313633D01*
X150288Y313549D01*
X150345Y313467D01*
X150405Y313388D01*
X150469Y313310D01*
X150535Y313236D01*
X150604Y313164D01*
X150676Y313095D01*
X150750Y313029D01*
X150828Y312965D01*
X150907Y312905D01*
X150989Y312848D01*
X151073Y312794D01*
X151159Y312744D01*
X151247Y312697D01*
X151337Y312653D01*
X151428Y312613D01*
X151521Y312577D01*
X151615Y312544D01*
X151711Y312515D01*
X151807Y312490D01*
X151904Y312469D01*
X152003Y312451D01*
X152101Y312438D01*
X152201Y312428D01*
X152300Y312422D01*
X152400Y312420D01*
X177800Y312420D02*
X177900Y312422D01*
X177999Y312428D01*
X178099Y312438D01*
X178197Y312451D01*
X178296Y312469D01*
X178393Y312490D01*
X178489Y312515D01*
X178585Y312544D01*
X178679Y312577D01*
X178772Y312613D01*
X178863Y312653D01*
X178953Y312697D01*
X179041Y312744D01*
X179127Y312794D01*
X179211Y312848D01*
X179293Y312905D01*
X179372Y312965D01*
X179450Y313029D01*
X179524Y313095D01*
X179596Y313164D01*
X179665Y313236D01*
X179731Y313310D01*
X179795Y313388D01*
X179855Y313467D01*
X179912Y313549D01*
X179966Y313633D01*
X180016Y313719D01*
X180063Y313807D01*
X180107Y313897D01*
X180147Y313988D01*
X180183Y314081D01*
X180216Y314175D01*
X180245Y314271D01*
X180270Y314367D01*
X180291Y314464D01*
X180309Y314563D01*
X180322Y314661D01*
X180332Y314761D01*
X180338Y314860D01*
X180340Y314960D01*
X180340Y389890D02*
X180340Y396240D01*
X180340Y389890D02*
X179070Y388620D01*
X149860Y389890D02*
X149860Y396240D01*
X149860Y389890D02*
X151130Y388620D01*
X179070Y322580D02*
X180340Y321310D01*
X179070Y322580D02*
X179070Y388620D01*
X151130Y322580D02*
X149860Y321310D01*
X151130Y322580D02*
X151130Y388620D01*
X180340Y321310D02*
X180340Y314960D01*
X149860Y314960D02*
X149860Y321310D01*
D12*
X184785Y379178D02*
X196215Y379178D01*
X184785Y379178D02*
X184785Y382353D01*
X184787Y382464D01*
X184793Y382574D01*
X184802Y382685D01*
X184816Y382795D01*
X184833Y382904D01*
X184854Y383013D01*
X184879Y383121D01*
X184908Y383228D01*
X184940Y383334D01*
X184976Y383439D01*
X185016Y383542D01*
X185059Y383644D01*
X185106Y383745D01*
X185157Y383844D01*
X185210Y383941D01*
X185267Y384035D01*
X185328Y384128D01*
X185391Y384219D01*
X185458Y384308D01*
X185528Y384394D01*
X185601Y384477D01*
X185676Y384559D01*
X185754Y384637D01*
X185836Y384712D01*
X185919Y384785D01*
X186005Y384855D01*
X186094Y384922D01*
X186185Y384985D01*
X186278Y385046D01*
X186373Y385103D01*
X186469Y385156D01*
X186568Y385207D01*
X186669Y385254D01*
X186771Y385297D01*
X186874Y385337D01*
X186979Y385373D01*
X187085Y385405D01*
X187192Y385434D01*
X187300Y385459D01*
X187409Y385480D01*
X187518Y385497D01*
X187628Y385511D01*
X187739Y385520D01*
X187849Y385526D01*
X187960Y385528D01*
X188071Y385526D01*
X188181Y385520D01*
X188292Y385511D01*
X188402Y385497D01*
X188511Y385480D01*
X188620Y385459D01*
X188728Y385434D01*
X188835Y385405D01*
X188941Y385373D01*
X189046Y385337D01*
X189149Y385297D01*
X189251Y385254D01*
X189352Y385207D01*
X189451Y385156D01*
X189548Y385103D01*
X189642Y385046D01*
X189735Y384985D01*
X189826Y384922D01*
X189915Y384855D01*
X190001Y384785D01*
X190084Y384712D01*
X190166Y384637D01*
X190244Y384559D01*
X190319Y384477D01*
X190392Y384394D01*
X190462Y384308D01*
X190529Y384219D01*
X190592Y384128D01*
X190653Y384035D01*
X190710Y383941D01*
X190763Y383844D01*
X190814Y383745D01*
X190861Y383644D01*
X190904Y383542D01*
X190944Y383439D01*
X190980Y383334D01*
X191012Y383228D01*
X191041Y383121D01*
X191066Y383013D01*
X191087Y382904D01*
X191104Y382795D01*
X191118Y382685D01*
X191127Y382574D01*
X191133Y382464D01*
X191135Y382353D01*
X191135Y379178D01*
X191135Y382988D02*
X196215Y385528D01*
X196215Y390525D02*
X196215Y394335D01*
X196213Y394435D01*
X196207Y394534D01*
X196197Y394634D01*
X196184Y394732D01*
X196166Y394831D01*
X196145Y394928D01*
X196120Y395024D01*
X196091Y395120D01*
X196058Y395214D01*
X196022Y395307D01*
X195982Y395398D01*
X195938Y395488D01*
X195891Y395576D01*
X195841Y395662D01*
X195787Y395746D01*
X195730Y395828D01*
X195670Y395907D01*
X195606Y395985D01*
X195540Y396059D01*
X195471Y396131D01*
X195399Y396200D01*
X195325Y396266D01*
X195247Y396330D01*
X195168Y396390D01*
X195086Y396447D01*
X195002Y396501D01*
X194916Y396551D01*
X194828Y396598D01*
X194738Y396642D01*
X194647Y396682D01*
X194554Y396718D01*
X194460Y396751D01*
X194364Y396780D01*
X194268Y396805D01*
X194171Y396826D01*
X194072Y396844D01*
X193974Y396857D01*
X193874Y396867D01*
X193775Y396873D01*
X193675Y396875D01*
X192405Y396875D01*
X192305Y396873D01*
X192206Y396867D01*
X192106Y396857D01*
X192008Y396844D01*
X191909Y396826D01*
X191812Y396805D01*
X191716Y396780D01*
X191620Y396751D01*
X191526Y396718D01*
X191433Y396682D01*
X191342Y396642D01*
X191252Y396598D01*
X191164Y396551D01*
X191078Y396501D01*
X190994Y396447D01*
X190912Y396390D01*
X190833Y396330D01*
X190755Y396266D01*
X190681Y396200D01*
X190609Y396131D01*
X190540Y396059D01*
X190474Y395985D01*
X190410Y395907D01*
X190350Y395828D01*
X190293Y395746D01*
X190239Y395662D01*
X190189Y395576D01*
X190142Y395488D01*
X190098Y395398D01*
X190058Y395307D01*
X190022Y395214D01*
X189989Y395120D01*
X189960Y395024D01*
X189935Y394928D01*
X189914Y394831D01*
X189896Y394732D01*
X189883Y394634D01*
X189873Y394534D01*
X189867Y394435D01*
X189865Y394335D01*
X189865Y390525D01*
X184785Y390525D01*
X184785Y396875D01*
D10*
X264160Y129540D02*
X264060Y129538D01*
X263961Y129532D01*
X263861Y129522D01*
X263763Y129509D01*
X263664Y129491D01*
X263567Y129470D01*
X263471Y129445D01*
X263375Y129416D01*
X263281Y129383D01*
X263188Y129347D01*
X263097Y129307D01*
X263007Y129263D01*
X262919Y129216D01*
X262833Y129166D01*
X262749Y129112D01*
X262667Y129055D01*
X262588Y128995D01*
X262510Y128931D01*
X262436Y128865D01*
X262364Y128796D01*
X262295Y128724D01*
X262229Y128650D01*
X262165Y128572D01*
X262105Y128493D01*
X262048Y128411D01*
X261994Y128327D01*
X261944Y128241D01*
X261897Y128153D01*
X261853Y128063D01*
X261813Y127972D01*
X261777Y127879D01*
X261744Y127785D01*
X261715Y127689D01*
X261690Y127593D01*
X261669Y127496D01*
X261651Y127397D01*
X261638Y127299D01*
X261628Y127199D01*
X261622Y127100D01*
X261620Y127000D01*
X261620Y101600D02*
X261622Y101500D01*
X261628Y101401D01*
X261638Y101301D01*
X261651Y101203D01*
X261669Y101104D01*
X261690Y101007D01*
X261715Y100911D01*
X261744Y100815D01*
X261777Y100721D01*
X261813Y100628D01*
X261853Y100537D01*
X261897Y100447D01*
X261944Y100359D01*
X261994Y100273D01*
X262048Y100189D01*
X262105Y100107D01*
X262165Y100028D01*
X262229Y99950D01*
X262295Y99876D01*
X262364Y99804D01*
X262436Y99735D01*
X262510Y99669D01*
X262588Y99605D01*
X262667Y99545D01*
X262749Y99488D01*
X262833Y99434D01*
X262919Y99384D01*
X263007Y99337D01*
X263097Y99293D01*
X263188Y99253D01*
X263281Y99217D01*
X263375Y99184D01*
X263471Y99155D01*
X263567Y99130D01*
X263664Y99109D01*
X263763Y99091D01*
X263861Y99078D01*
X263961Y99068D01*
X264060Y99062D01*
X264160Y99060D01*
X345440Y99060D02*
X345540Y99062D01*
X345639Y99068D01*
X345739Y99078D01*
X345837Y99091D01*
X345936Y99109D01*
X346033Y99130D01*
X346129Y99155D01*
X346225Y99184D01*
X346319Y99217D01*
X346412Y99253D01*
X346503Y99293D01*
X346593Y99337D01*
X346681Y99384D01*
X346767Y99434D01*
X346851Y99488D01*
X346933Y99545D01*
X347012Y99605D01*
X347090Y99669D01*
X347164Y99735D01*
X347236Y99804D01*
X347305Y99876D01*
X347371Y99950D01*
X347435Y100028D01*
X347495Y100107D01*
X347552Y100189D01*
X347606Y100273D01*
X347656Y100359D01*
X347703Y100447D01*
X347747Y100537D01*
X347787Y100628D01*
X347823Y100721D01*
X347856Y100815D01*
X347885Y100911D01*
X347910Y101007D01*
X347931Y101104D01*
X347949Y101203D01*
X347962Y101301D01*
X347972Y101401D01*
X347978Y101500D01*
X347980Y101600D01*
X347980Y127000D02*
X347978Y127100D01*
X347972Y127199D01*
X347962Y127299D01*
X347949Y127397D01*
X347931Y127496D01*
X347910Y127593D01*
X347885Y127689D01*
X347856Y127785D01*
X347823Y127879D01*
X347787Y127972D01*
X347747Y128063D01*
X347703Y128153D01*
X347656Y128241D01*
X347606Y128327D01*
X347552Y128411D01*
X347495Y128493D01*
X347435Y128572D01*
X347371Y128650D01*
X347305Y128724D01*
X347236Y128796D01*
X347164Y128865D01*
X347090Y128931D01*
X347012Y128995D01*
X346933Y129055D01*
X346851Y129112D01*
X346767Y129166D01*
X346681Y129216D01*
X346593Y129263D01*
X346503Y129307D01*
X346412Y129347D01*
X346319Y129383D01*
X346225Y129416D01*
X346129Y129445D01*
X346033Y129470D01*
X345936Y129491D01*
X345837Y129509D01*
X345739Y129522D01*
X345639Y129532D01*
X345540Y129538D01*
X345440Y129540D01*
X270510Y129540D02*
X264160Y129540D01*
X270510Y129540D02*
X271780Y128270D01*
X270510Y99060D02*
X264160Y99060D01*
X270510Y99060D02*
X271780Y100330D01*
X337820Y128270D02*
X339090Y129540D01*
X337820Y128270D02*
X271780Y128270D01*
X337820Y100330D02*
X339090Y99060D01*
X337820Y100330D02*
X271780Y100330D01*
X339090Y129540D02*
X345440Y129540D01*
X345440Y99060D02*
X339090Y99060D01*
D12*
X263525Y133985D02*
X263525Y145415D01*
X266700Y145415D01*
X266811Y145413D01*
X266921Y145407D01*
X267032Y145398D01*
X267142Y145384D01*
X267251Y145367D01*
X267360Y145346D01*
X267468Y145321D01*
X267575Y145292D01*
X267681Y145260D01*
X267786Y145224D01*
X267889Y145184D01*
X267991Y145141D01*
X268092Y145094D01*
X268191Y145043D01*
X268288Y144990D01*
X268382Y144933D01*
X268475Y144872D01*
X268566Y144809D01*
X268655Y144742D01*
X268741Y144672D01*
X268824Y144599D01*
X268906Y144524D01*
X268984Y144446D01*
X269059Y144364D01*
X269132Y144281D01*
X269202Y144195D01*
X269269Y144106D01*
X269332Y144015D01*
X269393Y143922D01*
X269450Y143827D01*
X269503Y143731D01*
X269554Y143632D01*
X269601Y143531D01*
X269644Y143429D01*
X269684Y143326D01*
X269720Y143221D01*
X269752Y143115D01*
X269781Y143008D01*
X269806Y142900D01*
X269827Y142791D01*
X269844Y142682D01*
X269858Y142572D01*
X269867Y142461D01*
X269873Y142351D01*
X269875Y142240D01*
X269873Y142129D01*
X269867Y142019D01*
X269858Y141908D01*
X269844Y141798D01*
X269827Y141689D01*
X269806Y141580D01*
X269781Y141472D01*
X269752Y141365D01*
X269720Y141259D01*
X269684Y141154D01*
X269644Y141051D01*
X269601Y140949D01*
X269554Y140848D01*
X269503Y140749D01*
X269450Y140652D01*
X269393Y140558D01*
X269332Y140465D01*
X269269Y140374D01*
X269202Y140285D01*
X269132Y140199D01*
X269059Y140116D01*
X268984Y140034D01*
X268906Y139956D01*
X268824Y139881D01*
X268741Y139808D01*
X268655Y139738D01*
X268566Y139671D01*
X268475Y139608D01*
X268382Y139547D01*
X268288Y139490D01*
X268191Y139437D01*
X268092Y139386D01*
X267991Y139339D01*
X267889Y139296D01*
X267786Y139256D01*
X267681Y139220D01*
X267575Y139188D01*
X267468Y139159D01*
X267360Y139134D01*
X267251Y139113D01*
X267142Y139096D01*
X267032Y139082D01*
X266921Y139073D01*
X266811Y139067D01*
X266700Y139065D01*
X263525Y139065D01*
X267335Y139065D02*
X269875Y133985D01*
X274872Y140335D02*
X278682Y140335D01*
X278782Y140333D01*
X278881Y140327D01*
X278981Y140317D01*
X279079Y140304D01*
X279178Y140286D01*
X279275Y140265D01*
X279371Y140240D01*
X279467Y140211D01*
X279561Y140178D01*
X279654Y140142D01*
X279745Y140102D01*
X279835Y140058D01*
X279923Y140011D01*
X280009Y139961D01*
X280093Y139907D01*
X280175Y139850D01*
X280254Y139790D01*
X280332Y139726D01*
X280406Y139660D01*
X280478Y139591D01*
X280547Y139519D01*
X280613Y139445D01*
X280677Y139367D01*
X280737Y139288D01*
X280794Y139206D01*
X280848Y139122D01*
X280898Y139036D01*
X280945Y138948D01*
X280989Y138858D01*
X281029Y138767D01*
X281065Y138674D01*
X281098Y138580D01*
X281127Y138484D01*
X281152Y138388D01*
X281173Y138291D01*
X281191Y138192D01*
X281204Y138094D01*
X281214Y137994D01*
X281220Y137895D01*
X281222Y137795D01*
X281222Y137160D01*
X281220Y137049D01*
X281214Y136939D01*
X281205Y136828D01*
X281191Y136718D01*
X281174Y136609D01*
X281153Y136500D01*
X281128Y136392D01*
X281099Y136285D01*
X281067Y136179D01*
X281031Y136074D01*
X280991Y135971D01*
X280948Y135869D01*
X280901Y135768D01*
X280850Y135669D01*
X280797Y135572D01*
X280740Y135478D01*
X280679Y135385D01*
X280616Y135294D01*
X280549Y135205D01*
X280479Y135119D01*
X280406Y135036D01*
X280331Y134954D01*
X280253Y134876D01*
X280171Y134801D01*
X280088Y134728D01*
X280002Y134658D01*
X279913Y134591D01*
X279822Y134528D01*
X279729Y134467D01*
X279634Y134410D01*
X279538Y134357D01*
X279439Y134306D01*
X279338Y134259D01*
X279236Y134216D01*
X279133Y134176D01*
X279028Y134140D01*
X278922Y134108D01*
X278815Y134079D01*
X278707Y134054D01*
X278598Y134033D01*
X278489Y134016D01*
X278379Y134002D01*
X278268Y133993D01*
X278158Y133987D01*
X278047Y133985D01*
X277936Y133987D01*
X277826Y133993D01*
X277715Y134002D01*
X277605Y134016D01*
X277496Y134033D01*
X277387Y134054D01*
X277279Y134079D01*
X277172Y134108D01*
X277066Y134140D01*
X276961Y134176D01*
X276858Y134216D01*
X276756Y134259D01*
X276655Y134306D01*
X276556Y134357D01*
X276460Y134410D01*
X276365Y134467D01*
X276272Y134528D01*
X276181Y134591D01*
X276092Y134658D01*
X276006Y134728D01*
X275923Y134801D01*
X275841Y134876D01*
X275763Y134954D01*
X275688Y135036D01*
X275615Y135119D01*
X275545Y135205D01*
X275478Y135294D01*
X275415Y135385D01*
X275354Y135478D01*
X275297Y135573D01*
X275244Y135669D01*
X275193Y135768D01*
X275146Y135869D01*
X275103Y135971D01*
X275063Y136074D01*
X275027Y136179D01*
X274995Y136285D01*
X274966Y136392D01*
X274941Y136500D01*
X274920Y136609D01*
X274903Y136718D01*
X274889Y136828D01*
X274880Y136939D01*
X274874Y137049D01*
X274872Y137160D01*
X274872Y140335D01*
X274874Y140475D01*
X274880Y140615D01*
X274889Y140755D01*
X274903Y140894D01*
X274920Y141033D01*
X274941Y141171D01*
X274966Y141309D01*
X274995Y141446D01*
X275027Y141582D01*
X275064Y141717D01*
X275104Y141851D01*
X275147Y141984D01*
X275195Y142116D01*
X275245Y142247D01*
X275300Y142376D01*
X275358Y142503D01*
X275419Y142629D01*
X275484Y142753D01*
X275553Y142875D01*
X275624Y142995D01*
X275699Y143113D01*
X275777Y143230D01*
X275859Y143344D01*
X275943Y143455D01*
X276031Y143564D01*
X276121Y143671D01*
X276215Y143776D01*
X276311Y143877D01*
X276410Y143976D01*
X276511Y144072D01*
X276616Y144166D01*
X276723Y144256D01*
X276832Y144344D01*
X276943Y144428D01*
X277057Y144510D01*
X277174Y144588D01*
X277292Y144663D01*
X277412Y144734D01*
X277534Y144803D01*
X277658Y144868D01*
X277784Y144929D01*
X277911Y144987D01*
X278040Y145042D01*
X278171Y145092D01*
X278303Y145140D01*
X278436Y145183D01*
X278570Y145223D01*
X278705Y145260D01*
X278841Y145292D01*
X278978Y145321D01*
X279116Y145346D01*
X279254Y145367D01*
X279393Y145384D01*
X279532Y145398D01*
X279672Y145407D01*
X279812Y145413D01*
X279952Y145415D01*
D10*
X210820Y355600D02*
X210822Y355700D01*
X210828Y355799D01*
X210838Y355899D01*
X210851Y355997D01*
X210869Y356096D01*
X210890Y356193D01*
X210915Y356289D01*
X210944Y356385D01*
X210977Y356479D01*
X211013Y356572D01*
X211053Y356663D01*
X211097Y356753D01*
X211144Y356841D01*
X211194Y356927D01*
X211248Y357011D01*
X211305Y357093D01*
X211365Y357172D01*
X211429Y357250D01*
X211495Y357324D01*
X211564Y357396D01*
X211636Y357465D01*
X211710Y357531D01*
X211788Y357595D01*
X211867Y357655D01*
X211949Y357712D01*
X212033Y357766D01*
X212119Y357816D01*
X212207Y357863D01*
X212297Y357907D01*
X212388Y357947D01*
X212481Y357983D01*
X212575Y358016D01*
X212671Y358045D01*
X212767Y358070D01*
X212864Y358091D01*
X212963Y358109D01*
X213061Y358122D01*
X213161Y358132D01*
X213260Y358138D01*
X213360Y358140D01*
X210820Y330200D02*
X210822Y330100D01*
X210828Y330001D01*
X210838Y329901D01*
X210851Y329803D01*
X210869Y329704D01*
X210890Y329607D01*
X210915Y329511D01*
X210944Y329415D01*
X210977Y329321D01*
X211013Y329228D01*
X211053Y329137D01*
X211097Y329047D01*
X211144Y328959D01*
X211194Y328873D01*
X211248Y328789D01*
X211305Y328707D01*
X211365Y328628D01*
X211429Y328550D01*
X211495Y328476D01*
X211564Y328404D01*
X211636Y328335D01*
X211710Y328269D01*
X211788Y328205D01*
X211867Y328145D01*
X211949Y328088D01*
X212033Y328034D01*
X212119Y327984D01*
X212207Y327937D01*
X212297Y327893D01*
X212388Y327853D01*
X212481Y327817D01*
X212575Y327784D01*
X212671Y327755D01*
X212767Y327730D01*
X212864Y327709D01*
X212963Y327691D01*
X213061Y327678D01*
X213161Y327668D01*
X213260Y327662D01*
X213360Y327660D01*
X294640Y327660D02*
X294740Y327662D01*
X294839Y327668D01*
X294939Y327678D01*
X295037Y327691D01*
X295136Y327709D01*
X295233Y327730D01*
X295329Y327755D01*
X295425Y327784D01*
X295519Y327817D01*
X295612Y327853D01*
X295703Y327893D01*
X295793Y327937D01*
X295881Y327984D01*
X295967Y328034D01*
X296051Y328088D01*
X296133Y328145D01*
X296212Y328205D01*
X296290Y328269D01*
X296364Y328335D01*
X296436Y328404D01*
X296505Y328476D01*
X296571Y328550D01*
X296635Y328628D01*
X296695Y328707D01*
X296752Y328789D01*
X296806Y328873D01*
X296856Y328959D01*
X296903Y329047D01*
X296947Y329137D01*
X296987Y329228D01*
X297023Y329321D01*
X297056Y329415D01*
X297085Y329511D01*
X297110Y329607D01*
X297131Y329704D01*
X297149Y329803D01*
X297162Y329901D01*
X297172Y330001D01*
X297178Y330100D01*
X297180Y330200D01*
X297180Y355600D02*
X297178Y355700D01*
X297172Y355799D01*
X297162Y355899D01*
X297149Y355997D01*
X297131Y356096D01*
X297110Y356193D01*
X297085Y356289D01*
X297056Y356385D01*
X297023Y356479D01*
X296987Y356572D01*
X296947Y356663D01*
X296903Y356753D01*
X296856Y356841D01*
X296806Y356927D01*
X296752Y357011D01*
X296695Y357093D01*
X296635Y357172D01*
X296571Y357250D01*
X296505Y357324D01*
X296436Y357396D01*
X296364Y357465D01*
X296290Y357531D01*
X296212Y357595D01*
X296133Y357655D01*
X296051Y357712D01*
X295967Y357766D01*
X295881Y357816D01*
X295793Y357863D01*
X295703Y357907D01*
X295612Y357947D01*
X295519Y357983D01*
X295425Y358016D01*
X295329Y358045D01*
X295233Y358070D01*
X295136Y358091D01*
X295037Y358109D01*
X294939Y358122D01*
X294839Y358132D01*
X294740Y358138D01*
X294640Y358140D01*
X219710Y358140D02*
X213360Y358140D01*
X219710Y358140D02*
X220980Y356870D01*
X219710Y327660D02*
X213360Y327660D01*
X219710Y327660D02*
X220980Y328930D01*
X287020Y356870D02*
X288290Y358140D01*
X287020Y356870D02*
X220980Y356870D01*
X287020Y328930D02*
X288290Y327660D01*
X287020Y328930D02*
X220980Y328930D01*
X288290Y358140D02*
X294640Y358140D01*
X294640Y327660D02*
X288290Y327660D01*
D12*
X212725Y362585D02*
X212725Y374015D01*
X215900Y374015D01*
X216011Y374013D01*
X216121Y374007D01*
X216232Y373998D01*
X216342Y373984D01*
X216451Y373967D01*
X216560Y373946D01*
X216668Y373921D01*
X216775Y373892D01*
X216881Y373860D01*
X216986Y373824D01*
X217089Y373784D01*
X217191Y373741D01*
X217292Y373694D01*
X217391Y373643D01*
X217488Y373590D01*
X217582Y373533D01*
X217675Y373472D01*
X217766Y373409D01*
X217855Y373342D01*
X217941Y373272D01*
X218024Y373199D01*
X218106Y373124D01*
X218184Y373046D01*
X218259Y372964D01*
X218332Y372881D01*
X218402Y372795D01*
X218469Y372706D01*
X218532Y372615D01*
X218593Y372522D01*
X218650Y372427D01*
X218703Y372331D01*
X218754Y372232D01*
X218801Y372131D01*
X218844Y372029D01*
X218884Y371926D01*
X218920Y371821D01*
X218952Y371715D01*
X218981Y371608D01*
X219006Y371500D01*
X219027Y371391D01*
X219044Y371282D01*
X219058Y371172D01*
X219067Y371061D01*
X219073Y370951D01*
X219075Y370840D01*
X219073Y370729D01*
X219067Y370619D01*
X219058Y370508D01*
X219044Y370398D01*
X219027Y370289D01*
X219006Y370180D01*
X218981Y370072D01*
X218952Y369965D01*
X218920Y369859D01*
X218884Y369754D01*
X218844Y369651D01*
X218801Y369549D01*
X218754Y369448D01*
X218703Y369349D01*
X218650Y369252D01*
X218593Y369158D01*
X218532Y369065D01*
X218469Y368974D01*
X218402Y368885D01*
X218332Y368799D01*
X218259Y368716D01*
X218184Y368634D01*
X218106Y368556D01*
X218024Y368481D01*
X217941Y368408D01*
X217855Y368338D01*
X217766Y368271D01*
X217675Y368208D01*
X217582Y368147D01*
X217487Y368090D01*
X217391Y368037D01*
X217292Y367986D01*
X217191Y367939D01*
X217089Y367896D01*
X216986Y367856D01*
X216881Y367820D01*
X216775Y367788D01*
X216668Y367759D01*
X216560Y367734D01*
X216451Y367713D01*
X216342Y367696D01*
X216232Y367682D01*
X216121Y367673D01*
X216011Y367667D01*
X215900Y367665D01*
X212725Y367665D01*
X216535Y367665D02*
X219075Y362585D01*
X224072Y372745D02*
X224072Y374015D01*
X230422Y374015D01*
X227247Y362585D01*
D10*
X297180Y292100D02*
X297178Y292000D01*
X297172Y291901D01*
X297162Y291801D01*
X297149Y291703D01*
X297131Y291604D01*
X297110Y291507D01*
X297085Y291411D01*
X297056Y291315D01*
X297023Y291221D01*
X296987Y291128D01*
X296947Y291037D01*
X296903Y290947D01*
X296856Y290859D01*
X296806Y290773D01*
X296752Y290689D01*
X296695Y290607D01*
X296635Y290528D01*
X296571Y290450D01*
X296505Y290376D01*
X296436Y290304D01*
X296364Y290235D01*
X296290Y290169D01*
X296212Y290105D01*
X296133Y290045D01*
X296051Y289988D01*
X295967Y289934D01*
X295881Y289884D01*
X295793Y289837D01*
X295703Y289793D01*
X295612Y289753D01*
X295519Y289717D01*
X295425Y289684D01*
X295329Y289655D01*
X295233Y289630D01*
X295136Y289609D01*
X295037Y289591D01*
X294939Y289578D01*
X294839Y289568D01*
X294740Y289562D01*
X294640Y289560D01*
X297180Y317500D02*
X297178Y317600D01*
X297172Y317699D01*
X297162Y317799D01*
X297149Y317897D01*
X297131Y317996D01*
X297110Y318093D01*
X297085Y318189D01*
X297056Y318285D01*
X297023Y318379D01*
X296987Y318472D01*
X296947Y318563D01*
X296903Y318653D01*
X296856Y318741D01*
X296806Y318827D01*
X296752Y318911D01*
X296695Y318993D01*
X296635Y319072D01*
X296571Y319150D01*
X296505Y319224D01*
X296436Y319296D01*
X296364Y319365D01*
X296290Y319431D01*
X296212Y319495D01*
X296133Y319555D01*
X296051Y319612D01*
X295967Y319666D01*
X295881Y319716D01*
X295793Y319763D01*
X295703Y319807D01*
X295612Y319847D01*
X295519Y319883D01*
X295425Y319916D01*
X295329Y319945D01*
X295233Y319970D01*
X295136Y319991D01*
X295037Y320009D01*
X294939Y320022D01*
X294839Y320032D01*
X294740Y320038D01*
X294640Y320040D01*
X213360Y320040D02*
X213260Y320038D01*
X213161Y320032D01*
X213061Y320022D01*
X212963Y320009D01*
X212864Y319991D01*
X212767Y319970D01*
X212671Y319945D01*
X212575Y319916D01*
X212481Y319883D01*
X212388Y319847D01*
X212297Y319807D01*
X212207Y319763D01*
X212119Y319716D01*
X212033Y319666D01*
X211949Y319612D01*
X211867Y319555D01*
X211788Y319495D01*
X211710Y319431D01*
X211636Y319365D01*
X211564Y319296D01*
X211495Y319224D01*
X211429Y319150D01*
X211365Y319072D01*
X211305Y318993D01*
X211248Y318911D01*
X211194Y318827D01*
X211144Y318741D01*
X211097Y318653D01*
X211053Y318563D01*
X211013Y318472D01*
X210977Y318379D01*
X210944Y318285D01*
X210915Y318189D01*
X210890Y318093D01*
X210869Y317996D01*
X210851Y317897D01*
X210838Y317799D01*
X210828Y317699D01*
X210822Y317600D01*
X210820Y317500D01*
X210820Y292100D02*
X210822Y292000D01*
X210828Y291901D01*
X210838Y291801D01*
X210851Y291703D01*
X210869Y291604D01*
X210890Y291507D01*
X210915Y291411D01*
X210944Y291315D01*
X210977Y291221D01*
X211013Y291128D01*
X211053Y291037D01*
X211097Y290947D01*
X211144Y290859D01*
X211194Y290773D01*
X211248Y290689D01*
X211305Y290607D01*
X211365Y290528D01*
X211429Y290450D01*
X211495Y290376D01*
X211564Y290304D01*
X211636Y290235D01*
X211710Y290169D01*
X211788Y290105D01*
X211867Y290045D01*
X211949Y289988D01*
X212033Y289934D01*
X212119Y289884D01*
X212207Y289837D01*
X212297Y289793D01*
X212388Y289753D01*
X212481Y289717D01*
X212575Y289684D01*
X212671Y289655D01*
X212767Y289630D01*
X212864Y289609D01*
X212963Y289591D01*
X213061Y289578D01*
X213161Y289568D01*
X213260Y289562D01*
X213360Y289560D01*
X288290Y289560D02*
X294640Y289560D01*
X288290Y289560D02*
X287020Y290830D01*
X288290Y320040D02*
X294640Y320040D01*
X288290Y320040D02*
X287020Y318770D01*
X220980Y290830D02*
X219710Y289560D01*
X220980Y290830D02*
X287020Y290830D01*
X220980Y318770D02*
X219710Y320040D01*
X220980Y318770D02*
X287020Y318770D01*
X219710Y289560D02*
X213360Y289560D01*
X213360Y320040D02*
X219710Y320040D01*
D12*
X277578Y285115D02*
X277578Y273685D01*
X277578Y285115D02*
X280753Y285115D01*
X280864Y285113D01*
X280974Y285107D01*
X281085Y285098D01*
X281195Y285084D01*
X281304Y285067D01*
X281413Y285046D01*
X281521Y285021D01*
X281628Y284992D01*
X281734Y284960D01*
X281839Y284924D01*
X281942Y284884D01*
X282044Y284841D01*
X282145Y284794D01*
X282244Y284743D01*
X282341Y284690D01*
X282435Y284633D01*
X282528Y284572D01*
X282619Y284509D01*
X282708Y284442D01*
X282794Y284372D01*
X282877Y284299D01*
X282959Y284224D01*
X283037Y284146D01*
X283112Y284064D01*
X283185Y283981D01*
X283255Y283895D01*
X283322Y283806D01*
X283385Y283715D01*
X283446Y283622D01*
X283503Y283527D01*
X283556Y283431D01*
X283607Y283332D01*
X283654Y283231D01*
X283697Y283129D01*
X283737Y283026D01*
X283773Y282921D01*
X283805Y282815D01*
X283834Y282708D01*
X283859Y282600D01*
X283880Y282491D01*
X283897Y282382D01*
X283911Y282272D01*
X283920Y282161D01*
X283926Y282051D01*
X283928Y281940D01*
X283926Y281829D01*
X283920Y281719D01*
X283911Y281608D01*
X283897Y281498D01*
X283880Y281389D01*
X283859Y281280D01*
X283834Y281172D01*
X283805Y281065D01*
X283773Y280959D01*
X283737Y280854D01*
X283697Y280751D01*
X283654Y280649D01*
X283607Y280548D01*
X283556Y280449D01*
X283503Y280352D01*
X283446Y280258D01*
X283385Y280165D01*
X283322Y280074D01*
X283255Y279985D01*
X283185Y279899D01*
X283112Y279816D01*
X283037Y279734D01*
X282959Y279656D01*
X282877Y279581D01*
X282794Y279508D01*
X282708Y279438D01*
X282619Y279371D01*
X282528Y279308D01*
X282435Y279247D01*
X282341Y279190D01*
X282244Y279137D01*
X282145Y279086D01*
X282044Y279039D01*
X281942Y278996D01*
X281839Y278956D01*
X281734Y278920D01*
X281628Y278888D01*
X281521Y278859D01*
X281413Y278834D01*
X281304Y278813D01*
X281195Y278796D01*
X281085Y278782D01*
X280974Y278773D01*
X280864Y278767D01*
X280753Y278765D01*
X277578Y278765D01*
X281388Y278765D02*
X283928Y273685D01*
X288925Y276860D02*
X288927Y276971D01*
X288933Y277081D01*
X288942Y277192D01*
X288956Y277302D01*
X288973Y277411D01*
X288994Y277520D01*
X289019Y277628D01*
X289048Y277735D01*
X289080Y277841D01*
X289116Y277946D01*
X289156Y278049D01*
X289199Y278151D01*
X289246Y278252D01*
X289297Y278351D01*
X289350Y278448D01*
X289407Y278542D01*
X289468Y278635D01*
X289531Y278726D01*
X289598Y278815D01*
X289668Y278901D01*
X289741Y278984D01*
X289816Y279066D01*
X289894Y279144D01*
X289976Y279219D01*
X290059Y279292D01*
X290145Y279362D01*
X290234Y279429D01*
X290325Y279492D01*
X290418Y279553D01*
X290513Y279610D01*
X290609Y279663D01*
X290708Y279714D01*
X290809Y279761D01*
X290911Y279804D01*
X291014Y279844D01*
X291119Y279880D01*
X291225Y279912D01*
X291332Y279941D01*
X291440Y279966D01*
X291549Y279987D01*
X291658Y280004D01*
X291768Y280018D01*
X291879Y280027D01*
X291989Y280033D01*
X292100Y280035D01*
X292211Y280033D01*
X292321Y280027D01*
X292432Y280018D01*
X292542Y280004D01*
X292651Y279987D01*
X292760Y279966D01*
X292868Y279941D01*
X292975Y279912D01*
X293081Y279880D01*
X293186Y279844D01*
X293289Y279804D01*
X293391Y279761D01*
X293492Y279714D01*
X293591Y279663D01*
X293688Y279610D01*
X293782Y279553D01*
X293875Y279492D01*
X293966Y279429D01*
X294055Y279362D01*
X294141Y279292D01*
X294224Y279219D01*
X294306Y279144D01*
X294384Y279066D01*
X294459Y278984D01*
X294532Y278901D01*
X294602Y278815D01*
X294669Y278726D01*
X294732Y278635D01*
X294793Y278542D01*
X294850Y278448D01*
X294903Y278351D01*
X294954Y278252D01*
X295001Y278151D01*
X295044Y278049D01*
X295084Y277946D01*
X295120Y277841D01*
X295152Y277735D01*
X295181Y277628D01*
X295206Y277520D01*
X295227Y277411D01*
X295244Y277302D01*
X295258Y277192D01*
X295267Y277081D01*
X295273Y276971D01*
X295275Y276860D01*
X295273Y276749D01*
X295267Y276639D01*
X295258Y276528D01*
X295244Y276418D01*
X295227Y276309D01*
X295206Y276200D01*
X295181Y276092D01*
X295152Y275985D01*
X295120Y275879D01*
X295084Y275774D01*
X295044Y275671D01*
X295001Y275569D01*
X294954Y275468D01*
X294903Y275369D01*
X294850Y275272D01*
X294793Y275178D01*
X294732Y275085D01*
X294669Y274994D01*
X294602Y274905D01*
X294532Y274819D01*
X294459Y274736D01*
X294384Y274654D01*
X294306Y274576D01*
X294224Y274501D01*
X294141Y274428D01*
X294055Y274358D01*
X293966Y274291D01*
X293875Y274228D01*
X293782Y274167D01*
X293687Y274110D01*
X293591Y274057D01*
X293492Y274006D01*
X293391Y273959D01*
X293289Y273916D01*
X293186Y273876D01*
X293081Y273840D01*
X292975Y273808D01*
X292868Y273779D01*
X292760Y273754D01*
X292651Y273733D01*
X292542Y273716D01*
X292432Y273702D01*
X292321Y273693D01*
X292211Y273687D01*
X292100Y273685D01*
X291989Y273687D01*
X291879Y273693D01*
X291768Y273702D01*
X291658Y273716D01*
X291549Y273733D01*
X291440Y273754D01*
X291332Y273779D01*
X291225Y273808D01*
X291119Y273840D01*
X291014Y273876D01*
X290911Y273916D01*
X290809Y273959D01*
X290708Y274006D01*
X290609Y274057D01*
X290513Y274110D01*
X290418Y274167D01*
X290325Y274228D01*
X290234Y274291D01*
X290145Y274358D01*
X290059Y274428D01*
X289976Y274501D01*
X289894Y274576D01*
X289816Y274654D01*
X289741Y274736D01*
X289668Y274819D01*
X289598Y274905D01*
X289531Y274994D01*
X289468Y275085D01*
X289407Y275178D01*
X289350Y275273D01*
X289297Y275369D01*
X289246Y275468D01*
X289199Y275569D01*
X289156Y275671D01*
X289116Y275774D01*
X289080Y275879D01*
X289048Y275985D01*
X289019Y276092D01*
X288994Y276200D01*
X288973Y276309D01*
X288956Y276418D01*
X288942Y276528D01*
X288933Y276639D01*
X288927Y276749D01*
X288925Y276860D01*
X289560Y282575D02*
X289562Y282675D01*
X289568Y282774D01*
X289578Y282874D01*
X289591Y282972D01*
X289609Y283071D01*
X289630Y283168D01*
X289655Y283264D01*
X289684Y283360D01*
X289717Y283454D01*
X289753Y283547D01*
X289793Y283638D01*
X289837Y283728D01*
X289884Y283816D01*
X289934Y283902D01*
X289988Y283986D01*
X290045Y284068D01*
X290105Y284147D01*
X290169Y284225D01*
X290235Y284299D01*
X290304Y284371D01*
X290376Y284440D01*
X290450Y284506D01*
X290528Y284570D01*
X290607Y284630D01*
X290689Y284687D01*
X290773Y284741D01*
X290859Y284791D01*
X290947Y284838D01*
X291037Y284882D01*
X291128Y284922D01*
X291221Y284958D01*
X291315Y284991D01*
X291411Y285020D01*
X291507Y285045D01*
X291604Y285066D01*
X291703Y285084D01*
X291801Y285097D01*
X291901Y285107D01*
X292000Y285113D01*
X292100Y285115D01*
X292200Y285113D01*
X292299Y285107D01*
X292399Y285097D01*
X292497Y285084D01*
X292596Y285066D01*
X292693Y285045D01*
X292789Y285020D01*
X292885Y284991D01*
X292979Y284958D01*
X293072Y284922D01*
X293163Y284882D01*
X293253Y284838D01*
X293341Y284791D01*
X293427Y284741D01*
X293511Y284687D01*
X293593Y284630D01*
X293672Y284570D01*
X293750Y284506D01*
X293824Y284440D01*
X293896Y284371D01*
X293965Y284299D01*
X294031Y284225D01*
X294095Y284147D01*
X294155Y284068D01*
X294212Y283986D01*
X294266Y283902D01*
X294316Y283816D01*
X294363Y283728D01*
X294407Y283638D01*
X294447Y283547D01*
X294483Y283454D01*
X294516Y283360D01*
X294545Y283264D01*
X294570Y283168D01*
X294591Y283071D01*
X294609Y282972D01*
X294622Y282874D01*
X294632Y282774D01*
X294638Y282675D01*
X294640Y282575D01*
X294638Y282475D01*
X294632Y282376D01*
X294622Y282276D01*
X294609Y282178D01*
X294591Y282079D01*
X294570Y281982D01*
X294545Y281886D01*
X294516Y281790D01*
X294483Y281696D01*
X294447Y281603D01*
X294407Y281512D01*
X294363Y281422D01*
X294316Y281334D01*
X294266Y281248D01*
X294212Y281164D01*
X294155Y281082D01*
X294095Y281003D01*
X294031Y280925D01*
X293965Y280851D01*
X293896Y280779D01*
X293824Y280710D01*
X293750Y280644D01*
X293672Y280580D01*
X293593Y280520D01*
X293511Y280463D01*
X293427Y280409D01*
X293341Y280359D01*
X293253Y280312D01*
X293163Y280268D01*
X293072Y280228D01*
X292979Y280192D01*
X292885Y280159D01*
X292789Y280130D01*
X292693Y280105D01*
X292596Y280084D01*
X292497Y280066D01*
X292399Y280053D01*
X292299Y280043D01*
X292200Y280037D01*
X292100Y280035D01*
X292000Y280037D01*
X291901Y280043D01*
X291801Y280053D01*
X291703Y280066D01*
X291604Y280084D01*
X291507Y280105D01*
X291411Y280130D01*
X291315Y280159D01*
X291221Y280192D01*
X291128Y280228D01*
X291037Y280268D01*
X290947Y280312D01*
X290859Y280359D01*
X290773Y280409D01*
X290689Y280463D01*
X290607Y280520D01*
X290528Y280580D01*
X290450Y280644D01*
X290376Y280710D01*
X290304Y280779D01*
X290235Y280851D01*
X290169Y280925D01*
X290105Y281003D01*
X290045Y281082D01*
X289988Y281164D01*
X289934Y281248D01*
X289884Y281334D01*
X289837Y281422D01*
X289793Y281512D01*
X289753Y281603D01*
X289717Y281696D01*
X289684Y281790D01*
X289655Y281886D01*
X289630Y281982D01*
X289609Y282079D01*
X289591Y282178D01*
X289578Y282276D01*
X289568Y282376D01*
X289562Y282475D01*
X289560Y282575D01*
D10*
X208280Y266700D02*
X208278Y266600D01*
X208272Y266501D01*
X208262Y266401D01*
X208249Y266303D01*
X208231Y266204D01*
X208210Y266107D01*
X208185Y266011D01*
X208156Y265915D01*
X208123Y265821D01*
X208087Y265728D01*
X208047Y265637D01*
X208003Y265547D01*
X207956Y265459D01*
X207906Y265373D01*
X207852Y265289D01*
X207795Y265207D01*
X207735Y265128D01*
X207671Y265050D01*
X207605Y264976D01*
X207536Y264904D01*
X207464Y264835D01*
X207390Y264769D01*
X207312Y264705D01*
X207233Y264645D01*
X207151Y264588D01*
X207067Y264534D01*
X206981Y264484D01*
X206893Y264437D01*
X206803Y264393D01*
X206712Y264353D01*
X206619Y264317D01*
X206525Y264284D01*
X206429Y264255D01*
X206333Y264230D01*
X206236Y264209D01*
X206137Y264191D01*
X206039Y264178D01*
X205939Y264168D01*
X205840Y264162D01*
X205740Y264160D01*
X208280Y292100D02*
X208278Y292200D01*
X208272Y292299D01*
X208262Y292399D01*
X208249Y292497D01*
X208231Y292596D01*
X208210Y292693D01*
X208185Y292789D01*
X208156Y292885D01*
X208123Y292979D01*
X208087Y293072D01*
X208047Y293163D01*
X208003Y293253D01*
X207956Y293341D01*
X207906Y293427D01*
X207852Y293511D01*
X207795Y293593D01*
X207735Y293672D01*
X207671Y293750D01*
X207605Y293824D01*
X207536Y293896D01*
X207464Y293965D01*
X207390Y294031D01*
X207312Y294095D01*
X207233Y294155D01*
X207151Y294212D01*
X207067Y294266D01*
X206981Y294316D01*
X206893Y294363D01*
X206803Y294407D01*
X206712Y294447D01*
X206619Y294483D01*
X206525Y294516D01*
X206429Y294545D01*
X206333Y294570D01*
X206236Y294591D01*
X206137Y294609D01*
X206039Y294622D01*
X205939Y294632D01*
X205840Y294638D01*
X205740Y294640D01*
X124460Y294640D02*
X124360Y294638D01*
X124261Y294632D01*
X124161Y294622D01*
X124063Y294609D01*
X123964Y294591D01*
X123867Y294570D01*
X123771Y294545D01*
X123675Y294516D01*
X123581Y294483D01*
X123488Y294447D01*
X123397Y294407D01*
X123307Y294363D01*
X123219Y294316D01*
X123133Y294266D01*
X123049Y294212D01*
X122967Y294155D01*
X122888Y294095D01*
X122810Y294031D01*
X122736Y293965D01*
X122664Y293896D01*
X122595Y293824D01*
X122529Y293750D01*
X122465Y293672D01*
X122405Y293593D01*
X122348Y293511D01*
X122294Y293427D01*
X122244Y293341D01*
X122197Y293253D01*
X122153Y293163D01*
X122113Y293072D01*
X122077Y292979D01*
X122044Y292885D01*
X122015Y292789D01*
X121990Y292693D01*
X121969Y292596D01*
X121951Y292497D01*
X121938Y292399D01*
X121928Y292299D01*
X121922Y292200D01*
X121920Y292100D01*
X121920Y266700D02*
X121922Y266600D01*
X121928Y266501D01*
X121938Y266401D01*
X121951Y266303D01*
X121969Y266204D01*
X121990Y266107D01*
X122015Y266011D01*
X122044Y265915D01*
X122077Y265821D01*
X122113Y265728D01*
X122153Y265637D01*
X122197Y265547D01*
X122244Y265459D01*
X122294Y265373D01*
X122348Y265289D01*
X122405Y265207D01*
X122465Y265128D01*
X122529Y265050D01*
X122595Y264976D01*
X122664Y264904D01*
X122736Y264835D01*
X122810Y264769D01*
X122888Y264705D01*
X122967Y264645D01*
X123049Y264588D01*
X123133Y264534D01*
X123219Y264484D01*
X123307Y264437D01*
X123397Y264393D01*
X123488Y264353D01*
X123581Y264317D01*
X123675Y264284D01*
X123771Y264255D01*
X123867Y264230D01*
X123964Y264209D01*
X124063Y264191D01*
X124161Y264178D01*
X124261Y264168D01*
X124360Y264162D01*
X124460Y264160D01*
X199390Y264160D02*
X205740Y264160D01*
X199390Y264160D02*
X198120Y265430D01*
X199390Y294640D02*
X205740Y294640D01*
X199390Y294640D02*
X198120Y293370D01*
X132080Y265430D02*
X130810Y264160D01*
X132080Y265430D02*
X198120Y265430D01*
X132080Y293370D02*
X130810Y294640D01*
X132080Y293370D02*
X198120Y293370D01*
X130810Y264160D02*
X124460Y264160D01*
X124460Y294640D02*
X130810Y294640D01*
D12*
X188678Y259715D02*
X188678Y248285D01*
X188678Y259715D02*
X191853Y259715D01*
X191964Y259713D01*
X192074Y259707D01*
X192185Y259698D01*
X192295Y259684D01*
X192404Y259667D01*
X192513Y259646D01*
X192621Y259621D01*
X192728Y259592D01*
X192834Y259560D01*
X192939Y259524D01*
X193042Y259484D01*
X193144Y259441D01*
X193245Y259394D01*
X193344Y259343D01*
X193441Y259290D01*
X193535Y259233D01*
X193628Y259172D01*
X193719Y259109D01*
X193808Y259042D01*
X193894Y258972D01*
X193977Y258899D01*
X194059Y258824D01*
X194137Y258746D01*
X194212Y258664D01*
X194285Y258581D01*
X194355Y258495D01*
X194422Y258406D01*
X194485Y258315D01*
X194546Y258222D01*
X194603Y258127D01*
X194656Y258031D01*
X194707Y257932D01*
X194754Y257831D01*
X194797Y257729D01*
X194837Y257626D01*
X194873Y257521D01*
X194905Y257415D01*
X194934Y257308D01*
X194959Y257200D01*
X194980Y257091D01*
X194997Y256982D01*
X195011Y256872D01*
X195020Y256761D01*
X195026Y256651D01*
X195028Y256540D01*
X195026Y256429D01*
X195020Y256319D01*
X195011Y256208D01*
X194997Y256098D01*
X194980Y255989D01*
X194959Y255880D01*
X194934Y255772D01*
X194905Y255665D01*
X194873Y255559D01*
X194837Y255454D01*
X194797Y255351D01*
X194754Y255249D01*
X194707Y255148D01*
X194656Y255049D01*
X194603Y254952D01*
X194546Y254858D01*
X194485Y254765D01*
X194422Y254674D01*
X194355Y254585D01*
X194285Y254499D01*
X194212Y254416D01*
X194137Y254334D01*
X194059Y254256D01*
X193977Y254181D01*
X193894Y254108D01*
X193808Y254038D01*
X193719Y253971D01*
X193628Y253908D01*
X193535Y253847D01*
X193440Y253790D01*
X193344Y253737D01*
X193245Y253686D01*
X193144Y253639D01*
X193042Y253596D01*
X192939Y253556D01*
X192834Y253520D01*
X192728Y253488D01*
X192621Y253459D01*
X192513Y253434D01*
X192404Y253413D01*
X192295Y253396D01*
X192185Y253382D01*
X192074Y253373D01*
X191964Y253367D01*
X191853Y253365D01*
X188678Y253365D01*
X192488Y253365D02*
X195028Y248285D01*
X202565Y253365D02*
X206375Y253365D01*
X202565Y253365D02*
X202465Y253367D01*
X202366Y253373D01*
X202266Y253383D01*
X202168Y253396D01*
X202069Y253414D01*
X201972Y253435D01*
X201876Y253460D01*
X201780Y253489D01*
X201686Y253522D01*
X201593Y253558D01*
X201502Y253598D01*
X201412Y253642D01*
X201324Y253689D01*
X201238Y253739D01*
X201154Y253793D01*
X201072Y253850D01*
X200993Y253910D01*
X200915Y253974D01*
X200841Y254040D01*
X200769Y254109D01*
X200700Y254181D01*
X200634Y254255D01*
X200570Y254333D01*
X200510Y254412D01*
X200453Y254494D01*
X200399Y254578D01*
X200349Y254664D01*
X200302Y254752D01*
X200258Y254842D01*
X200218Y254933D01*
X200182Y255026D01*
X200149Y255120D01*
X200120Y255216D01*
X200095Y255312D01*
X200074Y255409D01*
X200056Y255508D01*
X200043Y255606D01*
X200033Y255706D01*
X200027Y255805D01*
X200025Y255905D01*
X200025Y256540D01*
X200027Y256651D01*
X200033Y256761D01*
X200042Y256872D01*
X200056Y256982D01*
X200073Y257091D01*
X200094Y257200D01*
X200119Y257308D01*
X200148Y257415D01*
X200180Y257521D01*
X200216Y257626D01*
X200256Y257729D01*
X200299Y257831D01*
X200346Y257932D01*
X200397Y258031D01*
X200450Y258128D01*
X200507Y258222D01*
X200568Y258315D01*
X200631Y258406D01*
X200698Y258495D01*
X200768Y258581D01*
X200841Y258664D01*
X200916Y258746D01*
X200994Y258824D01*
X201076Y258899D01*
X201159Y258972D01*
X201245Y259042D01*
X201334Y259109D01*
X201425Y259172D01*
X201518Y259233D01*
X201613Y259290D01*
X201709Y259343D01*
X201808Y259394D01*
X201909Y259441D01*
X202011Y259484D01*
X202114Y259524D01*
X202219Y259560D01*
X202325Y259592D01*
X202432Y259621D01*
X202540Y259646D01*
X202649Y259667D01*
X202758Y259684D01*
X202868Y259698D01*
X202979Y259707D01*
X203089Y259713D01*
X203200Y259715D01*
X203311Y259713D01*
X203421Y259707D01*
X203532Y259698D01*
X203642Y259684D01*
X203751Y259667D01*
X203860Y259646D01*
X203968Y259621D01*
X204075Y259592D01*
X204181Y259560D01*
X204286Y259524D01*
X204389Y259484D01*
X204491Y259441D01*
X204592Y259394D01*
X204691Y259343D01*
X204788Y259290D01*
X204882Y259233D01*
X204975Y259172D01*
X205066Y259109D01*
X205155Y259042D01*
X205241Y258972D01*
X205324Y258899D01*
X205406Y258824D01*
X205484Y258746D01*
X205559Y258664D01*
X205632Y258581D01*
X205702Y258495D01*
X205769Y258406D01*
X205832Y258315D01*
X205893Y258222D01*
X205950Y258128D01*
X206003Y258031D01*
X206054Y257932D01*
X206101Y257831D01*
X206144Y257729D01*
X206184Y257626D01*
X206220Y257521D01*
X206252Y257415D01*
X206281Y257308D01*
X206306Y257200D01*
X206327Y257091D01*
X206344Y256982D01*
X206358Y256872D01*
X206367Y256761D01*
X206373Y256651D01*
X206375Y256540D01*
X206375Y253365D01*
X206373Y253225D01*
X206367Y253085D01*
X206358Y252945D01*
X206344Y252806D01*
X206327Y252667D01*
X206306Y252529D01*
X206281Y252391D01*
X206252Y252254D01*
X206220Y252118D01*
X206183Y251983D01*
X206143Y251849D01*
X206100Y251716D01*
X206052Y251584D01*
X206002Y251453D01*
X205947Y251324D01*
X205889Y251197D01*
X205828Y251071D01*
X205763Y250947D01*
X205694Y250825D01*
X205623Y250705D01*
X205548Y250587D01*
X205470Y250470D01*
X205388Y250356D01*
X205304Y250245D01*
X205216Y250136D01*
X205126Y250029D01*
X205032Y249924D01*
X204936Y249823D01*
X204837Y249724D01*
X204736Y249628D01*
X204631Y249534D01*
X204524Y249444D01*
X204415Y249356D01*
X204304Y249272D01*
X204190Y249190D01*
X204073Y249112D01*
X203955Y249037D01*
X203835Y248966D01*
X203713Y248897D01*
X203589Y248832D01*
X203463Y248771D01*
X203336Y248713D01*
X203207Y248658D01*
X203076Y248608D01*
X202944Y248560D01*
X202811Y248517D01*
X202677Y248477D01*
X202542Y248440D01*
X202406Y248408D01*
X202269Y248379D01*
X202131Y248354D01*
X201993Y248333D01*
X201854Y248316D01*
X201715Y248302D01*
X201575Y248293D01*
X201435Y248287D01*
X201295Y248285D01*
X46625Y101981D02*
X46625Y97155D01*
X46625Y99836D02*
X49306Y99836D01*
X49306Y101981D02*
X49306Y97155D01*
X52294Y100909D02*
X53635Y101981D01*
X53635Y97155D01*
X54975Y97155D02*
X52294Y97155D01*
X351425Y516255D02*
X351425Y521081D01*
X351425Y518936D02*
X354106Y518936D01*
X354106Y521081D02*
X354106Y516255D01*
X358569Y521081D02*
X358637Y521079D01*
X358704Y521073D01*
X358771Y521064D01*
X358838Y521051D01*
X358903Y521034D01*
X358968Y521013D01*
X359031Y520989D01*
X359093Y520961D01*
X359153Y520930D01*
X359211Y520896D01*
X359267Y520858D01*
X359322Y520818D01*
X359373Y520774D01*
X359422Y520727D01*
X359469Y520678D01*
X359513Y520627D01*
X359553Y520572D01*
X359591Y520516D01*
X359625Y520458D01*
X359656Y520398D01*
X359684Y520336D01*
X359708Y520273D01*
X359729Y520208D01*
X359746Y520143D01*
X359759Y520076D01*
X359768Y520009D01*
X359774Y519942D01*
X359776Y519874D01*
X358569Y521081D02*
X358491Y521079D01*
X358413Y521073D01*
X358336Y521063D01*
X358259Y521050D01*
X358183Y521032D01*
X358108Y521011D01*
X358034Y520986D01*
X357962Y520957D01*
X357891Y520925D01*
X357822Y520889D01*
X357754Y520850D01*
X357689Y520807D01*
X357626Y520761D01*
X357565Y520712D01*
X357507Y520660D01*
X357452Y520605D01*
X357399Y520548D01*
X357350Y520488D01*
X357303Y520425D01*
X357260Y520361D01*
X357220Y520294D01*
X357183Y520225D01*
X357150Y520154D01*
X357120Y520082D01*
X357094Y520009D01*
X359373Y518936D02*
X359422Y518985D01*
X359469Y519037D01*
X359512Y519092D01*
X359553Y519149D01*
X359591Y519208D01*
X359625Y519269D01*
X359656Y519332D01*
X359684Y519396D01*
X359708Y519462D01*
X359728Y519528D01*
X359745Y519596D01*
X359758Y519665D01*
X359767Y519734D01*
X359773Y519804D01*
X359775Y519874D01*
X359373Y518936D02*
X357094Y516255D01*
X359775Y516255D01*
M02*
