G04 EAGLE Gerber RS-274X export*
G75*
%MOMM*%
%FSLAX34Y34*%
%LPD*%
%INTop Copper*%
%IPPOS*%
%AMOC8*
5,1,8,0,0,1.08239X$1,22.5*%
G01*
%ADD10C,1.473200*%
%ADD11P,1.594577X8X202.500000*%
%ADD12P,3.409096X8X112.500000*%
%ADD13C,1.625600*%
%ADD14C,1.473200*%
%ADD15C,1.676400*%
%ADD16P,1.594577X8X112.500000*%
%ADD17C,1.879600*%
%ADD18C,3.000000*%
%ADD19C,6.350000*%
%ADD20P,1.594577X8X292.500000*%
%ADD21P,1.594577X8X22.500000*%
%ADD22C,2.705100*%
%ADD23C,0.508000*%
%ADD24C,0.152400*%

G36*
X723735Y10164D02*
X723735Y10164D01*
X723769Y10162D01*
X723958Y10184D01*
X724149Y10201D01*
X724182Y10210D01*
X724216Y10214D01*
X724399Y10269D01*
X724583Y10319D01*
X724614Y10334D01*
X724647Y10344D01*
X724818Y10431D01*
X724990Y10513D01*
X725018Y10533D01*
X725049Y10548D01*
X725201Y10664D01*
X725356Y10775D01*
X725380Y10800D01*
X725407Y10820D01*
X725536Y10960D01*
X725670Y11097D01*
X725689Y11126D01*
X725713Y11152D01*
X725815Y11313D01*
X725922Y11470D01*
X725936Y11502D01*
X725954Y11531D01*
X726027Y11708D01*
X726104Y11882D01*
X726112Y11916D01*
X726125Y11948D01*
X726165Y12135D01*
X726211Y12320D01*
X726213Y12354D01*
X726220Y12388D01*
X726239Y12700D01*
X726239Y41261D01*
X726228Y41390D01*
X726226Y41520D01*
X726208Y41614D01*
X726199Y41709D01*
X726165Y41835D01*
X726140Y41962D01*
X726106Y42051D01*
X726081Y42143D01*
X726025Y42261D01*
X725978Y42382D01*
X725928Y42464D01*
X725887Y42550D01*
X725812Y42656D01*
X725744Y42767D01*
X725681Y42838D01*
X725625Y42916D01*
X725532Y43007D01*
X725446Y43104D01*
X725371Y43163D01*
X725303Y43230D01*
X725195Y43303D01*
X725093Y43384D01*
X725009Y43429D01*
X724930Y43482D01*
X724811Y43535D01*
X724696Y43596D01*
X724605Y43626D01*
X724518Y43665D01*
X724391Y43695D01*
X724268Y43736D01*
X724173Y43749D01*
X724080Y43771D01*
X723951Y43779D01*
X723822Y43797D01*
X723726Y43793D01*
X723631Y43799D01*
X723502Y43784D01*
X723372Y43779D01*
X723279Y43758D01*
X723184Y43747D01*
X723059Y43709D01*
X722932Y43681D01*
X722844Y43644D01*
X722753Y43617D01*
X722637Y43557D01*
X722517Y43507D01*
X722437Y43456D01*
X722351Y43412D01*
X722248Y43334D01*
X722139Y43263D01*
X722041Y43177D01*
X721993Y43140D01*
X721962Y43107D01*
X721904Y43056D01*
X713502Y34654D01*
X712009Y34035D01*
X238160Y34035D01*
X237997Y34021D01*
X237832Y34014D01*
X237773Y34001D01*
X237712Y33995D01*
X237553Y33952D01*
X237393Y33916D01*
X237336Y33893D01*
X237278Y33877D01*
X237129Y33806D01*
X236977Y33743D01*
X236926Y33710D01*
X236871Y33683D01*
X236737Y33588D01*
X236599Y33498D01*
X236541Y33447D01*
X236505Y33421D01*
X236462Y33378D01*
X236365Y33292D01*
X233636Y30563D01*
X230368Y29209D01*
X226832Y29209D01*
X223564Y30563D01*
X221063Y33064D01*
X219709Y36332D01*
X219709Y39868D01*
X221063Y43136D01*
X223564Y45637D01*
X226832Y46991D01*
X230368Y46991D01*
X233636Y45637D01*
X236365Y42908D01*
X236491Y42803D01*
X236612Y42691D01*
X236664Y42659D01*
X236710Y42620D01*
X236853Y42538D01*
X236992Y42450D01*
X237048Y42426D01*
X237101Y42396D01*
X237256Y42341D01*
X237408Y42279D01*
X237468Y42266D01*
X237526Y42245D01*
X237688Y42219D01*
X237849Y42184D01*
X237926Y42179D01*
X237970Y42172D01*
X238030Y42173D01*
X238160Y42165D01*
X280595Y42165D01*
X280724Y42176D01*
X280854Y42178D01*
X280948Y42196D01*
X281043Y42205D01*
X281169Y42239D01*
X281296Y42264D01*
X281386Y42298D01*
X281478Y42323D01*
X281595Y42379D01*
X281716Y42426D01*
X281798Y42476D01*
X281884Y42517D01*
X281990Y42592D01*
X282101Y42660D01*
X282173Y42723D01*
X282250Y42779D01*
X282341Y42872D01*
X282438Y42958D01*
X282498Y43033D01*
X282564Y43101D01*
X282637Y43209D01*
X282718Y43311D01*
X282763Y43395D01*
X282816Y43474D01*
X282869Y43593D01*
X282931Y43708D01*
X282960Y43799D01*
X282999Y43886D01*
X283030Y44013D01*
X283070Y44136D01*
X283083Y44231D01*
X283105Y44324D01*
X283113Y44453D01*
X283131Y44582D01*
X283127Y44678D01*
X283133Y44773D01*
X283118Y44902D01*
X283113Y45032D01*
X283092Y45125D01*
X283081Y45220D01*
X283043Y45345D01*
X283015Y45472D01*
X282978Y45560D01*
X282951Y45651D01*
X282892Y45767D01*
X282842Y45887D01*
X282790Y45967D01*
X282746Y46053D01*
X282668Y46156D01*
X282597Y46265D01*
X282511Y46363D01*
X282474Y46411D01*
X282441Y46442D01*
X282390Y46500D01*
X282193Y46697D01*
X282193Y48261D01*
X292100Y48261D01*
X302007Y48261D01*
X302007Y46697D01*
X301810Y46500D01*
X301726Y46400D01*
X301636Y46307D01*
X301582Y46227D01*
X301521Y46154D01*
X301456Y46041D01*
X301384Y45934D01*
X301345Y45846D01*
X301297Y45763D01*
X301254Y45641D01*
X301201Y45522D01*
X301179Y45429D01*
X301147Y45339D01*
X301125Y45211D01*
X301095Y45084D01*
X301089Y44989D01*
X301073Y44895D01*
X301075Y44765D01*
X301067Y44635D01*
X301078Y44540D01*
X301079Y44445D01*
X301104Y44317D01*
X301119Y44188D01*
X301147Y44096D01*
X301165Y44002D01*
X301212Y43881D01*
X301249Y43757D01*
X301293Y43671D01*
X301327Y43582D01*
X301395Y43471D01*
X301454Y43355D01*
X301511Y43279D01*
X301561Y43198D01*
X301647Y43100D01*
X301726Y42997D01*
X301796Y42932D01*
X301859Y42860D01*
X301961Y42780D01*
X302057Y42691D01*
X302137Y42640D01*
X302212Y42581D01*
X302327Y42519D01*
X302437Y42450D01*
X302525Y42413D01*
X302609Y42368D01*
X302733Y42328D01*
X302853Y42279D01*
X302947Y42259D01*
X303037Y42229D01*
X303166Y42211D01*
X303293Y42184D01*
X303423Y42176D01*
X303483Y42168D01*
X303528Y42169D01*
X303605Y42165D01*
X333053Y42165D01*
X333136Y42172D01*
X333218Y42170D01*
X333359Y42192D01*
X333502Y42205D01*
X333582Y42226D01*
X333663Y42239D01*
X333798Y42285D01*
X333936Y42323D01*
X334011Y42359D01*
X334089Y42385D01*
X334214Y42455D01*
X334343Y42517D01*
X334410Y42564D01*
X334482Y42605D01*
X334593Y42695D01*
X334709Y42779D01*
X334766Y42838D01*
X334830Y42890D01*
X334923Y42999D01*
X335023Y43101D01*
X335069Y43170D01*
X335123Y43232D01*
X335195Y43356D01*
X335275Y43474D01*
X335308Y43550D01*
X335350Y43621D01*
X335399Y43755D01*
X335457Y43886D01*
X335477Y43966D01*
X335505Y44044D01*
X335530Y44185D01*
X335564Y44324D01*
X335569Y44406D01*
X335583Y44487D01*
X335583Y44630D01*
X335592Y44773D01*
X335582Y44855D01*
X335582Y44937D01*
X335556Y45078D01*
X335540Y45220D01*
X335516Y45299D01*
X335501Y45380D01*
X335421Y45613D01*
X335409Y45651D01*
X335404Y45661D01*
X335399Y45676D01*
X334009Y49032D01*
X334009Y52568D01*
X335363Y55836D01*
X337864Y58337D01*
X341132Y59691D01*
X344668Y59691D01*
X347936Y58337D01*
X350437Y55836D01*
X350506Y55670D01*
X350604Y55483D01*
X350700Y55293D01*
X350708Y55283D01*
X350714Y55271D01*
X350844Y55104D01*
X350972Y54935D01*
X350982Y54926D01*
X350990Y54915D01*
X351147Y54773D01*
X351303Y54629D01*
X351315Y54622D01*
X351324Y54614D01*
X351504Y54502D01*
X351683Y54388D01*
X351695Y54383D01*
X351707Y54376D01*
X351904Y54297D01*
X352100Y54217D01*
X352113Y54214D01*
X352125Y54209D01*
X352333Y54166D01*
X352540Y54122D01*
X352556Y54121D01*
X352566Y54119D01*
X352606Y54118D01*
X352852Y54103D01*
X359510Y54103D01*
X359613Y54112D01*
X359717Y54111D01*
X359837Y54132D01*
X359958Y54143D01*
X360059Y54170D01*
X360161Y54188D01*
X360275Y54229D01*
X360392Y54261D01*
X360486Y54306D01*
X360584Y54341D01*
X360690Y54402D01*
X360799Y54455D01*
X360884Y54515D01*
X360974Y54567D01*
X361066Y54646D01*
X361165Y54717D01*
X361238Y54791D01*
X361317Y54859D01*
X361394Y54952D01*
X361479Y55039D01*
X361537Y55126D01*
X361604Y55206D01*
X361663Y55312D01*
X361731Y55412D01*
X361773Y55508D01*
X361824Y55598D01*
X361864Y55713D01*
X361914Y55824D01*
X361938Y55925D01*
X361972Y56024D01*
X361991Y56144D01*
X362020Y56262D01*
X362027Y56365D01*
X362043Y56468D01*
X362040Y56590D01*
X362048Y56711D01*
X362036Y56814D01*
X362034Y56919D01*
X362010Y57038D01*
X361996Y57158D01*
X361966Y57258D01*
X361945Y57360D01*
X361901Y57473D01*
X361866Y57589D01*
X361818Y57682D01*
X361780Y57779D01*
X361716Y57882D01*
X361661Y57991D01*
X361598Y58074D01*
X361544Y58162D01*
X361463Y58252D01*
X361389Y58349D01*
X361313Y58420D01*
X361243Y58497D01*
X361103Y58613D01*
X361058Y58654D01*
X361035Y58669D01*
X361002Y58696D01*
X359914Y59487D01*
X358699Y60702D01*
X357688Y62093D01*
X356908Y63625D01*
X356376Y65260D01*
X356107Y66958D01*
X356107Y73661D01*
X367030Y73661D01*
X377953Y73661D01*
X377953Y66958D01*
X377684Y65260D01*
X377152Y63625D01*
X376372Y62093D01*
X375361Y60702D01*
X374146Y59487D01*
X373058Y58696D01*
X372979Y58628D01*
X372895Y58567D01*
X372810Y58480D01*
X372719Y58400D01*
X372653Y58319D01*
X372581Y58245D01*
X372513Y58144D01*
X372437Y58049D01*
X372387Y57958D01*
X372329Y57872D01*
X372280Y57761D01*
X372221Y57654D01*
X372189Y57555D01*
X372146Y57460D01*
X372118Y57342D01*
X372079Y57226D01*
X372064Y57123D01*
X372040Y57022D01*
X372032Y56901D01*
X372015Y56781D01*
X372019Y56677D01*
X372012Y56573D01*
X372026Y56452D01*
X372030Y56331D01*
X372052Y56229D01*
X372064Y56126D01*
X372099Y56009D01*
X372125Y55891D01*
X372164Y55794D01*
X372194Y55695D01*
X372250Y55586D01*
X372296Y55474D01*
X372352Y55386D01*
X372399Y55293D01*
X372472Y55197D01*
X372537Y55094D01*
X372608Y55018D01*
X372671Y54935D01*
X372760Y54852D01*
X372843Y54763D01*
X372925Y54700D01*
X373002Y54629D01*
X373105Y54564D01*
X373201Y54491D01*
X373294Y54444D01*
X373382Y54388D01*
X373494Y54341D01*
X373602Y54286D01*
X373702Y54256D01*
X373798Y54217D01*
X373917Y54191D01*
X374033Y54156D01*
X374137Y54144D01*
X374239Y54122D01*
X374420Y54111D01*
X374481Y54104D01*
X374508Y54105D01*
X374550Y54103D01*
X389428Y54103D01*
X389605Y54118D01*
X389783Y54128D01*
X389829Y54138D01*
X389877Y54143D01*
X390048Y54189D01*
X390221Y54230D01*
X390265Y54249D01*
X390311Y54261D01*
X390471Y54337D01*
X390635Y54408D01*
X390675Y54434D01*
X390718Y54455D01*
X390862Y54558D01*
X391011Y54656D01*
X391045Y54689D01*
X391084Y54717D01*
X391208Y54844D01*
X391336Y54967D01*
X391365Y55005D01*
X391398Y55039D01*
X391498Y55187D01*
X391602Y55330D01*
X391623Y55373D01*
X391650Y55412D01*
X391722Y55575D01*
X391800Y55734D01*
X391813Y55780D01*
X391832Y55824D01*
X391875Y55997D01*
X391923Y56168D01*
X391928Y56215D01*
X391939Y56262D01*
X391950Y56439D01*
X391968Y56616D01*
X391964Y56663D01*
X391967Y56711D01*
X391946Y56888D01*
X391932Y57065D01*
X391920Y57111D01*
X391915Y57158D01*
X391863Y57329D01*
X391818Y57500D01*
X391798Y57543D01*
X391784Y57589D01*
X391704Y57748D01*
X391629Y57909D01*
X391602Y57948D01*
X391580Y57991D01*
X391473Y58132D01*
X391371Y58278D01*
X391337Y58311D01*
X391308Y58349D01*
X391177Y58470D01*
X391051Y58595D01*
X391012Y58622D01*
X390977Y58654D01*
X390827Y58750D01*
X390681Y58851D01*
X390628Y58877D01*
X390597Y58896D01*
X390539Y58920D01*
X390400Y58988D01*
X389358Y59419D01*
X386571Y62206D01*
X385063Y65847D01*
X385063Y86553D01*
X386571Y90194D01*
X389358Y92981D01*
X391093Y93699D01*
X391208Y93759D01*
X391327Y93810D01*
X391407Y93863D01*
X391492Y93907D01*
X391594Y93987D01*
X391703Y94059D01*
X391772Y94125D01*
X391848Y94183D01*
X391935Y94280D01*
X392029Y94369D01*
X392085Y94446D01*
X392149Y94517D01*
X392218Y94628D01*
X392295Y94733D01*
X392337Y94819D01*
X392387Y94900D01*
X392435Y95020D01*
X392492Y95137D01*
X392518Y95229D01*
X392554Y95318D01*
X392580Y95446D01*
X392615Y95570D01*
X392625Y95665D01*
X392644Y95759D01*
X392647Y95889D01*
X392660Y96018D01*
X392652Y96114D01*
X392655Y96209D01*
X392635Y96338D01*
X392625Y96467D01*
X392601Y96560D01*
X392586Y96654D01*
X392543Y96777D01*
X392511Y96903D01*
X392471Y96990D01*
X392439Y97080D01*
X392376Y97194D01*
X392322Y97312D01*
X392267Y97390D01*
X392220Y97473D01*
X392138Y97574D01*
X392063Y97680D01*
X391995Y97748D01*
X391935Y97822D01*
X391836Y97906D01*
X391744Y97998D01*
X391665Y98052D01*
X391593Y98114D01*
X391481Y98180D01*
X391373Y98254D01*
X391256Y98311D01*
X391204Y98341D01*
X391162Y98357D01*
X391093Y98391D01*
X388664Y99397D01*
X386163Y101898D01*
X384809Y105166D01*
X384809Y123434D01*
X386163Y126702D01*
X388664Y129203D01*
X391932Y130557D01*
X395468Y130557D01*
X398736Y129203D01*
X401237Y126702D01*
X402591Y123434D01*
X402591Y105166D01*
X401237Y101898D01*
X398736Y99397D01*
X397577Y98917D01*
X397462Y98857D01*
X397343Y98805D01*
X397263Y98753D01*
X397178Y98708D01*
X397076Y98629D01*
X396967Y98557D01*
X396898Y98491D01*
X396822Y98433D01*
X396735Y98336D01*
X396641Y98246D01*
X396585Y98169D01*
X396521Y98098D01*
X396452Y97988D01*
X396375Y97883D01*
X396333Y97797D01*
X396283Y97716D01*
X396235Y97595D01*
X396178Y97478D01*
X396152Y97387D01*
X396116Y97298D01*
X396090Y97170D01*
X396055Y97045D01*
X396045Y96950D01*
X396026Y96857D01*
X396023Y96727D01*
X396010Y96597D01*
X396018Y96502D01*
X396015Y96406D01*
X396035Y96278D01*
X396045Y96148D01*
X396070Y96056D01*
X396084Y95961D01*
X396126Y95839D01*
X396159Y95713D01*
X396199Y95626D01*
X396231Y95536D01*
X396294Y95422D01*
X396348Y95304D01*
X396403Y95226D01*
X396450Y95142D01*
X396532Y95042D01*
X396607Y94935D01*
X396675Y94868D01*
X396735Y94794D01*
X396834Y94710D01*
X396926Y94618D01*
X397005Y94564D01*
X397077Y94502D01*
X397190Y94436D01*
X397297Y94362D01*
X397414Y94305D01*
X397466Y94274D01*
X397508Y94259D01*
X397577Y94225D01*
X400153Y93158D01*
X400265Y93123D01*
X400373Y93079D01*
X400479Y93056D01*
X400583Y93023D01*
X400699Y93009D01*
X400813Y92984D01*
X400967Y92974D01*
X401030Y92967D01*
X401066Y92968D01*
X401125Y92965D01*
X429065Y92965D01*
X429228Y92979D01*
X429393Y92986D01*
X429452Y92999D01*
X429513Y93005D01*
X429672Y93048D01*
X429832Y93084D01*
X429889Y93107D01*
X429947Y93123D01*
X430096Y93194D01*
X430248Y93257D01*
X430299Y93290D01*
X430354Y93317D01*
X430488Y93412D01*
X430626Y93502D01*
X430684Y93553D01*
X430720Y93579D01*
X430763Y93622D01*
X430860Y93708D01*
X436374Y99223D01*
X436511Y99386D01*
X436648Y99546D01*
X436655Y99558D01*
X436663Y99568D01*
X436769Y99753D01*
X436875Y99935D01*
X436880Y99947D01*
X436886Y99959D01*
X436957Y100158D01*
X437031Y100358D01*
X437033Y100371D01*
X437037Y100383D01*
X437072Y100593D01*
X437109Y100801D01*
X437109Y100814D01*
X437111Y100827D01*
X437108Y101040D01*
X437107Y101251D01*
X437105Y101264D01*
X437105Y101278D01*
X437064Y101487D01*
X437026Y101694D01*
X437021Y101709D01*
X437019Y101720D01*
X437005Y101757D01*
X436925Y101990D01*
X435609Y105166D01*
X435609Y123434D01*
X436963Y126702D01*
X439464Y129203D01*
X442732Y130557D01*
X446268Y130557D01*
X449536Y129203D01*
X452037Y126702D01*
X453391Y123434D01*
X453391Y105166D01*
X452037Y101898D01*
X449536Y99397D01*
X447458Y98536D01*
X447354Y98482D01*
X447246Y98437D01*
X447155Y98378D01*
X447058Y98327D01*
X446966Y98256D01*
X446868Y98192D01*
X446752Y98090D01*
X446702Y98052D01*
X446678Y98025D01*
X446634Y97985D01*
X434102Y85454D01*
X432609Y84835D01*
X407416Y84835D01*
X407381Y84832D01*
X407347Y84834D01*
X407158Y84812D01*
X406967Y84795D01*
X406934Y84786D01*
X406900Y84782D01*
X406717Y84727D01*
X406533Y84677D01*
X406502Y84662D01*
X406469Y84652D01*
X406298Y84565D01*
X406126Y84483D01*
X406098Y84463D01*
X406067Y84448D01*
X405915Y84332D01*
X405760Y84221D01*
X405736Y84196D01*
X405709Y84176D01*
X405580Y84036D01*
X405446Y83899D01*
X405427Y83870D01*
X405403Y83844D01*
X405301Y83683D01*
X405194Y83526D01*
X405180Y83494D01*
X405162Y83465D01*
X405089Y83288D01*
X405012Y83114D01*
X405004Y83080D01*
X404991Y83048D01*
X404951Y82861D01*
X404905Y82676D01*
X404903Y82642D01*
X404896Y82608D01*
X404877Y82296D01*
X404877Y65847D01*
X403369Y62206D01*
X400582Y59419D01*
X399540Y58988D01*
X399382Y58906D01*
X399222Y58829D01*
X399183Y58802D01*
X399141Y58779D01*
X399000Y58671D01*
X398856Y58567D01*
X398823Y58533D01*
X398785Y58504D01*
X398666Y58372D01*
X398542Y58245D01*
X398515Y58205D01*
X398483Y58169D01*
X398389Y58019D01*
X398290Y57872D01*
X398271Y57828D01*
X398245Y57787D01*
X398180Y57622D01*
X398108Y57460D01*
X398096Y57413D01*
X398079Y57369D01*
X398043Y57195D01*
X398001Y57022D01*
X397998Y56975D01*
X397988Y56928D01*
X397984Y56750D01*
X397973Y56573D01*
X397979Y56525D01*
X397978Y56478D01*
X398005Y56302D01*
X398025Y56126D01*
X398039Y56080D01*
X398047Y56033D01*
X398104Y55865D01*
X398156Y55695D01*
X398177Y55652D01*
X398193Y55607D01*
X398279Y55452D01*
X398360Y55293D01*
X398389Y55255D01*
X398412Y55214D01*
X398525Y55076D01*
X398632Y54935D01*
X398667Y54902D01*
X398697Y54865D01*
X398832Y54750D01*
X398963Y54629D01*
X399004Y54604D01*
X399040Y54573D01*
X399193Y54483D01*
X399343Y54388D01*
X399387Y54369D01*
X399428Y54345D01*
X399595Y54284D01*
X399759Y54217D01*
X399806Y54207D01*
X399851Y54190D01*
X400026Y54159D01*
X400200Y54122D01*
X400259Y54118D01*
X400295Y54112D01*
X400358Y54112D01*
X400512Y54103D01*
X542603Y54103D01*
X542766Y54117D01*
X542931Y54124D01*
X542990Y54137D01*
X543051Y54143D01*
X543210Y54186D01*
X543370Y54222D01*
X543427Y54245D01*
X543485Y54261D01*
X543634Y54332D01*
X543786Y54395D01*
X543837Y54428D01*
X543892Y54455D01*
X544025Y54550D01*
X544164Y54640D01*
X544222Y54691D01*
X544258Y54717D01*
X544301Y54760D01*
X544398Y54846D01*
X566692Y77140D01*
X566797Y77266D01*
X566909Y77387D01*
X566941Y77438D01*
X566980Y77485D01*
X567062Y77628D01*
X567150Y77767D01*
X567174Y77823D01*
X567204Y77876D01*
X567259Y78031D01*
X567321Y78183D01*
X567334Y78243D01*
X567355Y78301D01*
X567381Y78463D01*
X567416Y78624D01*
X567421Y78700D01*
X567428Y78745D01*
X567427Y78806D01*
X567435Y78935D01*
X567435Y115109D01*
X568054Y116602D01*
X589430Y137979D01*
X589453Y138005D01*
X589479Y138028D01*
X589597Y138178D01*
X589719Y138324D01*
X589737Y138354D01*
X589758Y138381D01*
X589848Y138550D01*
X589943Y138715D01*
X589954Y138748D01*
X589971Y138778D01*
X590030Y138960D01*
X590094Y139139D01*
X590099Y139174D01*
X590110Y139207D01*
X590136Y139396D01*
X590167Y139584D01*
X590167Y139618D01*
X590171Y139653D01*
X590163Y139843D01*
X590161Y140034D01*
X590154Y140068D01*
X590153Y140102D01*
X590112Y140289D01*
X590075Y140476D01*
X590063Y140508D01*
X590055Y140542D01*
X589982Y140718D01*
X589913Y140896D01*
X589895Y140926D01*
X589882Y140957D01*
X589778Y141118D01*
X589679Y141281D01*
X589656Y141307D01*
X589637Y141336D01*
X589430Y141570D01*
X587951Y143049D01*
X585660Y148581D01*
X585660Y181619D01*
X587951Y187151D01*
X592185Y191384D01*
X597716Y193676D01*
X603704Y193676D01*
X609235Y191384D01*
X613469Y187151D01*
X615760Y181619D01*
X615760Y148581D01*
X613469Y143049D01*
X609235Y138816D01*
X603704Y136524D01*
X600524Y136524D01*
X600361Y136510D01*
X600196Y136503D01*
X600137Y136490D01*
X600076Y136484D01*
X599917Y136441D01*
X599757Y136405D01*
X599700Y136382D01*
X599642Y136366D01*
X599493Y136295D01*
X599341Y136232D01*
X599290Y136199D01*
X599235Y136172D01*
X599101Y136077D01*
X598963Y135987D01*
X598905Y135936D01*
X598869Y135910D01*
X598826Y135867D01*
X598729Y135781D01*
X576308Y113360D01*
X576203Y113234D01*
X576091Y113113D01*
X576059Y113062D01*
X576020Y113015D01*
X575938Y112872D01*
X575850Y112733D01*
X575826Y112677D01*
X575796Y112624D01*
X575741Y112469D01*
X575679Y112317D01*
X575666Y112257D01*
X575645Y112199D01*
X575619Y112037D01*
X575584Y111876D01*
X575579Y111800D01*
X575572Y111755D01*
X575573Y111694D01*
X575565Y111565D01*
X575565Y75391D01*
X574946Y73898D01*
X573445Y72397D01*
X547548Y46500D01*
X547464Y46400D01*
X547374Y46307D01*
X547320Y46227D01*
X547259Y46154D01*
X547194Y46041D01*
X547122Y45934D01*
X547083Y45846D01*
X547036Y45763D01*
X546992Y45641D01*
X546939Y45522D01*
X546917Y45429D01*
X546885Y45339D01*
X546864Y45210D01*
X546833Y45084D01*
X546827Y44989D01*
X546811Y44895D01*
X546813Y44764D01*
X546805Y44635D01*
X546816Y44540D01*
X546817Y44444D01*
X546842Y44317D01*
X546857Y44188D01*
X546885Y44096D01*
X546903Y44002D01*
X546950Y43881D01*
X546987Y43757D01*
X547031Y43672D01*
X547065Y43582D01*
X547133Y43471D01*
X547192Y43355D01*
X547249Y43279D01*
X547299Y43198D01*
X547385Y43100D01*
X547464Y42997D01*
X547534Y42932D01*
X547597Y42860D01*
X547699Y42780D01*
X547795Y42691D01*
X547876Y42640D01*
X547950Y42581D01*
X548065Y42520D01*
X548175Y42450D01*
X548263Y42413D01*
X548347Y42368D01*
X548471Y42328D01*
X548591Y42279D01*
X548685Y42259D01*
X548776Y42229D01*
X548904Y42211D01*
X549031Y42184D01*
X549161Y42176D01*
X549222Y42168D01*
X549266Y42169D01*
X549343Y42165D01*
X708465Y42165D01*
X708628Y42179D01*
X708793Y42186D01*
X708852Y42199D01*
X708913Y42205D01*
X709072Y42248D01*
X709232Y42284D01*
X709289Y42307D01*
X709347Y42323D01*
X709496Y42394D01*
X709648Y42457D01*
X709699Y42490D01*
X709754Y42517D01*
X709888Y42612D01*
X710026Y42702D01*
X710084Y42753D01*
X710120Y42779D01*
X710163Y42822D01*
X710260Y42908D01*
X718892Y51540D01*
X718976Y51641D01*
X719058Y51725D01*
X719076Y51752D01*
X719109Y51787D01*
X719141Y51838D01*
X719180Y51885D01*
X719258Y52021D01*
X719310Y52098D01*
X719318Y52116D01*
X719350Y52167D01*
X719374Y52223D01*
X719404Y52276D01*
X719459Y52431D01*
X719476Y52473D01*
X719493Y52510D01*
X719494Y52517D01*
X719521Y52583D01*
X719534Y52643D01*
X719555Y52701D01*
X719581Y52863D01*
X719616Y53024D01*
X719621Y53100D01*
X719628Y53145D01*
X719627Y53206D01*
X719635Y53335D01*
X719635Y133355D01*
X719621Y133518D01*
X719614Y133683D01*
X719601Y133742D01*
X719595Y133803D01*
X719552Y133962D01*
X719516Y134122D01*
X719493Y134179D01*
X719477Y134237D01*
X719406Y134386D01*
X719343Y134538D01*
X719310Y134589D01*
X719283Y134644D01*
X719188Y134778D01*
X719098Y134916D01*
X719047Y134974D01*
X719021Y135010D01*
X718978Y135053D01*
X718892Y135150D01*
X711016Y143025D01*
X710990Y143048D01*
X710967Y143074D01*
X710817Y143192D01*
X710671Y143314D01*
X710641Y143332D01*
X710614Y143353D01*
X710446Y143443D01*
X710280Y143538D01*
X710247Y143549D01*
X710217Y143566D01*
X710035Y143625D01*
X709856Y143689D01*
X709821Y143694D01*
X709788Y143705D01*
X709600Y143731D01*
X709411Y143762D01*
X709377Y143762D01*
X709342Y143766D01*
X709152Y143758D01*
X708961Y143756D01*
X708927Y143749D01*
X708893Y143748D01*
X708707Y143707D01*
X708519Y143670D01*
X708487Y143658D01*
X708453Y143650D01*
X708277Y143577D01*
X708099Y143508D01*
X708069Y143490D01*
X708038Y143477D01*
X707878Y143373D01*
X707714Y143274D01*
X707688Y143251D01*
X707659Y143232D01*
X707425Y143025D01*
X703215Y138816D01*
X697684Y136524D01*
X691696Y136524D01*
X686165Y138816D01*
X681931Y143049D01*
X679640Y148581D01*
X679640Y181619D01*
X681931Y187151D01*
X686165Y191384D01*
X691696Y193676D01*
X697684Y193676D01*
X703215Y191384D01*
X707449Y187151D01*
X709740Y181619D01*
X709740Y156850D01*
X709755Y156686D01*
X709762Y156522D01*
X709775Y156462D01*
X709780Y156401D01*
X709823Y156243D01*
X709859Y156082D01*
X709883Y156026D01*
X709899Y155967D01*
X709969Y155819D01*
X710033Y155667D01*
X710066Y155615D01*
X710092Y155560D01*
X710188Y155427D01*
X710277Y155289D01*
X710328Y155231D01*
X710354Y155194D01*
X710398Y155152D01*
X710484Y155054D01*
X721904Y143634D01*
X722004Y143550D01*
X722097Y143460D01*
X722177Y143406D01*
X722250Y143345D01*
X722363Y143280D01*
X722470Y143208D01*
X722558Y143169D01*
X722641Y143122D01*
X722763Y143078D01*
X722882Y143025D01*
X722975Y143003D01*
X723065Y142971D01*
X723194Y142950D01*
X723320Y142919D01*
X723415Y142913D01*
X723509Y142897D01*
X723640Y142899D01*
X723769Y142891D01*
X723864Y142902D01*
X723960Y142903D01*
X724087Y142928D01*
X724216Y142943D01*
X724308Y142971D01*
X724402Y142989D01*
X724523Y143036D01*
X724647Y143073D01*
X724732Y143117D01*
X724822Y143151D01*
X724933Y143219D01*
X725049Y143278D01*
X725125Y143335D01*
X725206Y143385D01*
X725304Y143471D01*
X725407Y143550D01*
X725472Y143620D01*
X725544Y143683D01*
X725624Y143785D01*
X725713Y143881D01*
X725764Y143962D01*
X725823Y144036D01*
X725884Y144151D01*
X725954Y144261D01*
X725991Y144349D01*
X726036Y144433D01*
X726076Y144557D01*
X726125Y144677D01*
X726145Y144771D01*
X726175Y144862D01*
X726193Y144990D01*
X726220Y145117D01*
X726228Y145247D01*
X726236Y145308D01*
X726235Y145352D01*
X726239Y145429D01*
X726239Y295261D01*
X726228Y295390D01*
X726226Y295520D01*
X726208Y295614D01*
X726199Y295709D01*
X726165Y295835D01*
X726140Y295962D01*
X726106Y296051D01*
X726081Y296143D01*
X726025Y296261D01*
X725978Y296382D01*
X725928Y296464D01*
X725887Y296550D01*
X725812Y296656D01*
X725744Y296767D01*
X725681Y296838D01*
X725625Y296916D01*
X725532Y297007D01*
X725446Y297104D01*
X725371Y297163D01*
X725303Y297230D01*
X725195Y297303D01*
X725093Y297384D01*
X725009Y297429D01*
X724930Y297482D01*
X724811Y297535D01*
X724696Y297596D01*
X724605Y297626D01*
X724518Y297665D01*
X724391Y297695D01*
X724268Y297736D01*
X724173Y297749D01*
X724080Y297771D01*
X723951Y297779D01*
X723822Y297797D01*
X723726Y297793D01*
X723631Y297799D01*
X723502Y297784D01*
X723372Y297779D01*
X723279Y297758D01*
X723184Y297747D01*
X723059Y297709D01*
X722932Y297681D01*
X722844Y297644D01*
X722753Y297617D01*
X722637Y297557D01*
X722517Y297507D01*
X722437Y297456D01*
X722351Y297412D01*
X722248Y297334D01*
X722139Y297263D01*
X722041Y297177D01*
X721993Y297140D01*
X721962Y297107D01*
X721904Y297056D01*
X713502Y288654D01*
X712009Y288035D01*
X705800Y288035D01*
X705624Y288020D01*
X705448Y288011D01*
X705401Y288000D01*
X705352Y287995D01*
X705181Y287949D01*
X705010Y287909D01*
X704965Y287890D01*
X704917Y287877D01*
X704758Y287801D01*
X704596Y287732D01*
X704555Y287704D01*
X704511Y287683D01*
X704367Y287581D01*
X704220Y287484D01*
X704185Y287450D01*
X704145Y287421D01*
X704021Y287295D01*
X703894Y287173D01*
X703857Y287125D01*
X703831Y287099D01*
X703795Y287046D01*
X703702Y286926D01*
X701823Y284171D01*
X701789Y284109D01*
X701747Y284053D01*
X701679Y283913D01*
X701604Y283778D01*
X701581Y283711D01*
X701550Y283648D01*
X701507Y283499D01*
X701457Y283352D01*
X701446Y283283D01*
X701427Y283215D01*
X701411Y283060D01*
X701388Y282907D01*
X701389Y282837D01*
X701382Y282767D01*
X701394Y282612D01*
X701398Y282457D01*
X701412Y282388D01*
X701418Y282318D01*
X701457Y282168D01*
X701488Y282016D01*
X701514Y281950D01*
X701532Y281882D01*
X701597Y281741D01*
X701654Y281597D01*
X701691Y281538D01*
X701721Y281474D01*
X701810Y281346D01*
X701891Y281215D01*
X701939Y281163D01*
X701979Y281105D01*
X702089Y280995D01*
X702193Y280880D01*
X702248Y280837D01*
X702298Y280787D01*
X702426Y280699D01*
X702549Y280604D01*
X702611Y280572D01*
X702669Y280532D01*
X702943Y280398D01*
X702947Y280395D01*
X702948Y280395D01*
X702950Y280394D01*
X703215Y280284D01*
X707449Y276051D01*
X709740Y270519D01*
X709740Y237481D01*
X707449Y231949D01*
X703215Y227716D01*
X697684Y225424D01*
X691696Y225424D01*
X686165Y227716D01*
X681931Y231949D01*
X679640Y237481D01*
X679640Y270519D01*
X681931Y276051D01*
X686165Y280284D01*
X689853Y281812D01*
X689999Y281889D01*
X690148Y281958D01*
X690198Y281993D01*
X690252Y282021D01*
X690382Y282122D01*
X690517Y282216D01*
X690560Y282259D01*
X690608Y282297D01*
X690719Y282419D01*
X690835Y282535D01*
X690869Y282585D01*
X690910Y282631D01*
X690997Y282770D01*
X691090Y282906D01*
X691124Y282975D01*
X691148Y283013D01*
X691170Y283070D01*
X691228Y283187D01*
X691244Y283226D01*
X691378Y283360D01*
X691430Y283423D01*
X691489Y283479D01*
X691643Y283677D01*
X691667Y283706D01*
X691672Y283714D01*
X691680Y283725D01*
X698568Y293827D01*
X698619Y293918D01*
X698678Y294005D01*
X698757Y294166D01*
X698787Y294220D01*
X698796Y294246D01*
X698816Y294285D01*
X698864Y294402D01*
X698998Y294536D01*
X699050Y294599D01*
X699109Y294655D01*
X699263Y294853D01*
X699287Y294882D01*
X699292Y294890D01*
X699300Y294901D01*
X699407Y295058D01*
X699513Y295127D01*
X699596Y295192D01*
X699684Y295249D01*
X699819Y295369D01*
X699867Y295406D01*
X699885Y295427D01*
X699918Y295456D01*
X700008Y295546D01*
X700182Y295618D01*
X700254Y295656D01*
X700330Y295685D01*
X700549Y295810D01*
X700581Y295827D01*
X700589Y295833D01*
X700602Y295840D01*
X700760Y295944D01*
X700885Y295967D01*
X700986Y295996D01*
X701089Y296015D01*
X701259Y296073D01*
X701318Y296090D01*
X701343Y296102D01*
X701384Y296116D01*
X701501Y296165D01*
X701691Y296165D01*
X701771Y296172D01*
X701853Y296170D01*
X702102Y296201D01*
X702139Y296205D01*
X702149Y296207D01*
X702163Y296209D01*
X702349Y296244D01*
X702473Y296218D01*
X702577Y296206D01*
X702680Y296184D01*
X702859Y296173D01*
X702920Y296166D01*
X702948Y296167D01*
X702992Y296165D01*
X708465Y296165D01*
X708628Y296179D01*
X708793Y296186D01*
X708852Y296199D01*
X708913Y296205D01*
X709072Y296248D01*
X709232Y296284D01*
X709289Y296307D01*
X709347Y296323D01*
X709496Y296394D01*
X709648Y296457D01*
X709699Y296490D01*
X709754Y296517D01*
X709888Y296612D01*
X710026Y296702D01*
X710084Y296753D01*
X710120Y296779D01*
X710163Y296822D01*
X710260Y296908D01*
X720670Y307318D01*
X720775Y307444D01*
X720887Y307565D01*
X720919Y307616D01*
X720958Y307663D01*
X721040Y307806D01*
X721128Y307945D01*
X721152Y308001D01*
X721182Y308054D01*
X721237Y308209D01*
X721299Y308361D01*
X721312Y308421D01*
X721333Y308479D01*
X721359Y308641D01*
X721394Y308802D01*
X721399Y308878D01*
X721406Y308923D01*
X721405Y308984D01*
X721413Y309113D01*
X721413Y326648D01*
X721409Y326701D01*
X721411Y326754D01*
X721389Y326924D01*
X721373Y327096D01*
X721359Y327148D01*
X721352Y327200D01*
X721300Y327364D01*
X721255Y327531D01*
X721232Y327579D01*
X721216Y327629D01*
X721135Y327782D01*
X721061Y327937D01*
X721031Y327980D01*
X721006Y328027D01*
X720900Y328163D01*
X720799Y328303D01*
X720761Y328340D01*
X720728Y328382D01*
X720600Y328497D01*
X720477Y328617D01*
X720433Y328647D01*
X720393Y328683D01*
X720246Y328773D01*
X720104Y328869D01*
X720055Y328891D01*
X720010Y328919D01*
X719849Y328982D01*
X719692Y329052D01*
X719640Y329064D01*
X719591Y329084D01*
X719422Y329117D01*
X719254Y329158D01*
X719201Y329162D01*
X719149Y329172D01*
X718977Y329175D01*
X718805Y329186D01*
X718752Y329180D01*
X718699Y329181D01*
X718529Y329154D01*
X718358Y329134D01*
X718307Y329118D01*
X718254Y329110D01*
X718092Y329053D01*
X717927Y329004D01*
X717879Y328979D01*
X717829Y328962D01*
X717679Y328877D01*
X717525Y328799D01*
X717483Y328767D01*
X717437Y328741D01*
X717304Y328631D01*
X717167Y328527D01*
X717131Y328488D01*
X717090Y328454D01*
X716978Y328323D01*
X716862Y328196D01*
X716833Y328151D01*
X716799Y328111D01*
X716635Y327845D01*
X715248Y325250D01*
X713376Y322448D01*
X711238Y319844D01*
X708856Y317462D01*
X706252Y315324D01*
X703450Y313452D01*
X700479Y311864D01*
X697366Y310575D01*
X694142Y309597D01*
X690879Y308948D01*
X690879Y340360D01*
X690876Y340394D01*
X690878Y340429D01*
X690856Y340618D01*
X690839Y340808D01*
X690830Y340842D01*
X690826Y340876D01*
X690771Y341059D01*
X690721Y341243D01*
X690706Y341274D01*
X690696Y341307D01*
X690609Y341478D01*
X690527Y341649D01*
X690507Y341677D01*
X690492Y341708D01*
X690376Y341860D01*
X690265Y342015D01*
X690240Y342040D01*
X690220Y342067D01*
X690079Y342196D01*
X689943Y342329D01*
X689914Y342349D01*
X689888Y342372D01*
X689727Y342475D01*
X689569Y342582D01*
X689538Y342596D01*
X689509Y342614D01*
X689332Y342687D01*
X689158Y342764D01*
X689124Y342772D01*
X689092Y342785D01*
X688905Y342825D01*
X688720Y342870D01*
X688686Y342873D01*
X688652Y342880D01*
X688340Y342899D01*
X685799Y342899D01*
X685799Y345440D01*
X685796Y345474D01*
X685798Y345509D01*
X685776Y345698D01*
X685759Y345888D01*
X685750Y345922D01*
X685746Y345956D01*
X685691Y346139D01*
X685641Y346323D01*
X685626Y346354D01*
X685616Y346387D01*
X685529Y346558D01*
X685447Y346729D01*
X685427Y346758D01*
X685411Y346788D01*
X685296Y346940D01*
X685185Y347096D01*
X685160Y347120D01*
X685139Y347147D01*
X684999Y347276D01*
X684862Y347410D01*
X684834Y347429D01*
X684808Y347452D01*
X684647Y347555D01*
X684489Y347662D01*
X684458Y347676D01*
X684429Y347694D01*
X684252Y347767D01*
X684078Y347844D01*
X684044Y347852D01*
X684012Y347865D01*
X683825Y347905D01*
X683640Y347951D01*
X683606Y347953D01*
X683572Y347960D01*
X683260Y347979D01*
X651848Y347979D01*
X652497Y351242D01*
X653475Y354466D01*
X654764Y357579D01*
X656352Y360550D01*
X658224Y363352D01*
X660362Y365956D01*
X662744Y368338D01*
X665348Y370476D01*
X665778Y370763D01*
X665898Y370859D01*
X666023Y370949D01*
X666073Y371000D01*
X666129Y371045D01*
X666229Y371161D01*
X666337Y371271D01*
X666377Y371331D01*
X666424Y371385D01*
X666503Y371517D01*
X666589Y371644D01*
X666618Y371710D01*
X666655Y371772D01*
X666709Y371915D01*
X666771Y372056D01*
X666788Y372126D01*
X666813Y372193D01*
X666841Y372344D01*
X666878Y372494D01*
X666882Y372565D01*
X666895Y372636D01*
X666896Y372790D01*
X666905Y372943D01*
X666897Y373014D01*
X666898Y373086D01*
X666871Y373238D01*
X666853Y373390D01*
X666833Y373459D01*
X666820Y373530D01*
X666768Y373674D01*
X666723Y373821D01*
X666691Y373885D01*
X666666Y373953D01*
X666588Y374085D01*
X666519Y374223D01*
X666475Y374280D01*
X666439Y374342D01*
X666340Y374459D01*
X666247Y374581D01*
X666194Y374630D01*
X666148Y374685D01*
X666029Y374782D01*
X665916Y374887D01*
X665855Y374925D01*
X665800Y374971D01*
X665666Y375046D01*
X665536Y375128D01*
X665469Y375156D01*
X665407Y375191D01*
X665262Y375241D01*
X665119Y375299D01*
X665049Y375314D01*
X664981Y375338D01*
X664830Y375362D01*
X664679Y375394D01*
X664587Y375400D01*
X664537Y375408D01*
X664479Y375406D01*
X664367Y375413D01*
X572713Y375413D01*
X572550Y375399D01*
X572385Y375392D01*
X572326Y375379D01*
X572265Y375373D01*
X572106Y375330D01*
X571946Y375294D01*
X571889Y375271D01*
X571831Y375255D01*
X571682Y375184D01*
X571530Y375121D01*
X571479Y375088D01*
X571424Y375061D01*
X571290Y374966D01*
X571152Y374876D01*
X571094Y374825D01*
X571058Y374799D01*
X571015Y374756D01*
X570918Y374670D01*
X550908Y354660D01*
X550803Y354534D01*
X550691Y354413D01*
X550659Y354362D01*
X550620Y354315D01*
X550538Y354172D01*
X550450Y354033D01*
X550426Y353977D01*
X550396Y353924D01*
X550341Y353769D01*
X550279Y353617D01*
X550266Y353557D01*
X550245Y353500D01*
X550219Y353337D01*
X550184Y353176D01*
X550179Y353100D01*
X550172Y353055D01*
X550173Y352994D01*
X550165Y352865D01*
X550165Y339422D01*
X550176Y339293D01*
X550178Y339163D01*
X550196Y339069D01*
X550205Y338974D01*
X550239Y338848D01*
X550264Y338721D01*
X550298Y338632D01*
X550323Y338539D01*
X550379Y338422D01*
X550426Y338301D01*
X550476Y338219D01*
X550517Y338133D01*
X550592Y338027D01*
X550660Y337916D01*
X550723Y337844D01*
X550779Y337767D01*
X550872Y337676D01*
X550958Y337579D01*
X551033Y337520D01*
X551101Y337453D01*
X551209Y337380D01*
X551311Y337299D01*
X551395Y337254D01*
X551474Y337201D01*
X551593Y337148D01*
X551708Y337087D01*
X551799Y337057D01*
X551886Y337018D01*
X552013Y336988D01*
X552136Y336947D01*
X552231Y336934D01*
X552324Y336912D01*
X552453Y336904D01*
X552582Y336886D01*
X552678Y336890D01*
X552773Y336884D01*
X552902Y336899D01*
X553032Y336904D01*
X553125Y336925D01*
X553220Y336936D01*
X553345Y336974D01*
X553472Y337002D01*
X553560Y337039D01*
X553651Y337066D01*
X553767Y337125D01*
X553887Y337176D01*
X553968Y337227D01*
X554053Y337271D01*
X554156Y337349D01*
X554265Y337420D01*
X554363Y337506D01*
X554411Y337543D01*
X554442Y337576D01*
X554500Y337627D01*
X564345Y347473D01*
X578655Y347473D01*
X588773Y337355D01*
X588773Y323045D01*
X578655Y312927D01*
X578104Y312927D01*
X578069Y312924D01*
X578035Y312926D01*
X577846Y312904D01*
X577655Y312887D01*
X577622Y312878D01*
X577588Y312874D01*
X577405Y312819D01*
X577221Y312769D01*
X577190Y312754D01*
X577157Y312744D01*
X576986Y312657D01*
X576814Y312575D01*
X576786Y312555D01*
X576755Y312540D01*
X576603Y312424D01*
X576448Y312313D01*
X576424Y312288D01*
X576397Y312268D01*
X576268Y312128D01*
X576134Y311991D01*
X576115Y311962D01*
X576091Y311936D01*
X575989Y311775D01*
X575882Y311618D01*
X575868Y311586D01*
X575850Y311557D01*
X575777Y311380D01*
X575700Y311206D01*
X575692Y311172D01*
X575679Y311140D01*
X575639Y310953D01*
X575593Y310768D01*
X575591Y310734D01*
X575584Y310700D01*
X575565Y310388D01*
X575565Y303991D01*
X574946Y302498D01*
X535702Y263254D01*
X534209Y262635D01*
X499668Y262635D01*
X499491Y262620D01*
X499314Y262610D01*
X499268Y262600D01*
X499220Y262595D01*
X499048Y262549D01*
X498876Y262508D01*
X498832Y262489D01*
X498785Y262477D01*
X498625Y262401D01*
X498462Y262330D01*
X498422Y262304D01*
X498379Y262283D01*
X498235Y262180D01*
X498086Y262082D01*
X498052Y262049D01*
X498013Y262021D01*
X497889Y261894D01*
X497760Y261771D01*
X497732Y261733D01*
X497699Y261699D01*
X497599Y261551D01*
X497494Y261408D01*
X497473Y261365D01*
X497447Y261326D01*
X497375Y261163D01*
X497297Y261004D01*
X497284Y260958D01*
X497264Y260914D01*
X497222Y260741D01*
X497174Y260570D01*
X497169Y260523D01*
X497158Y260476D01*
X497147Y260299D01*
X497129Y260122D01*
X497133Y260075D01*
X497130Y260027D01*
X497151Y259850D01*
X497164Y259673D01*
X497177Y259627D01*
X497182Y259580D01*
X497234Y259409D01*
X497278Y259238D01*
X497299Y259195D01*
X497312Y259149D01*
X497393Y258990D01*
X497468Y258829D01*
X497495Y258790D01*
X497517Y258747D01*
X497624Y258606D01*
X497726Y258460D01*
X497760Y258427D01*
X497789Y258389D01*
X497919Y258268D01*
X498045Y258143D01*
X498085Y258116D01*
X498120Y258084D01*
X498270Y257988D01*
X498416Y257887D01*
X498469Y257861D01*
X498500Y257842D01*
X498558Y257818D01*
X498697Y257750D01*
X501087Y256760D01*
X504160Y253687D01*
X505823Y249673D01*
X505823Y245327D01*
X504160Y241313D01*
X501087Y238240D01*
X497073Y236577D01*
X492727Y236577D01*
X488713Y238240D01*
X485640Y241313D01*
X484746Y243472D01*
X484686Y243587D01*
X484634Y243706D01*
X484582Y243786D01*
X484537Y243871D01*
X484458Y243974D01*
X484386Y244082D01*
X484320Y244151D01*
X484262Y244227D01*
X484165Y244314D01*
X484075Y244408D01*
X483998Y244464D01*
X483927Y244528D01*
X483817Y244597D01*
X483712Y244674D01*
X483626Y244716D01*
X483545Y244766D01*
X483424Y244814D01*
X483308Y244871D01*
X483216Y244897D01*
X483127Y244933D01*
X482999Y244959D01*
X482874Y244994D01*
X482779Y245004D01*
X482686Y245023D01*
X482556Y245026D01*
X482426Y245039D01*
X482331Y245032D01*
X482236Y245034D01*
X482107Y245014D01*
X481977Y245004D01*
X481885Y244979D01*
X481791Y244965D01*
X481668Y244923D01*
X481542Y244890D01*
X481455Y244850D01*
X481365Y244819D01*
X481251Y244755D01*
X481133Y244701D01*
X481055Y244646D01*
X480972Y244599D01*
X480871Y244517D01*
X480764Y244442D01*
X480697Y244374D01*
X480623Y244314D01*
X480539Y244215D01*
X480447Y244123D01*
X480393Y244044D01*
X480331Y243972D01*
X480265Y243859D01*
X480191Y243752D01*
X480134Y243636D01*
X480103Y243583D01*
X480088Y243541D01*
X480054Y243472D01*
X479160Y241313D01*
X476087Y238240D01*
X475532Y238010D01*
X475345Y237912D01*
X475155Y237816D01*
X475145Y237808D01*
X475133Y237802D01*
X474965Y237672D01*
X474797Y237544D01*
X474788Y237534D01*
X474777Y237526D01*
X474635Y237369D01*
X474491Y237213D01*
X474484Y237202D01*
X474476Y237192D01*
X474363Y237012D01*
X474250Y236833D01*
X474245Y236821D01*
X474238Y236810D01*
X474159Y236613D01*
X474079Y236416D01*
X474076Y236403D01*
X474071Y236391D01*
X474029Y236184D01*
X473984Y235976D01*
X473983Y235960D01*
X473981Y235950D01*
X473980Y235911D01*
X473965Y235664D01*
X473965Y227791D01*
X473346Y226298D01*
X459502Y212454D01*
X458009Y211835D01*
X383735Y211835D01*
X383572Y211821D01*
X383407Y211814D01*
X383348Y211801D01*
X383287Y211795D01*
X383128Y211752D01*
X382968Y211716D01*
X382911Y211693D01*
X382853Y211677D01*
X382704Y211606D01*
X382552Y211543D01*
X382501Y211510D01*
X382446Y211483D01*
X382312Y211388D01*
X382174Y211298D01*
X382116Y211247D01*
X382080Y211221D01*
X382037Y211178D01*
X381940Y211092D01*
X376426Y205577D01*
X376289Y205414D01*
X376152Y205254D01*
X376145Y205242D01*
X376137Y205232D01*
X376031Y205047D01*
X375925Y204865D01*
X375920Y204853D01*
X375914Y204841D01*
X375843Y204642D01*
X375769Y204442D01*
X375767Y204429D01*
X375763Y204417D01*
X375728Y204207D01*
X375691Y203999D01*
X375691Y203986D01*
X375689Y203973D01*
X375692Y203759D01*
X375693Y203549D01*
X375695Y203536D01*
X375695Y203522D01*
X375736Y203313D01*
X375774Y203106D01*
X375779Y203091D01*
X375781Y203080D01*
X375795Y203043D01*
X375875Y202810D01*
X377191Y199634D01*
X377191Y181366D01*
X375837Y178098D01*
X373336Y175597D01*
X370068Y174243D01*
X366532Y174243D01*
X363264Y175597D01*
X360763Y178098D01*
X359409Y181366D01*
X359409Y199634D01*
X360763Y202902D01*
X363264Y205403D01*
X365342Y206264D01*
X365446Y206318D01*
X365554Y206363D01*
X365645Y206422D01*
X365742Y206473D01*
X365834Y206544D01*
X365932Y206608D01*
X366048Y206710D01*
X366098Y206748D01*
X366122Y206775D01*
X366166Y206815D01*
X373456Y214104D01*
X373478Y214131D01*
X373504Y214154D01*
X373622Y214303D01*
X373745Y214450D01*
X373762Y214480D01*
X373784Y214507D01*
X373874Y214675D01*
X373968Y214841D01*
X373980Y214873D01*
X373996Y214904D01*
X374055Y215085D01*
X374119Y215265D01*
X374125Y215299D01*
X374136Y215332D01*
X374161Y215521D01*
X374193Y215709D01*
X374192Y215744D01*
X374197Y215778D01*
X374189Y215969D01*
X374187Y216160D01*
X374180Y216194D01*
X374179Y216228D01*
X374137Y216414D01*
X374101Y216602D01*
X374088Y216634D01*
X374081Y216668D01*
X374007Y216844D01*
X373939Y217022D01*
X373921Y217051D01*
X373907Y217083D01*
X373804Y217243D01*
X373705Y217406D01*
X373682Y217432D01*
X373663Y217461D01*
X373456Y217696D01*
X367360Y223792D01*
X367234Y223897D01*
X367113Y224009D01*
X367062Y224041D01*
X367015Y224080D01*
X366872Y224162D01*
X366733Y224250D01*
X366677Y224274D01*
X366624Y224304D01*
X366469Y224359D01*
X366317Y224421D01*
X366257Y224434D01*
X366199Y224455D01*
X366037Y224481D01*
X365876Y224516D01*
X365800Y224521D01*
X365755Y224528D01*
X365694Y224527D01*
X365565Y224535D01*
X340268Y224535D01*
X340139Y224524D01*
X340009Y224522D01*
X339915Y224504D01*
X339820Y224495D01*
X339694Y224461D01*
X339567Y224436D01*
X339478Y224402D01*
X339386Y224377D01*
X339268Y224321D01*
X339147Y224274D01*
X339065Y224224D01*
X338979Y224183D01*
X338873Y224108D01*
X338762Y224040D01*
X338690Y223977D01*
X338613Y223921D01*
X338522Y223828D01*
X338425Y223742D01*
X338365Y223667D01*
X338299Y223599D01*
X338226Y223491D01*
X338145Y223389D01*
X338100Y223305D01*
X338047Y223226D01*
X337994Y223107D01*
X337933Y222992D01*
X337903Y222901D01*
X337864Y222814D01*
X337834Y222687D01*
X337793Y222564D01*
X337780Y222469D01*
X337758Y222376D01*
X337750Y222247D01*
X337732Y222118D01*
X337736Y222022D01*
X337730Y221927D01*
X337745Y221798D01*
X337750Y221668D01*
X337771Y221575D01*
X337782Y221480D01*
X337820Y221355D01*
X337848Y221228D01*
X337885Y221140D01*
X337912Y221049D01*
X337972Y220933D01*
X338022Y220813D01*
X338073Y220733D01*
X338117Y220647D01*
X338195Y220544D01*
X338266Y220435D01*
X338352Y220337D01*
X338389Y220289D01*
X338422Y220258D01*
X338473Y220200D01*
X339091Y219583D01*
X339091Y212217D01*
X335008Y208135D01*
X334903Y208009D01*
X334791Y207888D01*
X334759Y207837D01*
X334720Y207790D01*
X334638Y207647D01*
X334550Y207508D01*
X334526Y207452D01*
X334496Y207399D01*
X334441Y207244D01*
X334379Y207092D01*
X334366Y207032D01*
X334345Y206974D01*
X334319Y206812D01*
X334284Y206651D01*
X334279Y206575D01*
X334272Y206530D01*
X334273Y206469D01*
X334265Y206340D01*
X334265Y193235D01*
X334279Y193072D01*
X334286Y192907D01*
X334299Y192848D01*
X334305Y192787D01*
X334348Y192628D01*
X334384Y192468D01*
X334407Y192411D01*
X334423Y192353D01*
X334494Y192204D01*
X334557Y192052D01*
X334590Y192001D01*
X334617Y191946D01*
X334712Y191812D01*
X334802Y191674D01*
X334853Y191616D01*
X334879Y191580D01*
X334922Y191537D01*
X335008Y191440D01*
X356540Y169908D01*
X356666Y169803D01*
X356787Y169691D01*
X356838Y169659D01*
X356885Y169620D01*
X357028Y169538D01*
X357167Y169450D01*
X357223Y169426D01*
X357276Y169396D01*
X357431Y169341D01*
X357583Y169279D01*
X357643Y169266D01*
X357701Y169245D01*
X357863Y169219D01*
X358024Y169184D01*
X358100Y169179D01*
X358145Y169172D01*
X358206Y169173D01*
X358335Y169165D01*
X479865Y169165D01*
X480028Y169179D01*
X480193Y169186D01*
X480252Y169199D01*
X480313Y169205D01*
X480472Y169248D01*
X480632Y169284D01*
X480689Y169307D01*
X480747Y169323D01*
X480896Y169394D01*
X481048Y169457D01*
X481099Y169490D01*
X481154Y169517D01*
X481288Y169612D01*
X481426Y169702D01*
X481484Y169753D01*
X481520Y169779D01*
X481563Y169822D01*
X481660Y169908D01*
X487174Y175423D01*
X487311Y175586D01*
X487448Y175746D01*
X487455Y175758D01*
X487463Y175768D01*
X487568Y175952D01*
X487675Y176135D01*
X487680Y176147D01*
X487686Y176159D01*
X487758Y176359D01*
X487831Y176558D01*
X487833Y176571D01*
X487837Y176583D01*
X487872Y176791D01*
X487909Y177001D01*
X487909Y177014D01*
X487911Y177027D01*
X487908Y177240D01*
X487907Y177451D01*
X487905Y177464D01*
X487905Y177478D01*
X487864Y177686D01*
X487826Y177894D01*
X487821Y177909D01*
X487819Y177920D01*
X487805Y177956D01*
X487725Y178190D01*
X486409Y181366D01*
X486409Y199634D01*
X487763Y202902D01*
X490264Y205403D01*
X493532Y206757D01*
X497068Y206757D01*
X500336Y205403D01*
X502837Y202902D01*
X504191Y199634D01*
X504191Y181366D01*
X502837Y178098D01*
X500336Y175597D01*
X498258Y174736D01*
X498154Y174682D01*
X498046Y174636D01*
X497955Y174578D01*
X497858Y174527D01*
X497766Y174456D01*
X497668Y174392D01*
X497552Y174290D01*
X497502Y174252D01*
X497478Y174225D01*
X497434Y174185D01*
X497246Y173997D01*
X497245Y173997D01*
X484902Y161654D01*
X484168Y161350D01*
X484010Y161268D01*
X483850Y161191D01*
X483812Y161164D01*
X483769Y161141D01*
X483629Y161033D01*
X483484Y160929D01*
X483451Y160895D01*
X483413Y160866D01*
X483294Y160734D01*
X483170Y160607D01*
X483143Y160567D01*
X483111Y160531D01*
X483018Y160381D01*
X482918Y160234D01*
X482899Y160190D01*
X482874Y160149D01*
X482808Y159984D01*
X482736Y159822D01*
X482725Y159775D01*
X482707Y159731D01*
X482671Y159557D01*
X482629Y159384D01*
X482626Y159337D01*
X482617Y159290D01*
X482612Y159112D01*
X482602Y158935D01*
X482607Y158887D01*
X482606Y158840D01*
X482633Y158664D01*
X482654Y158488D01*
X482668Y158442D01*
X482675Y158395D01*
X482733Y158227D01*
X482784Y158057D01*
X482806Y158014D01*
X482821Y157969D01*
X482908Y157814D01*
X482988Y157655D01*
X483017Y157617D01*
X483041Y157576D01*
X483153Y157438D01*
X483260Y157297D01*
X483296Y157264D01*
X483326Y157227D01*
X483461Y157112D01*
X483591Y156991D01*
X483632Y156966D01*
X483668Y156935D01*
X483821Y156845D01*
X483971Y156750D01*
X484016Y156731D01*
X484057Y156707D01*
X484223Y156646D01*
X484388Y156579D01*
X484435Y156569D01*
X484479Y156552D01*
X484654Y156521D01*
X484828Y156484D01*
X484887Y156480D01*
X484923Y156474D01*
X484986Y156474D01*
X485140Y156465D01*
X517965Y156465D01*
X518128Y156479D01*
X518293Y156486D01*
X518352Y156499D01*
X518413Y156505D01*
X518572Y156548D01*
X518732Y156584D01*
X518789Y156607D01*
X518847Y156623D01*
X518996Y156694D01*
X519148Y156757D01*
X519199Y156790D01*
X519254Y156817D01*
X519388Y156912D01*
X519526Y157002D01*
X519584Y157053D01*
X519620Y157079D01*
X519663Y157122D01*
X519760Y157208D01*
X537974Y175423D01*
X538111Y175586D01*
X538248Y175746D01*
X538255Y175758D01*
X538263Y175768D01*
X538369Y175953D01*
X538475Y176135D01*
X538480Y176147D01*
X538486Y176159D01*
X538557Y176358D01*
X538631Y176558D01*
X538633Y176571D01*
X538637Y176583D01*
X538672Y176792D01*
X538709Y177001D01*
X538709Y177014D01*
X538711Y177027D01*
X538708Y177241D01*
X538707Y177451D01*
X538705Y177464D01*
X538705Y177478D01*
X538664Y177686D01*
X538626Y177894D01*
X538621Y177909D01*
X538619Y177920D01*
X538605Y177957D01*
X538525Y178190D01*
X537209Y181366D01*
X537209Y199634D01*
X538563Y202902D01*
X541064Y205403D01*
X544332Y206757D01*
X547868Y206757D01*
X551136Y205403D01*
X553637Y202902D01*
X554991Y199634D01*
X554991Y181366D01*
X553637Y178098D01*
X551136Y175597D01*
X549058Y174736D01*
X548954Y174682D01*
X548846Y174637D01*
X548755Y174578D01*
X548658Y174527D01*
X548566Y174456D01*
X548468Y174392D01*
X548352Y174290D01*
X548302Y174252D01*
X548278Y174225D01*
X548234Y174185D01*
X524503Y150455D01*
X523002Y148954D01*
X521509Y148335D01*
X329391Y148335D01*
X327898Y148954D01*
X326397Y150454D01*
X326397Y150455D01*
X293896Y182956D01*
X293869Y182978D01*
X293846Y183004D01*
X293697Y183122D01*
X293550Y183245D01*
X293520Y183262D01*
X293493Y183284D01*
X293325Y183374D01*
X293159Y183468D01*
X293127Y183480D01*
X293096Y183496D01*
X292915Y183555D01*
X292735Y183619D01*
X292701Y183625D01*
X292668Y183636D01*
X292479Y183661D01*
X292291Y183693D01*
X292256Y183692D01*
X292222Y183697D01*
X292031Y183689D01*
X291840Y183687D01*
X291806Y183680D01*
X291772Y183679D01*
X291586Y183637D01*
X291398Y183601D01*
X291366Y183588D01*
X291332Y183581D01*
X291156Y183507D01*
X290978Y183439D01*
X290949Y183421D01*
X290917Y183407D01*
X290757Y183304D01*
X290594Y183205D01*
X290568Y183182D01*
X290539Y183163D01*
X290304Y182956D01*
X269002Y161654D01*
X267509Y161035D01*
X263560Y161035D01*
X263397Y161021D01*
X263232Y161014D01*
X263173Y161001D01*
X263112Y160995D01*
X262953Y160952D01*
X262793Y160916D01*
X262736Y160893D01*
X262678Y160877D01*
X262530Y160806D01*
X262377Y160743D01*
X262326Y160710D01*
X262271Y160683D01*
X262138Y160588D01*
X261999Y160498D01*
X261941Y160447D01*
X261905Y160421D01*
X261862Y160378D01*
X261765Y160292D01*
X259036Y157563D01*
X255768Y156209D01*
X252232Y156209D01*
X248964Y157563D01*
X246235Y160292D01*
X246109Y160397D01*
X245988Y160509D01*
X245937Y160541D01*
X245890Y160580D01*
X245747Y160662D01*
X245608Y160750D01*
X245552Y160774D01*
X245499Y160804D01*
X245344Y160859D01*
X245192Y160921D01*
X245132Y160934D01*
X245074Y160955D01*
X244912Y160981D01*
X244751Y161016D01*
X244674Y161021D01*
X244630Y161028D01*
X244569Y161027D01*
X244440Y161035D01*
X225460Y161035D01*
X225297Y161021D01*
X225132Y161014D01*
X225073Y161001D01*
X225012Y160995D01*
X224853Y160952D01*
X224693Y160916D01*
X224636Y160893D01*
X224578Y160877D01*
X224429Y160806D01*
X224277Y160743D01*
X224226Y160710D01*
X224171Y160683D01*
X224037Y160588D01*
X223899Y160498D01*
X223841Y160447D01*
X223805Y160421D01*
X223762Y160378D01*
X223665Y160292D01*
X219583Y156209D01*
X212217Y156209D01*
X207009Y161417D01*
X207009Y169731D01*
X206998Y169860D01*
X206996Y169990D01*
X206978Y170084D01*
X206969Y170179D01*
X206935Y170305D01*
X206910Y170432D01*
X206876Y170521D01*
X206851Y170613D01*
X206795Y170731D01*
X206748Y170852D01*
X206698Y170934D01*
X206657Y171020D01*
X206582Y171126D01*
X206514Y171237D01*
X206451Y171308D01*
X206395Y171386D01*
X206302Y171477D01*
X206216Y171574D01*
X206141Y171633D01*
X206073Y171700D01*
X205965Y171773D01*
X205863Y171854D01*
X205779Y171899D01*
X205700Y171952D01*
X205581Y172005D01*
X205466Y172066D01*
X205375Y172096D01*
X205288Y172135D01*
X205161Y172165D01*
X205038Y172206D01*
X204943Y172219D01*
X204850Y172241D01*
X204721Y172249D01*
X204592Y172267D01*
X204496Y172263D01*
X204401Y172269D01*
X204272Y172254D01*
X204142Y172249D01*
X204049Y172228D01*
X203954Y172217D01*
X203829Y172179D01*
X203702Y172151D01*
X203614Y172114D01*
X203523Y172087D01*
X203407Y172027D01*
X203287Y171977D01*
X203207Y171926D01*
X203121Y171882D01*
X203018Y171804D01*
X202909Y171733D01*
X202811Y171647D01*
X202763Y171610D01*
X202732Y171577D01*
X202674Y171526D01*
X195308Y164160D01*
X195203Y164034D01*
X195091Y163913D01*
X195059Y163862D01*
X195020Y163815D01*
X194938Y163672D01*
X194850Y163533D01*
X194826Y163477D01*
X194796Y163424D01*
X194741Y163269D01*
X194679Y163117D01*
X194666Y163057D01*
X194645Y162999D01*
X194619Y162837D01*
X194584Y162676D01*
X194579Y162599D01*
X194572Y162555D01*
X194573Y162494D01*
X194565Y162365D01*
X194565Y138891D01*
X193946Y137398D01*
X180102Y123554D01*
X178609Y122935D01*
X171704Y122935D01*
X171669Y122932D01*
X171635Y122934D01*
X171446Y122912D01*
X171255Y122895D01*
X171222Y122886D01*
X171188Y122882D01*
X171005Y122827D01*
X170821Y122777D01*
X170790Y122762D01*
X170757Y122752D01*
X170586Y122665D01*
X170414Y122583D01*
X170386Y122563D01*
X170355Y122548D01*
X170203Y122432D01*
X170048Y122321D01*
X170024Y122296D01*
X169997Y122276D01*
X169868Y122136D01*
X169734Y121999D01*
X169715Y121970D01*
X169691Y121944D01*
X169589Y121783D01*
X169482Y121626D01*
X169468Y121594D01*
X169450Y121565D01*
X169377Y121388D01*
X169300Y121214D01*
X169292Y121180D01*
X169279Y121148D01*
X169239Y120961D01*
X169193Y120776D01*
X169191Y120742D01*
X169184Y120708D01*
X169165Y120396D01*
X169165Y112061D01*
X169184Y111849D01*
X169200Y111639D01*
X169203Y111626D01*
X169205Y111613D01*
X169261Y111408D01*
X169314Y111203D01*
X169320Y111191D01*
X169323Y111178D01*
X169413Y110988D01*
X169503Y110794D01*
X169511Y110783D01*
X169517Y110772D01*
X169639Y110600D01*
X169762Y110426D01*
X169771Y110416D01*
X169779Y110405D01*
X169931Y110258D01*
X170081Y110108D01*
X170092Y110101D01*
X170101Y110091D01*
X170277Y109973D01*
X170451Y109852D01*
X170466Y109845D01*
X170474Y109839D01*
X170511Y109823D01*
X170544Y109807D01*
X173283Y107068D01*
X174753Y103520D01*
X174753Y99680D01*
X173283Y96132D01*
X170568Y93417D01*
X167020Y91947D01*
X163180Y91947D01*
X161182Y92775D01*
X161013Y92828D01*
X160846Y92887D01*
X160798Y92895D01*
X160753Y92909D01*
X160577Y92932D01*
X160401Y92961D01*
X160354Y92960D01*
X160306Y92966D01*
X160129Y92957D01*
X159951Y92955D01*
X159904Y92946D01*
X159856Y92943D01*
X159684Y92903D01*
X159509Y92869D01*
X159464Y92852D01*
X159418Y92841D01*
X159255Y92771D01*
X159089Y92707D01*
X159048Y92682D01*
X159004Y92663D01*
X158856Y92565D01*
X158704Y92473D01*
X158669Y92441D01*
X158629Y92415D01*
X158500Y92292D01*
X158367Y92175D01*
X158337Y92137D01*
X158303Y92104D01*
X158197Y91960D01*
X158088Y91822D01*
X158065Y91780D01*
X158037Y91741D01*
X157959Y91581D01*
X157875Y91425D01*
X157860Y91379D01*
X157839Y91336D01*
X157791Y91165D01*
X157736Y90997D01*
X157729Y90949D01*
X157716Y90903D01*
X157699Y90726D01*
X157674Y90550D01*
X157676Y90503D01*
X157672Y90455D01*
X157685Y90278D01*
X157693Y90101D01*
X157703Y90054D01*
X157707Y90006D01*
X157752Y89834D01*
X157790Y89661D01*
X157809Y89617D01*
X157821Y89571D01*
X157895Y89410D01*
X157964Y89246D01*
X157990Y89205D01*
X158010Y89162D01*
X158112Y89017D01*
X158208Y88867D01*
X158247Y88823D01*
X158268Y88793D01*
X158313Y88749D01*
X158415Y88633D01*
X178740Y68308D01*
X178866Y68203D01*
X178987Y68091D01*
X179038Y68059D01*
X179085Y68020D01*
X179228Y67938D01*
X179367Y67850D01*
X179423Y67826D01*
X179476Y67796D01*
X179631Y67741D01*
X179783Y67679D01*
X179843Y67666D01*
X179901Y67645D01*
X180063Y67619D01*
X180224Y67584D01*
X180300Y67579D01*
X180345Y67572D01*
X180406Y67573D01*
X180535Y67565D01*
X206340Y67565D01*
X206503Y67579D01*
X206668Y67586D01*
X206727Y67599D01*
X206788Y67605D01*
X206947Y67648D01*
X207107Y67684D01*
X207164Y67707D01*
X207222Y67723D01*
X207371Y67794D01*
X207523Y67857D01*
X207574Y67890D01*
X207629Y67917D01*
X207763Y68012D01*
X207901Y68102D01*
X207959Y68153D01*
X207995Y68179D01*
X208038Y68222D01*
X208135Y68308D01*
X212217Y72391D01*
X219583Y72391D01*
X224791Y67183D01*
X224791Y59817D01*
X219583Y54609D01*
X212217Y54609D01*
X208135Y58692D01*
X208009Y58797D01*
X207888Y58909D01*
X207837Y58941D01*
X207790Y58980D01*
X207647Y59062D01*
X207508Y59150D01*
X207452Y59174D01*
X207399Y59204D01*
X207244Y59259D01*
X207092Y59321D01*
X207032Y59334D01*
X206974Y59355D01*
X206812Y59381D01*
X206651Y59416D01*
X206575Y59421D01*
X206530Y59428D01*
X206469Y59427D01*
X206340Y59435D01*
X176991Y59435D01*
X175498Y60054D01*
X144223Y91329D01*
X144059Y91466D01*
X143899Y91602D01*
X143888Y91609D01*
X143878Y91618D01*
X143694Y91723D01*
X143510Y91830D01*
X143498Y91834D01*
X143487Y91841D01*
X143287Y91912D01*
X143088Y91985D01*
X143075Y91987D01*
X143062Y91992D01*
X142852Y92027D01*
X142644Y92063D01*
X142631Y92063D01*
X142618Y92065D01*
X142404Y92062D01*
X142194Y92062D01*
X142181Y92059D01*
X142168Y92059D01*
X141959Y92019D01*
X141751Y91981D01*
X141736Y91976D01*
X141726Y91974D01*
X141689Y91959D01*
X141654Y91947D01*
X137780Y91947D01*
X134232Y93417D01*
X131517Y96132D01*
X130047Y99680D01*
X130047Y103520D01*
X131517Y107068D01*
X134232Y109783D01*
X137780Y111253D01*
X141620Y111253D01*
X145168Y109783D01*
X147883Y107068D01*
X149353Y103520D01*
X149353Y99628D01*
X149292Y99440D01*
X149290Y99427D01*
X149286Y99415D01*
X149259Y99204D01*
X149230Y98994D01*
X149231Y98981D01*
X149229Y98968D01*
X149240Y98757D01*
X149249Y98545D01*
X149252Y98531D01*
X149252Y98518D01*
X149300Y98313D01*
X149346Y98105D01*
X149352Y98093D01*
X149354Y98080D01*
X149438Y97887D01*
X149520Y97689D01*
X149527Y97678D01*
X149532Y97666D01*
X149649Y97490D01*
X149764Y97311D01*
X149775Y97300D01*
X149781Y97291D01*
X149808Y97262D01*
X149971Y97077D01*
X152133Y94915D01*
X152270Y94801D01*
X152401Y94682D01*
X152442Y94657D01*
X152479Y94626D01*
X152633Y94538D01*
X152784Y94444D01*
X152828Y94427D01*
X152870Y94403D01*
X153037Y94343D01*
X153202Y94278D01*
X153249Y94268D01*
X153294Y94252D01*
X153469Y94223D01*
X153643Y94188D01*
X153691Y94186D01*
X153738Y94179D01*
X153916Y94181D01*
X154093Y94177D01*
X154140Y94184D01*
X154188Y94185D01*
X154363Y94219D01*
X154538Y94246D01*
X154583Y94261D01*
X154630Y94270D01*
X154796Y94334D01*
X154964Y94392D01*
X155006Y94415D01*
X155050Y94433D01*
X155202Y94525D01*
X155357Y94611D01*
X155394Y94642D01*
X155435Y94666D01*
X155568Y94784D01*
X155706Y94897D01*
X155737Y94933D01*
X155772Y94965D01*
X155882Y95104D01*
X155998Y95239D01*
X156022Y95280D01*
X156052Y95318D01*
X156136Y95474D01*
X156225Y95628D01*
X156242Y95673D01*
X156264Y95715D01*
X156319Y95883D01*
X156381Y96050D01*
X156389Y96098D01*
X156404Y96143D01*
X156428Y96319D01*
X156459Y96494D01*
X156459Y96542D01*
X156465Y96589D01*
X156458Y96767D01*
X156457Y96944D01*
X156449Y96991D01*
X156447Y97039D01*
X156408Y97212D01*
X156376Y97387D01*
X156357Y97443D01*
X156349Y97478D01*
X156325Y97537D01*
X156275Y97682D01*
X155447Y99680D01*
X155447Y103520D01*
X156917Y107068D01*
X159669Y109820D01*
X159845Y109909D01*
X159855Y109917D01*
X159867Y109924D01*
X160036Y110055D01*
X160203Y110181D01*
X160212Y110191D01*
X160223Y110199D01*
X160365Y110357D01*
X160509Y110513D01*
X160516Y110524D01*
X160524Y110534D01*
X160636Y110713D01*
X160750Y110892D01*
X160755Y110905D01*
X160762Y110916D01*
X160841Y111113D01*
X160921Y111309D01*
X160924Y111322D01*
X160929Y111334D01*
X160971Y111541D01*
X161016Y111749D01*
X161017Y111765D01*
X161019Y111775D01*
X161020Y111815D01*
X161035Y112061D01*
X161035Y120396D01*
X161032Y120431D01*
X161034Y120465D01*
X161012Y120654D01*
X160995Y120845D01*
X160986Y120878D01*
X160982Y120912D01*
X160927Y121095D01*
X160877Y121279D01*
X160862Y121310D01*
X160852Y121343D01*
X160765Y121514D01*
X160683Y121686D01*
X160663Y121714D01*
X160648Y121745D01*
X160532Y121897D01*
X160421Y122052D01*
X160396Y122076D01*
X160376Y122103D01*
X160236Y122232D01*
X160099Y122366D01*
X160070Y122385D01*
X160044Y122409D01*
X159883Y122511D01*
X159726Y122618D01*
X159694Y122632D01*
X159665Y122650D01*
X159488Y122723D01*
X159314Y122800D01*
X159280Y122808D01*
X159248Y122821D01*
X159061Y122861D01*
X158876Y122907D01*
X158842Y122909D01*
X158808Y122916D01*
X158496Y122935D01*
X138891Y122935D01*
X137398Y123554D01*
X93423Y167529D01*
X93259Y167666D01*
X93099Y167802D01*
X93088Y167809D01*
X93078Y167818D01*
X92894Y167923D01*
X92710Y168030D01*
X92698Y168034D01*
X92687Y168041D01*
X92487Y168112D01*
X92288Y168185D01*
X92275Y168187D01*
X92262Y168192D01*
X92052Y168227D01*
X91844Y168263D01*
X91831Y168263D01*
X91818Y168265D01*
X91604Y168262D01*
X91394Y168262D01*
X91381Y168259D01*
X91368Y168259D01*
X91159Y168219D01*
X90951Y168181D01*
X90936Y168176D01*
X90926Y168174D01*
X90889Y168159D01*
X90854Y168147D01*
X86980Y168147D01*
X83432Y169617D01*
X80717Y172332D01*
X79247Y175880D01*
X79247Y179720D01*
X80717Y183268D01*
X83469Y186020D01*
X83645Y186109D01*
X83655Y186117D01*
X83667Y186124D01*
X83836Y186255D01*
X84003Y186381D01*
X84012Y186391D01*
X84023Y186399D01*
X84165Y186557D01*
X84309Y186713D01*
X84316Y186724D01*
X84324Y186734D01*
X84436Y186913D01*
X84550Y187092D01*
X84555Y187105D01*
X84562Y187116D01*
X84641Y187313D01*
X84721Y187509D01*
X84724Y187522D01*
X84729Y187534D01*
X84771Y187741D01*
X84816Y187949D01*
X84817Y187965D01*
X84819Y187975D01*
X84820Y188015D01*
X84835Y188261D01*
X84835Y235664D01*
X84816Y235876D01*
X84800Y236087D01*
X84797Y236100D01*
X84795Y236113D01*
X84739Y236318D01*
X84686Y236522D01*
X84680Y236535D01*
X84677Y236547D01*
X84587Y236737D01*
X84497Y236931D01*
X84489Y236942D01*
X84483Y236954D01*
X84361Y237125D01*
X84238Y237300D01*
X84229Y237309D01*
X84221Y237320D01*
X84069Y237469D01*
X83919Y237617D01*
X83908Y237625D01*
X83899Y237634D01*
X83722Y237753D01*
X83549Y237873D01*
X83534Y237880D01*
X83526Y237886D01*
X83489Y237902D01*
X83268Y238010D01*
X82713Y238240D01*
X79640Y241313D01*
X78746Y243472D01*
X78686Y243587D01*
X78634Y243706D01*
X78582Y243786D01*
X78537Y243871D01*
X78458Y243973D01*
X78386Y244082D01*
X78320Y244151D01*
X78262Y244227D01*
X78165Y244314D01*
X78075Y244408D01*
X77998Y244464D01*
X77927Y244528D01*
X77817Y244597D01*
X77712Y244674D01*
X77626Y244716D01*
X77545Y244766D01*
X77424Y244814D01*
X77308Y244871D01*
X77216Y244897D01*
X77127Y244933D01*
X76999Y244959D01*
X76874Y244994D01*
X76779Y245004D01*
X76686Y245023D01*
X76556Y245026D01*
X76426Y245039D01*
X76331Y245031D01*
X76236Y245034D01*
X76107Y245014D01*
X75977Y245004D01*
X75885Y244979D01*
X75791Y244965D01*
X75668Y244923D01*
X75542Y244890D01*
X75455Y244850D01*
X75365Y244818D01*
X75251Y244755D01*
X75133Y244701D01*
X75055Y244646D01*
X74972Y244599D01*
X74871Y244517D01*
X74764Y244442D01*
X74697Y244374D01*
X74623Y244314D01*
X74539Y244215D01*
X74447Y244123D01*
X74393Y244044D01*
X74331Y243972D01*
X74265Y243859D01*
X74191Y243752D01*
X74134Y243635D01*
X74103Y243583D01*
X74088Y243541D01*
X74054Y243472D01*
X73160Y241313D01*
X70087Y238240D01*
X66073Y236577D01*
X61727Y236577D01*
X57713Y238240D01*
X54640Y241313D01*
X52977Y245327D01*
X52977Y249673D01*
X54640Y253687D01*
X57713Y256760D01*
X61727Y258423D01*
X66073Y258423D01*
X70087Y256760D01*
X73160Y253687D01*
X74054Y251528D01*
X74114Y251413D01*
X74166Y251294D01*
X74218Y251214D01*
X74263Y251129D01*
X74342Y251027D01*
X74414Y250918D01*
X74480Y250849D01*
X74538Y250773D01*
X74635Y250686D01*
X74724Y250592D01*
X74802Y250536D01*
X74873Y250472D01*
X74983Y250403D01*
X75088Y250326D01*
X75174Y250284D01*
X75255Y250234D01*
X75375Y250186D01*
X75492Y250129D01*
X75584Y250103D01*
X75673Y250067D01*
X75800Y250041D01*
X75926Y250006D01*
X76021Y249996D01*
X76114Y249977D01*
X76244Y249974D01*
X76374Y249961D01*
X76469Y249969D01*
X76564Y249966D01*
X76693Y249986D01*
X76823Y249996D01*
X76915Y250020D01*
X77009Y250035D01*
X77132Y250077D01*
X77258Y250110D01*
X77345Y250151D01*
X77435Y250182D01*
X77549Y250245D01*
X77667Y250299D01*
X77745Y250354D01*
X77828Y250401D01*
X77929Y250483D01*
X78036Y250558D01*
X78103Y250626D01*
X78177Y250686D01*
X78261Y250785D01*
X78353Y250877D01*
X78407Y250956D01*
X78469Y251028D01*
X78535Y251141D01*
X78609Y251248D01*
X78666Y251365D01*
X78697Y251417D01*
X78712Y251459D01*
X78746Y251528D01*
X79640Y253687D01*
X82713Y256760D01*
X86727Y258423D01*
X91073Y258423D01*
X95087Y256760D01*
X98160Y253687D01*
X99054Y251528D01*
X99114Y251413D01*
X99166Y251294D01*
X99218Y251214D01*
X99263Y251129D01*
X99342Y251027D01*
X99414Y250918D01*
X99480Y250849D01*
X99538Y250773D01*
X99635Y250686D01*
X99724Y250592D01*
X99802Y250536D01*
X99873Y250472D01*
X99983Y250403D01*
X100088Y250326D01*
X100174Y250284D01*
X100255Y250234D01*
X100375Y250186D01*
X100492Y250129D01*
X100584Y250103D01*
X100673Y250067D01*
X100800Y250041D01*
X100926Y250006D01*
X101021Y249996D01*
X101114Y249977D01*
X101244Y249974D01*
X101374Y249961D01*
X101469Y249969D01*
X101564Y249966D01*
X101693Y249986D01*
X101823Y249996D01*
X101915Y250020D01*
X102009Y250035D01*
X102132Y250077D01*
X102258Y250110D01*
X102345Y250151D01*
X102435Y250182D01*
X102549Y250245D01*
X102667Y250299D01*
X102745Y250354D01*
X102828Y250401D01*
X102929Y250483D01*
X103036Y250558D01*
X103103Y250626D01*
X103177Y250686D01*
X103261Y250785D01*
X103353Y250877D01*
X103407Y250956D01*
X103469Y251028D01*
X103535Y251141D01*
X103609Y251248D01*
X103666Y251365D01*
X103697Y251417D01*
X103712Y251459D01*
X103746Y251528D01*
X104640Y253687D01*
X107713Y256760D01*
X111727Y258423D01*
X116073Y258423D01*
X120087Y256760D01*
X123160Y253687D01*
X124823Y249673D01*
X124823Y245327D01*
X123160Y241313D01*
X120087Y238240D01*
X119932Y238176D01*
X119745Y238078D01*
X119555Y237982D01*
X119545Y237974D01*
X119533Y237967D01*
X119366Y237838D01*
X119197Y237710D01*
X119188Y237700D01*
X119177Y237692D01*
X119035Y237534D01*
X118891Y237378D01*
X118884Y237367D01*
X118876Y237358D01*
X118763Y237177D01*
X118650Y236999D01*
X118645Y236986D01*
X118638Y236975D01*
X118559Y236778D01*
X118479Y236582D01*
X118476Y236569D01*
X118471Y236557D01*
X118429Y236350D01*
X118384Y236142D01*
X118383Y236126D01*
X118381Y236116D01*
X118380Y236076D01*
X118365Y235830D01*
X118365Y188261D01*
X118384Y188047D01*
X118400Y187839D01*
X118403Y187826D01*
X118405Y187813D01*
X118461Y187608D01*
X118514Y187403D01*
X118520Y187391D01*
X118523Y187378D01*
X118613Y187189D01*
X118703Y186994D01*
X118711Y186983D01*
X118717Y186972D01*
X118839Y186800D01*
X118962Y186626D01*
X118971Y186616D01*
X118979Y186605D01*
X119131Y186458D01*
X119281Y186308D01*
X119292Y186301D01*
X119301Y186291D01*
X119477Y186173D01*
X119651Y186052D01*
X119666Y186045D01*
X119674Y186039D01*
X119711Y186023D01*
X119744Y186007D01*
X122483Y183268D01*
X123953Y179720D01*
X123953Y175828D01*
X123892Y175640D01*
X123890Y175627D01*
X123886Y175615D01*
X123859Y175405D01*
X123830Y175194D01*
X123831Y175181D01*
X123829Y175168D01*
X123840Y174957D01*
X123849Y174745D01*
X123852Y174731D01*
X123852Y174718D01*
X123900Y174515D01*
X123946Y174305D01*
X123952Y174293D01*
X123954Y174280D01*
X124038Y174087D01*
X124120Y173890D01*
X124127Y173878D01*
X124132Y173866D01*
X124250Y173689D01*
X124364Y173511D01*
X124375Y173500D01*
X124381Y173491D01*
X124408Y173462D01*
X124571Y173277D01*
X126733Y171115D01*
X126870Y171001D01*
X127001Y170882D01*
X127042Y170857D01*
X127079Y170826D01*
X127233Y170738D01*
X127384Y170644D01*
X127428Y170627D01*
X127470Y170603D01*
X127637Y170543D01*
X127802Y170478D01*
X127849Y170468D01*
X127894Y170452D01*
X128069Y170423D01*
X128243Y170388D01*
X128291Y170386D01*
X128338Y170379D01*
X128516Y170381D01*
X128693Y170377D01*
X128740Y170384D01*
X128788Y170385D01*
X128963Y170419D01*
X129138Y170446D01*
X129183Y170461D01*
X129230Y170470D01*
X129396Y170534D01*
X129564Y170592D01*
X129606Y170615D01*
X129650Y170633D01*
X129802Y170725D01*
X129957Y170811D01*
X129994Y170842D01*
X130035Y170866D01*
X130168Y170984D01*
X130306Y171097D01*
X130337Y171133D01*
X130372Y171165D01*
X130483Y171304D01*
X130598Y171439D01*
X130622Y171480D01*
X130652Y171518D01*
X130736Y171674D01*
X130825Y171828D01*
X130842Y171872D01*
X130864Y171915D01*
X130919Y172083D01*
X130981Y172250D01*
X130989Y172297D01*
X131004Y172343D01*
X131028Y172519D01*
X131059Y172694D01*
X131059Y172741D01*
X131065Y172789D01*
X131058Y172967D01*
X131057Y173144D01*
X131049Y173191D01*
X131047Y173239D01*
X131008Y173412D01*
X130976Y173587D01*
X130957Y173643D01*
X130949Y173678D01*
X130925Y173737D01*
X130875Y173882D01*
X130047Y175880D01*
X130047Y179720D01*
X131517Y183268D01*
X134232Y185983D01*
X137780Y187453D01*
X141672Y187453D01*
X141860Y187392D01*
X141873Y187390D01*
X141885Y187386D01*
X142095Y187359D01*
X142306Y187330D01*
X142319Y187331D01*
X142332Y187329D01*
X142543Y187340D01*
X142755Y187349D01*
X142769Y187352D01*
X142782Y187352D01*
X142987Y187400D01*
X143195Y187446D01*
X143207Y187452D01*
X143220Y187454D01*
X143413Y187538D01*
X143611Y187620D01*
X143622Y187627D01*
X143634Y187632D01*
X143810Y187749D01*
X143989Y187864D01*
X144000Y187875D01*
X144009Y187881D01*
X144038Y187908D01*
X144223Y188071D01*
X186092Y229940D01*
X186197Y230066D01*
X186309Y230187D01*
X186341Y230238D01*
X186380Y230285D01*
X186462Y230428D01*
X186550Y230567D01*
X186574Y230623D01*
X186604Y230676D01*
X186659Y230831D01*
X186721Y230983D01*
X186734Y231043D01*
X186755Y231101D01*
X186781Y231263D01*
X186816Y231424D01*
X186821Y231500D01*
X186828Y231545D01*
X186827Y231606D01*
X186835Y231735D01*
X186835Y235664D01*
X186816Y235876D01*
X186800Y236087D01*
X186797Y236100D01*
X186795Y236113D01*
X186739Y236318D01*
X186686Y236522D01*
X186680Y236535D01*
X186677Y236547D01*
X186587Y236737D01*
X186497Y236931D01*
X186489Y236942D01*
X186483Y236954D01*
X186361Y237125D01*
X186238Y237300D01*
X186229Y237309D01*
X186221Y237320D01*
X186069Y237469D01*
X185919Y237617D01*
X185908Y237625D01*
X185899Y237634D01*
X185722Y237753D01*
X185549Y237873D01*
X185534Y237880D01*
X185526Y237886D01*
X185489Y237902D01*
X185268Y238010D01*
X184713Y238240D01*
X181640Y241313D01*
X179977Y245327D01*
X179977Y249673D01*
X181640Y253687D01*
X184713Y256760D01*
X188727Y258423D01*
X193073Y258423D01*
X197087Y256760D01*
X200160Y253687D01*
X201054Y251528D01*
X201114Y251413D01*
X201166Y251294D01*
X201218Y251214D01*
X201263Y251129D01*
X201342Y251027D01*
X201414Y250918D01*
X201480Y250849D01*
X201538Y250773D01*
X201635Y250686D01*
X201724Y250592D01*
X201802Y250536D01*
X201873Y250472D01*
X201983Y250403D01*
X202088Y250326D01*
X202174Y250284D01*
X202255Y250234D01*
X202375Y250186D01*
X202492Y250129D01*
X202584Y250103D01*
X202673Y250067D01*
X202800Y250041D01*
X202926Y250006D01*
X203021Y249996D01*
X203114Y249977D01*
X203244Y249974D01*
X203374Y249961D01*
X203469Y249969D01*
X203564Y249966D01*
X203693Y249986D01*
X203823Y249996D01*
X203915Y250020D01*
X204009Y250035D01*
X204132Y250077D01*
X204258Y250110D01*
X204345Y250151D01*
X204435Y250182D01*
X204549Y250245D01*
X204667Y250299D01*
X204745Y250354D01*
X204828Y250401D01*
X204929Y250483D01*
X205036Y250558D01*
X205103Y250626D01*
X205177Y250686D01*
X205261Y250785D01*
X205353Y250877D01*
X205407Y250956D01*
X205469Y251028D01*
X205535Y251141D01*
X205609Y251248D01*
X205666Y251365D01*
X205697Y251417D01*
X205712Y251459D01*
X205746Y251528D01*
X206640Y253687D01*
X209713Y256760D01*
X213727Y258423D01*
X218073Y258423D01*
X222087Y256760D01*
X225160Y253687D01*
X226054Y251528D01*
X226114Y251413D01*
X226166Y251294D01*
X226218Y251214D01*
X226263Y251129D01*
X226342Y251027D01*
X226414Y250918D01*
X226480Y250849D01*
X226538Y250773D01*
X226635Y250686D01*
X226724Y250592D01*
X226802Y250536D01*
X226873Y250472D01*
X226983Y250403D01*
X227088Y250326D01*
X227174Y250284D01*
X227255Y250234D01*
X227375Y250186D01*
X227492Y250129D01*
X227584Y250103D01*
X227673Y250067D01*
X227800Y250041D01*
X227926Y250006D01*
X228021Y249996D01*
X228114Y249977D01*
X228244Y249974D01*
X228374Y249961D01*
X228469Y249969D01*
X228564Y249966D01*
X228693Y249986D01*
X228823Y249996D01*
X228915Y250020D01*
X229009Y250035D01*
X229132Y250077D01*
X229258Y250110D01*
X229345Y250151D01*
X229435Y250182D01*
X229549Y250245D01*
X229667Y250299D01*
X229745Y250354D01*
X229828Y250401D01*
X229929Y250483D01*
X230036Y250558D01*
X230103Y250626D01*
X230177Y250686D01*
X230261Y250785D01*
X230353Y250877D01*
X230407Y250956D01*
X230469Y251028D01*
X230535Y251141D01*
X230609Y251248D01*
X230666Y251365D01*
X230697Y251417D01*
X230712Y251459D01*
X230746Y251528D01*
X231640Y253687D01*
X234713Y256760D01*
X238727Y258423D01*
X243073Y258423D01*
X247087Y256760D01*
X250160Y253687D01*
X251823Y249673D01*
X251823Y245327D01*
X250160Y241313D01*
X247087Y238240D01*
X243073Y236577D01*
X238727Y236577D01*
X234713Y238240D01*
X231640Y241313D01*
X230746Y243472D01*
X230686Y243587D01*
X230634Y243706D01*
X230582Y243786D01*
X230537Y243871D01*
X230458Y243973D01*
X230386Y244082D01*
X230320Y244151D01*
X230262Y244227D01*
X230165Y244314D01*
X230075Y244408D01*
X229998Y244464D01*
X229927Y244528D01*
X229817Y244597D01*
X229712Y244674D01*
X229626Y244716D01*
X229545Y244766D01*
X229424Y244814D01*
X229308Y244871D01*
X229216Y244897D01*
X229127Y244933D01*
X228999Y244959D01*
X228874Y244994D01*
X228779Y245004D01*
X228686Y245023D01*
X228556Y245026D01*
X228426Y245039D01*
X228331Y245031D01*
X228236Y245034D01*
X228107Y245014D01*
X227977Y245004D01*
X227885Y244979D01*
X227791Y244965D01*
X227668Y244923D01*
X227542Y244890D01*
X227455Y244850D01*
X227365Y244818D01*
X227251Y244755D01*
X227133Y244701D01*
X227055Y244646D01*
X226972Y244599D01*
X226871Y244517D01*
X226764Y244442D01*
X226697Y244374D01*
X226623Y244314D01*
X226539Y244215D01*
X226447Y244123D01*
X226393Y244044D01*
X226331Y243972D01*
X226265Y243859D01*
X226191Y243752D01*
X226134Y243635D01*
X226103Y243583D01*
X226088Y243541D01*
X226054Y243472D01*
X225160Y241313D01*
X222087Y238240D01*
X221532Y238010D01*
X221345Y237912D01*
X221155Y237816D01*
X221145Y237808D01*
X221133Y237802D01*
X220965Y237672D01*
X220797Y237544D01*
X220788Y237534D01*
X220777Y237526D01*
X220635Y237369D01*
X220491Y237213D01*
X220484Y237202D01*
X220476Y237192D01*
X220363Y237012D01*
X220250Y236833D01*
X220245Y236821D01*
X220238Y236810D01*
X220159Y236613D01*
X220079Y236416D01*
X220076Y236403D01*
X220071Y236391D01*
X220029Y236184D01*
X219984Y235976D01*
X219983Y235960D01*
X219981Y235950D01*
X219980Y235911D01*
X219965Y235664D01*
X219965Y215091D01*
X219346Y213598D01*
X182608Y176860D01*
X182503Y176734D01*
X182391Y176613D01*
X182359Y176562D01*
X182320Y176515D01*
X182238Y176372D01*
X182150Y176233D01*
X182126Y176177D01*
X182096Y176124D01*
X182041Y175969D01*
X181979Y175817D01*
X181966Y175757D01*
X181945Y175699D01*
X181919Y175537D01*
X181884Y175376D01*
X181879Y175300D01*
X181872Y175255D01*
X181873Y175194D01*
X181865Y175065D01*
X181865Y167640D01*
X181880Y167463D01*
X181890Y167286D01*
X181900Y167239D01*
X181905Y167191D01*
X181951Y167020D01*
X181992Y166847D01*
X182011Y166803D01*
X182023Y166757D01*
X182099Y166597D01*
X182170Y166433D01*
X182196Y166393D01*
X182217Y166350D01*
X182320Y166206D01*
X182418Y166058D01*
X182451Y166023D01*
X182479Y165984D01*
X182606Y165860D01*
X182729Y165732D01*
X182767Y165704D01*
X182801Y165670D01*
X182949Y165571D01*
X183092Y165466D01*
X183135Y165445D01*
X183174Y165418D01*
X183337Y165346D01*
X183496Y165268D01*
X183542Y165255D01*
X183586Y165236D01*
X183759Y165194D01*
X183930Y165145D01*
X183977Y165141D01*
X184024Y165129D01*
X184201Y165118D01*
X184378Y165101D01*
X184425Y165105D01*
X184473Y165102D01*
X184650Y165122D01*
X184827Y165136D01*
X184873Y165148D01*
X184920Y165154D01*
X185091Y165205D01*
X185262Y165250D01*
X185305Y165270D01*
X185351Y165284D01*
X185510Y165365D01*
X185671Y165439D01*
X185710Y165467D01*
X185753Y165488D01*
X185894Y165595D01*
X186040Y165698D01*
X186073Y165732D01*
X186111Y165760D01*
X186232Y165891D01*
X186357Y166017D01*
X186384Y166056D01*
X186416Y166091D01*
X186512Y166242D01*
X186613Y166387D01*
X186639Y166441D01*
X186658Y166471D01*
X186682Y166530D01*
X186750Y166668D01*
X187054Y167402D01*
X213598Y193946D01*
X215091Y194565D01*
X251265Y194565D01*
X251428Y194579D01*
X251593Y194586D01*
X251652Y194599D01*
X251713Y194605D01*
X251872Y194648D01*
X252032Y194684D01*
X252089Y194707D01*
X252147Y194723D01*
X252296Y194794D01*
X252448Y194857D01*
X252499Y194890D01*
X252554Y194917D01*
X252688Y195012D01*
X252826Y195102D01*
X252884Y195153D01*
X252920Y195179D01*
X252963Y195222D01*
X253060Y195308D01*
X261892Y204140D01*
X261997Y204266D01*
X262109Y204387D01*
X262141Y204438D01*
X262180Y204485D01*
X262262Y204628D01*
X262350Y204767D01*
X262374Y204823D01*
X262404Y204876D01*
X262459Y205031D01*
X262521Y205183D01*
X262534Y205243D01*
X262555Y205301D01*
X262581Y205463D01*
X262616Y205624D01*
X262621Y205700D01*
X262628Y205745D01*
X262627Y205806D01*
X262635Y205935D01*
X262635Y216709D01*
X263254Y218202D01*
X277098Y232046D01*
X278591Y232665D01*
X312407Y232665D01*
X312584Y232680D01*
X312762Y232690D01*
X312808Y232700D01*
X312856Y232705D01*
X313027Y232751D01*
X313200Y232792D01*
X313244Y232811D01*
X313290Y232823D01*
X313451Y232899D01*
X313614Y232970D01*
X313654Y232996D01*
X313697Y233017D01*
X313841Y233120D01*
X313989Y233218D01*
X314024Y233251D01*
X314063Y233279D01*
X314187Y233406D01*
X314315Y233529D01*
X314344Y233567D01*
X314377Y233601D01*
X314476Y233749D01*
X314581Y233892D01*
X314602Y233935D01*
X314629Y233974D01*
X314701Y234137D01*
X314779Y234296D01*
X314792Y234342D01*
X314811Y234386D01*
X314853Y234559D01*
X314902Y234730D01*
X314907Y234777D01*
X314918Y234824D01*
X314929Y235001D01*
X314947Y235178D01*
X314943Y235225D01*
X314946Y235273D01*
X314925Y235450D01*
X314911Y235627D01*
X314899Y235673D01*
X314894Y235720D01*
X314842Y235891D01*
X314797Y236062D01*
X314777Y236105D01*
X314763Y236151D01*
X314683Y236310D01*
X314608Y236471D01*
X314581Y236510D01*
X314559Y236553D01*
X314452Y236694D01*
X314350Y236840D01*
X314316Y236873D01*
X314287Y236911D01*
X314157Y237032D01*
X314030Y237157D01*
X313991Y237184D01*
X313956Y237216D01*
X313806Y237312D01*
X313660Y237413D01*
X313607Y237439D01*
X313576Y237458D01*
X313518Y237482D01*
X313379Y237550D01*
X311713Y238240D01*
X308640Y241313D01*
X306977Y245327D01*
X306977Y249673D01*
X308640Y253687D01*
X311713Y256760D01*
X315727Y258423D01*
X320073Y258423D01*
X324087Y256760D01*
X327160Y253687D01*
X328054Y251528D01*
X328114Y251413D01*
X328166Y251294D01*
X328218Y251214D01*
X328263Y251129D01*
X328342Y251027D01*
X328414Y250918D01*
X328480Y250849D01*
X328538Y250773D01*
X328635Y250686D01*
X328724Y250592D01*
X328802Y250536D01*
X328873Y250472D01*
X328983Y250403D01*
X329088Y250326D01*
X329174Y250284D01*
X329255Y250234D01*
X329375Y250186D01*
X329492Y250129D01*
X329584Y250103D01*
X329673Y250067D01*
X329800Y250041D01*
X329926Y250006D01*
X330021Y249996D01*
X330114Y249977D01*
X330244Y249974D01*
X330374Y249961D01*
X330469Y249969D01*
X330564Y249966D01*
X330693Y249986D01*
X330823Y249996D01*
X330915Y250020D01*
X331009Y250035D01*
X331132Y250077D01*
X331258Y250110D01*
X331345Y250151D01*
X331435Y250182D01*
X331549Y250245D01*
X331667Y250299D01*
X331745Y250354D01*
X331828Y250401D01*
X331929Y250483D01*
X332036Y250558D01*
X332103Y250626D01*
X332177Y250686D01*
X332261Y250785D01*
X332353Y250877D01*
X332407Y250956D01*
X332469Y251028D01*
X332535Y251141D01*
X332609Y251248D01*
X332666Y251365D01*
X332697Y251417D01*
X332712Y251459D01*
X332746Y251528D01*
X333640Y253687D01*
X336713Y256760D01*
X340727Y258423D01*
X345073Y258423D01*
X345628Y258193D01*
X345829Y258130D01*
X346032Y258064D01*
X346045Y258062D01*
X346057Y258058D01*
X346267Y258031D01*
X346478Y258002D01*
X346491Y258003D01*
X346504Y258001D01*
X346716Y258012D01*
X346928Y258021D01*
X346940Y258024D01*
X346954Y258024D01*
X347160Y258072D01*
X347367Y258118D01*
X347379Y258124D01*
X347392Y258126D01*
X347585Y258210D01*
X347783Y258292D01*
X347794Y258299D01*
X347806Y258304D01*
X347982Y258421D01*
X348161Y258536D01*
X348172Y258547D01*
X348181Y258553D01*
X348210Y258580D01*
X348395Y258743D01*
X370997Y281345D01*
X372498Y282846D01*
X373991Y283465D01*
X530665Y283465D01*
X530828Y283479D01*
X530993Y283486D01*
X531052Y283499D01*
X531113Y283505D01*
X531272Y283548D01*
X531432Y283584D01*
X531489Y283607D01*
X531547Y283623D01*
X531696Y283694D01*
X531848Y283757D01*
X531899Y283790D01*
X531954Y283817D01*
X532088Y283912D01*
X532226Y284002D01*
X532284Y284053D01*
X532320Y284079D01*
X532363Y284122D01*
X532460Y284208D01*
X541292Y293040D01*
X541397Y293166D01*
X541509Y293287D01*
X541541Y293338D01*
X541580Y293385D01*
X541662Y293528D01*
X541750Y293667D01*
X541774Y293723D01*
X541804Y293776D01*
X541859Y293931D01*
X541921Y294083D01*
X541934Y294143D01*
X541955Y294201D01*
X541981Y294363D01*
X542016Y294524D01*
X542021Y294600D01*
X542028Y294645D01*
X542027Y294706D01*
X542035Y294835D01*
X542035Y356409D01*
X542654Y357902D01*
X544154Y359403D01*
X544155Y359403D01*
X560656Y375904D01*
X560740Y376004D01*
X560830Y376097D01*
X560884Y376177D01*
X560945Y376250D01*
X561010Y376363D01*
X561082Y376470D01*
X561121Y376558D01*
X561168Y376641D01*
X561212Y376763D01*
X561265Y376882D01*
X561287Y376975D01*
X561319Y377065D01*
X561340Y377194D01*
X561371Y377320D01*
X561377Y377415D01*
X561393Y377509D01*
X561391Y377640D01*
X561399Y377769D01*
X561388Y377864D01*
X561387Y377960D01*
X561362Y378087D01*
X561347Y378216D01*
X561319Y378308D01*
X561301Y378402D01*
X561254Y378523D01*
X561217Y378647D01*
X561173Y378732D01*
X561139Y378822D01*
X561071Y378933D01*
X561012Y379049D01*
X560955Y379125D01*
X560905Y379206D01*
X560819Y379304D01*
X560740Y379407D01*
X560670Y379472D01*
X560607Y379544D01*
X560505Y379624D01*
X560409Y379713D01*
X560328Y379764D01*
X560254Y379823D01*
X560139Y379884D01*
X560029Y379954D01*
X559941Y379991D01*
X559857Y380036D01*
X559733Y380076D01*
X559613Y380125D01*
X559519Y380145D01*
X559428Y380175D01*
X559300Y380193D01*
X559173Y380220D01*
X559043Y380228D01*
X558982Y380236D01*
X558938Y380235D01*
X558861Y380239D01*
X25400Y380239D01*
X25365Y380236D01*
X25331Y380238D01*
X25142Y380216D01*
X24951Y380199D01*
X24918Y380190D01*
X24884Y380186D01*
X24701Y380131D01*
X24517Y380081D01*
X24486Y380066D01*
X24453Y380056D01*
X24282Y379969D01*
X24110Y379887D01*
X24082Y379867D01*
X24051Y379852D01*
X23899Y379736D01*
X23744Y379625D01*
X23720Y379600D01*
X23693Y379580D01*
X23564Y379440D01*
X23430Y379303D01*
X23411Y379274D01*
X23387Y379248D01*
X23285Y379087D01*
X23178Y378930D01*
X23164Y378898D01*
X23146Y378869D01*
X23073Y378692D01*
X22996Y378518D01*
X22988Y378484D01*
X22975Y378452D01*
X22935Y378265D01*
X22889Y378080D01*
X22887Y378046D01*
X22880Y378012D01*
X22861Y377700D01*
X22861Y12700D01*
X22864Y12665D01*
X22862Y12631D01*
X22884Y12442D01*
X22901Y12251D01*
X22910Y12218D01*
X22914Y12184D01*
X22969Y12001D01*
X23019Y11817D01*
X23034Y11786D01*
X23044Y11753D01*
X23131Y11582D01*
X23213Y11410D01*
X23233Y11382D01*
X23248Y11351D01*
X23364Y11199D01*
X23475Y11044D01*
X23500Y11020D01*
X23520Y10993D01*
X23660Y10864D01*
X23797Y10730D01*
X23826Y10711D01*
X23852Y10687D01*
X24013Y10585D01*
X24170Y10478D01*
X24202Y10464D01*
X24231Y10446D01*
X24408Y10373D01*
X24582Y10296D01*
X24616Y10288D01*
X24648Y10275D01*
X24835Y10235D01*
X25020Y10189D01*
X25054Y10187D01*
X25088Y10180D01*
X25400Y10161D01*
X723700Y10161D01*
X723735Y10164D01*
G37*
%LPC*%
G36*
X455432Y67309D02*
X455432Y67309D01*
X452164Y68663D01*
X449663Y71164D01*
X448309Y74432D01*
X448309Y77968D01*
X449663Y81236D01*
X452164Y83737D01*
X455432Y85091D01*
X458968Y85091D01*
X462236Y83737D01*
X464965Y81008D01*
X465091Y80903D01*
X465212Y80791D01*
X465264Y80759D01*
X465310Y80720D01*
X465453Y80638D01*
X465592Y80550D01*
X465648Y80526D01*
X465701Y80496D01*
X465856Y80441D01*
X466008Y80379D01*
X466068Y80366D01*
X466126Y80345D01*
X466288Y80319D01*
X466449Y80284D01*
X466526Y80279D01*
X466570Y80272D01*
X466630Y80273D01*
X466760Y80265D01*
X467165Y80265D01*
X467328Y80279D01*
X467493Y80286D01*
X467552Y80299D01*
X467613Y80305D01*
X467772Y80348D01*
X467932Y80384D01*
X467989Y80407D01*
X468047Y80423D01*
X468196Y80494D01*
X468348Y80557D01*
X468399Y80590D01*
X468454Y80617D01*
X468588Y80712D01*
X468726Y80802D01*
X468784Y80853D01*
X468820Y80879D01*
X468863Y80922D01*
X468960Y81008D01*
X477792Y89840D01*
X477897Y89966D01*
X478009Y90087D01*
X478041Y90138D01*
X478080Y90185D01*
X478162Y90328D01*
X478250Y90467D01*
X478274Y90523D01*
X478304Y90576D01*
X478359Y90731D01*
X478421Y90883D01*
X478434Y90943D01*
X478455Y91001D01*
X478481Y91163D01*
X478516Y91324D01*
X478521Y91400D01*
X478528Y91445D01*
X478527Y91506D01*
X478535Y91635D01*
X478535Y96072D01*
X478519Y96253D01*
X478509Y96434D01*
X478499Y96477D01*
X478495Y96520D01*
X478447Y96696D01*
X478406Y96873D01*
X478388Y96913D01*
X478377Y96955D01*
X478299Y97118D01*
X478226Y97286D01*
X478202Y97322D01*
X478183Y97361D01*
X478078Y97509D01*
X477977Y97660D01*
X477947Y97692D01*
X477921Y97727D01*
X477791Y97854D01*
X477665Y97985D01*
X477630Y98011D01*
X477599Y98041D01*
X477448Y98143D01*
X477301Y98250D01*
X477262Y98269D01*
X477226Y98293D01*
X477059Y98367D01*
X476896Y98446D01*
X476854Y98458D01*
X476814Y98476D01*
X476637Y98519D01*
X476462Y98568D01*
X476419Y98572D01*
X476376Y98582D01*
X476195Y98593D01*
X476014Y98611D01*
X475970Y98607D01*
X475927Y98610D01*
X475746Y98589D01*
X475565Y98574D01*
X475523Y98563D01*
X475480Y98558D01*
X475305Y98505D01*
X475130Y98459D01*
X475081Y98437D01*
X475049Y98428D01*
X474992Y98399D01*
X474843Y98334D01*
X473703Y97753D01*
X472439Y97343D01*
X472439Y111761D01*
X479807Y111761D01*
X479807Y110685D01*
X479818Y110556D01*
X479820Y110426D01*
X479838Y110332D01*
X479847Y110237D01*
X479881Y110111D01*
X479906Y109984D01*
X479940Y109895D01*
X479965Y109802D01*
X480021Y109685D01*
X480068Y109564D01*
X480118Y109482D01*
X480159Y109396D01*
X480234Y109290D01*
X480302Y109179D01*
X480365Y109107D01*
X480421Y109030D01*
X480514Y108939D01*
X480600Y108842D01*
X480675Y108782D01*
X480743Y108716D01*
X480851Y108643D01*
X480953Y108562D01*
X481037Y108517D01*
X481116Y108464D01*
X481235Y108411D01*
X481350Y108350D01*
X481441Y108320D01*
X481528Y108281D01*
X481654Y108251D01*
X481778Y108210D01*
X481873Y108197D01*
X481966Y108175D01*
X482095Y108167D01*
X482224Y108149D01*
X482320Y108153D01*
X482415Y108147D01*
X482544Y108162D01*
X482674Y108167D01*
X482767Y108188D01*
X482862Y108199D01*
X482987Y108237D01*
X483114Y108265D01*
X483202Y108302D01*
X483293Y108329D01*
X483409Y108389D01*
X483529Y108439D01*
X483609Y108490D01*
X483694Y108534D01*
X483798Y108612D01*
X483907Y108683D01*
X484005Y108769D01*
X484053Y108806D01*
X484084Y108839D01*
X484141Y108890D01*
X485666Y110414D01*
X485771Y110540D01*
X485883Y110661D01*
X485915Y110713D01*
X485954Y110759D01*
X486036Y110902D01*
X486124Y111041D01*
X486148Y111097D01*
X486178Y111150D01*
X486233Y111305D01*
X486295Y111457D01*
X486308Y111517D01*
X486329Y111575D01*
X486355Y111737D01*
X486390Y111898D01*
X486395Y111975D01*
X486402Y112019D01*
X486401Y112080D01*
X486409Y112209D01*
X486409Y123434D01*
X487763Y126702D01*
X490264Y129203D01*
X493532Y130557D01*
X497068Y130557D01*
X500336Y129203D01*
X502837Y126702D01*
X504191Y123434D01*
X504191Y109669D01*
X504202Y109540D01*
X504204Y109410D01*
X504222Y109316D01*
X504231Y109221D01*
X504265Y109095D01*
X504290Y108968D01*
X504324Y108879D01*
X504349Y108787D01*
X504405Y108669D01*
X504452Y108548D01*
X504502Y108466D01*
X504543Y108380D01*
X504618Y108274D01*
X504686Y108163D01*
X504749Y108091D01*
X504805Y108014D01*
X504898Y107923D01*
X504984Y107826D01*
X505059Y107766D01*
X505127Y107700D01*
X505235Y107627D01*
X505337Y107546D01*
X505421Y107501D01*
X505500Y107448D01*
X505619Y107395D01*
X505734Y107334D01*
X505825Y107304D01*
X505912Y107265D01*
X506039Y107235D01*
X506162Y107194D01*
X506257Y107181D01*
X506350Y107159D01*
X506479Y107151D01*
X506608Y107133D01*
X506704Y107137D01*
X506799Y107131D01*
X506928Y107146D01*
X507058Y107151D01*
X507151Y107172D01*
X507246Y107183D01*
X507371Y107221D01*
X507498Y107249D01*
X507586Y107286D01*
X507677Y107313D01*
X507793Y107373D01*
X507913Y107423D01*
X507993Y107474D01*
X508079Y107518D01*
X508182Y107596D01*
X508291Y107667D01*
X508389Y107753D01*
X508437Y107790D01*
X508468Y107823D01*
X508526Y107874D01*
X511066Y110414D01*
X511171Y110540D01*
X511283Y110661D01*
X511315Y110712D01*
X511354Y110759D01*
X511436Y110902D01*
X511524Y111041D01*
X511548Y111097D01*
X511578Y111150D01*
X511633Y111305D01*
X511695Y111457D01*
X511708Y111517D01*
X511729Y111575D01*
X511755Y111737D01*
X511790Y111898D01*
X511795Y111975D01*
X511802Y112019D01*
X511801Y112080D01*
X511809Y112209D01*
X511809Y123434D01*
X513163Y126702D01*
X515664Y129203D01*
X518932Y130557D01*
X522468Y130557D01*
X525736Y129203D01*
X528237Y126702D01*
X529591Y123434D01*
X529591Y105166D01*
X528237Y101898D01*
X525736Y99397D01*
X522468Y98043D01*
X518932Y98043D01*
X515576Y99433D01*
X515497Y99458D01*
X515422Y99491D01*
X515283Y99525D01*
X515146Y99568D01*
X515064Y99578D01*
X514984Y99598D01*
X514842Y99607D01*
X514699Y99625D01*
X514617Y99621D01*
X514535Y99626D01*
X514393Y99609D01*
X514250Y99602D01*
X514170Y99583D01*
X514088Y99574D01*
X513950Y99532D01*
X513811Y99500D01*
X513736Y99467D01*
X513657Y99443D01*
X513529Y99378D01*
X513398Y99322D01*
X513329Y99276D01*
X513255Y99239D01*
X513141Y99152D01*
X513022Y99073D01*
X512962Y99017D01*
X512897Y98967D01*
X512800Y98862D01*
X512696Y98763D01*
X512647Y98696D01*
X512591Y98636D01*
X512514Y98515D01*
X512430Y98399D01*
X512394Y98326D01*
X512350Y98256D01*
X512295Y98124D01*
X512232Y97995D01*
X512210Y97915D01*
X512179Y97839D01*
X512149Y97699D01*
X512109Y97562D01*
X512101Y97480D01*
X512084Y97399D01*
X512069Y97153D01*
X512065Y97114D01*
X512066Y97103D01*
X512065Y97087D01*
X512065Y85760D01*
X512079Y85597D01*
X512086Y85432D01*
X512099Y85373D01*
X512105Y85312D01*
X512148Y85153D01*
X512184Y84993D01*
X512207Y84936D01*
X512223Y84878D01*
X512294Y84729D01*
X512357Y84577D01*
X512390Y84526D01*
X512417Y84471D01*
X512512Y84337D01*
X512602Y84199D01*
X512653Y84141D01*
X512679Y84105D01*
X512722Y84062D01*
X512808Y83965D01*
X516891Y79883D01*
X516891Y72517D01*
X511683Y67309D01*
X504317Y67309D01*
X499109Y72517D01*
X499109Y79883D01*
X503192Y83965D01*
X503297Y84091D01*
X503409Y84212D01*
X503441Y84264D01*
X503480Y84310D01*
X503562Y84453D01*
X503650Y84592D01*
X503674Y84648D01*
X503704Y84701D01*
X503759Y84856D01*
X503821Y85008D01*
X503834Y85068D01*
X503855Y85125D01*
X503881Y85288D01*
X503916Y85449D01*
X503921Y85526D01*
X503928Y85570D01*
X503927Y85630D01*
X503935Y85760D01*
X503935Y97087D01*
X503928Y97170D01*
X503930Y97252D01*
X503908Y97393D01*
X503895Y97536D01*
X503874Y97616D01*
X503861Y97697D01*
X503815Y97832D01*
X503777Y97970D01*
X503741Y98045D01*
X503715Y98123D01*
X503645Y98248D01*
X503583Y98377D01*
X503536Y98444D01*
X503495Y98516D01*
X503405Y98626D01*
X503321Y98743D01*
X503262Y98800D01*
X503210Y98864D01*
X503101Y98957D01*
X502999Y99057D01*
X502930Y99103D01*
X502868Y99157D01*
X502744Y99229D01*
X502626Y99309D01*
X502550Y99342D01*
X502479Y99384D01*
X502345Y99433D01*
X502214Y99491D01*
X502134Y99511D01*
X502056Y99539D01*
X501915Y99564D01*
X501776Y99598D01*
X501694Y99603D01*
X501613Y99617D01*
X501470Y99617D01*
X501327Y99626D01*
X501245Y99616D01*
X501163Y99616D01*
X501022Y99590D01*
X500880Y99574D01*
X500801Y99550D01*
X500720Y99535D01*
X500487Y99455D01*
X500449Y99443D01*
X500439Y99438D01*
X500424Y99433D01*
X497068Y98043D01*
X493532Y98043D01*
X490176Y99433D01*
X490097Y99458D01*
X490022Y99491D01*
X489883Y99525D01*
X489746Y99568D01*
X489664Y99578D01*
X489584Y99598D01*
X489442Y99607D01*
X489299Y99625D01*
X489217Y99621D01*
X489135Y99626D01*
X488993Y99609D01*
X488850Y99602D01*
X488770Y99583D01*
X488688Y99574D01*
X488550Y99532D01*
X488411Y99500D01*
X488336Y99467D01*
X488257Y99443D01*
X488129Y99378D01*
X487998Y99322D01*
X487929Y99276D01*
X487855Y99239D01*
X487741Y99152D01*
X487622Y99073D01*
X487562Y99017D01*
X487497Y98967D01*
X487400Y98862D01*
X487296Y98763D01*
X487247Y98696D01*
X487191Y98636D01*
X487114Y98515D01*
X487030Y98399D01*
X486994Y98326D01*
X486950Y98256D01*
X486895Y98124D01*
X486832Y97995D01*
X486810Y97915D01*
X486779Y97839D01*
X486749Y97699D01*
X486709Y97562D01*
X486701Y97480D01*
X486684Y97399D01*
X486669Y97153D01*
X486665Y97114D01*
X486666Y97103D01*
X486665Y97087D01*
X486665Y88091D01*
X486046Y86598D01*
X472202Y72754D01*
X470709Y72135D01*
X466760Y72135D01*
X466597Y72121D01*
X466432Y72114D01*
X466373Y72101D01*
X466312Y72095D01*
X466153Y72052D01*
X465993Y72016D01*
X465936Y71993D01*
X465878Y71977D01*
X465729Y71906D01*
X465577Y71843D01*
X465526Y71810D01*
X465471Y71783D01*
X465337Y71688D01*
X465199Y71598D01*
X465141Y71547D01*
X465105Y71521D01*
X465062Y71478D01*
X464965Y71392D01*
X462236Y68663D01*
X458968Y67309D01*
X455432Y67309D01*
G37*
%LPD*%
%LPC*%
G36*
X644706Y47624D02*
X644706Y47624D01*
X639175Y49916D01*
X634941Y54149D01*
X632650Y59681D01*
X632650Y92719D01*
X634941Y98251D01*
X639175Y102484D01*
X644706Y104776D01*
X650694Y104776D01*
X656225Y102484D01*
X660459Y98251D01*
X662750Y92719D01*
X662750Y59681D01*
X660459Y54149D01*
X656225Y49916D01*
X650694Y47624D01*
X644706Y47624D01*
G37*
%LPD*%
%LPC*%
G36*
X644706Y136524D02*
X644706Y136524D01*
X639175Y138816D01*
X634941Y143049D01*
X632650Y148581D01*
X632650Y181619D01*
X634941Y187151D01*
X639175Y191384D01*
X644706Y193676D01*
X650694Y193676D01*
X656225Y191384D01*
X660459Y187151D01*
X662750Y181619D01*
X662750Y148581D01*
X660459Y143049D01*
X656225Y138816D01*
X650694Y136524D01*
X644706Y136524D01*
G37*
%LPD*%
%LPC*%
G36*
X644706Y225424D02*
X644706Y225424D01*
X639175Y227716D01*
X634941Y231949D01*
X632650Y237481D01*
X632650Y270519D01*
X634941Y276051D01*
X639175Y280284D01*
X644706Y282576D01*
X650694Y282576D01*
X656225Y280284D01*
X660459Y276051D01*
X662750Y270519D01*
X662750Y237481D01*
X660459Y231949D01*
X656225Y227716D01*
X650694Y225424D01*
X644706Y225424D01*
G37*
%LPD*%
%LPC*%
G36*
X597716Y225424D02*
X597716Y225424D01*
X592185Y227716D01*
X587951Y231949D01*
X585660Y237481D01*
X585660Y270519D01*
X587951Y276051D01*
X592185Y280284D01*
X597716Y282576D01*
X603704Y282576D01*
X609235Y280284D01*
X613469Y276051D01*
X615760Y270519D01*
X615760Y237481D01*
X613469Y231949D01*
X609235Y227716D01*
X603704Y225424D01*
X597716Y225424D01*
G37*
%LPD*%
%LPC*%
G36*
X597716Y47624D02*
X597716Y47624D01*
X592185Y49916D01*
X587951Y54149D01*
X585660Y59681D01*
X585660Y92719D01*
X587951Y98251D01*
X592185Y102484D01*
X597716Y104776D01*
X603704Y104776D01*
X609235Y102484D01*
X613469Y98251D01*
X615760Y92719D01*
X615760Y59681D01*
X613469Y54149D01*
X609235Y49916D01*
X603704Y47624D01*
X597716Y47624D01*
G37*
%LPD*%
%LPC*%
G36*
X691696Y47624D02*
X691696Y47624D01*
X686165Y49916D01*
X681931Y54149D01*
X679640Y59681D01*
X679640Y92719D01*
X681931Y98251D01*
X686165Y102484D01*
X691696Y104776D01*
X697684Y104776D01*
X703215Y102484D01*
X707449Y98251D01*
X709740Y92719D01*
X709740Y59681D01*
X707449Y54149D01*
X703215Y49916D01*
X697684Y47624D01*
X691696Y47624D01*
G37*
%LPD*%
%LPC*%
G36*
X256613Y300975D02*
X256613Y300975D01*
X250540Y303491D01*
X245891Y308140D01*
X243375Y314213D01*
X243375Y320787D01*
X245891Y326860D01*
X250540Y331509D01*
X256613Y334025D01*
X263187Y334025D01*
X269260Y331509D01*
X273909Y326860D01*
X276425Y320787D01*
X276425Y314213D01*
X273909Y308140D01*
X269260Y303491D01*
X263187Y300975D01*
X256613Y300975D01*
G37*
%LPD*%
%LPC*%
G36*
X168613Y300975D02*
X168613Y300975D01*
X162540Y303491D01*
X157891Y308140D01*
X155375Y314213D01*
X155375Y320787D01*
X157891Y326860D01*
X162540Y331509D01*
X168613Y334025D01*
X175187Y334025D01*
X181260Y331509D01*
X185909Y326860D01*
X188425Y320787D01*
X188425Y314213D01*
X185909Y308140D01*
X181260Y303491D01*
X175187Y300975D01*
X168613Y300975D01*
G37*
%LPD*%
%LPC*%
G36*
X129613Y300975D02*
X129613Y300975D01*
X123540Y303491D01*
X118891Y308140D01*
X116375Y314213D01*
X116375Y320787D01*
X118891Y326860D01*
X123540Y331509D01*
X129613Y334025D01*
X136187Y334025D01*
X142260Y331509D01*
X146909Y326860D01*
X149425Y320787D01*
X149425Y314213D01*
X146909Y308140D01*
X142260Y303491D01*
X136187Y300975D01*
X129613Y300975D01*
G37*
%LPD*%
%LPC*%
G36*
X41613Y300975D02*
X41613Y300975D01*
X35540Y303491D01*
X30891Y308140D01*
X28375Y314213D01*
X28375Y320787D01*
X30891Y326860D01*
X35540Y331509D01*
X41613Y334025D01*
X48187Y334025D01*
X54260Y331509D01*
X58909Y326860D01*
X61425Y320787D01*
X61425Y314213D01*
X58909Y308140D01*
X54260Y303491D01*
X48187Y300975D01*
X41613Y300975D01*
G37*
%LPD*%
%LPC*%
G36*
X295613Y300975D02*
X295613Y300975D01*
X289540Y303491D01*
X284891Y308140D01*
X282375Y314213D01*
X282375Y320787D01*
X284891Y326860D01*
X289540Y331509D01*
X295613Y334025D01*
X302187Y334025D01*
X308260Y331509D01*
X312909Y326860D01*
X315425Y320787D01*
X315425Y314213D01*
X312909Y308140D01*
X308260Y303491D01*
X302187Y300975D01*
X295613Y300975D01*
G37*
%LPD*%
%LPC*%
G36*
X383613Y300975D02*
X383613Y300975D01*
X377540Y303491D01*
X372891Y308140D01*
X370375Y314213D01*
X370375Y320787D01*
X372891Y326860D01*
X377540Y331509D01*
X383613Y334025D01*
X390187Y334025D01*
X396260Y331509D01*
X400909Y326860D01*
X403425Y320787D01*
X403425Y314213D01*
X400909Y308140D01*
X396260Y303491D01*
X390187Y300975D01*
X383613Y300975D01*
G37*
%LPD*%
%LPC*%
G36*
X422613Y300975D02*
X422613Y300975D01*
X416540Y303491D01*
X411891Y308140D01*
X409375Y314213D01*
X409375Y320787D01*
X411891Y326860D01*
X416540Y331509D01*
X422613Y334025D01*
X429187Y334025D01*
X435260Y331509D01*
X439909Y326860D01*
X442425Y320787D01*
X442425Y314213D01*
X439909Y308140D01*
X435260Y303491D01*
X429187Y300975D01*
X422613Y300975D01*
G37*
%LPD*%
%LPC*%
G36*
X510613Y300975D02*
X510613Y300975D01*
X504540Y303491D01*
X499891Y308140D01*
X497375Y314213D01*
X497375Y320787D01*
X499891Y326860D01*
X504540Y331509D01*
X510613Y334025D01*
X517187Y334025D01*
X523260Y331509D01*
X527909Y326860D01*
X530425Y320787D01*
X530425Y314213D01*
X527909Y308140D01*
X523260Y303491D01*
X517187Y300975D01*
X510613Y300975D01*
G37*
%LPD*%
%LPC*%
G36*
X367030Y78739D02*
X367030Y78739D01*
X356107Y78739D01*
X356107Y85442D01*
X356376Y87140D01*
X356908Y88775D01*
X357688Y90307D01*
X358699Y91698D01*
X359914Y92913D01*
X361305Y93924D01*
X362837Y94705D01*
X362879Y94718D01*
X362883Y94720D01*
X362887Y94721D01*
X363093Y94810D01*
X363293Y94895D01*
X363296Y94897D01*
X363300Y94899D01*
X363487Y95022D01*
X363669Y95141D01*
X363672Y95144D01*
X363676Y95147D01*
X363831Y95295D01*
X363996Y95451D01*
X363999Y95455D01*
X364002Y95458D01*
X364129Y95631D01*
X364263Y95813D01*
X364265Y95818D01*
X364268Y95821D01*
X364361Y96011D01*
X364462Y96217D01*
X364464Y96222D01*
X364465Y96225D01*
X364523Y96429D01*
X364587Y96650D01*
X364587Y96655D01*
X364588Y96659D01*
X364610Y96878D01*
X364633Y97098D01*
X364633Y97102D01*
X364633Y97107D01*
X364615Y97332D01*
X364599Y97547D01*
X364598Y97551D01*
X364598Y97556D01*
X364542Y97768D01*
X364487Y97983D01*
X364485Y97987D01*
X364484Y97991D01*
X364391Y98191D01*
X364299Y98392D01*
X364296Y98396D01*
X364295Y98400D01*
X364166Y98583D01*
X364042Y98762D01*
X364039Y98765D01*
X364036Y98769D01*
X363877Y98927D01*
X363723Y99080D01*
X363720Y99083D01*
X363717Y99086D01*
X363534Y99212D01*
X363354Y99338D01*
X363350Y99339D01*
X363346Y99342D01*
X363292Y99368D01*
X360763Y101898D01*
X359409Y105166D01*
X359409Y123434D01*
X360763Y126702D01*
X363264Y129203D01*
X366532Y130557D01*
X370068Y130557D01*
X373336Y129203D01*
X375837Y126702D01*
X377191Y123434D01*
X377191Y105166D01*
X375837Y101898D01*
X373336Y99397D01*
X372180Y98918D01*
X372153Y98904D01*
X372124Y98894D01*
X371954Y98800D01*
X371781Y98709D01*
X371756Y98691D01*
X371730Y98676D01*
X371579Y98553D01*
X371425Y98434D01*
X371404Y98411D01*
X371381Y98392D01*
X371254Y98244D01*
X371123Y98099D01*
X371107Y98073D01*
X371087Y98050D01*
X370988Y97883D01*
X370885Y97717D01*
X370874Y97689D01*
X370858Y97663D01*
X370790Y97479D01*
X370718Y97299D01*
X370712Y97269D01*
X370702Y97240D01*
X370667Y97049D01*
X370628Y96858D01*
X370627Y96827D01*
X370622Y96797D01*
X370622Y96603D01*
X370617Y96407D01*
X370622Y96377D01*
X370622Y96347D01*
X370656Y96155D01*
X370686Y95962D01*
X370696Y95934D01*
X370702Y95904D01*
X370769Y95721D01*
X370833Y95537D01*
X370847Y95510D01*
X370858Y95482D01*
X370957Y95313D01*
X371052Y95143D01*
X371071Y95120D01*
X371087Y95094D01*
X371214Y94946D01*
X371337Y94795D01*
X371360Y94775D01*
X371380Y94752D01*
X371531Y94629D01*
X371680Y94503D01*
X371706Y94487D01*
X371729Y94468D01*
X371999Y94309D01*
X372755Y93924D01*
X374146Y92913D01*
X375361Y91698D01*
X376372Y90307D01*
X377152Y88775D01*
X377684Y87140D01*
X377953Y85442D01*
X377953Y78739D01*
X367030Y78739D01*
X367030Y78739D01*
G37*
%LPD*%
%LPC*%
G36*
X68579Y55879D02*
X68579Y55879D01*
X68579Y84752D01*
X71842Y84103D01*
X75066Y83125D01*
X78179Y81836D01*
X81150Y80248D01*
X83952Y78376D01*
X86556Y76238D01*
X88938Y73856D01*
X91076Y71252D01*
X92948Y68450D01*
X94536Y65479D01*
X95825Y62366D01*
X96803Y59142D01*
X97452Y55879D01*
X68579Y55879D01*
G37*
%LPD*%
%LPC*%
G36*
X29548Y55879D02*
X29548Y55879D01*
X30197Y59142D01*
X31175Y62366D01*
X32464Y65479D01*
X34052Y68450D01*
X35924Y71252D01*
X38062Y73856D01*
X40444Y76238D01*
X43048Y78376D01*
X45850Y80248D01*
X48821Y81836D01*
X51934Y83125D01*
X55158Y84103D01*
X58421Y84752D01*
X58421Y55879D01*
X29548Y55879D01*
G37*
%LPD*%
%LPC*%
G36*
X68579Y45721D02*
X68579Y45721D01*
X97452Y45721D01*
X96803Y42458D01*
X95825Y39234D01*
X94536Y36121D01*
X92948Y33150D01*
X91076Y30348D01*
X88938Y27744D01*
X86556Y25362D01*
X83952Y23224D01*
X81150Y21352D01*
X78179Y19764D01*
X75066Y18475D01*
X71842Y17497D01*
X68579Y16848D01*
X68579Y45721D01*
G37*
%LPD*%
%LPC*%
G36*
X677458Y309597D02*
X677458Y309597D01*
X674234Y310575D01*
X671121Y311864D01*
X668150Y313452D01*
X665348Y315324D01*
X662744Y317462D01*
X660362Y319844D01*
X658224Y322448D01*
X656352Y325250D01*
X654764Y328221D01*
X653475Y331334D01*
X652497Y334558D01*
X651848Y337821D01*
X680721Y337821D01*
X680721Y308948D01*
X677458Y309597D01*
G37*
%LPD*%
%LPC*%
G36*
X55158Y17497D02*
X55158Y17497D01*
X51934Y18475D01*
X48821Y19764D01*
X45850Y21352D01*
X43048Y23224D01*
X40444Y25362D01*
X38062Y27744D01*
X35924Y30348D01*
X34052Y33150D01*
X32464Y36121D01*
X31175Y39234D01*
X30197Y42458D01*
X29548Y45721D01*
X58421Y45721D01*
X58421Y16848D01*
X55158Y17497D01*
G37*
%LPD*%
%LPC*%
G36*
X468132Y174243D02*
X468132Y174243D01*
X464864Y175597D01*
X462363Y178098D01*
X461009Y181366D01*
X461009Y199634D01*
X462363Y202902D01*
X464864Y205403D01*
X468132Y206757D01*
X471668Y206757D01*
X474936Y205403D01*
X477437Y202902D01*
X478791Y199634D01*
X478791Y181366D01*
X477437Y178098D01*
X474936Y175597D01*
X471668Y174243D01*
X468132Y174243D01*
G37*
%LPD*%
%LPC*%
G36*
X417332Y174243D02*
X417332Y174243D01*
X414064Y175597D01*
X411563Y178098D01*
X410209Y181366D01*
X410209Y199634D01*
X411563Y202902D01*
X414064Y205403D01*
X417332Y206757D01*
X420868Y206757D01*
X424136Y205403D01*
X426637Y202902D01*
X427991Y199634D01*
X427991Y181366D01*
X426637Y178098D01*
X424136Y175597D01*
X420868Y174243D01*
X417332Y174243D01*
G37*
%LPD*%
%LPC*%
G36*
X518932Y174243D02*
X518932Y174243D01*
X515664Y175597D01*
X513163Y178098D01*
X511809Y181366D01*
X511809Y199634D01*
X513163Y202902D01*
X515664Y205403D01*
X518932Y206757D01*
X522468Y206757D01*
X525736Y205403D01*
X528237Y202902D01*
X529591Y199634D01*
X529591Y181366D01*
X528237Y178098D01*
X525736Y175597D01*
X522468Y174243D01*
X518932Y174243D01*
G37*
%LPD*%
%LPC*%
G36*
X442732Y174243D02*
X442732Y174243D01*
X439464Y175597D01*
X436963Y178098D01*
X435609Y181366D01*
X435609Y199634D01*
X436963Y202902D01*
X439464Y205403D01*
X442732Y206757D01*
X446268Y206757D01*
X449536Y205403D01*
X452037Y202902D01*
X453391Y199634D01*
X453391Y181366D01*
X452037Y178098D01*
X449536Y175597D01*
X446268Y174243D01*
X442732Y174243D01*
G37*
%LPD*%
%LPC*%
G36*
X391932Y174243D02*
X391932Y174243D01*
X388664Y175597D01*
X386163Y178098D01*
X384809Y181366D01*
X384809Y199634D01*
X386163Y202902D01*
X388664Y205403D01*
X391932Y206757D01*
X395468Y206757D01*
X398736Y205403D01*
X401237Y202902D01*
X402591Y199634D01*
X402591Y181366D01*
X401237Y178098D01*
X398736Y175597D01*
X395468Y174243D01*
X391932Y174243D01*
G37*
%LPD*%
%LPC*%
G36*
X417332Y98043D02*
X417332Y98043D01*
X414064Y99397D01*
X411563Y101898D01*
X410209Y105166D01*
X410209Y123434D01*
X411563Y126702D01*
X414064Y129203D01*
X417332Y130557D01*
X420868Y130557D01*
X424136Y129203D01*
X426637Y126702D01*
X427991Y123434D01*
X427991Y105166D01*
X426637Y101898D01*
X424136Y99397D01*
X420868Y98043D01*
X417332Y98043D01*
G37*
%LPD*%
%LPC*%
G36*
X112380Y91947D02*
X112380Y91947D01*
X108832Y93417D01*
X106117Y96132D01*
X104647Y99680D01*
X104647Y103520D01*
X106117Y107068D01*
X108832Y109783D01*
X112380Y111253D01*
X116220Y111253D01*
X119768Y109783D01*
X122483Y107068D01*
X123953Y103520D01*
X123953Y99680D01*
X122483Y96132D01*
X119768Y93417D01*
X116220Y91947D01*
X112380Y91947D01*
G37*
%LPD*%
%LPC*%
G36*
X625093Y332993D02*
X625093Y332993D01*
X625093Y348489D01*
X629875Y348489D01*
X640589Y337775D01*
X640589Y332993D01*
X625093Y332993D01*
G37*
%LPD*%
%LPC*%
G36*
X604011Y332993D02*
X604011Y332993D01*
X604011Y337775D01*
X614725Y348489D01*
X619507Y348489D01*
X619507Y332993D01*
X604011Y332993D01*
G37*
%LPD*%
%LPC*%
G36*
X625093Y311911D02*
X625093Y311911D01*
X625093Y327407D01*
X640589Y327407D01*
X640589Y322625D01*
X629875Y311911D01*
X625093Y311911D01*
G37*
%LPD*%
%LPC*%
G36*
X614725Y311911D02*
X614725Y311911D01*
X604011Y322625D01*
X604011Y327407D01*
X619507Y327407D01*
X619507Y311911D01*
X614725Y311911D01*
G37*
%LPD*%
%LPC*%
G36*
X472439Y116839D02*
X472439Y116839D01*
X472439Y131257D01*
X473703Y130847D01*
X475092Y130139D01*
X476354Y129222D01*
X477456Y128120D01*
X478373Y126858D01*
X479081Y125469D01*
X479563Y123986D01*
X479807Y122446D01*
X479807Y116839D01*
X472439Y116839D01*
G37*
%LPD*%
%LPC*%
G36*
X548639Y116839D02*
X548639Y116839D01*
X548639Y131257D01*
X549903Y130847D01*
X551292Y130139D01*
X552554Y129222D01*
X553656Y128120D01*
X554573Y126858D01*
X555281Y125469D01*
X555763Y123986D01*
X556007Y122446D01*
X556007Y116839D01*
X548639Y116839D01*
G37*
%LPD*%
%LPC*%
G36*
X548639Y111761D02*
X548639Y111761D01*
X556007Y111761D01*
X556007Y106154D01*
X555763Y104614D01*
X555281Y103131D01*
X554573Y101742D01*
X553656Y100480D01*
X552554Y99378D01*
X551292Y98461D01*
X549903Y97753D01*
X548639Y97343D01*
X548639Y111761D01*
G37*
%LPD*%
%LPC*%
G36*
X459993Y116839D02*
X459993Y116839D01*
X459993Y122446D01*
X460237Y123986D01*
X460719Y125469D01*
X461427Y126858D01*
X462344Y128120D01*
X463446Y129222D01*
X464708Y130139D01*
X466097Y130847D01*
X467361Y131257D01*
X467361Y116839D01*
X459993Y116839D01*
G37*
%LPD*%
%LPC*%
G36*
X536193Y116839D02*
X536193Y116839D01*
X536193Y122446D01*
X536437Y123986D01*
X536919Y125469D01*
X537627Y126858D01*
X538544Y128120D01*
X539646Y129222D01*
X540908Y130139D01*
X542297Y130847D01*
X543561Y131257D01*
X543561Y116839D01*
X536193Y116839D01*
G37*
%LPD*%
%LPC*%
G36*
X542297Y97753D02*
X542297Y97753D01*
X540908Y98461D01*
X539646Y99378D01*
X538544Y100480D01*
X537627Y101742D01*
X536919Y103131D01*
X536437Y104614D01*
X536193Y106154D01*
X536193Y111761D01*
X543561Y111761D01*
X543561Y97343D01*
X542297Y97753D01*
G37*
%LPD*%
%LPC*%
G36*
X466097Y97753D02*
X466097Y97753D01*
X464708Y98461D01*
X463446Y99378D01*
X462344Y100480D01*
X461427Y101742D01*
X460719Y103131D01*
X460237Y104614D01*
X459993Y106154D01*
X459993Y111761D01*
X467361Y111761D01*
X467361Y97343D01*
X466097Y97753D01*
G37*
%LPD*%
%LPC*%
G36*
X91439Y104139D02*
X91439Y104139D01*
X91439Y111993D01*
X92995Y111487D01*
X94492Y110725D01*
X95850Y109738D01*
X97038Y108550D01*
X98025Y107192D01*
X98787Y105695D01*
X99293Y104139D01*
X91439Y104139D01*
G37*
%LPD*%
%LPC*%
G36*
X91439Y99061D02*
X91439Y99061D01*
X99293Y99061D01*
X98787Y97505D01*
X98025Y96008D01*
X97038Y94650D01*
X95850Y93462D01*
X94492Y92475D01*
X92995Y91713D01*
X91439Y91207D01*
X91439Y99061D01*
G37*
%LPD*%
%LPC*%
G36*
X78507Y104139D02*
X78507Y104139D01*
X79013Y105695D01*
X79775Y107192D01*
X80762Y108550D01*
X81950Y109738D01*
X83308Y110725D01*
X84805Y111487D01*
X86361Y111993D01*
X86361Y104139D01*
X78507Y104139D01*
G37*
%LPD*%
%LPC*%
G36*
X84805Y91713D02*
X84805Y91713D01*
X83308Y92475D01*
X81950Y93462D01*
X80762Y94650D01*
X79775Y96008D01*
X79013Y97505D01*
X78507Y99061D01*
X86361Y99061D01*
X86361Y91207D01*
X84805Y91713D01*
G37*
%LPD*%
%LPC*%
G36*
X332739Y116839D02*
X332739Y116839D01*
X332739Y124207D01*
X334303Y124207D01*
X340107Y118403D01*
X340107Y116839D01*
X332739Y116839D01*
G37*
%LPD*%
%LPC*%
G36*
X180339Y40639D02*
X180339Y40639D01*
X180339Y48007D01*
X181903Y48007D01*
X187707Y42203D01*
X187707Y40639D01*
X180339Y40639D01*
G37*
%LPD*%
%LPC*%
G36*
X294639Y116839D02*
X294639Y116839D01*
X294639Y124207D01*
X296203Y124207D01*
X302007Y118403D01*
X302007Y116839D01*
X294639Y116839D01*
G37*
%LPD*%
%LPC*%
G36*
X294639Y53339D02*
X294639Y53339D01*
X294639Y60707D01*
X296203Y60707D01*
X302007Y54903D01*
X302007Y53339D01*
X294639Y53339D01*
G37*
%LPD*%
%LPC*%
G36*
X256539Y116839D02*
X256539Y116839D01*
X256539Y124207D01*
X258103Y124207D01*
X263907Y118403D01*
X263907Y116839D01*
X256539Y116839D01*
G37*
%LPD*%
%LPC*%
G36*
X244093Y116839D02*
X244093Y116839D01*
X244093Y118403D01*
X249897Y124207D01*
X251461Y124207D01*
X251461Y116839D01*
X244093Y116839D01*
G37*
%LPD*%
%LPC*%
G36*
X282193Y116839D02*
X282193Y116839D01*
X282193Y118403D01*
X287997Y124207D01*
X289561Y124207D01*
X289561Y116839D01*
X282193Y116839D01*
G37*
%LPD*%
%LPC*%
G36*
X320293Y116839D02*
X320293Y116839D01*
X320293Y118403D01*
X326097Y124207D01*
X327661Y124207D01*
X327661Y116839D01*
X320293Y116839D01*
G37*
%LPD*%
%LPC*%
G36*
X282193Y53339D02*
X282193Y53339D01*
X282193Y54903D01*
X287997Y60707D01*
X289561Y60707D01*
X289561Y53339D01*
X282193Y53339D01*
G37*
%LPD*%
%LPC*%
G36*
X167893Y40639D02*
X167893Y40639D01*
X167893Y42203D01*
X173697Y48007D01*
X175261Y48007D01*
X175261Y40639D01*
X167893Y40639D01*
G37*
%LPD*%
%LPC*%
G36*
X256539Y104393D02*
X256539Y104393D01*
X256539Y111761D01*
X263907Y111761D01*
X263907Y110197D01*
X258103Y104393D01*
X256539Y104393D01*
G37*
%LPD*%
%LPC*%
G36*
X332739Y104393D02*
X332739Y104393D01*
X332739Y111761D01*
X340107Y111761D01*
X340107Y110197D01*
X334303Y104393D01*
X332739Y104393D01*
G37*
%LPD*%
%LPC*%
G36*
X294639Y104393D02*
X294639Y104393D01*
X294639Y111761D01*
X302007Y111761D01*
X302007Y110197D01*
X296203Y104393D01*
X294639Y104393D01*
G37*
%LPD*%
%LPC*%
G36*
X180339Y28193D02*
X180339Y28193D01*
X180339Y35561D01*
X187707Y35561D01*
X187707Y33997D01*
X181903Y28193D01*
X180339Y28193D01*
G37*
%LPD*%
%LPC*%
G36*
X326097Y104393D02*
X326097Y104393D01*
X320293Y110197D01*
X320293Y111761D01*
X327661Y111761D01*
X327661Y104393D01*
X326097Y104393D01*
G37*
%LPD*%
%LPC*%
G36*
X249897Y104393D02*
X249897Y104393D01*
X244093Y110197D01*
X244093Y111761D01*
X251461Y111761D01*
X251461Y104393D01*
X249897Y104393D01*
G37*
%LPD*%
%LPC*%
G36*
X287997Y104393D02*
X287997Y104393D01*
X282193Y110197D01*
X282193Y111761D01*
X289561Y111761D01*
X289561Y104393D01*
X287997Y104393D01*
G37*
%LPD*%
%LPC*%
G36*
X173697Y28193D02*
X173697Y28193D01*
X167893Y33997D01*
X167893Y35561D01*
X175261Y35561D01*
X175261Y28193D01*
X173697Y28193D01*
G37*
%LPD*%
%LPC*%
G36*
X63499Y50799D02*
X63499Y50799D01*
X63499Y50801D01*
X63501Y50801D01*
X63501Y50799D01*
X63499Y50799D01*
G37*
%LPD*%
D10*
X228600Y38100D03*
D11*
X177800Y38100D03*
D12*
X622300Y330200D03*
X571500Y330200D03*
D13*
X88900Y101600D03*
X114300Y101600D03*
X114300Y177800D03*
X88900Y177800D03*
X139700Y101600D03*
X165100Y101600D03*
X139700Y177800D03*
X165100Y177800D03*
D14*
X368300Y121666D02*
X368300Y106934D01*
X393700Y106934D02*
X393700Y121666D01*
X520700Y121666D02*
X520700Y106934D01*
X546100Y106934D02*
X546100Y121666D01*
X419100Y121666D02*
X419100Y106934D01*
X444500Y106934D02*
X444500Y121666D01*
X495300Y121666D02*
X495300Y106934D01*
X469900Y106934D02*
X469900Y121666D01*
X546100Y183134D02*
X546100Y197866D01*
X520700Y197866D02*
X520700Y183134D01*
X495300Y183134D02*
X495300Y197866D01*
X469900Y197866D02*
X469900Y183134D01*
X444500Y183134D02*
X444500Y197866D01*
X419100Y197866D02*
X419100Y183134D01*
X393700Y183134D02*
X393700Y197866D01*
X368300Y197866D02*
X368300Y183134D01*
D15*
X394970Y84582D02*
X394970Y67818D01*
X367030Y67818D02*
X367030Y84582D01*
D16*
X215900Y63500D03*
X215900Y165100D03*
D17*
X63900Y247500D03*
X88900Y247500D03*
X113900Y247500D03*
D18*
X44900Y317500D03*
X132900Y317500D03*
D19*
X685800Y342900D03*
D17*
X190900Y247500D03*
X215900Y247500D03*
X240900Y247500D03*
D18*
X171900Y317500D03*
X259900Y317500D03*
D20*
X292100Y215900D03*
X292100Y114300D03*
D10*
X254000Y165100D03*
D20*
X254000Y114300D03*
D16*
X330200Y114300D03*
X330200Y215900D03*
D10*
X457200Y76200D03*
D21*
X508000Y76200D03*
D19*
X63500Y50800D03*
D17*
X317900Y247500D03*
X342900Y247500D03*
X367900Y247500D03*
D18*
X298900Y317500D03*
X386900Y317500D03*
D22*
X600710Y267526D02*
X600710Y240475D01*
X647700Y240475D02*
X647700Y267526D01*
X694690Y267526D02*
X694690Y240475D01*
X694690Y178626D02*
X694690Y151575D01*
X647700Y151575D02*
X647700Y178626D01*
X600710Y178626D02*
X600710Y151575D01*
D10*
X342900Y50800D03*
D11*
X292100Y50800D03*
D22*
X694690Y62675D02*
X694690Y89726D01*
X647700Y89726D02*
X647700Y62675D01*
X600710Y62675D02*
X600710Y89726D01*
D17*
X444900Y247500D03*
X469900Y247500D03*
X494900Y247500D03*
D18*
X425900Y317500D03*
X513900Y317500D03*
D23*
X367030Y76200D02*
X351361Y82137D01*
X326819Y117681D01*
X469900Y114300D02*
X469900Y127000D01*
X457200Y139700D01*
X355600Y139700D01*
X330200Y114300D01*
X546100Y114300D02*
X546100Y127000D01*
X533400Y139700D01*
X482600Y139700D01*
X469900Y127000D01*
X533400Y139900D02*
X571300Y177800D01*
X533400Y139900D02*
X533400Y139700D01*
X330200Y114300D02*
X292100Y114300D01*
X326819Y117681D02*
X330200Y114300D01*
X292100Y114300D02*
X254000Y114300D01*
X254000Y63500D01*
X88900Y50800D02*
X88900Y38100D01*
X88900Y50800D02*
X88900Y101600D01*
X88900Y50800D02*
X63500Y50800D01*
X266700Y50800D02*
X292100Y50800D01*
X266700Y50800D02*
X254000Y63500D01*
X571300Y177800D02*
X571300Y241100D01*
D24*
X571500Y241300D01*
D23*
X571500Y279400D01*
X177800Y38100D02*
X88900Y38100D01*
X571500Y279400D02*
X622300Y330200D01*
X635000Y342900D02*
X685800Y342900D01*
X635000Y342900D02*
X622300Y330200D01*
X254000Y63500D02*
X232065Y63500D01*
X207935Y39370D01*
X179070Y39370D02*
X177800Y38100D01*
X179070Y39370D02*
X207935Y39370D01*
X88900Y177800D02*
X88900Y247500D01*
X165100Y127000D02*
X165100Y101600D01*
X165100Y127000D02*
X139700Y127000D01*
X88900Y177800D01*
X165100Y127000D02*
X177800Y127000D01*
X190500Y139700D01*
X190500Y165100D01*
X215900Y190500D01*
X254000Y190500D01*
X368300Y190500D02*
X368300Y203200D01*
X381000Y215900D01*
X266700Y203200D02*
X254000Y190500D01*
X266700Y203200D02*
X266700Y215900D01*
X279400Y228600D01*
X368300Y228600D02*
X381000Y215900D01*
X368300Y228600D02*
X279400Y228600D01*
X469900Y228600D02*
X469900Y247500D01*
X469900Y228600D02*
X457200Y215900D01*
X381000Y215900D01*
X177800Y63500D02*
X139700Y101600D01*
X177800Y63500D02*
X215900Y63500D01*
X546100Y177800D02*
X546100Y190500D01*
X546100Y177800D02*
X520700Y152400D01*
X330200Y152400D02*
X292100Y190500D01*
X292100Y215900D01*
X330200Y152400D02*
X520700Y152400D01*
X266700Y165100D02*
X254000Y165100D01*
X266700Y165100D02*
X292100Y190500D01*
X254000Y165100D02*
X215900Y165100D01*
X114300Y177800D02*
X114300Y247100D01*
X113900Y247500D01*
X114300Y177800D02*
X139700Y152400D01*
X165100Y152400D01*
X177800Y165100D01*
X177800Y177800D01*
X215900Y215900D01*
X215900Y247500D01*
X330200Y215900D02*
X330200Y190500D01*
X355600Y165100D02*
X482600Y165100D01*
X495300Y177800D01*
X495300Y190500D01*
X355600Y165100D02*
X330200Y190500D01*
X394970Y88900D02*
X431800Y88900D01*
X444500Y101600D01*
X444500Y114300D01*
X394970Y88900D02*
X394970Y76200D01*
X482600Y101600D02*
X495300Y114300D01*
X482600Y101600D02*
X482600Y88900D01*
X469900Y76200D01*
X457200Y76200D01*
X508000Y101600D02*
X520700Y114300D01*
X508000Y101600D02*
X508000Y76200D01*
X190900Y229000D02*
X139700Y177800D01*
X190900Y229000D02*
X190900Y247500D01*
X228600Y38100D02*
X711200Y38100D01*
X723700Y50600D01*
X723700Y136090D02*
X694690Y165100D01*
X723700Y136090D02*
X723700Y50600D01*
X345692Y50800D02*
X342900Y50800D01*
X345692Y50800D02*
X346454Y50038D01*
X545338Y50038D01*
X571500Y76200D01*
X571500Y114300D01*
X600710Y143510D01*
X600710Y165100D01*
X374800Y279400D02*
X342900Y247500D01*
X546100Y355600D02*
X569978Y379478D01*
X711200Y379478D01*
X725478Y365200D01*
X725478Y306378D01*
X711200Y292100D02*
X702310Y292100D01*
X533400Y279400D02*
X374800Y279400D01*
X711200Y292100D02*
X725478Y306378D01*
X702310Y292100D02*
X694690Y280924D01*
X694690Y254000D01*
X546100Y292100D02*
X533400Y279400D01*
X546100Y292100D02*
X546100Y355600D01*
X464100Y266700D02*
X444900Y247500D01*
X533400Y266700D02*
X571500Y304800D01*
X571500Y330200D01*
X533400Y266700D02*
X464100Y266700D01*
M02*
