G04 EAGLE Gerber RS-274X export*
G75*
%MOMM*%
%FSLAX34Y34*%
%LPD*%
%INSilkscreen Top*%
%IPPOS*%
%AMOC8*
5,1,8,0,0,1.08239X$1,22.5*%
G01*
%ADD10C,0.152400*%
%ADD11R,0.508000X2.540000*%
%ADD12C,0.127000*%
%ADD13C,0.254000*%
%ADD14C,0.203200*%
%ADD15R,0.609600X0.863600*%
%ADD16R,2.540000X0.508000*%
%ADD17C,0.177800*%

G36*
X70981Y102677D02*
X70981Y102677D01*
X71029Y102691D01*
X71119Y102708D01*
X72126Y103060D01*
X72170Y103085D01*
X72254Y103122D01*
X73157Y103690D01*
X73194Y103724D01*
X73268Y103778D01*
X74022Y104532D01*
X74051Y104574D01*
X74111Y104643D01*
X74678Y105546D01*
X74697Y105593D01*
X74740Y105674D01*
X75092Y106681D01*
X75100Y106731D01*
X75123Y106819D01*
X75243Y107879D01*
X75239Y107929D01*
X75243Y108021D01*
X75123Y109081D01*
X75109Y109129D01*
X75092Y109219D01*
X74740Y110226D01*
X74715Y110270D01*
X74678Y110354D01*
X74111Y111257D01*
X74077Y111294D01*
X74022Y111368D01*
X73268Y112122D01*
X73226Y112151D01*
X73157Y112211D01*
X72254Y112778D01*
X72207Y112797D01*
X72126Y112840D01*
X71119Y113192D01*
X71069Y113200D01*
X70981Y113223D01*
X69921Y113343D01*
X69871Y113339D01*
X69779Y113343D01*
X68719Y113223D01*
X68671Y113209D01*
X68581Y113192D01*
X67574Y112840D01*
X67530Y112815D01*
X67446Y112778D01*
X66543Y112211D01*
X66506Y112177D01*
X66432Y112122D01*
X65678Y111368D01*
X65649Y111326D01*
X65590Y111257D01*
X65022Y110354D01*
X65003Y110307D01*
X64960Y110226D01*
X64608Y109219D01*
X64600Y109169D01*
X64577Y109081D01*
X64457Y108021D01*
X64461Y107971D01*
X64457Y107879D01*
X64577Y106819D01*
X64591Y106771D01*
X64608Y106681D01*
X64960Y105674D01*
X64985Y105630D01*
X65022Y105546D01*
X65590Y104643D01*
X65624Y104606D01*
X65678Y104532D01*
X66432Y103778D01*
X66474Y103749D01*
X66543Y103690D01*
X67446Y103122D01*
X67493Y103103D01*
X67574Y103060D01*
X68581Y102708D01*
X68631Y102700D01*
X68719Y102677D01*
X69779Y102557D01*
X69829Y102561D01*
X69921Y102557D01*
X70981Y102677D01*
G37*
D10*
X170180Y13970D02*
X232410Y13970D01*
X166370Y17780D02*
X166370Y58420D01*
X170180Y62230D02*
X232410Y62230D01*
X240030Y21590D02*
X232410Y13970D01*
X220980Y21336D02*
X220980Y27686D01*
X217678Y24384D02*
X224282Y24384D01*
X218440Y38100D02*
X209550Y38100D01*
X209550Y50292D01*
X204470Y50292D01*
X204470Y25908D01*
X209550Y25908D01*
X209550Y38100D01*
X196850Y38100D02*
X187960Y38100D01*
X232410Y62230D02*
X240030Y54610D01*
X240030Y21590D01*
X170180Y13970D02*
X170058Y13972D01*
X169936Y13978D01*
X169814Y13988D01*
X169693Y14001D01*
X169572Y14019D01*
X169452Y14040D01*
X169332Y14066D01*
X169214Y14095D01*
X169096Y14127D01*
X168979Y14164D01*
X168864Y14204D01*
X168750Y14248D01*
X168638Y14296D01*
X168527Y14347D01*
X168418Y14402D01*
X168310Y14460D01*
X168205Y14522D01*
X168102Y14587D01*
X168000Y14655D01*
X167901Y14727D01*
X167805Y14801D01*
X167710Y14879D01*
X167619Y14960D01*
X167529Y15043D01*
X167443Y15129D01*
X167360Y15219D01*
X167279Y15310D01*
X167201Y15405D01*
X167127Y15501D01*
X167055Y15600D01*
X166987Y15702D01*
X166922Y15805D01*
X166860Y15910D01*
X166802Y16018D01*
X166747Y16127D01*
X166696Y16238D01*
X166648Y16350D01*
X166604Y16464D01*
X166564Y16579D01*
X166527Y16696D01*
X166495Y16814D01*
X166466Y16932D01*
X166440Y17052D01*
X166419Y17172D01*
X166401Y17293D01*
X166388Y17414D01*
X166378Y17536D01*
X166372Y17658D01*
X166370Y17780D01*
X166370Y58420D02*
X166372Y58542D01*
X166378Y58664D01*
X166388Y58786D01*
X166401Y58907D01*
X166419Y59028D01*
X166440Y59148D01*
X166466Y59268D01*
X166495Y59386D01*
X166527Y59504D01*
X166564Y59621D01*
X166604Y59736D01*
X166648Y59850D01*
X166696Y59962D01*
X166747Y60073D01*
X166802Y60182D01*
X166860Y60290D01*
X166922Y60395D01*
X166987Y60498D01*
X167055Y60600D01*
X167127Y60699D01*
X167201Y60795D01*
X167279Y60890D01*
X167360Y60981D01*
X167443Y61071D01*
X167529Y61157D01*
X167619Y61240D01*
X167710Y61321D01*
X167805Y61399D01*
X167901Y61473D01*
X168000Y61545D01*
X168102Y61613D01*
X168205Y61678D01*
X168310Y61740D01*
X168418Y61798D01*
X168527Y61853D01*
X168638Y61904D01*
X168750Y61952D01*
X168864Y61996D01*
X168979Y62036D01*
X169096Y62073D01*
X169214Y62105D01*
X169332Y62134D01*
X169452Y62160D01*
X169572Y62181D01*
X169693Y62199D01*
X169814Y62212D01*
X169936Y62222D01*
X170058Y62228D01*
X170180Y62230D01*
D11*
X198120Y38100D03*
D12*
X218403Y-1905D02*
X220943Y-1905D01*
X218403Y-1905D02*
X218303Y-1903D01*
X218204Y-1897D01*
X218104Y-1887D01*
X218006Y-1874D01*
X217907Y-1856D01*
X217810Y-1835D01*
X217714Y-1810D01*
X217618Y-1781D01*
X217524Y-1748D01*
X217431Y-1712D01*
X217340Y-1672D01*
X217250Y-1628D01*
X217162Y-1581D01*
X217076Y-1531D01*
X216992Y-1477D01*
X216910Y-1420D01*
X216831Y-1360D01*
X216753Y-1296D01*
X216679Y-1230D01*
X216607Y-1161D01*
X216538Y-1089D01*
X216472Y-1015D01*
X216408Y-937D01*
X216348Y-858D01*
X216291Y-776D01*
X216237Y-692D01*
X216187Y-606D01*
X216140Y-518D01*
X216096Y-428D01*
X216056Y-337D01*
X216020Y-244D01*
X215987Y-150D01*
X215958Y-54D01*
X215933Y42D01*
X215912Y139D01*
X215894Y238D01*
X215881Y336D01*
X215871Y436D01*
X215865Y535D01*
X215863Y635D01*
X215863Y6985D01*
X215865Y7085D01*
X215871Y7184D01*
X215881Y7284D01*
X215894Y7382D01*
X215912Y7481D01*
X215933Y7578D01*
X215958Y7674D01*
X215987Y7770D01*
X216020Y7864D01*
X216056Y7957D01*
X216096Y8048D01*
X216140Y8138D01*
X216187Y8226D01*
X216237Y8312D01*
X216291Y8396D01*
X216348Y8478D01*
X216408Y8557D01*
X216472Y8635D01*
X216538Y8709D01*
X216607Y8781D01*
X216679Y8850D01*
X216753Y8916D01*
X216831Y8980D01*
X216910Y9040D01*
X216992Y9097D01*
X217076Y9151D01*
X217162Y9201D01*
X217250Y9248D01*
X217340Y9292D01*
X217431Y9332D01*
X217524Y9368D01*
X217618Y9401D01*
X217714Y9430D01*
X217810Y9455D01*
X217907Y9476D01*
X218006Y9494D01*
X218104Y9507D01*
X218204Y9517D01*
X218303Y9523D01*
X218403Y9525D01*
X220943Y9525D01*
X225425Y6985D02*
X228600Y9525D01*
X228600Y-1905D01*
X225425Y-1905D02*
X231775Y-1905D01*
D13*
X615950Y304800D02*
X628650Y304800D01*
X577850Y304800D02*
X565150Y304800D01*
X571500Y311150D02*
X571500Y298450D01*
D10*
X553720Y304800D02*
X546100Y312420D01*
X546100Y347980D01*
X553720Y355600D01*
X640080Y355600D01*
X647700Y347980D01*
X647700Y312420D01*
X640080Y304800D01*
D14*
X595291Y304207D02*
X591735Y304207D01*
X591640Y304209D01*
X591544Y304215D01*
X591449Y304224D01*
X591355Y304238D01*
X591261Y304255D01*
X591168Y304276D01*
X591075Y304301D01*
X590984Y304329D01*
X590894Y304361D01*
X590806Y304397D01*
X590719Y304436D01*
X590633Y304479D01*
X590550Y304525D01*
X590468Y304574D01*
X590388Y304627D01*
X590311Y304683D01*
X590235Y304741D01*
X590163Y304803D01*
X590093Y304868D01*
X590025Y304936D01*
X589960Y305006D01*
X589898Y305078D01*
X589840Y305154D01*
X589784Y305231D01*
X589731Y305311D01*
X589682Y305393D01*
X589636Y305476D01*
X589593Y305562D01*
X589554Y305649D01*
X589518Y305737D01*
X589486Y305827D01*
X589458Y305918D01*
X589433Y306011D01*
X589412Y306104D01*
X589395Y306198D01*
X589381Y306292D01*
X589372Y306387D01*
X589366Y306483D01*
X589364Y306578D01*
X589365Y306578D02*
X589365Y307171D01*
X589367Y307278D01*
X589373Y307385D01*
X589382Y307491D01*
X589396Y307597D01*
X589413Y307703D01*
X589434Y307808D01*
X589459Y307912D01*
X589488Y308015D01*
X589520Y308117D01*
X589556Y308218D01*
X589596Y308317D01*
X589639Y308415D01*
X589686Y308511D01*
X589736Y308606D01*
X589789Y308699D01*
X589846Y308789D01*
X589906Y308878D01*
X589969Y308964D01*
X590035Y309048D01*
X590105Y309130D01*
X590177Y309209D01*
X590252Y309285D01*
X590330Y309359D01*
X590410Y309429D01*
X590493Y309497D01*
X590578Y309562D01*
X590665Y309623D01*
X590755Y309682D01*
X590847Y309737D01*
X590940Y309789D01*
X591036Y309837D01*
X591133Y309882D01*
X591231Y309924D01*
X591331Y309961D01*
X591433Y309996D01*
X591535Y310026D01*
X591639Y310053D01*
X591743Y310076D01*
X591849Y310095D01*
X591955Y310110D01*
X592061Y310122D01*
X592168Y310130D01*
X592275Y310134D01*
X592381Y310134D01*
X592488Y310130D01*
X592595Y310122D01*
X592701Y310110D01*
X592807Y310095D01*
X592913Y310076D01*
X593017Y310053D01*
X593121Y310026D01*
X593223Y309996D01*
X593325Y309961D01*
X593425Y309924D01*
X593523Y309882D01*
X593620Y309837D01*
X593716Y309789D01*
X593810Y309737D01*
X593901Y309682D01*
X593991Y309623D01*
X594078Y309562D01*
X594163Y309497D01*
X594246Y309429D01*
X594326Y309359D01*
X594404Y309285D01*
X594479Y309209D01*
X594551Y309130D01*
X594621Y309048D01*
X594687Y308964D01*
X594750Y308878D01*
X594810Y308789D01*
X594867Y308699D01*
X594920Y308606D01*
X594970Y308511D01*
X595017Y308415D01*
X595060Y308317D01*
X595100Y308218D01*
X595136Y308117D01*
X595168Y308015D01*
X595197Y307912D01*
X595222Y307808D01*
X595243Y307703D01*
X595260Y307597D01*
X595274Y307491D01*
X595283Y307385D01*
X595289Y307278D01*
X595291Y307171D01*
X595291Y304207D01*
X595289Y304072D01*
X595283Y303936D01*
X595274Y303801D01*
X595260Y303667D01*
X595243Y303532D01*
X595222Y303399D01*
X595197Y303265D01*
X595168Y303133D01*
X595135Y303002D01*
X595099Y302871D01*
X595059Y302742D01*
X595015Y302614D01*
X594968Y302487D01*
X594917Y302361D01*
X594863Y302238D01*
X594805Y302115D01*
X594743Y301995D01*
X594678Y301876D01*
X594610Y301759D01*
X594538Y301644D01*
X594464Y301531D01*
X594386Y301420D01*
X594304Y301312D01*
X594220Y301206D01*
X594133Y301102D01*
X594043Y301001D01*
X593950Y300903D01*
X593854Y300807D01*
X593756Y300714D01*
X593655Y300624D01*
X593551Y300537D01*
X593445Y300453D01*
X593337Y300371D01*
X593226Y300293D01*
X593113Y300219D01*
X592998Y300147D01*
X592881Y300079D01*
X592762Y300014D01*
X592642Y299952D01*
X592519Y299894D01*
X592396Y299840D01*
X592270Y299789D01*
X592143Y299742D01*
X592015Y299698D01*
X591886Y299658D01*
X591755Y299622D01*
X591624Y299589D01*
X591492Y299560D01*
X591358Y299535D01*
X591225Y299514D01*
X591090Y299497D01*
X590956Y299483D01*
X590821Y299474D01*
X590685Y299468D01*
X590550Y299466D01*
X603758Y299466D02*
X600202Y310134D01*
X607314Y310134D02*
X603758Y299466D01*
D12*
X607949Y286385D02*
X609854Y286385D01*
X609854Y280035D01*
X606044Y280035D01*
X605944Y280037D01*
X605845Y280043D01*
X605745Y280053D01*
X605647Y280066D01*
X605548Y280084D01*
X605451Y280105D01*
X605355Y280130D01*
X605259Y280159D01*
X605165Y280192D01*
X605072Y280228D01*
X604981Y280268D01*
X604891Y280312D01*
X604803Y280359D01*
X604717Y280409D01*
X604633Y280463D01*
X604551Y280520D01*
X604472Y280580D01*
X604394Y280644D01*
X604320Y280710D01*
X604248Y280779D01*
X604179Y280851D01*
X604113Y280925D01*
X604049Y281003D01*
X603989Y281082D01*
X603932Y281164D01*
X603878Y281248D01*
X603828Y281334D01*
X603781Y281422D01*
X603737Y281512D01*
X603697Y281603D01*
X603661Y281696D01*
X603628Y281790D01*
X603599Y281886D01*
X603574Y281982D01*
X603553Y282079D01*
X603535Y282178D01*
X603522Y282276D01*
X603512Y282376D01*
X603506Y282475D01*
X603504Y282575D01*
X603504Y288925D01*
X603506Y289025D01*
X603512Y289124D01*
X603522Y289224D01*
X603535Y289322D01*
X603553Y289421D01*
X603574Y289518D01*
X603599Y289614D01*
X603628Y289710D01*
X603661Y289804D01*
X603697Y289897D01*
X603737Y289988D01*
X603781Y290078D01*
X603828Y290166D01*
X603878Y290252D01*
X603932Y290336D01*
X603989Y290418D01*
X604049Y290497D01*
X604113Y290575D01*
X604179Y290649D01*
X604248Y290721D01*
X604320Y290790D01*
X604394Y290856D01*
X604472Y290920D01*
X604551Y290980D01*
X604633Y291037D01*
X604717Y291091D01*
X604803Y291141D01*
X604891Y291188D01*
X604981Y291232D01*
X605072Y291272D01*
X605165Y291308D01*
X605259Y291341D01*
X605355Y291370D01*
X605451Y291395D01*
X605548Y291416D01*
X605647Y291434D01*
X605745Y291447D01*
X605845Y291457D01*
X605944Y291463D01*
X606044Y291465D01*
X609854Y291465D01*
X615315Y288925D02*
X618490Y291465D01*
X618490Y280035D01*
X615315Y280035D02*
X621665Y280035D01*
D14*
X177800Y165100D02*
X76200Y165100D01*
X76200Y114300D02*
X177800Y114300D01*
X177800Y165100D01*
X76200Y165100D02*
X76200Y149860D01*
X76200Y129540D02*
X76200Y114300D01*
X76200Y129540D02*
X76447Y129543D01*
X76695Y129552D01*
X76942Y129567D01*
X77188Y129588D01*
X77434Y129615D01*
X77679Y129648D01*
X77924Y129687D01*
X78167Y129732D01*
X78409Y129783D01*
X78650Y129840D01*
X78889Y129902D01*
X79127Y129971D01*
X79363Y130045D01*
X79597Y130125D01*
X79829Y130210D01*
X80059Y130302D01*
X80287Y130398D01*
X80512Y130501D01*
X80735Y130608D01*
X80955Y130722D01*
X81172Y130840D01*
X81387Y130964D01*
X81598Y131093D01*
X81806Y131227D01*
X82011Y131366D01*
X82212Y131510D01*
X82410Y131658D01*
X82604Y131812D01*
X82794Y131970D01*
X82980Y132133D01*
X83162Y132300D01*
X83340Y132472D01*
X83514Y132648D01*
X83684Y132828D01*
X83849Y133013D01*
X84009Y133201D01*
X84165Y133393D01*
X84317Y133589D01*
X84463Y133788D01*
X84605Y133991D01*
X84741Y134198D01*
X84873Y134407D01*
X84999Y134620D01*
X85120Y134836D01*
X85236Y135054D01*
X85346Y135276D01*
X85451Y135500D01*
X85551Y135726D01*
X85645Y135955D01*
X85733Y136186D01*
X85816Y136420D01*
X85893Y136655D01*
X85964Y136892D01*
X86030Y137130D01*
X86089Y137370D01*
X86143Y137612D01*
X86191Y137855D01*
X86233Y138098D01*
X86269Y138343D01*
X86299Y138589D01*
X86323Y138835D01*
X86341Y139082D01*
X86353Y139329D01*
X86359Y139576D01*
X86359Y139824D01*
X86353Y140071D01*
X86341Y140318D01*
X86323Y140565D01*
X86299Y140811D01*
X86269Y141057D01*
X86233Y141302D01*
X86191Y141545D01*
X86143Y141788D01*
X86089Y142030D01*
X86030Y142270D01*
X85964Y142508D01*
X85893Y142745D01*
X85816Y142980D01*
X85733Y143214D01*
X85645Y143445D01*
X85551Y143674D01*
X85451Y143900D01*
X85346Y144124D01*
X85236Y144346D01*
X85120Y144564D01*
X84999Y144780D01*
X84873Y144993D01*
X84741Y145202D01*
X84605Y145409D01*
X84463Y145612D01*
X84317Y145811D01*
X84165Y146007D01*
X84009Y146199D01*
X83849Y146387D01*
X83684Y146572D01*
X83514Y146752D01*
X83340Y146928D01*
X83162Y147100D01*
X82980Y147267D01*
X82794Y147430D01*
X82604Y147588D01*
X82410Y147742D01*
X82212Y147890D01*
X82011Y148034D01*
X81806Y148173D01*
X81598Y148307D01*
X81387Y148436D01*
X81172Y148560D01*
X80955Y148678D01*
X80735Y148792D01*
X80512Y148899D01*
X80287Y149002D01*
X80059Y149098D01*
X79829Y149190D01*
X79597Y149275D01*
X79363Y149355D01*
X79127Y149429D01*
X78889Y149498D01*
X78650Y149560D01*
X78409Y149617D01*
X78167Y149668D01*
X77924Y149713D01*
X77679Y149752D01*
X77434Y149785D01*
X77188Y149812D01*
X76942Y149833D01*
X76695Y149848D01*
X76447Y149857D01*
X76200Y149860D01*
D12*
X64967Y139065D02*
X64967Y134239D01*
X64431Y134239D02*
X65504Y134239D01*
X65504Y139065D02*
X64431Y139065D01*
X69060Y134239D02*
X70132Y134239D01*
X69060Y134239D02*
X68995Y134241D01*
X68931Y134247D01*
X68867Y134257D01*
X68803Y134270D01*
X68741Y134288D01*
X68680Y134309D01*
X68620Y134333D01*
X68562Y134362D01*
X68505Y134394D01*
X68451Y134429D01*
X68399Y134467D01*
X68349Y134509D01*
X68302Y134553D01*
X68258Y134600D01*
X68216Y134650D01*
X68178Y134702D01*
X68143Y134756D01*
X68111Y134813D01*
X68082Y134871D01*
X68058Y134931D01*
X68037Y134992D01*
X68019Y135054D01*
X68006Y135118D01*
X67996Y135182D01*
X67990Y135246D01*
X67988Y135311D01*
X67987Y135311D02*
X67987Y137993D01*
X67988Y137993D02*
X67990Y138058D01*
X67996Y138122D01*
X68006Y138186D01*
X68019Y138250D01*
X68037Y138312D01*
X68058Y138373D01*
X68082Y138433D01*
X68111Y138491D01*
X68143Y138548D01*
X68178Y138602D01*
X68216Y138654D01*
X68258Y138704D01*
X68302Y138751D01*
X68349Y138795D01*
X68399Y138837D01*
X68451Y138875D01*
X68505Y138910D01*
X68562Y138942D01*
X68620Y138971D01*
X68680Y138995D01*
X68741Y139016D01*
X68803Y139034D01*
X68867Y139047D01*
X68931Y139057D01*
X68995Y139063D01*
X69060Y139065D01*
X70132Y139065D01*
X72588Y137993D02*
X73928Y139065D01*
X73928Y134239D01*
X72588Y134239D02*
X75269Y134239D01*
D10*
X355600Y181610D02*
X558800Y181610D01*
X558800Y123190D02*
X355600Y123190D01*
X558800Y123190D02*
X558800Y181610D01*
X355600Y181610D02*
X355600Y162560D01*
X355600Y142240D02*
X355600Y123190D01*
X355600Y142240D02*
X355847Y142243D01*
X356095Y142252D01*
X356342Y142267D01*
X356588Y142288D01*
X356834Y142315D01*
X357079Y142348D01*
X357324Y142387D01*
X357567Y142432D01*
X357809Y142483D01*
X358050Y142540D01*
X358289Y142602D01*
X358527Y142671D01*
X358763Y142745D01*
X358997Y142825D01*
X359229Y142910D01*
X359459Y143002D01*
X359687Y143098D01*
X359912Y143201D01*
X360135Y143308D01*
X360355Y143422D01*
X360572Y143540D01*
X360787Y143664D01*
X360998Y143793D01*
X361206Y143927D01*
X361411Y144066D01*
X361612Y144210D01*
X361810Y144358D01*
X362004Y144512D01*
X362194Y144670D01*
X362380Y144833D01*
X362562Y145000D01*
X362740Y145172D01*
X362914Y145348D01*
X363084Y145528D01*
X363249Y145713D01*
X363409Y145901D01*
X363565Y146093D01*
X363717Y146289D01*
X363863Y146488D01*
X364005Y146691D01*
X364141Y146898D01*
X364273Y147107D01*
X364399Y147320D01*
X364520Y147536D01*
X364636Y147754D01*
X364746Y147976D01*
X364851Y148200D01*
X364951Y148426D01*
X365045Y148655D01*
X365133Y148886D01*
X365216Y149120D01*
X365293Y149355D01*
X365364Y149592D01*
X365430Y149830D01*
X365489Y150070D01*
X365543Y150312D01*
X365591Y150555D01*
X365633Y150798D01*
X365669Y151043D01*
X365699Y151289D01*
X365723Y151535D01*
X365741Y151782D01*
X365753Y152029D01*
X365759Y152276D01*
X365759Y152524D01*
X365753Y152771D01*
X365741Y153018D01*
X365723Y153265D01*
X365699Y153511D01*
X365669Y153757D01*
X365633Y154002D01*
X365591Y154245D01*
X365543Y154488D01*
X365489Y154730D01*
X365430Y154970D01*
X365364Y155208D01*
X365293Y155445D01*
X365216Y155680D01*
X365133Y155914D01*
X365045Y156145D01*
X364951Y156374D01*
X364851Y156600D01*
X364746Y156824D01*
X364636Y157046D01*
X364520Y157264D01*
X364399Y157480D01*
X364273Y157693D01*
X364141Y157902D01*
X364005Y158109D01*
X363863Y158312D01*
X363717Y158511D01*
X363565Y158707D01*
X363409Y158899D01*
X363249Y159087D01*
X363084Y159272D01*
X362914Y159452D01*
X362740Y159628D01*
X362562Y159800D01*
X362380Y159967D01*
X362194Y160130D01*
X362004Y160288D01*
X361810Y160442D01*
X361612Y160590D01*
X361411Y160734D01*
X361206Y160873D01*
X360998Y161007D01*
X360787Y161136D01*
X360572Y161260D01*
X360355Y161378D01*
X360135Y161492D01*
X359912Y161599D01*
X359687Y161702D01*
X359459Y161798D01*
X359229Y161890D01*
X358997Y161975D01*
X358763Y162055D01*
X358527Y162129D01*
X358289Y162198D01*
X358050Y162260D01*
X357809Y162317D01*
X357567Y162368D01*
X357324Y162413D01*
X357079Y162452D01*
X356834Y162485D01*
X356588Y162512D01*
X356342Y162533D01*
X356095Y162548D01*
X355847Y162557D01*
X355600Y162560D01*
D12*
X329311Y122555D02*
X329311Y111125D01*
X328041Y111125D02*
X330581Y111125D01*
X330581Y122555D02*
X328041Y122555D01*
X337783Y111125D02*
X340323Y111125D01*
X337783Y111125D02*
X337683Y111127D01*
X337584Y111133D01*
X337484Y111143D01*
X337386Y111156D01*
X337287Y111174D01*
X337190Y111195D01*
X337094Y111220D01*
X336998Y111249D01*
X336904Y111282D01*
X336811Y111318D01*
X336720Y111358D01*
X336630Y111402D01*
X336542Y111449D01*
X336456Y111499D01*
X336372Y111553D01*
X336290Y111610D01*
X336211Y111670D01*
X336133Y111734D01*
X336059Y111800D01*
X335987Y111869D01*
X335918Y111941D01*
X335852Y112015D01*
X335788Y112093D01*
X335728Y112172D01*
X335671Y112254D01*
X335617Y112338D01*
X335567Y112424D01*
X335520Y112512D01*
X335476Y112602D01*
X335436Y112693D01*
X335400Y112786D01*
X335367Y112880D01*
X335338Y112976D01*
X335313Y113072D01*
X335292Y113169D01*
X335274Y113268D01*
X335261Y113366D01*
X335251Y113466D01*
X335245Y113565D01*
X335243Y113665D01*
X335243Y120015D01*
X335245Y120115D01*
X335251Y120214D01*
X335261Y120314D01*
X335274Y120412D01*
X335292Y120511D01*
X335313Y120608D01*
X335338Y120704D01*
X335367Y120800D01*
X335400Y120894D01*
X335436Y120987D01*
X335476Y121078D01*
X335520Y121168D01*
X335567Y121256D01*
X335617Y121342D01*
X335671Y121426D01*
X335728Y121508D01*
X335788Y121587D01*
X335852Y121665D01*
X335918Y121739D01*
X335987Y121811D01*
X336059Y121880D01*
X336133Y121946D01*
X336211Y122010D01*
X336290Y122070D01*
X336372Y122127D01*
X336456Y122181D01*
X336542Y122231D01*
X336630Y122278D01*
X336720Y122322D01*
X336811Y122362D01*
X336904Y122398D01*
X336998Y122431D01*
X337094Y122460D01*
X337190Y122485D01*
X337287Y122506D01*
X337386Y122524D01*
X337484Y122537D01*
X337584Y122547D01*
X337683Y122553D01*
X337783Y122555D01*
X340323Y122555D01*
X348298Y122556D02*
X348402Y122554D01*
X348507Y122548D01*
X348611Y122539D01*
X348714Y122526D01*
X348817Y122508D01*
X348919Y122488D01*
X349021Y122463D01*
X349121Y122435D01*
X349221Y122403D01*
X349319Y122367D01*
X349416Y122328D01*
X349511Y122286D01*
X349605Y122240D01*
X349697Y122190D01*
X349787Y122138D01*
X349875Y122082D01*
X349961Y122022D01*
X350045Y121960D01*
X350126Y121895D01*
X350205Y121827D01*
X350282Y121755D01*
X350355Y121682D01*
X350427Y121605D01*
X350495Y121526D01*
X350560Y121445D01*
X350622Y121361D01*
X350682Y121275D01*
X350738Y121187D01*
X350790Y121097D01*
X350840Y121005D01*
X350886Y120911D01*
X350928Y120816D01*
X350967Y120719D01*
X351003Y120621D01*
X351035Y120521D01*
X351063Y120421D01*
X351088Y120319D01*
X351108Y120217D01*
X351126Y120114D01*
X351139Y120011D01*
X351148Y119907D01*
X351154Y119802D01*
X351156Y119698D01*
X348298Y122555D02*
X348180Y122553D01*
X348061Y122547D01*
X347943Y122538D01*
X347826Y122525D01*
X347709Y122507D01*
X347592Y122487D01*
X347476Y122462D01*
X347361Y122434D01*
X347248Y122401D01*
X347135Y122366D01*
X347023Y122326D01*
X346913Y122284D01*
X346804Y122237D01*
X346696Y122187D01*
X346591Y122134D01*
X346487Y122077D01*
X346385Y122017D01*
X346285Y121954D01*
X346187Y121887D01*
X346091Y121818D01*
X345998Y121745D01*
X345907Y121669D01*
X345818Y121591D01*
X345732Y121509D01*
X345649Y121425D01*
X345568Y121339D01*
X345491Y121249D01*
X345416Y121158D01*
X345344Y121064D01*
X345275Y120967D01*
X345210Y120869D01*
X345147Y120768D01*
X345088Y120665D01*
X345032Y120561D01*
X344980Y120455D01*
X344931Y120347D01*
X344886Y120238D01*
X344844Y120127D01*
X344806Y120015D01*
X350203Y117476D02*
X350279Y117551D01*
X350354Y117630D01*
X350425Y117711D01*
X350494Y117795D01*
X350559Y117881D01*
X350621Y117969D01*
X350681Y118059D01*
X350737Y118151D01*
X350790Y118246D01*
X350839Y118342D01*
X350885Y118440D01*
X350928Y118539D01*
X350967Y118640D01*
X351002Y118742D01*
X351034Y118845D01*
X351062Y118949D01*
X351087Y119054D01*
X351108Y119161D01*
X351125Y119267D01*
X351138Y119374D01*
X351147Y119482D01*
X351153Y119590D01*
X351155Y119698D01*
X350203Y117475D02*
X344805Y111125D01*
X351155Y111125D01*
D14*
X377190Y76200D02*
X384810Y76200D01*
X403860Y76200D02*
X406400Y76200D01*
X406400Y66294D01*
X403606Y63500D01*
X406400Y76200D02*
X406400Y86106D01*
X403606Y88900D01*
X358140Y76200D02*
X355600Y76200D01*
X355600Y86106D01*
X358394Y88900D01*
X355600Y76200D02*
X355600Y66294D01*
X358394Y63500D01*
D12*
X376018Y57714D02*
X376018Y55570D01*
X376017Y57714D02*
X376019Y57785D01*
X376025Y57857D01*
X376034Y57927D01*
X376047Y57997D01*
X376064Y58067D01*
X376085Y58135D01*
X376109Y58202D01*
X376137Y58268D01*
X376168Y58332D01*
X376203Y58395D01*
X376241Y58455D01*
X376282Y58514D01*
X376326Y58570D01*
X376373Y58624D01*
X376422Y58675D01*
X376475Y58723D01*
X376530Y58769D01*
X376587Y58811D01*
X376647Y58851D01*
X376708Y58887D01*
X376772Y58920D01*
X376837Y58949D01*
X376903Y58975D01*
X376971Y58998D01*
X377040Y59017D01*
X377110Y59032D01*
X377180Y59043D01*
X377251Y59051D01*
X377322Y59055D01*
X377394Y59055D01*
X377465Y59051D01*
X377536Y59043D01*
X377606Y59032D01*
X377676Y59017D01*
X377745Y58998D01*
X377813Y58975D01*
X377879Y58949D01*
X377944Y58920D01*
X378008Y58887D01*
X378069Y58851D01*
X378129Y58811D01*
X378186Y58769D01*
X378241Y58723D01*
X378294Y58675D01*
X378343Y58624D01*
X378390Y58570D01*
X378434Y58514D01*
X378475Y58455D01*
X378513Y58395D01*
X378548Y58332D01*
X378579Y58268D01*
X378607Y58202D01*
X378631Y58135D01*
X378652Y58067D01*
X378669Y57997D01*
X378682Y57927D01*
X378691Y57857D01*
X378697Y57785D01*
X378699Y57714D01*
X378699Y55570D01*
X378697Y55499D01*
X378691Y55427D01*
X378682Y55357D01*
X378669Y55287D01*
X378652Y55217D01*
X378631Y55149D01*
X378607Y55082D01*
X378579Y55016D01*
X378548Y54952D01*
X378513Y54889D01*
X378475Y54829D01*
X378434Y54770D01*
X378390Y54714D01*
X378343Y54660D01*
X378294Y54609D01*
X378241Y54561D01*
X378186Y54515D01*
X378129Y54473D01*
X378069Y54433D01*
X378008Y54397D01*
X377944Y54364D01*
X377879Y54335D01*
X377813Y54309D01*
X377745Y54286D01*
X377676Y54267D01*
X377606Y54252D01*
X377536Y54241D01*
X377465Y54233D01*
X377394Y54229D01*
X377322Y54229D01*
X377251Y54233D01*
X377180Y54241D01*
X377110Y54252D01*
X377040Y54267D01*
X376971Y54286D01*
X376903Y54309D01*
X376837Y54335D01*
X376772Y54364D01*
X376708Y54397D01*
X376647Y54433D01*
X376587Y54473D01*
X376530Y54515D01*
X376475Y54561D01*
X376422Y54609D01*
X376373Y54660D01*
X376326Y54714D01*
X376282Y54770D01*
X376241Y54829D01*
X376203Y54889D01*
X376168Y54952D01*
X376137Y55016D01*
X376109Y55082D01*
X376085Y55149D01*
X376064Y55217D01*
X376047Y55287D01*
X376034Y55357D01*
X376025Y55427D01*
X376019Y55499D01*
X376017Y55570D01*
X381687Y55570D02*
X381687Y59055D01*
X381687Y55570D02*
X381689Y55499D01*
X381695Y55427D01*
X381704Y55357D01*
X381717Y55287D01*
X381734Y55217D01*
X381755Y55149D01*
X381779Y55082D01*
X381807Y55016D01*
X381838Y54952D01*
X381873Y54889D01*
X381911Y54829D01*
X381952Y54770D01*
X381996Y54714D01*
X382043Y54660D01*
X382092Y54609D01*
X382145Y54561D01*
X382200Y54515D01*
X382257Y54473D01*
X382317Y54433D01*
X382378Y54397D01*
X382442Y54364D01*
X382507Y54335D01*
X382573Y54309D01*
X382641Y54286D01*
X382710Y54267D01*
X382780Y54252D01*
X382850Y54241D01*
X382921Y54233D01*
X382992Y54229D01*
X383064Y54229D01*
X383135Y54233D01*
X383206Y54241D01*
X383276Y54252D01*
X383346Y54267D01*
X383415Y54286D01*
X383483Y54309D01*
X383549Y54335D01*
X383614Y54364D01*
X383678Y54397D01*
X383739Y54433D01*
X383799Y54473D01*
X383856Y54515D01*
X383911Y54561D01*
X383964Y54609D01*
X384013Y54660D01*
X384060Y54714D01*
X384104Y54770D01*
X384145Y54829D01*
X384183Y54889D01*
X384218Y54952D01*
X384249Y55016D01*
X384277Y55082D01*
X384301Y55149D01*
X384322Y55217D01*
X384339Y55287D01*
X384352Y55357D01*
X384361Y55427D01*
X384367Y55499D01*
X384369Y55570D01*
X384368Y55570D02*
X384368Y59055D01*
X388331Y59055D02*
X388331Y54229D01*
X386991Y59055D02*
X389672Y59055D01*
X392441Y59055D02*
X392441Y54229D01*
X392441Y59055D02*
X393781Y59055D01*
X393852Y59053D01*
X393924Y59047D01*
X393994Y59038D01*
X394064Y59025D01*
X394134Y59008D01*
X394202Y58987D01*
X394269Y58963D01*
X394335Y58935D01*
X394399Y58904D01*
X394462Y58869D01*
X394522Y58831D01*
X394581Y58790D01*
X394637Y58746D01*
X394691Y58699D01*
X394742Y58650D01*
X394790Y58597D01*
X394836Y58542D01*
X394878Y58485D01*
X394918Y58425D01*
X394954Y58364D01*
X394987Y58300D01*
X395016Y58235D01*
X395042Y58169D01*
X395065Y58101D01*
X395084Y58032D01*
X395099Y57962D01*
X395110Y57892D01*
X395118Y57821D01*
X395122Y57750D01*
X395122Y57678D01*
X395118Y57607D01*
X395110Y57536D01*
X395099Y57466D01*
X395084Y57396D01*
X395065Y57327D01*
X395042Y57259D01*
X395016Y57193D01*
X394987Y57128D01*
X394954Y57064D01*
X394918Y57003D01*
X394878Y56943D01*
X394836Y56886D01*
X394790Y56831D01*
X394742Y56778D01*
X394691Y56729D01*
X394637Y56682D01*
X394581Y56638D01*
X394522Y56597D01*
X394462Y56559D01*
X394399Y56524D01*
X394335Y56493D01*
X394269Y56465D01*
X394202Y56441D01*
X394134Y56420D01*
X394064Y56403D01*
X393994Y56390D01*
X393924Y56381D01*
X393852Y56375D01*
X393781Y56373D01*
X393781Y56374D02*
X392441Y56374D01*
X397780Y55570D02*
X397780Y59055D01*
X397780Y55570D02*
X397782Y55499D01*
X397788Y55427D01*
X397797Y55357D01*
X397810Y55287D01*
X397827Y55217D01*
X397848Y55149D01*
X397872Y55082D01*
X397900Y55016D01*
X397931Y54952D01*
X397966Y54889D01*
X398004Y54829D01*
X398045Y54770D01*
X398089Y54714D01*
X398136Y54660D01*
X398185Y54609D01*
X398238Y54561D01*
X398293Y54515D01*
X398350Y54473D01*
X398410Y54433D01*
X398471Y54397D01*
X398535Y54364D01*
X398600Y54335D01*
X398666Y54309D01*
X398734Y54286D01*
X398803Y54267D01*
X398873Y54252D01*
X398943Y54241D01*
X399014Y54233D01*
X399085Y54229D01*
X399157Y54229D01*
X399228Y54233D01*
X399299Y54241D01*
X399369Y54252D01*
X399439Y54267D01*
X399508Y54286D01*
X399576Y54309D01*
X399642Y54335D01*
X399707Y54364D01*
X399771Y54397D01*
X399832Y54433D01*
X399892Y54473D01*
X399949Y54515D01*
X400004Y54561D01*
X400057Y54609D01*
X400106Y54660D01*
X400153Y54714D01*
X400197Y54770D01*
X400238Y54829D01*
X400276Y54889D01*
X400311Y54952D01*
X400342Y55016D01*
X400370Y55082D01*
X400394Y55149D01*
X400415Y55217D01*
X400432Y55287D01*
X400445Y55357D01*
X400454Y55427D01*
X400460Y55499D01*
X400462Y55570D01*
X400462Y59055D01*
X404424Y59055D02*
X404424Y54229D01*
X403084Y59055D02*
X405765Y59055D01*
D10*
X207010Y82550D02*
X206910Y82552D01*
X206811Y82558D01*
X206711Y82568D01*
X206613Y82581D01*
X206514Y82599D01*
X206417Y82620D01*
X206321Y82645D01*
X206225Y82674D01*
X206131Y82707D01*
X206038Y82743D01*
X205947Y82783D01*
X205857Y82827D01*
X205769Y82874D01*
X205683Y82924D01*
X205599Y82978D01*
X205517Y83035D01*
X205438Y83095D01*
X205360Y83159D01*
X205286Y83225D01*
X205214Y83294D01*
X205145Y83366D01*
X205079Y83440D01*
X205015Y83518D01*
X204955Y83597D01*
X204898Y83679D01*
X204844Y83763D01*
X204794Y83849D01*
X204747Y83937D01*
X204703Y84027D01*
X204663Y84118D01*
X204627Y84211D01*
X204594Y84305D01*
X204565Y84401D01*
X204540Y84497D01*
X204519Y84594D01*
X204501Y84693D01*
X204488Y84791D01*
X204478Y84891D01*
X204472Y84990D01*
X204470Y85090D01*
X224790Y82550D02*
X224890Y82552D01*
X224989Y82558D01*
X225089Y82568D01*
X225187Y82581D01*
X225286Y82599D01*
X225383Y82620D01*
X225479Y82645D01*
X225575Y82674D01*
X225669Y82707D01*
X225762Y82743D01*
X225853Y82783D01*
X225943Y82827D01*
X226031Y82874D01*
X226117Y82924D01*
X226201Y82978D01*
X226283Y83035D01*
X226362Y83095D01*
X226440Y83159D01*
X226514Y83225D01*
X226586Y83294D01*
X226655Y83366D01*
X226721Y83440D01*
X226785Y83518D01*
X226845Y83597D01*
X226902Y83679D01*
X226956Y83763D01*
X227006Y83849D01*
X227053Y83937D01*
X227097Y84027D01*
X227137Y84118D01*
X227173Y84211D01*
X227206Y84305D01*
X227235Y84401D01*
X227260Y84497D01*
X227281Y84594D01*
X227299Y84693D01*
X227312Y84791D01*
X227322Y84891D01*
X227328Y84990D01*
X227330Y85090D01*
X227330Y143510D02*
X227328Y143610D01*
X227322Y143709D01*
X227312Y143809D01*
X227299Y143907D01*
X227281Y144006D01*
X227260Y144103D01*
X227235Y144199D01*
X227206Y144295D01*
X227173Y144389D01*
X227137Y144482D01*
X227097Y144573D01*
X227053Y144663D01*
X227006Y144751D01*
X226956Y144837D01*
X226902Y144921D01*
X226845Y145003D01*
X226785Y145082D01*
X226721Y145160D01*
X226655Y145234D01*
X226586Y145306D01*
X226514Y145375D01*
X226440Y145441D01*
X226362Y145505D01*
X226283Y145565D01*
X226201Y145622D01*
X226117Y145676D01*
X226031Y145726D01*
X225943Y145773D01*
X225853Y145817D01*
X225762Y145857D01*
X225669Y145893D01*
X225575Y145926D01*
X225479Y145955D01*
X225383Y145980D01*
X225286Y146001D01*
X225187Y146019D01*
X225089Y146032D01*
X224989Y146042D01*
X224890Y146048D01*
X224790Y146050D01*
X207010Y146050D02*
X206910Y146048D01*
X206811Y146042D01*
X206711Y146032D01*
X206613Y146019D01*
X206514Y146001D01*
X206417Y145980D01*
X206321Y145955D01*
X206225Y145926D01*
X206131Y145893D01*
X206038Y145857D01*
X205947Y145817D01*
X205857Y145773D01*
X205769Y145726D01*
X205683Y145676D01*
X205599Y145622D01*
X205517Y145565D01*
X205438Y145505D01*
X205360Y145441D01*
X205286Y145375D01*
X205214Y145306D01*
X205145Y145234D01*
X205079Y145160D01*
X205015Y145082D01*
X204955Y145003D01*
X204898Y144921D01*
X204844Y144837D01*
X204794Y144751D01*
X204747Y144663D01*
X204703Y144573D01*
X204663Y144482D01*
X204627Y144389D01*
X204594Y144295D01*
X204565Y144199D01*
X204540Y144103D01*
X204519Y144006D01*
X204501Y143907D01*
X204488Y143809D01*
X204478Y143709D01*
X204472Y143610D01*
X204470Y143510D01*
X207010Y82550D02*
X224790Y82550D01*
X204470Y85090D02*
X204470Y88900D01*
X205740Y90170D01*
X227330Y88900D02*
X227330Y85090D01*
X227330Y88900D02*
X226060Y90170D01*
X205740Y138430D02*
X204470Y139700D01*
X205740Y138430D02*
X205740Y90170D01*
X226060Y138430D02*
X227330Y139700D01*
X226060Y138430D02*
X226060Y90170D01*
X204470Y139700D02*
X204470Y143510D01*
X227330Y143510D02*
X227330Y139700D01*
X224790Y146050D02*
X207010Y146050D01*
D15*
X215900Y150368D03*
X215900Y78232D03*
D12*
X200025Y84455D02*
X188595Y84455D01*
X188595Y87630D01*
X188597Y87741D01*
X188603Y87851D01*
X188612Y87962D01*
X188626Y88072D01*
X188643Y88181D01*
X188664Y88290D01*
X188689Y88398D01*
X188718Y88505D01*
X188750Y88611D01*
X188786Y88716D01*
X188826Y88819D01*
X188869Y88921D01*
X188916Y89022D01*
X188967Y89121D01*
X189020Y89217D01*
X189077Y89312D01*
X189138Y89405D01*
X189201Y89496D01*
X189268Y89585D01*
X189338Y89671D01*
X189411Y89754D01*
X189486Y89836D01*
X189564Y89914D01*
X189646Y89989D01*
X189729Y90062D01*
X189815Y90132D01*
X189904Y90199D01*
X189995Y90262D01*
X190088Y90323D01*
X190183Y90380D01*
X190279Y90433D01*
X190378Y90484D01*
X190479Y90531D01*
X190581Y90574D01*
X190684Y90614D01*
X190789Y90650D01*
X190895Y90682D01*
X191002Y90711D01*
X191110Y90736D01*
X191219Y90757D01*
X191328Y90774D01*
X191438Y90788D01*
X191549Y90797D01*
X191659Y90803D01*
X191770Y90805D01*
X191881Y90803D01*
X191991Y90797D01*
X192102Y90788D01*
X192212Y90774D01*
X192321Y90757D01*
X192430Y90736D01*
X192538Y90711D01*
X192645Y90682D01*
X192751Y90650D01*
X192856Y90614D01*
X192959Y90574D01*
X193061Y90531D01*
X193162Y90484D01*
X193261Y90433D01*
X193358Y90380D01*
X193452Y90323D01*
X193545Y90262D01*
X193636Y90199D01*
X193725Y90132D01*
X193811Y90062D01*
X193894Y89989D01*
X193976Y89914D01*
X194054Y89836D01*
X194129Y89754D01*
X194202Y89671D01*
X194272Y89585D01*
X194339Y89496D01*
X194402Y89405D01*
X194463Y89312D01*
X194520Y89218D01*
X194573Y89121D01*
X194624Y89022D01*
X194671Y88921D01*
X194714Y88819D01*
X194754Y88716D01*
X194790Y88611D01*
X194822Y88505D01*
X194851Y88398D01*
X194876Y88290D01*
X194897Y88181D01*
X194914Y88072D01*
X194928Y87962D01*
X194937Y87851D01*
X194943Y87741D01*
X194945Y87630D01*
X194945Y84455D01*
X194945Y88265D02*
X200025Y90805D01*
X191135Y95802D02*
X188595Y98977D01*
X200025Y98977D01*
X200025Y95802D02*
X200025Y102152D01*
D14*
X139470Y333000D02*
X139470Y372230D01*
X139470Y302000D02*
X139470Y248930D01*
X139470Y372230D02*
X38330Y372230D01*
X38330Y302000D02*
X38330Y248930D01*
X38330Y333000D02*
X38330Y372230D01*
X125960Y248930D02*
X139470Y248930D01*
X51840Y248930D02*
X38330Y248930D01*
X62230Y317500D02*
X62238Y318155D01*
X62262Y318809D01*
X62302Y319462D01*
X62358Y320114D01*
X62431Y320765D01*
X62519Y321413D01*
X62623Y322060D01*
X62742Y322703D01*
X62878Y323343D01*
X63029Y323980D01*
X63196Y324613D01*
X63378Y325242D01*
X63576Y325866D01*
X63789Y326485D01*
X64017Y327098D01*
X64260Y327706D01*
X64518Y328308D01*
X64791Y328903D01*
X65078Y329491D01*
X65379Y330072D01*
X65695Y330646D01*
X66024Y331211D01*
X66368Y331768D01*
X66725Y332317D01*
X67095Y332857D01*
X67478Y333387D01*
X67875Y333908D01*
X68284Y334419D01*
X68705Y334920D01*
X69139Y335410D01*
X69584Y335890D01*
X70041Y336359D01*
X70510Y336816D01*
X70990Y337261D01*
X71480Y337695D01*
X71981Y338116D01*
X72492Y338525D01*
X73013Y338922D01*
X73543Y339305D01*
X74083Y339675D01*
X74632Y340032D01*
X75189Y340376D01*
X75754Y340705D01*
X76328Y341021D01*
X76909Y341322D01*
X77497Y341609D01*
X78092Y341882D01*
X78694Y342140D01*
X79302Y342383D01*
X79915Y342611D01*
X80534Y342824D01*
X81158Y343022D01*
X81787Y343204D01*
X82420Y343371D01*
X83057Y343522D01*
X83697Y343658D01*
X84340Y343777D01*
X84987Y343881D01*
X85635Y343969D01*
X86286Y344042D01*
X86938Y344098D01*
X87591Y344138D01*
X88245Y344162D01*
X88900Y344170D01*
X89555Y344162D01*
X90209Y344138D01*
X90862Y344098D01*
X91514Y344042D01*
X92165Y343969D01*
X92813Y343881D01*
X93460Y343777D01*
X94103Y343658D01*
X94743Y343522D01*
X95380Y343371D01*
X96013Y343204D01*
X96642Y343022D01*
X97266Y342824D01*
X97885Y342611D01*
X98498Y342383D01*
X99106Y342140D01*
X99708Y341882D01*
X100303Y341609D01*
X100891Y341322D01*
X101472Y341021D01*
X102046Y340705D01*
X102611Y340376D01*
X103168Y340032D01*
X103717Y339675D01*
X104257Y339305D01*
X104787Y338922D01*
X105308Y338525D01*
X105819Y338116D01*
X106320Y337695D01*
X106810Y337261D01*
X107290Y336816D01*
X107759Y336359D01*
X108216Y335890D01*
X108661Y335410D01*
X109095Y334920D01*
X109516Y334419D01*
X109925Y333908D01*
X110322Y333387D01*
X110705Y332857D01*
X111075Y332317D01*
X111432Y331768D01*
X111776Y331211D01*
X112105Y330646D01*
X112421Y330072D01*
X112722Y329491D01*
X113009Y328903D01*
X113282Y328308D01*
X113540Y327706D01*
X113783Y327098D01*
X114011Y326485D01*
X114224Y325866D01*
X114422Y325242D01*
X114604Y324613D01*
X114771Y323980D01*
X114922Y323343D01*
X115058Y322703D01*
X115177Y322060D01*
X115281Y321413D01*
X115369Y320765D01*
X115442Y320114D01*
X115498Y319462D01*
X115538Y318809D01*
X115562Y318155D01*
X115570Y317500D01*
X115562Y316845D01*
X115538Y316191D01*
X115498Y315538D01*
X115442Y314886D01*
X115369Y314235D01*
X115281Y313587D01*
X115177Y312940D01*
X115058Y312297D01*
X114922Y311657D01*
X114771Y311020D01*
X114604Y310387D01*
X114422Y309758D01*
X114224Y309134D01*
X114011Y308515D01*
X113783Y307902D01*
X113540Y307294D01*
X113282Y306692D01*
X113009Y306097D01*
X112722Y305509D01*
X112421Y304928D01*
X112105Y304354D01*
X111776Y303789D01*
X111432Y303232D01*
X111075Y302683D01*
X110705Y302143D01*
X110322Y301613D01*
X109925Y301092D01*
X109516Y300581D01*
X109095Y300080D01*
X108661Y299590D01*
X108216Y299110D01*
X107759Y298641D01*
X107290Y298184D01*
X106810Y297739D01*
X106320Y297305D01*
X105819Y296884D01*
X105308Y296475D01*
X104787Y296078D01*
X104257Y295695D01*
X103717Y295325D01*
X103168Y294968D01*
X102611Y294624D01*
X102046Y294295D01*
X101472Y293979D01*
X100891Y293678D01*
X100303Y293391D01*
X99708Y293118D01*
X99106Y292860D01*
X98498Y292617D01*
X97885Y292389D01*
X97266Y292176D01*
X96642Y291978D01*
X96013Y291796D01*
X95380Y291629D01*
X94743Y291478D01*
X94103Y291342D01*
X93460Y291223D01*
X92813Y291119D01*
X92165Y291031D01*
X91514Y290958D01*
X90862Y290902D01*
X90209Y290862D01*
X89555Y290838D01*
X88900Y290830D01*
X88245Y290838D01*
X87591Y290862D01*
X86938Y290902D01*
X86286Y290958D01*
X85635Y291031D01*
X84987Y291119D01*
X84340Y291223D01*
X83697Y291342D01*
X83057Y291478D01*
X82420Y291629D01*
X81787Y291796D01*
X81158Y291978D01*
X80534Y292176D01*
X79915Y292389D01*
X79302Y292617D01*
X78694Y292860D01*
X78092Y293118D01*
X77497Y293391D01*
X76909Y293678D01*
X76328Y293979D01*
X75754Y294295D01*
X75189Y294624D01*
X74632Y294968D01*
X74083Y295325D01*
X73543Y295695D01*
X73013Y296078D01*
X72492Y296475D01*
X71981Y296884D01*
X71480Y297305D01*
X70990Y297739D01*
X70510Y298184D01*
X70041Y298641D01*
X69584Y299110D01*
X69139Y299590D01*
X68705Y300080D01*
X68284Y300581D01*
X67875Y301092D01*
X67478Y301613D01*
X67095Y302143D01*
X66725Y302683D01*
X66368Y303232D01*
X66024Y303789D01*
X65695Y304354D01*
X65379Y304928D01*
X65078Y305509D01*
X64791Y306097D01*
X64518Y306692D01*
X64260Y307294D01*
X64017Y307902D01*
X63789Y308515D01*
X63576Y309134D01*
X63378Y309758D01*
X63196Y310387D01*
X63029Y311020D01*
X62878Y311657D01*
X62742Y312297D01*
X62623Y312940D01*
X62519Y313587D01*
X62431Y314235D01*
X62358Y314886D01*
X62302Y315538D01*
X62262Y316191D01*
X62238Y316845D01*
X62230Y317500D01*
D12*
X83456Y374015D02*
X81848Y378841D01*
X85065Y378841D02*
X83456Y374015D01*
X87849Y374015D02*
X87849Y378841D01*
X89189Y378841D01*
X89260Y378839D01*
X89332Y378833D01*
X89402Y378824D01*
X89472Y378811D01*
X89542Y378794D01*
X89610Y378773D01*
X89677Y378749D01*
X89743Y378721D01*
X89807Y378690D01*
X89870Y378655D01*
X89930Y378617D01*
X89989Y378576D01*
X90045Y378532D01*
X90099Y378485D01*
X90150Y378436D01*
X90198Y378383D01*
X90244Y378328D01*
X90286Y378271D01*
X90326Y378211D01*
X90362Y378150D01*
X90395Y378086D01*
X90424Y378021D01*
X90450Y377955D01*
X90473Y377887D01*
X90492Y377818D01*
X90507Y377748D01*
X90518Y377678D01*
X90526Y377607D01*
X90530Y377536D01*
X90530Y377464D01*
X90526Y377393D01*
X90518Y377322D01*
X90507Y377252D01*
X90492Y377182D01*
X90473Y377113D01*
X90450Y377045D01*
X90424Y376979D01*
X90395Y376914D01*
X90362Y376850D01*
X90326Y376789D01*
X90286Y376729D01*
X90244Y376672D01*
X90198Y376617D01*
X90150Y376564D01*
X90099Y376515D01*
X90045Y376468D01*
X89989Y376424D01*
X89930Y376383D01*
X89870Y376345D01*
X89807Y376310D01*
X89743Y376279D01*
X89677Y376251D01*
X89610Y376227D01*
X89542Y376206D01*
X89472Y376189D01*
X89402Y376176D01*
X89332Y376167D01*
X89260Y376161D01*
X89189Y376159D01*
X89189Y376160D02*
X87849Y376160D01*
X89457Y376160D02*
X90530Y374015D01*
X93271Y377769D02*
X94612Y378841D01*
X94612Y374015D01*
X95952Y374015D02*
X93271Y374015D01*
X681625Y376555D02*
X681625Y381381D01*
X681625Y379236D02*
X684306Y379236D01*
X684306Y381381D02*
X684306Y376555D01*
X687294Y380309D02*
X688635Y381381D01*
X688635Y376555D01*
X689975Y376555D02*
X687294Y376555D01*
D14*
X266470Y372230D02*
X266470Y333000D01*
X266470Y302000D02*
X266470Y248930D01*
X266470Y372230D02*
X165330Y372230D01*
X165330Y302000D02*
X165330Y248930D01*
X165330Y333000D02*
X165330Y372230D01*
X252960Y248930D02*
X266470Y248930D01*
X178840Y248930D02*
X165330Y248930D01*
X189230Y317500D02*
X189238Y318155D01*
X189262Y318809D01*
X189302Y319462D01*
X189358Y320114D01*
X189431Y320765D01*
X189519Y321413D01*
X189623Y322060D01*
X189742Y322703D01*
X189878Y323343D01*
X190029Y323980D01*
X190196Y324613D01*
X190378Y325242D01*
X190576Y325866D01*
X190789Y326485D01*
X191017Y327098D01*
X191260Y327706D01*
X191518Y328308D01*
X191791Y328903D01*
X192078Y329491D01*
X192379Y330072D01*
X192695Y330646D01*
X193024Y331211D01*
X193368Y331768D01*
X193725Y332317D01*
X194095Y332857D01*
X194478Y333387D01*
X194875Y333908D01*
X195284Y334419D01*
X195705Y334920D01*
X196139Y335410D01*
X196584Y335890D01*
X197041Y336359D01*
X197510Y336816D01*
X197990Y337261D01*
X198480Y337695D01*
X198981Y338116D01*
X199492Y338525D01*
X200013Y338922D01*
X200543Y339305D01*
X201083Y339675D01*
X201632Y340032D01*
X202189Y340376D01*
X202754Y340705D01*
X203328Y341021D01*
X203909Y341322D01*
X204497Y341609D01*
X205092Y341882D01*
X205694Y342140D01*
X206302Y342383D01*
X206915Y342611D01*
X207534Y342824D01*
X208158Y343022D01*
X208787Y343204D01*
X209420Y343371D01*
X210057Y343522D01*
X210697Y343658D01*
X211340Y343777D01*
X211987Y343881D01*
X212635Y343969D01*
X213286Y344042D01*
X213938Y344098D01*
X214591Y344138D01*
X215245Y344162D01*
X215900Y344170D01*
X216555Y344162D01*
X217209Y344138D01*
X217862Y344098D01*
X218514Y344042D01*
X219165Y343969D01*
X219813Y343881D01*
X220460Y343777D01*
X221103Y343658D01*
X221743Y343522D01*
X222380Y343371D01*
X223013Y343204D01*
X223642Y343022D01*
X224266Y342824D01*
X224885Y342611D01*
X225498Y342383D01*
X226106Y342140D01*
X226708Y341882D01*
X227303Y341609D01*
X227891Y341322D01*
X228472Y341021D01*
X229046Y340705D01*
X229611Y340376D01*
X230168Y340032D01*
X230717Y339675D01*
X231257Y339305D01*
X231787Y338922D01*
X232308Y338525D01*
X232819Y338116D01*
X233320Y337695D01*
X233810Y337261D01*
X234290Y336816D01*
X234759Y336359D01*
X235216Y335890D01*
X235661Y335410D01*
X236095Y334920D01*
X236516Y334419D01*
X236925Y333908D01*
X237322Y333387D01*
X237705Y332857D01*
X238075Y332317D01*
X238432Y331768D01*
X238776Y331211D01*
X239105Y330646D01*
X239421Y330072D01*
X239722Y329491D01*
X240009Y328903D01*
X240282Y328308D01*
X240540Y327706D01*
X240783Y327098D01*
X241011Y326485D01*
X241224Y325866D01*
X241422Y325242D01*
X241604Y324613D01*
X241771Y323980D01*
X241922Y323343D01*
X242058Y322703D01*
X242177Y322060D01*
X242281Y321413D01*
X242369Y320765D01*
X242442Y320114D01*
X242498Y319462D01*
X242538Y318809D01*
X242562Y318155D01*
X242570Y317500D01*
X242562Y316845D01*
X242538Y316191D01*
X242498Y315538D01*
X242442Y314886D01*
X242369Y314235D01*
X242281Y313587D01*
X242177Y312940D01*
X242058Y312297D01*
X241922Y311657D01*
X241771Y311020D01*
X241604Y310387D01*
X241422Y309758D01*
X241224Y309134D01*
X241011Y308515D01*
X240783Y307902D01*
X240540Y307294D01*
X240282Y306692D01*
X240009Y306097D01*
X239722Y305509D01*
X239421Y304928D01*
X239105Y304354D01*
X238776Y303789D01*
X238432Y303232D01*
X238075Y302683D01*
X237705Y302143D01*
X237322Y301613D01*
X236925Y301092D01*
X236516Y300581D01*
X236095Y300080D01*
X235661Y299590D01*
X235216Y299110D01*
X234759Y298641D01*
X234290Y298184D01*
X233810Y297739D01*
X233320Y297305D01*
X232819Y296884D01*
X232308Y296475D01*
X231787Y296078D01*
X231257Y295695D01*
X230717Y295325D01*
X230168Y294968D01*
X229611Y294624D01*
X229046Y294295D01*
X228472Y293979D01*
X227891Y293678D01*
X227303Y293391D01*
X226708Y293118D01*
X226106Y292860D01*
X225498Y292617D01*
X224885Y292389D01*
X224266Y292176D01*
X223642Y291978D01*
X223013Y291796D01*
X222380Y291629D01*
X221743Y291478D01*
X221103Y291342D01*
X220460Y291223D01*
X219813Y291119D01*
X219165Y291031D01*
X218514Y290958D01*
X217862Y290902D01*
X217209Y290862D01*
X216555Y290838D01*
X215900Y290830D01*
X215245Y290838D01*
X214591Y290862D01*
X213938Y290902D01*
X213286Y290958D01*
X212635Y291031D01*
X211987Y291119D01*
X211340Y291223D01*
X210697Y291342D01*
X210057Y291478D01*
X209420Y291629D01*
X208787Y291796D01*
X208158Y291978D01*
X207534Y292176D01*
X206915Y292389D01*
X206302Y292617D01*
X205694Y292860D01*
X205092Y293118D01*
X204497Y293391D01*
X203909Y293678D01*
X203328Y293979D01*
X202754Y294295D01*
X202189Y294624D01*
X201632Y294968D01*
X201083Y295325D01*
X200543Y295695D01*
X200013Y296078D01*
X199492Y296475D01*
X198981Y296884D01*
X198480Y297305D01*
X197990Y297739D01*
X197510Y298184D01*
X197041Y298641D01*
X196584Y299110D01*
X196139Y299590D01*
X195705Y300080D01*
X195284Y300581D01*
X194875Y301092D01*
X194478Y301613D01*
X194095Y302143D01*
X193725Y302683D01*
X193368Y303232D01*
X193024Y303789D01*
X192695Y304354D01*
X192379Y304928D01*
X192078Y305509D01*
X191791Y306097D01*
X191518Y306692D01*
X191260Y307294D01*
X191017Y307902D01*
X190789Y308515D01*
X190576Y309134D01*
X190378Y309758D01*
X190196Y310387D01*
X190029Y311020D01*
X189878Y311657D01*
X189742Y312297D01*
X189623Y312940D01*
X189519Y313587D01*
X189431Y314235D01*
X189358Y314886D01*
X189302Y315538D01*
X189262Y316191D01*
X189238Y316845D01*
X189230Y317500D01*
D12*
X210456Y374015D02*
X208848Y378841D01*
X212065Y378841D02*
X210456Y374015D01*
X214849Y374015D02*
X214849Y378841D01*
X216189Y378841D01*
X216260Y378839D01*
X216332Y378833D01*
X216402Y378824D01*
X216472Y378811D01*
X216542Y378794D01*
X216610Y378773D01*
X216677Y378749D01*
X216743Y378721D01*
X216807Y378690D01*
X216870Y378655D01*
X216930Y378617D01*
X216989Y378576D01*
X217045Y378532D01*
X217099Y378485D01*
X217150Y378436D01*
X217198Y378383D01*
X217244Y378328D01*
X217286Y378271D01*
X217326Y378211D01*
X217362Y378150D01*
X217395Y378086D01*
X217424Y378021D01*
X217450Y377955D01*
X217473Y377887D01*
X217492Y377818D01*
X217507Y377748D01*
X217518Y377678D01*
X217526Y377607D01*
X217530Y377536D01*
X217530Y377464D01*
X217526Y377393D01*
X217518Y377322D01*
X217507Y377252D01*
X217492Y377182D01*
X217473Y377113D01*
X217450Y377045D01*
X217424Y376979D01*
X217395Y376914D01*
X217362Y376850D01*
X217326Y376789D01*
X217286Y376729D01*
X217244Y376672D01*
X217198Y376617D01*
X217150Y376564D01*
X217099Y376515D01*
X217045Y376468D01*
X216989Y376424D01*
X216930Y376383D01*
X216870Y376345D01*
X216807Y376310D01*
X216743Y376279D01*
X216677Y376251D01*
X216610Y376227D01*
X216542Y376206D01*
X216472Y376189D01*
X216402Y376176D01*
X216332Y376167D01*
X216260Y376161D01*
X216189Y376159D01*
X216189Y376160D02*
X214849Y376160D01*
X216457Y376160D02*
X217530Y374015D01*
X221746Y378841D02*
X221814Y378839D01*
X221881Y378833D01*
X221948Y378824D01*
X222015Y378811D01*
X222080Y378794D01*
X222145Y378773D01*
X222208Y378749D01*
X222270Y378721D01*
X222330Y378690D01*
X222388Y378656D01*
X222444Y378618D01*
X222499Y378578D01*
X222550Y378534D01*
X222599Y378487D01*
X222646Y378438D01*
X222690Y378387D01*
X222730Y378332D01*
X222768Y378276D01*
X222802Y378218D01*
X222833Y378158D01*
X222861Y378096D01*
X222885Y378033D01*
X222906Y377968D01*
X222923Y377903D01*
X222936Y377836D01*
X222945Y377769D01*
X222951Y377702D01*
X222953Y377634D01*
X221746Y378841D02*
X221668Y378839D01*
X221590Y378833D01*
X221513Y378823D01*
X221436Y378810D01*
X221360Y378792D01*
X221285Y378771D01*
X221211Y378746D01*
X221139Y378717D01*
X221068Y378685D01*
X220999Y378649D01*
X220931Y378610D01*
X220866Y378567D01*
X220803Y378521D01*
X220742Y378472D01*
X220684Y378420D01*
X220629Y378365D01*
X220576Y378308D01*
X220527Y378248D01*
X220480Y378185D01*
X220437Y378121D01*
X220397Y378054D01*
X220360Y377985D01*
X220327Y377914D01*
X220297Y377842D01*
X220271Y377769D01*
X222551Y376696D02*
X222600Y376745D01*
X222647Y376797D01*
X222690Y376852D01*
X222731Y376909D01*
X222769Y376968D01*
X222803Y377029D01*
X222834Y377092D01*
X222862Y377156D01*
X222886Y377222D01*
X222906Y377288D01*
X222923Y377356D01*
X222936Y377425D01*
X222945Y377494D01*
X222951Y377564D01*
X222953Y377634D01*
X222550Y376696D02*
X220271Y374015D01*
X222952Y374015D01*
D10*
X300990Y196850D02*
X301090Y196848D01*
X301189Y196842D01*
X301289Y196832D01*
X301387Y196819D01*
X301486Y196801D01*
X301583Y196780D01*
X301679Y196755D01*
X301775Y196726D01*
X301869Y196693D01*
X301962Y196657D01*
X302053Y196617D01*
X302143Y196573D01*
X302231Y196526D01*
X302317Y196476D01*
X302401Y196422D01*
X302483Y196365D01*
X302562Y196305D01*
X302640Y196241D01*
X302714Y196175D01*
X302786Y196106D01*
X302855Y196034D01*
X302921Y195960D01*
X302985Y195882D01*
X303045Y195803D01*
X303102Y195721D01*
X303156Y195637D01*
X303206Y195551D01*
X303253Y195463D01*
X303297Y195373D01*
X303337Y195282D01*
X303373Y195189D01*
X303406Y195095D01*
X303435Y194999D01*
X303460Y194903D01*
X303481Y194806D01*
X303499Y194707D01*
X303512Y194609D01*
X303522Y194509D01*
X303528Y194410D01*
X303530Y194310D01*
X283210Y196850D02*
X283110Y196848D01*
X283011Y196842D01*
X282911Y196832D01*
X282813Y196819D01*
X282714Y196801D01*
X282617Y196780D01*
X282521Y196755D01*
X282425Y196726D01*
X282331Y196693D01*
X282238Y196657D01*
X282147Y196617D01*
X282057Y196573D01*
X281969Y196526D01*
X281883Y196476D01*
X281799Y196422D01*
X281717Y196365D01*
X281638Y196305D01*
X281560Y196241D01*
X281486Y196175D01*
X281414Y196106D01*
X281345Y196034D01*
X281279Y195960D01*
X281215Y195882D01*
X281155Y195803D01*
X281098Y195721D01*
X281044Y195637D01*
X280994Y195551D01*
X280947Y195463D01*
X280903Y195373D01*
X280863Y195282D01*
X280827Y195189D01*
X280794Y195095D01*
X280765Y194999D01*
X280740Y194903D01*
X280719Y194806D01*
X280701Y194707D01*
X280688Y194609D01*
X280678Y194509D01*
X280672Y194410D01*
X280670Y194310D01*
X280670Y135890D02*
X280672Y135790D01*
X280678Y135691D01*
X280688Y135591D01*
X280701Y135493D01*
X280719Y135394D01*
X280740Y135297D01*
X280765Y135201D01*
X280794Y135105D01*
X280827Y135011D01*
X280863Y134918D01*
X280903Y134827D01*
X280947Y134737D01*
X280994Y134649D01*
X281044Y134563D01*
X281098Y134479D01*
X281155Y134397D01*
X281215Y134318D01*
X281279Y134240D01*
X281345Y134166D01*
X281414Y134094D01*
X281486Y134025D01*
X281560Y133959D01*
X281638Y133895D01*
X281717Y133835D01*
X281799Y133778D01*
X281883Y133724D01*
X281969Y133674D01*
X282057Y133627D01*
X282147Y133583D01*
X282238Y133543D01*
X282331Y133507D01*
X282425Y133474D01*
X282521Y133445D01*
X282617Y133420D01*
X282714Y133399D01*
X282813Y133381D01*
X282911Y133368D01*
X283011Y133358D01*
X283110Y133352D01*
X283210Y133350D01*
X300990Y133350D02*
X301090Y133352D01*
X301189Y133358D01*
X301289Y133368D01*
X301387Y133381D01*
X301486Y133399D01*
X301583Y133420D01*
X301679Y133445D01*
X301775Y133474D01*
X301869Y133507D01*
X301962Y133543D01*
X302053Y133583D01*
X302143Y133627D01*
X302231Y133674D01*
X302317Y133724D01*
X302401Y133778D01*
X302483Y133835D01*
X302562Y133895D01*
X302640Y133959D01*
X302714Y134025D01*
X302786Y134094D01*
X302855Y134166D01*
X302921Y134240D01*
X302985Y134318D01*
X303045Y134397D01*
X303102Y134479D01*
X303156Y134563D01*
X303206Y134649D01*
X303253Y134737D01*
X303297Y134827D01*
X303337Y134918D01*
X303373Y135011D01*
X303406Y135105D01*
X303435Y135201D01*
X303460Y135297D01*
X303481Y135394D01*
X303499Y135493D01*
X303512Y135591D01*
X303522Y135691D01*
X303528Y135790D01*
X303530Y135890D01*
X300990Y196850D02*
X283210Y196850D01*
X303530Y194310D02*
X303530Y190500D01*
X302260Y189230D01*
X280670Y190500D02*
X280670Y194310D01*
X280670Y190500D02*
X281940Y189230D01*
X302260Y140970D02*
X303530Y139700D01*
X302260Y140970D02*
X302260Y189230D01*
X281940Y140970D02*
X280670Y139700D01*
X281940Y140970D02*
X281940Y189230D01*
X303530Y139700D02*
X303530Y135890D01*
X280670Y135890D02*
X280670Y139700D01*
X283210Y133350D02*
X300990Y133350D01*
D15*
X292100Y129032D03*
X292100Y201168D03*
D12*
X307975Y177248D02*
X319405Y177248D01*
X307975Y177248D02*
X307975Y180423D01*
X307977Y180534D01*
X307983Y180644D01*
X307992Y180755D01*
X308006Y180865D01*
X308023Y180974D01*
X308044Y181083D01*
X308069Y181191D01*
X308098Y181298D01*
X308130Y181404D01*
X308166Y181509D01*
X308206Y181612D01*
X308249Y181714D01*
X308296Y181815D01*
X308347Y181914D01*
X308400Y182011D01*
X308457Y182105D01*
X308518Y182198D01*
X308581Y182289D01*
X308648Y182378D01*
X308718Y182464D01*
X308791Y182547D01*
X308866Y182629D01*
X308944Y182707D01*
X309026Y182782D01*
X309109Y182855D01*
X309195Y182925D01*
X309284Y182992D01*
X309375Y183055D01*
X309468Y183116D01*
X309563Y183173D01*
X309659Y183226D01*
X309758Y183277D01*
X309859Y183324D01*
X309961Y183367D01*
X310064Y183407D01*
X310169Y183443D01*
X310275Y183475D01*
X310382Y183504D01*
X310490Y183529D01*
X310599Y183550D01*
X310708Y183567D01*
X310818Y183581D01*
X310929Y183590D01*
X311039Y183596D01*
X311150Y183598D01*
X311261Y183596D01*
X311371Y183590D01*
X311482Y183581D01*
X311592Y183567D01*
X311701Y183550D01*
X311810Y183529D01*
X311918Y183504D01*
X312025Y183475D01*
X312131Y183443D01*
X312236Y183407D01*
X312339Y183367D01*
X312441Y183324D01*
X312542Y183277D01*
X312641Y183226D01*
X312738Y183173D01*
X312832Y183116D01*
X312925Y183055D01*
X313016Y182992D01*
X313105Y182925D01*
X313191Y182855D01*
X313274Y182782D01*
X313356Y182707D01*
X313434Y182629D01*
X313509Y182547D01*
X313582Y182464D01*
X313652Y182378D01*
X313719Y182289D01*
X313782Y182198D01*
X313843Y182105D01*
X313900Y182011D01*
X313953Y181914D01*
X314004Y181815D01*
X314051Y181714D01*
X314094Y181612D01*
X314134Y181509D01*
X314170Y181404D01*
X314202Y181298D01*
X314231Y181191D01*
X314256Y181083D01*
X314277Y180974D01*
X314294Y180865D01*
X314308Y180755D01*
X314317Y180644D01*
X314323Y180534D01*
X314325Y180423D01*
X314325Y177248D01*
X314325Y181058D02*
X319405Y183598D01*
X310833Y194946D02*
X310729Y194944D01*
X310624Y194938D01*
X310520Y194929D01*
X310417Y194916D01*
X310314Y194898D01*
X310212Y194878D01*
X310110Y194853D01*
X310010Y194825D01*
X309910Y194793D01*
X309812Y194757D01*
X309715Y194718D01*
X309620Y194676D01*
X309526Y194630D01*
X309434Y194580D01*
X309344Y194528D01*
X309256Y194472D01*
X309170Y194412D01*
X309086Y194350D01*
X309005Y194285D01*
X308926Y194217D01*
X308849Y194145D01*
X308776Y194072D01*
X308704Y193995D01*
X308636Y193916D01*
X308571Y193835D01*
X308509Y193751D01*
X308449Y193665D01*
X308393Y193577D01*
X308341Y193487D01*
X308291Y193395D01*
X308245Y193301D01*
X308203Y193206D01*
X308164Y193109D01*
X308128Y193011D01*
X308096Y192911D01*
X308068Y192811D01*
X308043Y192709D01*
X308023Y192607D01*
X308005Y192504D01*
X307992Y192401D01*
X307983Y192297D01*
X307977Y192192D01*
X307975Y192088D01*
X307977Y191970D01*
X307983Y191851D01*
X307992Y191733D01*
X308005Y191616D01*
X308023Y191499D01*
X308043Y191382D01*
X308068Y191266D01*
X308096Y191151D01*
X308129Y191038D01*
X308164Y190925D01*
X308204Y190813D01*
X308246Y190703D01*
X308293Y190594D01*
X308343Y190486D01*
X308396Y190381D01*
X308453Y190277D01*
X308513Y190175D01*
X308576Y190075D01*
X308643Y189977D01*
X308712Y189881D01*
X308785Y189788D01*
X308861Y189697D01*
X308939Y189608D01*
X309021Y189522D01*
X309105Y189439D01*
X309191Y189358D01*
X309281Y189281D01*
X309372Y189206D01*
X309466Y189134D01*
X309563Y189065D01*
X309661Y189000D01*
X309762Y188937D01*
X309865Y188878D01*
X309969Y188822D01*
X310075Y188770D01*
X310183Y188721D01*
X310292Y188676D01*
X310403Y188634D01*
X310515Y188596D01*
X313055Y193993D02*
X312980Y194069D01*
X312901Y194144D01*
X312820Y194215D01*
X312736Y194284D01*
X312650Y194349D01*
X312562Y194411D01*
X312472Y194471D01*
X312380Y194527D01*
X312285Y194580D01*
X312189Y194629D01*
X312091Y194675D01*
X311992Y194718D01*
X311891Y194757D01*
X311789Y194792D01*
X311686Y194824D01*
X311582Y194852D01*
X311477Y194877D01*
X311370Y194898D01*
X311264Y194915D01*
X311157Y194928D01*
X311049Y194937D01*
X310941Y194943D01*
X310833Y194945D01*
X313055Y193993D02*
X319405Y188595D01*
X319405Y194945D01*
D10*
X278130Y168910D02*
X278130Y106680D01*
X274320Y102870D02*
X233680Y102870D01*
X229870Y106680D02*
X229870Y168910D01*
X270510Y176530D02*
X278130Y168910D01*
X270764Y157480D02*
X264414Y157480D01*
X267716Y154178D02*
X267716Y160782D01*
X254000Y154940D02*
X254000Y146050D01*
X241808Y146050D01*
X241808Y140970D01*
X266192Y140970D01*
X266192Y146050D01*
X254000Y146050D01*
X254000Y133350D02*
X254000Y124460D01*
X229870Y168910D02*
X237490Y176530D01*
X270510Y176530D01*
X278130Y106680D02*
X278128Y106558D01*
X278122Y106436D01*
X278112Y106314D01*
X278099Y106193D01*
X278081Y106072D01*
X278060Y105952D01*
X278034Y105832D01*
X278005Y105714D01*
X277973Y105596D01*
X277936Y105479D01*
X277896Y105364D01*
X277852Y105250D01*
X277804Y105138D01*
X277753Y105027D01*
X277698Y104918D01*
X277640Y104810D01*
X277578Y104705D01*
X277513Y104602D01*
X277445Y104500D01*
X277373Y104401D01*
X277299Y104305D01*
X277221Y104210D01*
X277140Y104119D01*
X277057Y104029D01*
X276971Y103943D01*
X276881Y103860D01*
X276790Y103779D01*
X276695Y103701D01*
X276599Y103627D01*
X276500Y103555D01*
X276398Y103487D01*
X276295Y103422D01*
X276190Y103360D01*
X276082Y103302D01*
X275973Y103247D01*
X275862Y103196D01*
X275750Y103148D01*
X275636Y103104D01*
X275521Y103064D01*
X275404Y103027D01*
X275286Y102995D01*
X275168Y102966D01*
X275048Y102940D01*
X274928Y102919D01*
X274807Y102901D01*
X274686Y102888D01*
X274564Y102878D01*
X274442Y102872D01*
X274320Y102870D01*
X233680Y102870D02*
X233558Y102872D01*
X233436Y102878D01*
X233314Y102888D01*
X233193Y102901D01*
X233072Y102919D01*
X232952Y102940D01*
X232832Y102966D01*
X232714Y102995D01*
X232596Y103027D01*
X232479Y103064D01*
X232364Y103104D01*
X232250Y103148D01*
X232138Y103196D01*
X232027Y103247D01*
X231918Y103302D01*
X231810Y103360D01*
X231705Y103422D01*
X231602Y103487D01*
X231500Y103555D01*
X231401Y103627D01*
X231305Y103701D01*
X231210Y103779D01*
X231119Y103860D01*
X231029Y103943D01*
X230943Y104029D01*
X230860Y104119D01*
X230779Y104210D01*
X230701Y104305D01*
X230627Y104401D01*
X230555Y104500D01*
X230487Y104602D01*
X230422Y104705D01*
X230360Y104810D01*
X230302Y104918D01*
X230247Y105027D01*
X230196Y105138D01*
X230148Y105250D01*
X230104Y105364D01*
X230064Y105479D01*
X230027Y105596D01*
X229995Y105714D01*
X229966Y105832D01*
X229940Y105952D01*
X229919Y106072D01*
X229901Y106193D01*
X229888Y106314D01*
X229878Y106436D01*
X229872Y106558D01*
X229870Y106680D01*
D16*
X254000Y134620D03*
D12*
X294005Y154903D02*
X294005Y157443D01*
X294005Y154903D02*
X294003Y154803D01*
X293997Y154704D01*
X293987Y154604D01*
X293974Y154506D01*
X293956Y154407D01*
X293935Y154310D01*
X293910Y154214D01*
X293881Y154118D01*
X293848Y154024D01*
X293812Y153931D01*
X293772Y153840D01*
X293728Y153750D01*
X293681Y153662D01*
X293631Y153576D01*
X293577Y153492D01*
X293520Y153410D01*
X293460Y153331D01*
X293396Y153253D01*
X293330Y153179D01*
X293261Y153107D01*
X293189Y153038D01*
X293115Y152972D01*
X293037Y152908D01*
X292958Y152848D01*
X292876Y152791D01*
X292792Y152737D01*
X292706Y152687D01*
X292618Y152640D01*
X292528Y152596D01*
X292437Y152556D01*
X292344Y152520D01*
X292250Y152487D01*
X292154Y152458D01*
X292058Y152433D01*
X291961Y152412D01*
X291862Y152394D01*
X291764Y152381D01*
X291664Y152371D01*
X291565Y152365D01*
X291465Y152363D01*
X285115Y152363D01*
X285015Y152365D01*
X284916Y152371D01*
X284816Y152381D01*
X284718Y152394D01*
X284619Y152412D01*
X284522Y152433D01*
X284426Y152458D01*
X284330Y152487D01*
X284236Y152520D01*
X284143Y152556D01*
X284052Y152596D01*
X283962Y152640D01*
X283874Y152687D01*
X283788Y152737D01*
X283704Y152791D01*
X283622Y152848D01*
X283543Y152908D01*
X283465Y152972D01*
X283391Y153038D01*
X283319Y153107D01*
X283250Y153179D01*
X283184Y153253D01*
X283120Y153331D01*
X283060Y153410D01*
X283003Y153492D01*
X282949Y153576D01*
X282899Y153662D01*
X282852Y153750D01*
X282808Y153840D01*
X282768Y153931D01*
X282732Y154024D01*
X282699Y154118D01*
X282670Y154214D01*
X282645Y154310D01*
X282624Y154407D01*
X282606Y154506D01*
X282593Y154604D01*
X282583Y154704D01*
X282577Y154803D01*
X282575Y154903D01*
X282575Y157443D01*
X282575Y165418D02*
X282577Y165522D01*
X282583Y165627D01*
X282592Y165731D01*
X282605Y165834D01*
X282623Y165937D01*
X282643Y166039D01*
X282668Y166141D01*
X282696Y166241D01*
X282728Y166341D01*
X282764Y166439D01*
X282803Y166536D01*
X282845Y166631D01*
X282891Y166725D01*
X282941Y166817D01*
X282993Y166907D01*
X283049Y166995D01*
X283109Y167081D01*
X283171Y167165D01*
X283236Y167246D01*
X283304Y167325D01*
X283376Y167402D01*
X283449Y167475D01*
X283526Y167547D01*
X283605Y167615D01*
X283686Y167680D01*
X283770Y167742D01*
X283856Y167802D01*
X283944Y167858D01*
X284034Y167910D01*
X284126Y167960D01*
X284220Y168006D01*
X284315Y168048D01*
X284412Y168087D01*
X284510Y168123D01*
X284610Y168155D01*
X284710Y168183D01*
X284812Y168208D01*
X284914Y168228D01*
X285017Y168246D01*
X285120Y168259D01*
X285224Y168268D01*
X285329Y168274D01*
X285433Y168276D01*
X282575Y165418D02*
X282577Y165300D01*
X282583Y165181D01*
X282592Y165063D01*
X282605Y164946D01*
X282623Y164829D01*
X282643Y164712D01*
X282668Y164596D01*
X282696Y164481D01*
X282729Y164368D01*
X282764Y164255D01*
X282804Y164143D01*
X282846Y164033D01*
X282893Y163924D01*
X282943Y163816D01*
X282996Y163711D01*
X283053Y163607D01*
X283113Y163505D01*
X283176Y163405D01*
X283243Y163307D01*
X283312Y163211D01*
X283385Y163118D01*
X283461Y163027D01*
X283539Y162938D01*
X283621Y162852D01*
X283705Y162769D01*
X283791Y162688D01*
X283881Y162611D01*
X283972Y162536D01*
X284066Y162464D01*
X284163Y162395D01*
X284261Y162330D01*
X284362Y162267D01*
X284465Y162208D01*
X284569Y162152D01*
X284675Y162100D01*
X284783Y162051D01*
X284892Y162006D01*
X285003Y161964D01*
X285115Y161926D01*
X287655Y167323D02*
X287580Y167399D01*
X287501Y167474D01*
X287420Y167545D01*
X287336Y167614D01*
X287250Y167679D01*
X287162Y167741D01*
X287072Y167801D01*
X286980Y167857D01*
X286885Y167910D01*
X286789Y167959D01*
X286691Y168005D01*
X286592Y168048D01*
X286491Y168087D01*
X286389Y168122D01*
X286286Y168154D01*
X286182Y168182D01*
X286077Y168207D01*
X285970Y168228D01*
X285864Y168245D01*
X285757Y168258D01*
X285649Y168267D01*
X285541Y168273D01*
X285433Y168275D01*
X287655Y167323D02*
X294005Y161925D01*
X294005Y168275D01*
D10*
X318770Y135890D02*
X318772Y135790D01*
X318778Y135691D01*
X318788Y135591D01*
X318801Y135493D01*
X318819Y135394D01*
X318840Y135297D01*
X318865Y135201D01*
X318894Y135105D01*
X318927Y135011D01*
X318963Y134918D01*
X319003Y134827D01*
X319047Y134737D01*
X319094Y134649D01*
X319144Y134563D01*
X319198Y134479D01*
X319255Y134397D01*
X319315Y134318D01*
X319379Y134240D01*
X319445Y134166D01*
X319514Y134094D01*
X319586Y134025D01*
X319660Y133959D01*
X319738Y133895D01*
X319817Y133835D01*
X319899Y133778D01*
X319983Y133724D01*
X320069Y133674D01*
X320157Y133627D01*
X320247Y133583D01*
X320338Y133543D01*
X320431Y133507D01*
X320525Y133474D01*
X320621Y133445D01*
X320717Y133420D01*
X320814Y133399D01*
X320913Y133381D01*
X321011Y133368D01*
X321111Y133358D01*
X321210Y133352D01*
X321310Y133350D01*
X339090Y133350D02*
X339190Y133352D01*
X339289Y133358D01*
X339389Y133368D01*
X339487Y133381D01*
X339586Y133399D01*
X339683Y133420D01*
X339779Y133445D01*
X339875Y133474D01*
X339969Y133507D01*
X340062Y133543D01*
X340153Y133583D01*
X340243Y133627D01*
X340331Y133674D01*
X340417Y133724D01*
X340501Y133778D01*
X340583Y133835D01*
X340662Y133895D01*
X340740Y133959D01*
X340814Y134025D01*
X340886Y134094D01*
X340955Y134166D01*
X341021Y134240D01*
X341085Y134318D01*
X341145Y134397D01*
X341202Y134479D01*
X341256Y134563D01*
X341306Y134649D01*
X341353Y134737D01*
X341397Y134827D01*
X341437Y134918D01*
X341473Y135011D01*
X341506Y135105D01*
X341535Y135201D01*
X341560Y135297D01*
X341581Y135394D01*
X341599Y135493D01*
X341612Y135591D01*
X341622Y135691D01*
X341628Y135790D01*
X341630Y135890D01*
X341630Y194310D02*
X341628Y194410D01*
X341622Y194509D01*
X341612Y194609D01*
X341599Y194707D01*
X341581Y194806D01*
X341560Y194903D01*
X341535Y194999D01*
X341506Y195095D01*
X341473Y195189D01*
X341437Y195282D01*
X341397Y195373D01*
X341353Y195463D01*
X341306Y195551D01*
X341256Y195637D01*
X341202Y195721D01*
X341145Y195803D01*
X341085Y195882D01*
X341021Y195960D01*
X340955Y196034D01*
X340886Y196106D01*
X340814Y196175D01*
X340740Y196241D01*
X340662Y196305D01*
X340583Y196365D01*
X340501Y196422D01*
X340417Y196476D01*
X340331Y196526D01*
X340243Y196573D01*
X340153Y196617D01*
X340062Y196657D01*
X339969Y196693D01*
X339875Y196726D01*
X339779Y196755D01*
X339683Y196780D01*
X339586Y196801D01*
X339487Y196819D01*
X339389Y196832D01*
X339289Y196842D01*
X339190Y196848D01*
X339090Y196850D01*
X321310Y196850D02*
X321210Y196848D01*
X321111Y196842D01*
X321011Y196832D01*
X320913Y196819D01*
X320814Y196801D01*
X320717Y196780D01*
X320621Y196755D01*
X320525Y196726D01*
X320431Y196693D01*
X320338Y196657D01*
X320247Y196617D01*
X320157Y196573D01*
X320069Y196526D01*
X319983Y196476D01*
X319899Y196422D01*
X319817Y196365D01*
X319738Y196305D01*
X319660Y196241D01*
X319586Y196175D01*
X319514Y196106D01*
X319445Y196034D01*
X319379Y195960D01*
X319315Y195882D01*
X319255Y195803D01*
X319198Y195721D01*
X319144Y195637D01*
X319094Y195551D01*
X319047Y195463D01*
X319003Y195373D01*
X318963Y195282D01*
X318927Y195189D01*
X318894Y195095D01*
X318865Y194999D01*
X318840Y194903D01*
X318819Y194806D01*
X318801Y194707D01*
X318788Y194609D01*
X318778Y194509D01*
X318772Y194410D01*
X318770Y194310D01*
X321310Y133350D02*
X339090Y133350D01*
X318770Y135890D02*
X318770Y139700D01*
X320040Y140970D01*
X341630Y139700D02*
X341630Y135890D01*
X341630Y139700D02*
X340360Y140970D01*
X320040Y189230D02*
X318770Y190500D01*
X320040Y189230D02*
X320040Y140970D01*
X340360Y189230D02*
X341630Y190500D01*
X340360Y189230D02*
X340360Y140970D01*
X318770Y190500D02*
X318770Y194310D01*
X341630Y194310D02*
X341630Y190500D01*
X339090Y196850D02*
X321310Y196850D01*
D15*
X330200Y201168D03*
X330200Y129032D03*
D12*
X314325Y135255D02*
X302895Y135255D01*
X302895Y138430D01*
X302897Y138541D01*
X302903Y138651D01*
X302912Y138762D01*
X302926Y138872D01*
X302943Y138981D01*
X302964Y139090D01*
X302989Y139198D01*
X303018Y139305D01*
X303050Y139411D01*
X303086Y139516D01*
X303126Y139619D01*
X303169Y139721D01*
X303216Y139822D01*
X303267Y139921D01*
X303320Y140018D01*
X303377Y140112D01*
X303438Y140205D01*
X303501Y140296D01*
X303568Y140385D01*
X303638Y140471D01*
X303711Y140554D01*
X303786Y140636D01*
X303864Y140714D01*
X303946Y140789D01*
X304029Y140862D01*
X304115Y140932D01*
X304204Y140999D01*
X304295Y141062D01*
X304388Y141123D01*
X304483Y141180D01*
X304579Y141233D01*
X304678Y141284D01*
X304779Y141331D01*
X304881Y141374D01*
X304984Y141414D01*
X305089Y141450D01*
X305195Y141482D01*
X305302Y141511D01*
X305410Y141536D01*
X305519Y141557D01*
X305628Y141574D01*
X305738Y141588D01*
X305849Y141597D01*
X305959Y141603D01*
X306070Y141605D01*
X306181Y141603D01*
X306291Y141597D01*
X306402Y141588D01*
X306512Y141574D01*
X306621Y141557D01*
X306730Y141536D01*
X306838Y141511D01*
X306945Y141482D01*
X307051Y141450D01*
X307156Y141414D01*
X307259Y141374D01*
X307361Y141331D01*
X307462Y141284D01*
X307561Y141233D01*
X307658Y141180D01*
X307752Y141123D01*
X307845Y141062D01*
X307936Y140999D01*
X308025Y140932D01*
X308111Y140862D01*
X308194Y140789D01*
X308276Y140714D01*
X308354Y140636D01*
X308429Y140554D01*
X308502Y140471D01*
X308572Y140385D01*
X308639Y140296D01*
X308702Y140205D01*
X308763Y140112D01*
X308820Y140018D01*
X308873Y139921D01*
X308924Y139822D01*
X308971Y139721D01*
X309014Y139619D01*
X309054Y139516D01*
X309090Y139411D01*
X309122Y139305D01*
X309151Y139198D01*
X309176Y139090D01*
X309197Y138981D01*
X309214Y138872D01*
X309228Y138762D01*
X309237Y138651D01*
X309243Y138541D01*
X309245Y138430D01*
X309245Y135255D01*
X309245Y139065D02*
X314325Y141605D01*
X314325Y146602D02*
X314325Y149777D01*
X314323Y149888D01*
X314317Y149998D01*
X314308Y150109D01*
X314294Y150219D01*
X314277Y150328D01*
X314256Y150437D01*
X314231Y150545D01*
X314202Y150652D01*
X314170Y150758D01*
X314134Y150863D01*
X314094Y150966D01*
X314051Y151068D01*
X314004Y151169D01*
X313953Y151268D01*
X313900Y151365D01*
X313843Y151459D01*
X313782Y151552D01*
X313719Y151643D01*
X313652Y151732D01*
X313582Y151818D01*
X313509Y151901D01*
X313434Y151983D01*
X313356Y152061D01*
X313274Y152136D01*
X313191Y152209D01*
X313105Y152279D01*
X313016Y152346D01*
X312925Y152409D01*
X312832Y152470D01*
X312738Y152527D01*
X312641Y152580D01*
X312542Y152631D01*
X312441Y152678D01*
X312339Y152721D01*
X312236Y152761D01*
X312131Y152797D01*
X312025Y152829D01*
X311918Y152858D01*
X311810Y152883D01*
X311701Y152904D01*
X311592Y152921D01*
X311482Y152935D01*
X311371Y152944D01*
X311261Y152950D01*
X311150Y152952D01*
X311039Y152950D01*
X310929Y152944D01*
X310818Y152935D01*
X310708Y152921D01*
X310599Y152904D01*
X310490Y152883D01*
X310382Y152858D01*
X310275Y152829D01*
X310169Y152797D01*
X310064Y152761D01*
X309961Y152721D01*
X309859Y152678D01*
X309758Y152631D01*
X309659Y152580D01*
X309563Y152527D01*
X309468Y152470D01*
X309375Y152409D01*
X309284Y152346D01*
X309195Y152279D01*
X309109Y152209D01*
X309026Y152136D01*
X308944Y152061D01*
X308866Y151983D01*
X308791Y151901D01*
X308718Y151818D01*
X308648Y151732D01*
X308581Y151643D01*
X308518Y151552D01*
X308457Y151459D01*
X308400Y151365D01*
X308347Y151268D01*
X308296Y151169D01*
X308249Y151068D01*
X308206Y150966D01*
X308166Y150863D01*
X308130Y150758D01*
X308098Y150652D01*
X308069Y150545D01*
X308044Y150437D01*
X308023Y150328D01*
X308006Y150219D01*
X307992Y150109D01*
X307983Y149998D01*
X307977Y149888D01*
X307975Y149777D01*
X302895Y150412D02*
X302895Y146602D01*
X302895Y150412D02*
X302897Y150512D01*
X302903Y150611D01*
X302913Y150711D01*
X302926Y150809D01*
X302944Y150908D01*
X302965Y151005D01*
X302990Y151101D01*
X303019Y151197D01*
X303052Y151291D01*
X303088Y151384D01*
X303128Y151475D01*
X303172Y151565D01*
X303219Y151653D01*
X303269Y151739D01*
X303323Y151823D01*
X303380Y151905D01*
X303440Y151984D01*
X303504Y152062D01*
X303570Y152136D01*
X303639Y152208D01*
X303711Y152277D01*
X303785Y152343D01*
X303863Y152407D01*
X303942Y152467D01*
X304024Y152524D01*
X304108Y152578D01*
X304194Y152628D01*
X304282Y152675D01*
X304372Y152719D01*
X304463Y152759D01*
X304556Y152795D01*
X304650Y152828D01*
X304746Y152857D01*
X304842Y152882D01*
X304939Y152903D01*
X305038Y152921D01*
X305136Y152934D01*
X305236Y152944D01*
X305335Y152950D01*
X305435Y152952D01*
X305535Y152950D01*
X305634Y152944D01*
X305734Y152934D01*
X305832Y152921D01*
X305931Y152903D01*
X306028Y152882D01*
X306124Y152857D01*
X306220Y152828D01*
X306314Y152795D01*
X306407Y152759D01*
X306498Y152719D01*
X306588Y152675D01*
X306676Y152628D01*
X306762Y152578D01*
X306846Y152524D01*
X306928Y152467D01*
X307007Y152407D01*
X307085Y152343D01*
X307159Y152277D01*
X307231Y152208D01*
X307300Y152136D01*
X307366Y152062D01*
X307430Y151984D01*
X307490Y151905D01*
X307547Y151823D01*
X307601Y151739D01*
X307651Y151653D01*
X307698Y151565D01*
X307742Y151475D01*
X307782Y151384D01*
X307818Y151291D01*
X307851Y151197D01*
X307880Y151101D01*
X307905Y151005D01*
X307926Y150908D01*
X307944Y150809D01*
X307957Y150711D01*
X307967Y150611D01*
X307973Y150512D01*
X307975Y150412D01*
X307975Y147872D01*
D10*
X453390Y100330D02*
X515620Y100330D01*
X519430Y96520D02*
X519430Y55880D01*
X515620Y52070D02*
X453390Y52070D01*
X445770Y92710D02*
X453390Y100330D01*
X464820Y92964D02*
X464820Y86614D01*
X468122Y89916D02*
X461518Y89916D01*
X467360Y76200D02*
X476250Y76200D01*
X476250Y64008D01*
X481330Y64008D01*
X481330Y88392D01*
X476250Y88392D01*
X476250Y76200D01*
X488950Y76200D02*
X497840Y76200D01*
X453390Y52070D02*
X445770Y59690D01*
X445770Y92710D01*
X515620Y100330D02*
X515742Y100328D01*
X515864Y100322D01*
X515986Y100312D01*
X516107Y100299D01*
X516228Y100281D01*
X516348Y100260D01*
X516468Y100234D01*
X516586Y100205D01*
X516704Y100173D01*
X516821Y100136D01*
X516936Y100096D01*
X517050Y100052D01*
X517162Y100004D01*
X517273Y99953D01*
X517382Y99898D01*
X517490Y99840D01*
X517595Y99778D01*
X517698Y99713D01*
X517800Y99645D01*
X517899Y99573D01*
X517995Y99499D01*
X518090Y99421D01*
X518181Y99340D01*
X518271Y99257D01*
X518357Y99171D01*
X518440Y99081D01*
X518521Y98990D01*
X518599Y98895D01*
X518673Y98799D01*
X518745Y98700D01*
X518813Y98598D01*
X518878Y98495D01*
X518940Y98390D01*
X518998Y98282D01*
X519053Y98173D01*
X519104Y98062D01*
X519152Y97950D01*
X519196Y97836D01*
X519236Y97721D01*
X519273Y97604D01*
X519305Y97486D01*
X519334Y97368D01*
X519360Y97248D01*
X519381Y97128D01*
X519399Y97007D01*
X519412Y96886D01*
X519422Y96764D01*
X519428Y96642D01*
X519430Y96520D01*
X519430Y55880D02*
X519428Y55758D01*
X519422Y55636D01*
X519412Y55514D01*
X519399Y55393D01*
X519381Y55272D01*
X519360Y55152D01*
X519334Y55032D01*
X519305Y54914D01*
X519273Y54796D01*
X519236Y54679D01*
X519196Y54564D01*
X519152Y54450D01*
X519104Y54338D01*
X519053Y54227D01*
X518998Y54118D01*
X518940Y54010D01*
X518878Y53905D01*
X518813Y53802D01*
X518745Y53700D01*
X518673Y53601D01*
X518599Y53505D01*
X518521Y53410D01*
X518440Y53319D01*
X518357Y53229D01*
X518271Y53143D01*
X518181Y53060D01*
X518090Y52979D01*
X517995Y52901D01*
X517899Y52827D01*
X517800Y52755D01*
X517698Y52687D01*
X517595Y52622D01*
X517490Y52560D01*
X517382Y52502D01*
X517273Y52447D01*
X517162Y52396D01*
X517050Y52348D01*
X516936Y52304D01*
X516821Y52264D01*
X516704Y52227D01*
X516586Y52195D01*
X516468Y52166D01*
X516348Y52140D01*
X516228Y52119D01*
X516107Y52101D01*
X515986Y52088D01*
X515864Y52078D01*
X515742Y52072D01*
X515620Y52070D01*
D11*
X487680Y76200D03*
D12*
X459105Y104775D02*
X456565Y104775D01*
X456465Y104777D01*
X456366Y104783D01*
X456266Y104793D01*
X456168Y104806D01*
X456069Y104824D01*
X455972Y104845D01*
X455876Y104870D01*
X455780Y104899D01*
X455686Y104932D01*
X455593Y104968D01*
X455502Y105008D01*
X455412Y105052D01*
X455324Y105099D01*
X455238Y105149D01*
X455154Y105203D01*
X455072Y105260D01*
X454993Y105320D01*
X454915Y105384D01*
X454841Y105450D01*
X454769Y105519D01*
X454700Y105591D01*
X454634Y105665D01*
X454570Y105743D01*
X454510Y105822D01*
X454453Y105904D01*
X454399Y105988D01*
X454349Y106074D01*
X454302Y106162D01*
X454258Y106252D01*
X454218Y106343D01*
X454182Y106436D01*
X454149Y106530D01*
X454120Y106626D01*
X454095Y106722D01*
X454074Y106819D01*
X454056Y106918D01*
X454043Y107016D01*
X454033Y107116D01*
X454027Y107215D01*
X454025Y107315D01*
X454025Y113665D01*
X454027Y113765D01*
X454033Y113864D01*
X454043Y113964D01*
X454056Y114062D01*
X454074Y114161D01*
X454095Y114258D01*
X454120Y114354D01*
X454149Y114450D01*
X454182Y114544D01*
X454218Y114637D01*
X454258Y114728D01*
X454302Y114818D01*
X454349Y114906D01*
X454399Y114992D01*
X454453Y115076D01*
X454510Y115158D01*
X454570Y115237D01*
X454634Y115315D01*
X454700Y115389D01*
X454769Y115461D01*
X454841Y115530D01*
X454915Y115596D01*
X454993Y115660D01*
X455072Y115720D01*
X455154Y115777D01*
X455238Y115831D01*
X455324Y115881D01*
X455412Y115928D01*
X455502Y115972D01*
X455593Y116012D01*
X455686Y116048D01*
X455780Y116081D01*
X455876Y116110D01*
X455972Y116135D01*
X456069Y116156D01*
X456168Y116174D01*
X456266Y116187D01*
X456366Y116197D01*
X456465Y116203D01*
X456565Y116205D01*
X459105Y116205D01*
X463587Y104775D02*
X466762Y104775D01*
X466873Y104777D01*
X466983Y104783D01*
X467094Y104792D01*
X467204Y104806D01*
X467313Y104823D01*
X467422Y104844D01*
X467530Y104869D01*
X467637Y104898D01*
X467743Y104930D01*
X467848Y104966D01*
X467951Y105006D01*
X468053Y105049D01*
X468154Y105096D01*
X468253Y105147D01*
X468350Y105200D01*
X468444Y105257D01*
X468537Y105318D01*
X468628Y105381D01*
X468717Y105448D01*
X468803Y105518D01*
X468886Y105591D01*
X468968Y105666D01*
X469046Y105744D01*
X469121Y105826D01*
X469194Y105909D01*
X469264Y105995D01*
X469331Y106084D01*
X469394Y106175D01*
X469455Y106268D01*
X469512Y106362D01*
X469565Y106459D01*
X469616Y106558D01*
X469663Y106659D01*
X469706Y106761D01*
X469746Y106864D01*
X469782Y106969D01*
X469814Y107075D01*
X469843Y107182D01*
X469868Y107290D01*
X469889Y107399D01*
X469906Y107508D01*
X469920Y107618D01*
X469929Y107729D01*
X469935Y107839D01*
X469937Y107950D01*
X469935Y108061D01*
X469929Y108171D01*
X469920Y108282D01*
X469906Y108392D01*
X469889Y108501D01*
X469868Y108610D01*
X469843Y108718D01*
X469814Y108825D01*
X469782Y108931D01*
X469746Y109036D01*
X469706Y109139D01*
X469663Y109241D01*
X469616Y109342D01*
X469565Y109441D01*
X469512Y109537D01*
X469455Y109632D01*
X469394Y109725D01*
X469331Y109816D01*
X469264Y109905D01*
X469194Y109991D01*
X469121Y110074D01*
X469046Y110156D01*
X468968Y110234D01*
X468886Y110309D01*
X468803Y110382D01*
X468717Y110452D01*
X468628Y110519D01*
X468537Y110582D01*
X468444Y110643D01*
X468350Y110700D01*
X468253Y110753D01*
X468154Y110804D01*
X468053Y110851D01*
X467951Y110894D01*
X467848Y110934D01*
X467743Y110970D01*
X467637Y111002D01*
X467530Y111031D01*
X467422Y111056D01*
X467313Y111077D01*
X467204Y111094D01*
X467094Y111108D01*
X466983Y111117D01*
X466873Y111123D01*
X466762Y111125D01*
X467397Y116205D02*
X463587Y116205D01*
X467397Y116205D02*
X467497Y116203D01*
X467596Y116197D01*
X467696Y116187D01*
X467794Y116174D01*
X467893Y116156D01*
X467990Y116135D01*
X468086Y116110D01*
X468182Y116081D01*
X468276Y116048D01*
X468369Y116012D01*
X468460Y115972D01*
X468550Y115928D01*
X468638Y115881D01*
X468724Y115831D01*
X468808Y115777D01*
X468890Y115720D01*
X468969Y115660D01*
X469047Y115596D01*
X469121Y115530D01*
X469193Y115461D01*
X469262Y115389D01*
X469328Y115315D01*
X469392Y115237D01*
X469452Y115158D01*
X469509Y115076D01*
X469563Y114992D01*
X469613Y114906D01*
X469660Y114818D01*
X469704Y114728D01*
X469744Y114637D01*
X469780Y114544D01*
X469813Y114450D01*
X469842Y114354D01*
X469867Y114258D01*
X469888Y114161D01*
X469906Y114062D01*
X469919Y113964D01*
X469929Y113864D01*
X469935Y113765D01*
X469937Y113665D01*
X469935Y113565D01*
X469929Y113466D01*
X469919Y113366D01*
X469906Y113268D01*
X469888Y113169D01*
X469867Y113072D01*
X469842Y112976D01*
X469813Y112880D01*
X469780Y112786D01*
X469744Y112693D01*
X469704Y112602D01*
X469660Y112512D01*
X469613Y112424D01*
X469563Y112338D01*
X469509Y112254D01*
X469452Y112172D01*
X469392Y112093D01*
X469328Y112015D01*
X469262Y111941D01*
X469193Y111869D01*
X469121Y111800D01*
X469047Y111734D01*
X468969Y111670D01*
X468890Y111610D01*
X468808Y111553D01*
X468724Y111499D01*
X468638Y111449D01*
X468550Y111402D01*
X468460Y111358D01*
X468369Y111318D01*
X468276Y111282D01*
X468182Y111249D01*
X468086Y111220D01*
X467990Y111195D01*
X467893Y111174D01*
X467794Y111156D01*
X467696Y111143D01*
X467596Y111133D01*
X467497Y111127D01*
X467397Y111125D01*
X464857Y111125D01*
X59325Y89281D02*
X59325Y84455D01*
X59325Y87136D02*
X62006Y87136D01*
X62006Y89281D02*
X62006Y84455D01*
X66469Y89281D02*
X66537Y89279D01*
X66604Y89273D01*
X66671Y89264D01*
X66738Y89251D01*
X66803Y89234D01*
X66868Y89213D01*
X66931Y89189D01*
X66993Y89161D01*
X67053Y89130D01*
X67111Y89096D01*
X67167Y89058D01*
X67222Y89018D01*
X67273Y88974D01*
X67322Y88927D01*
X67369Y88878D01*
X67413Y88827D01*
X67453Y88772D01*
X67491Y88716D01*
X67525Y88658D01*
X67556Y88598D01*
X67584Y88536D01*
X67608Y88473D01*
X67629Y88408D01*
X67646Y88343D01*
X67659Y88276D01*
X67668Y88209D01*
X67674Y88142D01*
X67676Y88074D01*
X66469Y89281D02*
X66391Y89279D01*
X66313Y89273D01*
X66236Y89263D01*
X66159Y89250D01*
X66083Y89232D01*
X66008Y89211D01*
X65934Y89186D01*
X65862Y89157D01*
X65791Y89125D01*
X65722Y89089D01*
X65654Y89050D01*
X65589Y89007D01*
X65526Y88961D01*
X65465Y88912D01*
X65407Y88860D01*
X65352Y88805D01*
X65299Y88748D01*
X65250Y88688D01*
X65203Y88625D01*
X65160Y88561D01*
X65120Y88494D01*
X65083Y88425D01*
X65050Y88354D01*
X65020Y88282D01*
X64994Y88209D01*
X67273Y87136D02*
X67322Y87185D01*
X67369Y87237D01*
X67412Y87292D01*
X67453Y87349D01*
X67491Y87408D01*
X67525Y87469D01*
X67556Y87532D01*
X67584Y87596D01*
X67608Y87662D01*
X67628Y87728D01*
X67645Y87796D01*
X67658Y87865D01*
X67667Y87934D01*
X67673Y88004D01*
X67675Y88074D01*
X67273Y87136D02*
X64994Y84455D01*
X67675Y84455D01*
D14*
X393470Y333000D02*
X393470Y372230D01*
X393470Y302000D02*
X393470Y248930D01*
X393470Y372230D02*
X292330Y372230D01*
X292330Y302000D02*
X292330Y248930D01*
X292330Y333000D02*
X292330Y372230D01*
X379960Y248930D02*
X393470Y248930D01*
X305840Y248930D02*
X292330Y248930D01*
X316230Y317500D02*
X316238Y318155D01*
X316262Y318809D01*
X316302Y319462D01*
X316358Y320114D01*
X316431Y320765D01*
X316519Y321413D01*
X316623Y322060D01*
X316742Y322703D01*
X316878Y323343D01*
X317029Y323980D01*
X317196Y324613D01*
X317378Y325242D01*
X317576Y325866D01*
X317789Y326485D01*
X318017Y327098D01*
X318260Y327706D01*
X318518Y328308D01*
X318791Y328903D01*
X319078Y329491D01*
X319379Y330072D01*
X319695Y330646D01*
X320024Y331211D01*
X320368Y331768D01*
X320725Y332317D01*
X321095Y332857D01*
X321478Y333387D01*
X321875Y333908D01*
X322284Y334419D01*
X322705Y334920D01*
X323139Y335410D01*
X323584Y335890D01*
X324041Y336359D01*
X324510Y336816D01*
X324990Y337261D01*
X325480Y337695D01*
X325981Y338116D01*
X326492Y338525D01*
X327013Y338922D01*
X327543Y339305D01*
X328083Y339675D01*
X328632Y340032D01*
X329189Y340376D01*
X329754Y340705D01*
X330328Y341021D01*
X330909Y341322D01*
X331497Y341609D01*
X332092Y341882D01*
X332694Y342140D01*
X333302Y342383D01*
X333915Y342611D01*
X334534Y342824D01*
X335158Y343022D01*
X335787Y343204D01*
X336420Y343371D01*
X337057Y343522D01*
X337697Y343658D01*
X338340Y343777D01*
X338987Y343881D01*
X339635Y343969D01*
X340286Y344042D01*
X340938Y344098D01*
X341591Y344138D01*
X342245Y344162D01*
X342900Y344170D01*
X343555Y344162D01*
X344209Y344138D01*
X344862Y344098D01*
X345514Y344042D01*
X346165Y343969D01*
X346813Y343881D01*
X347460Y343777D01*
X348103Y343658D01*
X348743Y343522D01*
X349380Y343371D01*
X350013Y343204D01*
X350642Y343022D01*
X351266Y342824D01*
X351885Y342611D01*
X352498Y342383D01*
X353106Y342140D01*
X353708Y341882D01*
X354303Y341609D01*
X354891Y341322D01*
X355472Y341021D01*
X356046Y340705D01*
X356611Y340376D01*
X357168Y340032D01*
X357717Y339675D01*
X358257Y339305D01*
X358787Y338922D01*
X359308Y338525D01*
X359819Y338116D01*
X360320Y337695D01*
X360810Y337261D01*
X361290Y336816D01*
X361759Y336359D01*
X362216Y335890D01*
X362661Y335410D01*
X363095Y334920D01*
X363516Y334419D01*
X363925Y333908D01*
X364322Y333387D01*
X364705Y332857D01*
X365075Y332317D01*
X365432Y331768D01*
X365776Y331211D01*
X366105Y330646D01*
X366421Y330072D01*
X366722Y329491D01*
X367009Y328903D01*
X367282Y328308D01*
X367540Y327706D01*
X367783Y327098D01*
X368011Y326485D01*
X368224Y325866D01*
X368422Y325242D01*
X368604Y324613D01*
X368771Y323980D01*
X368922Y323343D01*
X369058Y322703D01*
X369177Y322060D01*
X369281Y321413D01*
X369369Y320765D01*
X369442Y320114D01*
X369498Y319462D01*
X369538Y318809D01*
X369562Y318155D01*
X369570Y317500D01*
X369562Y316845D01*
X369538Y316191D01*
X369498Y315538D01*
X369442Y314886D01*
X369369Y314235D01*
X369281Y313587D01*
X369177Y312940D01*
X369058Y312297D01*
X368922Y311657D01*
X368771Y311020D01*
X368604Y310387D01*
X368422Y309758D01*
X368224Y309134D01*
X368011Y308515D01*
X367783Y307902D01*
X367540Y307294D01*
X367282Y306692D01*
X367009Y306097D01*
X366722Y305509D01*
X366421Y304928D01*
X366105Y304354D01*
X365776Y303789D01*
X365432Y303232D01*
X365075Y302683D01*
X364705Y302143D01*
X364322Y301613D01*
X363925Y301092D01*
X363516Y300581D01*
X363095Y300080D01*
X362661Y299590D01*
X362216Y299110D01*
X361759Y298641D01*
X361290Y298184D01*
X360810Y297739D01*
X360320Y297305D01*
X359819Y296884D01*
X359308Y296475D01*
X358787Y296078D01*
X358257Y295695D01*
X357717Y295325D01*
X357168Y294968D01*
X356611Y294624D01*
X356046Y294295D01*
X355472Y293979D01*
X354891Y293678D01*
X354303Y293391D01*
X353708Y293118D01*
X353106Y292860D01*
X352498Y292617D01*
X351885Y292389D01*
X351266Y292176D01*
X350642Y291978D01*
X350013Y291796D01*
X349380Y291629D01*
X348743Y291478D01*
X348103Y291342D01*
X347460Y291223D01*
X346813Y291119D01*
X346165Y291031D01*
X345514Y290958D01*
X344862Y290902D01*
X344209Y290862D01*
X343555Y290838D01*
X342900Y290830D01*
X342245Y290838D01*
X341591Y290862D01*
X340938Y290902D01*
X340286Y290958D01*
X339635Y291031D01*
X338987Y291119D01*
X338340Y291223D01*
X337697Y291342D01*
X337057Y291478D01*
X336420Y291629D01*
X335787Y291796D01*
X335158Y291978D01*
X334534Y292176D01*
X333915Y292389D01*
X333302Y292617D01*
X332694Y292860D01*
X332092Y293118D01*
X331497Y293391D01*
X330909Y293678D01*
X330328Y293979D01*
X329754Y294295D01*
X329189Y294624D01*
X328632Y294968D01*
X328083Y295325D01*
X327543Y295695D01*
X327013Y296078D01*
X326492Y296475D01*
X325981Y296884D01*
X325480Y297305D01*
X324990Y297739D01*
X324510Y298184D01*
X324041Y298641D01*
X323584Y299110D01*
X323139Y299590D01*
X322705Y300080D01*
X322284Y300581D01*
X321875Y301092D01*
X321478Y301613D01*
X321095Y302143D01*
X320725Y302683D01*
X320368Y303232D01*
X320024Y303789D01*
X319695Y304354D01*
X319379Y304928D01*
X319078Y305509D01*
X318791Y306097D01*
X318518Y306692D01*
X318260Y307294D01*
X318017Y307902D01*
X317789Y308515D01*
X317576Y309134D01*
X317378Y309758D01*
X317196Y310387D01*
X317029Y311020D01*
X316878Y311657D01*
X316742Y312297D01*
X316623Y312940D01*
X316519Y313587D01*
X316431Y314235D01*
X316358Y314886D01*
X316302Y315538D01*
X316262Y316191D01*
X316238Y316845D01*
X316230Y317500D01*
D12*
X337456Y374015D02*
X335848Y378841D01*
X339065Y378841D02*
X337456Y374015D01*
X341849Y374015D02*
X341849Y378841D01*
X343189Y378841D01*
X343260Y378839D01*
X343332Y378833D01*
X343402Y378824D01*
X343472Y378811D01*
X343542Y378794D01*
X343610Y378773D01*
X343677Y378749D01*
X343743Y378721D01*
X343807Y378690D01*
X343870Y378655D01*
X343930Y378617D01*
X343989Y378576D01*
X344045Y378532D01*
X344099Y378485D01*
X344150Y378436D01*
X344198Y378383D01*
X344244Y378328D01*
X344286Y378271D01*
X344326Y378211D01*
X344362Y378150D01*
X344395Y378086D01*
X344424Y378021D01*
X344450Y377955D01*
X344473Y377887D01*
X344492Y377818D01*
X344507Y377748D01*
X344518Y377678D01*
X344526Y377607D01*
X344530Y377536D01*
X344530Y377464D01*
X344526Y377393D01*
X344518Y377322D01*
X344507Y377252D01*
X344492Y377182D01*
X344473Y377113D01*
X344450Y377045D01*
X344424Y376979D01*
X344395Y376914D01*
X344362Y376850D01*
X344326Y376789D01*
X344286Y376729D01*
X344244Y376672D01*
X344198Y376617D01*
X344150Y376564D01*
X344099Y376515D01*
X344045Y376468D01*
X343989Y376424D01*
X343930Y376383D01*
X343870Y376345D01*
X343807Y376310D01*
X343743Y376279D01*
X343677Y376251D01*
X343610Y376227D01*
X343542Y376206D01*
X343472Y376189D01*
X343402Y376176D01*
X343332Y376167D01*
X343260Y376161D01*
X343189Y376159D01*
X343189Y376160D02*
X341849Y376160D01*
X343457Y376160D02*
X344530Y374015D01*
X347271Y374015D02*
X348612Y374015D01*
X348683Y374017D01*
X348755Y374023D01*
X348825Y374032D01*
X348895Y374045D01*
X348965Y374062D01*
X349033Y374083D01*
X349100Y374107D01*
X349166Y374135D01*
X349230Y374166D01*
X349293Y374201D01*
X349353Y374239D01*
X349412Y374280D01*
X349468Y374324D01*
X349522Y374371D01*
X349573Y374420D01*
X349621Y374473D01*
X349667Y374528D01*
X349709Y374585D01*
X349749Y374645D01*
X349785Y374706D01*
X349818Y374770D01*
X349847Y374835D01*
X349873Y374901D01*
X349896Y374969D01*
X349915Y375038D01*
X349930Y375108D01*
X349941Y375178D01*
X349949Y375249D01*
X349953Y375320D01*
X349953Y375392D01*
X349949Y375463D01*
X349941Y375534D01*
X349930Y375604D01*
X349915Y375674D01*
X349896Y375743D01*
X349873Y375811D01*
X349847Y375877D01*
X349818Y375942D01*
X349785Y376006D01*
X349749Y376067D01*
X349709Y376127D01*
X349667Y376184D01*
X349621Y376239D01*
X349573Y376292D01*
X349522Y376341D01*
X349468Y376388D01*
X349412Y376432D01*
X349353Y376473D01*
X349293Y376511D01*
X349230Y376546D01*
X349166Y376577D01*
X349100Y376605D01*
X349033Y376629D01*
X348965Y376650D01*
X348895Y376667D01*
X348825Y376680D01*
X348755Y376689D01*
X348683Y376695D01*
X348612Y376697D01*
X348880Y378841D02*
X347271Y378841D01*
X348880Y378841D02*
X348945Y378839D01*
X349009Y378833D01*
X349073Y378823D01*
X349137Y378810D01*
X349199Y378792D01*
X349260Y378771D01*
X349320Y378747D01*
X349378Y378718D01*
X349435Y378686D01*
X349489Y378651D01*
X349541Y378613D01*
X349591Y378571D01*
X349638Y378527D01*
X349682Y378480D01*
X349724Y378430D01*
X349762Y378378D01*
X349797Y378324D01*
X349829Y378267D01*
X349858Y378209D01*
X349882Y378149D01*
X349903Y378088D01*
X349921Y378026D01*
X349934Y377962D01*
X349944Y377898D01*
X349950Y377834D01*
X349952Y377769D01*
X349950Y377704D01*
X349944Y377640D01*
X349934Y377576D01*
X349921Y377512D01*
X349903Y377450D01*
X349882Y377389D01*
X349858Y377329D01*
X349829Y377271D01*
X349797Y377214D01*
X349762Y377160D01*
X349724Y377108D01*
X349682Y377058D01*
X349638Y377011D01*
X349591Y376967D01*
X349541Y376925D01*
X349489Y376887D01*
X349435Y376852D01*
X349378Y376820D01*
X349320Y376791D01*
X349260Y376767D01*
X349199Y376746D01*
X349137Y376728D01*
X349073Y376715D01*
X349009Y376705D01*
X348945Y376699D01*
X348880Y376697D01*
X348880Y376696D02*
X347808Y376696D01*
D10*
X708152Y293878D02*
X714502Y287528D01*
X714502Y220472D01*
X708152Y214122D01*
X587248Y213868D02*
X580898Y220218D01*
X580898Y287782D01*
X587248Y294132D01*
X624840Y210820D02*
X670560Y210820D01*
X670560Y297180D02*
X624840Y297180D01*
X672846Y214122D02*
X670560Y210820D01*
X622808Y294132D02*
X624840Y297180D01*
X622808Y213868D02*
X587248Y213868D01*
X672846Y214122D02*
X708152Y214122D01*
X708152Y293878D02*
X672592Y293878D01*
X622808Y294132D02*
X587248Y294132D01*
X622808Y213868D02*
X624840Y210820D01*
X672592Y293878D02*
X670560Y297180D01*
D17*
X737235Y276101D02*
X737351Y276099D01*
X737468Y276093D01*
X737584Y276084D01*
X737699Y276071D01*
X737814Y276054D01*
X737929Y276033D01*
X738042Y276008D01*
X738155Y275980D01*
X738267Y275948D01*
X738378Y275912D01*
X738488Y275873D01*
X738596Y275830D01*
X738703Y275784D01*
X738808Y275734D01*
X738911Y275681D01*
X739013Y275625D01*
X739113Y275565D01*
X739211Y275502D01*
X739306Y275435D01*
X739400Y275366D01*
X739491Y275294D01*
X739580Y275219D01*
X739666Y275140D01*
X739749Y275059D01*
X739830Y274976D01*
X739909Y274890D01*
X739984Y274801D01*
X740056Y274710D01*
X740125Y274616D01*
X740192Y274521D01*
X740255Y274423D01*
X740315Y274323D01*
X740371Y274221D01*
X740424Y274118D01*
X740474Y274013D01*
X740520Y273906D01*
X740563Y273798D01*
X740602Y273688D01*
X740638Y273577D01*
X740670Y273465D01*
X740698Y273352D01*
X740723Y273239D01*
X740744Y273124D01*
X740761Y273009D01*
X740774Y272894D01*
X740783Y272778D01*
X740789Y272661D01*
X740791Y272545D01*
X740789Y272365D01*
X740782Y272186D01*
X740772Y272006D01*
X740757Y271827D01*
X740737Y271648D01*
X740714Y271470D01*
X740686Y271293D01*
X740654Y271116D01*
X740618Y270940D01*
X740577Y270765D01*
X740532Y270591D01*
X740483Y270418D01*
X740431Y270246D01*
X740373Y270075D01*
X740312Y269906D01*
X740247Y269739D01*
X740178Y269573D01*
X740105Y269409D01*
X740028Y269246D01*
X739947Y269086D01*
X739863Y268927D01*
X739774Y268771D01*
X739682Y268617D01*
X739586Y268465D01*
X739487Y268315D01*
X739384Y268167D01*
X739277Y268023D01*
X739167Y267880D01*
X739054Y267741D01*
X738937Y267604D01*
X738818Y267470D01*
X738695Y267339D01*
X738569Y267211D01*
X728345Y267655D02*
X728229Y267657D01*
X728112Y267663D01*
X727996Y267672D01*
X727881Y267685D01*
X727766Y267702D01*
X727651Y267723D01*
X727538Y267748D01*
X727425Y267776D01*
X727313Y267808D01*
X727202Y267844D01*
X727092Y267883D01*
X726984Y267926D01*
X726877Y267972D01*
X726772Y268022D01*
X726669Y268075D01*
X726567Y268131D01*
X726467Y268191D01*
X726369Y268254D01*
X726274Y268321D01*
X726180Y268390D01*
X726089Y268462D01*
X726000Y268537D01*
X725914Y268616D01*
X725831Y268697D01*
X725750Y268780D01*
X725671Y268866D01*
X725596Y268955D01*
X725524Y269046D01*
X725455Y269140D01*
X725388Y269235D01*
X725325Y269333D01*
X725265Y269433D01*
X725209Y269535D01*
X725156Y269638D01*
X725106Y269743D01*
X725060Y269850D01*
X725017Y269958D01*
X724978Y270068D01*
X724942Y270179D01*
X724910Y270291D01*
X724882Y270404D01*
X724857Y270517D01*
X724836Y270632D01*
X724819Y270747D01*
X724806Y270862D01*
X724797Y270978D01*
X724791Y271095D01*
X724789Y271211D01*
X724791Y271370D01*
X724797Y271529D01*
X724806Y271687D01*
X724819Y271846D01*
X724836Y272004D01*
X724857Y272161D01*
X724882Y272318D01*
X724910Y272475D01*
X724942Y272630D01*
X724977Y272785D01*
X725017Y272939D01*
X725060Y273092D01*
X725107Y273244D01*
X725157Y273395D01*
X725211Y273544D01*
X725268Y273693D01*
X725329Y273839D01*
X725393Y273985D01*
X725461Y274128D01*
X725532Y274270D01*
X725607Y274411D01*
X725685Y274549D01*
X725766Y274686D01*
X725850Y274820D01*
X725938Y274953D01*
X726029Y275084D01*
X726123Y275212D01*
X731457Y269433D02*
X731396Y269333D01*
X731331Y269235D01*
X731264Y269139D01*
X731193Y269046D01*
X731120Y268955D01*
X731043Y268866D01*
X730964Y268780D01*
X730882Y268696D01*
X730797Y268615D01*
X730710Y268537D01*
X730620Y268462D01*
X730528Y268389D01*
X730433Y268320D01*
X730337Y268254D01*
X730238Y268191D01*
X730137Y268131D01*
X730034Y268074D01*
X729930Y268021D01*
X729824Y267972D01*
X729716Y267925D01*
X729607Y267883D01*
X729497Y267843D01*
X729385Y267808D01*
X729272Y267776D01*
X729158Y267748D01*
X729044Y267723D01*
X728928Y267702D01*
X728812Y267685D01*
X728696Y267672D01*
X728579Y267663D01*
X728462Y267657D01*
X728345Y267655D01*
X734123Y274323D02*
X734184Y274423D01*
X734249Y274521D01*
X734316Y274617D01*
X734387Y274710D01*
X734460Y274801D01*
X734537Y274890D01*
X734616Y274976D01*
X734698Y275060D01*
X734783Y275141D01*
X734870Y275219D01*
X734960Y275294D01*
X735052Y275367D01*
X735147Y275436D01*
X735243Y275502D01*
X735342Y275565D01*
X735443Y275625D01*
X735546Y275682D01*
X735650Y275735D01*
X735756Y275784D01*
X735864Y275831D01*
X735973Y275873D01*
X736083Y275913D01*
X736195Y275948D01*
X736308Y275980D01*
X736422Y276008D01*
X736536Y276033D01*
X736652Y276054D01*
X736768Y276071D01*
X736884Y276084D01*
X737001Y276093D01*
X737118Y276099D01*
X737235Y276101D01*
X734124Y274323D02*
X731457Y269433D01*
X728345Y282321D02*
X724789Y286766D01*
X740791Y286766D01*
X740791Y282321D02*
X740791Y291211D01*
D10*
X580898Y131572D02*
X587248Y125222D01*
X580898Y131572D02*
X580898Y198628D01*
X587248Y204978D01*
X708152Y205232D02*
X714502Y198882D01*
X714502Y131318D01*
X708152Y124968D01*
X670560Y208280D02*
X624840Y208280D01*
X624840Y121920D02*
X670560Y121920D01*
X622554Y204978D02*
X624840Y208280D01*
X672592Y124968D02*
X670560Y121920D01*
X672592Y205232D02*
X708152Y205232D01*
X622554Y204978D02*
X587248Y204978D01*
X587248Y125222D02*
X622808Y125222D01*
X672592Y124968D02*
X708152Y124968D01*
X672592Y205232D02*
X670560Y208280D01*
X622808Y125222D02*
X624840Y121920D01*
D17*
X570611Y133223D02*
X570609Y133339D01*
X570603Y133456D01*
X570594Y133572D01*
X570581Y133687D01*
X570564Y133802D01*
X570543Y133917D01*
X570518Y134030D01*
X570490Y134143D01*
X570458Y134255D01*
X570422Y134366D01*
X570383Y134476D01*
X570340Y134584D01*
X570294Y134691D01*
X570244Y134796D01*
X570191Y134899D01*
X570135Y135001D01*
X570075Y135101D01*
X570012Y135199D01*
X569945Y135294D01*
X569876Y135388D01*
X569804Y135479D01*
X569729Y135568D01*
X569650Y135654D01*
X569569Y135737D01*
X569486Y135818D01*
X569400Y135897D01*
X569311Y135972D01*
X569220Y136044D01*
X569126Y136113D01*
X569031Y136180D01*
X568933Y136243D01*
X568833Y136303D01*
X568731Y136359D01*
X568628Y136412D01*
X568523Y136462D01*
X568416Y136508D01*
X568308Y136551D01*
X568198Y136590D01*
X568087Y136626D01*
X567975Y136658D01*
X567862Y136686D01*
X567749Y136711D01*
X567634Y136732D01*
X567519Y136749D01*
X567404Y136762D01*
X567288Y136771D01*
X567171Y136777D01*
X567055Y136779D01*
X570611Y133223D02*
X570609Y133043D01*
X570602Y132864D01*
X570592Y132684D01*
X570577Y132505D01*
X570557Y132326D01*
X570534Y132148D01*
X570506Y131971D01*
X570474Y131794D01*
X570438Y131618D01*
X570397Y131443D01*
X570352Y131269D01*
X570303Y131096D01*
X570251Y130924D01*
X570193Y130753D01*
X570132Y130584D01*
X570067Y130417D01*
X569998Y130251D01*
X569925Y130087D01*
X569848Y129924D01*
X569767Y129764D01*
X569683Y129605D01*
X569594Y129449D01*
X569502Y129295D01*
X569406Y129143D01*
X569307Y128993D01*
X569204Y128845D01*
X569097Y128701D01*
X568987Y128558D01*
X568874Y128419D01*
X568757Y128282D01*
X568638Y128148D01*
X568515Y128017D01*
X568389Y127889D01*
X558165Y128334D02*
X558049Y128336D01*
X557932Y128342D01*
X557816Y128351D01*
X557701Y128364D01*
X557586Y128381D01*
X557471Y128402D01*
X557358Y128427D01*
X557245Y128455D01*
X557133Y128487D01*
X557022Y128523D01*
X556912Y128562D01*
X556804Y128605D01*
X556697Y128651D01*
X556592Y128701D01*
X556489Y128754D01*
X556387Y128810D01*
X556287Y128870D01*
X556189Y128933D01*
X556094Y129000D01*
X556000Y129069D01*
X555909Y129141D01*
X555820Y129216D01*
X555734Y129295D01*
X555651Y129376D01*
X555570Y129459D01*
X555491Y129545D01*
X555416Y129634D01*
X555344Y129725D01*
X555275Y129819D01*
X555208Y129914D01*
X555145Y130012D01*
X555085Y130112D01*
X555029Y130214D01*
X554976Y130317D01*
X554926Y130422D01*
X554880Y130529D01*
X554837Y130637D01*
X554798Y130747D01*
X554762Y130858D01*
X554730Y130970D01*
X554702Y131083D01*
X554677Y131196D01*
X554656Y131311D01*
X554639Y131426D01*
X554626Y131541D01*
X554617Y131657D01*
X554611Y131774D01*
X554609Y131890D01*
X554611Y132049D01*
X554617Y132208D01*
X554626Y132366D01*
X554639Y132525D01*
X554656Y132683D01*
X554677Y132840D01*
X554702Y132997D01*
X554730Y133154D01*
X554762Y133309D01*
X554797Y133464D01*
X554837Y133618D01*
X554880Y133771D01*
X554927Y133923D01*
X554977Y134074D01*
X555031Y134223D01*
X555088Y134372D01*
X555149Y134518D01*
X555213Y134664D01*
X555281Y134807D01*
X555352Y134949D01*
X555427Y135090D01*
X555505Y135228D01*
X555586Y135365D01*
X555670Y135499D01*
X555758Y135632D01*
X555849Y135763D01*
X555943Y135891D01*
X561277Y130111D02*
X561216Y130011D01*
X561151Y129913D01*
X561084Y129817D01*
X561013Y129724D01*
X560940Y129633D01*
X560863Y129544D01*
X560784Y129458D01*
X560702Y129374D01*
X560617Y129293D01*
X560530Y129215D01*
X560440Y129140D01*
X560348Y129067D01*
X560253Y128998D01*
X560157Y128932D01*
X560058Y128869D01*
X559957Y128809D01*
X559854Y128752D01*
X559750Y128699D01*
X559644Y128650D01*
X559536Y128603D01*
X559427Y128561D01*
X559317Y128521D01*
X559205Y128486D01*
X559092Y128454D01*
X558978Y128426D01*
X558864Y128401D01*
X558748Y128380D01*
X558632Y128363D01*
X558516Y128350D01*
X558399Y128341D01*
X558282Y128335D01*
X558165Y128333D01*
X563943Y135001D02*
X564004Y135101D01*
X564069Y135199D01*
X564136Y135295D01*
X564207Y135388D01*
X564280Y135479D01*
X564357Y135568D01*
X564436Y135654D01*
X564518Y135738D01*
X564603Y135819D01*
X564690Y135897D01*
X564780Y135972D01*
X564872Y136045D01*
X564967Y136114D01*
X565063Y136180D01*
X565162Y136243D01*
X565263Y136303D01*
X565366Y136360D01*
X565470Y136413D01*
X565576Y136462D01*
X565684Y136509D01*
X565793Y136551D01*
X565903Y136591D01*
X566015Y136626D01*
X566128Y136658D01*
X566242Y136686D01*
X566356Y136711D01*
X566472Y136732D01*
X566588Y136749D01*
X566704Y136762D01*
X566821Y136771D01*
X566938Y136777D01*
X567055Y136779D01*
X563944Y135001D02*
X561277Y130112D01*
X554609Y147889D02*
X554611Y148015D01*
X554617Y148140D01*
X554627Y148266D01*
X554641Y148390D01*
X554658Y148515D01*
X554680Y148639D01*
X554705Y148762D01*
X554735Y148884D01*
X554768Y149005D01*
X554805Y149125D01*
X554846Y149244D01*
X554890Y149362D01*
X554938Y149478D01*
X554990Y149593D01*
X555045Y149705D01*
X555104Y149816D01*
X555166Y149926D01*
X555232Y150033D01*
X555301Y150138D01*
X555373Y150241D01*
X555449Y150341D01*
X555527Y150439D01*
X555609Y150535D01*
X555693Y150628D01*
X555781Y150718D01*
X555871Y150806D01*
X555964Y150890D01*
X556060Y150972D01*
X556158Y151050D01*
X556258Y151126D01*
X556361Y151198D01*
X556466Y151267D01*
X556573Y151333D01*
X556683Y151395D01*
X556794Y151454D01*
X556906Y151509D01*
X557021Y151561D01*
X557137Y151609D01*
X557255Y151653D01*
X557374Y151694D01*
X557494Y151731D01*
X557615Y151764D01*
X557737Y151794D01*
X557860Y151819D01*
X557984Y151841D01*
X558109Y151858D01*
X558233Y151872D01*
X558359Y151882D01*
X558484Y151888D01*
X558610Y151890D01*
X554609Y147889D02*
X554611Y147748D01*
X554617Y147608D01*
X554626Y147468D01*
X554640Y147328D01*
X554657Y147189D01*
X554678Y147050D01*
X554703Y146911D01*
X554731Y146774D01*
X554764Y146637D01*
X554800Y146501D01*
X554840Y146366D01*
X554883Y146233D01*
X554930Y146100D01*
X554981Y145969D01*
X555035Y145840D01*
X555093Y145712D01*
X555154Y145585D01*
X555219Y145460D01*
X555287Y145338D01*
X555358Y145217D01*
X555433Y145097D01*
X555511Y144981D01*
X555592Y144866D01*
X555676Y144753D01*
X555764Y144643D01*
X555854Y144535D01*
X555947Y144430D01*
X556043Y144328D01*
X556142Y144228D01*
X556243Y144130D01*
X556347Y144036D01*
X556454Y143944D01*
X556563Y143856D01*
X556674Y143770D01*
X556788Y143688D01*
X556904Y143608D01*
X557022Y143532D01*
X557142Y143459D01*
X557264Y143390D01*
X557388Y143323D01*
X557514Y143260D01*
X557641Y143201D01*
X557770Y143145D01*
X557900Y143093D01*
X558032Y143044D01*
X558165Y142999D01*
X561722Y150555D02*
X561631Y150647D01*
X561538Y150737D01*
X561443Y150823D01*
X561345Y150907D01*
X561244Y150987D01*
X561141Y151065D01*
X561036Y151139D01*
X560928Y151210D01*
X560819Y151278D01*
X560707Y151342D01*
X560594Y151404D01*
X560479Y151461D01*
X560362Y151516D01*
X560243Y151567D01*
X560123Y151614D01*
X560002Y151657D01*
X559880Y151697D01*
X559756Y151733D01*
X559631Y151766D01*
X559506Y151795D01*
X559379Y151820D01*
X559252Y151841D01*
X559124Y151858D01*
X558996Y151872D01*
X558868Y151881D01*
X558739Y151887D01*
X558610Y151889D01*
X561721Y150556D02*
X570611Y142999D01*
X570611Y151889D01*
D10*
X346710Y26670D02*
X284480Y26670D01*
X280670Y30480D02*
X280670Y71120D01*
X284480Y74930D02*
X346710Y74930D01*
X354330Y34290D02*
X346710Y26670D01*
X335280Y34036D02*
X335280Y40386D01*
X331978Y37084D02*
X338582Y37084D01*
X332740Y50800D02*
X323850Y50800D01*
X323850Y62992D01*
X318770Y62992D01*
X318770Y38608D01*
X323850Y38608D01*
X323850Y50800D01*
X311150Y50800D02*
X302260Y50800D01*
X346710Y74930D02*
X354330Y67310D01*
X354330Y34290D01*
X284480Y26670D02*
X284358Y26672D01*
X284236Y26678D01*
X284114Y26688D01*
X283993Y26701D01*
X283872Y26719D01*
X283752Y26740D01*
X283632Y26766D01*
X283514Y26795D01*
X283396Y26827D01*
X283279Y26864D01*
X283164Y26904D01*
X283050Y26948D01*
X282938Y26996D01*
X282827Y27047D01*
X282718Y27102D01*
X282610Y27160D01*
X282505Y27222D01*
X282402Y27287D01*
X282300Y27355D01*
X282201Y27427D01*
X282105Y27501D01*
X282010Y27579D01*
X281919Y27660D01*
X281829Y27743D01*
X281743Y27829D01*
X281660Y27919D01*
X281579Y28010D01*
X281501Y28105D01*
X281427Y28201D01*
X281355Y28300D01*
X281287Y28402D01*
X281222Y28505D01*
X281160Y28610D01*
X281102Y28718D01*
X281047Y28827D01*
X280996Y28938D01*
X280948Y29050D01*
X280904Y29164D01*
X280864Y29279D01*
X280827Y29396D01*
X280795Y29514D01*
X280766Y29632D01*
X280740Y29752D01*
X280719Y29872D01*
X280701Y29993D01*
X280688Y30114D01*
X280678Y30236D01*
X280672Y30358D01*
X280670Y30480D01*
X280670Y71120D02*
X280672Y71242D01*
X280678Y71364D01*
X280688Y71486D01*
X280701Y71607D01*
X280719Y71728D01*
X280740Y71848D01*
X280766Y71968D01*
X280795Y72086D01*
X280827Y72204D01*
X280864Y72321D01*
X280904Y72436D01*
X280948Y72550D01*
X280996Y72662D01*
X281047Y72773D01*
X281102Y72882D01*
X281160Y72990D01*
X281222Y73095D01*
X281287Y73198D01*
X281355Y73300D01*
X281427Y73399D01*
X281501Y73495D01*
X281579Y73590D01*
X281660Y73681D01*
X281743Y73771D01*
X281829Y73857D01*
X281919Y73940D01*
X282010Y74021D01*
X282105Y74099D01*
X282201Y74173D01*
X282300Y74245D01*
X282402Y74313D01*
X282505Y74378D01*
X282610Y74440D01*
X282718Y74498D01*
X282827Y74553D01*
X282938Y74604D01*
X283050Y74652D01*
X283164Y74696D01*
X283279Y74736D01*
X283396Y74773D01*
X283514Y74805D01*
X283632Y74834D01*
X283752Y74860D01*
X283872Y74881D01*
X283993Y74899D01*
X284114Y74912D01*
X284236Y74922D01*
X284358Y74928D01*
X284480Y74930D01*
D11*
X312420Y50800D03*
D12*
X332703Y10795D02*
X335243Y10795D01*
X332703Y10795D02*
X332603Y10797D01*
X332504Y10803D01*
X332404Y10813D01*
X332306Y10826D01*
X332207Y10844D01*
X332110Y10865D01*
X332014Y10890D01*
X331918Y10919D01*
X331824Y10952D01*
X331731Y10988D01*
X331640Y11028D01*
X331550Y11072D01*
X331462Y11119D01*
X331376Y11169D01*
X331292Y11223D01*
X331210Y11280D01*
X331131Y11340D01*
X331053Y11404D01*
X330979Y11470D01*
X330907Y11539D01*
X330838Y11611D01*
X330772Y11685D01*
X330708Y11763D01*
X330648Y11842D01*
X330591Y11924D01*
X330537Y12008D01*
X330487Y12094D01*
X330440Y12182D01*
X330396Y12272D01*
X330356Y12363D01*
X330320Y12456D01*
X330287Y12550D01*
X330258Y12646D01*
X330233Y12742D01*
X330212Y12839D01*
X330194Y12938D01*
X330181Y13036D01*
X330171Y13136D01*
X330165Y13235D01*
X330163Y13335D01*
X330163Y19685D01*
X330165Y19785D01*
X330171Y19884D01*
X330181Y19984D01*
X330194Y20082D01*
X330212Y20181D01*
X330233Y20278D01*
X330258Y20374D01*
X330287Y20470D01*
X330320Y20564D01*
X330356Y20657D01*
X330396Y20748D01*
X330440Y20838D01*
X330487Y20926D01*
X330537Y21012D01*
X330591Y21096D01*
X330648Y21178D01*
X330708Y21257D01*
X330772Y21335D01*
X330838Y21409D01*
X330907Y21481D01*
X330979Y21550D01*
X331053Y21616D01*
X331131Y21680D01*
X331210Y21740D01*
X331292Y21797D01*
X331376Y21851D01*
X331462Y21901D01*
X331550Y21948D01*
X331640Y21992D01*
X331731Y22032D01*
X331824Y22068D01*
X331918Y22101D01*
X332014Y22130D01*
X332110Y22155D01*
X332207Y22176D01*
X332306Y22194D01*
X332404Y22207D01*
X332504Y22217D01*
X332603Y22223D01*
X332703Y22225D01*
X335243Y22225D01*
X342265Y22225D02*
X339725Y13335D01*
X346075Y13335D01*
X344170Y15875D02*
X344170Y10795D01*
D10*
X580898Y42672D02*
X587248Y36322D01*
X580898Y42672D02*
X580898Y109728D01*
X587248Y116078D01*
X708152Y116332D02*
X714502Y109982D01*
X714502Y42418D01*
X708152Y36068D01*
X670560Y119380D02*
X624840Y119380D01*
X624840Y33020D02*
X670560Y33020D01*
X622554Y116078D02*
X624840Y119380D01*
X672592Y36068D02*
X670560Y33020D01*
X672592Y116332D02*
X708152Y116332D01*
X622554Y116078D02*
X587248Y116078D01*
X587248Y36322D02*
X622808Y36322D01*
X672592Y36068D02*
X708152Y36068D01*
X672592Y116332D02*
X670560Y119380D01*
X622808Y36322D02*
X624840Y33020D01*
D17*
X570611Y44323D02*
X570609Y44439D01*
X570603Y44556D01*
X570594Y44672D01*
X570581Y44787D01*
X570564Y44902D01*
X570543Y45017D01*
X570518Y45130D01*
X570490Y45243D01*
X570458Y45355D01*
X570422Y45466D01*
X570383Y45576D01*
X570340Y45684D01*
X570294Y45791D01*
X570244Y45896D01*
X570191Y45999D01*
X570135Y46101D01*
X570075Y46201D01*
X570012Y46299D01*
X569945Y46394D01*
X569876Y46488D01*
X569804Y46579D01*
X569729Y46668D01*
X569650Y46754D01*
X569569Y46837D01*
X569486Y46918D01*
X569400Y46997D01*
X569311Y47072D01*
X569220Y47144D01*
X569126Y47213D01*
X569031Y47280D01*
X568933Y47343D01*
X568833Y47403D01*
X568731Y47459D01*
X568628Y47512D01*
X568523Y47562D01*
X568416Y47608D01*
X568308Y47651D01*
X568198Y47690D01*
X568087Y47726D01*
X567975Y47758D01*
X567862Y47786D01*
X567749Y47811D01*
X567634Y47832D01*
X567519Y47849D01*
X567404Y47862D01*
X567288Y47871D01*
X567171Y47877D01*
X567055Y47879D01*
X570611Y44323D02*
X570609Y44143D01*
X570602Y43964D01*
X570592Y43784D01*
X570577Y43605D01*
X570557Y43426D01*
X570534Y43248D01*
X570506Y43071D01*
X570474Y42894D01*
X570438Y42718D01*
X570397Y42543D01*
X570352Y42369D01*
X570303Y42196D01*
X570251Y42024D01*
X570193Y41853D01*
X570132Y41684D01*
X570067Y41517D01*
X569998Y41351D01*
X569925Y41187D01*
X569848Y41024D01*
X569767Y40864D01*
X569683Y40705D01*
X569594Y40549D01*
X569502Y40395D01*
X569406Y40243D01*
X569307Y40093D01*
X569204Y39945D01*
X569097Y39801D01*
X568987Y39658D01*
X568874Y39519D01*
X568757Y39382D01*
X568638Y39248D01*
X568515Y39117D01*
X568389Y38989D01*
X558165Y39434D02*
X558049Y39436D01*
X557932Y39442D01*
X557816Y39451D01*
X557701Y39464D01*
X557586Y39481D01*
X557471Y39502D01*
X557358Y39527D01*
X557245Y39555D01*
X557133Y39587D01*
X557022Y39623D01*
X556912Y39662D01*
X556804Y39705D01*
X556697Y39751D01*
X556592Y39801D01*
X556489Y39854D01*
X556387Y39910D01*
X556287Y39970D01*
X556189Y40033D01*
X556094Y40100D01*
X556000Y40169D01*
X555909Y40241D01*
X555820Y40316D01*
X555734Y40395D01*
X555651Y40476D01*
X555570Y40559D01*
X555491Y40645D01*
X555416Y40734D01*
X555344Y40825D01*
X555275Y40919D01*
X555208Y41014D01*
X555145Y41112D01*
X555085Y41212D01*
X555029Y41314D01*
X554976Y41417D01*
X554926Y41522D01*
X554880Y41629D01*
X554837Y41737D01*
X554798Y41847D01*
X554762Y41958D01*
X554730Y42070D01*
X554702Y42183D01*
X554677Y42296D01*
X554656Y42411D01*
X554639Y42526D01*
X554626Y42641D01*
X554617Y42757D01*
X554611Y42874D01*
X554609Y42990D01*
X554611Y43149D01*
X554617Y43308D01*
X554626Y43466D01*
X554639Y43625D01*
X554656Y43783D01*
X554677Y43940D01*
X554702Y44097D01*
X554730Y44254D01*
X554762Y44409D01*
X554797Y44564D01*
X554837Y44718D01*
X554880Y44871D01*
X554927Y45023D01*
X554977Y45174D01*
X555031Y45323D01*
X555088Y45472D01*
X555149Y45618D01*
X555213Y45764D01*
X555281Y45907D01*
X555352Y46049D01*
X555427Y46190D01*
X555505Y46328D01*
X555586Y46465D01*
X555670Y46599D01*
X555758Y46732D01*
X555849Y46863D01*
X555943Y46991D01*
X561277Y41211D02*
X561216Y41111D01*
X561151Y41013D01*
X561084Y40917D01*
X561013Y40824D01*
X560940Y40733D01*
X560863Y40644D01*
X560784Y40558D01*
X560702Y40474D01*
X560617Y40393D01*
X560530Y40315D01*
X560440Y40240D01*
X560348Y40167D01*
X560253Y40098D01*
X560157Y40032D01*
X560058Y39969D01*
X559957Y39909D01*
X559854Y39852D01*
X559750Y39799D01*
X559644Y39750D01*
X559536Y39703D01*
X559427Y39661D01*
X559317Y39621D01*
X559205Y39586D01*
X559092Y39554D01*
X558978Y39526D01*
X558864Y39501D01*
X558748Y39480D01*
X558632Y39463D01*
X558516Y39450D01*
X558399Y39441D01*
X558282Y39435D01*
X558165Y39433D01*
X563943Y46101D02*
X564004Y46201D01*
X564069Y46299D01*
X564136Y46395D01*
X564207Y46488D01*
X564280Y46579D01*
X564357Y46668D01*
X564436Y46754D01*
X564518Y46838D01*
X564603Y46919D01*
X564690Y46997D01*
X564780Y47072D01*
X564872Y47145D01*
X564967Y47214D01*
X565063Y47280D01*
X565162Y47343D01*
X565263Y47403D01*
X565366Y47460D01*
X565470Y47513D01*
X565576Y47562D01*
X565684Y47609D01*
X565793Y47651D01*
X565903Y47691D01*
X566015Y47726D01*
X566128Y47758D01*
X566242Y47786D01*
X566356Y47811D01*
X566472Y47832D01*
X566588Y47849D01*
X566704Y47862D01*
X566821Y47871D01*
X566938Y47877D01*
X567055Y47879D01*
X563944Y46101D02*
X561277Y41212D01*
X570611Y54099D02*
X570611Y58544D01*
X570609Y58676D01*
X570603Y58807D01*
X570593Y58939D01*
X570580Y59070D01*
X570562Y59200D01*
X570541Y59330D01*
X570516Y59460D01*
X570487Y59588D01*
X570454Y59716D01*
X570417Y59842D01*
X570377Y59968D01*
X570333Y60092D01*
X570285Y60215D01*
X570234Y60336D01*
X570179Y60456D01*
X570121Y60574D01*
X570059Y60690D01*
X569993Y60804D01*
X569925Y60917D01*
X569853Y61027D01*
X569778Y61135D01*
X569699Y61241D01*
X569618Y61345D01*
X569533Y61446D01*
X569446Y61544D01*
X569355Y61640D01*
X569262Y61733D01*
X569166Y61824D01*
X569068Y61911D01*
X568967Y61996D01*
X568863Y62077D01*
X568757Y62156D01*
X568649Y62231D01*
X568539Y62303D01*
X568426Y62371D01*
X568312Y62437D01*
X568196Y62499D01*
X568078Y62557D01*
X567958Y62612D01*
X567837Y62663D01*
X567714Y62711D01*
X567590Y62755D01*
X567464Y62795D01*
X567338Y62832D01*
X567210Y62865D01*
X567082Y62894D01*
X566952Y62919D01*
X566822Y62940D01*
X566692Y62958D01*
X566561Y62971D01*
X566429Y62981D01*
X566298Y62987D01*
X566166Y62989D01*
X566034Y62987D01*
X565903Y62981D01*
X565771Y62971D01*
X565640Y62958D01*
X565510Y62940D01*
X565380Y62919D01*
X565250Y62894D01*
X565122Y62865D01*
X564994Y62832D01*
X564868Y62795D01*
X564742Y62755D01*
X564618Y62711D01*
X564495Y62663D01*
X564374Y62612D01*
X564254Y62557D01*
X564136Y62499D01*
X564020Y62437D01*
X563906Y62371D01*
X563793Y62303D01*
X563683Y62231D01*
X563575Y62156D01*
X563469Y62077D01*
X563365Y61996D01*
X563264Y61911D01*
X563166Y61824D01*
X563070Y61733D01*
X562977Y61640D01*
X562886Y61544D01*
X562799Y61446D01*
X562714Y61345D01*
X562633Y61241D01*
X562554Y61135D01*
X562479Y61027D01*
X562407Y60917D01*
X562339Y60804D01*
X562273Y60690D01*
X562211Y60574D01*
X562153Y60456D01*
X562098Y60336D01*
X562047Y60215D01*
X561999Y60092D01*
X561955Y59968D01*
X561915Y59842D01*
X561878Y59716D01*
X561845Y59588D01*
X561816Y59460D01*
X561791Y59330D01*
X561770Y59200D01*
X561752Y59070D01*
X561739Y58939D01*
X561729Y58807D01*
X561723Y58676D01*
X561721Y58544D01*
X554609Y59433D02*
X554609Y54099D01*
X554609Y59433D02*
X554611Y59551D01*
X554617Y59668D01*
X554626Y59785D01*
X554640Y59902D01*
X554657Y60018D01*
X554679Y60134D01*
X554704Y60249D01*
X554733Y60363D01*
X554765Y60476D01*
X554802Y60588D01*
X554842Y60698D01*
X554885Y60807D01*
X554933Y60915D01*
X554983Y61021D01*
X555038Y61125D01*
X555095Y61228D01*
X555156Y61328D01*
X555221Y61427D01*
X555288Y61523D01*
X555359Y61617D01*
X555433Y61709D01*
X555509Y61798D01*
X555589Y61884D01*
X555671Y61968D01*
X555757Y62049D01*
X555844Y62127D01*
X555935Y62203D01*
X556028Y62275D01*
X556123Y62344D01*
X556220Y62410D01*
X556320Y62473D01*
X556421Y62532D01*
X556524Y62588D01*
X556630Y62640D01*
X556737Y62689D01*
X556845Y62735D01*
X556955Y62777D01*
X557066Y62815D01*
X557179Y62849D01*
X557292Y62880D01*
X557407Y62907D01*
X557522Y62930D01*
X557638Y62950D01*
X557754Y62965D01*
X557871Y62977D01*
X557989Y62985D01*
X558106Y62989D01*
X558224Y62989D01*
X558341Y62985D01*
X558459Y62977D01*
X558576Y62965D01*
X558692Y62950D01*
X558808Y62930D01*
X558923Y62907D01*
X559038Y62880D01*
X559151Y62849D01*
X559264Y62815D01*
X559375Y62777D01*
X559485Y62735D01*
X559593Y62689D01*
X559700Y62640D01*
X559806Y62588D01*
X559909Y62532D01*
X560010Y62473D01*
X560110Y62410D01*
X560207Y62344D01*
X560302Y62275D01*
X560395Y62203D01*
X560486Y62127D01*
X560573Y62049D01*
X560659Y61968D01*
X560741Y61884D01*
X560821Y61798D01*
X560897Y61709D01*
X560971Y61617D01*
X561042Y61523D01*
X561109Y61427D01*
X561174Y61328D01*
X561235Y61228D01*
X561292Y61125D01*
X561347Y61021D01*
X561397Y60915D01*
X561445Y60807D01*
X561488Y60698D01*
X561528Y60588D01*
X561565Y60476D01*
X561597Y60363D01*
X561626Y60249D01*
X561651Y60134D01*
X561673Y60018D01*
X561690Y59902D01*
X561704Y59785D01*
X561713Y59668D01*
X561719Y59551D01*
X561721Y59433D01*
X561721Y55877D01*
D14*
X520470Y333000D02*
X520470Y372230D01*
X520470Y302000D02*
X520470Y248930D01*
X520470Y372230D02*
X419330Y372230D01*
X419330Y302000D02*
X419330Y248930D01*
X419330Y333000D02*
X419330Y372230D01*
X506960Y248930D02*
X520470Y248930D01*
X432840Y248930D02*
X419330Y248930D01*
X443230Y317500D02*
X443238Y318155D01*
X443262Y318809D01*
X443302Y319462D01*
X443358Y320114D01*
X443431Y320765D01*
X443519Y321413D01*
X443623Y322060D01*
X443742Y322703D01*
X443878Y323343D01*
X444029Y323980D01*
X444196Y324613D01*
X444378Y325242D01*
X444576Y325866D01*
X444789Y326485D01*
X445017Y327098D01*
X445260Y327706D01*
X445518Y328308D01*
X445791Y328903D01*
X446078Y329491D01*
X446379Y330072D01*
X446695Y330646D01*
X447024Y331211D01*
X447368Y331768D01*
X447725Y332317D01*
X448095Y332857D01*
X448478Y333387D01*
X448875Y333908D01*
X449284Y334419D01*
X449705Y334920D01*
X450139Y335410D01*
X450584Y335890D01*
X451041Y336359D01*
X451510Y336816D01*
X451990Y337261D01*
X452480Y337695D01*
X452981Y338116D01*
X453492Y338525D01*
X454013Y338922D01*
X454543Y339305D01*
X455083Y339675D01*
X455632Y340032D01*
X456189Y340376D01*
X456754Y340705D01*
X457328Y341021D01*
X457909Y341322D01*
X458497Y341609D01*
X459092Y341882D01*
X459694Y342140D01*
X460302Y342383D01*
X460915Y342611D01*
X461534Y342824D01*
X462158Y343022D01*
X462787Y343204D01*
X463420Y343371D01*
X464057Y343522D01*
X464697Y343658D01*
X465340Y343777D01*
X465987Y343881D01*
X466635Y343969D01*
X467286Y344042D01*
X467938Y344098D01*
X468591Y344138D01*
X469245Y344162D01*
X469900Y344170D01*
X470555Y344162D01*
X471209Y344138D01*
X471862Y344098D01*
X472514Y344042D01*
X473165Y343969D01*
X473813Y343881D01*
X474460Y343777D01*
X475103Y343658D01*
X475743Y343522D01*
X476380Y343371D01*
X477013Y343204D01*
X477642Y343022D01*
X478266Y342824D01*
X478885Y342611D01*
X479498Y342383D01*
X480106Y342140D01*
X480708Y341882D01*
X481303Y341609D01*
X481891Y341322D01*
X482472Y341021D01*
X483046Y340705D01*
X483611Y340376D01*
X484168Y340032D01*
X484717Y339675D01*
X485257Y339305D01*
X485787Y338922D01*
X486308Y338525D01*
X486819Y338116D01*
X487320Y337695D01*
X487810Y337261D01*
X488290Y336816D01*
X488759Y336359D01*
X489216Y335890D01*
X489661Y335410D01*
X490095Y334920D01*
X490516Y334419D01*
X490925Y333908D01*
X491322Y333387D01*
X491705Y332857D01*
X492075Y332317D01*
X492432Y331768D01*
X492776Y331211D01*
X493105Y330646D01*
X493421Y330072D01*
X493722Y329491D01*
X494009Y328903D01*
X494282Y328308D01*
X494540Y327706D01*
X494783Y327098D01*
X495011Y326485D01*
X495224Y325866D01*
X495422Y325242D01*
X495604Y324613D01*
X495771Y323980D01*
X495922Y323343D01*
X496058Y322703D01*
X496177Y322060D01*
X496281Y321413D01*
X496369Y320765D01*
X496442Y320114D01*
X496498Y319462D01*
X496538Y318809D01*
X496562Y318155D01*
X496570Y317500D01*
X496562Y316845D01*
X496538Y316191D01*
X496498Y315538D01*
X496442Y314886D01*
X496369Y314235D01*
X496281Y313587D01*
X496177Y312940D01*
X496058Y312297D01*
X495922Y311657D01*
X495771Y311020D01*
X495604Y310387D01*
X495422Y309758D01*
X495224Y309134D01*
X495011Y308515D01*
X494783Y307902D01*
X494540Y307294D01*
X494282Y306692D01*
X494009Y306097D01*
X493722Y305509D01*
X493421Y304928D01*
X493105Y304354D01*
X492776Y303789D01*
X492432Y303232D01*
X492075Y302683D01*
X491705Y302143D01*
X491322Y301613D01*
X490925Y301092D01*
X490516Y300581D01*
X490095Y300080D01*
X489661Y299590D01*
X489216Y299110D01*
X488759Y298641D01*
X488290Y298184D01*
X487810Y297739D01*
X487320Y297305D01*
X486819Y296884D01*
X486308Y296475D01*
X485787Y296078D01*
X485257Y295695D01*
X484717Y295325D01*
X484168Y294968D01*
X483611Y294624D01*
X483046Y294295D01*
X482472Y293979D01*
X481891Y293678D01*
X481303Y293391D01*
X480708Y293118D01*
X480106Y292860D01*
X479498Y292617D01*
X478885Y292389D01*
X478266Y292176D01*
X477642Y291978D01*
X477013Y291796D01*
X476380Y291629D01*
X475743Y291478D01*
X475103Y291342D01*
X474460Y291223D01*
X473813Y291119D01*
X473165Y291031D01*
X472514Y290958D01*
X471862Y290902D01*
X471209Y290862D01*
X470555Y290838D01*
X469900Y290830D01*
X469245Y290838D01*
X468591Y290862D01*
X467938Y290902D01*
X467286Y290958D01*
X466635Y291031D01*
X465987Y291119D01*
X465340Y291223D01*
X464697Y291342D01*
X464057Y291478D01*
X463420Y291629D01*
X462787Y291796D01*
X462158Y291978D01*
X461534Y292176D01*
X460915Y292389D01*
X460302Y292617D01*
X459694Y292860D01*
X459092Y293118D01*
X458497Y293391D01*
X457909Y293678D01*
X457328Y293979D01*
X456754Y294295D01*
X456189Y294624D01*
X455632Y294968D01*
X455083Y295325D01*
X454543Y295695D01*
X454013Y296078D01*
X453492Y296475D01*
X452981Y296884D01*
X452480Y297305D01*
X451990Y297739D01*
X451510Y298184D01*
X451041Y298641D01*
X450584Y299110D01*
X450139Y299590D01*
X449705Y300080D01*
X449284Y300581D01*
X448875Y301092D01*
X448478Y301613D01*
X448095Y302143D01*
X447725Y302683D01*
X447368Y303232D01*
X447024Y303789D01*
X446695Y304354D01*
X446379Y304928D01*
X446078Y305509D01*
X445791Y306097D01*
X445518Y306692D01*
X445260Y307294D01*
X445017Y307902D01*
X444789Y308515D01*
X444576Y309134D01*
X444378Y309758D01*
X444196Y310387D01*
X444029Y311020D01*
X443878Y311657D01*
X443742Y312297D01*
X443623Y312940D01*
X443519Y313587D01*
X443431Y314235D01*
X443358Y314886D01*
X443302Y315538D01*
X443262Y316191D01*
X443238Y316845D01*
X443230Y317500D01*
D12*
X464456Y374015D02*
X462848Y378841D01*
X466065Y378841D02*
X464456Y374015D01*
X468849Y374015D02*
X468849Y378841D01*
X470189Y378841D01*
X470260Y378839D01*
X470332Y378833D01*
X470402Y378824D01*
X470472Y378811D01*
X470542Y378794D01*
X470610Y378773D01*
X470677Y378749D01*
X470743Y378721D01*
X470807Y378690D01*
X470870Y378655D01*
X470930Y378617D01*
X470989Y378576D01*
X471045Y378532D01*
X471099Y378485D01*
X471150Y378436D01*
X471198Y378383D01*
X471244Y378328D01*
X471286Y378271D01*
X471326Y378211D01*
X471362Y378150D01*
X471395Y378086D01*
X471424Y378021D01*
X471450Y377955D01*
X471473Y377887D01*
X471492Y377818D01*
X471507Y377748D01*
X471518Y377678D01*
X471526Y377607D01*
X471530Y377536D01*
X471530Y377464D01*
X471526Y377393D01*
X471518Y377322D01*
X471507Y377252D01*
X471492Y377182D01*
X471473Y377113D01*
X471450Y377045D01*
X471424Y376979D01*
X471395Y376914D01*
X471362Y376850D01*
X471326Y376789D01*
X471286Y376729D01*
X471244Y376672D01*
X471198Y376617D01*
X471150Y376564D01*
X471099Y376515D01*
X471045Y376468D01*
X470989Y376424D01*
X470930Y376383D01*
X470870Y376345D01*
X470807Y376310D01*
X470743Y376279D01*
X470677Y376251D01*
X470610Y376227D01*
X470542Y376206D01*
X470472Y376189D01*
X470402Y376176D01*
X470332Y376167D01*
X470260Y376161D01*
X470189Y376159D01*
X470189Y376160D02*
X468849Y376160D01*
X470457Y376160D02*
X471530Y374015D01*
X474271Y375087D02*
X475344Y378841D01*
X474271Y375087D02*
X476952Y375087D01*
X476148Y376160D02*
X476148Y374015D01*
M02*
