G04 EAGLE Gerber RS-274X export*
G75*
%MOMM*%
%FSLAX34Y34*%
%LPD*%
%INSoldermask Top*%
%IPPOS*%
%AMOC8*
5,1,8,0,0,1.08239X$1,22.5*%
G01*
%ADD10C,1.676400*%
%ADD11P,1.814519X8X202.500000*%
%ADD12P,3.629037X8X112.500000*%
%ADD13C,1.828800*%
%ADD14C,1.676400*%
%ADD15C,1.879600*%
%ADD16P,1.814519X8X112.500000*%
%ADD17C,2.000000*%
%ADD18C,1.000000*%
%ADD19C,6.553200*%
%ADD20P,1.814519X8X292.500000*%
%ADD21P,1.814519X8X22.500000*%
%ADD22C,2.908300*%


D10*
X228600Y38100D03*
D11*
X177800Y38100D03*
D12*
X622300Y330200D03*
X571500Y330200D03*
D13*
X88900Y101600D03*
X114300Y101600D03*
X114300Y177800D03*
X88900Y177800D03*
X139700Y101600D03*
X165100Y101600D03*
X139700Y177800D03*
X165100Y177800D03*
D14*
X368300Y121666D02*
X368300Y106934D01*
X393700Y106934D02*
X393700Y121666D01*
X520700Y121666D02*
X520700Y106934D01*
X546100Y106934D02*
X546100Y121666D01*
X419100Y121666D02*
X419100Y106934D01*
X444500Y106934D02*
X444500Y121666D01*
X495300Y121666D02*
X495300Y106934D01*
X469900Y106934D02*
X469900Y121666D01*
X546100Y183134D02*
X546100Y197866D01*
X520700Y197866D02*
X520700Y183134D01*
X495300Y183134D02*
X495300Y197866D01*
X469900Y197866D02*
X469900Y183134D01*
X444500Y183134D02*
X444500Y197866D01*
X419100Y197866D02*
X419100Y183134D01*
X393700Y183134D02*
X393700Y197866D01*
X368300Y197866D02*
X368300Y183134D01*
D15*
X394970Y84582D02*
X394970Y67818D01*
X367030Y67818D02*
X367030Y84582D01*
D16*
X215900Y63500D03*
X215900Y165100D03*
D17*
X132900Y317500D03*
X44900Y317500D03*
D18*
X113900Y247500D03*
X88900Y247500D03*
X63900Y247500D03*
D19*
X685800Y342900D03*
D17*
X259900Y317500D03*
X171900Y317500D03*
D18*
X240900Y247500D03*
X215900Y247500D03*
X190900Y247500D03*
D20*
X292100Y215900D03*
X292100Y114300D03*
D10*
X254000Y165100D03*
D20*
X254000Y114300D03*
D16*
X330200Y114300D03*
X330200Y215900D03*
D10*
X457200Y76200D03*
D21*
X508000Y76200D03*
D19*
X63500Y50800D03*
D17*
X386900Y317500D03*
X298900Y317500D03*
D18*
X367900Y247500D03*
X342900Y247500D03*
X317900Y247500D03*
D22*
X600710Y240475D02*
X600710Y267526D01*
X647700Y267526D02*
X647700Y240475D01*
X694690Y240475D02*
X694690Y267526D01*
X694690Y178626D02*
X694690Y151575D01*
X647700Y151575D02*
X647700Y178626D01*
X600710Y178626D02*
X600710Y151575D01*
D10*
X342900Y50800D03*
D11*
X292100Y50800D03*
D22*
X694690Y62675D02*
X694690Y89726D01*
X647700Y89726D02*
X647700Y62675D01*
X600710Y62675D02*
X600710Y89726D01*
D17*
X513900Y317500D03*
X425900Y317500D03*
D18*
X494900Y247500D03*
X469900Y247500D03*
X444900Y247500D03*
M02*
