M48
;GenerationSoftware,Autodesk,EAGLE,9.3.1*%
;CreationDate,2019-03-01T13:17:24Z*%
FMAT,2
ICI,OFF
METRIC,TZ,000.000
T7C0.813
T6C1.000
T5C1.016
T4C1.118
T3C1.803
T2C2.000
T1C3.200
%
G90
M71
T1
X6350Y5080
X68580Y34290
T2
X51390Y31750
X42590Y31750
X38690Y31750
X29890Y31750
X13290Y31750
X25990Y31750
X17190Y31750
X4490Y31750
T3
X60071Y7620
X64770Y7620
X69469Y7620
X60071Y16510
X64770Y16510
X69469Y16510
X69469Y25400
X64770Y25400
X60071Y25400
T4
X57150Y33020
X62230Y33020
T5
X36703Y7620
X39497Y7620
T6
X19090Y24750
X49490Y24750
X46990Y24750
X44490Y24750
X36790Y24750
X34290Y24750
X31790Y24750
X24090Y24750
X21590Y24750
X6390Y24750
X8890Y24750
X11390Y24750
T7
X54610Y19050
X46990Y11430
X17780Y3810
X46990Y19050
X21590Y16510
X21590Y6350
X49530Y11430
X44450Y11430
X29210Y21590
X29210Y11430
X25400Y16510
X25400Y11430
X33020Y11430
X33020Y21590
X45720Y7620
X50800Y7620
X41910Y11430
X52070Y19050
X49530Y19050
X36830Y19050
X54610Y11430
X52070Y11430
X39370Y11430
X36830Y11430
X16510Y17780
X13970Y17780
X16510Y10160
X13970Y10160
X34290Y5080
X29210Y5080
X8890Y17780
X11430Y17780
X11430Y10160
X39370Y19050
X41910Y19050
X44450Y19050
X8890Y10160
X22860Y3810
M30