G04 EAGLE Gerber RS-274X export*
G75*
%MOMM*%
%FSLAX34Y34*%
%LPD*%
%INTop Copper*%
%IPPOS*%
%AMOC8*
5,1,8,0,0,1.08239X$1,22.5*%
G01*
%ADD10P,1.594577X8X22.500000*%
%ADD11C,1.473200*%
%ADD12C,1.676400*%
%ADD13P,1.594577X8X112.500000*%
%ADD14C,2.184400*%
%ADD15P,1.594577X8X292.500000*%
%ADD16C,1.879600*%
%ADD17C,0.508000*%
%ADD18C,0.152400*%
%ADD19C,0.609600*%
%ADD20C,0.406400*%

G36*
X291468Y10167D02*
X291468Y10167D01*
X291544Y10165D01*
X291713Y10187D01*
X291884Y10201D01*
X291958Y10219D01*
X292033Y10229D01*
X292197Y10278D01*
X292363Y10319D01*
X292432Y10349D01*
X292506Y10371D01*
X292659Y10447D01*
X292816Y10514D01*
X292880Y10555D01*
X292949Y10588D01*
X293088Y10687D01*
X293232Y10779D01*
X293289Y10830D01*
X293351Y10874D01*
X293472Y10994D01*
X293600Y11108D01*
X293648Y11167D01*
X293702Y11221D01*
X293803Y11359D01*
X293910Y11492D01*
X293947Y11558D01*
X293992Y11619D01*
X294069Y11772D01*
X294154Y11920D01*
X294180Y11992D01*
X294215Y12060D01*
X294266Y12223D01*
X294325Y12383D01*
X294340Y12458D01*
X294363Y12530D01*
X294375Y12635D01*
X294420Y12867D01*
X294427Y13103D01*
X294439Y13208D01*
X294439Y40034D01*
X294436Y40072D01*
X294438Y40110D01*
X294416Y40318D01*
X294399Y40526D01*
X294390Y40563D01*
X294386Y40601D01*
X294331Y40802D01*
X294281Y41005D01*
X294266Y41040D01*
X294255Y41077D01*
X294168Y41267D01*
X294086Y41458D01*
X294066Y41490D01*
X294050Y41525D01*
X293933Y41698D01*
X293821Y41874D01*
X293796Y41903D01*
X293774Y41934D01*
X293631Y42086D01*
X293492Y42242D01*
X293463Y42266D01*
X293437Y42294D01*
X293271Y42421D01*
X293108Y42552D01*
X293075Y42571D01*
X293045Y42594D01*
X292861Y42693D01*
X292680Y42796D01*
X292644Y42809D01*
X292610Y42827D01*
X292413Y42895D01*
X292217Y42968D01*
X292180Y42975D01*
X292144Y42987D01*
X291937Y43022D01*
X291733Y43062D01*
X291695Y43063D01*
X291657Y43070D01*
X291448Y43071D01*
X291240Y43078D01*
X291202Y43073D01*
X291164Y43073D01*
X290957Y43040D01*
X290751Y43013D01*
X290714Y43002D01*
X290677Y42996D01*
X290478Y42931D01*
X290279Y42871D01*
X290244Y42854D01*
X290208Y42842D01*
X290023Y42745D01*
X289835Y42654D01*
X289804Y42632D01*
X289770Y42614D01*
X289698Y42556D01*
X289433Y42368D01*
X289311Y42248D01*
X289237Y42189D01*
X281702Y34654D01*
X280209Y34035D01*
X242824Y34035D01*
X242748Y34029D01*
X242672Y34031D01*
X242503Y34009D01*
X242332Y33995D01*
X242258Y33977D01*
X242183Y33967D01*
X242019Y33918D01*
X241853Y33877D01*
X241784Y33847D01*
X241710Y33825D01*
X241557Y33749D01*
X241400Y33682D01*
X241336Y33641D01*
X241267Y33608D01*
X241128Y33509D01*
X240984Y33417D01*
X240927Y33366D01*
X240865Y33322D01*
X240744Y33202D01*
X240616Y33088D01*
X240568Y33029D01*
X240514Y32975D01*
X240413Y32837D01*
X240306Y32704D01*
X240269Y32638D01*
X240224Y32577D01*
X240147Y32424D01*
X240062Y32276D01*
X240036Y32204D01*
X240001Y32136D01*
X239950Y31973D01*
X239891Y31813D01*
X239876Y31738D01*
X239853Y31666D01*
X239841Y31561D01*
X239796Y31329D01*
X239789Y31093D01*
X239777Y30988D01*
X239777Y27747D01*
X238269Y24106D01*
X235482Y21319D01*
X231841Y19811D01*
X227899Y19811D01*
X224258Y21319D01*
X221471Y24106D01*
X219963Y27747D01*
X219963Y48453D01*
X221471Y52094D01*
X224258Y54881D01*
X227899Y56389D01*
X231841Y56389D01*
X235482Y54881D01*
X238269Y52094D01*
X239777Y48453D01*
X239777Y45212D01*
X239783Y45136D01*
X239781Y45060D01*
X239803Y44890D01*
X239817Y44720D01*
X239835Y44646D01*
X239845Y44571D01*
X239894Y44407D01*
X239935Y44241D01*
X239965Y44172D01*
X239987Y44098D01*
X240063Y43945D01*
X240130Y43788D01*
X240171Y43724D01*
X240204Y43655D01*
X240303Y43516D01*
X240395Y43372D01*
X240446Y43315D01*
X240490Y43253D01*
X240610Y43132D01*
X240724Y43004D01*
X240783Y42956D01*
X240837Y42902D01*
X240975Y42801D01*
X241108Y42694D01*
X241174Y42657D01*
X241235Y42612D01*
X241388Y42535D01*
X241536Y42450D01*
X241608Y42424D01*
X241676Y42389D01*
X241839Y42338D01*
X241999Y42279D01*
X242074Y42264D01*
X242146Y42241D01*
X242251Y42229D01*
X242483Y42184D01*
X242719Y42177D01*
X242824Y42165D01*
X276454Y42165D01*
X276568Y42174D01*
X276682Y42173D01*
X276814Y42194D01*
X276946Y42205D01*
X277057Y42232D01*
X277169Y42250D01*
X277296Y42291D01*
X277425Y42323D01*
X277530Y42368D01*
X277638Y42404D01*
X277756Y42466D01*
X277878Y42518D01*
X277974Y42579D01*
X278076Y42632D01*
X278149Y42691D01*
X278294Y42783D01*
X278536Y42999D01*
X278609Y43057D01*
X287143Y51591D01*
X287217Y51678D01*
X287298Y51758D01*
X287376Y51866D01*
X287462Y51967D01*
X287521Y52065D01*
X287588Y52157D01*
X287648Y52276D01*
X287717Y52390D01*
X287759Y52496D01*
X287811Y52598D01*
X287851Y52724D01*
X287900Y52848D01*
X287925Y52959D01*
X287959Y53068D01*
X287969Y53162D01*
X288007Y53329D01*
X288025Y53654D01*
X288035Y53746D01*
X288035Y251054D01*
X288026Y251168D01*
X288027Y251282D01*
X288006Y251414D01*
X287995Y251546D01*
X287968Y251657D01*
X287950Y251769D01*
X287909Y251896D01*
X287877Y252025D01*
X287832Y252130D01*
X287796Y252238D01*
X287734Y252356D01*
X287682Y252478D01*
X287621Y252574D01*
X287568Y252676D01*
X287509Y252749D01*
X287417Y252894D01*
X287201Y253136D01*
X287143Y253209D01*
X278609Y261743D01*
X278522Y261817D01*
X278442Y261898D01*
X278334Y261976D01*
X278233Y262062D01*
X278135Y262121D01*
X278043Y262188D01*
X277924Y262248D01*
X277810Y262317D01*
X277704Y262359D01*
X277602Y262411D01*
X277476Y262451D01*
X277352Y262500D01*
X277241Y262525D01*
X277132Y262559D01*
X277038Y262569D01*
X276871Y262607D01*
X276546Y262625D01*
X276454Y262635D01*
X142646Y262635D01*
X142532Y262626D01*
X142418Y262627D01*
X142287Y262606D01*
X142154Y262595D01*
X142043Y262568D01*
X141931Y262550D01*
X141804Y262509D01*
X141675Y262477D01*
X141570Y262432D01*
X141462Y262396D01*
X141344Y262334D01*
X141222Y262282D01*
X141126Y262221D01*
X141024Y262168D01*
X140951Y262109D01*
X140806Y262017D01*
X140564Y261801D01*
X140491Y261743D01*
X131966Y253217D01*
X131916Y253159D01*
X131861Y253107D01*
X131757Y252972D01*
X131646Y252841D01*
X131607Y252776D01*
X131560Y252716D01*
X131480Y252565D01*
X131392Y252419D01*
X131363Y252348D01*
X131327Y252281D01*
X131272Y252119D01*
X131208Y251961D01*
X131192Y251886D01*
X131167Y251814D01*
X131139Y251646D01*
X131102Y251479D01*
X131097Y251403D01*
X131085Y251328D01*
X131084Y251157D01*
X131074Y250986D01*
X131082Y250911D01*
X131082Y250834D01*
X131108Y250665D01*
X131126Y250496D01*
X131146Y250423D01*
X131158Y250347D01*
X131212Y250185D01*
X131257Y250020D01*
X131289Y249951D01*
X131312Y249879D01*
X131391Y249727D01*
X131463Y249572D01*
X131505Y249508D01*
X131540Y249441D01*
X131606Y249359D01*
X131738Y249162D01*
X131900Y248990D01*
X131966Y248908D01*
X135891Y244983D01*
X135891Y237896D01*
X135894Y237858D01*
X135892Y237820D01*
X135914Y237612D01*
X135931Y237404D01*
X135940Y237367D01*
X135944Y237329D01*
X135999Y237128D01*
X136049Y236925D01*
X136064Y236890D01*
X136075Y236853D01*
X136162Y236663D01*
X136244Y236472D01*
X136264Y236440D01*
X136280Y236405D01*
X136397Y236232D01*
X136509Y236056D01*
X136534Y236027D01*
X136556Y235996D01*
X136699Y235844D01*
X136838Y235688D01*
X136867Y235664D01*
X136893Y235636D01*
X137059Y235509D01*
X137222Y235378D01*
X137255Y235359D01*
X137285Y235336D01*
X137469Y235237D01*
X137650Y235134D01*
X137686Y235121D01*
X137720Y235103D01*
X137917Y235035D01*
X138113Y234962D01*
X138150Y234955D01*
X138186Y234943D01*
X138393Y234908D01*
X138597Y234868D01*
X138635Y234867D01*
X138673Y234860D01*
X138882Y234859D01*
X139090Y234852D01*
X139128Y234857D01*
X139166Y234857D01*
X139373Y234890D01*
X139579Y234917D01*
X139616Y234928D01*
X139653Y234934D01*
X139852Y234999D01*
X140051Y235059D01*
X140086Y235076D01*
X140122Y235088D01*
X140307Y235185D01*
X140495Y235276D01*
X140526Y235298D01*
X140560Y235316D01*
X140632Y235374D01*
X140897Y235562D01*
X141019Y235682D01*
X141093Y235741D01*
X148525Y243174D01*
X148526Y243174D01*
X150097Y244746D01*
X151591Y245365D01*
X168029Y245365D01*
X168143Y245374D01*
X168257Y245373D01*
X168389Y245394D01*
X168521Y245405D01*
X168632Y245432D01*
X168745Y245450D01*
X168871Y245491D01*
X169000Y245523D01*
X169105Y245568D01*
X169213Y245604D01*
X169331Y245666D01*
X169453Y245718D01*
X169549Y245779D01*
X169651Y245832D01*
X169724Y245891D01*
X169869Y245983D01*
X170111Y246199D01*
X170184Y246257D01*
X174117Y250191D01*
X181483Y250191D01*
X186691Y244983D01*
X186691Y237617D01*
X181483Y232409D01*
X174117Y232409D01*
X170184Y236343D01*
X170097Y236417D01*
X170017Y236498D01*
X169909Y236576D01*
X169808Y236662D01*
X169710Y236721D01*
X169618Y236788D01*
X169499Y236848D01*
X169385Y236917D01*
X169279Y236959D01*
X169177Y237011D01*
X169051Y237051D01*
X168927Y237100D01*
X168816Y237125D01*
X168707Y237159D01*
X168613Y237169D01*
X168446Y237207D01*
X168121Y237225D01*
X168029Y237235D01*
X155346Y237235D01*
X155232Y237226D01*
X155118Y237227D01*
X154986Y237206D01*
X154854Y237195D01*
X154743Y237168D01*
X154631Y237150D01*
X154504Y237109D01*
X154375Y237077D01*
X154270Y237032D01*
X154162Y236996D01*
X154044Y236934D01*
X153922Y236882D01*
X153826Y236821D01*
X153724Y236768D01*
X153651Y236709D01*
X153506Y236617D01*
X153264Y236401D01*
X153191Y236343D01*
X144657Y227809D01*
X144583Y227722D01*
X144502Y227642D01*
X144424Y227534D01*
X144338Y227433D01*
X144279Y227335D01*
X144212Y227243D01*
X144152Y227124D01*
X144083Y227010D01*
X144041Y226904D01*
X143989Y226802D01*
X143949Y226676D01*
X143900Y226552D01*
X143875Y226441D01*
X143841Y226332D01*
X143831Y226238D01*
X143793Y226071D01*
X143775Y225746D01*
X143765Y225654D01*
X143765Y207637D01*
X143774Y207523D01*
X143773Y207409D01*
X143794Y207277D01*
X143805Y207145D01*
X143832Y207034D01*
X143850Y206922D01*
X143891Y206795D01*
X143923Y206666D01*
X143968Y206561D01*
X144004Y206453D01*
X144066Y206335D01*
X144118Y206213D01*
X144179Y206117D01*
X144232Y206015D01*
X144291Y205942D01*
X144383Y205797D01*
X144599Y205555D01*
X144657Y205482D01*
X147237Y202902D01*
X148591Y199635D01*
X148591Y181365D01*
X147237Y178098D01*
X144736Y175597D01*
X142135Y174519D01*
X142008Y174454D01*
X141877Y174398D01*
X141789Y174342D01*
X141696Y174294D01*
X141581Y174209D01*
X141461Y174133D01*
X141383Y174063D01*
X141299Y174001D01*
X141199Y173899D01*
X141093Y173804D01*
X141027Y173723D01*
X140954Y173648D01*
X140873Y173531D01*
X140783Y173420D01*
X140731Y173330D01*
X140671Y173244D01*
X140610Y173116D01*
X140539Y172992D01*
X140503Y172894D01*
X140457Y172799D01*
X140417Y172663D01*
X140368Y172529D01*
X140347Y172427D01*
X140318Y172326D01*
X140300Y172185D01*
X140273Y172045D01*
X140270Y171941D01*
X140257Y171837D01*
X140262Y171694D01*
X140257Y171552D01*
X140271Y171448D01*
X140275Y171344D01*
X140303Y171204D01*
X140322Y171063D01*
X140352Y170963D01*
X140373Y170860D01*
X140423Y170727D01*
X140464Y170590D01*
X140510Y170497D01*
X140547Y170399D01*
X140619Y170275D01*
X140681Y170147D01*
X140742Y170062D01*
X140794Y169972D01*
X140884Y169861D01*
X140967Y169745D01*
X141040Y169671D01*
X141106Y169590D01*
X141213Y169495D01*
X141313Y169394D01*
X141398Y169333D01*
X141476Y169263D01*
X141597Y169187D01*
X141712Y169104D01*
X141805Y169057D01*
X141894Y169001D01*
X142026Y168946D01*
X142153Y168881D01*
X142252Y168850D01*
X142349Y168809D01*
X142487Y168776D01*
X142623Y168733D01*
X142701Y168724D01*
X142828Y168694D01*
X143261Y168661D01*
X143301Y168657D01*
X161499Y168657D01*
X161641Y168668D01*
X161784Y168670D01*
X161887Y168688D01*
X161991Y168697D01*
X162129Y168731D01*
X162270Y168756D01*
X162368Y168790D01*
X162470Y168815D01*
X162601Y168872D01*
X162735Y168919D01*
X162827Y168969D01*
X162923Y169010D01*
X163043Y169086D01*
X163168Y169155D01*
X163251Y169219D01*
X163339Y169275D01*
X163445Y169370D01*
X163558Y169457D01*
X163629Y169534D01*
X163707Y169604D01*
X163796Y169715D01*
X163893Y169819D01*
X163951Y169906D01*
X164017Y169988D01*
X164087Y170111D01*
X164166Y170230D01*
X164209Y170326D01*
X164261Y170416D01*
X164310Y170550D01*
X164369Y170680D01*
X164396Y170781D01*
X164432Y170879D01*
X164460Y171018D01*
X164497Y171156D01*
X164507Y171261D01*
X164511Y171280D01*
X164524Y171078D01*
X164531Y170870D01*
X164539Y170833D01*
X164541Y170795D01*
X164588Y170592D01*
X164629Y170387D01*
X164643Y170351D01*
X164651Y170314D01*
X164730Y170121D01*
X164804Y169925D01*
X164823Y169892D01*
X164837Y169857D01*
X164946Y169679D01*
X165050Y169498D01*
X165075Y169468D01*
X165094Y169436D01*
X165230Y169278D01*
X165363Y169116D01*
X165391Y169091D01*
X165416Y169062D01*
X165576Y168928D01*
X165733Y168790D01*
X165765Y168769D01*
X165794Y168745D01*
X165876Y168700D01*
X166150Y168527D01*
X166309Y168460D01*
X166391Y168415D01*
X167115Y168115D01*
X168544Y166686D01*
X179386Y155844D01*
X180725Y154505D01*
X180754Y154480D01*
X180780Y154452D01*
X180942Y154320D01*
X181101Y154185D01*
X181134Y154166D01*
X181164Y154142D01*
X181345Y154038D01*
X181524Y153931D01*
X181559Y153916D01*
X181592Y153898D01*
X181788Y153825D01*
X181982Y153748D01*
X182019Y153739D01*
X182055Y153726D01*
X182259Y153686D01*
X182463Y153641D01*
X182502Y153639D01*
X182539Y153631D01*
X182747Y153625D01*
X182956Y153613D01*
X182994Y153617D01*
X183032Y153616D01*
X183238Y153643D01*
X183447Y153665D01*
X183483Y153675D01*
X183521Y153680D01*
X183721Y153741D01*
X183922Y153796D01*
X183957Y153812D01*
X183994Y153823D01*
X184181Y153915D01*
X184371Y154002D01*
X184402Y154023D01*
X184437Y154040D01*
X184607Y154161D01*
X184780Y154277D01*
X184808Y154303D01*
X184839Y154325D01*
X184987Y154472D01*
X185140Y154615D01*
X185163Y154645D01*
X185190Y154672D01*
X185313Y154840D01*
X185440Y155006D01*
X185458Y155040D01*
X185480Y155071D01*
X185574Y155257D01*
X185673Y155441D01*
X185685Y155477D01*
X185703Y155511D01*
X185766Y155711D01*
X185833Y155908D01*
X185839Y155945D01*
X185851Y155982D01*
X185861Y156074D01*
X185916Y156394D01*
X185917Y156566D01*
X185927Y156659D01*
X185927Y173871D01*
X185918Y173985D01*
X185919Y174099D01*
X185898Y174231D01*
X185887Y174363D01*
X185860Y174474D01*
X185842Y174587D01*
X185801Y174713D01*
X185769Y174842D01*
X185724Y174947D01*
X185688Y175055D01*
X185626Y175173D01*
X185574Y175295D01*
X185513Y175391D01*
X185460Y175493D01*
X185401Y175566D01*
X185309Y175711D01*
X185093Y175953D01*
X185035Y176026D01*
X182963Y178098D01*
X181609Y181365D01*
X181609Y199635D01*
X182963Y202902D01*
X185464Y205403D01*
X188731Y206757D01*
X192269Y206757D01*
X195546Y205399D01*
X195551Y205394D01*
X195687Y205290D01*
X195817Y205179D01*
X195882Y205140D01*
X195942Y205093D01*
X196093Y205013D01*
X196239Y204925D01*
X196310Y204896D01*
X196377Y204860D01*
X196539Y204805D01*
X196697Y204742D01*
X196772Y204725D01*
X196844Y204700D01*
X197012Y204672D01*
X197179Y204635D01*
X197255Y204630D01*
X197330Y204618D01*
X197501Y204617D01*
X197671Y204607D01*
X197747Y204615D01*
X197823Y204615D01*
X197992Y204641D01*
X198162Y204659D01*
X198235Y204679D01*
X198311Y204691D01*
X198473Y204745D01*
X198638Y204790D01*
X198707Y204822D01*
X198779Y204846D01*
X198931Y204924D01*
X199086Y204996D01*
X199149Y205038D01*
X199217Y205073D01*
X199299Y205139D01*
X199495Y205271D01*
X199668Y205433D01*
X199750Y205499D01*
X226297Y232046D01*
X227791Y232665D01*
X253207Y232665D01*
X253425Y232682D01*
X253642Y232696D01*
X253670Y232702D01*
X253698Y232705D01*
X253911Y232757D01*
X254123Y232806D01*
X254150Y232817D01*
X254177Y232823D01*
X254378Y232910D01*
X254580Y232992D01*
X254604Y233007D01*
X254631Y233018D01*
X254814Y233135D01*
X255001Y233249D01*
X255023Y233268D01*
X255047Y233283D01*
X255209Y233428D01*
X255375Y233571D01*
X255393Y233593D01*
X255415Y233612D01*
X255552Y233781D01*
X255692Y233949D01*
X255703Y233969D01*
X255724Y233996D01*
X255968Y234424D01*
X255996Y234500D01*
X256022Y234546D01*
X256148Y234851D01*
X259649Y238352D01*
X264224Y240247D01*
X269176Y240247D01*
X273751Y238352D01*
X277252Y234851D01*
X279147Y230276D01*
X279147Y225324D01*
X277252Y220749D01*
X273751Y217248D01*
X269176Y215353D01*
X264224Y215353D01*
X259649Y217248D01*
X256148Y220749D01*
X255359Y222654D01*
X255259Y222849D01*
X255164Y223045D01*
X255147Y223068D01*
X255134Y223093D01*
X255004Y223269D01*
X254878Y223447D01*
X254858Y223467D01*
X254841Y223490D01*
X254684Y223643D01*
X254531Y223798D01*
X254509Y223815D01*
X254488Y223835D01*
X254309Y223960D01*
X254133Y224088D01*
X254107Y224101D01*
X254084Y224117D01*
X253887Y224212D01*
X253692Y224311D01*
X253665Y224319D01*
X253639Y224332D01*
X253430Y224393D01*
X253222Y224459D01*
X253198Y224462D01*
X253166Y224471D01*
X252677Y224532D01*
X252596Y224529D01*
X252544Y224535D01*
X231546Y224535D01*
X231432Y224526D01*
X231318Y224527D01*
X231186Y224506D01*
X231054Y224495D01*
X230943Y224468D01*
X230831Y224450D01*
X230704Y224409D01*
X230575Y224377D01*
X230470Y224332D01*
X230362Y224296D01*
X230244Y224234D01*
X230122Y224182D01*
X230026Y224121D01*
X229924Y224068D01*
X229851Y224009D01*
X229706Y223917D01*
X229464Y223701D01*
X229391Y223643D01*
X200283Y194535D01*
X200209Y194448D01*
X200128Y194368D01*
X200050Y194260D01*
X199964Y194159D01*
X199905Y194061D01*
X199838Y193969D01*
X199778Y193850D01*
X199709Y193736D01*
X199667Y193630D01*
X199615Y193528D01*
X199575Y193402D01*
X199526Y193278D01*
X199501Y193167D01*
X199467Y193058D01*
X199457Y192964D01*
X199419Y192797D01*
X199401Y192472D01*
X199391Y192380D01*
X199391Y181365D01*
X198037Y178098D01*
X195965Y176026D01*
X195891Y175939D01*
X195810Y175859D01*
X195732Y175751D01*
X195646Y175650D01*
X195587Y175552D01*
X195520Y175460D01*
X195460Y175341D01*
X195391Y175227D01*
X195349Y175121D01*
X195297Y175019D01*
X195257Y174893D01*
X195208Y174769D01*
X195183Y174658D01*
X195149Y174549D01*
X195139Y174455D01*
X195101Y174288D01*
X195083Y173963D01*
X195073Y173871D01*
X195073Y130929D01*
X195082Y130815D01*
X195081Y130701D01*
X195102Y130569D01*
X195113Y130437D01*
X195140Y130326D01*
X195158Y130213D01*
X195199Y130087D01*
X195231Y129958D01*
X195276Y129853D01*
X195312Y129745D01*
X195374Y129627D01*
X195426Y129505D01*
X195487Y129409D01*
X195540Y129307D01*
X195599Y129234D01*
X195691Y129089D01*
X195907Y128847D01*
X195965Y128774D01*
X198037Y126702D01*
X199391Y123435D01*
X199391Y105165D01*
X198037Y101898D01*
X195536Y99397D01*
X192269Y98043D01*
X188732Y98043D01*
X185570Y99353D01*
X185398Y99408D01*
X185229Y99471D01*
X185164Y99484D01*
X185101Y99504D01*
X184922Y99531D01*
X184745Y99566D01*
X184679Y99568D01*
X184613Y99578D01*
X184432Y99575D01*
X184252Y99581D01*
X184186Y99572D01*
X184119Y99571D01*
X183942Y99540D01*
X183763Y99517D01*
X183699Y99497D01*
X183634Y99486D01*
X183464Y99426D01*
X183290Y99374D01*
X183231Y99345D01*
X183168Y99323D01*
X183009Y99236D01*
X182847Y99157D01*
X182793Y99119D01*
X182735Y99087D01*
X182592Y98976D01*
X182445Y98872D01*
X182398Y98825D01*
X182345Y98784D01*
X182222Y98652D01*
X182094Y98525D01*
X182055Y98471D01*
X182010Y98422D01*
X181910Y98272D01*
X181804Y98126D01*
X181774Y98067D01*
X181737Y98011D01*
X181663Y97847D01*
X181581Y97686D01*
X181561Y97622D01*
X181534Y97562D01*
X181487Y97388D01*
X181433Y97215D01*
X181427Y97163D01*
X181406Y97085D01*
X181357Y96594D01*
X181359Y96561D01*
X181357Y96537D01*
X181357Y91635D01*
X181366Y91522D01*
X181365Y91407D01*
X181386Y91276D01*
X181397Y91144D01*
X181424Y91033D01*
X181442Y90920D01*
X181483Y90794D01*
X181515Y90665D01*
X181560Y90560D01*
X181596Y90451D01*
X181658Y90334D01*
X181710Y90212D01*
X181771Y90115D01*
X181824Y90014D01*
X181883Y89940D01*
X181975Y89795D01*
X182191Y89553D01*
X182249Y89481D01*
X191081Y80649D01*
X191168Y80575D01*
X191248Y80494D01*
X191355Y80416D01*
X191457Y80330D01*
X191555Y80271D01*
X191647Y80204D01*
X191765Y80144D01*
X191879Y80075D01*
X191985Y80033D01*
X192087Y79981D01*
X192214Y79941D01*
X192337Y79892D01*
X192449Y79867D01*
X192558Y79833D01*
X192651Y79823D01*
X192819Y79785D01*
X193143Y79767D01*
X193235Y79757D01*
X200465Y79757D01*
X200578Y79766D01*
X200693Y79765D01*
X200824Y79786D01*
X200956Y79797D01*
X201067Y79824D01*
X201180Y79842D01*
X201306Y79883D01*
X201435Y79915D01*
X201540Y79960D01*
X201649Y79996D01*
X201766Y80058D01*
X201888Y80110D01*
X201985Y80171D01*
X202086Y80224D01*
X202160Y80283D01*
X202305Y80375D01*
X202547Y80591D01*
X202619Y80649D01*
X211451Y89481D01*
X211525Y89568D01*
X211606Y89648D01*
X211684Y89755D01*
X211770Y89857D01*
X211829Y89955D01*
X211896Y90047D01*
X211956Y90165D01*
X212025Y90279D01*
X212067Y90385D01*
X212119Y90487D01*
X212159Y90614D01*
X212208Y90737D01*
X212233Y90849D01*
X212267Y90958D01*
X212277Y91051D01*
X212315Y91219D01*
X212333Y91543D01*
X212343Y91635D01*
X212343Y127707D01*
X212885Y129015D01*
X214314Y130444D01*
X254261Y170391D01*
X254402Y170557D01*
X254547Y170721D01*
X254562Y170745D01*
X254580Y170767D01*
X254693Y170954D01*
X254809Y171139D01*
X254820Y171165D01*
X254835Y171189D01*
X254916Y171392D01*
X255001Y171593D01*
X255007Y171621D01*
X255018Y171647D01*
X255065Y171861D01*
X255116Y172073D01*
X255118Y172101D01*
X255125Y172129D01*
X255137Y172347D01*
X255153Y172565D01*
X255151Y172593D01*
X255152Y172621D01*
X255129Y172839D01*
X255110Y173056D01*
X255104Y173079D01*
X255100Y173112D01*
X254969Y173588D01*
X254936Y173661D01*
X254921Y173712D01*
X254253Y175324D01*
X254253Y180276D01*
X256148Y184851D01*
X259649Y188352D01*
X264224Y190247D01*
X269176Y190247D01*
X273751Y188352D01*
X277252Y184851D01*
X279147Y180276D01*
X279147Y175324D01*
X277252Y170749D01*
X273751Y167248D01*
X269176Y165353D01*
X264224Y165353D01*
X262612Y166021D01*
X262404Y166088D01*
X262197Y166159D01*
X262169Y166164D01*
X262142Y166173D01*
X261926Y166205D01*
X261711Y166242D01*
X261682Y166242D01*
X261654Y166246D01*
X261436Y166243D01*
X261217Y166245D01*
X261189Y166240D01*
X261161Y166240D01*
X260946Y166202D01*
X260730Y166168D01*
X260703Y166159D01*
X260675Y166154D01*
X260470Y166082D01*
X260261Y166014D01*
X260236Y166001D01*
X260209Y165991D01*
X260018Y165887D01*
X259824Y165786D01*
X259806Y165771D01*
X259776Y165755D01*
X259387Y165453D01*
X259332Y165394D01*
X259291Y165361D01*
X220349Y126419D01*
X220275Y126332D01*
X220194Y126252D01*
X220116Y126145D01*
X220030Y126043D01*
X219971Y125945D01*
X219904Y125853D01*
X219844Y125735D01*
X219775Y125621D01*
X219733Y125515D01*
X219681Y125413D01*
X219641Y125286D01*
X219592Y125163D01*
X219567Y125051D01*
X219533Y124942D01*
X219523Y124849D01*
X219485Y124681D01*
X219467Y124357D01*
X219457Y124265D01*
X219457Y88193D01*
X218915Y86885D01*
X205215Y73185D01*
X203907Y72643D01*
X194367Y72643D01*
X194225Y72632D01*
X194082Y72630D01*
X193980Y72612D01*
X193876Y72603D01*
X193737Y72569D01*
X193597Y72544D01*
X193498Y72510D01*
X193397Y72485D01*
X193266Y72428D01*
X193131Y72381D01*
X193039Y72331D01*
X192943Y72290D01*
X192823Y72213D01*
X192698Y72145D01*
X192615Y72081D01*
X192527Y72025D01*
X192421Y71930D01*
X192308Y71842D01*
X192237Y71766D01*
X192160Y71696D01*
X192070Y71585D01*
X191973Y71481D01*
X191915Y71393D01*
X191850Y71312D01*
X191779Y71189D01*
X191700Y71069D01*
X191657Y70974D01*
X191606Y70884D01*
X191556Y70750D01*
X191497Y70620D01*
X191470Y70519D01*
X191434Y70421D01*
X191407Y70281D01*
X191370Y70143D01*
X191359Y70039D01*
X191339Y69937D01*
X191335Y69794D01*
X191321Y69652D01*
X191327Y69548D01*
X191324Y69444D01*
X191343Y69302D01*
X191352Y69160D01*
X191375Y69058D01*
X191388Y68955D01*
X191430Y68818D01*
X191461Y68679D01*
X191501Y68582D01*
X191531Y68483D01*
X191594Y68354D01*
X191647Y68222D01*
X191702Y68133D01*
X191748Y68039D01*
X191830Y67923D01*
X191905Y67801D01*
X191973Y67722D01*
X192033Y67637D01*
X192133Y67536D01*
X192227Y67427D01*
X192307Y67360D01*
X192380Y67286D01*
X192495Y67202D01*
X192605Y67110D01*
X192673Y67072D01*
X192683Y67065D01*
X202549Y57200D01*
X202556Y57194D01*
X202562Y57186D01*
X202744Y57034D01*
X202924Y56880D01*
X202933Y56875D01*
X202940Y56869D01*
X202975Y56850D01*
X203347Y56626D01*
X203469Y56577D01*
X203537Y56539D01*
X207542Y54881D01*
X210329Y52094D01*
X211837Y48453D01*
X211837Y27747D01*
X210329Y24106D01*
X207542Y21319D01*
X203901Y19811D01*
X199959Y19811D01*
X196318Y21319D01*
X193531Y24106D01*
X191974Y27867D01*
X191892Y28027D01*
X191816Y28191D01*
X191779Y28247D01*
X191749Y28306D01*
X191642Y28451D01*
X191541Y28601D01*
X191495Y28649D01*
X191456Y28703D01*
X191327Y28829D01*
X191203Y28960D01*
X191150Y29001D01*
X191103Y29047D01*
X190955Y29151D01*
X190812Y29261D01*
X190753Y29292D01*
X190698Y29330D01*
X190536Y29409D01*
X190377Y29494D01*
X190314Y29515D01*
X190254Y29544D01*
X190081Y29595D01*
X189910Y29654D01*
X189845Y29665D01*
X189781Y29684D01*
X189602Y29706D01*
X189424Y29736D01*
X189357Y29737D01*
X189291Y29745D01*
X189111Y29738D01*
X188931Y29739D01*
X188865Y29729D01*
X188798Y29727D01*
X188622Y29691D01*
X188443Y29663D01*
X188380Y29642D01*
X188315Y29629D01*
X188146Y29565D01*
X187975Y29509D01*
X187916Y29478D01*
X187853Y29454D01*
X187697Y29364D01*
X187537Y29281D01*
X187496Y29248D01*
X187426Y29208D01*
X187044Y28895D01*
X187022Y28870D01*
X187004Y28855D01*
X181675Y23526D01*
X181674Y23526D01*
X180103Y21954D01*
X178609Y21335D01*
X149471Y21335D01*
X149357Y21326D01*
X149243Y21327D01*
X149111Y21306D01*
X148979Y21295D01*
X148868Y21268D01*
X148755Y21250D01*
X148629Y21209D01*
X148500Y21177D01*
X148395Y21132D01*
X148287Y21096D01*
X148169Y21034D01*
X148047Y20982D01*
X147951Y20921D01*
X147849Y20868D01*
X147776Y20809D01*
X147631Y20717D01*
X147389Y20501D01*
X147316Y20443D01*
X143383Y16509D01*
X136017Y16509D01*
X132084Y20443D01*
X131997Y20517D01*
X131917Y20598D01*
X131809Y20676D01*
X131708Y20762D01*
X131610Y20821D01*
X131518Y20888D01*
X131399Y20948D01*
X131285Y21017D01*
X131179Y21059D01*
X131077Y21111D01*
X130951Y21151D01*
X130827Y21200D01*
X130716Y21225D01*
X130607Y21259D01*
X130513Y21269D01*
X130346Y21307D01*
X130021Y21325D01*
X129929Y21335D01*
X124071Y21335D01*
X123957Y21326D01*
X123843Y21327D01*
X123711Y21306D01*
X123579Y21295D01*
X123468Y21268D01*
X123355Y21250D01*
X123229Y21209D01*
X123100Y21177D01*
X122995Y21132D01*
X122887Y21096D01*
X122769Y21034D01*
X122647Y20982D01*
X122551Y20921D01*
X122449Y20868D01*
X122376Y20809D01*
X122231Y20717D01*
X121989Y20501D01*
X121916Y20443D01*
X117983Y16509D01*
X110617Y16509D01*
X105409Y21717D01*
X105409Y29083D01*
X110617Y34291D01*
X117983Y34291D01*
X121916Y30357D01*
X122003Y30283D01*
X122083Y30202D01*
X122191Y30124D01*
X122292Y30038D01*
X122390Y29979D01*
X122482Y29912D01*
X122601Y29852D01*
X122715Y29783D01*
X122821Y29741D01*
X122923Y29689D01*
X123049Y29649D01*
X123173Y29600D01*
X123284Y29575D01*
X123393Y29541D01*
X123487Y29531D01*
X123654Y29493D01*
X123979Y29475D01*
X124071Y29465D01*
X129929Y29465D01*
X130043Y29474D01*
X130157Y29473D01*
X130289Y29494D01*
X130421Y29505D01*
X130532Y29532D01*
X130645Y29550D01*
X130771Y29591D01*
X130900Y29623D01*
X131005Y29668D01*
X131113Y29704D01*
X131231Y29766D01*
X131353Y29818D01*
X131449Y29879D01*
X131551Y29932D01*
X131624Y29991D01*
X131769Y30083D01*
X132011Y30299D01*
X132084Y30357D01*
X136017Y34291D01*
X143383Y34291D01*
X147316Y30357D01*
X147403Y30283D01*
X147483Y30202D01*
X147591Y30124D01*
X147692Y30038D01*
X147790Y29979D01*
X147882Y29912D01*
X148001Y29852D01*
X148115Y29783D01*
X148221Y29741D01*
X148323Y29689D01*
X148449Y29649D01*
X148573Y29600D01*
X148684Y29575D01*
X148793Y29541D01*
X148887Y29531D01*
X149054Y29493D01*
X149379Y29475D01*
X149471Y29465D01*
X174854Y29465D01*
X174968Y29474D01*
X175082Y29473D01*
X175214Y29494D01*
X175346Y29505D01*
X175457Y29532D01*
X175570Y29550D01*
X175696Y29591D01*
X175825Y29623D01*
X175930Y29668D01*
X176038Y29704D01*
X176156Y29766D01*
X176278Y29818D01*
X176374Y29879D01*
X176476Y29932D01*
X176549Y29991D01*
X176694Y30083D01*
X176936Y30299D01*
X177009Y30357D01*
X186625Y39974D01*
X186626Y39974D01*
X188197Y41546D01*
X190142Y42351D01*
X190336Y42451D01*
X190533Y42547D01*
X190556Y42564D01*
X190581Y42576D01*
X190757Y42706D01*
X190935Y42833D01*
X190955Y42853D01*
X190978Y42869D01*
X191131Y43026D01*
X191286Y43179D01*
X191303Y43202D01*
X191323Y43223D01*
X191448Y43402D01*
X191576Y43578D01*
X191589Y43603D01*
X191605Y43627D01*
X191700Y43824D01*
X191799Y44018D01*
X191807Y44045D01*
X191820Y44071D01*
X191881Y44281D01*
X191947Y44489D01*
X191950Y44512D01*
X191959Y44544D01*
X192020Y45034D01*
X192017Y45114D01*
X192023Y45167D01*
X192023Y48453D01*
X193522Y52070D01*
X193588Y52277D01*
X193659Y52484D01*
X193664Y52512D01*
X193673Y52539D01*
X193705Y52755D01*
X193742Y52971D01*
X193742Y52999D01*
X193746Y53027D01*
X193744Y53245D01*
X193745Y53464D01*
X193741Y53492D01*
X193740Y53520D01*
X193702Y53735D01*
X193668Y53951D01*
X193659Y53978D01*
X193655Y54006D01*
X193583Y54212D01*
X193514Y54420D01*
X193501Y54445D01*
X193492Y54472D01*
X193387Y54663D01*
X193286Y54857D01*
X193272Y54876D01*
X193256Y54905D01*
X192953Y55295D01*
X192894Y55349D01*
X192861Y55391D01*
X189709Y58543D01*
X189622Y58617D01*
X189542Y58698D01*
X189434Y58776D01*
X189333Y58862D01*
X189235Y58921D01*
X189143Y58988D01*
X189024Y59048D01*
X188910Y59117D01*
X188804Y59159D01*
X188702Y59211D01*
X188576Y59251D01*
X188452Y59300D01*
X188341Y59325D01*
X188232Y59359D01*
X188138Y59369D01*
X187971Y59407D01*
X187646Y59425D01*
X187554Y59435D01*
X176991Y59435D01*
X175497Y60054D01*
X161654Y73897D01*
X161035Y75391D01*
X161035Y97163D01*
X161026Y97277D01*
X161027Y97391D01*
X161006Y97523D01*
X160995Y97655D01*
X160968Y97766D01*
X160950Y97878D01*
X160909Y98005D01*
X160877Y98134D01*
X160832Y98239D01*
X160796Y98347D01*
X160734Y98465D01*
X160682Y98587D01*
X160621Y98683D01*
X160568Y98785D01*
X160509Y98858D01*
X160417Y99003D01*
X160201Y99245D01*
X160143Y99318D01*
X157563Y101898D01*
X156209Y105165D01*
X156209Y123435D01*
X157563Y126702D01*
X160143Y129282D01*
X160217Y129369D01*
X160298Y129449D01*
X160376Y129557D01*
X160462Y129658D01*
X160521Y129756D01*
X160588Y129848D01*
X160648Y129967D01*
X160717Y130081D01*
X160759Y130187D01*
X160811Y130289D01*
X160851Y130415D01*
X160900Y130539D01*
X160925Y130650D01*
X160959Y130759D01*
X160969Y130853D01*
X161007Y131020D01*
X161025Y131345D01*
X161035Y131437D01*
X161035Y136754D01*
X161026Y136868D01*
X161027Y136982D01*
X161006Y137114D01*
X160995Y137246D01*
X160968Y137357D01*
X160950Y137469D01*
X160909Y137596D01*
X160877Y137725D01*
X160832Y137830D01*
X160796Y137938D01*
X160734Y138056D01*
X160682Y138178D01*
X160621Y138274D01*
X160568Y138376D01*
X160509Y138449D01*
X160417Y138594D01*
X160201Y138836D01*
X160143Y138909D01*
X151609Y147443D01*
X151522Y147517D01*
X151442Y147598D01*
X151334Y147676D01*
X151233Y147762D01*
X151135Y147821D01*
X151043Y147888D01*
X150924Y147948D01*
X150810Y148017D01*
X150704Y148059D01*
X150602Y148111D01*
X150476Y148151D01*
X150352Y148200D01*
X150241Y148225D01*
X150132Y148259D01*
X150038Y148269D01*
X149871Y148307D01*
X149546Y148325D01*
X149454Y148335D01*
X37291Y148335D01*
X35797Y148954D01*
X34225Y150526D01*
X15363Y169389D01*
X15334Y169413D01*
X15308Y169442D01*
X15146Y169573D01*
X14987Y169708D01*
X14954Y169728D01*
X14924Y169752D01*
X14744Y169855D01*
X14564Y169963D01*
X14529Y169977D01*
X14496Y169996D01*
X14300Y170069D01*
X14106Y170146D01*
X14069Y170154D01*
X14033Y170168D01*
X13828Y170208D01*
X13624Y170253D01*
X13586Y170255D01*
X13549Y170262D01*
X13341Y170269D01*
X13132Y170280D01*
X13094Y170276D01*
X13056Y170278D01*
X12849Y170250D01*
X12641Y170228D01*
X12605Y170218D01*
X12567Y170213D01*
X12367Y170153D01*
X12166Y170098D01*
X12131Y170082D01*
X12094Y170071D01*
X11907Y169979D01*
X11717Y169892D01*
X11685Y169871D01*
X11651Y169854D01*
X11482Y169733D01*
X11308Y169617D01*
X11280Y169590D01*
X11249Y169568D01*
X11101Y169422D01*
X10948Y169279D01*
X10925Y169248D01*
X10898Y169222D01*
X10775Y169053D01*
X10648Y168887D01*
X10630Y168854D01*
X10608Y168823D01*
X10514Y168637D01*
X10415Y168453D01*
X10403Y168416D01*
X10385Y168382D01*
X10323Y168183D01*
X10255Y167986D01*
X10249Y167948D01*
X10237Y167912D01*
X10227Y167820D01*
X10172Y167499D01*
X10171Y167327D01*
X10161Y167234D01*
X10161Y54569D01*
X10172Y54427D01*
X10174Y54284D01*
X10192Y54181D01*
X10201Y54077D01*
X10235Y53939D01*
X10260Y53799D01*
X10294Y53700D01*
X10319Y53599D01*
X10376Y53468D01*
X10423Y53333D01*
X10473Y53241D01*
X10514Y53145D01*
X10590Y53025D01*
X10659Y52900D01*
X10723Y52817D01*
X10779Y52729D01*
X10874Y52623D01*
X10961Y52510D01*
X11038Y52439D01*
X11108Y52361D01*
X11219Y52272D01*
X11323Y52175D01*
X11410Y52117D01*
X11492Y52051D01*
X11615Y51981D01*
X11734Y51902D01*
X11829Y51859D01*
X11920Y51807D01*
X12054Y51758D01*
X12184Y51699D01*
X12285Y51672D01*
X12383Y51636D01*
X12523Y51608D01*
X12660Y51571D01*
X12765Y51561D01*
X12867Y51541D01*
X13009Y51537D01*
X13151Y51522D01*
X13256Y51529D01*
X13360Y51526D01*
X13501Y51544D01*
X13644Y51553D01*
X13746Y51576D01*
X13849Y51590D01*
X13986Y51631D01*
X14125Y51663D01*
X14221Y51702D01*
X14321Y51733D01*
X14450Y51795D01*
X14582Y51849D01*
X14671Y51904D01*
X14765Y51949D01*
X14881Y52032D01*
X15003Y52106D01*
X15082Y52175D01*
X15167Y52235D01*
X15268Y52335D01*
X15376Y52428D01*
X15444Y52508D01*
X15518Y52582D01*
X15602Y52697D01*
X15693Y52806D01*
X15731Y52875D01*
X15808Y52980D01*
X16004Y53368D01*
X16023Y53403D01*
X16140Y53685D01*
X19213Y56758D01*
X19454Y56858D01*
X19648Y56957D01*
X19845Y57053D01*
X19868Y57070D01*
X19893Y57083D01*
X20069Y57213D01*
X20247Y57339D01*
X20267Y57359D01*
X20290Y57376D01*
X20443Y57532D01*
X20598Y57686D01*
X20615Y57709D01*
X20635Y57729D01*
X20760Y57908D01*
X20888Y58084D01*
X20901Y58110D01*
X20917Y58133D01*
X21012Y58330D01*
X21111Y58525D01*
X21119Y58552D01*
X21132Y58578D01*
X21193Y58787D01*
X21259Y58995D01*
X21262Y59019D01*
X21271Y59051D01*
X21332Y59540D01*
X21329Y59621D01*
X21335Y59673D01*
X21335Y64309D01*
X21954Y65803D01*
X23526Y67375D01*
X55134Y98983D01*
X55275Y99148D01*
X55420Y99313D01*
X55435Y99337D01*
X55454Y99359D01*
X55567Y99546D01*
X55683Y99731D01*
X55694Y99757D01*
X55708Y99781D01*
X55790Y99984D01*
X55874Y100185D01*
X55881Y100213D01*
X55891Y100239D01*
X55939Y100452D01*
X55990Y100665D01*
X55992Y100693D01*
X55998Y100721D01*
X56010Y100939D01*
X56027Y101157D01*
X56024Y101185D01*
X56026Y101213D01*
X56003Y101431D01*
X55984Y101648D01*
X55977Y101671D01*
X55974Y101704D01*
X55843Y102180D01*
X55809Y102253D01*
X55795Y102303D01*
X54609Y105166D01*
X54609Y123435D01*
X55963Y126702D01*
X58464Y129203D01*
X61731Y130557D01*
X65269Y130557D01*
X68536Y129203D01*
X71037Y126702D01*
X72391Y123435D01*
X72391Y105165D01*
X71037Y101898D01*
X68536Y99397D01*
X67777Y99083D01*
X67769Y99078D01*
X67759Y99075D01*
X67550Y98966D01*
X67338Y98857D01*
X67331Y98852D01*
X67322Y98847D01*
X67291Y98822D01*
X66941Y98565D01*
X66850Y98471D01*
X66789Y98422D01*
X66090Y97723D01*
X65424Y97447D01*
X65415Y97443D01*
X65406Y97440D01*
X65195Y97330D01*
X64985Y97222D01*
X64977Y97217D01*
X64968Y97212D01*
X64937Y97187D01*
X64588Y96929D01*
X64496Y96836D01*
X64435Y96787D01*
X30357Y62709D01*
X30283Y62622D01*
X30202Y62542D01*
X30124Y62434D01*
X30038Y62333D01*
X29979Y62235D01*
X29912Y62143D01*
X29852Y62024D01*
X29783Y61910D01*
X29741Y61804D01*
X29689Y61702D01*
X29649Y61576D01*
X29600Y61452D01*
X29575Y61341D01*
X29541Y61232D01*
X29531Y61138D01*
X29493Y60971D01*
X29475Y60646D01*
X29465Y60554D01*
X29465Y59673D01*
X29482Y59455D01*
X29496Y59237D01*
X29502Y59210D01*
X29505Y59181D01*
X29557Y58969D01*
X29606Y58757D01*
X29617Y58730D01*
X29623Y58703D01*
X29710Y58502D01*
X29792Y58300D01*
X29807Y58275D01*
X29818Y58249D01*
X29935Y58065D01*
X30049Y57879D01*
X30068Y57857D01*
X30083Y57833D01*
X30228Y57671D01*
X30371Y57505D01*
X30393Y57486D01*
X30412Y57465D01*
X30581Y57328D01*
X30749Y57188D01*
X30770Y57176D01*
X30796Y57155D01*
X31224Y56911D01*
X31300Y56883D01*
X31346Y56858D01*
X31587Y56758D01*
X34660Y53685D01*
X36323Y49671D01*
X36323Y26529D01*
X34660Y22515D01*
X31587Y19442D01*
X27573Y17779D01*
X23227Y17779D01*
X19213Y19442D01*
X16140Y22515D01*
X16023Y22797D01*
X15958Y22924D01*
X15902Y23055D01*
X15846Y23143D01*
X15798Y23236D01*
X15713Y23351D01*
X15637Y23471D01*
X15567Y23549D01*
X15505Y23633D01*
X15403Y23732D01*
X15308Y23839D01*
X15227Y23904D01*
X15152Y23977D01*
X15035Y24059D01*
X14924Y24149D01*
X14834Y24200D01*
X14748Y24260D01*
X14620Y24322D01*
X14496Y24393D01*
X14398Y24429D01*
X14304Y24474D01*
X14167Y24515D01*
X14033Y24564D01*
X13930Y24584D01*
X13830Y24614D01*
X13689Y24632D01*
X13549Y24659D01*
X13445Y24662D01*
X13341Y24675D01*
X13198Y24670D01*
X13056Y24674D01*
X12952Y24661D01*
X12848Y24657D01*
X12708Y24629D01*
X12567Y24610D01*
X12467Y24580D01*
X12364Y24559D01*
X12231Y24509D01*
X12094Y24467D01*
X12001Y24421D01*
X11903Y24385D01*
X11779Y24313D01*
X11651Y24251D01*
X11566Y24190D01*
X11476Y24138D01*
X11365Y24048D01*
X11249Y23965D01*
X11175Y23892D01*
X11094Y23825D01*
X11000Y23719D01*
X10898Y23618D01*
X10837Y23534D01*
X10767Y23456D01*
X10691Y23335D01*
X10608Y23220D01*
X10561Y23126D01*
X10505Y23038D01*
X10450Y22906D01*
X10385Y22779D01*
X10354Y22679D01*
X10313Y22583D01*
X10280Y22445D01*
X10237Y22309D01*
X10228Y22231D01*
X10198Y22104D01*
X10165Y21671D01*
X10161Y21631D01*
X10161Y13208D01*
X10167Y13132D01*
X10165Y13056D01*
X10187Y12887D01*
X10201Y12716D01*
X10219Y12642D01*
X10229Y12567D01*
X10278Y12403D01*
X10319Y12237D01*
X10349Y12168D01*
X10371Y12094D01*
X10447Y11941D01*
X10514Y11784D01*
X10555Y11720D01*
X10588Y11651D01*
X10687Y11512D01*
X10779Y11368D01*
X10830Y11311D01*
X10874Y11249D01*
X10994Y11128D01*
X11108Y11000D01*
X11167Y10952D01*
X11221Y10898D01*
X11359Y10797D01*
X11492Y10690D01*
X11558Y10653D01*
X11619Y10608D01*
X11772Y10531D01*
X11920Y10446D01*
X11992Y10420D01*
X12060Y10385D01*
X12223Y10334D01*
X12383Y10275D01*
X12458Y10260D01*
X12530Y10237D01*
X12635Y10225D01*
X12867Y10180D01*
X13103Y10173D01*
X13208Y10161D01*
X291392Y10161D01*
X291468Y10167D01*
G37*
G36*
X72487Y156468D02*
X72487Y156468D01*
X72525Y156466D01*
X72732Y156488D01*
X72940Y156505D01*
X72977Y156514D01*
X73015Y156518D01*
X73216Y156573D01*
X73419Y156623D01*
X73454Y156638D01*
X73491Y156649D01*
X73681Y156736D01*
X73873Y156818D01*
X73905Y156838D01*
X73939Y156854D01*
X74113Y156971D01*
X74289Y157083D01*
X74317Y157108D01*
X74349Y157130D01*
X74501Y157273D01*
X74656Y157412D01*
X74680Y157441D01*
X74708Y157467D01*
X74835Y157633D01*
X74966Y157796D01*
X74985Y157829D01*
X75008Y157859D01*
X75107Y158043D01*
X75210Y158224D01*
X75224Y158260D01*
X75242Y158294D01*
X75309Y158491D01*
X75382Y158687D01*
X75389Y158724D01*
X75402Y158760D01*
X75437Y158967D01*
X75477Y159171D01*
X75478Y159209D01*
X75484Y159247D01*
X75486Y159456D01*
X75492Y159664D01*
X75487Y159702D01*
X75487Y159740D01*
X75455Y159947D01*
X75428Y160153D01*
X75417Y160190D01*
X75411Y160227D01*
X75345Y160426D01*
X75285Y160625D01*
X75268Y160660D01*
X75256Y160696D01*
X75160Y160881D01*
X75068Y161069D01*
X75046Y161100D01*
X75029Y161134D01*
X74971Y161206D01*
X74783Y161471D01*
X74662Y161593D01*
X74603Y161667D01*
X63791Y172479D01*
X63784Y172485D01*
X63778Y172492D01*
X63595Y172646D01*
X63415Y172798D01*
X63407Y172803D01*
X63400Y172810D01*
X63365Y172829D01*
X62993Y173053D01*
X62871Y173101D01*
X62803Y173139D01*
X60910Y173923D01*
X60211Y174622D01*
X60204Y174628D01*
X60198Y174636D01*
X60015Y174789D01*
X59835Y174941D01*
X59827Y174946D01*
X59820Y174953D01*
X59784Y174972D01*
X59413Y175196D01*
X59291Y175244D01*
X59223Y175282D01*
X58464Y175597D01*
X55963Y178098D01*
X54609Y181365D01*
X54609Y199635D01*
X55963Y202902D01*
X57789Y204728D01*
X57838Y204786D01*
X57894Y204839D01*
X57998Y204974D01*
X58108Y205104D01*
X58148Y205169D01*
X58194Y205230D01*
X58275Y205381D01*
X58363Y205527D01*
X58391Y205597D01*
X58427Y205665D01*
X58483Y205826D01*
X58546Y205985D01*
X58563Y206059D01*
X58587Y206131D01*
X58616Y206300D01*
X58653Y206467D01*
X58657Y206543D01*
X58670Y206618D01*
X58671Y206789D01*
X58680Y206959D01*
X58672Y207035D01*
X58673Y207111D01*
X58646Y207280D01*
X58628Y207450D01*
X58608Y207523D01*
X58596Y207598D01*
X58543Y207761D01*
X58498Y207925D01*
X58466Y207995D01*
X58442Y208067D01*
X58363Y208219D01*
X58292Y208374D01*
X58249Y208437D01*
X58214Y208505D01*
X58148Y208587D01*
X58017Y208783D01*
X57855Y208955D01*
X57789Y209038D01*
X54609Y212217D01*
X54609Y219583D01*
X59817Y224791D01*
X67183Y224791D01*
X72391Y219583D01*
X72391Y212217D01*
X69211Y209038D01*
X69162Y208980D01*
X69106Y208928D01*
X69002Y208792D01*
X68892Y208662D01*
X68852Y208597D01*
X68806Y208536D01*
X68725Y208385D01*
X68637Y208239D01*
X68609Y208169D01*
X68573Y208101D01*
X68517Y207940D01*
X68454Y207781D01*
X68437Y207707D01*
X68413Y207635D01*
X68384Y207466D01*
X68347Y207300D01*
X68343Y207223D01*
X68330Y207148D01*
X68329Y206977D01*
X68320Y206807D01*
X68328Y206731D01*
X68327Y206655D01*
X68354Y206486D01*
X68372Y206316D01*
X68392Y206243D01*
X68404Y206168D01*
X68457Y206005D01*
X68502Y205841D01*
X68534Y205771D01*
X68558Y205699D01*
X68637Y205548D01*
X68708Y205392D01*
X68751Y205329D01*
X68786Y205261D01*
X68851Y205179D01*
X68983Y204983D01*
X69145Y204811D01*
X69211Y204728D01*
X71037Y202902D01*
X72391Y199635D01*
X72391Y181366D01*
X70995Y177995D01*
X70928Y177788D01*
X70857Y177581D01*
X70852Y177553D01*
X70844Y177526D01*
X70811Y177310D01*
X70774Y177095D01*
X70774Y177066D01*
X70770Y177038D01*
X70773Y176820D01*
X70771Y176601D01*
X70776Y176573D01*
X70776Y176545D01*
X70814Y176330D01*
X70848Y176114D01*
X70857Y176087D01*
X70862Y176059D01*
X70934Y175853D01*
X71002Y175645D01*
X71015Y175620D01*
X71025Y175593D01*
X71129Y175401D01*
X71230Y175208D01*
X71245Y175190D01*
X71261Y175160D01*
X71563Y174771D01*
X71622Y174716D01*
X71655Y174675D01*
X76781Y169549D01*
X76868Y169475D01*
X76948Y169394D01*
X77055Y169316D01*
X77157Y169230D01*
X77254Y169171D01*
X77347Y169104D01*
X77465Y169044D01*
X77579Y168975D01*
X77685Y168933D01*
X77787Y168881D01*
X77914Y168841D01*
X78037Y168792D01*
X78149Y168767D01*
X78258Y168733D01*
X78351Y168723D01*
X78519Y168685D01*
X78843Y168667D01*
X78935Y168657D01*
X85299Y168657D01*
X85441Y168668D01*
X85584Y168670D01*
X85687Y168688D01*
X85791Y168697D01*
X85929Y168731D01*
X86070Y168756D01*
X86168Y168790D01*
X86270Y168815D01*
X86401Y168872D01*
X86535Y168919D01*
X86627Y168969D01*
X86723Y169010D01*
X86843Y169086D01*
X86968Y169155D01*
X87051Y169219D01*
X87139Y169275D01*
X87245Y169370D01*
X87358Y169457D01*
X87429Y169534D01*
X87507Y169604D01*
X87596Y169715D01*
X87693Y169819D01*
X87751Y169906D01*
X87817Y169988D01*
X87887Y170111D01*
X87966Y170230D01*
X88009Y170326D01*
X88061Y170416D01*
X88110Y170550D01*
X88169Y170680D01*
X88196Y170781D01*
X88232Y170879D01*
X88260Y171018D01*
X88297Y171156D01*
X88307Y171261D01*
X88327Y171363D01*
X88332Y171505D01*
X88346Y171647D01*
X88339Y171752D01*
X88343Y171856D01*
X88324Y171997D01*
X88315Y172140D01*
X88292Y172241D01*
X88278Y172345D01*
X88237Y172482D01*
X88205Y172621D01*
X88166Y172717D01*
X88136Y172817D01*
X88073Y172946D01*
X88019Y173078D01*
X87965Y173167D01*
X87919Y173261D01*
X87836Y173377D01*
X87762Y173498D01*
X87694Y173578D01*
X87633Y173663D01*
X87533Y173764D01*
X87440Y173872D01*
X87360Y173940D01*
X87287Y174014D01*
X87171Y174098D01*
X87062Y174189D01*
X86993Y174227D01*
X86888Y174304D01*
X86501Y174500D01*
X86465Y174519D01*
X83864Y175597D01*
X81363Y178098D01*
X80009Y181365D01*
X80009Y199635D01*
X81363Y202902D01*
X83189Y204728D01*
X83238Y204786D01*
X83294Y204839D01*
X83398Y204974D01*
X83508Y205104D01*
X83548Y205169D01*
X83594Y205230D01*
X83675Y205381D01*
X83763Y205527D01*
X83791Y205597D01*
X83827Y205665D01*
X83883Y205826D01*
X83946Y205985D01*
X83963Y206059D01*
X83987Y206131D01*
X84016Y206300D01*
X84053Y206467D01*
X84057Y206543D01*
X84070Y206618D01*
X84071Y206789D01*
X84080Y206959D01*
X84072Y207035D01*
X84073Y207111D01*
X84046Y207280D01*
X84028Y207450D01*
X84008Y207523D01*
X83996Y207598D01*
X83943Y207761D01*
X83898Y207925D01*
X83866Y207995D01*
X83842Y208067D01*
X83763Y208219D01*
X83692Y208374D01*
X83649Y208437D01*
X83614Y208505D01*
X83548Y208587D01*
X83417Y208783D01*
X83255Y208955D01*
X83189Y209038D01*
X80009Y212217D01*
X80009Y219583D01*
X85217Y224791D01*
X92583Y224791D01*
X97791Y219583D01*
X97791Y212217D01*
X94611Y209038D01*
X94562Y208980D01*
X94506Y208928D01*
X94402Y208792D01*
X94292Y208662D01*
X94252Y208597D01*
X94206Y208536D01*
X94125Y208385D01*
X94037Y208239D01*
X94009Y208169D01*
X93973Y208101D01*
X93917Y207940D01*
X93854Y207781D01*
X93837Y207707D01*
X93813Y207635D01*
X93784Y207466D01*
X93747Y207300D01*
X93743Y207223D01*
X93730Y207148D01*
X93729Y206977D01*
X93720Y206807D01*
X93728Y206731D01*
X93727Y206655D01*
X93754Y206486D01*
X93772Y206316D01*
X93792Y206243D01*
X93804Y206168D01*
X93857Y206005D01*
X93902Y205841D01*
X93934Y205771D01*
X93958Y205699D01*
X94037Y205548D01*
X94108Y205392D01*
X94151Y205329D01*
X94186Y205261D01*
X94251Y205179D01*
X94383Y204983D01*
X94545Y204811D01*
X94611Y204728D01*
X96437Y202902D01*
X97791Y199635D01*
X97791Y181365D01*
X96437Y178098D01*
X93936Y175597D01*
X91335Y174519D01*
X91208Y174454D01*
X91077Y174398D01*
X90989Y174342D01*
X90896Y174294D01*
X90781Y174209D01*
X90661Y174133D01*
X90583Y174063D01*
X90499Y174001D01*
X90399Y173899D01*
X90293Y173804D01*
X90227Y173723D01*
X90154Y173648D01*
X90073Y173531D01*
X89983Y173420D01*
X89931Y173330D01*
X89871Y173244D01*
X89810Y173116D01*
X89739Y172992D01*
X89703Y172894D01*
X89657Y172799D01*
X89617Y172663D01*
X89568Y172529D01*
X89547Y172427D01*
X89518Y172326D01*
X89500Y172185D01*
X89473Y172045D01*
X89470Y171941D01*
X89457Y171837D01*
X89462Y171694D01*
X89457Y171552D01*
X89471Y171448D01*
X89475Y171344D01*
X89503Y171204D01*
X89522Y171063D01*
X89552Y170963D01*
X89573Y170860D01*
X89623Y170727D01*
X89664Y170590D01*
X89710Y170497D01*
X89747Y170399D01*
X89819Y170275D01*
X89881Y170147D01*
X89942Y170062D01*
X89994Y169972D01*
X90084Y169861D01*
X90167Y169745D01*
X90240Y169671D01*
X90306Y169590D01*
X90413Y169495D01*
X90513Y169394D01*
X90598Y169333D01*
X90676Y169263D01*
X90797Y169187D01*
X90912Y169104D01*
X91005Y169057D01*
X91094Y169001D01*
X91226Y168946D01*
X91353Y168881D01*
X91452Y168850D01*
X91549Y168809D01*
X91687Y168776D01*
X91823Y168733D01*
X91901Y168724D01*
X92028Y168694D01*
X92461Y168661D01*
X92501Y168657D01*
X110699Y168657D01*
X110841Y168668D01*
X110984Y168670D01*
X111087Y168688D01*
X111191Y168697D01*
X111329Y168731D01*
X111470Y168756D01*
X111568Y168790D01*
X111670Y168815D01*
X111801Y168872D01*
X111935Y168919D01*
X112027Y168969D01*
X112123Y169010D01*
X112243Y169086D01*
X112368Y169155D01*
X112451Y169219D01*
X112539Y169275D01*
X112645Y169370D01*
X112758Y169457D01*
X112829Y169534D01*
X112907Y169604D01*
X112996Y169715D01*
X113093Y169819D01*
X113151Y169906D01*
X113217Y169988D01*
X113287Y170111D01*
X113366Y170230D01*
X113409Y170326D01*
X113461Y170416D01*
X113510Y170550D01*
X113569Y170680D01*
X113596Y170781D01*
X113632Y170879D01*
X113660Y171018D01*
X113697Y171156D01*
X113707Y171261D01*
X113727Y171363D01*
X113732Y171505D01*
X113746Y171647D01*
X113739Y171752D01*
X113743Y171856D01*
X113724Y171997D01*
X113715Y172140D01*
X113692Y172241D01*
X113678Y172345D01*
X113637Y172482D01*
X113605Y172621D01*
X113566Y172717D01*
X113536Y172817D01*
X113473Y172946D01*
X113419Y173078D01*
X113365Y173167D01*
X113319Y173261D01*
X113236Y173377D01*
X113162Y173498D01*
X113094Y173578D01*
X113033Y173663D01*
X112933Y173764D01*
X112840Y173872D01*
X112760Y173940D01*
X112687Y174014D01*
X112571Y174098D01*
X112462Y174189D01*
X112393Y174227D01*
X112288Y174304D01*
X111901Y174500D01*
X111865Y174519D01*
X109264Y175597D01*
X106763Y178098D01*
X105409Y181365D01*
X105409Y199635D01*
X106763Y202902D01*
X109343Y205482D01*
X109417Y205569D01*
X109498Y205649D01*
X109576Y205757D01*
X109662Y205858D01*
X109721Y205956D01*
X109788Y206048D01*
X109848Y206167D01*
X109917Y206281D01*
X109959Y206387D01*
X110011Y206489D01*
X110051Y206615D01*
X110100Y206739D01*
X110125Y206850D01*
X110159Y206959D01*
X110169Y207053D01*
X110207Y207220D01*
X110225Y207545D01*
X110235Y207637D01*
X110235Y229409D01*
X110854Y230903D01*
X117217Y237265D01*
X117291Y237352D01*
X117372Y237432D01*
X117450Y237540D01*
X117536Y237641D01*
X117595Y237739D01*
X117662Y237831D01*
X117722Y237950D01*
X117791Y238064D01*
X117833Y238170D01*
X117885Y238272D01*
X117925Y238398D01*
X117974Y238522D01*
X117999Y238633D01*
X118033Y238742D01*
X118043Y238836D01*
X118081Y239003D01*
X118099Y239328D01*
X118109Y239420D01*
X118109Y244983D01*
X122034Y248908D01*
X122084Y248966D01*
X122139Y249018D01*
X122243Y249153D01*
X122354Y249284D01*
X122393Y249349D01*
X122440Y249409D01*
X122520Y249560D01*
X122608Y249706D01*
X122637Y249777D01*
X122673Y249844D01*
X122728Y250006D01*
X122792Y250164D01*
X122808Y250239D01*
X122833Y250311D01*
X122861Y250479D01*
X122898Y250646D01*
X122903Y250722D01*
X122915Y250797D01*
X122916Y250968D01*
X122926Y251139D01*
X122918Y251214D01*
X122918Y251291D01*
X122892Y251459D01*
X122874Y251629D01*
X122854Y251702D01*
X122842Y251778D01*
X122788Y251940D01*
X122743Y252105D01*
X122711Y252174D01*
X122688Y252246D01*
X122609Y252398D01*
X122537Y252553D01*
X122495Y252616D01*
X122460Y252684D01*
X122394Y252766D01*
X122262Y252963D01*
X122100Y253135D01*
X122034Y253217D01*
X113509Y261743D01*
X113422Y261817D01*
X113342Y261898D01*
X113234Y261976D01*
X113133Y262062D01*
X113035Y262121D01*
X112943Y262188D01*
X112824Y262248D01*
X112710Y262317D01*
X112604Y262359D01*
X112502Y262411D01*
X112376Y262451D01*
X112252Y262500D01*
X112141Y262525D01*
X112032Y262559D01*
X111938Y262569D01*
X111771Y262607D01*
X111446Y262625D01*
X111354Y262635D01*
X98671Y262635D01*
X98557Y262626D01*
X98443Y262627D01*
X98311Y262606D01*
X98179Y262595D01*
X98068Y262568D01*
X97955Y262550D01*
X97829Y262509D01*
X97700Y262477D01*
X97595Y262432D01*
X97487Y262396D01*
X97369Y262334D01*
X97247Y262282D01*
X97151Y262221D01*
X97049Y262168D01*
X96976Y262109D01*
X96831Y262017D01*
X96589Y261801D01*
X96516Y261743D01*
X92583Y257809D01*
X85217Y257809D01*
X80009Y263017D01*
X80009Y270383D01*
X83064Y273437D01*
X83089Y273466D01*
X83117Y273492D01*
X83248Y273654D01*
X83383Y273813D01*
X83403Y273846D01*
X83427Y273876D01*
X83530Y274057D01*
X83638Y274236D01*
X83652Y274271D01*
X83671Y274304D01*
X83744Y274500D01*
X83821Y274694D01*
X83829Y274731D01*
X83843Y274767D01*
X83883Y274972D01*
X83928Y275176D01*
X83930Y275214D01*
X83937Y275251D01*
X83944Y275458D01*
X83956Y275668D01*
X83951Y275706D01*
X83953Y275744D01*
X83925Y275951D01*
X83903Y276159D01*
X83893Y276195D01*
X83888Y276233D01*
X83828Y276433D01*
X83773Y276634D01*
X83757Y276669D01*
X83746Y276706D01*
X83654Y276893D01*
X83567Y277083D01*
X83546Y277114D01*
X83529Y277149D01*
X83408Y277319D01*
X83292Y277492D01*
X83265Y277520D01*
X83243Y277551D01*
X83097Y277699D01*
X82954Y277852D01*
X82923Y277875D01*
X82897Y277902D01*
X82728Y278025D01*
X82562Y278152D01*
X82529Y278170D01*
X82498Y278192D01*
X82312Y278286D01*
X82128Y278385D01*
X82091Y278398D01*
X82057Y278415D01*
X81859Y278477D01*
X81661Y278545D01*
X81623Y278551D01*
X81587Y278563D01*
X81495Y278573D01*
X81175Y278628D01*
X81003Y278629D01*
X80909Y278639D01*
X71491Y278639D01*
X71453Y278636D01*
X71415Y278638D01*
X71207Y278616D01*
X70999Y278599D01*
X70962Y278590D01*
X70924Y278586D01*
X70723Y278531D01*
X70520Y278481D01*
X70485Y278466D01*
X70448Y278455D01*
X70259Y278368D01*
X70067Y278286D01*
X70035Y278266D01*
X70000Y278250D01*
X69827Y278133D01*
X69651Y278021D01*
X69622Y277996D01*
X69591Y277974D01*
X69439Y277831D01*
X69283Y277692D01*
X69259Y277663D01*
X69231Y277637D01*
X69104Y277470D01*
X68973Y277308D01*
X68954Y277276D01*
X68931Y277245D01*
X68832Y277061D01*
X68729Y276880D01*
X68716Y276844D01*
X68698Y276810D01*
X68630Y276613D01*
X68557Y276417D01*
X68550Y276380D01*
X68538Y276344D01*
X68503Y276137D01*
X68463Y275933D01*
X68462Y275895D01*
X68455Y275857D01*
X68454Y275648D01*
X68447Y275440D01*
X68452Y275402D01*
X68452Y275364D01*
X68485Y275157D01*
X68512Y274951D01*
X68523Y274914D01*
X68529Y274877D01*
X68594Y274678D01*
X68654Y274479D01*
X68671Y274444D01*
X68683Y274408D01*
X68779Y274223D01*
X68871Y274035D01*
X68893Y274004D01*
X68911Y273970D01*
X68969Y273898D01*
X69157Y273633D01*
X69277Y273511D01*
X69336Y273437D01*
X72391Y270383D01*
X72391Y263017D01*
X67183Y257809D01*
X59817Y257809D01*
X55884Y261743D01*
X55797Y261817D01*
X55717Y261898D01*
X55609Y261976D01*
X55508Y262062D01*
X55410Y262121D01*
X55318Y262188D01*
X55199Y262248D01*
X55085Y262317D01*
X54979Y262359D01*
X54877Y262411D01*
X54751Y262451D01*
X54627Y262500D01*
X54516Y262525D01*
X54407Y262559D01*
X54313Y262569D01*
X54146Y262607D01*
X53821Y262625D01*
X53729Y262635D01*
X41046Y262635D01*
X40932Y262626D01*
X40818Y262627D01*
X40686Y262606D01*
X40554Y262595D01*
X40443Y262568D01*
X40331Y262550D01*
X40204Y262509D01*
X40075Y262477D01*
X39970Y262432D01*
X39862Y262396D01*
X39744Y262334D01*
X39622Y262282D01*
X39526Y262221D01*
X39424Y262168D01*
X39351Y262109D01*
X39206Y262017D01*
X38964Y261801D01*
X38891Y261743D01*
X17657Y240509D01*
X17583Y240422D01*
X17502Y240342D01*
X17424Y240234D01*
X17338Y240133D01*
X17279Y240035D01*
X17212Y239943D01*
X17152Y239824D01*
X17083Y239710D01*
X17041Y239604D01*
X16989Y239502D01*
X16949Y239376D01*
X16900Y239252D01*
X16875Y239141D01*
X16841Y239032D01*
X16831Y238938D01*
X16793Y238771D01*
X16775Y238446D01*
X16765Y238354D01*
X16765Y180746D01*
X16770Y180687D01*
X16769Y180655D01*
X16774Y180614D01*
X16773Y180518D01*
X16794Y180386D01*
X16805Y180254D01*
X16832Y180143D01*
X16850Y180031D01*
X16891Y179904D01*
X16923Y179775D01*
X16968Y179670D01*
X17004Y179562D01*
X17066Y179444D01*
X17118Y179322D01*
X17179Y179226D01*
X17232Y179124D01*
X17291Y179051D01*
X17383Y178906D01*
X17599Y178664D01*
X17657Y178591D01*
X38891Y157357D01*
X38978Y157283D01*
X39058Y157202D01*
X39166Y157124D01*
X39267Y157038D01*
X39365Y156979D01*
X39457Y156912D01*
X39576Y156852D01*
X39690Y156783D01*
X39796Y156741D01*
X39898Y156689D01*
X40024Y156649D01*
X40148Y156600D01*
X40259Y156575D01*
X40368Y156541D01*
X40462Y156531D01*
X40629Y156493D01*
X40954Y156475D01*
X41046Y156465D01*
X72449Y156465D01*
X72487Y156468D01*
G37*
G36*
X127152Y261020D02*
X127152Y261020D01*
X127228Y261019D01*
X127397Y261046D01*
X127567Y261064D01*
X127640Y261084D01*
X127715Y261096D01*
X127878Y261149D01*
X128042Y261194D01*
X128112Y261226D01*
X128184Y261250D01*
X128335Y261329D01*
X128491Y261400D01*
X128554Y261443D01*
X128622Y261478D01*
X128704Y261543D01*
X128900Y261676D01*
X129073Y261838D01*
X129155Y261903D01*
X137397Y270146D01*
X138891Y270765D01*
X280209Y270765D01*
X281703Y270146D01*
X283274Y268574D01*
X283275Y268574D01*
X289237Y262611D01*
X289266Y262586D01*
X289292Y262558D01*
X289454Y262427D01*
X289613Y262292D01*
X289646Y262272D01*
X289676Y262248D01*
X289857Y262145D01*
X290036Y262037D01*
X290071Y262023D01*
X290104Y262004D01*
X290300Y261931D01*
X290494Y261854D01*
X290531Y261846D01*
X290567Y261832D01*
X290772Y261792D01*
X290976Y261747D01*
X291014Y261745D01*
X291051Y261738D01*
X291259Y261731D01*
X291468Y261720D01*
X291506Y261724D01*
X291544Y261722D01*
X291751Y261750D01*
X291959Y261772D01*
X291995Y261782D01*
X292033Y261787D01*
X292233Y261847D01*
X292434Y261902D01*
X292469Y261918D01*
X292506Y261929D01*
X292693Y262021D01*
X292883Y262108D01*
X292915Y262129D01*
X292949Y262146D01*
X293118Y262267D01*
X293292Y262383D01*
X293320Y262410D01*
X293351Y262432D01*
X293499Y262578D01*
X293652Y262721D01*
X293675Y262752D01*
X293702Y262778D01*
X293825Y262947D01*
X293952Y263113D01*
X293970Y263146D01*
X293992Y263177D01*
X294086Y263363D01*
X294185Y263547D01*
X294198Y263584D01*
X294215Y263618D01*
X294277Y263816D01*
X294345Y264014D01*
X294351Y264052D01*
X294363Y264088D01*
X294373Y264180D01*
X294428Y264501D01*
X294429Y264673D01*
X294439Y264766D01*
X294439Y275592D01*
X294433Y275668D01*
X294435Y275744D01*
X294413Y275913D01*
X294399Y276084D01*
X294381Y276158D01*
X294371Y276233D01*
X294322Y276397D01*
X294281Y276563D01*
X294251Y276632D01*
X294229Y276706D01*
X294153Y276859D01*
X294086Y277016D01*
X294045Y277080D01*
X294012Y277149D01*
X293913Y277288D01*
X293821Y277432D01*
X293770Y277489D01*
X293726Y277551D01*
X293606Y277672D01*
X293492Y277800D01*
X293433Y277848D01*
X293379Y277902D01*
X293241Y278003D01*
X293108Y278110D01*
X293042Y278147D01*
X292981Y278192D01*
X292828Y278269D01*
X292680Y278354D01*
X292608Y278380D01*
X292540Y278415D01*
X292377Y278466D01*
X292217Y278525D01*
X292142Y278540D01*
X292070Y278563D01*
X291965Y278575D01*
X291733Y278620D01*
X291497Y278627D01*
X291392Y278639D01*
X96891Y278639D01*
X96853Y278636D01*
X96815Y278638D01*
X96607Y278616D01*
X96399Y278599D01*
X96362Y278590D01*
X96324Y278586D01*
X96123Y278531D01*
X95920Y278481D01*
X95885Y278466D01*
X95848Y278455D01*
X95658Y278368D01*
X95467Y278286D01*
X95435Y278266D01*
X95400Y278250D01*
X95226Y278133D01*
X95051Y278021D01*
X95022Y277996D01*
X94991Y277974D01*
X94839Y277831D01*
X94683Y277692D01*
X94659Y277663D01*
X94631Y277636D01*
X94504Y277471D01*
X94373Y277308D01*
X94354Y277275D01*
X94331Y277245D01*
X94232Y277061D01*
X94129Y276880D01*
X94116Y276844D01*
X94098Y276810D01*
X94030Y276613D01*
X93957Y276417D01*
X93950Y276380D01*
X93938Y276344D01*
X93903Y276137D01*
X93863Y275933D01*
X93862Y275895D01*
X93855Y275857D01*
X93854Y275648D01*
X93847Y275440D01*
X93852Y275402D01*
X93852Y275364D01*
X93885Y275157D01*
X93912Y274951D01*
X93923Y274914D01*
X93929Y274877D01*
X93994Y274678D01*
X94054Y274479D01*
X94071Y274444D01*
X94083Y274408D01*
X94180Y274223D01*
X94271Y274035D01*
X94293Y274004D01*
X94311Y273970D01*
X94369Y273898D01*
X94557Y273633D01*
X94677Y273511D01*
X94736Y273437D01*
X96516Y271657D01*
X96603Y271583D01*
X96683Y271502D01*
X96791Y271424D01*
X96892Y271338D01*
X96990Y271279D01*
X97082Y271212D01*
X97201Y271152D01*
X97315Y271083D01*
X97421Y271041D01*
X97523Y270989D01*
X97649Y270949D01*
X97773Y270900D01*
X97884Y270875D01*
X97993Y270841D01*
X98087Y270831D01*
X98254Y270793D01*
X98579Y270775D01*
X98671Y270765D01*
X115109Y270765D01*
X116602Y270146D01*
X124845Y261903D01*
X124903Y261854D01*
X124955Y261798D01*
X125091Y261694D01*
X125221Y261584D01*
X125287Y261544D01*
X125347Y261498D01*
X125497Y261417D01*
X125644Y261329D01*
X125714Y261301D01*
X125782Y261265D01*
X125943Y261209D01*
X126102Y261146D01*
X126176Y261130D01*
X126248Y261105D01*
X126417Y261076D01*
X126583Y261039D01*
X126660Y261035D01*
X126735Y261022D01*
X126906Y261021D01*
X127076Y261012D01*
X127152Y261020D01*
G37*
%LPC*%
G36*
X61327Y17779D02*
X61327Y17779D01*
X57313Y19442D01*
X54240Y22515D01*
X52577Y26529D01*
X52577Y49671D01*
X54240Y53685D01*
X57313Y56758D01*
X57554Y56858D01*
X57748Y56957D01*
X57945Y57053D01*
X57968Y57070D01*
X57993Y57083D01*
X58169Y57213D01*
X58347Y57339D01*
X58367Y57359D01*
X58390Y57376D01*
X58543Y57532D01*
X58698Y57686D01*
X58715Y57709D01*
X58735Y57729D01*
X58860Y57908D01*
X58988Y58084D01*
X59001Y58110D01*
X59017Y58133D01*
X59112Y58330D01*
X59211Y58525D01*
X59219Y58552D01*
X59232Y58578D01*
X59293Y58787D01*
X59359Y58995D01*
X59362Y59019D01*
X59371Y59051D01*
X59432Y59540D01*
X59429Y59621D01*
X59435Y59673D01*
X59435Y64309D01*
X60054Y65803D01*
X61626Y67374D01*
X61626Y67375D01*
X83943Y89691D01*
X84017Y89778D01*
X84098Y89858D01*
X84176Y89966D01*
X84262Y90067D01*
X84321Y90165D01*
X84388Y90257D01*
X84448Y90376D01*
X84517Y90490D01*
X84559Y90596D01*
X84611Y90698D01*
X84651Y90824D01*
X84700Y90948D01*
X84725Y91059D01*
X84759Y91168D01*
X84769Y91262D01*
X84807Y91429D01*
X84825Y91754D01*
X84835Y91846D01*
X84835Y97163D01*
X84826Y97277D01*
X84827Y97391D01*
X84806Y97523D01*
X84795Y97655D01*
X84768Y97766D01*
X84750Y97879D01*
X84709Y98005D01*
X84677Y98134D01*
X84632Y98239D01*
X84596Y98347D01*
X84534Y98465D01*
X84482Y98587D01*
X84421Y98683D01*
X84368Y98785D01*
X84309Y98858D01*
X84217Y99003D01*
X84001Y99245D01*
X83943Y99318D01*
X81363Y101898D01*
X80009Y105165D01*
X80009Y123435D01*
X81363Y126702D01*
X83864Y129203D01*
X87131Y130557D01*
X90669Y130557D01*
X93936Y129203D01*
X96437Y126702D01*
X97791Y123435D01*
X97791Y105165D01*
X96437Y101898D01*
X93857Y99318D01*
X93783Y99231D01*
X93702Y99151D01*
X93624Y99043D01*
X93538Y98942D01*
X93479Y98844D01*
X93412Y98752D01*
X93352Y98633D01*
X93283Y98519D01*
X93241Y98413D01*
X93189Y98311D01*
X93149Y98185D01*
X93100Y98061D01*
X93075Y97950D01*
X93041Y97841D01*
X93031Y97747D01*
X92993Y97580D01*
X92975Y97255D01*
X92965Y97163D01*
X92965Y88091D01*
X92346Y86597D01*
X90774Y85026D01*
X90774Y85025D01*
X68457Y62709D01*
X68383Y62622D01*
X68302Y62542D01*
X68224Y62434D01*
X68138Y62333D01*
X68079Y62235D01*
X68012Y62143D01*
X67952Y62024D01*
X67883Y61910D01*
X67841Y61804D01*
X67789Y61702D01*
X67749Y61576D01*
X67700Y61452D01*
X67675Y61341D01*
X67641Y61232D01*
X67631Y61138D01*
X67593Y60971D01*
X67575Y60646D01*
X67565Y60554D01*
X67565Y59673D01*
X67582Y59455D01*
X67596Y59237D01*
X67602Y59210D01*
X67605Y59181D01*
X67657Y58969D01*
X67706Y58757D01*
X67717Y58730D01*
X67723Y58703D01*
X67810Y58502D01*
X67892Y58300D01*
X67907Y58275D01*
X67918Y58249D01*
X68035Y58065D01*
X68149Y57879D01*
X68168Y57857D01*
X68183Y57833D01*
X68328Y57671D01*
X68471Y57505D01*
X68493Y57486D01*
X68512Y57465D01*
X68681Y57328D01*
X68849Y57188D01*
X68870Y57176D01*
X68896Y57155D01*
X69324Y56911D01*
X69400Y56883D01*
X69446Y56858D01*
X69687Y56758D01*
X72760Y53685D01*
X74423Y49671D01*
X74423Y26529D01*
X72760Y22515D01*
X69687Y19442D01*
X65673Y17779D01*
X61327Y17779D01*
G37*
%LPD*%
%LPC*%
G36*
X136017Y67309D02*
X136017Y67309D01*
X130809Y72517D01*
X130809Y79883D01*
X134743Y83816D01*
X134817Y83903D01*
X134898Y83983D01*
X134976Y84091D01*
X135062Y84192D01*
X135121Y84290D01*
X135188Y84382D01*
X135248Y84501D01*
X135317Y84615D01*
X135359Y84721D01*
X135411Y84823D01*
X135451Y84949D01*
X135500Y85073D01*
X135525Y85184D01*
X135559Y85293D01*
X135569Y85387D01*
X135607Y85554D01*
X135625Y85879D01*
X135635Y85971D01*
X135635Y97163D01*
X135626Y97277D01*
X135627Y97391D01*
X135606Y97523D01*
X135595Y97655D01*
X135568Y97766D01*
X135550Y97879D01*
X135509Y98005D01*
X135477Y98134D01*
X135432Y98239D01*
X135396Y98347D01*
X135334Y98465D01*
X135282Y98587D01*
X135221Y98683D01*
X135168Y98785D01*
X135109Y98858D01*
X135017Y99003D01*
X134801Y99245D01*
X134743Y99318D01*
X132163Y101898D01*
X130809Y105165D01*
X130809Y123435D01*
X132163Y126702D01*
X134664Y129203D01*
X137931Y130557D01*
X141469Y130557D01*
X144736Y129203D01*
X147237Y126702D01*
X148591Y123435D01*
X148591Y105165D01*
X147237Y101898D01*
X144657Y99318D01*
X144583Y99231D01*
X144502Y99151D01*
X144424Y99043D01*
X144338Y98942D01*
X144279Y98844D01*
X144212Y98752D01*
X144152Y98633D01*
X144083Y98519D01*
X144041Y98413D01*
X143989Y98311D01*
X143949Y98185D01*
X143900Y98061D01*
X143875Y97950D01*
X143841Y97841D01*
X143831Y97747D01*
X143793Y97580D01*
X143775Y97255D01*
X143765Y97163D01*
X143765Y85971D01*
X143774Y85857D01*
X143773Y85743D01*
X143794Y85611D01*
X143805Y85479D01*
X143832Y85368D01*
X143850Y85255D01*
X143891Y85129D01*
X143923Y85000D01*
X143968Y84895D01*
X144004Y84787D01*
X144066Y84669D01*
X144118Y84547D01*
X144179Y84451D01*
X144232Y84349D01*
X144291Y84276D01*
X144383Y84131D01*
X144599Y83889D01*
X144657Y83816D01*
X148591Y79883D01*
X148591Y72517D01*
X143383Y67309D01*
X136017Y67309D01*
G37*
%LPD*%
%LPC*%
G36*
X110617Y67309D02*
X110617Y67309D01*
X105409Y72517D01*
X105409Y79883D01*
X109343Y83816D01*
X109417Y83903D01*
X109498Y83983D01*
X109576Y84091D01*
X109662Y84192D01*
X109721Y84290D01*
X109788Y84382D01*
X109848Y84501D01*
X109917Y84615D01*
X109959Y84721D01*
X110011Y84823D01*
X110051Y84949D01*
X110100Y85073D01*
X110125Y85184D01*
X110159Y85293D01*
X110169Y85387D01*
X110207Y85554D01*
X110225Y85879D01*
X110235Y85971D01*
X110235Y97163D01*
X110226Y97277D01*
X110227Y97391D01*
X110206Y97523D01*
X110195Y97655D01*
X110168Y97766D01*
X110150Y97879D01*
X110109Y98005D01*
X110077Y98134D01*
X110032Y98239D01*
X109996Y98347D01*
X109934Y98465D01*
X109882Y98587D01*
X109821Y98683D01*
X109768Y98785D01*
X109709Y98858D01*
X109617Y99003D01*
X109401Y99245D01*
X109343Y99318D01*
X106763Y101898D01*
X105409Y105165D01*
X105409Y123435D01*
X106763Y126702D01*
X109264Y129203D01*
X112531Y130557D01*
X116069Y130557D01*
X119336Y129203D01*
X121837Y126702D01*
X123191Y123435D01*
X123191Y105165D01*
X121837Y101898D01*
X119257Y99318D01*
X119183Y99231D01*
X119102Y99151D01*
X119024Y99043D01*
X118938Y98942D01*
X118879Y98844D01*
X118812Y98752D01*
X118752Y98633D01*
X118683Y98519D01*
X118641Y98413D01*
X118589Y98311D01*
X118549Y98185D01*
X118500Y98061D01*
X118475Y97950D01*
X118441Y97841D01*
X118431Y97747D01*
X118393Y97580D01*
X118375Y97255D01*
X118365Y97163D01*
X118365Y85971D01*
X118374Y85857D01*
X118373Y85743D01*
X118394Y85611D01*
X118405Y85479D01*
X118432Y85368D01*
X118450Y85255D01*
X118491Y85129D01*
X118523Y85000D01*
X118568Y84895D01*
X118604Y84787D01*
X118666Y84669D01*
X118718Y84547D01*
X118779Y84451D01*
X118832Y84349D01*
X118891Y84276D01*
X118983Y84131D01*
X119199Y83889D01*
X119257Y83816D01*
X123191Y79883D01*
X123191Y72517D01*
X117983Y67309D01*
X110617Y67309D01*
G37*
%LPD*%
G36*
X136241Y168668D02*
X136241Y168668D01*
X136384Y168670D01*
X136487Y168688D01*
X136591Y168697D01*
X136729Y168731D01*
X136870Y168756D01*
X136968Y168790D01*
X137070Y168815D01*
X137201Y168872D01*
X137335Y168919D01*
X137427Y168969D01*
X137523Y169010D01*
X137643Y169086D01*
X137768Y169155D01*
X137851Y169219D01*
X137939Y169275D01*
X138045Y169370D01*
X138158Y169457D01*
X138229Y169534D01*
X138307Y169604D01*
X138396Y169715D01*
X138493Y169819D01*
X138551Y169906D01*
X138617Y169988D01*
X138687Y170111D01*
X138766Y170230D01*
X138809Y170326D01*
X138861Y170416D01*
X138910Y170550D01*
X138969Y170680D01*
X138996Y170781D01*
X139032Y170879D01*
X139060Y171018D01*
X139097Y171156D01*
X139107Y171261D01*
X139127Y171363D01*
X139132Y171505D01*
X139146Y171647D01*
X139139Y171752D01*
X139143Y171856D01*
X139124Y171997D01*
X139115Y172140D01*
X139092Y172241D01*
X139078Y172345D01*
X139037Y172482D01*
X139005Y172621D01*
X138966Y172717D01*
X138936Y172817D01*
X138873Y172946D01*
X138819Y173078D01*
X138765Y173167D01*
X138719Y173261D01*
X138636Y173377D01*
X138562Y173498D01*
X138494Y173578D01*
X138433Y173663D01*
X138333Y173764D01*
X138240Y173872D01*
X138160Y173940D01*
X138087Y174014D01*
X137971Y174098D01*
X137862Y174189D01*
X137793Y174227D01*
X137688Y174304D01*
X137301Y174500D01*
X137265Y174519D01*
X134664Y175597D01*
X132163Y178098D01*
X130809Y181365D01*
X130809Y199635D01*
X132163Y202902D01*
X134743Y205482D01*
X134817Y205569D01*
X134898Y205649D01*
X134976Y205757D01*
X135062Y205858D01*
X135121Y205956D01*
X135188Y206048D01*
X135248Y206167D01*
X135317Y206281D01*
X135359Y206387D01*
X135411Y206489D01*
X135451Y206615D01*
X135500Y206739D01*
X135525Y206850D01*
X135559Y206959D01*
X135569Y207053D01*
X135607Y207220D01*
X135625Y207545D01*
X135635Y207637D01*
X135635Y230005D01*
X135632Y230043D01*
X135634Y230081D01*
X135612Y230289D01*
X135595Y230497D01*
X135586Y230534D01*
X135582Y230572D01*
X135527Y230773D01*
X135477Y230976D01*
X135462Y231011D01*
X135451Y231048D01*
X135364Y231237D01*
X135282Y231429D01*
X135262Y231461D01*
X135246Y231496D01*
X135129Y231670D01*
X135017Y231845D01*
X134992Y231874D01*
X134970Y231905D01*
X134827Y232057D01*
X134688Y232213D01*
X134659Y232237D01*
X134632Y232265D01*
X134467Y232392D01*
X134304Y232523D01*
X134271Y232542D01*
X134241Y232565D01*
X134057Y232664D01*
X133876Y232767D01*
X133840Y232780D01*
X133806Y232798D01*
X133609Y232866D01*
X133413Y232939D01*
X133376Y232946D01*
X133340Y232958D01*
X133134Y232993D01*
X132929Y233033D01*
X132891Y233034D01*
X132853Y233041D01*
X132644Y233042D01*
X132436Y233049D01*
X132398Y233044D01*
X132360Y233044D01*
X132154Y233012D01*
X131947Y232984D01*
X131910Y232973D01*
X131873Y232967D01*
X131675Y232902D01*
X131475Y232842D01*
X131440Y232825D01*
X131404Y232813D01*
X131219Y232716D01*
X131031Y232625D01*
X131000Y232603D01*
X130966Y232585D01*
X130893Y232527D01*
X130728Y232409D01*
X125120Y232409D01*
X125006Y232400D01*
X124892Y232401D01*
X124760Y232380D01*
X124628Y232369D01*
X124517Y232342D01*
X124405Y232324D01*
X124278Y232283D01*
X124149Y232251D01*
X124044Y232206D01*
X123936Y232170D01*
X123818Y232108D01*
X123696Y232056D01*
X123600Y231995D01*
X123498Y231942D01*
X123425Y231883D01*
X123280Y231791D01*
X123038Y231575D01*
X122965Y231517D01*
X119257Y227809D01*
X119183Y227722D01*
X119102Y227642D01*
X119024Y227534D01*
X118938Y227433D01*
X118879Y227335D01*
X118812Y227243D01*
X118752Y227124D01*
X118683Y227010D01*
X118641Y226904D01*
X118589Y226802D01*
X118549Y226676D01*
X118500Y226552D01*
X118475Y226441D01*
X118441Y226332D01*
X118431Y226238D01*
X118393Y226071D01*
X118375Y225746D01*
X118365Y225654D01*
X118365Y207637D01*
X118374Y207523D01*
X118373Y207409D01*
X118394Y207277D01*
X118405Y207145D01*
X118432Y207034D01*
X118450Y206922D01*
X118491Y206795D01*
X118523Y206666D01*
X118568Y206561D01*
X118604Y206453D01*
X118666Y206335D01*
X118718Y206213D01*
X118779Y206117D01*
X118832Y206015D01*
X118891Y205942D01*
X118983Y205797D01*
X119199Y205555D01*
X119257Y205482D01*
X121837Y202902D01*
X123191Y199635D01*
X123191Y181365D01*
X121837Y178098D01*
X119336Y175597D01*
X116735Y174519D01*
X116608Y174454D01*
X116477Y174398D01*
X116389Y174342D01*
X116296Y174294D01*
X116181Y174209D01*
X116061Y174133D01*
X115983Y174063D01*
X115899Y174001D01*
X115799Y173899D01*
X115693Y173804D01*
X115627Y173723D01*
X115554Y173648D01*
X115473Y173531D01*
X115383Y173420D01*
X115331Y173330D01*
X115271Y173244D01*
X115210Y173116D01*
X115139Y172992D01*
X115103Y172894D01*
X115057Y172799D01*
X115017Y172663D01*
X114968Y172529D01*
X114947Y172427D01*
X114918Y172326D01*
X114900Y172185D01*
X114873Y172045D01*
X114870Y171941D01*
X114857Y171837D01*
X114862Y171694D01*
X114857Y171552D01*
X114871Y171448D01*
X114875Y171344D01*
X114903Y171204D01*
X114922Y171063D01*
X114952Y170963D01*
X114973Y170860D01*
X115023Y170727D01*
X115064Y170590D01*
X115110Y170497D01*
X115147Y170399D01*
X115219Y170275D01*
X115281Y170147D01*
X115342Y170062D01*
X115394Y169972D01*
X115484Y169861D01*
X115567Y169745D01*
X115640Y169671D01*
X115706Y169590D01*
X115813Y169495D01*
X115913Y169394D01*
X115998Y169333D01*
X116076Y169263D01*
X116197Y169187D01*
X116312Y169104D01*
X116405Y169057D01*
X116494Y169001D01*
X116626Y168946D01*
X116753Y168881D01*
X116852Y168850D01*
X116949Y168809D01*
X117087Y168776D01*
X117223Y168733D01*
X117301Y168724D01*
X117428Y168694D01*
X117861Y168661D01*
X117901Y168657D01*
X136099Y168657D01*
X136241Y168668D01*
G37*
G36*
X13398Y248827D02*
X13398Y248827D01*
X13436Y248827D01*
X13643Y248860D01*
X13849Y248887D01*
X13886Y248898D01*
X13923Y248904D01*
X14122Y248969D01*
X14321Y249029D01*
X14356Y249046D01*
X14392Y249058D01*
X14577Y249155D01*
X14765Y249246D01*
X14796Y249268D01*
X14830Y249286D01*
X14902Y249344D01*
X15167Y249532D01*
X15289Y249653D01*
X15363Y249711D01*
X35797Y270146D01*
X37291Y270765D01*
X53729Y270765D01*
X53843Y270774D01*
X53957Y270773D01*
X54089Y270794D01*
X54221Y270805D01*
X54332Y270832D01*
X54444Y270850D01*
X54571Y270891D01*
X54700Y270923D01*
X54805Y270968D01*
X54913Y271004D01*
X55031Y271065D01*
X55153Y271118D01*
X55249Y271179D01*
X55351Y271232D01*
X55424Y271291D01*
X55569Y271383D01*
X55811Y271599D01*
X55884Y271657D01*
X57664Y273437D01*
X57689Y273466D01*
X57717Y273492D01*
X57848Y273654D01*
X57983Y273813D01*
X58003Y273846D01*
X58027Y273876D01*
X58130Y274057D01*
X58238Y274236D01*
X58252Y274271D01*
X58271Y274304D01*
X58344Y274500D01*
X58421Y274694D01*
X58429Y274731D01*
X58443Y274767D01*
X58483Y274971D01*
X58528Y275175D01*
X58530Y275214D01*
X58537Y275251D01*
X58544Y275458D01*
X58556Y275668D01*
X58551Y275706D01*
X58553Y275744D01*
X58525Y275951D01*
X58503Y276159D01*
X58493Y276195D01*
X58488Y276233D01*
X58428Y276434D01*
X58373Y276634D01*
X58357Y276669D01*
X58346Y276706D01*
X58254Y276893D01*
X58167Y277083D01*
X58146Y277114D01*
X58129Y277149D01*
X58008Y277319D01*
X57892Y277492D01*
X57865Y277520D01*
X57843Y277551D01*
X57697Y277699D01*
X57554Y277852D01*
X57523Y277875D01*
X57497Y277902D01*
X57328Y278025D01*
X57162Y278152D01*
X57129Y278170D01*
X57098Y278192D01*
X56912Y278286D01*
X56728Y278385D01*
X56692Y278397D01*
X56657Y278415D01*
X56458Y278478D01*
X56261Y278545D01*
X56223Y278551D01*
X56187Y278563D01*
X56094Y278573D01*
X55775Y278628D01*
X55603Y278629D01*
X55509Y278639D01*
X13208Y278639D01*
X13132Y278633D01*
X13056Y278635D01*
X12887Y278613D01*
X12716Y278599D01*
X12642Y278581D01*
X12567Y278571D01*
X12403Y278522D01*
X12237Y278481D01*
X12168Y278451D01*
X12094Y278429D01*
X11941Y278353D01*
X11784Y278286D01*
X11720Y278245D01*
X11651Y278212D01*
X11512Y278113D01*
X11368Y278021D01*
X11311Y277970D01*
X11249Y277926D01*
X11128Y277806D01*
X11000Y277692D01*
X10952Y277633D01*
X10898Y277579D01*
X10797Y277441D01*
X10690Y277308D01*
X10653Y277242D01*
X10608Y277181D01*
X10531Y277028D01*
X10446Y276880D01*
X10420Y276808D01*
X10385Y276740D01*
X10334Y276577D01*
X10275Y276417D01*
X10260Y276342D01*
X10237Y276270D01*
X10225Y276165D01*
X10180Y275933D01*
X10173Y275697D01*
X10161Y275592D01*
X10161Y251866D01*
X10164Y251828D01*
X10162Y251790D01*
X10184Y251582D01*
X10201Y251374D01*
X10210Y251337D01*
X10214Y251299D01*
X10269Y251098D01*
X10319Y250895D01*
X10334Y250860D01*
X10345Y250823D01*
X10432Y250633D01*
X10514Y250442D01*
X10534Y250410D01*
X10550Y250375D01*
X10667Y250202D01*
X10779Y250026D01*
X10804Y249997D01*
X10826Y249966D01*
X10969Y249814D01*
X11108Y249658D01*
X11137Y249634D01*
X11163Y249606D01*
X11329Y249479D01*
X11492Y249348D01*
X11525Y249329D01*
X11555Y249306D01*
X11739Y249207D01*
X11920Y249104D01*
X11956Y249091D01*
X11990Y249073D01*
X12187Y249005D01*
X12383Y248932D01*
X12420Y248925D01*
X12456Y248913D01*
X12663Y248878D01*
X12867Y248838D01*
X12905Y248837D01*
X12943Y248830D01*
X13152Y248829D01*
X13360Y248822D01*
X13398Y248827D01*
G37*
%LPC*%
G36*
X164546Y171647D02*
X164546Y171647D01*
X164539Y171752D01*
X164543Y171856D01*
X164524Y171997D01*
X164515Y172140D01*
X164492Y172241D01*
X164478Y172345D01*
X164437Y172482D01*
X164405Y172621D01*
X164366Y172717D01*
X164336Y172817D01*
X164273Y172946D01*
X164219Y173078D01*
X164165Y173167D01*
X164119Y173261D01*
X164036Y173377D01*
X163962Y173498D01*
X163894Y173578D01*
X163833Y173663D01*
X163733Y173764D01*
X163640Y173872D01*
X163560Y173940D01*
X163487Y174014D01*
X163371Y174098D01*
X163262Y174189D01*
X163193Y174227D01*
X163088Y174304D01*
X162701Y174500D01*
X162665Y174519D01*
X160064Y175597D01*
X157563Y178098D01*
X156209Y181365D01*
X156209Y199635D01*
X157563Y202902D01*
X160064Y205403D01*
X163331Y206757D01*
X166869Y206757D01*
X170136Y205403D01*
X172637Y202902D01*
X173991Y199635D01*
X173991Y181365D01*
X172637Y178098D01*
X170136Y175597D01*
X166391Y174046D01*
X166357Y174028D01*
X166321Y174016D01*
X166139Y173916D01*
X165952Y173821D01*
X165921Y173798D01*
X165888Y173780D01*
X165723Y173652D01*
X165555Y173528D01*
X165529Y173500D01*
X165498Y173477D01*
X165357Y173324D01*
X165211Y173174D01*
X165189Y173143D01*
X165163Y173115D01*
X165048Y172942D01*
X164928Y172770D01*
X164911Y172736D01*
X164890Y172704D01*
X164804Y172514D01*
X164714Y172326D01*
X164703Y172289D01*
X164687Y172254D01*
X164633Y172053D01*
X164574Y171853D01*
X164569Y171815D01*
X164560Y171778D01*
X164539Y171570D01*
X164535Y171540D01*
X164546Y171647D01*
G37*
%LPD*%
%LPC*%
G36*
X36331Y174243D02*
X36331Y174243D01*
X33064Y175597D01*
X30563Y178098D01*
X29209Y181365D01*
X29209Y199635D01*
X30563Y202902D01*
X33064Y205403D01*
X36331Y206757D01*
X39869Y206757D01*
X43136Y205403D01*
X45637Y202902D01*
X46991Y199635D01*
X46991Y181365D01*
X45637Y178098D01*
X43136Y175597D01*
X39869Y174243D01*
X36331Y174243D01*
G37*
%LPD*%
%LPC*%
G36*
X36331Y98043D02*
X36331Y98043D01*
X33064Y99397D01*
X30563Y101898D01*
X29209Y105165D01*
X29209Y123435D01*
X30563Y126702D01*
X33064Y129203D01*
X36331Y130557D01*
X39869Y130557D01*
X43136Y129203D01*
X45637Y126702D01*
X46991Y123435D01*
X46991Y105165D01*
X45637Y101898D01*
X43136Y99397D01*
X39869Y98043D01*
X36331Y98043D01*
G37*
%LPD*%
%LPC*%
G36*
X264224Y115353D02*
X264224Y115353D01*
X259649Y117248D01*
X256148Y120749D01*
X254253Y125324D01*
X254253Y130276D01*
X256148Y134851D01*
X259649Y138352D01*
X264224Y140247D01*
X269176Y140247D01*
X273751Y138352D01*
X277252Y134851D01*
X279147Y130276D01*
X279147Y125324D01*
X277252Y120749D01*
X273751Y117248D01*
X269176Y115353D01*
X264224Y115353D01*
G37*
%LPD*%
G36*
X171206Y140528D02*
X171206Y140528D01*
X171348Y140524D01*
X171451Y140538D01*
X171556Y140541D01*
X171696Y140570D01*
X171837Y140588D01*
X171937Y140618D01*
X172039Y140639D01*
X172173Y140690D01*
X172310Y140731D01*
X172403Y140777D01*
X172501Y140814D01*
X172625Y140885D01*
X172753Y140948D01*
X172838Y141008D01*
X172928Y141060D01*
X173039Y141151D01*
X173155Y141233D01*
X173229Y141306D01*
X173310Y141373D01*
X173404Y141480D01*
X173506Y141580D01*
X173567Y141664D01*
X173636Y141742D01*
X173712Y141863D01*
X173796Y141979D01*
X173843Y142072D01*
X173899Y142160D01*
X173954Y142292D01*
X174019Y142419D01*
X174050Y142519D01*
X174091Y142615D01*
X174124Y142753D01*
X174167Y142890D01*
X174176Y142968D01*
X174206Y143094D01*
X174239Y143528D01*
X174243Y143567D01*
X174243Y149665D01*
X174234Y149778D01*
X174235Y149893D01*
X174214Y150024D01*
X174203Y150156D01*
X174176Y150267D01*
X174158Y150380D01*
X174117Y150506D01*
X174085Y150635D01*
X174040Y150740D01*
X174004Y150849D01*
X173942Y150966D01*
X173890Y151089D01*
X173829Y151185D01*
X173776Y151286D01*
X173717Y151360D01*
X173625Y151505D01*
X173409Y151747D01*
X173351Y151819D01*
X164519Y160651D01*
X164432Y160725D01*
X164352Y160806D01*
X164245Y160884D01*
X164143Y160970D01*
X164046Y161029D01*
X163953Y161096D01*
X163835Y161156D01*
X163721Y161225D01*
X163615Y161267D01*
X163513Y161319D01*
X163386Y161359D01*
X163263Y161408D01*
X163151Y161433D01*
X163042Y161467D01*
X162949Y161477D01*
X162781Y161515D01*
X162457Y161533D01*
X162365Y161543D01*
X156267Y161543D01*
X156125Y161532D01*
X155982Y161530D01*
X155880Y161512D01*
X155776Y161503D01*
X155637Y161469D01*
X155497Y161444D01*
X155398Y161410D01*
X155297Y161385D01*
X155166Y161328D01*
X155031Y161281D01*
X154939Y161231D01*
X154843Y161190D01*
X154723Y161113D01*
X154598Y161045D01*
X154515Y160981D01*
X154427Y160925D01*
X154321Y160830D01*
X154208Y160742D01*
X154137Y160666D01*
X154060Y160596D01*
X153970Y160485D01*
X153873Y160381D01*
X153815Y160293D01*
X153750Y160212D01*
X153679Y160089D01*
X153600Y159969D01*
X153557Y159874D01*
X153506Y159784D01*
X153456Y159650D01*
X153397Y159520D01*
X153370Y159419D01*
X153334Y159321D01*
X153307Y159181D01*
X153270Y159043D01*
X153259Y158939D01*
X153239Y158837D01*
X153235Y158694D01*
X153221Y158552D01*
X153227Y158448D01*
X153224Y158344D01*
X153243Y158202D01*
X153252Y158060D01*
X153275Y157958D01*
X153288Y157855D01*
X153330Y157718D01*
X153361Y157579D01*
X153401Y157482D01*
X153431Y157383D01*
X153494Y157254D01*
X153547Y157122D01*
X153602Y157033D01*
X153648Y156939D01*
X153730Y156823D01*
X153805Y156701D01*
X153873Y156622D01*
X153933Y156537D01*
X154033Y156436D01*
X154127Y156327D01*
X154207Y156260D01*
X154280Y156186D01*
X154395Y156102D01*
X154505Y156010D01*
X154573Y155972D01*
X154583Y155965D01*
X168661Y141887D01*
X168690Y141848D01*
X168767Y141727D01*
X168836Y141650D01*
X168898Y141566D01*
X169001Y141466D01*
X169096Y141360D01*
X169177Y141294D01*
X169252Y141221D01*
X169369Y141139D01*
X169480Y141050D01*
X169570Y140998D01*
X169656Y140938D01*
X169784Y140876D01*
X169908Y140806D01*
X170006Y140769D01*
X170100Y140724D01*
X170237Y140684D01*
X170371Y140634D01*
X170473Y140614D01*
X170573Y140584D01*
X170715Y140567D01*
X170855Y140539D01*
X170959Y140536D01*
X171063Y140523D01*
X171206Y140528D01*
G37*
G36*
X186787Y67568D02*
X186787Y67568D01*
X186825Y67566D01*
X187033Y67588D01*
X187240Y67605D01*
X187277Y67614D01*
X187315Y67618D01*
X187517Y67673D01*
X187719Y67723D01*
X187754Y67738D01*
X187791Y67749D01*
X187981Y67836D01*
X188173Y67918D01*
X188205Y67938D01*
X188239Y67954D01*
X188413Y68071D01*
X188589Y68183D01*
X188617Y68208D01*
X188649Y68230D01*
X188801Y68373D01*
X188956Y68512D01*
X188980Y68541D01*
X189008Y68567D01*
X189135Y68733D01*
X189266Y68896D01*
X189285Y68929D01*
X189309Y68959D01*
X189407Y69143D01*
X189510Y69324D01*
X189524Y69360D01*
X189542Y69394D01*
X189609Y69591D01*
X189682Y69787D01*
X189689Y69824D01*
X189702Y69860D01*
X189737Y70067D01*
X189777Y70271D01*
X189778Y70309D01*
X189784Y70347D01*
X189786Y70556D01*
X189792Y70764D01*
X189787Y70802D01*
X189787Y70840D01*
X189755Y71047D01*
X189728Y71253D01*
X189717Y71290D01*
X189711Y71327D01*
X189645Y71526D01*
X189585Y71725D01*
X189568Y71760D01*
X189556Y71796D01*
X189460Y71981D01*
X189368Y72169D01*
X189346Y72200D01*
X189329Y72234D01*
X189271Y72306D01*
X189083Y72571D01*
X188962Y72693D01*
X188903Y72767D01*
X187056Y74614D01*
X174367Y87303D01*
X174338Y87328D01*
X174312Y87356D01*
X174150Y87488D01*
X173991Y87623D01*
X173958Y87643D01*
X173928Y87666D01*
X173748Y87769D01*
X173568Y87877D01*
X173533Y87892D01*
X173500Y87910D01*
X173304Y87983D01*
X173110Y88060D01*
X173073Y88069D01*
X173037Y88082D01*
X172832Y88122D01*
X172628Y88167D01*
X172590Y88169D01*
X172553Y88177D01*
X172345Y88183D01*
X172136Y88195D01*
X172098Y88191D01*
X172060Y88192D01*
X171853Y88165D01*
X171645Y88143D01*
X171609Y88133D01*
X171571Y88128D01*
X171371Y88067D01*
X171170Y88012D01*
X171135Y87996D01*
X171098Y87985D01*
X170911Y87893D01*
X170721Y87806D01*
X170689Y87785D01*
X170655Y87768D01*
X170486Y87648D01*
X170312Y87531D01*
X170284Y87505D01*
X170253Y87483D01*
X170105Y87336D01*
X169952Y87193D01*
X169929Y87163D01*
X169902Y87136D01*
X169779Y86967D01*
X169652Y86802D01*
X169634Y86768D01*
X169612Y86737D01*
X169518Y86551D01*
X169419Y86367D01*
X169406Y86331D01*
X169389Y86297D01*
X169327Y86098D01*
X169259Y85900D01*
X169253Y85863D01*
X169241Y85826D01*
X169231Y85734D01*
X169176Y85414D01*
X169175Y85242D01*
X169165Y85149D01*
X169165Y79146D01*
X169174Y79032D01*
X169173Y78918D01*
X169194Y78786D01*
X169205Y78654D01*
X169232Y78543D01*
X169250Y78431D01*
X169291Y78304D01*
X169323Y78175D01*
X169368Y78070D01*
X169404Y77962D01*
X169466Y77844D01*
X169518Y77722D01*
X169579Y77626D01*
X169632Y77524D01*
X169691Y77451D01*
X169783Y77306D01*
X169999Y77064D01*
X170057Y76991D01*
X178591Y68457D01*
X178678Y68383D01*
X178758Y68302D01*
X178866Y68224D01*
X178967Y68138D01*
X179065Y68079D01*
X179157Y68012D01*
X179276Y67952D01*
X179390Y67883D01*
X179496Y67841D01*
X179598Y67789D01*
X179724Y67749D01*
X179848Y67700D01*
X179959Y67675D01*
X180068Y67641D01*
X180162Y67631D01*
X180329Y67593D01*
X180654Y67575D01*
X180746Y67565D01*
X186749Y67565D01*
X186787Y67568D01*
G37*
D10*
X127000Y241300D03*
X177800Y241300D03*
D11*
X38100Y121666D02*
X38100Y106934D01*
X63500Y106934D02*
X63500Y121666D01*
X190500Y121666D02*
X190500Y106934D01*
X190500Y183134D02*
X190500Y197866D01*
X88900Y121666D02*
X88900Y106934D01*
X114300Y106934D02*
X114300Y121666D01*
X165100Y121666D02*
X165100Y106934D01*
X139700Y106934D02*
X139700Y121666D01*
X165100Y183134D02*
X165100Y197866D01*
X139700Y197866D02*
X139700Y183134D01*
X114300Y183134D02*
X114300Y197866D01*
X88900Y197866D02*
X88900Y183134D01*
X63500Y183134D02*
X63500Y197866D01*
X38100Y197866D02*
X38100Y183134D01*
D12*
X201930Y46482D02*
X201930Y29718D01*
X229870Y29718D02*
X229870Y46482D01*
D13*
X114300Y25400D03*
X114300Y76200D03*
X139700Y25400D03*
X139700Y76200D03*
D14*
X266700Y127800D03*
X266700Y177800D03*
X266700Y227800D03*
D15*
X88900Y266700D03*
X88900Y215900D03*
D13*
X63500Y215900D03*
X63500Y266700D03*
D16*
X25400Y47498D02*
X25400Y28702D01*
X63500Y28702D02*
X63500Y47498D01*
D17*
X114300Y25400D02*
X139700Y25400D01*
X177800Y25400D01*
X190500Y38100D01*
X201930Y38100D01*
X165100Y76200D02*
X165100Y114300D01*
X165100Y76200D02*
X177800Y63500D01*
X190500Y63500D01*
X203200Y50800D01*
D18*
X201930Y49530D01*
D19*
X201930Y38100D01*
D17*
X63500Y266700D02*
X38100Y266700D01*
X12700Y241300D01*
X12700Y177800D01*
X38100Y152400D01*
X152400Y152400D01*
X165100Y139700D01*
X165100Y114300D01*
X114300Y228600D02*
X127000Y241300D01*
X114300Y228600D02*
X114300Y190500D01*
X114300Y266700D02*
X88900Y266700D01*
X114300Y266700D02*
X127000Y254000D01*
X127000Y241300D01*
X229870Y38100D02*
X279400Y38100D01*
X292100Y50800D01*
X292100Y254000D01*
X279400Y266700D01*
X139700Y266700D01*
X127000Y254000D01*
D19*
X190500Y190500D02*
X190500Y114300D01*
D17*
X190500Y190500D02*
X228600Y228600D01*
X265900Y228600D01*
D18*
X266700Y227800D01*
D17*
X114300Y114300D02*
X114300Y76200D01*
X139700Y76200D02*
X139700Y114300D01*
D19*
X63500Y114300D02*
X63500Y101600D01*
D17*
X25400Y63500D01*
X25400Y38100D01*
X88900Y88900D02*
X88900Y114300D01*
X88900Y88900D02*
X63500Y63500D01*
X63500Y38100D01*
D19*
X63500Y190500D02*
X63500Y215900D01*
D20*
X215900Y127000D02*
X266700Y177800D01*
X177800Y152400D02*
X165100Y165100D01*
X76200Y165100D01*
X63500Y177800D01*
D19*
X63500Y190500D01*
D20*
X177800Y152400D02*
X177800Y88900D01*
X190500Y76200D01*
X203200Y76200D01*
X215900Y88900D01*
X215900Y127000D01*
D17*
X139700Y228600D02*
X152400Y241300D01*
X177800Y241300D01*
X139700Y228600D02*
X139700Y190500D01*
D19*
X88900Y190500D02*
X88900Y215900D01*
M02*
