G04 EAGLE Gerber RS-274X export*
G75*
%MOMM*%
%FSLAX34Y34*%
%LPD*%
%INSoldermask Top*%
%IPPOS*%
%AMOC8*
5,1,8,0,0,1.08239X$1,22.5*%
G01*
%ADD10P,1.814519X8X22.500000*%
%ADD11C,1.676400*%
%ADD12C,1.879600*%
%ADD13P,1.814519X8X112.500000*%
%ADD14C,2.387600*%
%ADD15P,1.814519X8X292.500000*%
%ADD16C,2.082800*%


D10*
X127000Y241300D03*
X177800Y241300D03*
D11*
X38100Y121666D02*
X38100Y106934D01*
X63500Y106934D02*
X63500Y121666D01*
X190500Y121666D02*
X190500Y106934D01*
X190500Y183134D02*
X190500Y197866D01*
X88900Y121666D02*
X88900Y106934D01*
X114300Y106934D02*
X114300Y121666D01*
X165100Y121666D02*
X165100Y106934D01*
X139700Y106934D02*
X139700Y121666D01*
X165100Y183134D02*
X165100Y197866D01*
X139700Y197866D02*
X139700Y183134D01*
X114300Y183134D02*
X114300Y197866D01*
X88900Y197866D02*
X88900Y183134D01*
X63500Y183134D02*
X63500Y197866D01*
X38100Y197866D02*
X38100Y183134D01*
D12*
X201930Y46482D02*
X201930Y29718D01*
X229870Y29718D02*
X229870Y46482D01*
D13*
X114300Y25400D03*
X114300Y76200D03*
X139700Y25400D03*
X139700Y76200D03*
D14*
X266700Y127800D03*
X266700Y177800D03*
X266700Y227800D03*
D15*
X88900Y266700D03*
X88900Y215900D03*
D13*
X63500Y215900D03*
X63500Y266700D03*
D16*
X25400Y47498D02*
X25400Y28702D01*
X63500Y28702D02*
X63500Y47498D01*
M02*
