G04 EAGLE Gerber RS-274X export*
G75*
%MOMM*%
%FSLAX34Y34*%
%LPD*%
%INTop Copper*%
%IPPOS*%
%AMOC8*
5,1,8,0,0,1.08239X$1,22.5*%
G01*
%ADD10P,1.429621X8X292.500000*%
%ADD11P,1.429621X8X22.500000*%
%ADD12C,1.905000*%
%ADD13P,2.061953X8X202.500000*%
%ADD14P,1.429621X8X112.500000*%
%ADD15C,1.320800*%
%ADD16P,3.409096X8X22.500000*%
%ADD17C,1.320800*%
%ADD18C,1.524000*%
%ADD19C,1.300000*%
%ADD20C,1.905000*%
%ADD21P,1.429621X8X202.500000*%
%ADD22C,0.508000*%
%ADD23C,0.152400*%

G36*
X251533Y16525D02*
X251533Y16525D01*
X251698Y16532D01*
X251757Y16545D01*
X251818Y16551D01*
X251977Y16594D01*
X252137Y16630D01*
X252194Y16653D01*
X252253Y16669D01*
X252401Y16740D01*
X252553Y16803D01*
X252604Y16836D01*
X252659Y16863D01*
X252793Y16958D01*
X252931Y17048D01*
X252989Y17099D01*
X253025Y17125D01*
X253068Y17168D01*
X253165Y17254D01*
X262146Y26235D01*
X262251Y26361D01*
X262363Y26482D01*
X262395Y26533D01*
X262434Y26580D01*
X262516Y26723D01*
X262604Y26862D01*
X262628Y26918D01*
X262658Y26971D01*
X262713Y27126D01*
X262775Y27278D01*
X262788Y27338D01*
X262809Y27395D01*
X262835Y27558D01*
X262870Y27718D01*
X262875Y27795D01*
X262882Y27840D01*
X262881Y27901D01*
X262889Y28030D01*
X262889Y29472D01*
X262870Y29683D01*
X262854Y29894D01*
X262851Y29907D01*
X262849Y29920D01*
X262793Y30125D01*
X262740Y30330D01*
X262734Y30342D01*
X262731Y30354D01*
X262640Y30545D01*
X262551Y30738D01*
X262543Y30749D01*
X262537Y30761D01*
X262415Y30932D01*
X262292Y31107D01*
X262283Y31117D01*
X262275Y31127D01*
X262123Y31275D01*
X261973Y31424D01*
X261962Y31432D01*
X261953Y31441D01*
X261777Y31560D01*
X261603Y31680D01*
X261588Y31687D01*
X261580Y31693D01*
X261543Y31709D01*
X261322Y31818D01*
X260585Y32123D01*
X257548Y35160D01*
X256346Y38061D01*
X256286Y38176D01*
X256234Y38296D01*
X256182Y38376D01*
X256137Y38460D01*
X256058Y38563D01*
X255986Y38672D01*
X255920Y38741D01*
X255862Y38816D01*
X255765Y38903D01*
X255676Y38998D01*
X255598Y39054D01*
X255527Y39118D01*
X255417Y39187D01*
X255312Y39263D01*
X255226Y39305D01*
X255145Y39356D01*
X255025Y39404D01*
X254908Y39461D01*
X254816Y39487D01*
X254727Y39523D01*
X254600Y39549D01*
X254474Y39584D01*
X254379Y39594D01*
X254286Y39613D01*
X254156Y39616D01*
X254026Y39629D01*
X253931Y39621D01*
X253836Y39623D01*
X253707Y39604D01*
X253577Y39593D01*
X253485Y39569D01*
X253391Y39555D01*
X253268Y39512D01*
X253142Y39479D01*
X253055Y39439D01*
X252965Y39408D01*
X252851Y39345D01*
X252733Y39290D01*
X252655Y39235D01*
X252572Y39189D01*
X252471Y39106D01*
X252364Y39032D01*
X252297Y38964D01*
X252223Y38904D01*
X252139Y38805D01*
X252047Y38713D01*
X251993Y38634D01*
X251931Y38561D01*
X251865Y38449D01*
X251791Y38342D01*
X251734Y38225D01*
X251703Y38173D01*
X251688Y38131D01*
X251654Y38061D01*
X250452Y35160D01*
X247415Y32123D01*
X243447Y30479D01*
X239153Y30479D01*
X235185Y32123D01*
X232148Y35160D01*
X230946Y38061D01*
X230886Y38176D01*
X230834Y38296D01*
X230782Y38376D01*
X230737Y38460D01*
X230658Y38563D01*
X230586Y38672D01*
X230520Y38741D01*
X230462Y38816D01*
X230365Y38903D01*
X230276Y38998D01*
X230198Y39054D01*
X230127Y39118D01*
X230017Y39187D01*
X229912Y39263D01*
X229826Y39305D01*
X229745Y39356D01*
X229625Y39404D01*
X229508Y39461D01*
X229416Y39487D01*
X229327Y39523D01*
X229200Y39549D01*
X229074Y39584D01*
X228979Y39594D01*
X228886Y39613D01*
X228756Y39616D01*
X228626Y39629D01*
X228531Y39621D01*
X228436Y39623D01*
X228307Y39604D01*
X228177Y39593D01*
X228085Y39569D01*
X227991Y39555D01*
X227868Y39512D01*
X227742Y39479D01*
X227655Y39439D01*
X227565Y39408D01*
X227451Y39345D01*
X227333Y39290D01*
X227255Y39235D01*
X227172Y39189D01*
X227071Y39106D01*
X226964Y39032D01*
X226897Y38964D01*
X226823Y38904D01*
X226739Y38805D01*
X226647Y38713D01*
X226593Y38634D01*
X226531Y38561D01*
X226465Y38449D01*
X226391Y38342D01*
X226334Y38225D01*
X226303Y38173D01*
X226288Y38131D01*
X226254Y38061D01*
X225052Y35160D01*
X222015Y32123D01*
X218047Y30479D01*
X213753Y30479D01*
X209785Y32123D01*
X206748Y35160D01*
X205104Y39128D01*
X205104Y62472D01*
X206748Y66440D01*
X209785Y69477D01*
X210522Y69782D01*
X210709Y69880D01*
X210899Y69977D01*
X210909Y69985D01*
X210921Y69991D01*
X211089Y70121D01*
X211257Y70249D01*
X211266Y70259D01*
X211277Y70267D01*
X211419Y70424D01*
X211563Y70580D01*
X211570Y70591D01*
X211578Y70601D01*
X211691Y70781D01*
X211804Y70960D01*
X211809Y70972D01*
X211816Y70983D01*
X211895Y71180D01*
X211975Y71376D01*
X211978Y71389D01*
X211983Y71402D01*
X212025Y71608D01*
X212070Y71817D01*
X212071Y71832D01*
X212073Y71843D01*
X212074Y71882D01*
X212089Y72128D01*
X212089Y89658D01*
X212669Y91059D01*
X287546Y165935D01*
X287651Y166061D01*
X287763Y166182D01*
X287795Y166233D01*
X287834Y166280D01*
X287916Y166423D01*
X288004Y166562D01*
X288028Y166618D01*
X288058Y166671D01*
X288113Y166826D01*
X288175Y166978D01*
X288188Y167038D01*
X288209Y167095D01*
X288235Y167258D01*
X288270Y167418D01*
X288275Y167495D01*
X288282Y167540D01*
X288281Y167601D01*
X288289Y167730D01*
X288289Y169422D01*
X288275Y169586D01*
X288268Y169751D01*
X288255Y169810D01*
X288249Y169871D01*
X288206Y170030D01*
X288170Y170190D01*
X288147Y170246D01*
X288131Y170305D01*
X288060Y170453D01*
X287997Y170606D01*
X287964Y170657D01*
X287937Y170712D01*
X287842Y170845D01*
X287752Y170984D01*
X287701Y171042D01*
X287675Y171078D01*
X287632Y171120D01*
X287546Y171218D01*
X284225Y174538D01*
X284225Y181062D01*
X288838Y185675D01*
X295362Y185675D01*
X299975Y181062D01*
X299975Y174538D01*
X296654Y171218D01*
X296549Y171092D01*
X296437Y170971D01*
X296405Y170919D01*
X296366Y170873D01*
X296284Y170730D01*
X296196Y170591D01*
X296172Y170534D01*
X296142Y170482D01*
X296087Y170327D01*
X296025Y170174D01*
X296012Y170115D01*
X295991Y170057D01*
X295965Y169895D01*
X295930Y169734D01*
X295925Y169657D01*
X295918Y169613D01*
X295919Y169552D01*
X295911Y169422D01*
X295911Y164342D01*
X295331Y162941D01*
X220454Y88065D01*
X220360Y87952D01*
X220349Y87941D01*
X220344Y87934D01*
X220237Y87818D01*
X220205Y87767D01*
X220166Y87720D01*
X220084Y87577D01*
X219996Y87438D01*
X219972Y87382D01*
X219942Y87329D01*
X219887Y87174D01*
X219825Y87022D01*
X219812Y86962D01*
X219791Y86905D01*
X219765Y86742D01*
X219730Y86582D01*
X219725Y86505D01*
X219718Y86460D01*
X219719Y86399D01*
X219711Y86270D01*
X219711Y72128D01*
X219730Y71917D01*
X219746Y71706D01*
X219749Y71693D01*
X219751Y71680D01*
X219807Y71475D01*
X219860Y71270D01*
X219866Y71258D01*
X219869Y71246D01*
X219960Y71055D01*
X220049Y70862D01*
X220057Y70851D01*
X220063Y70839D01*
X220185Y70668D01*
X220308Y70493D01*
X220317Y70483D01*
X220325Y70473D01*
X220477Y70325D01*
X220627Y70176D01*
X220638Y70168D01*
X220647Y70159D01*
X220824Y70040D01*
X220997Y69920D01*
X221012Y69913D01*
X221020Y69907D01*
X221057Y69891D01*
X221278Y69782D01*
X222015Y69477D01*
X225052Y66440D01*
X226254Y63539D01*
X226314Y63423D01*
X226366Y63304D01*
X226418Y63224D01*
X226463Y63140D01*
X226542Y63037D01*
X226614Y62928D01*
X226680Y62859D01*
X226738Y62784D01*
X226835Y62696D01*
X226925Y62602D01*
X227002Y62546D01*
X227073Y62482D01*
X227183Y62413D01*
X227288Y62336D01*
X227374Y62295D01*
X227455Y62244D01*
X227576Y62196D01*
X227692Y62139D01*
X227784Y62113D01*
X227873Y62077D01*
X228001Y62051D01*
X228126Y62016D01*
X228221Y62006D01*
X228314Y61987D01*
X228444Y61984D01*
X228574Y61971D01*
X228669Y61979D01*
X228764Y61977D01*
X228893Y61996D01*
X229023Y62007D01*
X229115Y62031D01*
X229209Y62045D01*
X229332Y62088D01*
X229458Y62121D01*
X229545Y62161D01*
X229635Y62192D01*
X229749Y62255D01*
X229867Y62310D01*
X229945Y62365D01*
X230028Y62411D01*
X230129Y62493D01*
X230236Y62568D01*
X230303Y62636D01*
X230377Y62696D01*
X230461Y62795D01*
X230553Y62887D01*
X230607Y62966D01*
X230669Y63039D01*
X230735Y63151D01*
X230809Y63258D01*
X230866Y63375D01*
X230897Y63427D01*
X230912Y63469D01*
X230946Y63539D01*
X232148Y66440D01*
X235185Y69477D01*
X235922Y69782D01*
X236109Y69880D01*
X236299Y69977D01*
X236309Y69985D01*
X236321Y69991D01*
X236489Y70121D01*
X236657Y70249D01*
X236666Y70259D01*
X236677Y70267D01*
X236819Y70424D01*
X236963Y70580D01*
X236970Y70591D01*
X236978Y70601D01*
X237091Y70781D01*
X237204Y70960D01*
X237209Y70972D01*
X237216Y70983D01*
X237295Y71180D01*
X237375Y71376D01*
X237378Y71389D01*
X237383Y71402D01*
X237425Y71608D01*
X237470Y71817D01*
X237471Y71832D01*
X237473Y71843D01*
X237474Y71882D01*
X237489Y72128D01*
X237489Y89658D01*
X238069Y91059D01*
X269462Y122451D01*
X269462Y122452D01*
X271248Y124237D01*
X271249Y124238D01*
X312946Y165935D01*
X313051Y166061D01*
X313163Y166182D01*
X313195Y166233D01*
X313234Y166280D01*
X313316Y166423D01*
X313404Y166562D01*
X313428Y166618D01*
X313458Y166671D01*
X313513Y166826D01*
X313575Y166978D01*
X313588Y167038D01*
X313609Y167095D01*
X313635Y167258D01*
X313670Y167418D01*
X313675Y167495D01*
X313682Y167540D01*
X313681Y167601D01*
X313689Y167730D01*
X313689Y209550D01*
X313686Y209585D01*
X313688Y209619D01*
X313666Y209808D01*
X313649Y209999D01*
X313640Y210032D01*
X313636Y210066D01*
X313581Y210249D01*
X313531Y210433D01*
X313516Y210464D01*
X313506Y210497D01*
X313419Y210668D01*
X313337Y210840D01*
X313317Y210868D01*
X313302Y210899D01*
X313186Y211050D01*
X313075Y211206D01*
X313050Y211230D01*
X313030Y211257D01*
X312890Y211386D01*
X312753Y211520D01*
X312724Y211539D01*
X312698Y211563D01*
X312537Y211665D01*
X312380Y211772D01*
X312348Y211786D01*
X312319Y211804D01*
X312142Y211877D01*
X311968Y211954D01*
X311934Y211962D01*
X311902Y211975D01*
X311715Y212015D01*
X311530Y212061D01*
X311496Y212063D01*
X311462Y212070D01*
X311150Y212089D01*
X275078Y212089D01*
X274914Y212075D01*
X274749Y212068D01*
X274690Y212055D01*
X274629Y212049D01*
X274470Y212006D01*
X274310Y211970D01*
X274254Y211947D01*
X274195Y211931D01*
X274046Y211860D01*
X273894Y211797D01*
X273843Y211764D01*
X273788Y211737D01*
X273654Y211642D01*
X273516Y211552D01*
X273458Y211501D01*
X273422Y211475D01*
X273379Y211432D01*
X273282Y211346D01*
X269962Y208025D01*
X263438Y208025D01*
X258825Y212638D01*
X258825Y219162D01*
X263438Y223775D01*
X269962Y223775D01*
X273282Y220454D01*
X273408Y220349D01*
X273529Y220237D01*
X273581Y220205D01*
X273627Y220166D01*
X273770Y220084D01*
X273909Y219996D01*
X273965Y219972D01*
X274018Y219942D01*
X274173Y219887D01*
X274325Y219825D01*
X274385Y219812D01*
X274443Y219791D01*
X274605Y219765D01*
X274766Y219730D01*
X274843Y219725D01*
X274887Y219718D01*
X274948Y219719D01*
X275078Y219711D01*
X318258Y219711D01*
X319659Y219131D01*
X320731Y218059D01*
X321311Y216658D01*
X321311Y164342D01*
X320731Y162941D01*
X319302Y161513D01*
X319301Y161512D01*
X280235Y122446D01*
X280212Y122419D01*
X280187Y122396D01*
X280069Y122247D01*
X279946Y122100D01*
X279929Y122070D01*
X279907Y122043D01*
X279817Y121875D01*
X279722Y121709D01*
X279711Y121677D01*
X279694Y121646D01*
X279636Y121465D01*
X279572Y121285D01*
X279566Y121251D01*
X279555Y121218D01*
X279529Y121029D01*
X279498Y120841D01*
X279499Y120806D01*
X279494Y120772D01*
X279502Y120581D01*
X279504Y120390D01*
X279511Y120356D01*
X279512Y120322D01*
X279554Y120136D01*
X279590Y119948D01*
X279602Y119916D01*
X279610Y119882D01*
X279683Y119706D01*
X279752Y119528D01*
X279770Y119499D01*
X279783Y119467D01*
X279887Y119307D01*
X279986Y119144D01*
X280009Y119118D01*
X280028Y119089D01*
X280235Y118854D01*
X295331Y103759D01*
X295911Y102358D01*
X295911Y53430D01*
X295925Y53267D01*
X295932Y53102D01*
X295945Y53043D01*
X295951Y52982D01*
X295994Y52823D01*
X296030Y52663D01*
X296053Y52606D01*
X296069Y52547D01*
X296140Y52399D01*
X296203Y52247D01*
X296236Y52196D01*
X296263Y52141D01*
X296358Y52007D01*
X296448Y51869D01*
X296499Y51811D01*
X296525Y51775D01*
X296568Y51732D01*
X296654Y51635D01*
X331035Y17254D01*
X331161Y17149D01*
X331282Y17037D01*
X331333Y17005D01*
X331380Y16966D01*
X331523Y16884D01*
X331662Y16796D01*
X331718Y16772D01*
X331771Y16742D01*
X331926Y16687D01*
X332078Y16625D01*
X332138Y16612D01*
X332195Y16591D01*
X332358Y16565D01*
X332518Y16530D01*
X332595Y16525D01*
X332640Y16518D01*
X332701Y16519D01*
X332830Y16511D01*
X372770Y16511D01*
X372899Y16522D01*
X373029Y16524D01*
X373123Y16542D01*
X373218Y16551D01*
X373344Y16585D01*
X373471Y16610D01*
X373560Y16644D01*
X373652Y16669D01*
X373770Y16725D01*
X373891Y16772D01*
X373973Y16822D01*
X374059Y16863D01*
X374165Y16938D01*
X374276Y17006D01*
X374347Y17069D01*
X374425Y17125D01*
X374516Y17218D01*
X374613Y17304D01*
X374673Y17379D01*
X374739Y17447D01*
X374812Y17555D01*
X374893Y17657D01*
X374938Y17741D01*
X374991Y17820D01*
X375044Y17939D01*
X375105Y18054D01*
X375135Y18145D01*
X375173Y18232D01*
X375204Y18359D01*
X375244Y18482D01*
X375258Y18577D01*
X375280Y18670D01*
X375288Y18799D01*
X375306Y18928D01*
X375302Y19024D01*
X375308Y19119D01*
X375293Y19248D01*
X375287Y19378D01*
X375267Y19471D01*
X375256Y19566D01*
X375218Y19691D01*
X375190Y19818D01*
X375153Y19906D01*
X375125Y19997D01*
X375066Y20113D01*
X375016Y20233D01*
X374964Y20313D01*
X374921Y20399D01*
X374843Y20502D01*
X374772Y20611D01*
X374686Y20709D01*
X374649Y20757D01*
X374616Y20788D01*
X374565Y20846D01*
X374412Y20998D01*
X373229Y23854D01*
X373229Y26946D01*
X374412Y29802D01*
X376598Y31988D01*
X379454Y33171D01*
X382330Y33171D01*
X382493Y33185D01*
X382658Y33192D01*
X382717Y33205D01*
X382778Y33211D01*
X382937Y33254D01*
X383097Y33290D01*
X383154Y33313D01*
X383213Y33329D01*
X383361Y33400D01*
X383513Y33463D01*
X383564Y33496D01*
X383619Y33523D01*
X383753Y33618D01*
X383891Y33708D01*
X383949Y33759D01*
X383985Y33785D01*
X384028Y33828D01*
X384125Y33914D01*
X416941Y66731D01*
X418342Y67311D01*
X475742Y67311D01*
X475777Y67314D01*
X475811Y67312D01*
X476000Y67334D01*
X476191Y67351D01*
X476224Y67360D01*
X476258Y67364D01*
X476441Y67419D01*
X476625Y67469D01*
X476656Y67484D01*
X476689Y67494D01*
X476860Y67581D01*
X477032Y67663D01*
X477060Y67683D01*
X477091Y67698D01*
X477243Y67814D01*
X477398Y67925D01*
X477422Y67950D01*
X477449Y67970D01*
X477578Y68110D01*
X477712Y68247D01*
X477731Y68276D01*
X477755Y68302D01*
X477857Y68463D01*
X477964Y68620D01*
X477978Y68652D01*
X477996Y68681D01*
X478069Y68858D01*
X478146Y69032D01*
X478154Y69066D01*
X478167Y69098D01*
X478207Y69285D01*
X478253Y69470D01*
X478255Y69504D01*
X478262Y69538D01*
X478281Y69850D01*
X478281Y70549D01*
X488251Y80519D01*
X502349Y80519D01*
X502844Y80024D01*
X502871Y80002D01*
X502893Y79976D01*
X503043Y79858D01*
X503189Y79735D01*
X503219Y79718D01*
X503247Y79697D01*
X503414Y79607D01*
X503580Y79512D01*
X503613Y79500D01*
X503643Y79484D01*
X503824Y79425D01*
X504004Y79361D01*
X504039Y79355D01*
X504072Y79345D01*
X504261Y79319D01*
X504449Y79288D01*
X504483Y79288D01*
X504518Y79283D01*
X504709Y79291D01*
X504899Y79294D01*
X504933Y79300D01*
X504968Y79302D01*
X505154Y79343D01*
X505341Y79379D01*
X505373Y79392D01*
X505407Y79399D01*
X505583Y79473D01*
X505761Y79542D01*
X505790Y79559D01*
X505823Y79573D01*
X505983Y79677D01*
X506146Y79775D01*
X506172Y79798D01*
X506201Y79817D01*
X506435Y80024D01*
X516146Y89735D01*
X516251Y89861D01*
X516363Y89982D01*
X516395Y90033D01*
X516434Y90080D01*
X516516Y90223D01*
X516604Y90362D01*
X516628Y90418D01*
X516658Y90471D01*
X516713Y90626D01*
X516775Y90778D01*
X516788Y90838D01*
X516809Y90895D01*
X516835Y91058D01*
X516870Y91218D01*
X516875Y91295D01*
X516882Y91340D01*
X516881Y91401D01*
X516889Y91530D01*
X516889Y105691D01*
X516878Y105820D01*
X516876Y105950D01*
X516858Y106044D01*
X516849Y106139D01*
X516815Y106265D01*
X516790Y106392D01*
X516756Y106482D01*
X516731Y106574D01*
X516675Y106691D01*
X516628Y106812D01*
X516578Y106894D01*
X516537Y106980D01*
X516462Y107086D01*
X516394Y107197D01*
X516331Y107269D01*
X516275Y107346D01*
X516182Y107437D01*
X516096Y107535D01*
X516021Y107594D01*
X515953Y107661D01*
X515845Y107733D01*
X515743Y107814D01*
X515659Y107859D01*
X515580Y107913D01*
X515461Y107965D01*
X515346Y108027D01*
X515255Y108056D01*
X515168Y108095D01*
X515041Y108126D01*
X514918Y108166D01*
X514823Y108179D01*
X514730Y108201D01*
X514601Y108209D01*
X514472Y108227D01*
X514376Y108223D01*
X514281Y108229D01*
X514152Y108214D01*
X514022Y108209D01*
X513929Y108188D01*
X513834Y108177D01*
X513709Y108139D01*
X513582Y108111D01*
X513494Y108075D01*
X513403Y108047D01*
X513287Y107988D01*
X513167Y107938D01*
X513086Y107886D01*
X513001Y107842D01*
X512898Y107764D01*
X512789Y107693D01*
X512691Y107607D01*
X512643Y107570D01*
X512612Y107538D01*
X512554Y107486D01*
X502349Y97281D01*
X488251Y97281D01*
X478281Y107251D01*
X478281Y121349D01*
X488251Y131319D01*
X488950Y131319D01*
X488985Y131322D01*
X489019Y131320D01*
X489208Y131342D01*
X489399Y131359D01*
X489432Y131368D01*
X489466Y131372D01*
X489649Y131427D01*
X489833Y131477D01*
X489864Y131492D01*
X489897Y131502D01*
X490068Y131589D01*
X490240Y131671D01*
X490268Y131691D01*
X490299Y131706D01*
X490451Y131822D01*
X490606Y131933D01*
X490630Y131958D01*
X490657Y131978D01*
X490786Y132118D01*
X490920Y132255D01*
X490939Y132284D01*
X490963Y132310D01*
X491065Y132471D01*
X491172Y132628D01*
X491186Y132660D01*
X491204Y132689D01*
X491277Y132866D01*
X491354Y133040D01*
X491362Y133074D01*
X491375Y133106D01*
X491415Y133293D01*
X491461Y133478D01*
X491463Y133512D01*
X491470Y133546D01*
X491489Y133858D01*
X491489Y225970D01*
X491475Y226133D01*
X491468Y226298D01*
X491455Y226357D01*
X491449Y226418D01*
X491406Y226577D01*
X491370Y226737D01*
X491347Y226794D01*
X491331Y226853D01*
X491260Y227001D01*
X491197Y227153D01*
X491164Y227204D01*
X491137Y227259D01*
X491042Y227393D01*
X490952Y227531D01*
X490901Y227589D01*
X490875Y227625D01*
X490832Y227668D01*
X490820Y227681D01*
X490802Y227704D01*
X490787Y227719D01*
X490746Y227765D01*
X469065Y249446D01*
X468939Y249551D01*
X468818Y249663D01*
X468767Y249695D01*
X468720Y249734D01*
X468577Y249816D01*
X468438Y249904D01*
X468382Y249928D01*
X468329Y249958D01*
X468174Y250013D01*
X468022Y250075D01*
X467962Y250088D01*
X467905Y250109D01*
X467742Y250135D01*
X467582Y250170D01*
X467505Y250175D01*
X467460Y250182D01*
X467399Y250181D01*
X467270Y250189D01*
X300478Y250189D01*
X300314Y250175D01*
X300149Y250168D01*
X300090Y250155D01*
X300029Y250149D01*
X299870Y250106D01*
X299710Y250070D01*
X299654Y250047D01*
X299595Y250031D01*
X299447Y249960D01*
X299294Y249897D01*
X299243Y249864D01*
X299188Y249837D01*
X299055Y249742D01*
X298916Y249652D01*
X298858Y249601D01*
X298822Y249575D01*
X298779Y249532D01*
X298682Y249446D01*
X298599Y249346D01*
X298508Y249253D01*
X298488Y249223D01*
X298454Y249173D01*
X298393Y249100D01*
X298329Y248987D01*
X298256Y248880D01*
X298217Y248792D01*
X298170Y248709D01*
X298126Y248587D01*
X298074Y248468D01*
X298051Y248375D01*
X298019Y248285D01*
X297998Y248156D01*
X297967Y248030D01*
X297961Y247935D01*
X297945Y247841D01*
X297947Y247710D01*
X297939Y247581D01*
X297950Y247486D01*
X297952Y247390D01*
X297976Y247263D01*
X297991Y247134D01*
X298019Y247042D01*
X298037Y246948D01*
X298084Y246827D01*
X298122Y246703D01*
X298165Y246618D01*
X298199Y246528D01*
X298267Y246417D01*
X298326Y246301D01*
X298384Y246225D01*
X298433Y246144D01*
X298519Y246046D01*
X298598Y245943D01*
X298668Y245878D01*
X298732Y245806D01*
X298833Y245726D01*
X298929Y245637D01*
X299010Y245586D01*
X299085Y245527D01*
X299199Y245466D01*
X299309Y245396D01*
X299397Y245359D01*
X299482Y245314D01*
X299605Y245274D01*
X299725Y245225D01*
X299819Y245205D01*
X299910Y245175D01*
X300038Y245157D01*
X300166Y245130D01*
X300295Y245122D01*
X300356Y245114D01*
X300401Y245115D01*
X300478Y245111D01*
X407158Y245111D01*
X408559Y244531D01*
X409987Y243102D01*
X409988Y243101D01*
X415871Y237218D01*
X415997Y237113D01*
X416118Y237001D01*
X416169Y236969D01*
X416216Y236930D01*
X416359Y236848D01*
X416498Y236760D01*
X416554Y236736D01*
X416607Y236706D01*
X416762Y236651D01*
X416914Y236589D01*
X416974Y236576D01*
X417031Y236555D01*
X417194Y236529D01*
X417354Y236494D01*
X417431Y236489D01*
X417476Y236482D01*
X417537Y236483D01*
X417666Y236475D01*
X422362Y236475D01*
X426975Y231862D01*
X426975Y225338D01*
X423654Y222018D01*
X423549Y221892D01*
X423437Y221771D01*
X423405Y221719D01*
X423366Y221673D01*
X423284Y221530D01*
X423196Y221391D01*
X423172Y221335D01*
X423142Y221282D01*
X423087Y221127D01*
X423025Y220975D01*
X423012Y220915D01*
X422991Y220857D01*
X422965Y220695D01*
X422930Y220534D01*
X422925Y220457D01*
X422918Y220413D01*
X422919Y220352D01*
X422911Y220222D01*
X422911Y215142D01*
X422331Y213741D01*
X389514Y180925D01*
X389409Y180799D01*
X389297Y180678D01*
X389265Y180627D01*
X389226Y180580D01*
X389144Y180437D01*
X389056Y180298D01*
X389032Y180242D01*
X389002Y180189D01*
X388947Y180034D01*
X388885Y179882D01*
X388872Y179822D01*
X388851Y179765D01*
X388825Y179602D01*
X388790Y179442D01*
X388785Y179365D01*
X388778Y179320D01*
X388779Y179259D01*
X388771Y179130D01*
X388771Y176254D01*
X387588Y173398D01*
X385402Y171212D01*
X382546Y170029D01*
X379454Y170029D01*
X376598Y171212D01*
X374412Y173398D01*
X373229Y176254D01*
X373229Y179346D01*
X374412Y182202D01*
X376598Y184388D01*
X379454Y185571D01*
X382330Y185571D01*
X382493Y185585D01*
X382658Y185592D01*
X382717Y185605D01*
X382778Y185611D01*
X382937Y185654D01*
X383097Y185690D01*
X383154Y185713D01*
X383213Y185729D01*
X383361Y185800D01*
X383513Y185863D01*
X383564Y185896D01*
X383619Y185923D01*
X383753Y186018D01*
X383891Y186108D01*
X383949Y186159D01*
X383985Y186185D01*
X384028Y186228D01*
X384125Y186314D01*
X414546Y216735D01*
X414651Y216861D01*
X414763Y216982D01*
X414795Y217033D01*
X414834Y217080D01*
X414916Y217223D01*
X415004Y217362D01*
X415028Y217418D01*
X415058Y217471D01*
X415113Y217626D01*
X415175Y217778D01*
X415188Y217838D01*
X415209Y217895D01*
X415235Y218058D01*
X415270Y218218D01*
X415275Y218295D01*
X415282Y218340D01*
X415281Y218401D01*
X415289Y218530D01*
X415289Y220222D01*
X415275Y220386D01*
X415268Y220551D01*
X415255Y220610D01*
X415249Y220671D01*
X415206Y220830D01*
X415170Y220990D01*
X415147Y221046D01*
X415131Y221105D01*
X415060Y221254D01*
X414997Y221406D01*
X414964Y221457D01*
X414937Y221512D01*
X414842Y221646D01*
X414752Y221784D01*
X414701Y221842D01*
X414675Y221878D01*
X414632Y221921D01*
X414546Y222018D01*
X411225Y225338D01*
X411225Y230034D01*
X411211Y230197D01*
X411204Y230362D01*
X411191Y230421D01*
X411185Y230482D01*
X411142Y230641D01*
X411106Y230801D01*
X411083Y230858D01*
X411067Y230917D01*
X410996Y231065D01*
X410933Y231217D01*
X410900Y231268D01*
X410873Y231323D01*
X410778Y231457D01*
X410688Y231595D01*
X410637Y231653D01*
X410611Y231689D01*
X410568Y231732D01*
X410482Y231829D01*
X405565Y236746D01*
X405439Y236851D01*
X405318Y236963D01*
X405267Y236995D01*
X405220Y237034D01*
X405077Y237116D01*
X404938Y237204D01*
X404882Y237228D01*
X404829Y237258D01*
X404674Y237313D01*
X404522Y237375D01*
X404462Y237388D01*
X404405Y237409D01*
X404242Y237435D01*
X404082Y237470D01*
X404005Y237475D01*
X403960Y237482D01*
X403899Y237481D01*
X403770Y237489D01*
X269330Y237489D01*
X269167Y237475D01*
X269002Y237468D01*
X268943Y237455D01*
X268882Y237449D01*
X268723Y237406D01*
X268563Y237370D01*
X268506Y237347D01*
X268447Y237331D01*
X268299Y237260D01*
X268147Y237197D01*
X268096Y237164D01*
X268041Y237137D01*
X267907Y237042D01*
X267769Y236952D01*
X267711Y236901D01*
X267675Y236875D01*
X267632Y236832D01*
X267535Y236746D01*
X245854Y215065D01*
X245766Y214959D01*
X245711Y214903D01*
X245699Y214885D01*
X245637Y214818D01*
X245605Y214767D01*
X245566Y214720D01*
X245484Y214577D01*
X245396Y214438D01*
X245372Y214382D01*
X245342Y214329D01*
X245287Y214174D01*
X245225Y214022D01*
X245212Y213962D01*
X245191Y213905D01*
X245165Y213742D01*
X245130Y213582D01*
X245125Y213505D01*
X245118Y213460D01*
X245119Y213399D01*
X245111Y213270D01*
X245111Y189742D01*
X244531Y188341D01*
X243101Y186912D01*
X219488Y163299D01*
X219488Y163298D01*
X218059Y161869D01*
X216658Y161289D01*
X100703Y161289D01*
X100492Y161270D01*
X100281Y161254D01*
X100268Y161251D01*
X100255Y161249D01*
X100050Y161193D01*
X99845Y161140D01*
X99833Y161134D01*
X99821Y161131D01*
X99630Y161040D01*
X99437Y160951D01*
X99426Y160943D01*
X99414Y160937D01*
X99243Y160815D01*
X99068Y160692D01*
X99058Y160683D01*
X99048Y160675D01*
X98900Y160523D01*
X98751Y160373D01*
X98743Y160362D01*
X98734Y160353D01*
X98615Y160176D01*
X98495Y160003D01*
X98488Y159988D01*
X98482Y159980D01*
X98466Y159943D01*
X98357Y159722D01*
X98052Y158985D01*
X95015Y155948D01*
X91047Y154304D01*
X86753Y154304D01*
X82785Y155948D01*
X79748Y158985D01*
X78104Y162953D01*
X78104Y167247D01*
X79748Y171215D01*
X82785Y174252D01*
X86753Y175896D01*
X91047Y175896D01*
X95015Y174252D01*
X98052Y171215D01*
X98357Y170478D01*
X98455Y170291D01*
X98552Y170101D01*
X98560Y170091D01*
X98566Y170079D01*
X98696Y169911D01*
X98824Y169743D01*
X98834Y169734D01*
X98842Y169723D01*
X98999Y169581D01*
X99155Y169437D01*
X99166Y169430D01*
X99176Y169422D01*
X99356Y169309D01*
X99535Y169196D01*
X99547Y169191D01*
X99558Y169184D01*
X99755Y169105D01*
X99951Y169025D01*
X99964Y169022D01*
X99977Y169017D01*
X100183Y168975D01*
X100392Y168930D01*
X100407Y168929D01*
X100418Y168927D01*
X100457Y168926D01*
X100703Y168911D01*
X213270Y168911D01*
X213433Y168925D01*
X213598Y168932D01*
X213657Y168945D01*
X213718Y168951D01*
X213877Y168994D01*
X214037Y169030D01*
X214094Y169053D01*
X214153Y169069D01*
X214301Y169140D01*
X214453Y169203D01*
X214504Y169236D01*
X214559Y169263D01*
X214693Y169358D01*
X214831Y169448D01*
X214889Y169499D01*
X214925Y169525D01*
X214968Y169568D01*
X215065Y169654D01*
X236746Y191335D01*
X236851Y191461D01*
X236963Y191582D01*
X236995Y191633D01*
X237034Y191680D01*
X237116Y191823D01*
X237204Y191962D01*
X237228Y192018D01*
X237258Y192071D01*
X237313Y192226D01*
X237375Y192378D01*
X237388Y192438D01*
X237409Y192495D01*
X237435Y192658D01*
X237470Y192818D01*
X237475Y192895D01*
X237482Y192940D01*
X237481Y193001D01*
X237489Y193130D01*
X237489Y216658D01*
X238069Y218059D01*
X239498Y219487D01*
X239499Y219488D01*
X263112Y243101D01*
X263112Y243102D01*
X264541Y244531D01*
X265942Y245111D01*
X283722Y245111D01*
X283852Y245122D01*
X283982Y245124D01*
X284076Y245142D01*
X284171Y245151D01*
X284297Y245185D01*
X284424Y245210D01*
X284513Y245244D01*
X284605Y245269D01*
X284723Y245325D01*
X284844Y245372D01*
X284926Y245422D01*
X285012Y245463D01*
X285118Y245538D01*
X285229Y245606D01*
X285300Y245669D01*
X285378Y245725D01*
X285469Y245818D01*
X285566Y245904D01*
X285625Y245979D01*
X285692Y246047D01*
X285765Y246155D01*
X285846Y246257D01*
X285891Y246341D01*
X285944Y246420D01*
X285997Y246539D01*
X286058Y246654D01*
X286088Y246745D01*
X286126Y246832D01*
X286157Y246959D01*
X286197Y247082D01*
X286210Y247177D01*
X286233Y247270D01*
X286241Y247399D01*
X286259Y247528D01*
X286255Y247624D01*
X286261Y247719D01*
X286246Y247848D01*
X286240Y247978D01*
X286220Y248071D01*
X286209Y248166D01*
X286171Y248291D01*
X286143Y248418D01*
X286106Y248506D01*
X286078Y248597D01*
X286019Y248713D01*
X285969Y248833D01*
X285917Y248913D01*
X285874Y248999D01*
X285795Y249102D01*
X285725Y249211D01*
X285639Y249309D01*
X285602Y249357D01*
X285569Y249388D01*
X285518Y249446D01*
X284225Y250738D01*
X284225Y257262D01*
X285518Y258554D01*
X285601Y258654D01*
X285692Y258747D01*
X285746Y258827D01*
X285807Y258900D01*
X285871Y259013D01*
X285944Y259120D01*
X285983Y259208D01*
X286030Y259291D01*
X286074Y259413D01*
X286126Y259532D01*
X286149Y259625D01*
X286181Y259715D01*
X286202Y259843D01*
X286233Y259970D01*
X286239Y260065D01*
X286255Y260159D01*
X286253Y260289D01*
X286261Y260419D01*
X286250Y260514D01*
X286248Y260610D01*
X286224Y260737D01*
X286209Y260866D01*
X286181Y260958D01*
X286163Y261052D01*
X286116Y261173D01*
X286078Y261297D01*
X286035Y261383D01*
X286001Y261472D01*
X285933Y261583D01*
X285874Y261699D01*
X285816Y261775D01*
X285767Y261856D01*
X285681Y261954D01*
X285602Y262057D01*
X285532Y262122D01*
X285468Y262194D01*
X285367Y262274D01*
X285271Y262363D01*
X285190Y262414D01*
X285115Y262473D01*
X285001Y262535D01*
X284891Y262604D01*
X284803Y262641D01*
X284719Y262686D01*
X284595Y262726D01*
X284475Y262775D01*
X284381Y262795D01*
X284290Y262825D01*
X284162Y262843D01*
X284034Y262870D01*
X283905Y262878D01*
X283844Y262886D01*
X283799Y262885D01*
X283722Y262889D01*
X269330Y262889D01*
X269167Y262875D01*
X269002Y262868D01*
X268943Y262855D01*
X268882Y262849D01*
X268723Y262806D01*
X268563Y262770D01*
X268506Y262747D01*
X268447Y262731D01*
X268299Y262660D01*
X268147Y262597D01*
X268096Y262564D01*
X268041Y262537D01*
X267907Y262442D01*
X267769Y262352D01*
X267711Y262301D01*
X267675Y262275D01*
X267632Y262232D01*
X267535Y262146D01*
X233154Y227765D01*
X233067Y227660D01*
X233008Y227600D01*
X232994Y227580D01*
X232937Y227518D01*
X232905Y227467D01*
X232866Y227420D01*
X232784Y227277D01*
X232696Y227138D01*
X232672Y227082D01*
X232642Y227029D01*
X232587Y226874D01*
X232525Y226722D01*
X232512Y226662D01*
X232491Y226605D01*
X232465Y226442D01*
X232430Y226282D01*
X232425Y226205D01*
X232418Y226160D01*
X232419Y226099D01*
X232411Y225970D01*
X232411Y215142D01*
X231831Y213741D01*
X230401Y212312D01*
X211818Y193729D01*
X211713Y193603D01*
X211601Y193482D01*
X211569Y193431D01*
X211530Y193384D01*
X211448Y193241D01*
X211360Y193102D01*
X211336Y193046D01*
X211306Y192993D01*
X211251Y192838D01*
X211189Y192686D01*
X211176Y192626D01*
X211155Y192569D01*
X211129Y192406D01*
X211094Y192246D01*
X211089Y192169D01*
X211082Y192124D01*
X211083Y192063D01*
X211075Y191934D01*
X211075Y187238D01*
X206462Y182625D01*
X199938Y182625D01*
X195325Y187238D01*
X195325Y193762D01*
X199938Y198375D01*
X204634Y198375D01*
X204797Y198389D01*
X204962Y198396D01*
X205021Y198409D01*
X205082Y198415D01*
X205241Y198458D01*
X205401Y198494D01*
X205458Y198517D01*
X205517Y198533D01*
X205665Y198604D01*
X205817Y198667D01*
X205868Y198700D01*
X205923Y198727D01*
X206057Y198822D01*
X206195Y198912D01*
X206253Y198963D01*
X206289Y198989D01*
X206332Y199032D01*
X206429Y199118D01*
X224046Y216735D01*
X224151Y216861D01*
X224263Y216982D01*
X224295Y217033D01*
X224334Y217080D01*
X224416Y217223D01*
X224504Y217362D01*
X224528Y217418D01*
X224558Y217471D01*
X224613Y217626D01*
X224675Y217778D01*
X224688Y217838D01*
X224709Y217895D01*
X224735Y218058D01*
X224770Y218218D01*
X224775Y218295D01*
X224782Y218340D01*
X224781Y218401D01*
X224789Y218530D01*
X224789Y229358D01*
X225369Y230759D01*
X264541Y269931D01*
X265942Y270511D01*
X347222Y270511D01*
X347352Y270522D01*
X347482Y270524D01*
X347576Y270542D01*
X347671Y270551D01*
X347797Y270585D01*
X347924Y270610D01*
X348013Y270644D01*
X348105Y270669D01*
X348223Y270725D01*
X348344Y270772D01*
X348426Y270822D01*
X348512Y270863D01*
X348618Y270938D01*
X348729Y271006D01*
X348800Y271069D01*
X348878Y271125D01*
X348969Y271218D01*
X349066Y271304D01*
X349125Y271379D01*
X349192Y271447D01*
X349265Y271555D01*
X349346Y271657D01*
X349391Y271741D01*
X349444Y271820D01*
X349497Y271939D01*
X349558Y272054D01*
X349588Y272145D01*
X349626Y272232D01*
X349657Y272359D01*
X349697Y272482D01*
X349710Y272577D01*
X349733Y272670D01*
X349741Y272799D01*
X349759Y272928D01*
X349755Y273024D01*
X349761Y273119D01*
X349746Y273248D01*
X349740Y273378D01*
X349720Y273471D01*
X349709Y273566D01*
X349671Y273691D01*
X349643Y273818D01*
X349606Y273906D01*
X349578Y273997D01*
X349519Y274113D01*
X349469Y274233D01*
X349417Y274313D01*
X349374Y274399D01*
X349295Y274502D01*
X349225Y274611D01*
X349139Y274709D01*
X349102Y274757D01*
X349069Y274788D01*
X349018Y274846D01*
X347725Y276138D01*
X347725Y282662D01*
X352338Y287275D01*
X358862Y287275D01*
X363475Y282662D01*
X363475Y276138D01*
X362182Y274846D01*
X362099Y274746D01*
X362008Y274653D01*
X361954Y274573D01*
X361893Y274500D01*
X361829Y274387D01*
X361756Y274280D01*
X361717Y274192D01*
X361670Y274109D01*
X361626Y273987D01*
X361574Y273868D01*
X361551Y273775D01*
X361519Y273685D01*
X361498Y273557D01*
X361467Y273430D01*
X361461Y273335D01*
X361445Y273241D01*
X361447Y273111D01*
X361439Y272981D01*
X361450Y272886D01*
X361452Y272790D01*
X361476Y272663D01*
X361491Y272534D01*
X361519Y272442D01*
X361537Y272348D01*
X361584Y272227D01*
X361622Y272103D01*
X361665Y272017D01*
X361699Y271928D01*
X361767Y271817D01*
X361826Y271701D01*
X361884Y271625D01*
X361933Y271544D01*
X362019Y271446D01*
X362098Y271343D01*
X362168Y271278D01*
X362232Y271206D01*
X362333Y271126D01*
X362429Y271037D01*
X362510Y270986D01*
X362585Y270927D01*
X362699Y270865D01*
X362809Y270796D01*
X362897Y270759D01*
X362981Y270714D01*
X363105Y270674D01*
X363225Y270625D01*
X363319Y270605D01*
X363410Y270575D01*
X363538Y270557D01*
X363666Y270530D01*
X363795Y270522D01*
X363856Y270514D01*
X363901Y270515D01*
X363978Y270511D01*
X372622Y270511D01*
X372786Y270525D01*
X372951Y270532D01*
X373010Y270545D01*
X373071Y270551D01*
X373230Y270594D01*
X373390Y270630D01*
X373446Y270653D01*
X373505Y270669D01*
X373654Y270740D01*
X373806Y270803D01*
X373857Y270836D01*
X373912Y270863D01*
X374046Y270958D01*
X374184Y271048D01*
X374242Y271099D01*
X374278Y271125D01*
X374321Y271168D01*
X374418Y271254D01*
X377738Y274575D01*
X384262Y274575D01*
X388875Y269962D01*
X388875Y263438D01*
X387582Y262146D01*
X387499Y262046D01*
X387408Y261953D01*
X387354Y261873D01*
X387293Y261800D01*
X387229Y261687D01*
X387156Y261580D01*
X387117Y261492D01*
X387070Y261409D01*
X387026Y261287D01*
X386974Y261168D01*
X386951Y261075D01*
X386919Y260985D01*
X386898Y260857D01*
X386867Y260730D01*
X386861Y260635D01*
X386845Y260541D01*
X386847Y260411D01*
X386839Y260281D01*
X386850Y260186D01*
X386852Y260090D01*
X386876Y259963D01*
X386891Y259834D01*
X386919Y259742D01*
X386937Y259648D01*
X386984Y259527D01*
X387022Y259403D01*
X387065Y259317D01*
X387099Y259228D01*
X387167Y259117D01*
X387226Y259001D01*
X387284Y258925D01*
X387333Y258844D01*
X387419Y258746D01*
X387498Y258643D01*
X387568Y258578D01*
X387632Y258506D01*
X387733Y258426D01*
X387829Y258337D01*
X387910Y258286D01*
X387985Y258227D01*
X388099Y258165D01*
X388209Y258096D01*
X388297Y258059D01*
X388381Y258014D01*
X388505Y257974D01*
X388625Y257925D01*
X388719Y257905D01*
X388810Y257875D01*
X388938Y257857D01*
X389066Y257830D01*
X389195Y257822D01*
X389256Y257814D01*
X389301Y257815D01*
X389378Y257811D01*
X450850Y257811D01*
X450885Y257814D01*
X450919Y257812D01*
X451108Y257834D01*
X451299Y257851D01*
X451332Y257860D01*
X451366Y257864D01*
X451549Y257919D01*
X451733Y257969D01*
X451764Y257984D01*
X451797Y257994D01*
X451968Y258081D01*
X452140Y258163D01*
X452168Y258183D01*
X452199Y258198D01*
X452350Y258314D01*
X452506Y258425D01*
X452530Y258450D01*
X452557Y258470D01*
X452686Y258610D01*
X452820Y258747D01*
X452839Y258776D01*
X452863Y258802D01*
X452965Y258963D01*
X453072Y259120D01*
X453086Y259152D01*
X453104Y259181D01*
X453177Y259358D01*
X453254Y259532D01*
X453262Y259566D01*
X453275Y259598D01*
X453315Y259785D01*
X453361Y259970D01*
X453363Y260004D01*
X453370Y260038D01*
X453389Y260350D01*
X453389Y283722D01*
X453375Y283886D01*
X453368Y284051D01*
X453355Y284110D01*
X453349Y284171D01*
X453306Y284330D01*
X453270Y284490D01*
X453247Y284546D01*
X453231Y284605D01*
X453160Y284754D01*
X453097Y284906D01*
X453064Y284957D01*
X453037Y285012D01*
X452942Y285146D01*
X452852Y285284D01*
X452801Y285342D01*
X452775Y285378D01*
X452732Y285421D01*
X452646Y285518D01*
X449325Y288838D01*
X449325Y295362D01*
X452646Y298682D01*
X452751Y298808D01*
X452863Y298929D01*
X452895Y298981D01*
X452934Y299027D01*
X453016Y299170D01*
X453104Y299309D01*
X453128Y299365D01*
X453158Y299418D01*
X453213Y299573D01*
X453275Y299725D01*
X453288Y299785D01*
X453309Y299843D01*
X453335Y300005D01*
X453370Y300166D01*
X453375Y300243D01*
X453382Y300287D01*
X453381Y300348D01*
X453389Y300478D01*
X453389Y327570D01*
X453386Y327603D01*
X453388Y327636D01*
X453373Y327764D01*
X453368Y327898D01*
X453355Y327957D01*
X453349Y328018D01*
X453340Y328054D01*
X453336Y328083D01*
X453301Y328200D01*
X453270Y328337D01*
X453247Y328394D01*
X453231Y328453D01*
X453214Y328489D01*
X453206Y328514D01*
X453153Y328617D01*
X453097Y328753D01*
X453064Y328804D01*
X453037Y328859D01*
X453012Y328894D01*
X453002Y328916D01*
X452935Y329003D01*
X452852Y329131D01*
X452801Y329189D01*
X452775Y329225D01*
X452742Y329257D01*
X452730Y329274D01*
X452710Y329292D01*
X452646Y329365D01*
X418265Y363746D01*
X418139Y363851D01*
X418018Y363963D01*
X417967Y363995D01*
X417920Y364034D01*
X417777Y364116D01*
X417638Y364204D01*
X417582Y364228D01*
X417529Y364258D01*
X417374Y364313D01*
X417222Y364375D01*
X417162Y364388D01*
X417105Y364409D01*
X416942Y364435D01*
X416782Y364470D01*
X416705Y364475D01*
X416660Y364482D01*
X416599Y364481D01*
X416470Y364489D01*
X363978Y364489D01*
X363848Y364478D01*
X363718Y364476D01*
X363624Y364458D01*
X363529Y364449D01*
X363404Y364415D01*
X363276Y364390D01*
X363187Y364356D01*
X363095Y364331D01*
X362977Y364275D01*
X362856Y364228D01*
X362774Y364178D01*
X362688Y364137D01*
X362583Y364062D01*
X362471Y363994D01*
X362400Y363931D01*
X362322Y363875D01*
X362231Y363782D01*
X362134Y363696D01*
X362075Y363621D01*
X362008Y363553D01*
X361935Y363445D01*
X361854Y363343D01*
X361809Y363259D01*
X361756Y363180D01*
X361703Y363061D01*
X361642Y362946D01*
X361612Y362855D01*
X361574Y362768D01*
X361543Y362641D01*
X361503Y362518D01*
X361490Y362423D01*
X361467Y362330D01*
X361459Y362201D01*
X361441Y362072D01*
X361445Y361976D01*
X361439Y361881D01*
X361454Y361752D01*
X361460Y361622D01*
X361480Y361529D01*
X361491Y361434D01*
X361529Y361309D01*
X361557Y361182D01*
X361594Y361094D01*
X361622Y361003D01*
X361681Y360887D01*
X361731Y360767D01*
X361783Y360686D01*
X361826Y360601D01*
X361904Y360498D01*
X361975Y360389D01*
X362061Y360291D01*
X362098Y360243D01*
X362131Y360212D01*
X362182Y360154D01*
X362308Y360049D01*
X362429Y359937D01*
X362481Y359905D01*
X362527Y359866D01*
X362670Y359784D01*
X362809Y359696D01*
X362865Y359672D01*
X362918Y359642D01*
X363073Y359587D01*
X363225Y359525D01*
X363285Y359512D01*
X363343Y359491D01*
X363505Y359465D01*
X363666Y359430D01*
X363743Y359425D01*
X363787Y359418D01*
X363848Y359419D01*
X363978Y359411D01*
X369058Y359411D01*
X370459Y358831D01*
X377771Y351518D01*
X377897Y351413D01*
X378018Y351301D01*
X378069Y351269D01*
X378116Y351230D01*
X378259Y351148D01*
X378398Y351060D01*
X378454Y351036D01*
X378507Y351006D01*
X378662Y350951D01*
X378814Y350889D01*
X378874Y350876D01*
X378931Y350855D01*
X379094Y350829D01*
X379254Y350794D01*
X379331Y350789D01*
X379376Y350782D01*
X379437Y350783D01*
X379566Y350775D01*
X384262Y350775D01*
X388875Y346162D01*
X388875Y339638D01*
X384262Y335025D01*
X377738Y335025D01*
X373125Y339638D01*
X373125Y344334D01*
X373111Y344497D01*
X373104Y344662D01*
X373091Y344721D01*
X373085Y344782D01*
X373042Y344941D01*
X373006Y345101D01*
X372983Y345158D01*
X372967Y345217D01*
X372896Y345365D01*
X372833Y345517D01*
X372800Y345568D01*
X372773Y345623D01*
X372678Y345757D01*
X372588Y345895D01*
X372537Y345953D01*
X372511Y345989D01*
X372468Y346032D01*
X372382Y346129D01*
X367465Y351046D01*
X367339Y351151D01*
X367218Y351263D01*
X367167Y351295D01*
X367120Y351334D01*
X366977Y351416D01*
X366838Y351504D01*
X366782Y351528D01*
X366729Y351558D01*
X366574Y351613D01*
X366422Y351675D01*
X366362Y351688D01*
X366305Y351709D01*
X366142Y351735D01*
X365982Y351770D01*
X365905Y351775D01*
X365860Y351782D01*
X365799Y351781D01*
X365670Y351789D01*
X363978Y351789D01*
X363814Y351775D01*
X363649Y351768D01*
X363590Y351755D01*
X363529Y351749D01*
X363370Y351706D01*
X363210Y351670D01*
X363154Y351647D01*
X363095Y351631D01*
X362946Y351560D01*
X362794Y351497D01*
X362743Y351464D01*
X362688Y351437D01*
X362554Y351342D01*
X362416Y351252D01*
X362358Y351201D01*
X362322Y351175D01*
X362279Y351132D01*
X362182Y351046D01*
X358862Y347725D01*
X354166Y347725D01*
X354003Y347711D01*
X353838Y347704D01*
X353779Y347691D01*
X353718Y347685D01*
X353559Y347642D01*
X353399Y347606D01*
X353342Y347583D01*
X353283Y347567D01*
X353135Y347496D01*
X352983Y347433D01*
X352932Y347400D01*
X352877Y347373D01*
X352743Y347278D01*
X352605Y347188D01*
X352547Y347137D01*
X352511Y347111D01*
X352468Y347068D01*
X352371Y346982D01*
X326118Y320729D01*
X326013Y320603D01*
X325901Y320482D01*
X325869Y320431D01*
X325830Y320384D01*
X325748Y320241D01*
X325660Y320102D01*
X325636Y320046D01*
X325606Y319993D01*
X325551Y319838D01*
X325489Y319686D01*
X325476Y319626D01*
X325455Y319569D01*
X325429Y319406D01*
X325394Y319246D01*
X325389Y319169D01*
X325382Y319124D01*
X325383Y319063D01*
X325375Y318934D01*
X325375Y315934D01*
X324176Y313039D01*
X321961Y310824D01*
X319066Y309625D01*
X315934Y309625D01*
X313039Y310824D01*
X310824Y313039D01*
X309625Y315934D01*
X309625Y319066D01*
X310824Y321961D01*
X313039Y324176D01*
X315934Y325375D01*
X318934Y325375D01*
X319097Y325389D01*
X319262Y325396D01*
X319321Y325409D01*
X319382Y325415D01*
X319541Y325458D01*
X319701Y325494D01*
X319758Y325517D01*
X319817Y325533D01*
X319965Y325604D01*
X320117Y325667D01*
X320168Y325700D01*
X320223Y325727D01*
X320357Y325822D01*
X320495Y325912D01*
X320553Y325963D01*
X320589Y325989D01*
X320632Y326032D01*
X320729Y326118D01*
X346982Y352371D01*
X347087Y352497D01*
X347199Y352618D01*
X347231Y352669D01*
X347270Y352716D01*
X347352Y352859D01*
X347440Y352998D01*
X347464Y353054D01*
X347494Y353107D01*
X347549Y353262D01*
X347611Y353414D01*
X347624Y353474D01*
X347645Y353531D01*
X347671Y353694D01*
X347706Y353854D01*
X347711Y353931D01*
X347718Y353976D01*
X347717Y354037D01*
X347725Y354166D01*
X347725Y358862D01*
X349018Y360154D01*
X349101Y360254D01*
X349192Y360347D01*
X349246Y360427D01*
X349307Y360500D01*
X349371Y360613D01*
X349444Y360720D01*
X349483Y360808D01*
X349530Y360891D01*
X349574Y361013D01*
X349626Y361132D01*
X349649Y361225D01*
X349681Y361315D01*
X349702Y361443D01*
X349733Y361570D01*
X349739Y361665D01*
X349755Y361759D01*
X349753Y361889D01*
X349761Y362019D01*
X349750Y362114D01*
X349748Y362210D01*
X349724Y362337D01*
X349709Y362466D01*
X349681Y362558D01*
X349663Y362652D01*
X349616Y362773D01*
X349578Y362897D01*
X349535Y362983D01*
X349501Y363072D01*
X349433Y363183D01*
X349374Y363299D01*
X349316Y363375D01*
X349267Y363456D01*
X349181Y363554D01*
X349102Y363657D01*
X349032Y363722D01*
X348968Y363794D01*
X348867Y363874D01*
X348771Y363963D01*
X348690Y364014D01*
X348615Y364073D01*
X348501Y364135D01*
X348391Y364204D01*
X348303Y364241D01*
X348219Y364286D01*
X348095Y364326D01*
X347975Y364375D01*
X347881Y364395D01*
X347790Y364425D01*
X347662Y364443D01*
X347534Y364470D01*
X347405Y364478D01*
X347344Y364486D01*
X347299Y364485D01*
X347222Y364489D01*
X325878Y364489D01*
X325714Y364475D01*
X325549Y364468D01*
X325490Y364455D01*
X325429Y364449D01*
X325270Y364406D01*
X325110Y364370D01*
X325054Y364347D01*
X324995Y364331D01*
X324847Y364260D01*
X324694Y364197D01*
X324643Y364164D01*
X324588Y364137D01*
X324455Y364042D01*
X324316Y363952D01*
X324258Y363901D01*
X324222Y363875D01*
X324180Y363832D01*
X324082Y363746D01*
X321961Y361624D01*
X319066Y360425D01*
X315934Y360425D01*
X313039Y361624D01*
X310824Y363839D01*
X309625Y366734D01*
X309625Y369866D01*
X310824Y372761D01*
X313039Y374976D01*
X315934Y376175D01*
X319066Y376175D01*
X321961Y374976D01*
X324082Y372854D01*
X324208Y372749D01*
X324329Y372637D01*
X324381Y372605D01*
X324427Y372566D01*
X324570Y372484D01*
X324709Y372396D01*
X324766Y372372D01*
X324818Y372342D01*
X324973Y372287D01*
X325126Y372225D01*
X325185Y372212D01*
X325243Y372191D01*
X325405Y372165D01*
X325566Y372130D01*
X325643Y372125D01*
X325687Y372118D01*
X325748Y372119D01*
X325878Y372111D01*
X419858Y372111D01*
X421259Y371531D01*
X422687Y370102D01*
X422688Y370101D01*
X459001Y333788D01*
X459002Y333788D01*
X460431Y332359D01*
X461011Y330958D01*
X461011Y300478D01*
X461025Y300314D01*
X461032Y300149D01*
X461045Y300090D01*
X461051Y300029D01*
X461094Y299870D01*
X461130Y299710D01*
X461153Y299654D01*
X461169Y299595D01*
X461240Y299446D01*
X461303Y299294D01*
X461336Y299243D01*
X461363Y299188D01*
X461458Y299054D01*
X461548Y298916D01*
X461599Y298858D01*
X461625Y298822D01*
X461668Y298779D01*
X461754Y298682D01*
X465075Y295362D01*
X465075Y288838D01*
X461754Y285518D01*
X461649Y285392D01*
X461537Y285271D01*
X461505Y285219D01*
X461466Y285173D01*
X461384Y285030D01*
X461296Y284891D01*
X461272Y284835D01*
X461242Y284782D01*
X461187Y284627D01*
X461125Y284475D01*
X461112Y284415D01*
X461091Y284357D01*
X461065Y284195D01*
X461030Y284034D01*
X461025Y283957D01*
X461018Y283913D01*
X461019Y283852D01*
X461011Y283722D01*
X461011Y260350D01*
X461014Y260315D01*
X461012Y260281D01*
X461034Y260092D01*
X461051Y259901D01*
X461060Y259868D01*
X461064Y259834D01*
X461119Y259651D01*
X461169Y259467D01*
X461184Y259436D01*
X461194Y259403D01*
X461281Y259232D01*
X461363Y259060D01*
X461383Y259032D01*
X461398Y259001D01*
X461514Y258849D01*
X461625Y258694D01*
X461650Y258670D01*
X461670Y258643D01*
X461810Y258514D01*
X461947Y258380D01*
X461976Y258361D01*
X462002Y258337D01*
X462163Y258235D01*
X462320Y258128D01*
X462352Y258114D01*
X462381Y258096D01*
X462558Y258023D01*
X462732Y257946D01*
X462766Y257938D01*
X462798Y257925D01*
X462985Y257885D01*
X463170Y257839D01*
X463204Y257837D01*
X463238Y257830D01*
X463550Y257811D01*
X470658Y257811D01*
X472059Y257231D01*
X497101Y232188D01*
X497102Y232188D01*
X498531Y230759D01*
X499111Y229358D01*
X499111Y133858D01*
X499114Y133823D01*
X499112Y133789D01*
X499134Y133600D01*
X499151Y133409D01*
X499160Y133376D01*
X499164Y133342D01*
X499219Y133159D01*
X499269Y132975D01*
X499284Y132944D01*
X499294Y132911D01*
X499381Y132740D01*
X499463Y132568D01*
X499483Y132540D01*
X499498Y132509D01*
X499614Y132357D01*
X499725Y132202D01*
X499750Y132178D01*
X499770Y132151D01*
X499910Y132022D01*
X500047Y131888D01*
X500076Y131869D01*
X500102Y131845D01*
X500263Y131743D01*
X500420Y131636D01*
X500452Y131622D01*
X500481Y131604D01*
X500658Y131531D01*
X500832Y131454D01*
X500866Y131446D01*
X500898Y131433D01*
X501085Y131393D01*
X501270Y131347D01*
X501304Y131345D01*
X501338Y131338D01*
X501650Y131319D01*
X502349Y131319D01*
X512554Y121114D01*
X512654Y121030D01*
X512747Y120939D01*
X512827Y120886D01*
X512900Y120825D01*
X513013Y120760D01*
X513120Y120687D01*
X513208Y120649D01*
X513291Y120601D01*
X513413Y120558D01*
X513532Y120505D01*
X513625Y120483D01*
X513715Y120451D01*
X513843Y120429D01*
X513970Y120399D01*
X514065Y120393D01*
X514159Y120377D01*
X514289Y120379D01*
X514419Y120371D01*
X514514Y120382D01*
X514610Y120383D01*
X514737Y120408D01*
X514866Y120423D01*
X514958Y120451D01*
X515052Y120469D01*
X515173Y120516D01*
X515297Y120553D01*
X515382Y120597D01*
X515472Y120631D01*
X515583Y120699D01*
X515699Y120758D01*
X515775Y120815D01*
X515856Y120865D01*
X515954Y120951D01*
X516057Y121030D01*
X516122Y121100D01*
X516194Y121163D01*
X516274Y121265D01*
X516363Y121361D01*
X516414Y121441D01*
X516473Y121516D01*
X516534Y121631D01*
X516604Y121740D01*
X516641Y121829D01*
X516686Y121913D01*
X516726Y122037D01*
X516775Y122157D01*
X516795Y122251D01*
X516825Y122341D01*
X516843Y122470D01*
X516870Y122597D01*
X516878Y122727D01*
X516886Y122787D01*
X516885Y122832D01*
X516889Y122909D01*
X516889Y273050D01*
X516886Y273085D01*
X516888Y273119D01*
X516866Y273308D01*
X516849Y273499D01*
X516840Y273532D01*
X516836Y273566D01*
X516781Y273749D01*
X516731Y273933D01*
X516716Y273964D01*
X516706Y273997D01*
X516619Y274168D01*
X516537Y274340D01*
X516517Y274368D01*
X516502Y274399D01*
X516386Y274551D01*
X516275Y274706D01*
X516250Y274730D01*
X516230Y274757D01*
X516090Y274886D01*
X515953Y275020D01*
X515924Y275039D01*
X515898Y275063D01*
X515737Y275165D01*
X515580Y275272D01*
X515548Y275286D01*
X515519Y275304D01*
X515342Y275377D01*
X515168Y275454D01*
X515134Y275462D01*
X515102Y275475D01*
X514915Y275515D01*
X514730Y275561D01*
X514696Y275563D01*
X514662Y275570D01*
X514350Y275589D01*
X490978Y275589D01*
X490814Y275575D01*
X490649Y275568D01*
X490590Y275555D01*
X490529Y275549D01*
X490370Y275506D01*
X490210Y275470D01*
X490154Y275447D01*
X490095Y275431D01*
X489947Y275360D01*
X489794Y275297D01*
X489743Y275264D01*
X489688Y275237D01*
X489555Y275142D01*
X489416Y275052D01*
X489358Y275001D01*
X489322Y274975D01*
X489280Y274932D01*
X489182Y274846D01*
X485862Y271525D01*
X479338Y271525D01*
X474725Y276138D01*
X474725Y282662D01*
X479338Y287275D01*
X485862Y287275D01*
X489182Y283954D01*
X489308Y283849D01*
X489429Y283737D01*
X489481Y283705D01*
X489527Y283666D01*
X489670Y283584D01*
X489809Y283496D01*
X489866Y283472D01*
X489918Y283442D01*
X490073Y283387D01*
X490226Y283325D01*
X490285Y283312D01*
X490343Y283291D01*
X490505Y283265D01*
X490666Y283230D01*
X490743Y283225D01*
X490787Y283218D01*
X490848Y283219D01*
X490978Y283211D01*
X514350Y283211D01*
X514385Y283214D01*
X514419Y283212D01*
X514608Y283234D01*
X514799Y283251D01*
X514832Y283260D01*
X514866Y283264D01*
X515049Y283319D01*
X515233Y283369D01*
X515264Y283384D01*
X515297Y283394D01*
X515468Y283481D01*
X515640Y283563D01*
X515668Y283583D01*
X515699Y283598D01*
X515850Y283714D01*
X516006Y283825D01*
X516030Y283850D01*
X516057Y283870D01*
X516186Y284010D01*
X516320Y284147D01*
X516339Y284176D01*
X516363Y284202D01*
X516465Y284363D01*
X516572Y284520D01*
X516586Y284552D01*
X516604Y284581D01*
X516677Y284758D01*
X516754Y284932D01*
X516762Y284966D01*
X516775Y284998D01*
X516815Y285185D01*
X516861Y285370D01*
X516863Y285404D01*
X516870Y285438D01*
X516889Y285750D01*
X516889Y506640D01*
X516875Y506803D01*
X516868Y506968D01*
X516855Y507027D01*
X516849Y507088D01*
X516806Y507247D01*
X516770Y507407D01*
X516747Y507464D01*
X516731Y507523D01*
X516660Y507671D01*
X516597Y507823D01*
X516564Y507874D01*
X516537Y507929D01*
X516442Y508063D01*
X516352Y508201D01*
X516301Y508259D01*
X516275Y508295D01*
X516232Y508338D01*
X516146Y508435D01*
X505768Y518813D01*
X505741Y518836D01*
X505718Y518861D01*
X505569Y518979D01*
X505422Y519102D01*
X505392Y519119D01*
X505365Y519141D01*
X505197Y519231D01*
X505031Y519325D01*
X504999Y519337D01*
X504968Y519353D01*
X504787Y519412D01*
X504607Y519476D01*
X504573Y519482D01*
X504540Y519493D01*
X504351Y519519D01*
X504163Y519550D01*
X504128Y519549D01*
X504094Y519554D01*
X503903Y519546D01*
X503713Y519544D01*
X503679Y519537D01*
X503644Y519536D01*
X503458Y519494D01*
X503271Y519458D01*
X503238Y519446D01*
X503204Y519438D01*
X503028Y519365D01*
X502851Y519296D01*
X502821Y519278D01*
X502789Y519264D01*
X502629Y519161D01*
X502466Y519062D01*
X502440Y519039D01*
X502411Y519020D01*
X502177Y518813D01*
X501606Y518243D01*
X501290Y518112D01*
X501217Y518074D01*
X501140Y518044D01*
X501018Y517970D01*
X500891Y517903D01*
X500826Y517853D01*
X500755Y517810D01*
X500648Y517715D01*
X500535Y517628D01*
X500480Y517566D01*
X500418Y517512D01*
X500329Y517400D01*
X500233Y517293D01*
X500190Y517223D01*
X500139Y517159D01*
X500071Y517033D01*
X499995Y516911D01*
X499965Y516835D01*
X499926Y516762D01*
X499882Y516626D01*
X499829Y516493D01*
X499812Y516412D01*
X499787Y516334D01*
X499767Y516192D01*
X499739Y516052D01*
X499737Y515969D01*
X499725Y515888D01*
X499731Y515745D01*
X499728Y515602D01*
X499740Y515520D01*
X499744Y515438D01*
X499775Y515298D01*
X499797Y515157D01*
X499823Y515079D01*
X499841Y514998D01*
X499896Y514866D01*
X499943Y514731D01*
X499983Y514659D01*
X500015Y514583D01*
X500093Y514463D01*
X500162Y514337D01*
X500215Y514274D01*
X500259Y514204D01*
X500422Y514020D01*
X500448Y513989D01*
X500456Y513982D01*
X500466Y513970D01*
X503175Y511262D01*
X503175Y504738D01*
X498562Y500125D01*
X492038Y500125D01*
X488718Y503446D01*
X488592Y503551D01*
X488471Y503663D01*
X488419Y503695D01*
X488373Y503734D01*
X488230Y503816D01*
X488091Y503904D01*
X488034Y503928D01*
X487982Y503958D01*
X487827Y504013D01*
X487674Y504075D01*
X487615Y504088D01*
X487557Y504109D01*
X487395Y504135D01*
X487234Y504170D01*
X487157Y504175D01*
X487113Y504182D01*
X487052Y504181D01*
X486922Y504189D01*
X478278Y504189D01*
X478114Y504175D01*
X477949Y504168D01*
X477890Y504155D01*
X477829Y504149D01*
X477670Y504106D01*
X477510Y504070D01*
X477454Y504047D01*
X477395Y504031D01*
X477247Y503960D01*
X477094Y503897D01*
X477043Y503864D01*
X476988Y503837D01*
X476855Y503742D01*
X476716Y503652D01*
X476658Y503601D01*
X476622Y503575D01*
X476580Y503532D01*
X476482Y503446D01*
X473162Y500125D01*
X466638Y500125D01*
X463318Y503446D01*
X463192Y503551D01*
X463071Y503663D01*
X463019Y503695D01*
X462973Y503734D01*
X462830Y503816D01*
X462691Y503904D01*
X462634Y503928D01*
X462582Y503958D01*
X462427Y504013D01*
X462274Y504075D01*
X462215Y504088D01*
X462157Y504109D01*
X461995Y504135D01*
X461834Y504170D01*
X461757Y504175D01*
X461713Y504182D01*
X461652Y504181D01*
X461522Y504189D01*
X427478Y504189D01*
X427390Y504181D01*
X427302Y504183D01*
X427166Y504162D01*
X427029Y504149D01*
X426944Y504126D01*
X426858Y504112D01*
X426728Y504067D01*
X426595Y504031D01*
X426515Y503993D01*
X426433Y503964D01*
X426312Y503897D01*
X426188Y503837D01*
X426117Y503786D01*
X426040Y503743D01*
X425934Y503656D01*
X425822Y503575D01*
X425761Y503512D01*
X425693Y503457D01*
X425604Y503351D01*
X425508Y503253D01*
X425459Y503180D01*
X425402Y503113D01*
X425333Y502994D01*
X425256Y502880D01*
X425220Y502799D01*
X425176Y502723D01*
X425129Y502594D01*
X425074Y502468D01*
X425053Y502382D01*
X425023Y502300D01*
X425000Y502164D01*
X424967Y502030D01*
X424962Y501943D01*
X424947Y501856D01*
X424948Y501719D01*
X424939Y501581D01*
X424949Y501494D01*
X424950Y501406D01*
X424975Y501271D01*
X424991Y501134D01*
X425017Y501050D01*
X425033Y500963D01*
X425082Y500835D01*
X425122Y500703D01*
X425162Y500624D01*
X425193Y500542D01*
X425263Y500424D01*
X425326Y500301D01*
X425379Y500232D01*
X425424Y500156D01*
X425515Y500052D01*
X425598Y499943D01*
X425662Y499883D01*
X425720Y499817D01*
X425828Y499731D01*
X425929Y499638D01*
X426003Y499590D01*
X426072Y499536D01*
X426268Y499421D01*
X426309Y499396D01*
X426323Y499390D01*
X426342Y499379D01*
X426535Y499303D01*
X426726Y499225D01*
X426744Y499221D01*
X426761Y499214D01*
X426963Y499174D01*
X427166Y499130D01*
X427188Y499129D01*
X427203Y499126D01*
X427251Y499125D01*
X427478Y499111D01*
X432558Y499111D01*
X433959Y498531D01*
X473131Y459359D01*
X473711Y457958D01*
X473711Y440178D01*
X473725Y440014D01*
X473732Y439849D01*
X473745Y439790D01*
X473751Y439729D01*
X473794Y439570D01*
X473830Y439410D01*
X473853Y439354D01*
X473869Y439295D01*
X473940Y439147D01*
X474003Y438994D01*
X474036Y438943D01*
X474063Y438888D01*
X474158Y438755D01*
X474248Y438616D01*
X474299Y438558D01*
X474325Y438522D01*
X474368Y438480D01*
X474454Y438382D01*
X477775Y435062D01*
X477775Y428538D01*
X473162Y423925D01*
X466638Y423925D01*
X462025Y428538D01*
X462025Y435062D01*
X465346Y438382D01*
X465451Y438508D01*
X465563Y438629D01*
X465595Y438681D01*
X465634Y438727D01*
X465716Y438870D01*
X465804Y439009D01*
X465828Y439066D01*
X465858Y439118D01*
X465913Y439273D01*
X465975Y439426D01*
X465988Y439485D01*
X466009Y439543D01*
X466035Y439705D01*
X466070Y439866D01*
X466075Y439943D01*
X466082Y439987D01*
X466081Y440048D01*
X466089Y440178D01*
X466089Y454570D01*
X466088Y454588D01*
X466088Y454599D01*
X466081Y454658D01*
X466075Y454733D01*
X466068Y454898D01*
X466055Y454957D01*
X466049Y455018D01*
X466006Y455177D01*
X465970Y455337D01*
X465947Y455394D01*
X465931Y455453D01*
X465860Y455601D01*
X465797Y455753D01*
X465764Y455804D01*
X465737Y455859D01*
X465642Y455993D01*
X465552Y456131D01*
X465501Y456189D01*
X465475Y456225D01*
X465432Y456268D01*
X465346Y456365D01*
X430965Y490746D01*
X430839Y490851D01*
X430718Y490963D01*
X430667Y490995D01*
X430620Y491034D01*
X430477Y491116D01*
X430338Y491204D01*
X430282Y491228D01*
X430229Y491258D01*
X430074Y491313D01*
X429922Y491375D01*
X429862Y491388D01*
X429805Y491409D01*
X429642Y491435D01*
X429482Y491470D01*
X429405Y491475D01*
X429360Y491482D01*
X429299Y491481D01*
X429170Y491489D01*
X427478Y491489D01*
X427314Y491475D01*
X427149Y491468D01*
X427090Y491455D01*
X427029Y491449D01*
X426870Y491406D01*
X426710Y491370D01*
X426654Y491347D01*
X426595Y491331D01*
X426447Y491260D01*
X426294Y491197D01*
X426243Y491164D01*
X426188Y491137D01*
X426055Y491042D01*
X425916Y490952D01*
X425858Y490901D01*
X425822Y490875D01*
X425780Y490832D01*
X425682Y490746D01*
X422362Y487425D01*
X415838Y487425D01*
X412518Y490746D01*
X412392Y490851D01*
X412271Y490963D01*
X412219Y490995D01*
X412173Y491034D01*
X412030Y491116D01*
X411891Y491204D01*
X411834Y491228D01*
X411782Y491258D01*
X411627Y491313D01*
X411474Y491375D01*
X411415Y491388D01*
X411357Y491409D01*
X411195Y491435D01*
X411034Y491470D01*
X410957Y491475D01*
X410913Y491482D01*
X410852Y491481D01*
X410722Y491489D01*
X383630Y491489D01*
X383467Y491475D01*
X383302Y491468D01*
X383243Y491455D01*
X383182Y491449D01*
X383023Y491406D01*
X382863Y491370D01*
X382806Y491347D01*
X382747Y491331D01*
X382599Y491260D01*
X382447Y491197D01*
X382396Y491164D01*
X382341Y491137D01*
X382207Y491042D01*
X382069Y490952D01*
X382011Y490901D01*
X381975Y490875D01*
X381932Y490832D01*
X381835Y490746D01*
X370459Y479369D01*
X369058Y478789D01*
X351278Y478789D01*
X351190Y478781D01*
X351102Y478783D01*
X350966Y478762D01*
X350829Y478749D01*
X350744Y478726D01*
X350658Y478712D01*
X350528Y478667D01*
X350395Y478631D01*
X350315Y478593D01*
X350233Y478564D01*
X350112Y478497D01*
X349988Y478437D01*
X349917Y478386D01*
X349840Y478343D01*
X349734Y478256D01*
X349622Y478175D01*
X349561Y478112D01*
X349493Y478057D01*
X349404Y477951D01*
X349308Y477853D01*
X349259Y477780D01*
X349202Y477713D01*
X349133Y477594D01*
X349056Y477480D01*
X349020Y477399D01*
X348976Y477323D01*
X348929Y477194D01*
X348874Y477068D01*
X348853Y476982D01*
X348823Y476900D01*
X348800Y476764D01*
X348767Y476630D01*
X348762Y476543D01*
X348747Y476456D01*
X348748Y476319D01*
X348739Y476181D01*
X348749Y476094D01*
X348750Y476006D01*
X348775Y475871D01*
X348791Y475734D01*
X348817Y475650D01*
X348833Y475563D01*
X348882Y475435D01*
X348922Y475303D01*
X348962Y475224D01*
X348993Y475142D01*
X349063Y475024D01*
X349126Y474901D01*
X349179Y474832D01*
X349224Y474756D01*
X349315Y474652D01*
X349398Y474543D01*
X349462Y474483D01*
X349520Y474417D01*
X349628Y474331D01*
X349729Y474238D01*
X349803Y474190D01*
X349872Y474136D01*
X350068Y474021D01*
X350109Y473996D01*
X350123Y473990D01*
X350142Y473979D01*
X350335Y473903D01*
X350526Y473825D01*
X350544Y473821D01*
X350561Y473814D01*
X350763Y473774D01*
X350966Y473730D01*
X350988Y473729D01*
X351003Y473726D01*
X351051Y473725D01*
X351278Y473711D01*
X369058Y473711D01*
X370459Y473131D01*
X394535Y449054D01*
X394661Y448949D01*
X394782Y448837D01*
X394833Y448805D01*
X394880Y448766D01*
X395023Y448684D01*
X395162Y448596D01*
X395218Y448572D01*
X395271Y448542D01*
X395426Y448487D01*
X395578Y448425D01*
X395638Y448412D01*
X395695Y448391D01*
X395858Y448365D01*
X396018Y448330D01*
X396095Y448325D01*
X396140Y448318D01*
X396201Y448319D01*
X396330Y448311D01*
X410722Y448311D01*
X410886Y448325D01*
X411051Y448332D01*
X411110Y448345D01*
X411171Y448351D01*
X411330Y448394D01*
X411490Y448430D01*
X411546Y448453D01*
X411605Y448469D01*
X411753Y448540D01*
X411906Y448603D01*
X411957Y448636D01*
X412012Y448663D01*
X412145Y448758D01*
X412284Y448848D01*
X412342Y448899D01*
X412378Y448925D01*
X412420Y448968D01*
X412518Y449054D01*
X415838Y452375D01*
X422362Y452375D01*
X426975Y447762D01*
X426975Y441238D01*
X422362Y436625D01*
X415838Y436625D01*
X412518Y439946D01*
X412392Y440051D01*
X412271Y440163D01*
X412219Y440195D01*
X412173Y440234D01*
X412030Y440316D01*
X411891Y440404D01*
X411834Y440428D01*
X411782Y440458D01*
X411627Y440513D01*
X411474Y440575D01*
X411415Y440588D01*
X411357Y440609D01*
X411195Y440635D01*
X411034Y440670D01*
X410957Y440675D01*
X410913Y440682D01*
X410852Y440681D01*
X410722Y440689D01*
X392942Y440689D01*
X391541Y441269D01*
X367465Y465346D01*
X367339Y465451D01*
X367218Y465563D01*
X367167Y465595D01*
X367120Y465634D01*
X366977Y465716D01*
X366838Y465804D01*
X366782Y465828D01*
X366729Y465858D01*
X366574Y465913D01*
X366422Y465975D01*
X366362Y465988D01*
X366305Y466009D01*
X366142Y466035D01*
X365982Y466070D01*
X365905Y466075D01*
X365860Y466082D01*
X365799Y466081D01*
X365670Y466089D01*
X351278Y466089D01*
X351114Y466075D01*
X350949Y466068D01*
X350890Y466055D01*
X350829Y466049D01*
X350670Y466006D01*
X350510Y465970D01*
X350454Y465947D01*
X350395Y465931D01*
X350247Y465860D01*
X350094Y465797D01*
X350043Y465764D01*
X349988Y465737D01*
X349855Y465642D01*
X349716Y465552D01*
X349658Y465501D01*
X349622Y465475D01*
X349580Y465432D01*
X349482Y465346D01*
X346162Y462025D01*
X339638Y462025D01*
X336318Y465346D01*
X336192Y465451D01*
X336071Y465563D01*
X336019Y465595D01*
X335973Y465634D01*
X335830Y465716D01*
X335691Y465804D01*
X335634Y465828D01*
X335582Y465858D01*
X335427Y465913D01*
X335274Y465975D01*
X335215Y465988D01*
X335157Y466009D01*
X334995Y466035D01*
X334834Y466070D01*
X334757Y466075D01*
X334713Y466082D01*
X334652Y466081D01*
X334522Y466089D01*
X332830Y466089D01*
X332667Y466075D01*
X332502Y466068D01*
X332443Y466055D01*
X332382Y466049D01*
X332223Y466006D01*
X332063Y465970D01*
X332006Y465947D01*
X331947Y465931D01*
X331799Y465860D01*
X331647Y465797D01*
X331596Y465764D01*
X331541Y465737D01*
X331407Y465642D01*
X331269Y465552D01*
X331211Y465501D01*
X331175Y465475D01*
X331132Y465432D01*
X331035Y465346D01*
X283954Y418265D01*
X283849Y418139D01*
X283737Y418018D01*
X283705Y417967D01*
X283666Y417920D01*
X283584Y417777D01*
X283496Y417638D01*
X283472Y417582D01*
X283442Y417529D01*
X283387Y417374D01*
X283325Y417222D01*
X283312Y417162D01*
X283291Y417105D01*
X283265Y416942D01*
X283230Y416782D01*
X283225Y416705D01*
X283218Y416660D01*
X283219Y416599D01*
X283211Y416470D01*
X283211Y354842D01*
X282631Y353441D01*
X281201Y352012D01*
X249918Y320729D01*
X249813Y320603D01*
X249701Y320482D01*
X249669Y320431D01*
X249630Y320384D01*
X249548Y320241D01*
X249460Y320102D01*
X249436Y320046D01*
X249406Y319993D01*
X249351Y319838D01*
X249289Y319686D01*
X249276Y319626D01*
X249255Y319569D01*
X249229Y319406D01*
X249194Y319246D01*
X249189Y319169D01*
X249182Y319124D01*
X249183Y319063D01*
X249175Y318934D01*
X249175Y315934D01*
X247976Y313039D01*
X247882Y312946D01*
X247799Y312846D01*
X247708Y312753D01*
X247654Y312673D01*
X247593Y312600D01*
X247529Y312487D01*
X247456Y312380D01*
X247417Y312292D01*
X247370Y312209D01*
X247326Y312087D01*
X247274Y311968D01*
X247251Y311875D01*
X247219Y311785D01*
X247198Y311657D01*
X247167Y311530D01*
X247161Y311435D01*
X247145Y311341D01*
X247147Y311211D01*
X247139Y311081D01*
X247150Y310986D01*
X247152Y310891D01*
X247176Y310763D01*
X247191Y310634D01*
X247219Y310542D01*
X247237Y310448D01*
X247284Y310327D01*
X247322Y310203D01*
X247365Y310117D01*
X247399Y310028D01*
X247467Y309917D01*
X247526Y309801D01*
X247584Y309725D01*
X247633Y309644D01*
X247719Y309546D01*
X247798Y309443D01*
X247868Y309378D01*
X247931Y309306D01*
X248033Y309226D01*
X248129Y309137D01*
X248210Y309086D01*
X248285Y309027D01*
X248399Y308965D01*
X248509Y308896D01*
X248597Y308859D01*
X248681Y308814D01*
X248805Y308774D01*
X248925Y308725D01*
X249019Y308705D01*
X249110Y308675D01*
X249238Y308657D01*
X249366Y308630D01*
X249496Y308622D01*
X249556Y308614D01*
X249600Y308615D01*
X249678Y308611D01*
X305558Y308611D01*
X306959Y308031D01*
X308388Y306601D01*
X314271Y300718D01*
X314397Y300613D01*
X314518Y300501D01*
X314569Y300469D01*
X314616Y300430D01*
X314759Y300348D01*
X314898Y300260D01*
X314954Y300236D01*
X315007Y300206D01*
X315162Y300151D01*
X315314Y300089D01*
X315374Y300076D01*
X315431Y300055D01*
X315593Y300029D01*
X315754Y299994D01*
X315832Y299989D01*
X315876Y299982D01*
X315936Y299983D01*
X316066Y299975D01*
X319066Y299975D01*
X321961Y298776D01*
X324176Y296561D01*
X325375Y293666D01*
X325375Y290534D01*
X324176Y287639D01*
X321961Y285424D01*
X319066Y284225D01*
X315934Y284225D01*
X313039Y285424D01*
X310824Y287639D01*
X309625Y290534D01*
X309625Y293534D01*
X309611Y293697D01*
X309604Y293862D01*
X309591Y293921D01*
X309585Y293982D01*
X309542Y294141D01*
X309506Y294301D01*
X309483Y294358D01*
X309467Y294417D01*
X309396Y294565D01*
X309333Y294717D01*
X309300Y294768D01*
X309273Y294823D01*
X309178Y294957D01*
X309088Y295095D01*
X309037Y295153D01*
X309011Y295189D01*
X308968Y295232D01*
X308882Y295329D01*
X303965Y300246D01*
X303839Y300351D01*
X303718Y300463D01*
X303667Y300495D01*
X303620Y300534D01*
X303477Y300616D01*
X303338Y300704D01*
X303282Y300728D01*
X303229Y300758D01*
X303074Y300813D01*
X302922Y300875D01*
X302862Y300888D01*
X302805Y300909D01*
X302642Y300935D01*
X302482Y300970D01*
X302405Y300975D01*
X302360Y300982D01*
X302299Y300981D01*
X302170Y300989D01*
X249678Y300989D01*
X249548Y300978D01*
X249418Y300976D01*
X249324Y300958D01*
X249229Y300949D01*
X249103Y300915D01*
X248976Y300890D01*
X248887Y300856D01*
X248795Y300831D01*
X248677Y300775D01*
X248556Y300728D01*
X248474Y300678D01*
X248388Y300637D01*
X248283Y300562D01*
X248171Y300494D01*
X248100Y300431D01*
X248022Y300375D01*
X247931Y300282D01*
X247834Y300196D01*
X247775Y300121D01*
X247708Y300053D01*
X247635Y299945D01*
X247554Y299843D01*
X247509Y299759D01*
X247456Y299680D01*
X247403Y299561D01*
X247342Y299446D01*
X247312Y299355D01*
X247274Y299268D01*
X247243Y299141D01*
X247203Y299018D01*
X247190Y298923D01*
X247167Y298830D01*
X247159Y298701D01*
X247141Y298572D01*
X247145Y298476D01*
X247139Y298381D01*
X247154Y298252D01*
X247160Y298122D01*
X247180Y298029D01*
X247191Y297934D01*
X247229Y297809D01*
X247257Y297682D01*
X247294Y297594D01*
X247322Y297503D01*
X247381Y297387D01*
X247431Y297267D01*
X247483Y297187D01*
X247526Y297101D01*
X247605Y296998D01*
X247675Y296889D01*
X247761Y296791D01*
X247798Y296743D01*
X247831Y296712D01*
X247882Y296654D01*
X247976Y296561D01*
X249175Y293666D01*
X249175Y290534D01*
X247976Y287639D01*
X245761Y285424D01*
X242866Y284225D01*
X239734Y284225D01*
X236839Y285424D01*
X234718Y287546D01*
X234592Y287651D01*
X234471Y287763D01*
X234419Y287795D01*
X234373Y287834D01*
X234230Y287916D01*
X234091Y288004D01*
X234034Y288028D01*
X233982Y288058D01*
X233827Y288113D01*
X233674Y288175D01*
X233615Y288188D01*
X233557Y288209D01*
X233395Y288235D01*
X233234Y288270D01*
X233157Y288275D01*
X233113Y288282D01*
X233052Y288281D01*
X232922Y288289D01*
X192782Y288289D01*
X192652Y288278D01*
X192522Y288276D01*
X192428Y288258D01*
X192333Y288249D01*
X192207Y288215D01*
X192080Y288190D01*
X191991Y288156D01*
X191899Y288131D01*
X191781Y288075D01*
X191660Y288028D01*
X191578Y287978D01*
X191492Y287937D01*
X191387Y287862D01*
X191275Y287794D01*
X191204Y287731D01*
X191126Y287675D01*
X191035Y287582D01*
X190938Y287496D01*
X190879Y287421D01*
X190812Y287353D01*
X190739Y287245D01*
X190658Y287143D01*
X190613Y287059D01*
X190560Y286980D01*
X190507Y286861D01*
X190446Y286746D01*
X190416Y286655D01*
X190378Y286568D01*
X190347Y286441D01*
X190307Y286318D01*
X190294Y286223D01*
X190271Y286130D01*
X190263Y286001D01*
X190245Y285872D01*
X190249Y285776D01*
X190243Y285681D01*
X190258Y285552D01*
X190264Y285422D01*
X190284Y285329D01*
X190295Y285234D01*
X190333Y285109D01*
X190361Y284982D01*
X190398Y284894D01*
X190426Y284803D01*
X190485Y284687D01*
X190535Y284567D01*
X190587Y284487D01*
X190630Y284401D01*
X190709Y284298D01*
X190779Y284189D01*
X190865Y284091D01*
X190902Y284043D01*
X190935Y284012D01*
X190986Y283954D01*
X191080Y283861D01*
X192279Y280966D01*
X192279Y277834D01*
X191071Y274919D01*
X190994Y274821D01*
X190872Y274675D01*
X190854Y274645D01*
X190833Y274617D01*
X190743Y274449D01*
X190648Y274284D01*
X190637Y274251D01*
X190620Y274220D01*
X190561Y274039D01*
X190497Y273859D01*
X190492Y273825D01*
X190481Y273792D01*
X190455Y273603D01*
X190424Y273415D01*
X190424Y273381D01*
X190420Y273346D01*
X190427Y273155D01*
X190430Y272965D01*
X190437Y272931D01*
X190438Y272896D01*
X190479Y272710D01*
X190515Y272523D01*
X190528Y272491D01*
X190535Y272457D01*
X190609Y272281D01*
X190678Y272103D01*
X190696Y272073D01*
X190709Y272041D01*
X190813Y271881D01*
X190912Y271718D01*
X190935Y271692D01*
X190953Y271663D01*
X191160Y271429D01*
X192301Y270288D01*
X193731Y268859D01*
X194311Y267458D01*
X194311Y224278D01*
X194325Y224114D01*
X194332Y223949D01*
X194345Y223890D01*
X194351Y223829D01*
X194394Y223670D01*
X194430Y223510D01*
X194453Y223454D01*
X194469Y223395D01*
X194540Y223246D01*
X194603Y223094D01*
X194636Y223043D01*
X194663Y222988D01*
X194758Y222854D01*
X194848Y222716D01*
X194899Y222658D01*
X194925Y222622D01*
X194968Y222579D01*
X195054Y222482D01*
X198375Y219162D01*
X198375Y212638D01*
X193762Y208025D01*
X187238Y208025D01*
X183918Y211346D01*
X183792Y211451D01*
X183671Y211563D01*
X183619Y211595D01*
X183573Y211634D01*
X183430Y211716D01*
X183291Y211804D01*
X183235Y211828D01*
X183182Y211858D01*
X183027Y211913D01*
X182875Y211975D01*
X182815Y211988D01*
X182757Y212009D01*
X182595Y212035D01*
X182434Y212070D01*
X182357Y212075D01*
X182313Y212082D01*
X182252Y212081D01*
X182122Y212089D01*
X176903Y212089D01*
X176692Y212070D01*
X176481Y212054D01*
X176468Y212051D01*
X176455Y212049D01*
X176250Y211993D01*
X176045Y211940D01*
X176033Y211934D01*
X176021Y211931D01*
X175830Y211840D01*
X175637Y211751D01*
X175626Y211743D01*
X175614Y211737D01*
X175443Y211615D01*
X175268Y211492D01*
X175258Y211483D01*
X175248Y211475D01*
X175100Y211323D01*
X174951Y211173D01*
X174943Y211162D01*
X174934Y211153D01*
X174815Y210976D01*
X174695Y210803D01*
X174688Y210788D01*
X174682Y210780D01*
X174666Y210743D01*
X174557Y210522D01*
X174252Y209785D01*
X171215Y206748D01*
X167247Y205104D01*
X162953Y205104D01*
X158985Y206748D01*
X155948Y209785D01*
X154304Y213753D01*
X154304Y218047D01*
X155948Y222015D01*
X158985Y225052D01*
X162953Y226696D01*
X167247Y226696D01*
X171215Y225052D01*
X174252Y222015D01*
X174557Y221278D01*
X174655Y221091D01*
X174752Y220901D01*
X174760Y220891D01*
X174766Y220879D01*
X174896Y220711D01*
X175024Y220543D01*
X175034Y220534D01*
X175042Y220523D01*
X175199Y220381D01*
X175355Y220237D01*
X175366Y220230D01*
X175376Y220222D01*
X175556Y220109D01*
X175735Y219996D01*
X175747Y219991D01*
X175758Y219984D01*
X175955Y219905D01*
X176151Y219825D01*
X176164Y219822D01*
X176177Y219817D01*
X176383Y219775D01*
X176592Y219730D01*
X176607Y219729D01*
X176618Y219727D01*
X176657Y219726D01*
X176903Y219711D01*
X182122Y219711D01*
X182286Y219725D01*
X182451Y219732D01*
X182510Y219745D01*
X182571Y219751D01*
X182730Y219794D01*
X182890Y219830D01*
X182946Y219853D01*
X183005Y219869D01*
X183153Y219940D01*
X183306Y220003D01*
X183357Y220036D01*
X183412Y220063D01*
X183545Y220158D01*
X183684Y220248D01*
X183742Y220299D01*
X183778Y220325D01*
X183821Y220368D01*
X183918Y220454D01*
X185946Y222482D01*
X186051Y222608D01*
X186163Y222729D01*
X186195Y222781D01*
X186234Y222827D01*
X186316Y222970D01*
X186404Y223109D01*
X186428Y223165D01*
X186458Y223218D01*
X186513Y223373D01*
X186575Y223525D01*
X186588Y223585D01*
X186609Y223643D01*
X186635Y223805D01*
X186670Y223966D01*
X186675Y224043D01*
X186682Y224087D01*
X186681Y224148D01*
X186689Y224278D01*
X186689Y264070D01*
X186675Y264233D01*
X186668Y264398D01*
X186655Y264457D01*
X186649Y264518D01*
X186606Y264677D01*
X186570Y264837D01*
X186547Y264894D01*
X186531Y264953D01*
X186460Y265101D01*
X186397Y265253D01*
X186364Y265304D01*
X186337Y265359D01*
X186290Y265425D01*
X186286Y265434D01*
X186252Y265478D01*
X186242Y265493D01*
X186152Y265631D01*
X186101Y265689D01*
X186075Y265725D01*
X186036Y265764D01*
X186014Y265793D01*
X185991Y265814D01*
X185946Y265865D01*
X181029Y270782D01*
X180903Y270887D01*
X180782Y270999D01*
X180731Y271031D01*
X180684Y271070D01*
X180541Y271152D01*
X180402Y271240D01*
X180346Y271264D01*
X180293Y271294D01*
X180138Y271349D01*
X179986Y271411D01*
X179926Y271424D01*
X179869Y271445D01*
X179706Y271471D01*
X179546Y271506D01*
X179469Y271511D01*
X179424Y271518D01*
X179363Y271517D01*
X179234Y271525D01*
X169630Y271525D01*
X166735Y272724D01*
X164520Y274939D01*
X163321Y277834D01*
X163321Y278802D01*
X163310Y278931D01*
X163308Y279061D01*
X163290Y279155D01*
X163281Y279250D01*
X163247Y279376D01*
X163222Y279503D01*
X163188Y279593D01*
X163163Y279685D01*
X163107Y279802D01*
X163060Y279923D01*
X163010Y280005D01*
X162969Y280091D01*
X162894Y280197D01*
X162826Y280308D01*
X162763Y280380D01*
X162707Y280457D01*
X162614Y280548D01*
X162528Y280645D01*
X162453Y280705D01*
X162385Y280771D01*
X162277Y280844D01*
X162175Y280925D01*
X162091Y280970D01*
X162012Y281024D01*
X161893Y281076D01*
X161778Y281138D01*
X161687Y281167D01*
X161600Y281206D01*
X161473Y281237D01*
X161350Y281277D01*
X161255Y281290D01*
X161162Y281312D01*
X161033Y281320D01*
X160904Y281338D01*
X160808Y281334D01*
X160713Y281340D01*
X160584Y281325D01*
X160454Y281320D01*
X160361Y281299D01*
X160266Y281288D01*
X160141Y281250D01*
X160014Y281222D01*
X159926Y281185D01*
X159835Y281158D01*
X159719Y281099D01*
X159599Y281049D01*
X159518Y280997D01*
X159433Y280953D01*
X159330Y280875D01*
X159221Y280804D01*
X159123Y280718D01*
X159075Y280681D01*
X159044Y280649D01*
X158986Y280597D01*
X130588Y252199D01*
X129159Y250769D01*
X128840Y250637D01*
X128693Y250561D01*
X128544Y250492D01*
X128495Y250457D01*
X128441Y250429D01*
X128310Y250328D01*
X128176Y250234D01*
X128133Y250190D01*
X128085Y250153D01*
X127974Y250031D01*
X127858Y249914D01*
X127824Y249864D01*
X127783Y249819D01*
X127696Y249679D01*
X127643Y249603D01*
X125365Y247324D01*
X122470Y246125D01*
X120650Y246125D01*
X120615Y246122D01*
X120581Y246124D01*
X120392Y246102D01*
X120201Y246085D01*
X120168Y246076D01*
X120134Y246072D01*
X119951Y246017D01*
X119767Y245967D01*
X119736Y245952D01*
X119703Y245942D01*
X119532Y245855D01*
X119360Y245773D01*
X119332Y245753D01*
X119301Y245738D01*
X119149Y245622D01*
X118994Y245511D01*
X118970Y245486D01*
X118943Y245466D01*
X118814Y245326D01*
X118680Y245189D01*
X118661Y245160D01*
X118637Y245134D01*
X118535Y244973D01*
X118428Y244816D01*
X118414Y244784D01*
X118396Y244755D01*
X118323Y244578D01*
X118246Y244404D01*
X118238Y244370D01*
X118225Y244338D01*
X118185Y244151D01*
X118139Y243966D01*
X118137Y243932D01*
X118130Y243898D01*
X118111Y243586D01*
X118111Y228409D01*
X118125Y228245D01*
X118132Y228080D01*
X118145Y228021D01*
X118151Y227960D01*
X118194Y227801D01*
X118230Y227641D01*
X118253Y227584D01*
X118269Y227526D01*
X118340Y227378D01*
X118403Y227225D01*
X118436Y227174D01*
X118463Y227119D01*
X118558Y226986D01*
X118648Y226847D01*
X118699Y226789D01*
X118725Y226753D01*
X118768Y226710D01*
X118854Y226613D01*
X125096Y220372D01*
X125096Y211428D01*
X118772Y205104D01*
X109945Y205104D01*
X109782Y205090D01*
X109617Y205083D01*
X109558Y205070D01*
X109497Y205064D01*
X109338Y205021D01*
X109178Y204985D01*
X109121Y204962D01*
X109062Y204946D01*
X108914Y204875D01*
X108762Y204812D01*
X108711Y204779D01*
X108656Y204752D01*
X108522Y204657D01*
X108384Y204567D01*
X108326Y204516D01*
X108290Y204490D01*
X108247Y204447D01*
X108150Y204361D01*
X91059Y187269D01*
X89658Y186689D01*
X53430Y186689D01*
X53267Y186675D01*
X53102Y186668D01*
X53043Y186655D01*
X52982Y186649D01*
X52823Y186606D01*
X52663Y186570D01*
X52606Y186547D01*
X52547Y186531D01*
X52399Y186460D01*
X52247Y186397D01*
X52196Y186364D01*
X52141Y186337D01*
X52007Y186242D01*
X51869Y186152D01*
X51811Y186101D01*
X51775Y186075D01*
X51732Y186032D01*
X51635Y185946D01*
X43874Y178185D01*
X43852Y178158D01*
X43826Y178135D01*
X43708Y177986D01*
X43585Y177839D01*
X43568Y177809D01*
X43546Y177782D01*
X43456Y177614D01*
X43362Y177448D01*
X43350Y177416D01*
X43334Y177385D01*
X43275Y177204D01*
X43211Y177024D01*
X43205Y176990D01*
X43194Y176957D01*
X43168Y176769D01*
X43137Y176580D01*
X43138Y176545D01*
X43133Y176511D01*
X43141Y176320D01*
X43143Y176130D01*
X43150Y176096D01*
X43151Y176061D01*
X43193Y175875D01*
X43229Y175688D01*
X43241Y175655D01*
X43249Y175621D01*
X43322Y175446D01*
X43391Y175268D01*
X43409Y175238D01*
X43423Y175206D01*
X43526Y175046D01*
X43625Y174883D01*
X43648Y174857D01*
X43667Y174828D01*
X43874Y174594D01*
X48896Y169572D01*
X48896Y160628D01*
X42654Y154387D01*
X42549Y154261D01*
X42437Y154140D01*
X42405Y154088D01*
X42366Y154042D01*
X42284Y153899D01*
X42196Y153760D01*
X42172Y153704D01*
X42142Y153651D01*
X42087Y153496D01*
X42025Y153344D01*
X42012Y153284D01*
X41991Y153226D01*
X41965Y153064D01*
X41930Y152903D01*
X41925Y152826D01*
X41918Y152782D01*
X41919Y152721D01*
X41911Y152591D01*
X41911Y104230D01*
X41925Y104067D01*
X41932Y103902D01*
X41945Y103843D01*
X41951Y103782D01*
X41994Y103623D01*
X42030Y103463D01*
X42053Y103406D01*
X42069Y103347D01*
X42140Y103199D01*
X42203Y103047D01*
X42236Y102996D01*
X42263Y102941D01*
X42358Y102807D01*
X42448Y102669D01*
X42499Y102611D01*
X42525Y102575D01*
X42568Y102532D01*
X42654Y102435D01*
X66731Y78359D01*
X67311Y76958D01*
X67311Y72128D01*
X67330Y71917D01*
X67346Y71706D01*
X67349Y71693D01*
X67351Y71680D01*
X67407Y71475D01*
X67460Y71270D01*
X67466Y71258D01*
X67469Y71246D01*
X67560Y71055D01*
X67649Y70862D01*
X67657Y70851D01*
X67663Y70839D01*
X67785Y70668D01*
X67908Y70493D01*
X67917Y70483D01*
X67925Y70473D01*
X68077Y70325D01*
X68227Y70176D01*
X68238Y70168D01*
X68247Y70159D01*
X68424Y70040D01*
X68597Y69920D01*
X68612Y69913D01*
X68620Y69907D01*
X68657Y69891D01*
X68878Y69782D01*
X69615Y69477D01*
X72652Y66440D01*
X73854Y63539D01*
X73914Y63423D01*
X73966Y63304D01*
X74018Y63224D01*
X74063Y63140D01*
X74142Y63037D01*
X74214Y62928D01*
X74280Y62859D01*
X74338Y62784D01*
X74435Y62696D01*
X74525Y62602D01*
X74602Y62546D01*
X74673Y62482D01*
X74783Y62413D01*
X74888Y62336D01*
X74974Y62295D01*
X75055Y62244D01*
X75176Y62196D01*
X75292Y62139D01*
X75384Y62113D01*
X75473Y62077D01*
X75601Y62051D01*
X75726Y62016D01*
X75821Y62006D01*
X75914Y61987D01*
X76044Y61984D01*
X76174Y61971D01*
X76269Y61979D01*
X76364Y61977D01*
X76493Y61996D01*
X76623Y62007D01*
X76715Y62031D01*
X76809Y62045D01*
X76932Y62088D01*
X77058Y62121D01*
X77145Y62161D01*
X77235Y62192D01*
X77349Y62255D01*
X77467Y62310D01*
X77545Y62365D01*
X77628Y62411D01*
X77729Y62493D01*
X77836Y62568D01*
X77903Y62636D01*
X77977Y62696D01*
X78061Y62795D01*
X78153Y62887D01*
X78207Y62966D01*
X78269Y63039D01*
X78335Y63151D01*
X78409Y63258D01*
X78466Y63375D01*
X78497Y63427D01*
X78512Y63469D01*
X78546Y63539D01*
X79748Y66440D01*
X82785Y69477D01*
X83522Y69782D01*
X83709Y69880D01*
X83899Y69977D01*
X83909Y69985D01*
X83921Y69991D01*
X84089Y70121D01*
X84257Y70249D01*
X84266Y70259D01*
X84277Y70267D01*
X84419Y70424D01*
X84563Y70580D01*
X84570Y70591D01*
X84578Y70601D01*
X84691Y70781D01*
X84804Y70960D01*
X84809Y70972D01*
X84816Y70983D01*
X84895Y71180D01*
X84975Y71376D01*
X84978Y71389D01*
X84983Y71402D01*
X85025Y71608D01*
X85070Y71817D01*
X85071Y71832D01*
X85073Y71843D01*
X85074Y71882D01*
X85089Y72128D01*
X85089Y76958D01*
X85669Y78359D01*
X150241Y142931D01*
X151642Y143511D01*
X194822Y143511D01*
X194986Y143525D01*
X195151Y143532D01*
X195210Y143545D01*
X195271Y143551D01*
X195430Y143594D01*
X195590Y143630D01*
X195646Y143653D01*
X195705Y143669D01*
X195853Y143740D01*
X196006Y143803D01*
X196057Y143836D01*
X196112Y143863D01*
X196245Y143958D01*
X196384Y144048D01*
X196442Y144099D01*
X196478Y144125D01*
X196520Y144168D01*
X196618Y144254D01*
X199938Y147575D01*
X206462Y147575D01*
X211075Y142962D01*
X211075Y136438D01*
X206462Y131825D01*
X199938Y131825D01*
X196618Y135146D01*
X196492Y135251D01*
X196371Y135363D01*
X196319Y135395D01*
X196273Y135434D01*
X196130Y135516D01*
X195991Y135604D01*
X195934Y135628D01*
X195882Y135658D01*
X195727Y135713D01*
X195574Y135775D01*
X195515Y135788D01*
X195457Y135809D01*
X195295Y135835D01*
X195134Y135870D01*
X195057Y135875D01*
X195013Y135882D01*
X194952Y135881D01*
X194822Y135889D01*
X155030Y135889D01*
X154867Y135875D01*
X154702Y135868D01*
X154643Y135855D01*
X154582Y135849D01*
X154423Y135806D01*
X154263Y135770D01*
X154206Y135747D01*
X154147Y135731D01*
X153999Y135660D01*
X153847Y135597D01*
X153796Y135564D01*
X153741Y135537D01*
X153607Y135442D01*
X153469Y135352D01*
X153411Y135301D01*
X153375Y135275D01*
X153332Y135232D01*
X153235Y135146D01*
X93454Y75365D01*
X93359Y75251D01*
X93353Y75245D01*
X93349Y75239D01*
X93237Y75118D01*
X93205Y75067D01*
X93166Y75020D01*
X93084Y74877D01*
X92996Y74738D01*
X92972Y74682D01*
X92942Y74629D01*
X92887Y74474D01*
X92825Y74322D01*
X92812Y74262D01*
X92791Y74205D01*
X92765Y74042D01*
X92730Y73882D01*
X92725Y73805D01*
X92718Y73760D01*
X92719Y73699D01*
X92711Y73570D01*
X92711Y72128D01*
X92730Y71917D01*
X92746Y71706D01*
X92749Y71693D01*
X92751Y71680D01*
X92807Y71475D01*
X92860Y71270D01*
X92866Y71258D01*
X92869Y71246D01*
X92960Y71055D01*
X93049Y70862D01*
X93057Y70851D01*
X93063Y70839D01*
X93185Y70668D01*
X93308Y70493D01*
X93317Y70483D01*
X93325Y70473D01*
X93477Y70325D01*
X93627Y70176D01*
X93638Y70168D01*
X93647Y70159D01*
X93824Y70040D01*
X93997Y69920D01*
X94012Y69913D01*
X94020Y69907D01*
X94057Y69891D01*
X94278Y69782D01*
X95015Y69477D01*
X98052Y66440D01*
X99254Y63539D01*
X99314Y63423D01*
X99366Y63304D01*
X99418Y63224D01*
X99463Y63140D01*
X99542Y63037D01*
X99614Y62928D01*
X99680Y62859D01*
X99738Y62784D01*
X99835Y62696D01*
X99925Y62602D01*
X100002Y62546D01*
X100073Y62482D01*
X100183Y62413D01*
X100288Y62336D01*
X100374Y62295D01*
X100455Y62244D01*
X100576Y62196D01*
X100692Y62139D01*
X100784Y62113D01*
X100873Y62077D01*
X101001Y62051D01*
X101126Y62016D01*
X101221Y62006D01*
X101314Y61987D01*
X101444Y61984D01*
X101574Y61971D01*
X101669Y61979D01*
X101764Y61977D01*
X101893Y61996D01*
X102023Y62007D01*
X102115Y62031D01*
X102209Y62045D01*
X102332Y62088D01*
X102458Y62121D01*
X102545Y62161D01*
X102635Y62192D01*
X102749Y62255D01*
X102867Y62310D01*
X102945Y62365D01*
X103028Y62411D01*
X103129Y62493D01*
X103236Y62568D01*
X103303Y62636D01*
X103377Y62696D01*
X103461Y62795D01*
X103553Y62887D01*
X103607Y62966D01*
X103669Y63039D01*
X103735Y63151D01*
X103809Y63258D01*
X103866Y63375D01*
X103897Y63427D01*
X103912Y63469D01*
X103946Y63539D01*
X105148Y66440D01*
X108185Y69477D01*
X112153Y71121D01*
X116447Y71121D01*
X120415Y69477D01*
X123452Y66440D01*
X125096Y62472D01*
X125096Y39128D01*
X123452Y35160D01*
X120415Y32123D01*
X116447Y30479D01*
X112153Y30479D01*
X108185Y32123D01*
X105148Y35160D01*
X103946Y38061D01*
X103886Y38176D01*
X103834Y38296D01*
X103782Y38376D01*
X103737Y38460D01*
X103658Y38563D01*
X103586Y38672D01*
X103520Y38741D01*
X103462Y38816D01*
X103365Y38903D01*
X103276Y38998D01*
X103198Y39054D01*
X103127Y39118D01*
X103017Y39187D01*
X102912Y39263D01*
X102826Y39305D01*
X102745Y39356D01*
X102625Y39404D01*
X102508Y39461D01*
X102416Y39487D01*
X102327Y39523D01*
X102200Y39549D01*
X102074Y39584D01*
X101979Y39594D01*
X101886Y39613D01*
X101756Y39616D01*
X101626Y39629D01*
X101531Y39621D01*
X101436Y39623D01*
X101307Y39604D01*
X101177Y39593D01*
X101085Y39569D01*
X100991Y39555D01*
X100868Y39512D01*
X100742Y39479D01*
X100655Y39439D01*
X100565Y39408D01*
X100451Y39345D01*
X100333Y39290D01*
X100255Y39235D01*
X100172Y39189D01*
X100071Y39106D01*
X99964Y39032D01*
X99897Y38964D01*
X99823Y38904D01*
X99739Y38805D01*
X99647Y38713D01*
X99593Y38634D01*
X99531Y38561D01*
X99465Y38449D01*
X99391Y38342D01*
X99334Y38225D01*
X99303Y38173D01*
X99288Y38131D01*
X99254Y38061D01*
X98052Y35160D01*
X95015Y32123D01*
X91047Y30479D01*
X86753Y30479D01*
X82785Y32123D01*
X79748Y35160D01*
X78546Y38061D01*
X78486Y38176D01*
X78434Y38296D01*
X78382Y38376D01*
X78337Y38460D01*
X78258Y38563D01*
X78186Y38672D01*
X78120Y38741D01*
X78062Y38816D01*
X77965Y38903D01*
X77876Y38998D01*
X77798Y39054D01*
X77727Y39118D01*
X77617Y39187D01*
X77512Y39263D01*
X77426Y39305D01*
X77345Y39356D01*
X77225Y39404D01*
X77108Y39461D01*
X77016Y39487D01*
X76927Y39523D01*
X76800Y39549D01*
X76674Y39584D01*
X76579Y39594D01*
X76486Y39613D01*
X76356Y39616D01*
X76226Y39629D01*
X76131Y39621D01*
X76036Y39623D01*
X75907Y39604D01*
X75777Y39593D01*
X75685Y39569D01*
X75591Y39555D01*
X75468Y39512D01*
X75342Y39479D01*
X75255Y39439D01*
X75165Y39408D01*
X75051Y39345D01*
X74933Y39290D01*
X74855Y39235D01*
X74772Y39189D01*
X74671Y39106D01*
X74564Y39032D01*
X74497Y38964D01*
X74423Y38904D01*
X74339Y38805D01*
X74247Y38713D01*
X74193Y38634D01*
X74131Y38561D01*
X74065Y38449D01*
X73991Y38342D01*
X73934Y38225D01*
X73903Y38173D01*
X73888Y38131D01*
X73854Y38061D01*
X72652Y35160D01*
X69615Y32123D01*
X65647Y30479D01*
X61353Y30479D01*
X57385Y32123D01*
X54348Y35160D01*
X52704Y39128D01*
X52704Y62472D01*
X54348Y66440D01*
X57385Y69477D01*
X58122Y69782D01*
X58309Y69880D01*
X58499Y69977D01*
X58509Y69985D01*
X58521Y69991D01*
X58689Y70121D01*
X58857Y70249D01*
X58866Y70259D01*
X58877Y70267D01*
X59019Y70424D01*
X59163Y70580D01*
X59170Y70591D01*
X59178Y70601D01*
X59291Y70781D01*
X59404Y70960D01*
X59409Y70972D01*
X59416Y70983D01*
X59495Y71180D01*
X59575Y71376D01*
X59578Y71389D01*
X59583Y71402D01*
X59625Y71608D01*
X59670Y71817D01*
X59671Y71832D01*
X59673Y71843D01*
X59674Y71882D01*
X59689Y72128D01*
X59689Y73570D01*
X59675Y73733D01*
X59668Y73898D01*
X59655Y73957D01*
X59649Y74018D01*
X59606Y74177D01*
X59570Y74337D01*
X59547Y74394D01*
X59531Y74453D01*
X59460Y74601D01*
X59397Y74753D01*
X59364Y74804D01*
X59337Y74859D01*
X59242Y74993D01*
X59152Y75131D01*
X59101Y75189D01*
X59075Y75225D01*
X59032Y75268D01*
X58946Y75365D01*
X34869Y99441D01*
X34289Y100842D01*
X34289Y152591D01*
X34275Y152755D01*
X34268Y152920D01*
X34255Y152979D01*
X34249Y153040D01*
X34206Y153199D01*
X34170Y153359D01*
X34147Y153416D01*
X34131Y153474D01*
X34060Y153622D01*
X33997Y153775D01*
X33964Y153826D01*
X33937Y153881D01*
X33842Y154014D01*
X33752Y154153D01*
X33701Y154211D01*
X33675Y154247D01*
X33632Y154290D01*
X33546Y154387D01*
X27304Y160628D01*
X27304Y169572D01*
X33546Y175813D01*
X33651Y175939D01*
X33763Y176060D01*
X33795Y176112D01*
X33834Y176158D01*
X33916Y176301D01*
X34004Y176440D01*
X34028Y176496D01*
X34058Y176549D01*
X34113Y176704D01*
X34175Y176856D01*
X34188Y176916D01*
X34209Y176974D01*
X34235Y177136D01*
X34270Y177297D01*
X34275Y177374D01*
X34282Y177418D01*
X34281Y177478D01*
X34289Y177608D01*
X34289Y178558D01*
X34869Y179959D01*
X48641Y193731D01*
X50042Y194311D01*
X86270Y194311D01*
X86433Y194325D01*
X86598Y194332D01*
X86657Y194345D01*
X86718Y194351D01*
X86877Y194394D01*
X87037Y194430D01*
X87094Y194453D01*
X87153Y194469D01*
X87301Y194540D01*
X87453Y194603D01*
X87504Y194636D01*
X87559Y194663D01*
X87693Y194758D01*
X87831Y194848D01*
X87889Y194899D01*
X87925Y194925D01*
X87968Y194968D01*
X88065Y195054D01*
X100765Y207754D01*
X100849Y207854D01*
X100939Y207947D01*
X100993Y208027D01*
X101054Y208100D01*
X101119Y208213D01*
X101192Y208320D01*
X101230Y208408D01*
X101278Y208491D01*
X101321Y208613D01*
X101374Y208732D01*
X101396Y208825D01*
X101428Y208915D01*
X101450Y209044D01*
X101480Y209170D01*
X101486Y209265D01*
X101502Y209359D01*
X101500Y209490D01*
X101508Y209619D01*
X101497Y209714D01*
X101496Y209810D01*
X101471Y209937D01*
X101456Y210066D01*
X101428Y210158D01*
X101410Y210252D01*
X101363Y210373D01*
X101326Y210497D01*
X101282Y210582D01*
X101248Y210672D01*
X101180Y210783D01*
X101121Y210899D01*
X101064Y210975D01*
X101014Y211056D01*
X100928Y211154D01*
X100849Y211257D01*
X100779Y211322D01*
X100716Y211394D01*
X100614Y211474D01*
X100518Y211563D01*
X100438Y211614D01*
X100363Y211673D01*
X100248Y211734D01*
X100138Y211804D01*
X100050Y211841D01*
X99966Y211886D01*
X99842Y211926D01*
X99722Y211975D01*
X99628Y211995D01*
X99538Y212025D01*
X99409Y212043D01*
X99282Y212070D01*
X99152Y212078D01*
X99092Y212086D01*
X99047Y212085D01*
X98970Y212089D01*
X97278Y212089D01*
X97114Y212075D01*
X96949Y212068D01*
X96890Y212055D01*
X96829Y212049D01*
X96670Y212006D01*
X96510Y211970D01*
X96454Y211947D01*
X96395Y211931D01*
X96246Y211860D01*
X96094Y211797D01*
X96043Y211764D01*
X95988Y211737D01*
X95854Y211642D01*
X95716Y211552D01*
X95658Y211501D01*
X95622Y211475D01*
X95579Y211432D01*
X95482Y211346D01*
X92162Y208025D01*
X85638Y208025D01*
X82318Y211346D01*
X82192Y211451D01*
X82071Y211563D01*
X82019Y211595D01*
X81973Y211634D01*
X81830Y211716D01*
X81691Y211804D01*
X81635Y211828D01*
X81582Y211858D01*
X81427Y211913D01*
X81275Y211975D01*
X81215Y211988D01*
X81157Y212009D01*
X80995Y212035D01*
X80834Y212070D01*
X80757Y212075D01*
X80713Y212082D01*
X80652Y212081D01*
X80522Y212089D01*
X37342Y212089D01*
X35941Y212669D01*
X34512Y214099D01*
X14496Y234115D01*
X14396Y234199D01*
X14303Y234289D01*
X14223Y234343D01*
X14150Y234404D01*
X14037Y234469D01*
X13930Y234542D01*
X13842Y234580D01*
X13759Y234628D01*
X13637Y234671D01*
X13518Y234724D01*
X13425Y234746D01*
X13335Y234778D01*
X13206Y234800D01*
X13080Y234830D01*
X12985Y234836D01*
X12891Y234852D01*
X12760Y234850D01*
X12631Y234858D01*
X12536Y234847D01*
X12440Y234846D01*
X12313Y234821D01*
X12184Y234806D01*
X12092Y234778D01*
X11998Y234760D01*
X11877Y234713D01*
X11753Y234676D01*
X11668Y234632D01*
X11578Y234598D01*
X11467Y234530D01*
X11351Y234471D01*
X11275Y234414D01*
X11194Y234364D01*
X11096Y234278D01*
X10993Y234199D01*
X10928Y234129D01*
X10856Y234066D01*
X10776Y233964D01*
X10687Y233868D01*
X10636Y233788D01*
X10577Y233713D01*
X10516Y233598D01*
X10446Y233488D01*
X10409Y233400D01*
X10364Y233316D01*
X10324Y233192D01*
X10275Y233072D01*
X10255Y232978D01*
X10225Y232888D01*
X10207Y232759D01*
X10180Y232632D01*
X10172Y232502D01*
X10164Y232442D01*
X10165Y232397D01*
X10161Y232320D01*
X10161Y226314D01*
X10164Y226279D01*
X10162Y226245D01*
X10184Y226056D01*
X10201Y225865D01*
X10210Y225832D01*
X10214Y225798D01*
X10269Y225615D01*
X10319Y225431D01*
X10334Y225400D01*
X10344Y225367D01*
X10431Y225196D01*
X10513Y225024D01*
X10533Y224996D01*
X10548Y224965D01*
X10664Y224813D01*
X10775Y224658D01*
X10800Y224634D01*
X10820Y224607D01*
X10960Y224478D01*
X11097Y224344D01*
X11126Y224325D01*
X11152Y224301D01*
X11313Y224199D01*
X11470Y224092D01*
X11502Y224078D01*
X11531Y224060D01*
X11708Y223987D01*
X11882Y223910D01*
X11916Y223902D01*
X11948Y223889D01*
X12135Y223849D01*
X12320Y223803D01*
X12354Y223801D01*
X12388Y223794D01*
X12700Y223775D01*
X15962Y223775D01*
X20575Y219162D01*
X20575Y212638D01*
X17254Y209318D01*
X17149Y209192D01*
X17037Y209071D01*
X17005Y209019D01*
X16966Y208973D01*
X16884Y208830D01*
X16796Y208691D01*
X16772Y208634D01*
X16742Y208582D01*
X16687Y208427D01*
X16625Y208274D01*
X16612Y208215D01*
X16591Y208157D01*
X16565Y207995D01*
X16530Y207834D01*
X16525Y207757D01*
X16518Y207713D01*
X16519Y207652D01*
X16511Y207522D01*
X16511Y40730D01*
X16525Y40567D01*
X16532Y40402D01*
X16545Y40343D01*
X16551Y40282D01*
X16594Y40123D01*
X16630Y39963D01*
X16653Y39906D01*
X16669Y39847D01*
X16740Y39699D01*
X16803Y39547D01*
X16836Y39496D01*
X16863Y39441D01*
X16958Y39307D01*
X17048Y39169D01*
X17099Y39111D01*
X17125Y39075D01*
X17168Y39032D01*
X17254Y38935D01*
X38935Y17254D01*
X39061Y17149D01*
X39182Y17037D01*
X39233Y17005D01*
X39280Y16966D01*
X39423Y16884D01*
X39562Y16796D01*
X39618Y16772D01*
X39671Y16742D01*
X39826Y16687D01*
X39978Y16625D01*
X40038Y16612D01*
X40095Y16591D01*
X40258Y16565D01*
X40418Y16530D01*
X40495Y16525D01*
X40540Y16518D01*
X40601Y16519D01*
X40730Y16511D01*
X251370Y16511D01*
X251533Y16525D01*
G37*
G36*
X513778Y10176D02*
X513778Y10176D01*
X513955Y10186D01*
X514002Y10196D01*
X514049Y10201D01*
X514221Y10248D01*
X514394Y10288D01*
X514438Y10307D01*
X514484Y10319D01*
X514644Y10395D01*
X514807Y10466D01*
X514848Y10492D01*
X514890Y10513D01*
X515034Y10616D01*
X515183Y10714D01*
X515218Y10747D01*
X515257Y10775D01*
X515381Y10902D01*
X515509Y11025D01*
X515537Y11063D01*
X515571Y11097D01*
X515670Y11245D01*
X515775Y11388D01*
X515796Y11431D01*
X515823Y11470D01*
X515895Y11633D01*
X515973Y11792D01*
X515986Y11839D01*
X516005Y11882D01*
X516047Y12055D01*
X516096Y12226D01*
X516100Y12273D01*
X516112Y12320D01*
X516122Y12497D01*
X516140Y12674D01*
X516136Y12721D01*
X516139Y12769D01*
X516119Y12945D01*
X516105Y13123D01*
X516093Y13169D01*
X516087Y13216D01*
X516036Y13386D01*
X515991Y13558D01*
X515971Y13602D01*
X515957Y13647D01*
X515876Y13806D01*
X515802Y13967D01*
X515774Y14006D01*
X515753Y14049D01*
X515645Y14190D01*
X515543Y14336D01*
X515509Y14369D01*
X515481Y14407D01*
X515350Y14528D01*
X515224Y14653D01*
X515185Y14680D01*
X515149Y14712D01*
X515000Y14808D01*
X514853Y14909D01*
X514800Y14935D01*
X514770Y14954D01*
X514711Y14978D01*
X514573Y15046D01*
X513953Y15303D01*
X510603Y18653D01*
X508789Y23031D01*
X508789Y27769D01*
X510603Y32147D01*
X513953Y35497D01*
X518331Y37311D01*
X523069Y37311D01*
X527447Y35497D01*
X530797Y32147D01*
X530854Y32010D01*
X530936Y31852D01*
X531013Y31692D01*
X531040Y31654D01*
X531063Y31611D01*
X531171Y31471D01*
X531275Y31326D01*
X531309Y31293D01*
X531338Y31255D01*
X531470Y31136D01*
X531597Y31012D01*
X531637Y30985D01*
X531672Y30953D01*
X531823Y30860D01*
X531970Y30760D01*
X532014Y30741D01*
X532055Y30716D01*
X532220Y30650D01*
X532382Y30578D01*
X532429Y30567D01*
X532473Y30549D01*
X532647Y30513D01*
X532820Y30471D01*
X532867Y30468D01*
X532914Y30459D01*
X533092Y30454D01*
X533269Y30444D01*
X533316Y30449D01*
X533364Y30448D01*
X533540Y30475D01*
X533716Y30496D01*
X533762Y30510D01*
X533809Y30517D01*
X533977Y30574D01*
X534147Y30626D01*
X534190Y30648D01*
X534235Y30663D01*
X534390Y30750D01*
X534549Y30830D01*
X534587Y30859D01*
X534628Y30882D01*
X534766Y30995D01*
X534907Y31102D01*
X534940Y31137D01*
X534977Y31168D01*
X535092Y31303D01*
X535213Y31433D01*
X535238Y31474D01*
X535269Y31510D01*
X535359Y31663D01*
X535454Y31813D01*
X535472Y31857D01*
X535497Y31899D01*
X535558Y32066D01*
X535625Y32230D01*
X535635Y32276D01*
X535652Y32321D01*
X535683Y32496D01*
X535720Y32670D01*
X535724Y32729D01*
X535730Y32765D01*
X535730Y32828D01*
X535739Y32982D01*
X535739Y555500D01*
X535736Y555535D01*
X535738Y555569D01*
X535716Y555758D01*
X535699Y555949D01*
X535690Y555982D01*
X535686Y556016D01*
X535631Y556199D01*
X535581Y556383D01*
X535566Y556414D01*
X535556Y556447D01*
X535469Y556618D01*
X535387Y556790D01*
X535367Y556818D01*
X535352Y556849D01*
X535236Y557001D01*
X535125Y557156D01*
X535100Y557180D01*
X535080Y557207D01*
X534940Y557336D01*
X534803Y557470D01*
X534774Y557489D01*
X534748Y557513D01*
X534587Y557615D01*
X534430Y557722D01*
X534398Y557736D01*
X534369Y557754D01*
X534192Y557827D01*
X534018Y557904D01*
X533984Y557912D01*
X533952Y557925D01*
X533765Y557965D01*
X533580Y558011D01*
X533546Y558013D01*
X533512Y558020D01*
X533200Y558039D01*
X36435Y558039D01*
X36306Y558028D01*
X36176Y558026D01*
X36082Y558008D01*
X35987Y557999D01*
X35861Y557965D01*
X35734Y557940D01*
X35644Y557906D01*
X35552Y557881D01*
X35435Y557825D01*
X35314Y557778D01*
X35232Y557728D01*
X35146Y557687D01*
X35040Y557612D01*
X34929Y557544D01*
X34857Y557481D01*
X34780Y557425D01*
X34689Y557332D01*
X34592Y557246D01*
X34532Y557171D01*
X34466Y557103D01*
X34393Y556995D01*
X34312Y556893D01*
X34267Y556809D01*
X34214Y556730D01*
X34161Y556611D01*
X34100Y556496D01*
X34070Y556405D01*
X34031Y556318D01*
X34001Y556191D01*
X33960Y556068D01*
X33947Y555973D01*
X33925Y555880D01*
X33917Y555751D01*
X33899Y555622D01*
X33903Y555526D01*
X33897Y555431D01*
X33912Y555302D01*
X33917Y555172D01*
X33938Y555079D01*
X33949Y554984D01*
X33987Y554859D01*
X34015Y554732D01*
X34052Y554644D01*
X34079Y554553D01*
X34138Y554437D01*
X34189Y554317D01*
X34240Y554237D01*
X34284Y554151D01*
X34362Y554048D01*
X34433Y553939D01*
X34519Y553841D01*
X34556Y553793D01*
X34589Y553762D01*
X34640Y553704D01*
X35497Y552847D01*
X37311Y548469D01*
X37311Y543731D01*
X35497Y539353D01*
X32147Y536003D01*
X27769Y534189D01*
X23031Y534189D01*
X18653Y536003D01*
X15303Y539353D01*
X15046Y539973D01*
X14964Y540130D01*
X14887Y540290D01*
X14860Y540329D01*
X14837Y540372D01*
X14729Y540512D01*
X14625Y540657D01*
X14591Y540690D01*
X14562Y540728D01*
X14430Y540847D01*
X14303Y540971D01*
X14263Y540997D01*
X14228Y541029D01*
X14077Y541123D01*
X13930Y541223D01*
X13886Y541242D01*
X13845Y541267D01*
X13680Y541333D01*
X13518Y541405D01*
X13471Y541416D01*
X13427Y541434D01*
X13253Y541470D01*
X13080Y541512D01*
X13033Y541515D01*
X12986Y541524D01*
X12808Y541528D01*
X12631Y541539D01*
X12583Y541534D01*
X12536Y541535D01*
X12360Y541508D01*
X12184Y541487D01*
X12138Y541473D01*
X12091Y541466D01*
X11923Y541408D01*
X11753Y541357D01*
X11710Y541335D01*
X11665Y541320D01*
X11510Y541233D01*
X11351Y541153D01*
X11313Y541124D01*
X11272Y541100D01*
X11134Y540988D01*
X10993Y540881D01*
X10960Y540845D01*
X10923Y540815D01*
X10808Y540680D01*
X10687Y540549D01*
X10662Y540509D01*
X10631Y540473D01*
X10541Y540320D01*
X10446Y540170D01*
X10427Y540125D01*
X10403Y540084D01*
X10342Y539917D01*
X10275Y539753D01*
X10265Y539706D01*
X10248Y539661D01*
X10217Y539487D01*
X10180Y539313D01*
X10176Y539254D01*
X10170Y539218D01*
X10170Y539155D01*
X10161Y539001D01*
X10161Y376010D01*
X10172Y375881D01*
X10174Y375751D01*
X10192Y375657D01*
X10201Y375562D01*
X10235Y375436D01*
X10260Y375309D01*
X10294Y375219D01*
X10319Y375127D01*
X10375Y375010D01*
X10422Y374889D01*
X10472Y374807D01*
X10513Y374721D01*
X10588Y374615D01*
X10656Y374504D01*
X10719Y374432D01*
X10775Y374355D01*
X10868Y374264D01*
X10954Y374167D01*
X11029Y374107D01*
X11097Y374041D01*
X11205Y373968D01*
X11307Y373887D01*
X11391Y373842D01*
X11470Y373788D01*
X11589Y373736D01*
X11704Y373674D01*
X11795Y373645D01*
X11882Y373606D01*
X12009Y373575D01*
X12132Y373535D01*
X12227Y373522D01*
X12320Y373500D01*
X12449Y373492D01*
X12578Y373474D01*
X12674Y373478D01*
X12769Y373472D01*
X12898Y373487D01*
X13028Y373492D01*
X13121Y373513D01*
X13216Y373524D01*
X13341Y373562D01*
X13468Y373590D01*
X13556Y373627D01*
X13647Y373654D01*
X13763Y373713D01*
X13883Y373763D01*
X13964Y373815D01*
X14049Y373859D01*
X14152Y373937D01*
X14261Y374008D01*
X14359Y374094D01*
X14407Y374131D01*
X14438Y374163D01*
X14496Y374215D01*
X60216Y419935D01*
X60321Y420061D01*
X60433Y420182D01*
X60465Y420233D01*
X60504Y420280D01*
X60586Y420423D01*
X60674Y420562D01*
X60698Y420618D01*
X60728Y420671D01*
X60783Y420826D01*
X60845Y420978D01*
X60858Y421038D01*
X60879Y421095D01*
X60905Y421258D01*
X60940Y421418D01*
X60945Y421495D01*
X60952Y421540D01*
X60951Y421601D01*
X60959Y421730D01*
X60959Y437392D01*
X60948Y437522D01*
X60946Y437652D01*
X60928Y437746D01*
X60919Y437841D01*
X60885Y437967D01*
X60860Y438094D01*
X60826Y438183D01*
X60801Y438275D01*
X60745Y438393D01*
X60698Y438514D01*
X60648Y438596D01*
X60607Y438682D01*
X60532Y438788D01*
X60464Y438899D01*
X60401Y438970D01*
X60345Y439048D01*
X60252Y439139D01*
X60166Y439236D01*
X60091Y439295D01*
X60023Y439362D01*
X59915Y439435D01*
X59813Y439516D01*
X59729Y439561D01*
X59650Y439614D01*
X59531Y439667D01*
X59416Y439728D01*
X59325Y439758D01*
X59238Y439796D01*
X59111Y439827D01*
X58988Y439867D01*
X58893Y439880D01*
X58800Y439903D01*
X58671Y439911D01*
X58542Y439929D01*
X58446Y439925D01*
X58351Y439931D01*
X58222Y439916D01*
X58092Y439910D01*
X57999Y439890D01*
X57904Y439879D01*
X57779Y439841D01*
X57652Y439813D01*
X57564Y439776D01*
X57473Y439748D01*
X57357Y439689D01*
X57237Y439639D01*
X57157Y439587D01*
X57071Y439544D01*
X56968Y439465D01*
X56859Y439395D01*
X56761Y439309D01*
X56713Y439272D01*
X56682Y439239D01*
X56624Y439188D01*
X54062Y436625D01*
X47538Y436625D01*
X42925Y441238D01*
X42925Y445934D01*
X42911Y446097D01*
X42904Y446262D01*
X42891Y446321D01*
X42885Y446382D01*
X42842Y446541D01*
X42806Y446701D01*
X42783Y446758D01*
X42767Y446817D01*
X42696Y446965D01*
X42633Y447117D01*
X42600Y447168D01*
X42573Y447223D01*
X42478Y447357D01*
X42388Y447495D01*
X42337Y447553D01*
X42311Y447589D01*
X42268Y447632D01*
X42182Y447729D01*
X22169Y467741D01*
X21589Y469142D01*
X21589Y477412D01*
X21587Y477435D01*
X21588Y477452D01*
X21577Y477545D01*
X21570Y477624D01*
X21554Y477835D01*
X21551Y477848D01*
X21549Y477861D01*
X21493Y478066D01*
X21440Y478271D01*
X21434Y478283D01*
X21431Y478295D01*
X21340Y478486D01*
X21251Y478679D01*
X21243Y478690D01*
X21237Y478702D01*
X21114Y478874D01*
X20992Y479048D01*
X20983Y479057D01*
X20975Y479068D01*
X20823Y479217D01*
X20673Y479365D01*
X20662Y479373D01*
X20653Y479382D01*
X20477Y479501D01*
X20303Y479621D01*
X20288Y479628D01*
X20280Y479634D01*
X20244Y479650D01*
X20022Y479758D01*
X19094Y480143D01*
X16593Y482644D01*
X15239Y485912D01*
X15239Y504688D01*
X16593Y507956D01*
X19094Y510457D01*
X22362Y511811D01*
X25898Y511811D01*
X29166Y510457D01*
X31667Y507956D01*
X33021Y504688D01*
X33021Y485912D01*
X31667Y482644D01*
X29954Y480931D01*
X29849Y480805D01*
X29737Y480684D01*
X29705Y480632D01*
X29666Y480586D01*
X29584Y480443D01*
X29496Y480304D01*
X29472Y480248D01*
X29442Y480195D01*
X29387Y480040D01*
X29325Y479888D01*
X29312Y479828D01*
X29291Y479771D01*
X29265Y479608D01*
X29230Y479447D01*
X29225Y479370D01*
X29218Y479326D01*
X29219Y479266D01*
X29211Y479136D01*
X29211Y472530D01*
X29225Y472367D01*
X29232Y472202D01*
X29245Y472143D01*
X29251Y472082D01*
X29294Y471923D01*
X29330Y471763D01*
X29353Y471706D01*
X29369Y471647D01*
X29440Y471499D01*
X29503Y471347D01*
X29536Y471296D01*
X29563Y471241D01*
X29658Y471107D01*
X29748Y470969D01*
X29799Y470911D01*
X29825Y470875D01*
X29868Y470832D01*
X29954Y470735D01*
X47571Y453118D01*
X47697Y453013D01*
X47818Y452901D01*
X47869Y452869D01*
X47916Y452830D01*
X48059Y452748D01*
X48198Y452660D01*
X48254Y452636D01*
X48307Y452606D01*
X48462Y452551D01*
X48614Y452489D01*
X48674Y452476D01*
X48731Y452455D01*
X48894Y452429D01*
X49054Y452394D01*
X49131Y452389D01*
X49176Y452382D01*
X49237Y452383D01*
X49366Y452375D01*
X54062Y452375D01*
X56624Y449812D01*
X56724Y449729D01*
X56817Y449638D01*
X56897Y449584D01*
X56970Y449523D01*
X57083Y449459D01*
X57190Y449386D01*
X57278Y449347D01*
X57361Y449300D01*
X57483Y449256D01*
X57602Y449204D01*
X57695Y449181D01*
X57785Y449149D01*
X57913Y449128D01*
X58040Y449097D01*
X58135Y449091D01*
X58229Y449075D01*
X58359Y449077D01*
X58489Y449069D01*
X58584Y449080D01*
X58680Y449082D01*
X58807Y449106D01*
X58936Y449121D01*
X59028Y449149D01*
X59122Y449167D01*
X59243Y449214D01*
X59367Y449252D01*
X59453Y449295D01*
X59542Y449329D01*
X59653Y449397D01*
X59769Y449456D01*
X59845Y449514D01*
X59926Y449563D01*
X60024Y449649D01*
X60127Y449728D01*
X60192Y449798D01*
X60264Y449862D01*
X60344Y449963D01*
X60433Y450059D01*
X60484Y450140D01*
X60543Y450215D01*
X60604Y450329D01*
X60674Y450439D01*
X60711Y450527D01*
X60756Y450612D01*
X60796Y450735D01*
X60845Y450855D01*
X60865Y450949D01*
X60895Y451040D01*
X60913Y451168D01*
X60940Y451296D01*
X60948Y451425D01*
X60956Y451486D01*
X60955Y451531D01*
X60959Y451608D01*
X60959Y467270D01*
X60958Y467286D01*
X60958Y467295D01*
X60953Y467342D01*
X60945Y467433D01*
X60938Y467598D01*
X60925Y467657D01*
X60919Y467718D01*
X60876Y467877D01*
X60840Y468037D01*
X60817Y468094D01*
X60801Y468153D01*
X60730Y468301D01*
X60667Y468453D01*
X60634Y468504D01*
X60607Y468559D01*
X60512Y468693D01*
X60422Y468831D01*
X60371Y468889D01*
X60345Y468925D01*
X60302Y468968D01*
X60216Y469065D01*
X50983Y478298D01*
X50893Y478373D01*
X50811Y478455D01*
X50721Y478517D01*
X50638Y478587D01*
X50536Y478645D01*
X50440Y478711D01*
X50302Y478779D01*
X50247Y478810D01*
X50213Y478822D01*
X50159Y478848D01*
X47034Y480143D01*
X44533Y482644D01*
X43179Y485912D01*
X43179Y504688D01*
X44533Y507956D01*
X47034Y510457D01*
X50302Y511811D01*
X53838Y511811D01*
X57106Y510457D01*
X59607Y507956D01*
X60961Y504688D01*
X60961Y485912D01*
X59615Y482661D01*
X59551Y482458D01*
X59486Y482258D01*
X59484Y482245D01*
X59480Y482232D01*
X59453Y482021D01*
X59424Y481811D01*
X59425Y481798D01*
X59423Y481785D01*
X59434Y481574D01*
X59443Y481362D01*
X59445Y481349D01*
X59446Y481335D01*
X59494Y481130D01*
X59540Y480922D01*
X59545Y480910D01*
X59548Y480897D01*
X59632Y480701D01*
X59714Y480507D01*
X59721Y480496D01*
X59726Y480483D01*
X59844Y480304D01*
X59958Y480128D01*
X59968Y480117D01*
X59974Y480108D01*
X60002Y480079D01*
X60165Y479894D01*
X66571Y473488D01*
X68001Y472059D01*
X68581Y470658D01*
X68581Y418342D01*
X68001Y416941D01*
X17254Y366195D01*
X17149Y366069D01*
X17037Y365948D01*
X17005Y365897D01*
X16966Y365850D01*
X16884Y365707D01*
X16796Y365568D01*
X16772Y365512D01*
X16742Y365459D01*
X16687Y365304D01*
X16625Y365152D01*
X16612Y365092D01*
X16591Y365035D01*
X16565Y364872D01*
X16530Y364712D01*
X16525Y364635D01*
X16518Y364590D01*
X16519Y364529D01*
X16511Y364400D01*
X16511Y243930D01*
X16525Y243767D01*
X16532Y243602D01*
X16545Y243543D01*
X16551Y243482D01*
X16594Y243323D01*
X16630Y243163D01*
X16653Y243106D01*
X16669Y243047D01*
X16740Y242899D01*
X16803Y242747D01*
X16836Y242696D01*
X16863Y242641D01*
X16958Y242507D01*
X17048Y242369D01*
X17099Y242311D01*
X17125Y242275D01*
X17168Y242232D01*
X17254Y242135D01*
X38935Y220454D01*
X39061Y220349D01*
X39182Y220237D01*
X39233Y220205D01*
X39280Y220166D01*
X39423Y220084D01*
X39562Y219996D01*
X39618Y219972D01*
X39671Y219942D01*
X39826Y219887D01*
X39978Y219825D01*
X40038Y219812D01*
X40095Y219791D01*
X40258Y219765D01*
X40418Y219730D01*
X40495Y219725D01*
X40540Y219718D01*
X40601Y219719D01*
X40730Y219711D01*
X80522Y219711D01*
X80686Y219725D01*
X80851Y219732D01*
X80910Y219745D01*
X80971Y219751D01*
X81130Y219794D01*
X81290Y219830D01*
X81346Y219853D01*
X81405Y219869D01*
X81554Y219940D01*
X81706Y220003D01*
X81757Y220036D01*
X81812Y220063D01*
X81946Y220158D01*
X82084Y220248D01*
X82142Y220299D01*
X82178Y220325D01*
X82221Y220368D01*
X82318Y220454D01*
X85638Y223775D01*
X92162Y223775D01*
X95482Y220454D01*
X95608Y220349D01*
X95729Y220237D01*
X95781Y220205D01*
X95827Y220166D01*
X95970Y220084D01*
X96109Y219996D01*
X96165Y219972D01*
X96218Y219942D01*
X96373Y219887D01*
X96525Y219825D01*
X96585Y219812D01*
X96643Y219791D01*
X96805Y219765D01*
X96966Y219730D01*
X97043Y219725D01*
X97087Y219718D01*
X97148Y219719D01*
X97278Y219711D01*
X101792Y219711D01*
X101955Y219725D01*
X102120Y219732D01*
X102179Y219745D01*
X102240Y219751D01*
X102399Y219794D01*
X102559Y219830D01*
X102616Y219853D01*
X102674Y219869D01*
X102823Y219940D01*
X102975Y220003D01*
X103026Y220036D01*
X103081Y220063D01*
X103215Y220158D01*
X103353Y220248D01*
X103411Y220299D01*
X103447Y220325D01*
X103490Y220368D01*
X103587Y220454D01*
X109746Y226613D01*
X109851Y226739D01*
X109963Y226860D01*
X109995Y226912D01*
X110034Y226958D01*
X110116Y227101D01*
X110204Y227240D01*
X110228Y227296D01*
X110258Y227349D01*
X110313Y227504D01*
X110375Y227656D01*
X110388Y227716D01*
X110409Y227774D01*
X110435Y227936D01*
X110470Y228097D01*
X110475Y228174D01*
X110482Y228218D01*
X110481Y228279D01*
X110489Y228409D01*
X110489Y243586D01*
X110486Y243621D01*
X110488Y243655D01*
X110466Y243844D01*
X110449Y244035D01*
X110440Y244068D01*
X110436Y244102D01*
X110381Y244285D01*
X110331Y244469D01*
X110316Y244500D01*
X110306Y244533D01*
X110219Y244704D01*
X110137Y244876D01*
X110117Y244904D01*
X110102Y244935D01*
X109986Y245087D01*
X109875Y245242D01*
X109850Y245266D01*
X109830Y245293D01*
X109690Y245422D01*
X109553Y245556D01*
X109524Y245575D01*
X109498Y245599D01*
X109337Y245701D01*
X109180Y245808D01*
X109148Y245822D01*
X109119Y245840D01*
X108942Y245913D01*
X108768Y245990D01*
X108734Y245998D01*
X108702Y246011D01*
X108515Y246051D01*
X108330Y246097D01*
X108296Y246099D01*
X108262Y246106D01*
X107950Y246125D01*
X106130Y246125D01*
X103235Y247324D01*
X101020Y249539D01*
X99821Y252434D01*
X99821Y255566D01*
X101020Y258461D01*
X103235Y260676D01*
X106130Y261875D01*
X122470Y261875D01*
X125694Y260540D01*
X125765Y260499D01*
X125798Y260487D01*
X125830Y260470D01*
X126010Y260412D01*
X126189Y260348D01*
X126224Y260342D01*
X126258Y260331D01*
X126446Y260305D01*
X126633Y260274D01*
X126669Y260274D01*
X126704Y260270D01*
X126894Y260277D01*
X127083Y260280D01*
X127118Y260286D01*
X127154Y260288D01*
X127339Y260329D01*
X127526Y260365D01*
X127559Y260378D01*
X127593Y260385D01*
X127769Y260459D01*
X127946Y260527D01*
X127976Y260545D01*
X128009Y260559D01*
X128169Y260662D01*
X128331Y260761D01*
X128357Y260784D01*
X128387Y260803D01*
X128621Y261010D01*
X162941Y295331D01*
X164342Y295911D01*
X232922Y295911D01*
X233129Y295929D01*
X233334Y295944D01*
X233352Y295949D01*
X233371Y295951D01*
X233570Y296005D01*
X233770Y296057D01*
X233791Y296065D01*
X233805Y296069D01*
X233848Y296090D01*
X234058Y296179D01*
X234133Y296225D01*
X234212Y296263D01*
X234324Y296343D01*
X234441Y296415D01*
X234507Y296474D01*
X234578Y296525D01*
X234674Y296624D01*
X234777Y296715D01*
X234831Y296784D01*
X234892Y296847D01*
X234969Y296962D01*
X235054Y297070D01*
X235095Y297148D01*
X235144Y297220D01*
X235200Y297347D01*
X235264Y297468D01*
X235291Y297552D01*
X235326Y297632D01*
X235359Y297766D01*
X235401Y297897D01*
X235412Y297985D01*
X235433Y298070D01*
X235442Y298207D01*
X235459Y298344D01*
X235455Y298432D01*
X235461Y298519D01*
X235445Y298656D01*
X235438Y298794D01*
X235419Y298879D01*
X235409Y298966D01*
X235369Y299098D01*
X235338Y299233D01*
X235304Y299313D01*
X235278Y299397D01*
X235216Y299520D01*
X235162Y299647D01*
X235114Y299720D01*
X235074Y299799D01*
X234991Y299909D01*
X234915Y300024D01*
X234855Y300087D01*
X234802Y300157D01*
X234701Y300251D01*
X234606Y300351D01*
X234536Y300403D01*
X234471Y300463D01*
X234355Y300537D01*
X234244Y300618D01*
X234165Y300657D01*
X234091Y300704D01*
X233963Y300757D01*
X233840Y300818D01*
X233756Y300842D01*
X233675Y300875D01*
X233540Y300904D01*
X233407Y300943D01*
X233320Y300952D01*
X233234Y300970D01*
X233007Y300984D01*
X232960Y300989D01*
X232945Y300988D01*
X232922Y300989D01*
X202442Y300989D01*
X201041Y301569D01*
X161869Y340741D01*
X161289Y342142D01*
X161289Y407158D01*
X161869Y408559D01*
X163299Y409988D01*
X169182Y415871D01*
X169287Y415997D01*
X169399Y416118D01*
X169431Y416169D01*
X169470Y416216D01*
X169552Y416359D01*
X169640Y416498D01*
X169664Y416554D01*
X169694Y416607D01*
X169749Y416762D01*
X169811Y416914D01*
X169824Y416974D01*
X169845Y417031D01*
X169871Y417193D01*
X169906Y417354D01*
X169911Y417432D01*
X169918Y417476D01*
X169917Y417536D01*
X169925Y417666D01*
X169925Y422362D01*
X174538Y426975D01*
X181062Y426975D01*
X184382Y423654D01*
X184508Y423549D01*
X184629Y423437D01*
X184681Y423405D01*
X184727Y423366D01*
X184870Y423284D01*
X185009Y423196D01*
X185066Y423172D01*
X185118Y423142D01*
X185273Y423087D01*
X185426Y423025D01*
X185485Y423012D01*
X185543Y422991D01*
X185705Y422965D01*
X185866Y422930D01*
X185943Y422925D01*
X185987Y422918D01*
X186048Y422919D01*
X186178Y422911D01*
X194822Y422911D01*
X194986Y422925D01*
X195151Y422932D01*
X195210Y422945D01*
X195271Y422951D01*
X195430Y422994D01*
X195590Y423030D01*
X195646Y423053D01*
X195705Y423069D01*
X195853Y423140D01*
X196006Y423203D01*
X196057Y423236D01*
X196112Y423263D01*
X196245Y423358D01*
X196384Y423448D01*
X196442Y423499D01*
X196478Y423525D01*
X196520Y423568D01*
X196618Y423654D01*
X199938Y426975D01*
X206462Y426975D01*
X211075Y422362D01*
X211075Y415838D01*
X206462Y411225D01*
X199938Y411225D01*
X196618Y414546D01*
X196492Y414651D01*
X196371Y414763D01*
X196319Y414795D01*
X196273Y414834D01*
X196130Y414916D01*
X195991Y415004D01*
X195934Y415028D01*
X195882Y415058D01*
X195727Y415113D01*
X195574Y415175D01*
X195515Y415188D01*
X195457Y415209D01*
X195295Y415235D01*
X195134Y415270D01*
X195057Y415275D01*
X195013Y415282D01*
X194952Y415281D01*
X194822Y415289D01*
X186178Y415289D01*
X186014Y415275D01*
X185849Y415268D01*
X185790Y415255D01*
X185729Y415249D01*
X185570Y415206D01*
X185410Y415170D01*
X185354Y415147D01*
X185295Y415131D01*
X185147Y415060D01*
X184994Y414997D01*
X184943Y414964D01*
X184888Y414937D01*
X184755Y414842D01*
X184616Y414752D01*
X184558Y414701D01*
X184522Y414675D01*
X184480Y414632D01*
X184382Y414546D01*
X181062Y411225D01*
X176366Y411225D01*
X176203Y411211D01*
X176038Y411204D01*
X175979Y411191D01*
X175918Y411185D01*
X175759Y411142D01*
X175599Y411106D01*
X175542Y411083D01*
X175483Y411067D01*
X175335Y410996D01*
X175183Y410933D01*
X175132Y410900D01*
X175077Y410873D01*
X174943Y410778D01*
X174805Y410688D01*
X174747Y410637D01*
X174711Y410611D01*
X174668Y410568D01*
X174571Y410482D01*
X169654Y405565D01*
X169549Y405439D01*
X169437Y405318D01*
X169405Y405267D01*
X169366Y405220D01*
X169284Y405077D01*
X169196Y404938D01*
X169172Y404882D01*
X169142Y404829D01*
X169087Y404674D01*
X169025Y404522D01*
X169012Y404462D01*
X168991Y404405D01*
X168965Y404242D01*
X168930Y404082D01*
X168925Y404005D01*
X168918Y403960D01*
X168919Y403899D01*
X168911Y403770D01*
X168911Y345530D01*
X168925Y345367D01*
X168932Y345202D01*
X168945Y345143D01*
X168951Y345082D01*
X168994Y344923D01*
X169030Y344763D01*
X169053Y344706D01*
X169069Y344647D01*
X169140Y344499D01*
X169203Y344347D01*
X169236Y344296D01*
X169263Y344241D01*
X169358Y344107D01*
X169448Y343969D01*
X169499Y343911D01*
X169525Y343875D01*
X169568Y343832D01*
X169654Y343735D01*
X175675Y337714D01*
X175811Y337600D01*
X175943Y337481D01*
X175984Y337456D01*
X176021Y337425D01*
X176174Y337337D01*
X176326Y337243D01*
X176370Y337225D01*
X176411Y337202D01*
X176579Y337142D01*
X176744Y337077D01*
X176791Y337067D01*
X176836Y337051D01*
X177011Y337022D01*
X177185Y336986D01*
X177233Y336985D01*
X177280Y336977D01*
X177458Y336980D01*
X177635Y336976D01*
X177682Y336983D01*
X177730Y336984D01*
X177905Y337017D01*
X178080Y337044D01*
X178125Y337060D01*
X178172Y337069D01*
X178338Y337133D01*
X178506Y337191D01*
X178548Y337214D01*
X178592Y337231D01*
X178744Y337324D01*
X178899Y337410D01*
X178936Y337440D01*
X178977Y337465D01*
X179110Y337583D01*
X179248Y337695D01*
X179279Y337732D01*
X179314Y337763D01*
X179425Y337903D01*
X179540Y338038D01*
X179564Y338079D01*
X179594Y338117D01*
X179678Y338273D01*
X179767Y338426D01*
X179784Y338471D01*
X179806Y338513D01*
X179861Y338682D01*
X179923Y338849D01*
X179931Y338896D01*
X179946Y338942D01*
X179970Y339118D01*
X180001Y339293D01*
X180001Y339340D01*
X180007Y339388D01*
X180000Y339566D01*
X179999Y339743D01*
X179991Y339790D01*
X179989Y339838D01*
X179950Y340011D01*
X179918Y340186D01*
X179899Y340242D01*
X179891Y340277D01*
X179867Y340335D01*
X179817Y340481D01*
X179704Y340753D01*
X179704Y345047D01*
X181348Y349015D01*
X184385Y352052D01*
X188353Y353696D01*
X192647Y353696D01*
X196615Y352052D01*
X199652Y349015D01*
X201296Y345047D01*
X201296Y340753D01*
X199652Y336785D01*
X196615Y333748D01*
X192647Y332104D01*
X188353Y332104D01*
X188081Y332217D01*
X187912Y332270D01*
X187744Y332329D01*
X187697Y332337D01*
X187652Y332351D01*
X187476Y332374D01*
X187300Y332403D01*
X187252Y332402D01*
X187205Y332408D01*
X187028Y332399D01*
X186850Y332397D01*
X186803Y332388D01*
X186755Y332385D01*
X186583Y332345D01*
X186408Y332311D01*
X186363Y332294D01*
X186317Y332283D01*
X186154Y332213D01*
X185988Y332149D01*
X185947Y332124D01*
X185903Y332105D01*
X185755Y332007D01*
X185603Y331915D01*
X185567Y331883D01*
X185527Y331857D01*
X185398Y331734D01*
X185266Y331617D01*
X185236Y331579D01*
X185202Y331546D01*
X185096Y331402D01*
X184986Y331264D01*
X184964Y331222D01*
X184936Y331183D01*
X184858Y331023D01*
X184774Y330867D01*
X184759Y330821D01*
X184738Y330778D01*
X184689Y330607D01*
X184635Y330439D01*
X184628Y330391D01*
X184615Y330345D01*
X184597Y330168D01*
X184573Y329992D01*
X184575Y329945D01*
X184570Y329897D01*
X184584Y329720D01*
X184592Y329543D01*
X184602Y329496D01*
X184606Y329448D01*
X184651Y329276D01*
X184689Y329103D01*
X184708Y329059D01*
X184720Y329013D01*
X184794Y328851D01*
X184863Y328688D01*
X184889Y328647D01*
X184909Y328604D01*
X185011Y328458D01*
X185107Y328309D01*
X185146Y328265D01*
X185167Y328235D01*
X185212Y328191D01*
X185314Y328075D01*
X204035Y309354D01*
X204161Y309249D01*
X204282Y309137D01*
X204333Y309105D01*
X204380Y309066D01*
X204523Y308984D01*
X204662Y308896D01*
X204718Y308872D01*
X204771Y308842D01*
X204926Y308787D01*
X205078Y308725D01*
X205138Y308712D01*
X205195Y308691D01*
X205358Y308665D01*
X205518Y308630D01*
X205595Y308625D01*
X205640Y308618D01*
X205701Y308619D01*
X205830Y308611D01*
X232922Y308611D01*
X233052Y308622D01*
X233182Y308624D01*
X233276Y308642D01*
X233371Y308651D01*
X233497Y308685D01*
X233624Y308710D01*
X233713Y308744D01*
X233805Y308769D01*
X233923Y308825D01*
X234044Y308872D01*
X234126Y308922D01*
X234212Y308963D01*
X234317Y309038D01*
X234429Y309106D01*
X234500Y309169D01*
X234578Y309225D01*
X234669Y309318D01*
X234766Y309404D01*
X234825Y309479D01*
X234892Y309547D01*
X234965Y309655D01*
X235046Y309757D01*
X235091Y309841D01*
X235144Y309920D01*
X235197Y310039D01*
X235258Y310154D01*
X235288Y310245D01*
X235326Y310332D01*
X235357Y310459D01*
X235397Y310582D01*
X235410Y310677D01*
X235433Y310770D01*
X235441Y310899D01*
X235459Y311028D01*
X235455Y311124D01*
X235461Y311219D01*
X235446Y311348D01*
X235440Y311478D01*
X235420Y311571D01*
X235409Y311666D01*
X235371Y311791D01*
X235343Y311918D01*
X235306Y312006D01*
X235278Y312097D01*
X235219Y312213D01*
X235169Y312333D01*
X235117Y312413D01*
X235074Y312499D01*
X234995Y312602D01*
X234925Y312711D01*
X234839Y312809D01*
X234802Y312857D01*
X234769Y312888D01*
X234718Y312946D01*
X234624Y313039D01*
X233425Y315934D01*
X233425Y319066D01*
X234624Y321961D01*
X236839Y324176D01*
X239734Y325375D01*
X242734Y325375D01*
X242897Y325389D01*
X243062Y325396D01*
X243121Y325409D01*
X243182Y325415D01*
X243341Y325458D01*
X243501Y325494D01*
X243558Y325517D01*
X243617Y325533D01*
X243765Y325604D01*
X243917Y325667D01*
X243968Y325700D01*
X244023Y325727D01*
X244157Y325822D01*
X244295Y325912D01*
X244353Y325963D01*
X244389Y325989D01*
X244432Y326032D01*
X244529Y326118D01*
X253165Y334754D01*
X253249Y334854D01*
X253339Y334947D01*
X253393Y335027D01*
X253454Y335100D01*
X253519Y335213D01*
X253592Y335320D01*
X253630Y335408D01*
X253678Y335491D01*
X253721Y335613D01*
X253774Y335732D01*
X253796Y335825D01*
X253828Y335915D01*
X253850Y336044D01*
X253880Y336170D01*
X253886Y336265D01*
X253902Y336359D01*
X253900Y336490D01*
X253908Y336619D01*
X253897Y336714D01*
X253896Y336810D01*
X253871Y336937D01*
X253856Y337066D01*
X253828Y337158D01*
X253810Y337252D01*
X253763Y337373D01*
X253726Y337497D01*
X253682Y337582D01*
X253648Y337672D01*
X253580Y337783D01*
X253521Y337899D01*
X253464Y337975D01*
X253414Y338056D01*
X253328Y338154D01*
X253249Y338257D01*
X253179Y338322D01*
X253116Y338394D01*
X253014Y338474D01*
X252918Y338563D01*
X252837Y338614D01*
X252763Y338673D01*
X252648Y338734D01*
X252538Y338804D01*
X252450Y338841D01*
X252366Y338886D01*
X252242Y338926D01*
X252122Y338975D01*
X252028Y338995D01*
X251938Y339025D01*
X251809Y339043D01*
X251682Y339070D01*
X251552Y339078D01*
X251492Y339086D01*
X251447Y339085D01*
X251370Y339089D01*
X249678Y339089D01*
X249514Y339075D01*
X249349Y339068D01*
X249290Y339055D01*
X249229Y339049D01*
X249070Y339006D01*
X248910Y338970D01*
X248854Y338947D01*
X248795Y338931D01*
X248647Y338860D01*
X248494Y338797D01*
X248443Y338764D01*
X248388Y338737D01*
X248255Y338642D01*
X248116Y338552D01*
X248058Y338501D01*
X248022Y338475D01*
X247980Y338432D01*
X247882Y338346D01*
X245761Y336224D01*
X242866Y335025D01*
X239734Y335025D01*
X236839Y336224D01*
X234624Y338439D01*
X233425Y341334D01*
X233425Y344466D01*
X234624Y347361D01*
X236839Y349576D01*
X239734Y350775D01*
X242866Y350775D01*
X245761Y349576D01*
X247882Y347454D01*
X248008Y347349D01*
X248129Y347237D01*
X248181Y347205D01*
X248227Y347166D01*
X248370Y347084D01*
X248509Y346996D01*
X248566Y346972D01*
X248618Y346942D01*
X248773Y346887D01*
X248926Y346825D01*
X248985Y346812D01*
X249043Y346791D01*
X249205Y346765D01*
X249366Y346730D01*
X249443Y346725D01*
X249487Y346718D01*
X249548Y346719D01*
X249678Y346711D01*
X251370Y346711D01*
X251533Y346725D01*
X251698Y346732D01*
X251757Y346745D01*
X251818Y346751D01*
X251977Y346794D01*
X252137Y346830D01*
X252194Y346853D01*
X252253Y346869D01*
X252401Y346940D01*
X252553Y347003D01*
X252604Y347036D01*
X252659Y347063D01*
X252793Y347158D01*
X252931Y347248D01*
X252989Y347299D01*
X253025Y347325D01*
X253068Y347368D01*
X253165Y347454D01*
X262146Y356435D01*
X262251Y356561D01*
X262363Y356682D01*
X262395Y356733D01*
X262434Y356780D01*
X262516Y356923D01*
X262604Y357062D01*
X262628Y357118D01*
X262658Y357171D01*
X262713Y357326D01*
X262775Y357478D01*
X262788Y357538D01*
X262809Y357595D01*
X262835Y357758D01*
X262870Y357918D01*
X262875Y357995D01*
X262882Y358040D01*
X262881Y358101D01*
X262889Y358230D01*
X262889Y410722D01*
X262878Y410852D01*
X262876Y410982D01*
X262858Y411076D01*
X262849Y411171D01*
X262815Y411296D01*
X262790Y411424D01*
X262756Y411513D01*
X262731Y411605D01*
X262675Y411723D01*
X262628Y411844D01*
X262578Y411926D01*
X262537Y412012D01*
X262462Y412118D01*
X262394Y412229D01*
X262331Y412300D01*
X262275Y412378D01*
X262182Y412469D01*
X262096Y412566D01*
X262021Y412625D01*
X261953Y412692D01*
X261845Y412765D01*
X261743Y412846D01*
X261659Y412891D01*
X261580Y412944D01*
X261461Y412997D01*
X261346Y413058D01*
X261255Y413088D01*
X261168Y413126D01*
X261041Y413157D01*
X260918Y413197D01*
X260823Y413210D01*
X260730Y413233D01*
X260601Y413241D01*
X260472Y413259D01*
X260376Y413255D01*
X260281Y413261D01*
X260152Y413246D01*
X260022Y413240D01*
X259929Y413220D01*
X259834Y413209D01*
X259709Y413171D01*
X259582Y413143D01*
X259494Y413106D01*
X259403Y413078D01*
X259287Y413019D01*
X259167Y412969D01*
X259087Y412917D01*
X259001Y412874D01*
X258898Y412795D01*
X258789Y412725D01*
X258691Y412639D01*
X258643Y412602D01*
X258612Y412569D01*
X258554Y412518D01*
X257262Y411225D01*
X252566Y411225D01*
X252403Y411211D01*
X252238Y411204D01*
X252179Y411191D01*
X252118Y411185D01*
X251959Y411142D01*
X251799Y411106D01*
X251742Y411083D01*
X251683Y411067D01*
X251535Y410996D01*
X251383Y410933D01*
X251332Y410900D01*
X251277Y410873D01*
X251143Y410778D01*
X251005Y410688D01*
X250947Y410637D01*
X250911Y410611D01*
X250868Y410568D01*
X250771Y410482D01*
X245854Y405565D01*
X245749Y405439D01*
X245637Y405318D01*
X245605Y405267D01*
X245566Y405220D01*
X245484Y405077D01*
X245396Y404938D01*
X245372Y404882D01*
X245342Y404829D01*
X245287Y404674D01*
X245225Y404522D01*
X245212Y404462D01*
X245191Y404405D01*
X245165Y404242D01*
X245130Y404082D01*
X245125Y404005D01*
X245118Y403960D01*
X245119Y403899D01*
X245111Y403770D01*
X245111Y376678D01*
X245125Y376514D01*
X245132Y376349D01*
X245145Y376290D01*
X245151Y376229D01*
X245194Y376070D01*
X245230Y375910D01*
X245253Y375854D01*
X245269Y375795D01*
X245340Y375647D01*
X245403Y375494D01*
X245436Y375443D01*
X245463Y375388D01*
X245558Y375255D01*
X245648Y375116D01*
X245699Y375058D01*
X245725Y375022D01*
X245768Y374980D01*
X245854Y374882D01*
X247976Y372761D01*
X249175Y369866D01*
X249175Y366734D01*
X247976Y363839D01*
X245761Y361624D01*
X242866Y360425D01*
X239734Y360425D01*
X236839Y361624D01*
X234624Y363839D01*
X233425Y366734D01*
X233425Y369866D01*
X234624Y372761D01*
X236746Y374882D01*
X236851Y375008D01*
X236963Y375129D01*
X236995Y375181D01*
X237034Y375227D01*
X237116Y375370D01*
X237204Y375509D01*
X237228Y375566D01*
X237258Y375618D01*
X237313Y375773D01*
X237375Y375926D01*
X237388Y375985D01*
X237409Y376043D01*
X237435Y376205D01*
X237470Y376366D01*
X237475Y376443D01*
X237482Y376487D01*
X237481Y376548D01*
X237489Y376678D01*
X237489Y407158D01*
X238069Y408559D01*
X245382Y415871D01*
X245487Y415997D01*
X245599Y416118D01*
X245631Y416169D01*
X245670Y416216D01*
X245752Y416359D01*
X245840Y416498D01*
X245864Y416554D01*
X245894Y416607D01*
X245949Y416762D01*
X246011Y416914D01*
X246024Y416974D01*
X246045Y417031D01*
X246071Y417194D01*
X246106Y417354D01*
X246111Y417431D01*
X246118Y417476D01*
X246117Y417537D01*
X246125Y417666D01*
X246125Y422362D01*
X249446Y425682D01*
X249551Y425808D01*
X249663Y425929D01*
X249695Y425981D01*
X249734Y426027D01*
X249816Y426170D01*
X249904Y426309D01*
X249928Y426366D01*
X249958Y426418D01*
X250013Y426573D01*
X250075Y426726D01*
X250088Y426785D01*
X250109Y426843D01*
X250135Y427005D01*
X250170Y427166D01*
X250175Y427243D01*
X250182Y427287D01*
X250181Y427348D01*
X250189Y427478D01*
X250189Y438150D01*
X250186Y438185D01*
X250188Y438219D01*
X250166Y438408D01*
X250149Y438599D01*
X250140Y438632D01*
X250136Y438666D01*
X250081Y438849D01*
X250031Y439033D01*
X250016Y439064D01*
X250006Y439097D01*
X249919Y439268D01*
X249837Y439440D01*
X249817Y439468D01*
X249802Y439499D01*
X249686Y439651D01*
X249575Y439806D01*
X249550Y439830D01*
X249530Y439857D01*
X249390Y439986D01*
X249253Y440120D01*
X249224Y440139D01*
X249198Y440163D01*
X249037Y440265D01*
X248880Y440372D01*
X248848Y440386D01*
X248819Y440404D01*
X248642Y440477D01*
X248468Y440554D01*
X248434Y440562D01*
X248402Y440575D01*
X248215Y440615D01*
X248030Y440661D01*
X247996Y440663D01*
X247962Y440670D01*
X247650Y440689D01*
X109978Y440689D01*
X109814Y440675D01*
X109649Y440668D01*
X109590Y440655D01*
X109529Y440649D01*
X109370Y440606D01*
X109210Y440570D01*
X109154Y440547D01*
X109095Y440531D01*
X108947Y440460D01*
X108794Y440397D01*
X108743Y440364D01*
X108688Y440337D01*
X108555Y440242D01*
X108416Y440152D01*
X108358Y440101D01*
X108322Y440075D01*
X108280Y440032D01*
X108182Y439946D01*
X104862Y436625D01*
X98338Y436625D01*
X93725Y441238D01*
X93725Y447762D01*
X98338Y452375D01*
X104862Y452375D01*
X108182Y449054D01*
X108308Y448949D01*
X108429Y448837D01*
X108481Y448805D01*
X108527Y448766D01*
X108670Y448684D01*
X108809Y448596D01*
X108866Y448572D01*
X108918Y448542D01*
X109073Y448487D01*
X109226Y448425D01*
X109285Y448412D01*
X109343Y448391D01*
X109505Y448365D01*
X109666Y448330D01*
X109743Y448325D01*
X109787Y448318D01*
X109848Y448319D01*
X109978Y448311D01*
X251370Y448311D01*
X251533Y448325D01*
X251698Y448332D01*
X251757Y448345D01*
X251818Y448351D01*
X251977Y448394D01*
X252137Y448430D01*
X252194Y448453D01*
X252253Y448469D01*
X252401Y448540D01*
X252553Y448603D01*
X252604Y448636D01*
X252659Y448663D01*
X252793Y448758D01*
X252931Y448848D01*
X252989Y448899D01*
X253025Y448925D01*
X253068Y448968D01*
X253165Y449054D01*
X302641Y498531D01*
X304042Y499111D01*
X334522Y499111D01*
X334729Y499129D01*
X334934Y499144D01*
X334952Y499149D01*
X334971Y499151D01*
X335170Y499205D01*
X335370Y499257D01*
X335391Y499265D01*
X335405Y499269D01*
X335448Y499290D01*
X335658Y499379D01*
X335733Y499425D01*
X335812Y499463D01*
X335924Y499543D01*
X336041Y499615D01*
X336107Y499674D01*
X336178Y499725D01*
X336274Y499824D01*
X336377Y499915D01*
X336431Y499984D01*
X336492Y500047D01*
X336569Y500162D01*
X336654Y500270D01*
X336695Y500348D01*
X336744Y500420D01*
X336800Y500547D01*
X336864Y500668D01*
X336891Y500752D01*
X336926Y500832D01*
X336959Y500966D01*
X337001Y501097D01*
X337012Y501185D01*
X337033Y501270D01*
X337042Y501407D01*
X337059Y501544D01*
X337055Y501632D01*
X337061Y501719D01*
X337045Y501856D01*
X337038Y501994D01*
X337019Y502079D01*
X337009Y502166D01*
X336969Y502298D01*
X336938Y502433D01*
X336904Y502513D01*
X336878Y502597D01*
X336816Y502720D01*
X336762Y502847D01*
X336714Y502920D01*
X336674Y502999D01*
X336591Y503109D01*
X336515Y503224D01*
X336455Y503287D01*
X336402Y503357D01*
X336301Y503451D01*
X336206Y503551D01*
X336136Y503603D01*
X336071Y503663D01*
X335955Y503737D01*
X335844Y503818D01*
X335765Y503857D01*
X335691Y503904D01*
X335563Y503957D01*
X335440Y504018D01*
X335356Y504042D01*
X335275Y504075D01*
X335140Y504104D01*
X335007Y504143D01*
X334920Y504152D01*
X334834Y504170D01*
X334607Y504184D01*
X334560Y504189D01*
X334545Y504188D01*
X334522Y504189D01*
X230099Y504189D01*
X229893Y504171D01*
X229687Y504156D01*
X229669Y504151D01*
X229651Y504149D01*
X229451Y504095D01*
X229251Y504043D01*
X229230Y504035D01*
X229216Y504031D01*
X229173Y504010D01*
X228963Y503921D01*
X212478Y495679D01*
X212374Y495614D01*
X212265Y495559D01*
X212183Y495497D01*
X212095Y495442D01*
X212004Y495361D01*
X211907Y495287D01*
X211837Y495211D01*
X211760Y495142D01*
X211684Y495046D01*
X211601Y494956D01*
X211546Y494869D01*
X211482Y494787D01*
X211425Y494679D01*
X211360Y494576D01*
X211320Y494480D01*
X211272Y494389D01*
X211235Y494273D01*
X211189Y494160D01*
X211167Y494059D01*
X211136Y493960D01*
X211120Y493839D01*
X211094Y493719D01*
X211085Y493576D01*
X211077Y493514D01*
X211079Y493474D01*
X211075Y493407D01*
X211075Y492038D01*
X206462Y487425D01*
X199938Y487425D01*
X195325Y492038D01*
X195325Y498562D01*
X199938Y503175D01*
X206462Y503175D01*
X206490Y503147D01*
X206549Y503097D01*
X206602Y503041D01*
X206721Y502953D01*
X206835Y502858D01*
X206902Y502820D01*
X206964Y502774D01*
X207097Y502708D01*
X207226Y502634D01*
X207299Y502609D01*
X207368Y502575D01*
X207510Y502533D01*
X207650Y502484D01*
X207727Y502471D01*
X207800Y502450D01*
X207948Y502434D01*
X208095Y502410D01*
X208172Y502411D01*
X208248Y502403D01*
X208396Y502414D01*
X208545Y502416D01*
X208621Y502431D01*
X208697Y502437D01*
X208841Y502474D01*
X208987Y502502D01*
X209059Y502530D01*
X209133Y502549D01*
X209382Y502654D01*
X209407Y502664D01*
X209412Y502667D01*
X209421Y502671D01*
X225974Y510948D01*
X225997Y510962D01*
X226022Y510972D01*
X226188Y511080D01*
X226357Y511184D01*
X226377Y511202D01*
X226387Y511208D01*
X226933Y511434D01*
X226986Y511462D01*
X227097Y511509D01*
X227646Y511783D01*
X227746Y511800D01*
X227772Y511809D01*
X227783Y511811D01*
X228375Y511811D01*
X228434Y511816D01*
X228555Y511817D01*
X229167Y511861D01*
X229266Y511837D01*
X229292Y511836D01*
X229319Y511830D01*
X229630Y511811D01*
X461522Y511811D01*
X461686Y511825D01*
X461851Y511832D01*
X461910Y511845D01*
X461971Y511851D01*
X462130Y511894D01*
X462290Y511930D01*
X462346Y511953D01*
X462405Y511969D01*
X462553Y512040D01*
X462706Y512103D01*
X462757Y512136D01*
X462812Y512163D01*
X462945Y512258D01*
X463084Y512348D01*
X463142Y512399D01*
X463178Y512425D01*
X463220Y512468D01*
X463318Y512554D01*
X464734Y513970D01*
X464787Y514034D01*
X464846Y514090D01*
X464931Y514206D01*
X465023Y514316D01*
X465064Y514387D01*
X465112Y514454D01*
X465175Y514582D01*
X465246Y514707D01*
X465274Y514784D01*
X465310Y514858D01*
X465349Y514996D01*
X465397Y515131D01*
X465410Y515212D01*
X465433Y515291D01*
X465447Y515434D01*
X465470Y515575D01*
X465469Y515658D01*
X465477Y515740D01*
X465466Y515882D01*
X465464Y516025D01*
X465449Y516106D01*
X465442Y516188D01*
X465406Y516327D01*
X465379Y516467D01*
X465349Y516544D01*
X465328Y516624D01*
X465268Y516754D01*
X465216Y516887D01*
X465174Y516958D01*
X465139Y517033D01*
X465057Y517150D01*
X464982Y517272D01*
X464928Y517334D01*
X464881Y517401D01*
X464779Y517502D01*
X464684Y517610D01*
X464620Y517661D01*
X464561Y517719D01*
X464443Y517800D01*
X464331Y517889D01*
X464259Y517928D01*
X464191Y517975D01*
X463969Y518083D01*
X463934Y518102D01*
X463924Y518105D01*
X463910Y518112D01*
X463594Y518243D01*
X461093Y520744D01*
X459739Y524012D01*
X459739Y527050D01*
X459736Y527085D01*
X459738Y527119D01*
X459716Y527308D01*
X459699Y527499D01*
X459690Y527532D01*
X459686Y527566D01*
X459631Y527749D01*
X459581Y527933D01*
X459566Y527964D01*
X459556Y527997D01*
X459469Y528168D01*
X459387Y528340D01*
X459367Y528368D01*
X459352Y528399D01*
X459236Y528551D01*
X459125Y528706D01*
X459100Y528730D01*
X459080Y528757D01*
X458940Y528886D01*
X458803Y529020D01*
X458774Y529039D01*
X458748Y529063D01*
X458587Y529165D01*
X458430Y529272D01*
X458398Y529286D01*
X458369Y529304D01*
X458192Y529377D01*
X458018Y529454D01*
X457984Y529462D01*
X457952Y529475D01*
X457765Y529515D01*
X457580Y529561D01*
X457546Y529563D01*
X457512Y529570D01*
X457200Y529589D01*
X104230Y529589D01*
X104067Y529575D01*
X103902Y529568D01*
X103843Y529555D01*
X103782Y529549D01*
X103623Y529506D01*
X103463Y529470D01*
X103406Y529447D01*
X103347Y529431D01*
X103199Y529360D01*
X103047Y529297D01*
X102996Y529264D01*
X102941Y529237D01*
X102807Y529142D01*
X102669Y529052D01*
X102611Y529001D01*
X102575Y528975D01*
X102532Y528932D01*
X102435Y528846D01*
X80754Y507165D01*
X80649Y507039D01*
X80537Y506918D01*
X80505Y506867D01*
X80466Y506820D01*
X80384Y506677D01*
X80296Y506538D01*
X80272Y506482D01*
X80242Y506429D01*
X80187Y506274D01*
X80125Y506122D01*
X80112Y506062D01*
X80091Y506005D01*
X80065Y505842D01*
X80030Y505682D01*
X80025Y505605D01*
X80018Y505560D01*
X80019Y505499D01*
X80011Y505370D01*
X80011Y503678D01*
X80025Y503514D01*
X80032Y503349D01*
X80045Y503290D01*
X80051Y503229D01*
X80094Y503070D01*
X80130Y502910D01*
X80153Y502854D01*
X80169Y502795D01*
X80240Y502647D01*
X80303Y502494D01*
X80336Y502443D01*
X80363Y502388D01*
X80458Y502255D01*
X80548Y502116D01*
X80599Y502058D01*
X80625Y502022D01*
X80668Y501980D01*
X80754Y501882D01*
X84075Y498562D01*
X84075Y492038D01*
X79462Y487425D01*
X72938Y487425D01*
X68325Y492038D01*
X68325Y498562D01*
X71646Y501882D01*
X71751Y502008D01*
X71863Y502129D01*
X71895Y502181D01*
X71934Y502227D01*
X72016Y502370D01*
X72104Y502509D01*
X72128Y502566D01*
X72158Y502618D01*
X72213Y502773D01*
X72275Y502926D01*
X72288Y502985D01*
X72309Y503043D01*
X72335Y503205D01*
X72370Y503366D01*
X72375Y503443D01*
X72382Y503487D01*
X72381Y503548D01*
X72389Y503678D01*
X72389Y508758D01*
X72969Y510159D01*
X99441Y536631D01*
X100842Y537211D01*
X457200Y537211D01*
X457235Y537214D01*
X457269Y537212D01*
X457458Y537234D01*
X457649Y537251D01*
X457682Y537260D01*
X457716Y537264D01*
X457899Y537319D01*
X458083Y537369D01*
X458114Y537384D01*
X458147Y537394D01*
X458318Y537481D01*
X458490Y537563D01*
X458518Y537583D01*
X458549Y537598D01*
X458701Y537714D01*
X458856Y537825D01*
X458880Y537850D01*
X458907Y537870D01*
X459036Y538010D01*
X459170Y538147D01*
X459189Y538176D01*
X459213Y538202D01*
X459315Y538363D01*
X459422Y538520D01*
X459436Y538552D01*
X459454Y538581D01*
X459527Y538758D01*
X459604Y538932D01*
X459612Y538966D01*
X459625Y538998D01*
X459665Y539185D01*
X459711Y539370D01*
X459713Y539404D01*
X459720Y539438D01*
X459739Y539750D01*
X459739Y542788D01*
X461093Y546056D01*
X463594Y548557D01*
X466862Y549911D01*
X470398Y549911D01*
X473666Y548557D01*
X476167Y546056D01*
X477521Y542788D01*
X477521Y524012D01*
X476167Y520744D01*
X474025Y518602D01*
X474003Y518575D01*
X473977Y518553D01*
X473859Y518403D01*
X473737Y518257D01*
X473719Y518227D01*
X473698Y518199D01*
X473608Y518031D01*
X473513Y517866D01*
X473502Y517833D01*
X473485Y517803D01*
X473426Y517621D01*
X473362Y517441D01*
X473357Y517407D01*
X473346Y517374D01*
X473320Y517185D01*
X473289Y516997D01*
X473289Y516963D01*
X473285Y516928D01*
X473292Y516738D01*
X473295Y516547D01*
X473302Y516513D01*
X473303Y516478D01*
X473344Y516292D01*
X473381Y516105D01*
X473393Y516073D01*
X473401Y516039D01*
X473474Y515863D01*
X473543Y515685D01*
X473561Y515655D01*
X473574Y515623D01*
X473677Y515464D01*
X473777Y515300D01*
X473800Y515274D01*
X473819Y515245D01*
X474026Y515011D01*
X476482Y512554D01*
X476608Y512449D01*
X476729Y512337D01*
X476781Y512305D01*
X476827Y512266D01*
X476970Y512184D01*
X477109Y512096D01*
X477166Y512072D01*
X477218Y512042D01*
X477373Y511987D01*
X477526Y511925D01*
X477585Y511912D01*
X477643Y511891D01*
X477805Y511865D01*
X477966Y511830D01*
X478043Y511825D01*
X478087Y511818D01*
X478148Y511819D01*
X478278Y511811D01*
X486922Y511811D01*
X487086Y511825D01*
X487251Y511832D01*
X487310Y511845D01*
X487371Y511851D01*
X487530Y511894D01*
X487690Y511930D01*
X487746Y511953D01*
X487805Y511969D01*
X487953Y512040D01*
X488106Y512103D01*
X488157Y512136D01*
X488212Y512163D01*
X488345Y512258D01*
X488484Y512348D01*
X488542Y512399D01*
X488578Y512425D01*
X488620Y512468D01*
X488718Y512554D01*
X491175Y515011D01*
X491197Y515038D01*
X491223Y515061D01*
X491341Y515210D01*
X491463Y515356D01*
X491481Y515386D01*
X491502Y515414D01*
X491592Y515582D01*
X491687Y515747D01*
X491698Y515780D01*
X491715Y515811D01*
X491774Y515992D01*
X491838Y516172D01*
X491843Y516206D01*
X491854Y516239D01*
X491880Y516427D01*
X491911Y516616D01*
X491911Y516651D01*
X491915Y516685D01*
X491908Y516875D01*
X491905Y517066D01*
X491898Y517100D01*
X491897Y517135D01*
X491856Y517321D01*
X491819Y517508D01*
X491807Y517541D01*
X491799Y517574D01*
X491726Y517750D01*
X491657Y517928D01*
X491639Y517958D01*
X491626Y517990D01*
X491523Y518150D01*
X491423Y518313D01*
X491400Y518339D01*
X491381Y518368D01*
X491174Y518602D01*
X489033Y520744D01*
X487679Y524012D01*
X487679Y542788D01*
X489033Y546056D01*
X491534Y548557D01*
X494802Y549911D01*
X498338Y549911D01*
X501606Y548557D01*
X504107Y546056D01*
X505461Y542788D01*
X505461Y530950D01*
X505475Y530787D01*
X505482Y530622D01*
X505495Y530563D01*
X505501Y530502D01*
X505544Y530343D01*
X505580Y530183D01*
X505603Y530126D01*
X505619Y530067D01*
X505690Y529919D01*
X505753Y529767D01*
X505786Y529716D01*
X505813Y529661D01*
X505908Y529527D01*
X505998Y529389D01*
X506049Y529331D01*
X506075Y529295D01*
X506118Y529252D01*
X506204Y529155D01*
X522501Y512858D01*
X522502Y512858D01*
X523931Y511429D01*
X524511Y510028D01*
X524511Y88142D01*
X523931Y86741D01*
X511824Y74635D01*
X511802Y74608D01*
X511776Y74585D01*
X511658Y74436D01*
X511535Y74290D01*
X511518Y74260D01*
X511497Y74232D01*
X511407Y74064D01*
X511312Y73899D01*
X511300Y73866D01*
X511284Y73835D01*
X511225Y73654D01*
X511161Y73474D01*
X511155Y73440D01*
X511145Y73407D01*
X511119Y73218D01*
X511088Y73030D01*
X511088Y72995D01*
X511083Y72961D01*
X511091Y72771D01*
X511094Y72580D01*
X511100Y72546D01*
X511102Y72511D01*
X511143Y72325D01*
X511179Y72138D01*
X511192Y72106D01*
X511199Y72072D01*
X511273Y71896D01*
X511342Y71718D01*
X511360Y71688D01*
X511373Y71656D01*
X511476Y71496D01*
X511575Y71333D01*
X511598Y71307D01*
X511617Y71278D01*
X511824Y71044D01*
X512319Y70549D01*
X512319Y56451D01*
X502349Y46481D01*
X488251Y46481D01*
X478281Y56451D01*
X478281Y57150D01*
X478278Y57185D01*
X478280Y57219D01*
X478258Y57408D01*
X478241Y57599D01*
X478232Y57632D01*
X478228Y57666D01*
X478173Y57849D01*
X478123Y58033D01*
X478108Y58064D01*
X478098Y58097D01*
X478011Y58268D01*
X477929Y58440D01*
X477909Y58468D01*
X477894Y58499D01*
X477778Y58651D01*
X477667Y58806D01*
X477642Y58830D01*
X477622Y58857D01*
X477482Y58986D01*
X477345Y59120D01*
X477316Y59139D01*
X477290Y59163D01*
X477129Y59265D01*
X476972Y59372D01*
X476940Y59386D01*
X476911Y59404D01*
X476734Y59477D01*
X476560Y59554D01*
X476526Y59562D01*
X476494Y59575D01*
X476307Y59615D01*
X476122Y59661D01*
X476088Y59663D01*
X476054Y59670D01*
X475742Y59689D01*
X421730Y59689D01*
X421567Y59675D01*
X421402Y59668D01*
X421343Y59655D01*
X421282Y59649D01*
X421123Y59606D01*
X420963Y59570D01*
X420906Y59547D01*
X420847Y59531D01*
X420699Y59460D01*
X420547Y59397D01*
X420496Y59364D01*
X420441Y59337D01*
X420307Y59242D01*
X420169Y59152D01*
X420111Y59101D01*
X420075Y59075D01*
X420032Y59032D01*
X419935Y58946D01*
X389514Y28525D01*
X389409Y28399D01*
X389297Y28278D01*
X389265Y28227D01*
X389226Y28180D01*
X389144Y28037D01*
X389056Y27898D01*
X389032Y27842D01*
X389002Y27789D01*
X388947Y27634D01*
X388885Y27482D01*
X388872Y27422D01*
X388851Y27365D01*
X388825Y27202D01*
X388790Y27042D01*
X388785Y26965D01*
X388778Y26920D01*
X388779Y26859D01*
X388771Y26730D01*
X388771Y23854D01*
X387588Y20998D01*
X387435Y20846D01*
X387352Y20746D01*
X387261Y20653D01*
X387207Y20573D01*
X387146Y20500D01*
X387082Y20387D01*
X387009Y20280D01*
X386970Y20192D01*
X386923Y20109D01*
X386879Y19987D01*
X386827Y19868D01*
X386804Y19775D01*
X386772Y19685D01*
X386751Y19557D01*
X386720Y19430D01*
X386714Y19335D01*
X386698Y19241D01*
X386700Y19111D01*
X386692Y18981D01*
X386703Y18886D01*
X386705Y18791D01*
X386729Y18663D01*
X386744Y18534D01*
X386772Y18442D01*
X386790Y18348D01*
X386837Y18227D01*
X386875Y18103D01*
X386918Y18018D01*
X386952Y17928D01*
X387020Y17817D01*
X387079Y17701D01*
X387137Y17625D01*
X387186Y17544D01*
X387272Y17446D01*
X387351Y17343D01*
X387421Y17278D01*
X387484Y17206D01*
X387586Y17126D01*
X387682Y17037D01*
X387763Y16986D01*
X387837Y16927D01*
X387952Y16865D01*
X388062Y16796D01*
X388150Y16759D01*
X388234Y16714D01*
X388358Y16674D01*
X388478Y16625D01*
X388572Y16605D01*
X388663Y16575D01*
X388791Y16557D01*
X388919Y16530D01*
X389048Y16522D01*
X389109Y16514D01*
X389153Y16515D01*
X389230Y16511D01*
X416470Y16511D01*
X416633Y16525D01*
X416798Y16532D01*
X416857Y16545D01*
X416918Y16551D01*
X417077Y16594D01*
X417237Y16630D01*
X417294Y16653D01*
X417353Y16669D01*
X417501Y16740D01*
X417653Y16803D01*
X417704Y16836D01*
X417759Y16863D01*
X417893Y16958D01*
X418031Y17048D01*
X418089Y17099D01*
X418125Y17125D01*
X418168Y17168D01*
X418265Y17254D01*
X423286Y22275D01*
X423391Y22401D01*
X423503Y22522D01*
X423535Y22573D01*
X423574Y22620D01*
X423656Y22763D01*
X423744Y22902D01*
X423768Y22958D01*
X423798Y23011D01*
X423853Y23166D01*
X423915Y23318D01*
X423928Y23378D01*
X423949Y23435D01*
X423975Y23598D01*
X424010Y23758D01*
X424015Y23835D01*
X424022Y23880D01*
X424021Y23941D01*
X424029Y24070D01*
X424029Y26946D01*
X425212Y29802D01*
X427398Y31988D01*
X430254Y33171D01*
X433346Y33171D01*
X436202Y31988D01*
X438388Y29802D01*
X439571Y26946D01*
X439571Y23854D01*
X438388Y20998D01*
X436202Y18812D01*
X433346Y17629D01*
X430470Y17629D01*
X430307Y17615D01*
X430142Y17608D01*
X430083Y17595D01*
X430022Y17589D01*
X429863Y17546D01*
X429703Y17510D01*
X429646Y17487D01*
X429587Y17471D01*
X429439Y17400D01*
X429287Y17337D01*
X429236Y17304D01*
X429181Y17277D01*
X429047Y17182D01*
X428909Y17092D01*
X428851Y17041D01*
X428815Y17015D01*
X428772Y16972D01*
X428675Y16886D01*
X426285Y14496D01*
X426201Y14396D01*
X426111Y14303D01*
X426057Y14223D01*
X425996Y14150D01*
X425931Y14037D01*
X425858Y13930D01*
X425820Y13842D01*
X425772Y13759D01*
X425729Y13637D01*
X425676Y13518D01*
X425654Y13425D01*
X425622Y13335D01*
X425600Y13207D01*
X425570Y13080D01*
X425564Y12985D01*
X425548Y12891D01*
X425550Y12761D01*
X425542Y12631D01*
X425553Y12536D01*
X425554Y12440D01*
X425579Y12313D01*
X425594Y12184D01*
X425622Y12092D01*
X425640Y11998D01*
X425687Y11877D01*
X425724Y11753D01*
X425768Y11667D01*
X425802Y11578D01*
X425870Y11467D01*
X425929Y11351D01*
X425986Y11275D01*
X426036Y11194D01*
X426122Y11096D01*
X426201Y10993D01*
X426271Y10928D01*
X426334Y10856D01*
X426436Y10776D01*
X426532Y10687D01*
X426612Y10636D01*
X426687Y10577D01*
X426802Y10516D01*
X426912Y10446D01*
X427000Y10409D01*
X427084Y10364D01*
X427208Y10324D01*
X427328Y10275D01*
X427422Y10255D01*
X427512Y10225D01*
X427641Y10207D01*
X427768Y10180D01*
X427898Y10172D01*
X427958Y10164D01*
X428003Y10165D01*
X428080Y10161D01*
X513601Y10161D01*
X513778Y10176D01*
G37*
G36*
X321349Y10172D02*
X321349Y10172D01*
X321479Y10174D01*
X321573Y10192D01*
X321668Y10201D01*
X321794Y10235D01*
X321921Y10260D01*
X322011Y10294D01*
X322103Y10319D01*
X322220Y10375D01*
X322341Y10422D01*
X322423Y10472D01*
X322509Y10513D01*
X322615Y10588D01*
X322726Y10656D01*
X322798Y10719D01*
X322875Y10775D01*
X322966Y10868D01*
X323063Y10954D01*
X323123Y11029D01*
X323189Y11097D01*
X323262Y11205D01*
X323343Y11307D01*
X323388Y11391D01*
X323442Y11470D01*
X323494Y11589D01*
X323556Y11704D01*
X323585Y11795D01*
X323624Y11882D01*
X323655Y12009D01*
X323695Y12132D01*
X323708Y12227D01*
X323730Y12320D01*
X323738Y12449D01*
X323756Y12578D01*
X323752Y12674D01*
X323758Y12769D01*
X323743Y12898D01*
X323738Y13028D01*
X323717Y13121D01*
X323706Y13216D01*
X323668Y13341D01*
X323640Y13468D01*
X323603Y13556D01*
X323576Y13647D01*
X323517Y13763D01*
X323467Y13883D01*
X323415Y13964D01*
X323371Y14049D01*
X323293Y14152D01*
X323222Y14261D01*
X323136Y14359D01*
X323099Y14407D01*
X323067Y14438D01*
X323015Y14496D01*
X290299Y47212D01*
X288869Y48641D01*
X288289Y50042D01*
X288289Y98970D01*
X288275Y99133D01*
X288268Y99298D01*
X288255Y99357D01*
X288249Y99418D01*
X288206Y99577D01*
X288170Y99737D01*
X288147Y99794D01*
X288131Y99853D01*
X288060Y100001D01*
X287997Y100153D01*
X287964Y100204D01*
X287937Y100259D01*
X287842Y100393D01*
X287752Y100531D01*
X287701Y100589D01*
X287675Y100625D01*
X287632Y100668D01*
X287546Y100765D01*
X274846Y113465D01*
X274819Y113488D01*
X274796Y113513D01*
X274647Y113631D01*
X274500Y113754D01*
X274470Y113771D01*
X274443Y113793D01*
X274275Y113883D01*
X274109Y113978D01*
X274077Y113989D01*
X274046Y114006D01*
X273865Y114064D01*
X273685Y114128D01*
X273651Y114134D01*
X273618Y114145D01*
X273429Y114171D01*
X273241Y114202D01*
X273206Y114201D01*
X273172Y114206D01*
X272981Y114198D01*
X272790Y114196D01*
X272756Y114189D01*
X272722Y114188D01*
X272536Y114146D01*
X272348Y114110D01*
X272316Y114098D01*
X272282Y114090D01*
X272106Y114017D01*
X271928Y113948D01*
X271899Y113930D01*
X271867Y113917D01*
X271707Y113813D01*
X271544Y113714D01*
X271518Y113691D01*
X271489Y113672D01*
X271254Y113465D01*
X245854Y88065D01*
X245760Y87952D01*
X245749Y87941D01*
X245744Y87934D01*
X245637Y87818D01*
X245605Y87767D01*
X245566Y87720D01*
X245484Y87577D01*
X245396Y87438D01*
X245372Y87382D01*
X245342Y87329D01*
X245287Y87174D01*
X245225Y87022D01*
X245212Y86962D01*
X245191Y86905D01*
X245165Y86742D01*
X245130Y86582D01*
X245125Y86505D01*
X245118Y86460D01*
X245119Y86399D01*
X245111Y86270D01*
X245111Y72128D01*
X245130Y71917D01*
X245146Y71706D01*
X245149Y71693D01*
X245151Y71680D01*
X245207Y71475D01*
X245260Y71270D01*
X245266Y71258D01*
X245269Y71246D01*
X245360Y71055D01*
X245449Y70862D01*
X245457Y70851D01*
X245463Y70839D01*
X245585Y70668D01*
X245708Y70493D01*
X245717Y70483D01*
X245725Y70473D01*
X245877Y70325D01*
X246027Y70176D01*
X246038Y70168D01*
X246047Y70159D01*
X246224Y70040D01*
X246397Y69920D01*
X246412Y69913D01*
X246420Y69907D01*
X246457Y69891D01*
X246678Y69782D01*
X247415Y69477D01*
X250452Y66440D01*
X251654Y63539D01*
X251714Y63423D01*
X251766Y63304D01*
X251818Y63224D01*
X251863Y63140D01*
X251942Y63037D01*
X252014Y62928D01*
X252080Y62859D01*
X252138Y62784D01*
X252235Y62696D01*
X252325Y62602D01*
X252402Y62546D01*
X252473Y62482D01*
X252583Y62413D01*
X252688Y62336D01*
X252774Y62295D01*
X252855Y62244D01*
X252976Y62196D01*
X253092Y62139D01*
X253184Y62113D01*
X253273Y62077D01*
X253401Y62051D01*
X253526Y62016D01*
X253621Y62006D01*
X253714Y61987D01*
X253844Y61984D01*
X253974Y61971D01*
X254069Y61979D01*
X254164Y61977D01*
X254293Y61996D01*
X254423Y62007D01*
X254515Y62031D01*
X254609Y62045D01*
X254732Y62088D01*
X254858Y62121D01*
X254945Y62161D01*
X255035Y62192D01*
X255149Y62255D01*
X255267Y62310D01*
X255345Y62365D01*
X255428Y62411D01*
X255529Y62493D01*
X255636Y62568D01*
X255703Y62636D01*
X255777Y62696D01*
X255861Y62795D01*
X255953Y62887D01*
X256007Y62966D01*
X256069Y63039D01*
X256135Y63151D01*
X256209Y63258D01*
X256266Y63375D01*
X256297Y63427D01*
X256312Y63469D01*
X256346Y63539D01*
X257548Y66440D01*
X260585Y69477D01*
X264553Y71121D01*
X268847Y71121D01*
X272815Y69477D01*
X275852Y66440D01*
X277496Y62472D01*
X277496Y39128D01*
X275852Y35160D01*
X272815Y32123D01*
X272078Y31818D01*
X271891Y31720D01*
X271701Y31623D01*
X271691Y31615D01*
X271679Y31609D01*
X271511Y31479D01*
X271343Y31351D01*
X271334Y31341D01*
X271323Y31333D01*
X271181Y31176D01*
X271037Y31020D01*
X271030Y31009D01*
X271022Y30999D01*
X270909Y30819D01*
X270796Y30640D01*
X270791Y30628D01*
X270784Y30617D01*
X270705Y30420D01*
X270625Y30224D01*
X270622Y30211D01*
X270617Y30198D01*
X270575Y29992D01*
X270530Y29783D01*
X270529Y29768D01*
X270527Y29757D01*
X270526Y29718D01*
X270511Y29472D01*
X270511Y24642D01*
X269931Y23241D01*
X261185Y14496D01*
X261101Y14396D01*
X261011Y14303D01*
X260957Y14223D01*
X260896Y14150D01*
X260831Y14037D01*
X260758Y13930D01*
X260720Y13842D01*
X260672Y13759D01*
X260629Y13637D01*
X260576Y13518D01*
X260554Y13425D01*
X260522Y13335D01*
X260500Y13207D01*
X260470Y13080D01*
X260464Y12985D01*
X260448Y12891D01*
X260450Y12761D01*
X260442Y12631D01*
X260453Y12536D01*
X260454Y12440D01*
X260479Y12313D01*
X260494Y12184D01*
X260522Y12092D01*
X260540Y11998D01*
X260587Y11877D01*
X260624Y11753D01*
X260668Y11668D01*
X260702Y11578D01*
X260770Y11467D01*
X260829Y11351D01*
X260886Y11275D01*
X260936Y11194D01*
X261022Y11096D01*
X261101Y10993D01*
X261171Y10928D01*
X261234Y10856D01*
X261336Y10776D01*
X261432Y10687D01*
X261512Y10636D01*
X261587Y10577D01*
X261702Y10516D01*
X261812Y10446D01*
X261900Y10409D01*
X261984Y10364D01*
X262108Y10324D01*
X262228Y10275D01*
X262322Y10255D01*
X262412Y10225D01*
X262541Y10207D01*
X262668Y10180D01*
X262798Y10172D01*
X262858Y10164D01*
X262903Y10165D01*
X262980Y10161D01*
X321220Y10161D01*
X321349Y10172D01*
G37*
%LPC*%
G36*
X29930Y246125D02*
X29930Y246125D01*
X27035Y247324D01*
X24820Y249539D01*
X23621Y252434D01*
X23621Y255566D01*
X24820Y258461D01*
X27035Y260676D01*
X29930Y261875D01*
X31750Y261875D01*
X31785Y261878D01*
X31819Y261876D01*
X32008Y261898D01*
X32199Y261915D01*
X32232Y261924D01*
X32266Y261928D01*
X32449Y261983D01*
X32633Y262033D01*
X32664Y262048D01*
X32697Y262058D01*
X32868Y262145D01*
X33040Y262227D01*
X33068Y262247D01*
X33099Y262262D01*
X33251Y262378D01*
X33406Y262489D01*
X33430Y262514D01*
X33457Y262534D01*
X33586Y262674D01*
X33720Y262811D01*
X33739Y262840D01*
X33763Y262866D01*
X33865Y263027D01*
X33972Y263184D01*
X33986Y263216D01*
X34004Y263245D01*
X34077Y263422D01*
X34154Y263596D01*
X34162Y263630D01*
X34175Y263662D01*
X34215Y263849D01*
X34261Y264034D01*
X34263Y264068D01*
X34270Y264102D01*
X34289Y264414D01*
X34289Y305558D01*
X34869Y306959D01*
X48641Y320731D01*
X50042Y321311D01*
X86270Y321311D01*
X86433Y321325D01*
X86598Y321332D01*
X86657Y321345D01*
X86718Y321351D01*
X86877Y321394D01*
X87037Y321430D01*
X87094Y321453D01*
X87153Y321469D01*
X87301Y321540D01*
X87453Y321603D01*
X87504Y321636D01*
X87559Y321663D01*
X87693Y321758D01*
X87831Y321848D01*
X87889Y321899D01*
X87925Y321925D01*
X87968Y321968D01*
X88065Y322054D01*
X112141Y346131D01*
X113542Y346711D01*
X127191Y346711D01*
X127355Y346725D01*
X127520Y346732D01*
X127579Y346745D01*
X127640Y346751D01*
X127799Y346794D01*
X127959Y346830D01*
X128016Y346853D01*
X128074Y346869D01*
X128222Y346940D01*
X128375Y347003D01*
X128426Y347036D01*
X128481Y347063D01*
X128614Y347158D01*
X128753Y347248D01*
X128811Y347299D01*
X128847Y347325D01*
X128890Y347368D01*
X128987Y347454D01*
X135228Y353696D01*
X144172Y353696D01*
X150496Y347372D01*
X150496Y338428D01*
X144172Y332104D01*
X135228Y332104D01*
X128987Y338346D01*
X128861Y338451D01*
X128740Y338563D01*
X128688Y338595D01*
X128642Y338634D01*
X128499Y338716D01*
X128360Y338804D01*
X128304Y338828D01*
X128251Y338858D01*
X128096Y338913D01*
X127944Y338975D01*
X127884Y338988D01*
X127826Y339009D01*
X127664Y339035D01*
X127503Y339070D01*
X127426Y339075D01*
X127382Y339082D01*
X127321Y339081D01*
X127191Y339089D01*
X116930Y339089D01*
X116767Y339075D01*
X116602Y339068D01*
X116543Y339055D01*
X116482Y339049D01*
X116323Y339006D01*
X116163Y338970D01*
X116106Y338947D01*
X116047Y338931D01*
X115899Y338860D01*
X115747Y338797D01*
X115696Y338764D01*
X115641Y338737D01*
X115507Y338642D01*
X115369Y338552D01*
X115311Y338501D01*
X115275Y338475D01*
X115232Y338432D01*
X115135Y338346D01*
X96085Y319296D01*
X96062Y319269D01*
X96037Y319246D01*
X95919Y319097D01*
X95796Y318950D01*
X95779Y318920D01*
X95757Y318893D01*
X95667Y318725D01*
X95572Y318559D01*
X95561Y318527D01*
X95544Y318496D01*
X95486Y318315D01*
X95422Y318135D01*
X95416Y318101D01*
X95405Y318068D01*
X95379Y317879D01*
X95348Y317691D01*
X95349Y317656D01*
X95344Y317622D01*
X95352Y317431D01*
X95354Y317240D01*
X95361Y317206D01*
X95362Y317172D01*
X95404Y316986D01*
X95440Y316798D01*
X95452Y316766D01*
X95460Y316732D01*
X95533Y316556D01*
X95602Y316378D01*
X95620Y316349D01*
X95633Y316317D01*
X95737Y316157D01*
X95836Y315994D01*
X95859Y315968D01*
X95878Y315939D01*
X96085Y315704D01*
X104831Y306959D01*
X105411Y305558D01*
X105411Y289814D01*
X105414Y289779D01*
X105412Y289745D01*
X105434Y289556D01*
X105451Y289365D01*
X105460Y289332D01*
X105464Y289298D01*
X105519Y289115D01*
X105569Y288931D01*
X105584Y288900D01*
X105594Y288867D01*
X105681Y288696D01*
X105763Y288524D01*
X105783Y288496D01*
X105798Y288465D01*
X105914Y288313D01*
X106025Y288158D01*
X106050Y288134D01*
X106070Y288107D01*
X106210Y287978D01*
X106347Y287844D01*
X106376Y287825D01*
X106402Y287801D01*
X106563Y287699D01*
X106720Y287592D01*
X106752Y287578D01*
X106781Y287560D01*
X106958Y287487D01*
X107132Y287410D01*
X107166Y287402D01*
X107198Y287389D01*
X107385Y287349D01*
X107570Y287303D01*
X107604Y287301D01*
X107638Y287294D01*
X107950Y287275D01*
X109770Y287275D01*
X112665Y286076D01*
X114880Y283861D01*
X116079Y280966D01*
X116079Y277834D01*
X114880Y274939D01*
X112665Y272724D01*
X109770Y271525D01*
X93430Y271525D01*
X90535Y272724D01*
X88320Y274939D01*
X87121Y277834D01*
X87121Y280966D01*
X88320Y283861D01*
X90535Y286076D01*
X93430Y287275D01*
X95250Y287275D01*
X95285Y287278D01*
X95319Y287276D01*
X95508Y287298D01*
X95699Y287315D01*
X95732Y287324D01*
X95766Y287328D01*
X95949Y287383D01*
X96133Y287433D01*
X96164Y287448D01*
X96197Y287458D01*
X96368Y287545D01*
X96540Y287627D01*
X96568Y287647D01*
X96599Y287662D01*
X96751Y287778D01*
X96906Y287889D01*
X96930Y287914D01*
X96957Y287934D01*
X97086Y288074D01*
X97220Y288211D01*
X97239Y288240D01*
X97263Y288266D01*
X97365Y288427D01*
X97472Y288584D01*
X97486Y288616D01*
X97504Y288645D01*
X97577Y288822D01*
X97654Y288996D01*
X97662Y289030D01*
X97675Y289062D01*
X97715Y289249D01*
X97761Y289434D01*
X97763Y289468D01*
X97770Y289502D01*
X97789Y289814D01*
X97789Y302170D01*
X97783Y302238D01*
X97784Y302244D01*
X97780Y302276D01*
X97775Y302333D01*
X97768Y302498D01*
X97755Y302557D01*
X97749Y302618D01*
X97733Y302678D01*
X97731Y302691D01*
X97712Y302756D01*
X97706Y302777D01*
X97670Y302937D01*
X97647Y302994D01*
X97631Y303053D01*
X97607Y303103D01*
X97601Y303122D01*
X97558Y303207D01*
X97497Y303353D01*
X97464Y303404D01*
X97437Y303459D01*
X97409Y303499D01*
X97397Y303523D01*
X97330Y303612D01*
X97252Y303731D01*
X97201Y303789D01*
X97175Y303825D01*
X97146Y303854D01*
X97125Y303882D01*
X97095Y303909D01*
X97046Y303965D01*
X88065Y312946D01*
X87939Y313051D01*
X87818Y313163D01*
X87767Y313195D01*
X87720Y313234D01*
X87577Y313316D01*
X87438Y313404D01*
X87382Y313428D01*
X87329Y313458D01*
X87174Y313513D01*
X87022Y313575D01*
X86962Y313588D01*
X86905Y313609D01*
X86742Y313635D01*
X86582Y313670D01*
X86505Y313675D01*
X86460Y313682D01*
X86399Y313681D01*
X86270Y313689D01*
X53430Y313689D01*
X53267Y313675D01*
X53102Y313668D01*
X53043Y313655D01*
X52982Y313649D01*
X52823Y313606D01*
X52663Y313570D01*
X52606Y313547D01*
X52547Y313531D01*
X52399Y313460D01*
X52247Y313397D01*
X52196Y313364D01*
X52141Y313337D01*
X52007Y313242D01*
X51869Y313152D01*
X51811Y313101D01*
X51775Y313075D01*
X51732Y313032D01*
X51635Y312946D01*
X42654Y303965D01*
X42570Y303865D01*
X42485Y303777D01*
X42467Y303750D01*
X42437Y303718D01*
X42405Y303667D01*
X42366Y303620D01*
X42293Y303492D01*
X42233Y303404D01*
X42223Y303381D01*
X42196Y303338D01*
X42172Y303282D01*
X42142Y303229D01*
X42088Y303076D01*
X42051Y302992D01*
X42047Y302975D01*
X42025Y302922D01*
X42012Y302862D01*
X41991Y302805D01*
X41965Y302642D01*
X41957Y302609D01*
X41944Y302555D01*
X41944Y302545D01*
X41930Y302482D01*
X41925Y302405D01*
X41918Y302360D01*
X41919Y302299D01*
X41911Y302170D01*
X41911Y264414D01*
X41914Y264379D01*
X41912Y264345D01*
X41934Y264156D01*
X41951Y263965D01*
X41960Y263932D01*
X41964Y263898D01*
X42019Y263715D01*
X42069Y263531D01*
X42084Y263500D01*
X42094Y263467D01*
X42181Y263296D01*
X42263Y263124D01*
X42283Y263096D01*
X42298Y263065D01*
X42414Y262913D01*
X42525Y262758D01*
X42550Y262734D01*
X42570Y262707D01*
X42710Y262578D01*
X42847Y262444D01*
X42876Y262425D01*
X42902Y262401D01*
X43063Y262299D01*
X43220Y262192D01*
X43252Y262178D01*
X43281Y262160D01*
X43458Y262087D01*
X43632Y262010D01*
X43666Y262002D01*
X43698Y261989D01*
X43885Y261949D01*
X44070Y261903D01*
X44104Y261901D01*
X44138Y261894D01*
X44450Y261875D01*
X46270Y261875D01*
X49165Y260676D01*
X51380Y258461D01*
X52579Y255566D01*
X52579Y252434D01*
X51380Y249539D01*
X49165Y247324D01*
X46270Y246125D01*
X29930Y246125D01*
G37*
%LPD*%
%LPC*%
G36*
X479338Y347725D02*
X479338Y347725D01*
X476018Y351046D01*
X475892Y351151D01*
X475771Y351263D01*
X475719Y351295D01*
X475673Y351334D01*
X475530Y351416D01*
X475391Y351504D01*
X475335Y351528D01*
X475282Y351558D01*
X475127Y351613D01*
X474975Y351675D01*
X474915Y351688D01*
X474857Y351709D01*
X474695Y351735D01*
X474534Y351770D01*
X474457Y351775D01*
X474413Y351782D01*
X474352Y351781D01*
X474222Y351789D01*
X469142Y351789D01*
X467741Y352369D01*
X460429Y359682D01*
X460303Y359787D01*
X460182Y359899D01*
X460131Y359931D01*
X460084Y359970D01*
X459941Y360052D01*
X459802Y360140D01*
X459746Y360164D01*
X459693Y360194D01*
X459538Y360249D01*
X459386Y360311D01*
X459326Y360324D01*
X459269Y360345D01*
X459106Y360371D01*
X458946Y360406D01*
X458869Y360411D01*
X458824Y360418D01*
X458763Y360417D01*
X458634Y360425D01*
X453938Y360425D01*
X449325Y365038D01*
X449325Y371562D01*
X452646Y374882D01*
X452751Y375008D01*
X452863Y375129D01*
X452895Y375181D01*
X452934Y375227D01*
X453016Y375370D01*
X453104Y375509D01*
X453128Y375565D01*
X453158Y375618D01*
X453213Y375773D01*
X453275Y375925D01*
X453288Y375985D01*
X453309Y376043D01*
X453335Y376205D01*
X453370Y376366D01*
X453375Y376443D01*
X453382Y376487D01*
X453381Y376548D01*
X453389Y376678D01*
X453389Y416470D01*
X453387Y416492D01*
X453388Y416510D01*
X453377Y416605D01*
X453375Y416633D01*
X453368Y416798D01*
X453355Y416857D01*
X453349Y416918D01*
X453306Y417077D01*
X453270Y417237D01*
X453247Y417294D01*
X453231Y417353D01*
X453160Y417501D01*
X453097Y417653D01*
X453064Y417704D01*
X453037Y417759D01*
X452942Y417893D01*
X452852Y418031D01*
X452801Y418089D01*
X452775Y418125D01*
X452732Y418168D01*
X452646Y418265D01*
X441269Y429641D01*
X440689Y431042D01*
X440689Y441870D01*
X440688Y441889D01*
X440688Y441902D01*
X440680Y441973D01*
X440675Y442033D01*
X440668Y442198D01*
X440655Y442257D01*
X440649Y442318D01*
X440606Y442477D01*
X440570Y442637D01*
X440547Y442694D01*
X440531Y442753D01*
X440460Y442901D01*
X440397Y443053D01*
X440364Y443104D01*
X440337Y443159D01*
X440242Y443293D01*
X440152Y443431D01*
X440101Y443489D01*
X440075Y443525D01*
X440032Y443568D01*
X439946Y443665D01*
X422329Y461282D01*
X422203Y461387D01*
X422082Y461499D01*
X422031Y461531D01*
X421984Y461570D01*
X421841Y461652D01*
X421702Y461740D01*
X421646Y461764D01*
X421593Y461794D01*
X421438Y461849D01*
X421286Y461911D01*
X421226Y461924D01*
X421169Y461945D01*
X421006Y461971D01*
X420846Y462006D01*
X420769Y462011D01*
X420724Y462018D01*
X420663Y462017D01*
X420534Y462025D01*
X415838Y462025D01*
X411225Y466638D01*
X411225Y473162D01*
X415838Y477775D01*
X422362Y477775D01*
X426975Y473162D01*
X426975Y468466D01*
X426989Y468303D01*
X426996Y468138D01*
X427009Y468079D01*
X427015Y468018D01*
X427058Y467859D01*
X427094Y467699D01*
X427117Y467642D01*
X427133Y467583D01*
X427204Y467435D01*
X427267Y467283D01*
X427300Y467232D01*
X427327Y467177D01*
X427422Y467043D01*
X427512Y466905D01*
X427563Y466847D01*
X427589Y466811D01*
X427632Y466768D01*
X427718Y466671D01*
X447731Y446659D01*
X448311Y445258D01*
X448311Y434430D01*
X448325Y434267D01*
X448332Y434102D01*
X448345Y434043D01*
X448351Y433982D01*
X448394Y433823D01*
X448430Y433663D01*
X448453Y433606D01*
X448469Y433547D01*
X448540Y433399D01*
X448603Y433247D01*
X448636Y433196D01*
X448663Y433141D01*
X448758Y433007D01*
X448848Y432869D01*
X448899Y432811D01*
X448925Y432775D01*
X448968Y432732D01*
X449054Y432635D01*
X468104Y413585D01*
X468131Y413562D01*
X468154Y413537D01*
X468303Y413419D01*
X468450Y413296D01*
X468480Y413279D01*
X468507Y413257D01*
X468675Y413167D01*
X468841Y413072D01*
X468873Y413061D01*
X468904Y413044D01*
X469085Y412986D01*
X469265Y412922D01*
X469299Y412916D01*
X469332Y412905D01*
X469521Y412879D01*
X469709Y412848D01*
X469744Y412849D01*
X469778Y412844D01*
X469969Y412852D01*
X470160Y412854D01*
X470194Y412861D01*
X470228Y412862D01*
X470414Y412904D01*
X470602Y412940D01*
X470634Y412952D01*
X470668Y412960D01*
X470844Y413033D01*
X471022Y413102D01*
X471051Y413120D01*
X471083Y413133D01*
X471243Y413237D01*
X471406Y413336D01*
X471432Y413359D01*
X471461Y413378D01*
X471696Y413585D01*
X486682Y428571D01*
X486787Y428697D01*
X486899Y428818D01*
X486931Y428869D01*
X486970Y428916D01*
X487052Y429059D01*
X487140Y429198D01*
X487164Y429254D01*
X487194Y429307D01*
X487249Y429462D01*
X487311Y429614D01*
X487324Y429674D01*
X487345Y429731D01*
X487371Y429894D01*
X487406Y430054D01*
X487411Y430131D01*
X487418Y430176D01*
X487417Y430237D01*
X487425Y430366D01*
X487425Y435062D01*
X492038Y439675D01*
X498562Y439675D01*
X503175Y435062D01*
X503175Y428538D01*
X498562Y423925D01*
X493866Y423925D01*
X493703Y423911D01*
X493538Y423904D01*
X493479Y423891D01*
X493418Y423885D01*
X493259Y423842D01*
X493099Y423806D01*
X493042Y423783D01*
X492983Y423767D01*
X492835Y423696D01*
X492683Y423633D01*
X492632Y423600D01*
X492577Y423573D01*
X492443Y423478D01*
X492305Y423388D01*
X492247Y423337D01*
X492211Y423311D01*
X492168Y423268D01*
X492071Y423182D01*
X473488Y404599D01*
X473488Y404598D01*
X472059Y403169D01*
X470658Y402589D01*
X469142Y402589D01*
X467741Y403169D01*
X465346Y405565D01*
X465246Y405649D01*
X465153Y405739D01*
X465073Y405793D01*
X465000Y405854D01*
X464887Y405919D01*
X464780Y405992D01*
X464692Y406030D01*
X464609Y406078D01*
X464487Y406121D01*
X464368Y406174D01*
X464275Y406196D01*
X464185Y406228D01*
X464057Y406250D01*
X463930Y406280D01*
X463835Y406286D01*
X463741Y406302D01*
X463611Y406300D01*
X463481Y406308D01*
X463386Y406297D01*
X463290Y406296D01*
X463163Y406271D01*
X463034Y406256D01*
X462942Y406228D01*
X462848Y406210D01*
X462727Y406163D01*
X462603Y406126D01*
X462517Y406082D01*
X462428Y406048D01*
X462317Y405980D01*
X462201Y405921D01*
X462125Y405864D01*
X462044Y405814D01*
X461946Y405728D01*
X461843Y405649D01*
X461778Y405579D01*
X461706Y405516D01*
X461626Y405414D01*
X461537Y405318D01*
X461486Y405238D01*
X461427Y405163D01*
X461366Y405048D01*
X461296Y404938D01*
X461259Y404850D01*
X461214Y404766D01*
X461174Y404642D01*
X461125Y404522D01*
X461105Y404428D01*
X461075Y404338D01*
X461057Y404209D01*
X461030Y404082D01*
X461022Y403952D01*
X461014Y403892D01*
X461015Y403847D01*
X461011Y403770D01*
X461011Y376678D01*
X461025Y376514D01*
X461032Y376349D01*
X461045Y376290D01*
X461051Y376229D01*
X461094Y376070D01*
X461130Y375910D01*
X461153Y375854D01*
X461169Y375795D01*
X461240Y375646D01*
X461303Y375494D01*
X461336Y375443D01*
X461363Y375388D01*
X461458Y375254D01*
X461548Y375116D01*
X461599Y375058D01*
X461625Y375022D01*
X461668Y374979D01*
X461754Y374882D01*
X465075Y371562D01*
X465075Y366866D01*
X465089Y366703D01*
X465096Y366538D01*
X465109Y366479D01*
X465115Y366418D01*
X465158Y366259D01*
X465194Y366099D01*
X465217Y366042D01*
X465233Y365983D01*
X465304Y365835D01*
X465367Y365683D01*
X465400Y365632D01*
X465427Y365577D01*
X465522Y365443D01*
X465612Y365305D01*
X465663Y365247D01*
X465689Y365211D01*
X465732Y365168D01*
X465818Y365071D01*
X470735Y360154D01*
X470861Y360049D01*
X470982Y359937D01*
X471033Y359905D01*
X471080Y359866D01*
X471223Y359784D01*
X471362Y359696D01*
X471418Y359672D01*
X471471Y359642D01*
X471626Y359587D01*
X471778Y359525D01*
X471838Y359512D01*
X471895Y359491D01*
X472058Y359465D01*
X472218Y359430D01*
X472295Y359425D01*
X472340Y359418D01*
X472401Y359419D01*
X472530Y359411D01*
X474222Y359411D01*
X474386Y359425D01*
X474551Y359432D01*
X474610Y359445D01*
X474671Y359451D01*
X474830Y359494D01*
X474990Y359530D01*
X475046Y359553D01*
X475105Y359569D01*
X475254Y359640D01*
X475406Y359703D01*
X475457Y359736D01*
X475512Y359763D01*
X475646Y359858D01*
X475784Y359948D01*
X475842Y359999D01*
X475878Y360025D01*
X475921Y360068D01*
X476018Y360154D01*
X479338Y363475D01*
X485862Y363475D01*
X490475Y358862D01*
X490475Y352338D01*
X485862Y347725D01*
X479338Y347725D01*
G37*
%LPD*%
G36*
X273206Y355702D02*
X273206Y355702D01*
X273294Y355703D01*
X273429Y355728D01*
X273566Y355744D01*
X273650Y355769D01*
X273737Y355786D01*
X273865Y355834D01*
X273997Y355874D01*
X274076Y355914D01*
X274158Y355945D01*
X274276Y356016D01*
X274399Y356079D01*
X274468Y356132D01*
X274544Y356177D01*
X274648Y356267D01*
X274757Y356351D01*
X274817Y356415D01*
X274883Y356473D01*
X274969Y356580D01*
X275062Y356682D01*
X275110Y356756D01*
X275164Y356824D01*
X275279Y357021D01*
X275304Y357062D01*
X275310Y357075D01*
X275321Y357095D01*
X275397Y357287D01*
X275475Y357478D01*
X275479Y357496D01*
X275486Y357514D01*
X275526Y357716D01*
X275570Y357918D01*
X275571Y357941D01*
X275574Y357955D01*
X275575Y358003D01*
X275589Y358230D01*
X275589Y419858D01*
X276169Y421259D01*
X328041Y473131D01*
X329442Y473711D01*
X334522Y473711D01*
X334729Y473729D01*
X334934Y473744D01*
X334952Y473749D01*
X334971Y473751D01*
X335170Y473805D01*
X335370Y473857D01*
X335391Y473865D01*
X335405Y473869D01*
X335448Y473890D01*
X335658Y473979D01*
X335733Y474025D01*
X335812Y474063D01*
X335924Y474143D01*
X336041Y474215D01*
X336107Y474274D01*
X336178Y474325D01*
X336274Y474424D01*
X336377Y474515D01*
X336431Y474584D01*
X336492Y474647D01*
X336569Y474762D01*
X336654Y474870D01*
X336695Y474948D01*
X336744Y475020D01*
X336800Y475147D01*
X336864Y475268D01*
X336891Y475352D01*
X336926Y475432D01*
X336959Y475566D01*
X337001Y475697D01*
X337012Y475785D01*
X337033Y475870D01*
X337042Y476007D01*
X337059Y476144D01*
X337055Y476232D01*
X337061Y476319D01*
X337045Y476456D01*
X337038Y476594D01*
X337019Y476679D01*
X337009Y476766D01*
X336969Y476898D01*
X336938Y477033D01*
X336904Y477113D01*
X336878Y477197D01*
X336816Y477320D01*
X336762Y477447D01*
X336714Y477520D01*
X336674Y477599D01*
X336591Y477709D01*
X336515Y477824D01*
X336455Y477887D01*
X336402Y477957D01*
X336301Y478051D01*
X336206Y478151D01*
X336136Y478203D01*
X336071Y478263D01*
X335955Y478337D01*
X335844Y478418D01*
X335765Y478457D01*
X335691Y478504D01*
X335563Y478557D01*
X335440Y478618D01*
X335356Y478642D01*
X335275Y478675D01*
X335140Y478704D01*
X335007Y478743D01*
X334920Y478752D01*
X334834Y478770D01*
X334607Y478784D01*
X334560Y478789D01*
X334545Y478788D01*
X334522Y478789D01*
X320130Y478789D01*
X319967Y478775D01*
X319802Y478768D01*
X319743Y478755D01*
X319682Y478749D01*
X319523Y478706D01*
X319363Y478670D01*
X319306Y478647D01*
X319247Y478631D01*
X319099Y478560D01*
X318947Y478497D01*
X318896Y478464D01*
X318841Y478437D01*
X318707Y478342D01*
X318569Y478252D01*
X318511Y478201D01*
X318475Y478175D01*
X318432Y478132D01*
X318335Y478046D01*
X271254Y430965D01*
X271149Y430839D01*
X271037Y430718D01*
X271005Y430667D01*
X270966Y430620D01*
X270884Y430477D01*
X270796Y430338D01*
X270772Y430282D01*
X270742Y430229D01*
X270687Y430074D01*
X270625Y429922D01*
X270612Y429862D01*
X270591Y429805D01*
X270565Y429642D01*
X270530Y429482D01*
X270525Y429405D01*
X270518Y429360D01*
X270519Y429299D01*
X270511Y429170D01*
X270511Y358230D01*
X270519Y358143D01*
X270517Y358055D01*
X270538Y357919D01*
X270551Y357782D01*
X270574Y357697D01*
X270588Y357610D01*
X270633Y357480D01*
X270669Y357347D01*
X270707Y357268D01*
X270736Y357185D01*
X270803Y357065D01*
X270863Y356941D01*
X270914Y356869D01*
X270957Y356793D01*
X271044Y356687D01*
X271125Y356575D01*
X271188Y356513D01*
X271243Y356446D01*
X271349Y356357D01*
X271447Y356261D01*
X271520Y356211D01*
X271587Y356155D01*
X271706Y356086D01*
X271820Y356008D01*
X271901Y355973D01*
X271977Y355929D01*
X272106Y355882D01*
X272232Y355826D01*
X272318Y355805D01*
X272400Y355776D01*
X272536Y355752D01*
X272670Y355720D01*
X272757Y355714D01*
X272844Y355699D01*
X272981Y355700D01*
X273119Y355692D01*
X273206Y355702D01*
G37*
G36*
X260556Y424955D02*
X260556Y424955D01*
X260694Y424962D01*
X260779Y424981D01*
X260866Y424991D01*
X260998Y425031D01*
X261133Y425062D01*
X261213Y425096D01*
X261297Y425122D01*
X261420Y425184D01*
X261547Y425238D01*
X261620Y425286D01*
X261699Y425326D01*
X261809Y425409D01*
X261924Y425485D01*
X261987Y425545D01*
X262057Y425598D01*
X262151Y425699D01*
X262251Y425794D01*
X262303Y425864D01*
X262363Y425929D01*
X262437Y426045D01*
X262518Y426156D01*
X262557Y426235D01*
X262604Y426309D01*
X262657Y426437D01*
X262718Y426560D01*
X262742Y426644D01*
X262775Y426725D01*
X262804Y426860D01*
X262843Y426993D01*
X262852Y427080D01*
X262870Y427166D01*
X262884Y427393D01*
X262889Y427440D01*
X262888Y427455D01*
X262889Y427478D01*
X262889Y432558D01*
X263469Y433959D01*
X264899Y435388D01*
X313912Y484401D01*
X313912Y484402D01*
X315341Y485831D01*
X316742Y486411D01*
X334522Y486411D01*
X334610Y486419D01*
X334698Y486417D01*
X334834Y486438D01*
X334971Y486451D01*
X335056Y486474D01*
X335142Y486488D01*
X335272Y486533D01*
X335405Y486569D01*
X335485Y486607D01*
X335567Y486636D01*
X335688Y486703D01*
X335812Y486763D01*
X335883Y486814D01*
X335960Y486857D01*
X336066Y486944D01*
X336178Y487025D01*
X336239Y487088D01*
X336307Y487143D01*
X336396Y487249D01*
X336492Y487347D01*
X336541Y487420D01*
X336598Y487487D01*
X336667Y487606D01*
X336744Y487720D01*
X336780Y487801D01*
X336824Y487877D01*
X336871Y488006D01*
X336926Y488132D01*
X336947Y488218D01*
X336977Y488300D01*
X337000Y488436D01*
X337033Y488570D01*
X337038Y488657D01*
X337053Y488744D01*
X337052Y488881D01*
X337061Y489019D01*
X337051Y489106D01*
X337050Y489194D01*
X337025Y489329D01*
X337009Y489466D01*
X336983Y489550D01*
X336967Y489637D01*
X336918Y489765D01*
X336878Y489897D01*
X336838Y489976D01*
X336807Y490058D01*
X336737Y490176D01*
X336674Y490299D01*
X336621Y490368D01*
X336576Y490444D01*
X336485Y490548D01*
X336402Y490657D01*
X336338Y490717D01*
X336280Y490783D01*
X336172Y490869D01*
X336071Y490962D01*
X335997Y491010D01*
X335928Y491064D01*
X335732Y491179D01*
X335703Y491197D01*
X335691Y491204D01*
X335677Y491210D01*
X335658Y491221D01*
X335465Y491297D01*
X335274Y491375D01*
X335256Y491379D01*
X335239Y491386D01*
X335037Y491426D01*
X334834Y491470D01*
X334812Y491471D01*
X334797Y491474D01*
X334749Y491475D01*
X334522Y491489D01*
X307430Y491489D01*
X307267Y491475D01*
X307102Y491468D01*
X307043Y491455D01*
X306982Y491449D01*
X306823Y491406D01*
X306663Y491370D01*
X306606Y491347D01*
X306547Y491331D01*
X306399Y491260D01*
X306247Y491197D01*
X306196Y491164D01*
X306141Y491137D01*
X306007Y491042D01*
X305869Y490952D01*
X305811Y490901D01*
X305775Y490875D01*
X305732Y490832D01*
X305635Y490746D01*
X258554Y443665D01*
X258449Y443539D01*
X258337Y443418D01*
X258305Y443367D01*
X258266Y443320D01*
X258184Y443177D01*
X258096Y443038D01*
X258072Y442982D01*
X258042Y442929D01*
X257987Y442774D01*
X257925Y442622D01*
X257912Y442562D01*
X257891Y442505D01*
X257865Y442342D01*
X257830Y442182D01*
X257825Y442105D01*
X257818Y442060D01*
X257819Y441999D01*
X257811Y441870D01*
X257811Y427478D01*
X257829Y427271D01*
X257844Y427066D01*
X257849Y427048D01*
X257851Y427029D01*
X257905Y426830D01*
X257957Y426630D01*
X257965Y426609D01*
X257969Y426595D01*
X257990Y426552D01*
X258079Y426342D01*
X258125Y426267D01*
X258163Y426188D01*
X258243Y426076D01*
X258315Y425959D01*
X258374Y425893D01*
X258425Y425822D01*
X258524Y425726D01*
X258615Y425623D01*
X258684Y425569D01*
X258747Y425508D01*
X258862Y425431D01*
X258970Y425346D01*
X259048Y425305D01*
X259120Y425256D01*
X259247Y425200D01*
X259368Y425136D01*
X259452Y425109D01*
X259532Y425074D01*
X259666Y425041D01*
X259797Y424999D01*
X259885Y424988D01*
X259970Y424967D01*
X260107Y424958D01*
X260244Y424941D01*
X260332Y424945D01*
X260419Y424939D01*
X260556Y424955D01*
G37*
%LPC*%
G36*
X123738Y487425D02*
X123738Y487425D01*
X119125Y492038D01*
X119125Y498562D01*
X123738Y503175D01*
X130262Y503175D01*
X133582Y499854D01*
X133708Y499749D01*
X133829Y499637D01*
X133881Y499605D01*
X133927Y499566D01*
X134070Y499484D01*
X134209Y499396D01*
X134266Y499372D01*
X134318Y499342D01*
X134473Y499287D01*
X134626Y499225D01*
X134685Y499212D01*
X134743Y499191D01*
X134905Y499165D01*
X135066Y499130D01*
X135143Y499125D01*
X135187Y499118D01*
X135248Y499119D01*
X135378Y499111D01*
X169422Y499111D01*
X169586Y499125D01*
X169751Y499132D01*
X169810Y499145D01*
X169871Y499151D01*
X170030Y499194D01*
X170190Y499230D01*
X170246Y499253D01*
X170305Y499269D01*
X170453Y499340D01*
X170606Y499403D01*
X170657Y499436D01*
X170712Y499463D01*
X170845Y499558D01*
X170984Y499648D01*
X171042Y499699D01*
X171078Y499725D01*
X171120Y499768D01*
X171218Y499854D01*
X174538Y503175D01*
X181062Y503175D01*
X185675Y498562D01*
X185675Y492038D01*
X181062Y487425D01*
X174538Y487425D01*
X171218Y490746D01*
X171092Y490851D01*
X170971Y490963D01*
X170919Y490995D01*
X170873Y491034D01*
X170730Y491116D01*
X170591Y491204D01*
X170534Y491228D01*
X170482Y491258D01*
X170327Y491313D01*
X170174Y491375D01*
X170115Y491388D01*
X170057Y491409D01*
X169895Y491435D01*
X169734Y491470D01*
X169657Y491475D01*
X169613Y491482D01*
X169552Y491481D01*
X169422Y491489D01*
X135378Y491489D01*
X135214Y491475D01*
X135049Y491468D01*
X134990Y491455D01*
X134929Y491449D01*
X134770Y491406D01*
X134610Y491370D01*
X134554Y491347D01*
X134495Y491331D01*
X134347Y491260D01*
X134194Y491197D01*
X134143Y491164D01*
X134088Y491137D01*
X133955Y491042D01*
X133816Y490952D01*
X133758Y490901D01*
X133722Y490875D01*
X133680Y490832D01*
X133582Y490746D01*
X130262Y487425D01*
X123738Y487425D01*
G37*
%LPD*%
%LPC*%
G36*
X301538Y411225D02*
X301538Y411225D01*
X296925Y415838D01*
X296925Y422362D01*
X301538Y426975D01*
X308062Y426975D01*
X311382Y423654D01*
X311508Y423549D01*
X311629Y423437D01*
X311681Y423405D01*
X311727Y423366D01*
X311870Y423284D01*
X312009Y423196D01*
X312066Y423172D01*
X312118Y423142D01*
X312273Y423087D01*
X312426Y423025D01*
X312485Y423012D01*
X312543Y422991D01*
X312705Y422965D01*
X312866Y422930D01*
X312943Y422925D01*
X312987Y422918D01*
X313048Y422919D01*
X313178Y422911D01*
X314870Y422911D01*
X315033Y422925D01*
X315198Y422932D01*
X315257Y422945D01*
X315318Y422951D01*
X315477Y422994D01*
X315637Y423030D01*
X315694Y423053D01*
X315753Y423069D01*
X315901Y423140D01*
X316053Y423203D01*
X316104Y423236D01*
X316159Y423263D01*
X316293Y423358D01*
X316431Y423448D01*
X316489Y423499D01*
X316525Y423525D01*
X316568Y423568D01*
X316665Y423654D01*
X334282Y441271D01*
X334387Y441397D01*
X334499Y441518D01*
X334531Y441569D01*
X334570Y441616D01*
X334652Y441759D01*
X334740Y441898D01*
X334764Y441954D01*
X334794Y442007D01*
X334849Y442162D01*
X334911Y442314D01*
X334924Y442374D01*
X334945Y442431D01*
X334971Y442594D01*
X335006Y442754D01*
X335011Y442831D01*
X335018Y442876D01*
X335017Y442937D01*
X335025Y443066D01*
X335025Y447762D01*
X339638Y452375D01*
X346162Y452375D01*
X350775Y447762D01*
X350775Y441238D01*
X346162Y436625D01*
X341466Y436625D01*
X341303Y436611D01*
X341138Y436604D01*
X341079Y436591D01*
X341018Y436585D01*
X340859Y436542D01*
X340699Y436506D01*
X340642Y436483D01*
X340583Y436467D01*
X340435Y436396D01*
X340283Y436333D01*
X340232Y436300D01*
X340177Y436273D01*
X340043Y436178D01*
X339905Y436088D01*
X339847Y436037D01*
X339811Y436011D01*
X339768Y435968D01*
X339671Y435882D01*
X319659Y415869D01*
X318258Y415289D01*
X313178Y415289D01*
X313014Y415275D01*
X312849Y415268D01*
X312790Y415255D01*
X312729Y415249D01*
X312570Y415206D01*
X312410Y415170D01*
X312354Y415147D01*
X312295Y415131D01*
X312147Y415060D01*
X311994Y414997D01*
X311943Y414964D01*
X311888Y414937D01*
X311755Y414842D01*
X311616Y414752D01*
X311558Y414701D01*
X311522Y414675D01*
X311480Y414632D01*
X311382Y414546D01*
X308062Y411225D01*
X301538Y411225D01*
G37*
%LPD*%
G36*
X365833Y486425D02*
X365833Y486425D01*
X365998Y486432D01*
X366057Y486445D01*
X366118Y486451D01*
X366277Y486494D01*
X366437Y486530D01*
X366494Y486553D01*
X366553Y486569D01*
X366701Y486640D01*
X366853Y486703D01*
X366904Y486736D01*
X366959Y486763D01*
X367093Y486858D01*
X367231Y486948D01*
X367289Y486999D01*
X367325Y487025D01*
X367368Y487068D01*
X367465Y487154D01*
X378841Y498531D01*
X380242Y499111D01*
X410722Y499111D01*
X410929Y499129D01*
X411134Y499144D01*
X411152Y499149D01*
X411171Y499151D01*
X411370Y499205D01*
X411570Y499257D01*
X411591Y499265D01*
X411605Y499269D01*
X411648Y499290D01*
X411858Y499379D01*
X411933Y499425D01*
X412012Y499463D01*
X412124Y499543D01*
X412241Y499615D01*
X412307Y499674D01*
X412378Y499725D01*
X412474Y499824D01*
X412577Y499915D01*
X412631Y499984D01*
X412692Y500047D01*
X412769Y500162D01*
X412854Y500270D01*
X412895Y500348D01*
X412944Y500420D01*
X413000Y500547D01*
X413064Y500668D01*
X413091Y500752D01*
X413126Y500832D01*
X413159Y500966D01*
X413201Y501097D01*
X413212Y501185D01*
X413233Y501270D01*
X413242Y501407D01*
X413259Y501544D01*
X413255Y501632D01*
X413261Y501719D01*
X413245Y501856D01*
X413238Y501994D01*
X413219Y502079D01*
X413209Y502166D01*
X413169Y502298D01*
X413138Y502433D01*
X413104Y502513D01*
X413078Y502597D01*
X413016Y502720D01*
X412962Y502847D01*
X412914Y502920D01*
X412874Y502999D01*
X412791Y503109D01*
X412715Y503224D01*
X412655Y503287D01*
X412602Y503357D01*
X412501Y503451D01*
X412406Y503551D01*
X412336Y503603D01*
X412271Y503663D01*
X412155Y503737D01*
X412044Y503818D01*
X411965Y503857D01*
X411891Y503904D01*
X411763Y503957D01*
X411640Y504018D01*
X411556Y504042D01*
X411475Y504075D01*
X411340Y504104D01*
X411207Y504143D01*
X411120Y504152D01*
X411034Y504170D01*
X410807Y504184D01*
X410760Y504189D01*
X410745Y504188D01*
X410722Y504189D01*
X351278Y504189D01*
X351148Y504178D01*
X351018Y504176D01*
X350924Y504158D01*
X350829Y504149D01*
X350703Y504115D01*
X350576Y504090D01*
X350487Y504056D01*
X350395Y504031D01*
X350277Y503975D01*
X350156Y503928D01*
X350074Y503878D01*
X349988Y503837D01*
X349882Y503762D01*
X349771Y503694D01*
X349700Y503631D01*
X349622Y503575D01*
X349531Y503482D01*
X349434Y503396D01*
X349375Y503321D01*
X349308Y503253D01*
X349235Y503145D01*
X349154Y503043D01*
X349109Y502959D01*
X349056Y502880D01*
X349003Y502761D01*
X348942Y502646D01*
X348912Y502555D01*
X348874Y502468D01*
X348843Y502341D01*
X348803Y502218D01*
X348790Y502123D01*
X348767Y502030D01*
X348759Y501901D01*
X348741Y501772D01*
X348745Y501676D01*
X348739Y501581D01*
X348754Y501452D01*
X348760Y501322D01*
X348780Y501229D01*
X348791Y501134D01*
X348829Y501009D01*
X348857Y500882D01*
X348894Y500794D01*
X348922Y500703D01*
X348981Y500587D01*
X349031Y500467D01*
X349083Y500387D01*
X349126Y500301D01*
X349205Y500198D01*
X349275Y500089D01*
X349361Y499991D01*
X349398Y499943D01*
X349431Y499912D01*
X349482Y499854D01*
X350775Y498562D01*
X350775Y492038D01*
X349482Y490746D01*
X349399Y490646D01*
X349308Y490553D01*
X349254Y490473D01*
X349193Y490400D01*
X349129Y490287D01*
X349056Y490180D01*
X349017Y490092D01*
X348970Y490009D01*
X348926Y489887D01*
X348874Y489768D01*
X348851Y489675D01*
X348819Y489585D01*
X348798Y489457D01*
X348767Y489330D01*
X348761Y489235D01*
X348745Y489141D01*
X348747Y489011D01*
X348739Y488881D01*
X348750Y488786D01*
X348752Y488690D01*
X348776Y488563D01*
X348791Y488434D01*
X348819Y488342D01*
X348837Y488248D01*
X348884Y488127D01*
X348922Y488003D01*
X348965Y487917D01*
X348999Y487828D01*
X349067Y487717D01*
X349126Y487601D01*
X349184Y487525D01*
X349233Y487444D01*
X349319Y487346D01*
X349398Y487243D01*
X349468Y487178D01*
X349532Y487106D01*
X349633Y487026D01*
X349729Y486937D01*
X349810Y486886D01*
X349885Y486827D01*
X349999Y486765D01*
X350109Y486696D01*
X350197Y486659D01*
X350281Y486614D01*
X350405Y486574D01*
X350525Y486525D01*
X350619Y486505D01*
X350710Y486475D01*
X350838Y486457D01*
X350966Y486430D01*
X351095Y486422D01*
X351156Y486414D01*
X351201Y486415D01*
X351278Y486411D01*
X365670Y486411D01*
X365833Y486425D01*
G37*
G36*
X372752Y257822D02*
X372752Y257822D01*
X372882Y257824D01*
X372976Y257842D01*
X373071Y257851D01*
X373196Y257885D01*
X373324Y257910D01*
X373413Y257944D01*
X373505Y257969D01*
X373623Y258025D01*
X373744Y258072D01*
X373826Y258122D01*
X373912Y258163D01*
X374017Y258238D01*
X374129Y258306D01*
X374200Y258369D01*
X374278Y258425D01*
X374369Y258518D01*
X374466Y258604D01*
X374525Y258679D01*
X374592Y258747D01*
X374665Y258855D01*
X374746Y258957D01*
X374791Y259041D01*
X374844Y259120D01*
X374897Y259239D01*
X374958Y259354D01*
X374988Y259445D01*
X375026Y259532D01*
X375057Y259659D01*
X375097Y259782D01*
X375110Y259877D01*
X375133Y259970D01*
X375141Y260099D01*
X375159Y260228D01*
X375155Y260324D01*
X375161Y260419D01*
X375146Y260548D01*
X375140Y260678D01*
X375120Y260771D01*
X375109Y260866D01*
X375071Y260991D01*
X375043Y261118D01*
X375006Y261206D01*
X374978Y261297D01*
X374919Y261413D01*
X374869Y261533D01*
X374817Y261614D01*
X374774Y261699D01*
X374696Y261802D01*
X374625Y261911D01*
X374539Y262009D01*
X374520Y262033D01*
X374502Y262057D01*
X374469Y262088D01*
X374418Y262146D01*
X374292Y262251D01*
X374171Y262363D01*
X374119Y262395D01*
X374073Y262434D01*
X373930Y262516D01*
X373791Y262604D01*
X373735Y262628D01*
X373682Y262658D01*
X373527Y262713D01*
X373375Y262775D01*
X373315Y262788D01*
X373257Y262809D01*
X373095Y262835D01*
X372934Y262870D01*
X372857Y262875D01*
X372813Y262882D01*
X372752Y262881D01*
X372622Y262889D01*
X300478Y262889D01*
X300348Y262878D01*
X300218Y262876D01*
X300124Y262858D01*
X300029Y262849D01*
X299904Y262815D01*
X299776Y262790D01*
X299687Y262756D01*
X299595Y262731D01*
X299477Y262675D01*
X299356Y262628D01*
X299274Y262578D01*
X299188Y262537D01*
X299083Y262462D01*
X298971Y262394D01*
X298900Y262331D01*
X298822Y262275D01*
X298731Y262182D01*
X298634Y262096D01*
X298575Y262021D01*
X298508Y261953D01*
X298435Y261845D01*
X298354Y261743D01*
X298309Y261659D01*
X298256Y261580D01*
X298203Y261461D01*
X298142Y261346D01*
X298112Y261255D01*
X298074Y261168D01*
X298043Y261041D01*
X298003Y260918D01*
X297990Y260823D01*
X297967Y260730D01*
X297959Y260601D01*
X297941Y260472D01*
X297945Y260376D01*
X297939Y260281D01*
X297954Y260152D01*
X297960Y260022D01*
X297980Y259929D01*
X297991Y259834D01*
X298029Y259709D01*
X298057Y259582D01*
X298094Y259494D01*
X298122Y259403D01*
X298181Y259287D01*
X298231Y259167D01*
X298283Y259086D01*
X298326Y259001D01*
X298404Y258898D01*
X298475Y258789D01*
X298561Y258691D01*
X298598Y258643D01*
X298627Y258616D01*
X298631Y258612D01*
X298682Y258554D01*
X298808Y258449D01*
X298929Y258337D01*
X298981Y258305D01*
X299027Y258266D01*
X299170Y258184D01*
X299309Y258096D01*
X299365Y258072D01*
X299418Y258042D01*
X299573Y257987D01*
X299725Y257925D01*
X299785Y257912D01*
X299843Y257891D01*
X300005Y257865D01*
X300166Y257830D01*
X300243Y257825D01*
X300287Y257818D01*
X300348Y257819D01*
X300478Y257811D01*
X372622Y257811D01*
X372752Y257822D01*
G37*
G36*
X29249Y10172D02*
X29249Y10172D01*
X29379Y10174D01*
X29473Y10192D01*
X29568Y10201D01*
X29694Y10235D01*
X29821Y10260D01*
X29911Y10294D01*
X30003Y10319D01*
X30120Y10375D01*
X30241Y10422D01*
X30323Y10472D01*
X30409Y10513D01*
X30515Y10588D01*
X30626Y10656D01*
X30698Y10719D01*
X30775Y10775D01*
X30866Y10868D01*
X30963Y10954D01*
X31023Y11029D01*
X31089Y11097D01*
X31162Y11205D01*
X31243Y11307D01*
X31288Y11391D01*
X31342Y11470D01*
X31394Y11589D01*
X31456Y11704D01*
X31485Y11795D01*
X31524Y11882D01*
X31555Y12009D01*
X31595Y12132D01*
X31608Y12227D01*
X31630Y12320D01*
X31638Y12449D01*
X31656Y12578D01*
X31652Y12674D01*
X31658Y12769D01*
X31643Y12898D01*
X31638Y13028D01*
X31617Y13121D01*
X31606Y13216D01*
X31568Y13341D01*
X31540Y13468D01*
X31503Y13556D01*
X31476Y13647D01*
X31417Y13763D01*
X31367Y13883D01*
X31315Y13964D01*
X31271Y14049D01*
X31193Y14152D01*
X31122Y14261D01*
X31036Y14359D01*
X30999Y14407D01*
X30967Y14438D01*
X30915Y14496D01*
X14496Y30915D01*
X14396Y30999D01*
X14303Y31089D01*
X14223Y31143D01*
X14150Y31204D01*
X14037Y31269D01*
X13930Y31342D01*
X13842Y31380D01*
X13759Y31428D01*
X13637Y31471D01*
X13518Y31524D01*
X13425Y31546D01*
X13335Y31578D01*
X13206Y31600D01*
X13080Y31630D01*
X12985Y31636D01*
X12891Y31652D01*
X12760Y31650D01*
X12631Y31658D01*
X12536Y31647D01*
X12440Y31646D01*
X12313Y31621D01*
X12184Y31606D01*
X12092Y31578D01*
X11998Y31560D01*
X11877Y31513D01*
X11753Y31476D01*
X11668Y31432D01*
X11578Y31398D01*
X11467Y31330D01*
X11351Y31271D01*
X11275Y31214D01*
X11194Y31164D01*
X11096Y31078D01*
X10993Y30999D01*
X10928Y30929D01*
X10856Y30866D01*
X10776Y30764D01*
X10687Y30668D01*
X10636Y30587D01*
X10577Y30513D01*
X10516Y30398D01*
X10446Y30288D01*
X10409Y30200D01*
X10364Y30116D01*
X10324Y29992D01*
X10275Y29872D01*
X10255Y29778D01*
X10225Y29688D01*
X10207Y29559D01*
X10180Y29432D01*
X10172Y29302D01*
X10164Y29242D01*
X10165Y29197D01*
X10161Y29120D01*
X10161Y12700D01*
X10164Y12665D01*
X10162Y12631D01*
X10184Y12442D01*
X10201Y12251D01*
X10210Y12218D01*
X10214Y12184D01*
X10269Y12001D01*
X10319Y11817D01*
X10334Y11786D01*
X10344Y11753D01*
X10431Y11582D01*
X10513Y11410D01*
X10533Y11382D01*
X10548Y11351D01*
X10664Y11199D01*
X10775Y11044D01*
X10800Y11020D01*
X10820Y10993D01*
X10960Y10864D01*
X11097Y10730D01*
X11126Y10711D01*
X11152Y10687D01*
X11313Y10585D01*
X11470Y10478D01*
X11502Y10464D01*
X11531Y10446D01*
X11708Y10373D01*
X11882Y10296D01*
X11916Y10288D01*
X11948Y10275D01*
X12135Y10235D01*
X12320Y10189D01*
X12354Y10187D01*
X12388Y10180D01*
X12700Y10161D01*
X29120Y10161D01*
X29249Y10172D01*
G37*
%LPC*%
G36*
X415838Y271525D02*
X415838Y271525D01*
X411225Y276138D01*
X411225Y282662D01*
X415838Y287275D01*
X422362Y287275D01*
X426975Y282662D01*
X426975Y276138D01*
X422362Y271525D01*
X415838Y271525D01*
G37*
%LPD*%
%LPC*%
G36*
X315934Y335025D02*
X315934Y335025D01*
X313039Y336224D01*
X310824Y338439D01*
X309625Y341334D01*
X309625Y344466D01*
X310824Y347361D01*
X313039Y349576D01*
X315934Y350775D01*
X319066Y350775D01*
X321961Y349576D01*
X324176Y347361D01*
X325375Y344466D01*
X325375Y341334D01*
X324176Y338439D01*
X321961Y336224D01*
X319066Y335025D01*
X315934Y335025D01*
G37*
%LPD*%
%LPC*%
G36*
X430254Y170029D02*
X430254Y170029D01*
X427398Y171212D01*
X425212Y173398D01*
X424029Y176254D01*
X424029Y179346D01*
X425212Y182202D01*
X427398Y184388D01*
X430254Y185571D01*
X433346Y185571D01*
X436202Y184388D01*
X438388Y182202D01*
X439571Y179346D01*
X439571Y176254D01*
X438388Y173398D01*
X436202Y171212D01*
X433346Y170029D01*
X430254Y170029D01*
G37*
%LPD*%
G36*
X533235Y10164D02*
X533235Y10164D01*
X533269Y10162D01*
X533458Y10184D01*
X533649Y10201D01*
X533682Y10210D01*
X533716Y10214D01*
X533899Y10269D01*
X534083Y10319D01*
X534114Y10334D01*
X534147Y10344D01*
X534318Y10431D01*
X534490Y10513D01*
X534518Y10533D01*
X534549Y10548D01*
X534701Y10664D01*
X534856Y10775D01*
X534880Y10800D01*
X534907Y10820D01*
X535036Y10960D01*
X535170Y11097D01*
X535189Y11126D01*
X535213Y11152D01*
X535315Y11313D01*
X535422Y11470D01*
X535436Y11502D01*
X535454Y11531D01*
X535527Y11708D01*
X535604Y11882D01*
X535612Y11916D01*
X535625Y11948D01*
X535665Y12135D01*
X535711Y12320D01*
X535713Y12354D01*
X535720Y12388D01*
X535739Y12700D01*
X535739Y17818D01*
X535738Y17836D01*
X535738Y17848D01*
X535731Y17909D01*
X535724Y17995D01*
X535714Y18173D01*
X535704Y18219D01*
X535699Y18267D01*
X535653Y18438D01*
X535612Y18611D01*
X535593Y18655D01*
X535581Y18701D01*
X535505Y18861D01*
X535434Y19025D01*
X535408Y19065D01*
X535387Y19108D01*
X535284Y19252D01*
X535186Y19400D01*
X535153Y19435D01*
X535125Y19474D01*
X534998Y19598D01*
X534875Y19726D01*
X534837Y19754D01*
X534803Y19788D01*
X534655Y19887D01*
X534512Y19992D01*
X534469Y20013D01*
X534430Y20040D01*
X534267Y20112D01*
X534107Y20190D01*
X534062Y20203D01*
X534018Y20222D01*
X533845Y20264D01*
X533674Y20313D01*
X533627Y20317D01*
X533580Y20329D01*
X533403Y20340D01*
X533226Y20357D01*
X533179Y20354D01*
X533131Y20356D01*
X532955Y20336D01*
X532777Y20322D01*
X532731Y20310D01*
X532684Y20304D01*
X532513Y20253D01*
X532342Y20208D01*
X532299Y20188D01*
X532253Y20174D01*
X532094Y20093D01*
X531933Y20019D01*
X531894Y19991D01*
X531851Y19970D01*
X531710Y19863D01*
X531564Y19760D01*
X531531Y19727D01*
X531493Y19698D01*
X531372Y19567D01*
X531247Y19441D01*
X531220Y19402D01*
X531188Y19367D01*
X531092Y19217D01*
X530991Y19071D01*
X530965Y19017D01*
X530946Y18987D01*
X530922Y18928D01*
X530854Y18790D01*
X530797Y18653D01*
X527447Y15303D01*
X526827Y15046D01*
X526670Y14964D01*
X526510Y14887D01*
X526471Y14860D01*
X526428Y14837D01*
X526288Y14729D01*
X526143Y14625D01*
X526110Y14591D01*
X526072Y14562D01*
X525953Y14430D01*
X525829Y14303D01*
X525803Y14263D01*
X525771Y14228D01*
X525677Y14077D01*
X525577Y13930D01*
X525558Y13886D01*
X525533Y13845D01*
X525467Y13680D01*
X525395Y13518D01*
X525384Y13471D01*
X525366Y13427D01*
X525330Y13253D01*
X525288Y13080D01*
X525285Y13033D01*
X525276Y12986D01*
X525272Y12808D01*
X525261Y12631D01*
X525266Y12583D01*
X525265Y12536D01*
X525292Y12360D01*
X525313Y12184D01*
X525327Y12138D01*
X525334Y12091D01*
X525392Y11923D01*
X525443Y11753D01*
X525465Y11710D01*
X525480Y11665D01*
X525567Y11510D01*
X525647Y11351D01*
X525676Y11313D01*
X525700Y11272D01*
X525812Y11134D01*
X525919Y10993D01*
X525955Y10960D01*
X525985Y10923D01*
X526120Y10808D01*
X526251Y10687D01*
X526291Y10662D01*
X526327Y10631D01*
X526480Y10541D01*
X526630Y10446D01*
X526675Y10427D01*
X526716Y10403D01*
X526882Y10342D01*
X527047Y10275D01*
X527094Y10265D01*
X527139Y10248D01*
X527313Y10217D01*
X527487Y10180D01*
X527546Y10176D01*
X527582Y10170D01*
X527645Y10170D01*
X527799Y10161D01*
X533200Y10161D01*
X533235Y10164D01*
G37*
G36*
X12721Y550664D02*
X12721Y550664D01*
X12769Y550661D01*
X12945Y550681D01*
X13123Y550695D01*
X13169Y550707D01*
X13216Y550713D01*
X13386Y550764D01*
X13558Y550809D01*
X13602Y550829D01*
X13647Y550843D01*
X13806Y550924D01*
X13967Y550998D01*
X14006Y551026D01*
X14049Y551047D01*
X14190Y551155D01*
X14336Y551257D01*
X14369Y551291D01*
X14407Y551319D01*
X14528Y551450D01*
X14653Y551576D01*
X14680Y551615D01*
X14712Y551651D01*
X14808Y551800D01*
X14909Y551947D01*
X14935Y552000D01*
X14954Y552030D01*
X14978Y552089D01*
X15046Y552227D01*
X15303Y552847D01*
X16160Y553704D01*
X16244Y553804D01*
X16334Y553897D01*
X16388Y553977D01*
X16449Y554050D01*
X16514Y554163D01*
X16586Y554270D01*
X16625Y554358D01*
X16672Y554441D01*
X16716Y554563D01*
X16769Y554682D01*
X16791Y554775D01*
X16823Y554865D01*
X16844Y554993D01*
X16875Y555120D01*
X16881Y555215D01*
X16897Y555309D01*
X16895Y555439D01*
X16903Y555569D01*
X16892Y555664D01*
X16891Y555759D01*
X16866Y555887D01*
X16851Y556016D01*
X16823Y556108D01*
X16805Y556202D01*
X16758Y556323D01*
X16721Y556447D01*
X16677Y556533D01*
X16643Y556622D01*
X16575Y556733D01*
X16516Y556849D01*
X16459Y556925D01*
X16409Y557006D01*
X16323Y557104D01*
X16244Y557207D01*
X16174Y557272D01*
X16111Y557344D01*
X16009Y557424D01*
X15913Y557513D01*
X15833Y557564D01*
X15758Y557623D01*
X15643Y557684D01*
X15533Y557754D01*
X15445Y557791D01*
X15361Y557836D01*
X15237Y557876D01*
X15117Y557925D01*
X15023Y557945D01*
X14933Y557975D01*
X14804Y557993D01*
X14677Y558020D01*
X14547Y558028D01*
X14486Y558036D01*
X14442Y558035D01*
X14365Y558039D01*
X12700Y558039D01*
X12665Y558036D01*
X12631Y558038D01*
X12442Y558016D01*
X12251Y557999D01*
X12218Y557990D01*
X12184Y557986D01*
X12001Y557931D01*
X11817Y557881D01*
X11786Y557866D01*
X11753Y557856D01*
X11582Y557769D01*
X11410Y557687D01*
X11382Y557667D01*
X11351Y557652D01*
X11199Y557536D01*
X11044Y557425D01*
X11020Y557400D01*
X10993Y557380D01*
X10864Y557240D01*
X10730Y557103D01*
X10711Y557074D01*
X10687Y557048D01*
X10585Y556887D01*
X10478Y556730D01*
X10464Y556698D01*
X10446Y556669D01*
X10373Y556492D01*
X10296Y556318D01*
X10288Y556284D01*
X10275Y556252D01*
X10235Y556065D01*
X10189Y555880D01*
X10187Y555846D01*
X10180Y555812D01*
X10161Y555500D01*
X10161Y553199D01*
X10176Y553022D01*
X10186Y552845D01*
X10196Y552798D01*
X10201Y552751D01*
X10248Y552579D01*
X10288Y552406D01*
X10307Y552362D01*
X10319Y552316D01*
X10395Y552156D01*
X10466Y551993D01*
X10492Y551952D01*
X10513Y551910D01*
X10616Y551765D01*
X10714Y551617D01*
X10747Y551582D01*
X10775Y551543D01*
X10902Y551419D01*
X11025Y551291D01*
X11063Y551263D01*
X11097Y551229D01*
X11245Y551130D01*
X11388Y551025D01*
X11431Y551004D01*
X11470Y550977D01*
X11633Y550905D01*
X11792Y550827D01*
X11839Y550814D01*
X11882Y550795D01*
X12055Y550753D01*
X12226Y550704D01*
X12273Y550700D01*
X12320Y550688D01*
X12497Y550678D01*
X12674Y550660D01*
X12721Y550664D01*
G37*
D10*
X419100Y279400D03*
X419100Y228600D03*
D11*
X76200Y495300D03*
X127000Y495300D03*
D12*
X88900Y165100D03*
D13*
X38100Y165100D03*
D14*
X203200Y139700D03*
X203200Y190500D03*
D12*
X190500Y342900D03*
D13*
X139700Y342900D03*
D12*
X165100Y215900D03*
D13*
X114300Y215900D03*
D11*
X50800Y444500D03*
X101600Y444500D03*
X254000Y419100D03*
X304800Y419100D03*
D15*
X44704Y254000D02*
X31496Y254000D01*
X107696Y254000D02*
X120904Y254000D01*
X171196Y279400D02*
X184404Y279400D01*
X108204Y279400D02*
X94996Y279400D01*
D16*
X495300Y63500D03*
X495300Y114300D03*
D17*
X241300Y368300D03*
X241300Y342900D03*
X317500Y342900D03*
X317500Y368300D03*
X241300Y317500D03*
X241300Y292100D03*
X317500Y317500D03*
X317500Y292100D03*
D18*
X468630Y525780D02*
X468630Y541020D01*
X496570Y541020D02*
X496570Y525780D01*
D19*
X381000Y25400D03*
X431800Y25400D03*
X381000Y177800D03*
X431800Y177800D03*
D18*
X24130Y487680D02*
X24130Y502920D01*
X52070Y502920D02*
X52070Y487680D01*
D10*
X355600Y355600D03*
X355600Y279400D03*
D11*
X190500Y215900D03*
X266700Y215900D03*
D20*
X114300Y60325D02*
X114300Y41275D01*
X88900Y41275D02*
X88900Y60325D01*
X63500Y60325D02*
X63500Y41275D01*
X266700Y41275D02*
X266700Y60325D01*
X241300Y60325D02*
X241300Y41275D01*
X215900Y41275D02*
X215900Y60325D01*
D21*
X88900Y215900D03*
X12700Y215900D03*
D14*
X292100Y177800D03*
X292100Y254000D03*
D21*
X419100Y469900D03*
X342900Y469900D03*
X419100Y444500D03*
X342900Y444500D03*
D10*
X177800Y495300D03*
X177800Y419100D03*
D14*
X203200Y419100D03*
X203200Y495300D03*
D10*
X469900Y508000D03*
X469900Y431800D03*
X495300Y508000D03*
X495300Y431800D03*
D21*
X419100Y495300D03*
X342900Y495300D03*
D14*
X482600Y279400D03*
X482600Y355600D03*
D10*
X457200Y368300D03*
X457200Y292100D03*
D14*
X381000Y266700D03*
X381000Y342900D03*
D22*
X419100Y63500D02*
X495300Y63500D01*
X419100Y63500D02*
X381000Y25400D01*
X520700Y509270D02*
X496570Y533400D01*
X64770Y469900D02*
X52070Y482600D01*
X52070Y495300D01*
X64770Y469900D02*
X64770Y419100D01*
X38100Y165100D02*
X38100Y101600D01*
X63500Y76200D01*
X63500Y50800D01*
X114300Y215900D02*
X114300Y254000D01*
X88900Y190500D02*
X50800Y190500D01*
X38100Y177800D01*
X38100Y165100D01*
X165100Y292100D02*
X241300Y292100D01*
X165100Y292100D02*
X127000Y254000D01*
X114300Y254000D02*
X114300Y241300D01*
X114300Y254000D02*
X127000Y254000D01*
X520700Y279400D02*
X520700Y509270D01*
X520700Y279400D02*
X520700Y88900D01*
X495300Y63500D01*
X482600Y279400D02*
X520700Y279400D01*
X114300Y215900D02*
X88900Y190500D01*
X12700Y367030D02*
X64770Y419100D01*
X12700Y241300D02*
X38100Y215900D01*
X12700Y241300D02*
X12700Y367030D01*
X38100Y215900D02*
X88900Y215900D01*
X114300Y215900D01*
X495300Y228600D02*
X495300Y114300D01*
X457200Y254000D02*
X457200Y292100D01*
X457200Y254000D02*
X292100Y254000D01*
X457200Y292100D02*
X457200Y330200D01*
X419100Y368300D01*
X317500Y368300D01*
X292100Y254000D02*
X469900Y254000D01*
X495300Y228600D01*
X468630Y533400D02*
X101600Y533400D01*
X76200Y508000D01*
X76200Y495300D01*
X127000Y495300D02*
X177800Y495300D01*
X177800Y419100D02*
X203200Y419100D01*
X304800Y304800D02*
X317500Y292100D01*
X304800Y304800D02*
X203200Y304800D01*
X165100Y342900D01*
X165100Y406400D02*
X177800Y419100D01*
X165100Y406400D02*
X165100Y342900D01*
X228600Y508000D02*
X469900Y508000D01*
X228600Y508000D02*
X203200Y495300D01*
X469900Y508000D02*
X495300Y508000D01*
X317500Y482600D02*
X266700Y431800D01*
X266700Y355600D01*
X254000Y342900D01*
X241300Y342900D01*
X381000Y495300D02*
X419100Y495300D01*
X381000Y495300D02*
X368300Y482600D01*
X431800Y495300D02*
X469900Y457200D01*
X431800Y495300D02*
X419100Y495300D01*
X368300Y482600D02*
X317500Y482600D01*
X469900Y457200D02*
X469900Y431800D01*
X469900Y355600D02*
X482600Y355600D01*
X469900Y355600D02*
X457200Y368300D01*
X469900Y406400D02*
X457200Y419100D01*
X444500Y431800D01*
X444500Y444500D02*
X419100Y469900D01*
X444500Y444500D02*
X444500Y431800D01*
X457200Y419100D02*
X457200Y368300D01*
X419100Y215900D02*
X381000Y177800D01*
X419100Y215900D02*
X419100Y228600D01*
X469900Y406400D02*
X495300Y431800D01*
X266700Y241300D02*
X241300Y215900D01*
X406400Y241300D02*
X419100Y228600D01*
X406400Y241300D02*
X266700Y241300D01*
X241300Y190500D02*
X215900Y165100D01*
X241300Y190500D02*
X241300Y215900D01*
X215900Y165100D02*
X88900Y165100D01*
X203200Y190500D02*
X228600Y215900D01*
X228600Y228600D01*
X266700Y266700D01*
X381000Y266700D01*
X381000Y342900D02*
X368300Y355600D01*
X355600Y355600D01*
X317500Y317500D01*
X139700Y342900D02*
X114300Y342900D01*
X88900Y317500D02*
X50800Y317500D01*
X101600Y304800D02*
X101600Y279400D01*
X38100Y304800D02*
X38100Y254000D01*
X38100Y304800D02*
X50800Y317500D01*
X88900Y317500D02*
X101600Y304800D01*
X88900Y317500D02*
X114300Y342900D01*
X165100Y215900D02*
X190500Y215900D01*
X190500Y266700D02*
X177800Y279400D01*
X190500Y266700D02*
X190500Y215900D01*
X254000Y444500D02*
X101600Y444500D01*
X254000Y444500D02*
X254000Y419100D01*
X241300Y406400D01*
X241300Y368300D01*
X304800Y495300D02*
X342900Y495300D01*
X304800Y495300D02*
X254000Y444500D01*
D23*
X25400Y494030D02*
X24130Y495300D01*
D22*
X25400Y494030D02*
X25400Y469900D01*
X50800Y444500D01*
X266700Y215900D02*
X317500Y215900D01*
X431800Y25400D02*
X419100Y12700D01*
X330200Y12700D01*
X241300Y50800D02*
X241300Y88900D01*
X273050Y120650D01*
X317500Y165100D01*
X317500Y215900D01*
X292100Y50800D02*
X330200Y12700D01*
X292100Y50800D02*
X292100Y101600D01*
X273050Y120650D01*
X88900Y76200D02*
X88900Y50800D01*
X88900Y76200D02*
X152400Y139700D01*
X203200Y139700D01*
X292100Y165100D02*
X292100Y177800D01*
X292100Y165100D02*
X215900Y88900D01*
X215900Y50800D01*
X266700Y50800D02*
X266700Y25400D01*
X254000Y12700D01*
X38100Y12700D01*
X12700Y38100D01*
X12700Y215900D01*
X368300Y469900D02*
X393700Y444500D01*
X368300Y469900D02*
X342900Y469900D01*
X393700Y444500D02*
X419100Y444500D01*
X279400Y355600D02*
X241300Y317500D01*
X330200Y469900D02*
X342900Y469900D01*
X330200Y469900D02*
X279400Y419100D01*
X279400Y355600D01*
X317500Y419100D02*
X342900Y444500D01*
X317500Y419100D02*
X304800Y419100D01*
M02*
