M48
;GenerationSoftware,Autodesk,EAGLE,9.3.1*%
;CreationDate,2019-02-25T10:49:00Z*%
FMAT,2
ICI,OFF
METRIC,TZ,000.000
T5C0.813
T4C0.914
T3C1.016
T2C1.118
T1C3.200
%
G90
M71
T1
X35560Y48260
X5080Y6350
T2
X7620Y21590
X2540Y21590
X16510Y2540
X16510Y12700
T3
X15367Y48260
X27813Y48260
X31877Y5080
X29083Y5080
X30607Y48260
X22987Y48260
X20193Y48260
X12573Y48260
X7747Y48260
X4953Y48260
T4
X10160Y2540
X10160Y12700
X21590Y12700
X21590Y2540
X25400Y15240
X25400Y25400
T5
X16510Y16510
X19050Y16510
X16510Y24130
X19050Y24130
X5080Y44450
X10160Y44450
X11430Y24130
X12700Y44450
X13970Y24130
X33020Y43180
X13970Y16510
X27940Y43180
X25400Y44450
X20320Y44450
X31750Y15240
X31750Y25400
X35560Y15240
X35560Y25400
X5080Y40640
X5080Y30480
X8890Y40640
X8890Y30480
X12700Y40640
X12700Y30480
X16510Y40640
X16510Y30480
X25400Y11430
X35560Y11430
X20320Y34290
X30480Y34290
X30480Y30480
X20320Y30480
X21590Y27940
X11430Y27940
X11430Y16510
X17780Y44450
M30