M48
;GenerationSoftware,Autodesk,EAGLE,9.3.1*%
;CreationDate,2019-02-19T17:39:33Z*%
FMAT,2
ICI,OFF
METRIC,TZ,000.000
T6C0.350
T5C0.700
T4C0.813
T3C1.016
T2C1.118
T1C1.270
%
G90
M71
T1
X21590Y5080
X24130Y5080
X26670Y5080
X6350Y5080
X8890Y5080
X11430Y5080
T2
X49530Y11430
X49530Y6350
T3
X5207Y49530
X2413Y49530
X49657Y53340
X46863Y53340
T4
X16510Y21590
X11430Y21590
X5080Y44450
X10160Y44450
X25400Y41910
X30480Y41910
X3810Y25400
X11430Y25400
X17780Y27940
X10160Y27940
X13970Y34290
X19050Y34290
X24130Y36830
X24130Y34290
X31750Y34290
X31750Y36830
X24130Y31750
X24130Y29210
X31750Y31750
X31750Y29210
X20320Y19050
X20320Y13970
X45720Y29210
X45720Y36830
X48260Y35560
X48260Y27940
X3810Y16510
X8890Y16510
X35560Y35560
X35560Y27940
X19050Y21590
X26670Y21590
X12700Y49530
X7620Y49530
X41910Y22860
X41910Y27940
X38100Y26670
X38100Y34290
X8890Y21590
X1270Y21590
X29210Y17780
X29210Y25400
X41910Y46990
X34290Y46990
X41910Y44450
X34290Y44450
X17780Y49530
X17780Y41910
X20320Y41910
X20320Y49530
X46990Y50800
X46990Y43180
X49530Y50800
X49530Y43180
X41910Y49530
X34290Y49530
T5
X43180Y17780
X38100Y17780
X43180Y2540
X38100Y2540
T6
X52070Y2540
X2540Y54610
M30